<?xml version="1.0" encoding="UTF-8" standalone="no"?>
<!DOCTYPE svg PUBLIC "-//W3C//DTD SVG 1.1//EN"
 "http://www.w3.org/Graphics/SVG/1.1/DTD/svg11.dtd">
<!-- Generated by graphviz version 12.2.1 (20241206.2353)
 -->
<!-- Title: finite_state_machine Pages: 1 -->
<svg width="297pt" height="175pt"
 viewBox="0.00 0.00 297.11 175.00" xmlns="http://www.w3.org/2000/svg" xmlns:xlink="http://www.w3.org/1999/xlink">
<g id="graph0" class="graph" transform="scale(1 1) rotate(0) translate(4 171)">
<title>finite_state_machine</title>
<polygon fill="white" stroke="none" points="-4,4 -4,-171 293.11,-171 293.11,4 -4,4"/>
<!-- s4 -->
<g id="node1" class="node">
<title>s4</title>
<ellipse fill="none" stroke="black" cx="23.11" cy="-141.11" rx="19.11" ry="19.11"/>
<ellipse fill="none" stroke="black" cx="23.11" cy="-141.11" rx="23.11" ry="23.11"/>
<text text-anchor="middle" x="23.11" y="-136.06" font-family="Times,serif" font-size="14.00">s4</text>
</g>
<!-- s1 -->
<g id="node3" class="node">
<title>s1</title>
<ellipse fill="none" stroke="black" cx="189.04" cy="-78.11" rx="19.11" ry="19.11"/>
<text text-anchor="middle" x="189.04" y="-73.06" font-family="Times,serif" font-size="14.00">s1</text>
</g>
<!-- s4&#45;&gt;s1 -->
<g id="edge9" class="edge">
<title>s4&#45;&gt;s1</title>
<path fill="none" stroke="black" d="M46,-137.21C67.27,-133.01 100.21,-125.36 127.18,-114.11 139.54,-108.95 152.42,-101.65 163.14,-94.97"/>
<polygon fill="black" stroke="black" points="164.87,-98.02 171.38,-89.66 161.08,-92.13 164.87,-98.02"/>
<text text-anchor="middle" x="108.07" y="-129.89" font-family="Times,serif" font-size="14.00">a</text>
</g>
<!-- s2 -->
<g id="node4" class="node">
<title>s2</title>
<ellipse fill="none" stroke="black" cx="108.07" cy="-51.11" rx="19.11" ry="19.11"/>
<text text-anchor="middle" x="108.07" y="-46.06" font-family="Times,serif" font-size="14.00">s2</text>
</g>
<!-- s4&#45;&gt;s2 -->
<g id="edge10" class="edge">
<title>s4&#45;&gt;s2</title>
<path fill="none" stroke="black" d="M39.32,-124.6C52.67,-110.13 72.16,-88.98 86.82,-73.08"/>
<polygon fill="black" stroke="black" points="89.17,-75.7 93.37,-65.97 84.02,-70.95 89.17,-75.7"/>
<text text-anchor="middle" x="67.59" y="-99.31" font-family="Times,serif" font-size="14.00">b</text>
</g>
<!-- s0 -->
<g id="node2" class="node">
<title>s0</title>
<ellipse fill="none" stroke="black" cx="23.11" cy="-19.11" rx="19.11" ry="19.11"/>
<text text-anchor="middle" x="23.11" y="-14.06" font-family="Times,serif" font-size="14.00">s0</text>
</g>
<!-- s0&#45;&gt;s1 -->
<g id="edge1" class="edge">
<title>s0&#45;&gt;s1</title>
<path fill="none" stroke="black" d="M41.03,-11.75C62.18,-3.72 99.03,6.4 127.18,-6.61 147.28,-15.89 163.18,-35.45 173.68,-51.77"/>
<polygon fill="black" stroke="black" points="170.55,-53.35 178.73,-60.09 176.54,-49.73 170.55,-53.35"/>
<text text-anchor="middle" x="108.07" y="-9.81" font-family="Times,serif" font-size="14.00">a</text>
</g>
<!-- s0&#45;&gt;s2 -->
<g id="edge2" class="edge">
<title>s0&#45;&gt;s2</title>
<path fill="none" stroke="black" d="M41.3,-25.74C52.31,-29.99 66.85,-35.59 79.46,-40.46"/>
<polygon fill="black" stroke="black" points="77.9,-43.61 88.49,-43.94 80.42,-37.08 77.9,-43.61"/>
<text text-anchor="middle" x="67.59" y="-40.22" font-family="Times,serif" font-size="14.00">b</text>
</g>
<!-- s1&#45;&gt;s1 -->
<g id="edge3" class="edge">
<title>s1&#45;&gt;s1</title>
<path fill="none" stroke="black" d="M181.81,-96.05C180.46,-106.03 182.87,-115.22 189.04,-115.22 192.7,-115.22 195.04,-111.98 196.05,-107.26"/>
<polygon fill="black" stroke="black" points="199.54,-107.63 196.24,-97.57 192.54,-107.5 199.54,-107.63"/>
<text text-anchor="middle" x="189.04" y="-118.42" font-family="Times,serif" font-size="14.00">a</text>
</g>
<!-- s3 -->
<g id="node5" class="node">
<title>s3</title>
<ellipse fill="none" stroke="black" cx="270" cy="-118.11" rx="19.11" ry="19.11"/>
<text text-anchor="middle" x="270" y="-113.06" font-family="Times,serif" font-size="14.00">s3</text>
</g>
<!-- s1&#45;&gt;s3 -->
<g id="edge4" class="edge">
<title>s1&#45;&gt;s3</title>
<path fill="none" stroke="black" d="M206.4,-86.4C216.81,-91.67 230.54,-98.62 242.48,-104.67"/>
<polygon fill="black" stroke="black" points="240.54,-107.61 251.04,-109.01 243.7,-101.37 240.54,-107.61"/>
<text text-anchor="middle" x="229.52" y="-102.51" font-family="Times,serif" font-size="14.00">b</text>
</g>
<!-- s2&#45;&gt;s1 -->
<g id="edge5" class="edge">
<title>s2&#45;&gt;s1</title>
<path fill="none" stroke="black" d="M126.6,-57.1C136.31,-60.42 148.62,-64.63 159.67,-68.41"/>
<polygon fill="black" stroke="black" points="158.53,-71.72 169.13,-71.64 160.8,-65.1 158.53,-71.72"/>
<text text-anchor="middle" x="148.56" y="-68.62" font-family="Times,serif" font-size="14.00">a</text>
</g>
<!-- s2&#45;&gt;s2 -->
<g id="edge6" class="edge">
<title>s2&#45;&gt;s2</title>
<path fill="none" stroke="black" d="M100.85,-69.05C99.5,-79.03 101.91,-88.22 108.07,-88.22 111.73,-88.22 114.07,-84.98 115.08,-80.26"/>
<polygon fill="black" stroke="black" points="118.58,-80.63 115.27,-70.57 111.58,-80.5 118.58,-80.63"/>
<text text-anchor="middle" x="108.07" y="-91.42" font-family="Times,serif" font-size="14.00">b</text>
</g>
<!-- s3&#45;&gt;s4 -->
<g id="edge8" class="edge">
<title>s3&#45;&gt;s4</title>
<path fill="none" stroke="black" d="M252.09,-126C240.1,-131.23 223.47,-137.72 208.15,-141.11 145.65,-154.93 128.01,-151.36 64.22,-146.11 62.01,-145.93 59.74,-145.71 57.46,-145.48"/>
<polygon fill="black" stroke="black" points="57.97,-142.02 47.64,-144.36 57.18,-148.97 57.97,-142.02"/>
<text text-anchor="middle" x="148.56" y="-153.7" font-family="Times,serif" font-size="14.00">b</text>
</g>
<!-- s3&#45;&gt;s1 -->
<g id="edge7" class="edge">
<title>s3&#45;&gt;s1</title>
<path fill="none" stroke="black" d="M259.58,-101.58C253.33,-92.37 244.19,-81.75 232.9,-76.61 228.67,-74.68 223.96,-73.79 219.26,-73.53"/>
<polygon fill="black" stroke="black" points="219.2,-70.03 209.35,-73.93 219.48,-77.02 219.2,-70.03"/>
<text text-anchor="middle" x="229.52" y="-79.81" font-family="Times,serif" font-size="14.00">a</text>
</g>
</g>
</svg>
