<?xml version="1.0" encoding="UTF-8" standalone="no"?>
<!DOCTYPE svg PUBLIC "-//W3C//DTD SVG 1.1//EN"
 "http://www.w3.org/Graphics/SVG/1.1/DTD/svg11.dtd">
<!-- Generated by graphviz version 2.38.0 (20140413.2041)
 -->
<!-- Title: finite_state_machine Pages: 1 -->
<svg width="224pt" height="52pt"
 viewBox="0.00 0.00 224.43 52.00" xmlns="http://www.w3.org/2000/svg" xmlns:xlink="http://www.w3.org/1999/xlink">
<g id="graph0" class="graph" transform="scale(1 1) rotate(0) translate(4 48)">
<title>finite_state_machine</title>
<polygon fill="white" stroke="none" points="-4,4 -4,-48 220.428,-48 220.428,4 -4,4"/>
<!-- s0 -->
<g id="node1" class="node"><title>s0</title>
<ellipse fill="none" stroke="black" cx="22" cy="-22" rx="18" ry="18"/>
<ellipse fill="none" stroke="black" cx="22" cy="-22" rx="22" ry="22"/>
<text text-anchor="middle" x="22" y="-17.8" font-family="Times,serif" font-size="14.00">s0</text>
</g>
<!-- s1 -->
<g id="node2" class="node"><title>s1</title>
<ellipse fill="none" stroke="black" cx="108.214" cy="-22" rx="18" ry="18"/>
<ellipse fill="none" stroke="black" cx="108.214" cy="-22" rx="22" ry="22"/>
<text text-anchor="middle" x="108.214" y="-17.8" font-family="Times,serif" font-size="14.00">s1</text>
</g>
<!-- s0&#45;&gt;s1 -->
<g id="edge1" class="edge"><title>s0&#45;&gt;s1</title>
<path fill="none" stroke="black" d="M44.2507,-22C53.8254,-22 65.3248,-22 75.8613,-22"/>
<polygon fill="black" stroke="black" points="75.97,-25.5001 85.97,-22 75.9699,-18.5001 75.97,-25.5001"/>
<text text-anchor="middle" x="65.1069" y="-24.8" font-family="Times,serif" font-size="14.00">a</text>
</g>
<!-- s2 -->
<g id="node3" class="node"><title>s2</title>
<ellipse fill="none" stroke="black" cx="194.428" cy="-22" rx="18" ry="18"/>
<ellipse fill="none" stroke="black" cx="194.428" cy="-22" rx="22" ry="22"/>
<text text-anchor="middle" x="194.428" y="-17.8" font-family="Times,serif" font-size="14.00">s2</text>
</g>
<!-- s1&#45;&gt;s2 -->
<g id="edge2" class="edge"><title>s1&#45;&gt;s2</title>
<path fill="none" stroke="black" d="M130.465,-22C140.039,-22 151.539,-22 162.075,-22"/>
<polygon fill="black" stroke="black" points="162.184,-25.5001 172.184,-22 162.184,-18.5001 162.184,-25.5001"/>
<text text-anchor="middle" x="151.321" y="-24.8" font-family="Times,serif" font-size="14.00">a</text>
</g>
</g>
</svg>
