<?xml version="1.0" encoding="UTF-8" standalone="no"?>
<!DOCTYPE svg PUBLIC "-//W3C//DTD SVG 1.1//EN"
 "http://www.w3.org/Graphics/SVG/1.1/DTD/svg11.dtd">
<!-- Generated by graphviz version 2.38.0 (20140413.2041)
 -->
<!-- Title: finite_state_machine Pages: 1 -->
<svg width="699pt" height="190pt"
 viewBox="0.00 0.00 698.99 190.00" xmlns="http://www.w3.org/2000/svg" xmlns:xlink="http://www.w3.org/1999/xlink">
<g id="graph0" class="graph" transform="scale(1 1) rotate(0) translate(4 186)">
<title>finite_state_machine</title>
<polygon fill="white" stroke="none" points="-4,4 -4,-186 694.991,-186 694.991,4 -4,4"/>
<!-- s2 -->
<g id="node1" class="node"><title>s2</title>
<ellipse fill="none" stroke="black" cx="668.991" cy="-148" rx="18" ry="18"/>
<ellipse fill="none" stroke="black" cx="668.991" cy="-148" rx="22" ry="22"/>
<text text-anchor="middle" x="668.991" y="-143.8" font-family="Times,serif" font-size="14.00">s2</text>
</g>
<!-- s0 -->
<g id="node2" class="node"><title>s0</title>
<ellipse fill="none" stroke="black" cx="18" cy="-93" rx="18" ry="18"/>
<text text-anchor="middle" x="18" y="-88.8" font-family="Times,serif" font-size="14.00">s0</text>
</g>
<!-- s1 -->
<g id="node3" class="node"><title>s1</title>
<ellipse fill="none" stroke="black" cx="96.2139" cy="-93" rx="18" ry="18"/>
<text text-anchor="middle" x="96.2139" y="-88.8" font-family="Times,serif" font-size="14.00">s1</text>
</g>
<!-- s0&#45;&gt;s1 -->
<g id="edge1" class="edge"><title>s0&#45;&gt;s1</title>
<path fill="none" stroke="black" d="M36.2941,-93C45.6488,-93 57.4172,-93 67.9721,-93"/>
<polygon fill="black" stroke="black" points="67.9882,-96.5001 77.9882,-93 67.9882,-89.5001 67.9882,-96.5001"/>
<text text-anchor="middle" x="57.1069" y="-95.8" font-family="Times,serif" font-size="14.00">a</text>
</g>
<!-- s1&#45;&gt;s2 -->
<g id="edge2" class="edge"><title>s1&#45;&gt;s2</title>
<path fill="none" stroke="black" d="M104.662,-108.906C116.202,-130.921 140.623,-168 174.214,-168 174.214,-168 174.214,-168 582.599,-168 601.334,-168 621.787,-163.379 637.978,-158.58"/>
<polygon fill="black" stroke="black" points="639.451,-161.786 647.941,-155.447 637.352,-155.108 639.451,-161.786"/>
<text text-anchor="middle" x="377.762" y="-170.8" font-family="Times,serif" font-size="14.00">b</text>
</g>
<!-- s3 -->
<g id="node4" class="node"><title>s3</title>
<ellipse fill="none" stroke="black" cx="175.214" cy="-18" rx="18" ry="18"/>
<text text-anchor="middle" x="175.214" y="-13.8" font-family="Times,serif" font-size="14.00">s3</text>
</g>
<!-- s1&#45;&gt;s3 -->
<g id="edge3" class="edge"><title>s1&#45;&gt;s3</title>
<path fill="none" stroke="black" d="M105.954,-77.6496C112.334,-67.328 121.682,-53.8595 132.214,-44 137.514,-39.0385 143.901,-34.5152 150.078,-30.6828"/>
<polygon fill="black" stroke="black" points="151.942,-33.6473 158.824,-25.5918 148.421,-27.5974 151.942,-33.6473"/>
<text text-anchor="middle" x="135.714" y="-46.8" font-family="Times,serif" font-size="14.00">d</text>
</g>
<!-- s4 -->
<g id="node5" class="node"><title>s4</title>
<ellipse fill="none" stroke="black" cx="175.214" cy="-122" rx="18" ry="18"/>
<text text-anchor="middle" x="175.214" y="-117.8" font-family="Times,serif" font-size="14.00">s4</text>
</g>
<!-- s1&#45;&gt;s4 -->
<g id="edge4" class="edge"><title>s1&#45;&gt;s4</title>
<path fill="none" stroke="black" d="M113.544,-99.1502C123.719,-102.982 137.027,-107.995 148.587,-112.348"/>
<polygon fill="black" stroke="black" points="147.58,-115.709 158.172,-115.958 150.047,-109.158 147.58,-115.709"/>
<text text-anchor="middle" x="135.714" y="-111.8" font-family="Times,serif" font-size="14.00">k</text>
</g>
<!-- s5 -->
<g id="node6" class="node"><title>s5</title>
<ellipse fill="none" stroke="black" cx="253.428" cy="-50" rx="18" ry="18"/>
<text text-anchor="middle" x="253.428" y="-45.8" font-family="Times,serif" font-size="14.00">s5</text>
</g>
<!-- s3&#45;&gt;s5 -->
<g id="edge5" class="edge"><title>s3&#45;&gt;s5</title>
<path fill="none" stroke="black" d="M192.005,-24.6304C202.224,-28.921 215.749,-34.5996 227.411,-39.4963"/>
<polygon fill="black" stroke="black" points="226.081,-42.7338 236.656,-43.3781 228.791,-36.2796 226.081,-42.7338"/>
<text text-anchor="middle" x="214.321" y="-37.8" font-family="Times,serif" font-size="14.00">e</text>
</g>
<!-- s6 -->
<g id="node7" class="node"><title>s6</title>
<ellipse fill="none" stroke="black" cx="253.428" cy="-122" rx="18" ry="18"/>
<text text-anchor="middle" x="253.428" y="-117.8" font-family="Times,serif" font-size="14.00">s6</text>
</g>
<!-- s4&#45;&gt;s6 -->
<g id="edge6" class="edge"><title>s4&#45;&gt;s6</title>
<path fill="none" stroke="black" d="M193.508,-122C202.863,-122 214.631,-122 225.186,-122"/>
<polygon fill="black" stroke="black" points="225.202,-125.5 235.202,-122 225.202,-118.5 225.202,-125.5"/>
<text text-anchor="middle" x="214.321" y="-124.8" font-family="Times,serif" font-size="14.00">l</text>
</g>
<!-- s5&#45;&gt;s1 -->
<g id="edge7" class="edge"><title>s5&#45;&gt;s1</title>
<path fill="none" stroke="black" d="M235.937,-54.5687C209.175,-61.9827 156.047,-76.701 123.867,-85.6162"/>
<polygon fill="black" stroke="black" points="122.527,-82.3554 113.824,-88.3982 124.396,-89.1013 122.527,-82.3554"/>
<text text-anchor="middle" x="175.214" y="-78.8" font-family="Times,serif" font-size="14.00">f</text>
</g>
<!-- s7 -->
<g id="node8" class="node"><title>s7</title>
<ellipse fill="none" stroke="black" cx="336.317" cy="-122" rx="18" ry="18"/>
<text text-anchor="middle" x="336.317" y="-117.8" font-family="Times,serif" font-size="14.00">s7</text>
</g>
<!-- s6&#45;&gt;s7 -->
<g id="edge8" class="edge"><title>s6&#45;&gt;s7</title>
<path fill="none" stroke="black" d="M271.582,-122C282.2,-122 296.065,-122 308.151,-122"/>
<polygon fill="black" stroke="black" points="308.188,-125.5 318.187,-122 308.187,-118.5 308.188,-125.5"/>
<text text-anchor="middle" x="294.873" y="-124.8" font-family="Times,serif" font-size="14.00">m</text>
</g>
<!-- s8 -->
<g id="node9" class="node"><title>s8</title>
<ellipse fill="none" stroke="black" cx="419.207" cy="-122" rx="18" ry="18"/>
<text text-anchor="middle" x="419.207" y="-117.8" font-family="Times,serif" font-size="14.00">s8</text>
</g>
<!-- s7&#45;&gt;s8 -->
<g id="edge9" class="edge"><title>s7&#45;&gt;s8</title>
<path fill="none" stroke="black" d="M354.472,-122C365.089,-122 378.955,-122 391.041,-122"/>
<polygon fill="black" stroke="black" points="391.077,-125.5 401.077,-122 391.077,-118.5 391.077,-125.5"/>
<text text-anchor="middle" x="377.762" y="-124.8" font-family="Times,serif" font-size="14.00">m</text>
</g>
<!-- s9 -->
<g id="node10" class="node"><title>s9</title>
<ellipse fill="none" stroke="black" cx="498.207" cy="-122" rx="18" ry="18"/>
<text text-anchor="middle" x="498.207" y="-117.8" font-family="Times,serif" font-size="14.00">s9</text>
</g>
<!-- s8&#45;&gt;s9 -->
<g id="edge10" class="edge"><title>s8&#45;&gt;s9</title>
<path fill="none" stroke="black" d="M437.296,-122C446.866,-122 459.024,-122 469.884,-122"/>
<polygon fill="black" stroke="black" points="470.166,-125.5 480.166,-122 470.166,-118.5 470.166,-125.5"/>
<text text-anchor="middle" x="458.707" y="-124.8" font-family="Times,serif" font-size="14.00">n</text>
</g>
<!-- s10 -->
<g id="node11" class="node"><title>s10</title>
<ellipse fill="none" stroke="black" cx="581.599" cy="-118" rx="22.2841" ry="22.2841"/>
<text text-anchor="middle" x="581.599" y="-113.8" font-family="Times,serif" font-size="14.00">s10</text>
</g>
<!-- s9&#45;&gt;s10 -->
<g id="edge11" class="edge"><title>s9&#45;&gt;s10</title>
<path fill="none" stroke="black" d="M516.468,-121.152C525.875,-120.689 537.815,-120.103 548.836,-119.561"/>
<polygon fill="black" stroke="black" points="549.192,-123.048 559.008,-119.061 548.848,-116.056 549.192,-123.048"/>
<text text-anchor="middle" x="537.707" y="-123.8" font-family="Times,serif" font-size="14.00">o</text>
</g>
<!-- s10&#45;&gt;s2 -->
<g id="edge12" class="edge"><title>s10&#45;&gt;s2</title>
<path fill="none" stroke="black" d="M602.836,-125.11C613.47,-128.846 626.703,-133.495 638.46,-137.625"/>
<polygon fill="black" stroke="black" points="637.304,-140.929 647.899,-140.941 639.625,-134.325 637.304,-140.929"/>
<text text-anchor="middle" x="625.491" y="-136.8" font-family="Times,serif" font-size="14.00">b</text>
</g>
<!-- s10&#45;&gt;s8 -->
<g id="edge13" class="edge"><title>s10&#45;&gt;s8</title>
<path fill="none" stroke="black" d="M563.394,-104.774C551.018,-96.1317 533.523,-85.6206 516.207,-81 500.748,-76.8748 495.494,-76.2759 480.207,-81 465.75,-85.4678 451.669,-94.7486 440.786,-103.352"/>
<polygon fill="black" stroke="black" points="438.244,-100.914 432.797,-110.001 442.722,-106.294 438.244,-100.914"/>
<text text-anchor="middle" x="498.207" y="-83.8" font-family="Times,serif" font-size="14.00">m</text>
</g>
</g>
</svg>
