<?xml version="1.0" encoding="UTF-8" standalone="no"?>
<!DOCTYPE svg PUBLIC "-//W3C//DTD SVG 1.1//EN"
 "http://www.w3.org/Graphics/SVG/1.1/DTD/svg11.dtd">
<!-- Generated by graphviz version 2.38.0 (20140413.2041)
 -->
<!-- Title: finite_state_machine Pages: 1 -->
<svg width="446pt" height="157pt"
 viewBox="0.00 0.00 446.21 157.00" xmlns="http://www.w3.org/2000/svg" xmlns:xlink="http://www.w3.org/1999/xlink">
<g id="graph0" class="graph" transform="scale(1 1) rotate(0) translate(4 153)">
<title>finite_state_machine</title>
<polygon fill="white" stroke="none" points="-4,4 -4,-153 442.214,-153 442.214,4 -4,4"/>
<!-- s5 -->
<g id="node1" class="node"><title>s5</title>
<ellipse fill="none" stroke="black" cx="416.214" cy="-104" rx="18" ry="18"/>
<ellipse fill="none" stroke="black" cx="416.214" cy="-104" rx="22" ry="22"/>
<text text-anchor="middle" x="416.214" y="-99.8" font-family="Times,serif" font-size="14.00">s5</text>
</g>
<!-- s0 -->
<g id="node2" class="node"><title>s0</title>
<ellipse fill="none" stroke="black" cx="18" cy="-68" rx="18" ry="18"/>
<text text-anchor="middle" x="18" y="-63.8" font-family="Times,serif" font-size="14.00">s0</text>
</g>
<!-- s1 -->
<g id="node3" class="node"><title>s1</title>
<ellipse fill="none" stroke="black" cx="254.214" cy="-104" rx="18" ry="18"/>
<text text-anchor="middle" x="254.214" y="-99.8" font-family="Times,serif" font-size="14.00">s1</text>
</g>
<!-- s0&#45;&gt;s1 -->
<g id="edge1" class="edge"><title>s0&#45;&gt;s1</title>
<path fill="none" stroke="black" d="M28.6625,-82.6637C39.1127,-97.0515 57.2321,-118.09 79,-127 129.111,-147.51 193.474,-128.527 228.242,-114.952"/>
<polygon fill="black" stroke="black" points="229.687,-118.143 237.631,-111.134 227.05,-111.659 229.687,-118.143"/>
<text text-anchor="middle" x="136.5" y="-137.8" font-family="Times,serif" font-size="14.00">a</text>
</g>
<!-- s2 -->
<g id="node4" class="node"><title>s2</title>
<ellipse fill="none" stroke="black" cx="97" cy="-68" rx="18" ry="18"/>
<text text-anchor="middle" x="97" y="-63.8" font-family="Times,serif" font-size="14.00">s2</text>
</g>
<!-- s0&#45;&gt;s2 -->
<g id="edge2" class="edge"><title>s0&#45;&gt;s2</title>
<path fill="none" stroke="black" d="M36.0888,-68C45.659,-68 57.8172,-68 68.6766,-68"/>
<polygon fill="black" stroke="black" points="68.959,-71.5001 78.959,-68 68.9589,-64.5001 68.959,-71.5001"/>
<text text-anchor="middle" x="57.5" y="-70.8" font-family="Times,serif" font-size="14.00">x</text>
</g>
<!-- s3 -->
<g id="node5" class="node"><title>s3</title>
<ellipse fill="none" stroke="black" cx="176" cy="-18" rx="18" ry="18"/>
<text text-anchor="middle" x="176" y="-13.8" font-family="Times,serif" font-size="14.00">s3</text>
</g>
<!-- s0&#45;&gt;s3 -->
<g id="edge3" class="edge"><title>s0&#45;&gt;s3</title>
<path fill="none" stroke="black" d="M32.1864,-56.0384C43.6599,-46.398 61.1999,-33.4263 79,-27 101.186,-18.9903 128.033,-17.0713 147.688,-16.9648"/>
<polygon fill="black" stroke="black" points="147.759,-20.4656 157.793,-17.0649 147.828,-13.4659 147.759,-20.4656"/>
<text text-anchor="middle" x="97" y="-29.8" font-family="Times,serif" font-size="14.00">y</text>
</g>
<!-- s4 -->
<g id="node6" class="node"><title>s4</title>
<ellipse fill="none" stroke="black" cx="333.214" cy="-104" rx="18" ry="18"/>
<text text-anchor="middle" x="333.214" y="-99.8" font-family="Times,serif" font-size="14.00">s4</text>
</g>
<!-- s1&#45;&gt;s4 -->
<g id="edge4" class="edge"><title>s1&#45;&gt;s4</title>
<path fill="none" stroke="black" d="M272.303,-104C281.873,-104 294.031,-104 304.89,-104"/>
<polygon fill="black" stroke="black" points="305.173,-107.5 315.173,-104 305.173,-100.5 305.173,-107.5"/>
<text text-anchor="middle" x="293.714" y="-106.8" font-family="Times,serif" font-size="14.00">b</text>
</g>
<!-- s2&#45;&gt;s1 -->
<g id="edge5" class="edge"><title>s2&#45;&gt;s1</title>
<path fill="none" stroke="black" d="M114.611,-71.8526C141.31,-78.0453 194.031,-90.2731 226.198,-97.7341"/>
<polygon fill="black" stroke="black" points="225.72,-101.216 236.252,-100.066 227.302,-94.397 225.72,-101.216"/>
<text text-anchor="middle" x="176" y="-92.8" font-family="Times,serif" font-size="14.00">a</text>
</g>
<!-- s2&#45;&gt;s2 -->
<g id="edge6" class="edge"><title>s2&#45;&gt;s2</title>
<path fill="none" stroke="black" d="M90.2664,-85.0373C88.8922,-94.8579 91.1367,-104 97,-104 100.665,-104 102.916,-100.429 103.753,-95.3529"/>
<polygon fill="black" stroke="black" points="107.252,-95.0307 103.734,-85.0373 100.252,-95.0439 107.252,-95.0307"/>
<text text-anchor="middle" x="97" y="-106.8" font-family="Times,serif" font-size="14.00">x</text>
</g>
<!-- s2&#45;&gt;s3 -->
<g id="edge7" class="edge"><title>s2&#45;&gt;s3</title>
<path fill="none" stroke="black" d="M114.192,-62.5257C122.271,-59.4369 132,-55.1593 140,-50 145.319,-46.5697 150.6,-42.314 155.386,-38.0379"/>
<polygon fill="black" stroke="black" points="158.014,-40.3699 162.892,-30.9645 153.214,-35.2756 158.014,-40.3699"/>
<text text-anchor="middle" x="136.5" y="-55.8" font-family="Times,serif" font-size="14.00">y</text>
</g>
<!-- s3&#45;&gt;s1 -->
<g id="edge8" class="edge"><title>s3&#45;&gt;s1</title>
<path fill="none" stroke="black" d="M188.575,-31.0615C200.774,-44.8263 220.173,-66.7165 234.54,-82.9284"/>
<polygon fill="black" stroke="black" points="232.278,-85.6528 241.53,-90.8155 237.517,-81.0101 232.278,-85.6528"/>
<text text-anchor="middle" x="215.107" y="-65.8" font-family="Times,serif" font-size="14.00">a</text>
</g>
<!-- s3&#45;&gt;s2 -->
<g id="edge9" class="edge"><title>s3&#45;&gt;s2</title>
<path fill="none" stroke="black" d="M158.24,-21.6147C150.205,-23.8264 140.681,-27.1776 133,-32 126.75,-35.9237 120.806,-41.1891 115.65,-46.4798"/>
<polygon fill="black" stroke="black" points="112.859,-44.3458 108.714,-54.0961 118.035,-49.0591 112.859,-44.3458"/>
<text text-anchor="middle" x="136.5" y="-34.8" font-family="Times,serif" font-size="14.00">x</text>
</g>
<!-- s3&#45;&gt;s3 -->
<g id="edge10" class="edge"><title>s3&#45;&gt;s3</title>
<path fill="none" stroke="black" d="M169.266,-35.0373C167.892,-44.8579 170.137,-54 176,-54 179.665,-54 181.916,-50.4289 182.753,-45.3529"/>
<polygon fill="black" stroke="black" points="186.252,-45.0307 182.734,-35.0373 179.252,-45.0439 186.252,-45.0307"/>
<text text-anchor="middle" x="176" y="-56.8" font-family="Times,serif" font-size="14.00">y</text>
</g>
<!-- s4&#45;&gt;s5 -->
<g id="edge11" class="edge"><title>s4&#45;&gt;s5</title>
<path fill="none" stroke="black" d="M351.392,-104C360.823,-104 372.815,-104 383.851,-104"/>
<polygon fill="black" stroke="black" points="384.025,-107.5 394.025,-104 384.025,-100.5 384.025,-107.5"/>
<text text-anchor="middle" x="372.714" y="-106.8" font-family="Times,serif" font-size="14.00">b</text>
</g>
</g>
</svg>
