<?xml version="1.0" encoding="UTF-8" standalone="no"?>
<!DOCTYPE svg PUBLIC "-//W3C//DTD SVG 1.1//EN"
 "http://www.w3.org/Graphics/SVG/1.1/DTD/svg11.dtd">
<!-- Generated by graphviz version 12.2.1 (20241206.2353)
 -->
<!-- Title: finite_state_machine Pages: 1 -->
<svg width="393pt" height="144pt"
 viewBox="0.00 0.00 393.33 144.22" xmlns="http://www.w3.org/2000/svg" xmlns:xlink="http://www.w3.org/1999/xlink">
<g id="graph0" class="graph" transform="scale(1 1) rotate(0) translate(4 140.22)">
<title>finite_state_machine</title>
<polygon fill="white" stroke="none" points="-4,4 -4,-140.22 389.33,-140.22 389.33,4 -4,4"/>
<!-- s3 -->
<g id="node1" class="node">
<title>s3</title>
<ellipse fill="none" stroke="black" cx="184.29" cy="-113.11" rx="19.11" ry="19.11"/>
<ellipse fill="none" stroke="black" cx="184.29" cy="-113.11" rx="23.11" ry="23.11"/>
<text text-anchor="middle" x="184.29" y="-108.06" font-family="Times,serif" font-size="14.00">s3</text>
</g>
<!-- s5 -->
<g id="node2" class="node">
<title>s5</title>
<ellipse fill="none" stroke="black" cx="273.25" cy="-83.11" rx="19.11" ry="19.11"/>
<ellipse fill="none" stroke="black" cx="273.25" cy="-83.11" rx="23.11" ry="23.11"/>
<text text-anchor="middle" x="273.25" y="-78.06" font-family="Times,serif" font-size="14.00">s5</text>
</g>
<!-- s6 -->
<g id="node3" class="node">
<title>s6</title>
<ellipse fill="none" stroke="black" cx="362.22" cy="-23.11" rx="19.11" ry="19.11"/>
<ellipse fill="none" stroke="black" cx="362.22" cy="-23.11" rx="23.11" ry="23.11"/>
<text text-anchor="middle" x="362.22" y="-18.06" font-family="Times,serif" font-size="14.00">s6</text>
</g>
<!-- s0 -->
<g id="node4" class="node">
<title>s0</title>
<ellipse fill="none" stroke="black" cx="19.11" cy="-83.11" rx="19.11" ry="19.11"/>
<text text-anchor="middle" x="19.11" y="-78.06" font-family="Times,serif" font-size="14.00">s0</text>
</g>
<!-- s1 -->
<g id="node5" class="node">
<title>s1</title>
<ellipse fill="none" stroke="black" cx="99.32" cy="-83.11" rx="19.11" ry="19.11"/>
<text text-anchor="middle" x="99.32" y="-78.06" font-family="Times,serif" font-size="14.00">s1</text>
</g>
<!-- s0&#45;&gt;s1 -->
<g id="edge1" class="edge">
<title>s0&#45;&gt;s1</title>
<path fill="none" stroke="black" d="M38.64,-83.11C47.6,-83.11 58.58,-83.11 68.67,-83.11"/>
<polygon fill="black" stroke="black" points="68.41,-86.61 78.41,-83.11 68.41,-79.61 68.41,-86.61"/>
<text text-anchor="middle" x="59.22" y="-86.31" font-family="Times,serif" font-size="14.00">a</text>
</g>
<!-- s1&#45;&gt;s3 -->
<g id="edge3" class="edge">
<title>s1&#45;&gt;s3</title>
<path fill="none" stroke="black" d="M117.51,-89.32C127.3,-92.86 139.86,-97.41 151.39,-101.57"/>
<polygon fill="black" stroke="black" points="149.97,-104.78 160.57,-104.89 152.35,-98.2 149.97,-104.78"/>
<text text-anchor="middle" x="139.81" y="-101.31" font-family="Times,serif" font-size="14.00">b</text>
</g>
<!-- s2 -->
<g id="node6" class="node">
<title>s2</title>
<ellipse fill="none" stroke="black" cx="184.29" cy="-53.11" rx="19.11" ry="19.11"/>
<text text-anchor="middle" x="184.29" y="-48.06" font-family="Times,serif" font-size="14.00">s2</text>
</g>
<!-- s1&#45;&gt;s2 -->
<g id="edge2" class="edge">
<title>s1&#45;&gt;s2</title>
<path fill="none" stroke="black" d="M117.51,-76.89C128.34,-72.98 142.58,-67.83 155.04,-63.32"/>
<polygon fill="black" stroke="black" points="156.2,-66.63 164.41,-59.93 153.82,-60.04 156.2,-66.63"/>
<text text-anchor="middle" x="139.81" y="-73.1" font-family="Times,serif" font-size="14.00">a</text>
</g>
<!-- s2&#45;&gt;s5 -->
<g id="edge5" class="edge">
<title>s2&#45;&gt;s5</title>
<path fill="none" stroke="black" d="M202.89,-59.18C213.63,-62.89 227.7,-67.74 240.35,-72.1"/>
<polygon fill="black" stroke="black" points="238.97,-75.33 249.56,-75.28 241.25,-68.71 238.97,-75.33"/>
<text text-anchor="middle" x="228.77" y="-72.21" font-family="Times,serif" font-size="14.00">b</text>
</g>
<!-- s4 -->
<g id="node7" class="node">
<title>s4</title>
<ellipse fill="none" stroke="black" cx="273.25" cy="-23.11" rx="19.11" ry="19.11"/>
<text text-anchor="middle" x="273.25" y="-18.06" font-family="Times,serif" font-size="14.00">s4</text>
</g>
<!-- s2&#45;&gt;s4 -->
<g id="edge4" class="edge">
<title>s2&#45;&gt;s4</title>
<path fill="none" stroke="black" d="M202.89,-47.04C214.67,-42.97 230.45,-37.53 243.98,-32.86"/>
<polygon fill="black" stroke="black" points="244.94,-36.23 253.25,-29.66 242.65,-29.62 244.94,-36.23"/>
<text text-anchor="middle" x="228.77" y="-42.21" font-family="Times,serif" font-size="14.00">a</text>
</g>
<!-- s4&#45;&gt;s6 -->
<g id="edge6" class="edge">
<title>s4&#45;&gt;s6</title>
<path fill="none" stroke="black" d="M292.7,-23.11C302.79,-23.11 315.62,-23.11 327.44,-23.11"/>
<polygon fill="black" stroke="black" points="327.27,-26.61 337.27,-23.11 327.27,-19.61 327.27,-26.61"/>
<text text-anchor="middle" x="317.74" y="-26.31" font-family="Times,serif" font-size="14.00">b</text>
</g>
</g>
</svg>
