<?xml version="1.0" encoding="UTF-8" standalone="no"?>
<!DOCTYPE svg PUBLIC "-//W3C//DTD SVG 1.1//EN"
 "http://www.w3.org/Graphics/SVG/1.1/DTD/svg11.dtd">
<!-- Generated by graphviz version 2.38.0 (20140413.2041)
 -->
<!-- Title: finite_state_machine Pages: 1 -->
<svg width="210pt" height="114pt"
 viewBox="0.00 0.00 210.00 114.00" xmlns="http://www.w3.org/2000/svg" xmlns:xlink="http://www.w3.org/1999/xlink">
<g id="graph0" class="graph" transform="scale(1 1) rotate(0) translate(4 110)">
<title>finite_state_machine</title>
<polygon fill="white" stroke="none" points="-4,4 -4,-110 206,-110 206,4 -4,4"/>
<!-- s3 -->
<g id="node1" class="node"><title>s3</title>
<ellipse fill="none" stroke="black" cx="180" cy="-84" rx="18" ry="18"/>
<ellipse fill="none" stroke="black" cx="180" cy="-84" rx="22" ry="22"/>
<text text-anchor="middle" x="180" y="-79.8" font-family="Times,serif" font-size="14.00">s3</text>
</g>
<!-- s4 -->
<g id="node2" class="node"><title>s4</title>
<ellipse fill="none" stroke="black" cx="180" cy="-22" rx="18" ry="18"/>
<ellipse fill="none" stroke="black" cx="180" cy="-22" rx="22" ry="22"/>
<text text-anchor="middle" x="180" y="-17.8" font-family="Times,serif" font-size="14.00">s4</text>
</g>
<!-- s0 -->
<g id="node3" class="node"><title>s0</title>
<ellipse fill="none" stroke="black" cx="18" cy="-56" rx="18" ry="18"/>
<text text-anchor="middle" x="18" y="-51.8" font-family="Times,serif" font-size="14.00">s0</text>
</g>
<!-- s1 -->
<g id="node4" class="node"><title>s1</title>
<ellipse fill="none" stroke="black" cx="97" cy="-82" rx="18" ry="18"/>
<text text-anchor="middle" x="97" y="-77.8" font-family="Times,serif" font-size="14.00">s1</text>
</g>
<!-- s0&#45;&gt;s1 -->
<g id="edge1" class="edge"><title>s0&#45;&gt;s1</title>
<path fill="none" stroke="black" d="M35.3297,-61.5139C45.4364,-64.9266 58.635,-69.3832 70.1398,-73.268"/>
<polygon fill="black" stroke="black" points="69.0996,-76.6108 79.6938,-76.494 71.3391,-69.9787 69.0996,-76.6108"/>
<text text-anchor="middle" x="57.5" y="-71.8" font-family="Times,serif" font-size="14.00">a</text>
</g>
<!-- s2 -->
<g id="node5" class="node"><title>s2</title>
<ellipse fill="none" stroke="black" cx="97" cy="-26" rx="18" ry="18"/>
<text text-anchor="middle" x="97" y="-21.8" font-family="Times,serif" font-size="14.00">s2</text>
</g>
<!-- s0&#45;&gt;s2 -->
<g id="edge2" class="edge"><title>s0&#45;&gt;s2</title>
<path fill="none" stroke="black" d="M34.9544,-49.784C45.2787,-45.7615 58.9428,-40.4379 70.7256,-35.8472"/>
<polygon fill="black" stroke="black" points="72.0188,-39.0996 80.066,-32.2081 69.4776,-32.5772 72.0188,-39.0996"/>
<text text-anchor="middle" x="57.5" y="-43.8" font-family="Times,serif" font-size="14.00">b</text>
</g>
<!-- s1&#45;&gt;s3 -->
<g id="edge3" class="edge"><title>s1&#45;&gt;s3</title>
<path fill="none" stroke="black" d="M115.178,-82.4241C124.61,-82.657 136.601,-82.9531 147.637,-83.2256"/>
<polygon fill="black" stroke="black" points="147.727,-86.7288 157.811,-83.4768 147.9,-79.7309 147.727,-86.7288"/>
<text text-anchor="middle" x="136.5" y="-85.8" font-family="Times,serif" font-size="14.00">a</text>
</g>
<!-- s2&#45;&gt;s4 -->
<g id="edge4" class="edge"><title>s2&#45;&gt;s4</title>
<path fill="none" stroke="black" d="M115.178,-25.1517C124.61,-24.686 136.601,-24.0938 147.637,-23.5488"/>
<polygon fill="black" stroke="black" points="147.996,-27.0354 157.811,-23.0464 147.65,-20.044 147.996,-27.0354"/>
<text text-anchor="middle" x="136.5" y="-26.8" font-family="Times,serif" font-size="14.00">b</text>
</g>
</g>
</svg>
