<?xml version="1.0" encoding="UTF-8" standalone="no"?>
<!DOCTYPE svg PUBLIC "-//W3C//DTD SVG 1.1//EN"
 "http://www.w3.org/Graphics/SVG/1.1/DTD/svg11.dtd">
<!-- Generated by graphviz version 2.38.0 (20140413.2041)
 -->
<!-- Title: finite_state_machine Pages: 1 -->
<svg width="592pt" height="147pt"
 viewBox="0.00 0.00 592.00 147.00" xmlns="http://www.w3.org/2000/svg" xmlns:xlink="http://www.w3.org/1999/xlink">
<g id="graph0" class="graph" transform="scale(1 1) rotate(0) translate(4 143)">
<title>finite_state_machine</title>
<polygon fill="white" stroke="none" points="-4,4 -4,-143 587.997,-143 587.997,4 -4,4"/>
<!-- s10 -->
<g id="node1" class="node"><title>s10</title>
<ellipse fill="none" stroke="black" cx="557.606" cy="-72" rx="22.3004" ry="22.3004"/>
<ellipse fill="none" stroke="black" cx="557.606" cy="-72" rx="26.2841" ry="26.2841"/>
<text text-anchor="middle" x="557.606" y="-67.8" font-family="Times,serif" font-size="14.00">s10</text>
</g>
<!-- s0 -->
<g id="node2" class="node"><title>s0</title>
<ellipse fill="none" stroke="black" cx="18" cy="-72" rx="18" ry="18"/>
<text text-anchor="middle" x="18" y="-67.8" font-family="Times,serif" font-size="14.00">s0</text>
</g>
<!-- s1 -->
<g id="node3" class="node"><title>s1</title>
<ellipse fill="none" stroke="black" cx="151" cy="-118" rx="18" ry="18"/>
<text text-anchor="middle" x="151" y="-113.8" font-family="Times,serif" font-size="14.00">s1</text>
</g>
<!-- s0&#45;&gt;s1 -->
<g id="edge1" class="edge"><title>s0&#45;&gt;s1</title>
<path fill="none" stroke="black" d="M34.1265,-80.3219C40.216,-83.5285 47.3583,-87.1111 54,-90 76.6715,-99.8614 103.826,-107.416 123.461,-112.178"/>
<polygon fill="black" stroke="black" points="122.714,-115.598 133.249,-114.473 124.312,-108.783 122.714,-115.598"/>
<text text-anchor="middle" x="57.5" y="-94.8" font-family="Times,serif" font-size="14.00">a</text>
</g>
<!-- s2 -->
<g id="node4" class="node"><title>s2</title>
<ellipse fill="none" stroke="black" cx="97" cy="-72" rx="18" ry="18"/>
<text text-anchor="middle" x="97" y="-67.8" font-family="Times,serif" font-size="14.00">s2</text>
</g>
<!-- s0&#45;&gt;s2 -->
<g id="edge2" class="edge"><title>s0&#45;&gt;s2</title>
<path fill="none" stroke="black" d="M36.0888,-72C45.659,-72 57.8172,-72 68.6766,-72"/>
<polygon fill="black" stroke="black" points="68.959,-75.5001 78.959,-72 68.9589,-68.5001 68.959,-75.5001"/>
<text text-anchor="middle" x="57.5" y="-74.8" font-family="Times,serif" font-size="14.00">b</text>
</g>
<!-- s3 -->
<g id="node5" class="node"><title>s3</title>
<ellipse fill="none" stroke="black" cx="97" cy="-18" rx="18" ry="18"/>
<text text-anchor="middle" x="97" y="-13.8" font-family="Times,serif" font-size="14.00">s3</text>
</g>
<!-- s0&#45;&gt;s3 -->
<g id="edge3" class="edge"><title>s0&#45;&gt;s3</title>
<path fill="none" stroke="black" d="M33.123,-62.0956C44.3407,-54.2286 60.2489,-43.0722 73.2569,-33.9497"/>
<polygon fill="black" stroke="black" points="75.5281,-36.6319 81.7058,-28.0245 71.5088,-30.9007 75.5281,-36.6319"/>
<text text-anchor="middle" x="57.5" y="-48.8" font-family="Times,serif" font-size="14.00">c</text>
</g>
<!-- s4 -->
<g id="node6" class="node"><title>s4</title>
<ellipse fill="none" stroke="black" cx="259" cy="-121" rx="18" ry="18"/>
<text text-anchor="middle" x="259" y="-116.8" font-family="Times,serif" font-size="14.00">s4</text>
</g>
<!-- s1&#45;&gt;s4 -->
<g id="edge4" class="edge"><title>s1&#45;&gt;s4</title>
<path fill="none" stroke="black" d="M169.031,-118.482C185.622,-118.952 211.117,-119.673 230.569,-120.224"/>
<polygon fill="black" stroke="black" points="230.564,-123.725 240.659,-120.509 230.762,-116.728 230.564,-123.725"/>
<text text-anchor="middle" x="205" y="-122.8" font-family="Times,serif" font-size="14.00">a</text>
</g>
<!-- s5 -->
<g id="node7" class="node"><title>s5</title>
<ellipse fill="none" stroke="black" cx="259" cy="-72" rx="18" ry="18"/>
<text text-anchor="middle" x="259" y="-67.8" font-family="Times,serif" font-size="14.00">s5</text>
</g>
<!-- s2&#45;&gt;s5 -->
<g id="edge5" class="edge"><title>s2&#45;&gt;s5</title>
<path fill="none" stroke="black" d="M115.123,-72C142.646,-72 196.992,-72 230.151,-72"/>
<polygon fill="black" stroke="black" points="230.515,-75.5001 240.515,-72 230.515,-68.5001 230.515,-75.5001"/>
<text text-anchor="middle" x="151" y="-74.8" font-family="Times,serif" font-size="14.00">b</text>
</g>
<!-- s6 -->
<g id="node8" class="node"><title>s6</title>
<ellipse fill="none" stroke="black" cx="205" cy="-18" rx="18" ry="18"/>
<text text-anchor="middle" x="205" y="-13.8" font-family="Times,serif" font-size="14.00">s6</text>
</g>
<!-- s3&#45;&gt;s6 -->
<g id="edge6" class="edge"><title>s3&#45;&gt;s6</title>
<path fill="none" stroke="black" d="M115.031,-18C131.622,-18 157.117,-18 176.569,-18"/>
<polygon fill="black" stroke="black" points="176.659,-21.5001 186.659,-18 176.659,-14.5001 176.659,-21.5001"/>
<text text-anchor="middle" x="151" y="-20.8" font-family="Times,serif" font-size="14.00">c</text>
</g>
<!-- s7 -->
<g id="node9" class="node"><title>s7</title>
<ellipse fill="none" stroke="black" cx="391.214" cy="-72" rx="18" ry="18"/>
<text text-anchor="middle" x="391.214" y="-67.8" font-family="Times,serif" font-size="14.00">s7</text>
</g>
<!-- s4&#45;&gt;s7 -->
<g id="edge7" class="edge"><title>s4&#45;&gt;s7</title>
<path fill="none" stroke="black" d="M276.225,-115.194C295.217,-108.36 327.59,-96.5995 355.214,-86 358.33,-84.8043 361.594,-83.5294 364.822,-82.2543"/>
<polygon fill="black" stroke="black" points="366.228,-85.4617 374.221,-78.5073 363.636,-78.9594 366.228,-85.4617"/>
<text text-anchor="middle" x="313" y="-110.8" font-family="Times,serif" font-size="14.00">a</text>
</g>
<!-- s5&#45;&gt;s7 -->
<g id="edge8" class="edge"><title>s5&#45;&gt;s7</title>
<path fill="none" stroke="black" d="M277.023,-72C298.859,-72 336.999,-72 362.912,-72"/>
<polygon fill="black" stroke="black" points="363.187,-75.5001 373.186,-72 363.186,-68.5001 363.187,-75.5001"/>
<text text-anchor="middle" x="313" y="-74.8" font-family="Times,serif" font-size="14.00">a</text>
</g>
<!-- s8 -->
<g id="node10" class="node"><title>s8</title>
<ellipse fill="none" stroke="black" cx="313" cy="-18" rx="18" ry="18"/>
<text text-anchor="middle" x="313" y="-13.8" font-family="Times,serif" font-size="14.00">s8</text>
</g>
<!-- s6&#45;&gt;s8 -->
<g id="edge9" class="edge"><title>s6&#45;&gt;s8</title>
<path fill="none" stroke="black" d="M223.031,-18C239.622,-18 265.117,-18 284.569,-18"/>
<polygon fill="black" stroke="black" points="284.659,-21.5001 294.659,-18 284.659,-14.5001 284.659,-21.5001"/>
<text text-anchor="middle" x="259" y="-20.8" font-family="Times,serif" font-size="14.00">c</text>
</g>
<!-- s9 -->
<g id="node11" class="node"><title>s9</title>
<ellipse fill="none" stroke="black" cx="470.214" cy="-72" rx="18" ry="18"/>
<text text-anchor="middle" x="470.214" y="-67.8" font-family="Times,serif" font-size="14.00">s9</text>
</g>
<!-- s7&#45;&gt;s9 -->
<g id="edge10" class="edge"><title>s7&#45;&gt;s9</title>
<path fill="none" stroke="black" d="M409.303,-72C418.873,-72 431.031,-72 441.89,-72"/>
<polygon fill="black" stroke="black" points="442.173,-75.5001 452.173,-72 442.173,-68.5001 442.173,-75.5001"/>
<text text-anchor="middle" x="430.714" y="-74.8" font-family="Times,serif" font-size="14.00">b</text>
</g>
<!-- s8&#45;&gt;s7 -->
<g id="edge11" class="edge"><title>s8&#45;&gt;s7</title>
<path fill="none" stroke="black" d="M328.757,-26.7559C336.732,-31.625 346.668,-37.9152 355.214,-44 359.695,-47.1905 364.369,-50.7539 368.789,-54.241"/>
<polygon fill="black" stroke="black" points="366.873,-57.1911 376.857,-60.7346 371.262,-51.738 366.873,-57.1911"/>
<text text-anchor="middle" x="352.107" y="-46.8" font-family="Times,serif" font-size="14.00">a</text>
</g>
<!-- s9&#45;&gt;s10 -->
<g id="edge12" class="edge"><title>s9&#45;&gt;s10</title>
<path fill="none" stroke="black" d="M488.494,-72C497.822,-72 509.695,-72 520.906,-72"/>
<polygon fill="black" stroke="black" points="520.924,-75.5001 530.924,-72 520.924,-68.5001 520.924,-75.5001"/>
<text text-anchor="middle" x="509.714" y="-74.8" font-family="Times,serif" font-size="14.00">b</text>
</g>
</g>
</svg>
