<?xml version="1.0" encoding="UTF-8" standalone="no"?>
<!DOCTYPE svg PUBLIC "-//W3C//DTD SVG 1.1//EN"
 "http://www.w3.org/Graphics/SVG/1.1/DTD/svg11.dtd">
<!-- Generated by graphviz version 2.38.0 (20140413.2041)
 -->
<!-- Title: finite_state_machine Pages: 1 -->
<svg width="209pt" height="52pt"
 viewBox="0.00 0.00 209.21 52.00" xmlns="http://www.w3.org/2000/svg" xmlns:xlink="http://www.w3.org/1999/xlink">
<g id="graph0" class="graph" transform="scale(1 1) rotate(0) translate(4 48)">
<title>finite_state_machine</title>
<polygon fill="white" stroke="none" points="-4,4 -4,-48 205.214,-48 205.214,4 -4,4"/>
<!-- s2 -->
<g id="node1" class="node"><title>s2</title>
<ellipse fill="none" stroke="black" cx="179.214" cy="-22" rx="18" ry="18"/>
<ellipse fill="none" stroke="black" cx="179.214" cy="-22" rx="22" ry="22"/>
<text text-anchor="middle" x="179.214" y="-17.8" font-family="Times,serif" font-size="14.00">s2</text>
</g>
<!-- s0 -->
<g id="node2" class="node"><title>s0</title>
<ellipse fill="none" stroke="black" cx="18" cy="-22" rx="18" ry="18"/>
<text text-anchor="middle" x="18" y="-17.8" font-family="Times,serif" font-size="14.00">s0</text>
</g>
<!-- s1 -->
<g id="node3" class="node"><title>s1</title>
<ellipse fill="none" stroke="black" cx="96.2139" cy="-22" rx="18" ry="18"/>
<text text-anchor="middle" x="96.2139" y="-17.8" font-family="Times,serif" font-size="14.00">s1</text>
</g>
<!-- s0&#45;&gt;s1 -->
<g id="edge1" class="edge"><title>s0&#45;&gt;s1</title>
<path fill="none" stroke="black" d="M36.2941,-22C45.6488,-22 57.4172,-22 67.9721,-22"/>
<polygon fill="black" stroke="black" points="67.9882,-25.5001 77.9882,-22 67.9882,-18.5001 67.9882,-25.5001"/>
<text text-anchor="middle" x="57.1069" y="-24.8" font-family="Times,serif" font-size="14.00">a</text>
</g>
<!-- s1&#45;&gt;s2 -->
<g id="edge2" class="edge"><title>s1&#45;&gt;s2</title>
<path fill="none" stroke="black" d="M114.392,-22C123.823,-22 135.815,-22 146.851,-22"/>
<polygon fill="black" stroke="black" points="147.025,-25.5001 157.025,-22 147.025,-18.5001 147.025,-25.5001"/>
<text text-anchor="middle" x="135.714" y="-24.8" font-family="Times,serif" font-size="14.00">d</text>
</g>
</g>
</svg>
