<?xml version="1.0" encoding="UTF-8" standalone="no"?>
<!DOCTYPE svg PUBLIC "-//W3C//DTD SVG 1.1//EN"
 "http://www.w3.org/Graphics/SVG/1.1/DTD/svg11.dtd">
<!-- Generated by graphviz version 2.38.0 (20140413.2041)
 -->
<!-- Title: finite_state_machine Pages: 1 -->
<svg width="131pt" height="114pt"
 viewBox="0.00 0.00 131.00 114.00" xmlns="http://www.w3.org/2000/svg" xmlns:xlink="http://www.w3.org/1999/xlink">
<g id="graph0" class="graph" transform="scale(1 1) rotate(0) translate(4 110)">
<title>finite_state_machine</title>
<polygon fill="white" stroke="none" points="-4,4 -4,-110 127,-110 127,4 -4,4"/>
<!-- s2 -->
<g id="node1" class="node"><title>s2</title>
<ellipse fill="none" stroke="black" cx="22" cy="-84" rx="18" ry="18"/>
<ellipse fill="none" stroke="black" cx="22" cy="-84" rx="22" ry="22"/>
<text text-anchor="middle" x="22" y="-79.8" font-family="Times,serif" font-size="14.00">s2</text>
</g>
<!-- s1 -->
<g id="node3" class="node"><title>s1</title>
<ellipse fill="none" stroke="black" cx="105" cy="-55" rx="18" ry="18"/>
<text text-anchor="middle" x="105" y="-50.8" font-family="Times,serif" font-size="14.00">s1</text>
</g>
<!-- s2&#45;&gt;s1 -->
<g id="edge3" class="edge"><title>s2&#45;&gt;s1</title>
<path fill="none" stroke="black" d="M43.3105,-78.3396C51.3732,-75.9576 60.6883,-73.0356 69,-70 72.167,-68.8434 75.4612,-67.5523 78.7062,-66.2262"/>
<polygon fill="black" stroke="black" points="80.273,-69.3637 88.1176,-62.2424 77.5443,-62.9174 80.273,-69.3637"/>
<text text-anchor="middle" x="65.5" y="-74.8" font-family="Times,serif" font-size="14.00">x</text>
</g>
<!-- s0 -->
<g id="node2" class="node"><title>s0</title>
<ellipse fill="none" stroke="black" cx="22" cy="-18" rx="18" ry="18"/>
<text text-anchor="middle" x="22" y="-13.8" font-family="Times,serif" font-size="14.00">s0</text>
</g>
<!-- s0&#45;&gt;s1 -->
<g id="edge1" class="edge"><title>s0&#45;&gt;s1</title>
<path fill="none" stroke="black" d="M39.322,-24.3566C48.1798,-27.9025 59.2761,-32.5009 69,-37 72.4921,-38.6157 76.1414,-40.3916 79.7098,-42.179"/>
<polygon fill="black" stroke="black" points="78.3068,-45.3927 88.803,-46.8351 81.4972,-39.162 78.3068,-45.3927"/>
<text text-anchor="middle" x="65.5" y="-39.8" font-family="Times,serif" font-size="14.00">x</text>
</g>
<!-- s1&#45;&gt;s2 -->
<g id="edge2" class="edge"><title>s1&#45;&gt;s2</title>
<path fill="none" stroke="black" d="M86.8459,-53.1439C79.0753,-52.8717 69.8842,-53.3589 62,-56 56.8948,-57.7102 51.883,-60.3399 47.2424,-63.3164"/>
<polygon fill="black" stroke="black" points="44.9486,-60.6537 38.8491,-69.3167 49.0196,-66.3483 44.9486,-60.6537"/>
<text text-anchor="middle" x="65.5" y="-58.8" font-family="Times,serif" font-size="14.00">x</text>
</g>
</g>
</svg>
