<?xml version="1.0" encoding="UTF-8" standalone="no"?>
<!DOCTYPE svg PUBLIC "-//W3C//DTD SVG 1.1//EN"
 "http://www.w3.org/Graphics/SVG/1.1/DTD/svg11.dtd">
<!-- Generated by graphviz version 2.38.0 (20140413.2041)
 -->
<!-- Title: finite_state_machine Pages: 1 -->
<svg width="322pt" height="112pt"
 viewBox="0.00 0.00 321.63 112.00" xmlns="http://www.w3.org/2000/svg" xmlns:xlink="http://www.w3.org/1999/xlink">
<g id="graph0" class="graph" transform="scale(1 1) rotate(0) translate(4 108)">
<title>finite_state_machine</title>
<polygon fill="white" stroke="none" points="-4,4 -4,-108 317.628,-108 317.628,4 -4,4"/>
<!-- s3 -->
<g id="node1" class="node"><title>s3</title>
<ellipse fill="none" stroke="black" cx="291.628" cy="-22" rx="18" ry="18"/>
<ellipse fill="none" stroke="black" cx="291.628" cy="-22" rx="22" ry="22"/>
<text text-anchor="middle" x="291.628" y="-17.8" font-family="Times,serif" font-size="14.00">s3</text>
</g>
<!-- s0 -->
<g id="node2" class="node"><title>s0</title>
<ellipse fill="none" stroke="black" cx="18" cy="-22" rx="18" ry="18"/>
<text text-anchor="middle" x="18" y="-17.8" font-family="Times,serif" font-size="14.00">s0</text>
</g>
<!-- s1 -->
<g id="node3" class="node"><title>s1</title>
<ellipse fill="none" stroke="black" cx="96.2139" cy="-22" rx="18" ry="18"/>
<text text-anchor="middle" x="96.2139" y="-17.8" font-family="Times,serif" font-size="14.00">s1</text>
</g>
<!-- s0&#45;&gt;s1 -->
<g id="edge1" class="edge"><title>s0&#45;&gt;s1</title>
<path fill="none" stroke="black" d="M36.2941,-22C45.6488,-22 57.4172,-22 67.9721,-22"/>
<polygon fill="black" stroke="black" points="67.9882,-25.5001 77.9882,-22 67.9882,-18.5001 67.9882,-25.5001"/>
<text text-anchor="middle" x="57.1069" y="-24.8" font-family="Times,serif" font-size="14.00">a</text>
</g>
<!-- s2 -->
<g id="node4" class="node"><title>s2</title>
<ellipse fill="none" stroke="black" cx="208.628" cy="-22" rx="18" ry="18"/>
<text text-anchor="middle" x="208.628" y="-17.8" font-family="Times,serif" font-size="14.00">s2</text>
</g>
<!-- s1&#45;&gt;s2 -->
<g id="edge2" class="edge"><title>s1&#45;&gt;s2</title>
<path fill="none" stroke="black" d="M114.466,-22C132.13,-22 159.842,-22 180.455,-22"/>
<polygon fill="black" stroke="black" points="180.497,-25.5001 190.497,-22 180.497,-18.5001 180.497,-25.5001"/>
<text text-anchor="middle" x="152.421" y="-24.8" font-family="Times,serif" font-size="14.00">a&#45;zA&#45;Z</text>
</g>
<!-- s2&#45;&gt;s3 -->
<g id="edge3" class="edge"><title>s2&#45;&gt;s3</title>
<path fill="none" stroke="black" d="M226.806,-22C236.237,-22 248.229,-22 259.265,-22"/>
<polygon fill="black" stroke="black" points="259.439,-25.5001 269.439,-22 259.439,-18.5001 259.439,-25.5001"/>
<text text-anchor="middle" x="248.128" y="-24.8" font-family="Times,serif" font-size="14.00">d</text>
</g>
<!-- s2&#45;&gt;s2 -->
<g id="edge4" class="edge"><title>s2&#45;&gt;s2</title>
<path fill="none" stroke="black" d="M205.212,-39.7817C204.632,-49.3149 205.771,-58 208.628,-58 210.369,-58 211.472,-54.7749 211.937,-50.0981"/>
<polygon fill="black" stroke="black" points="215.44,-49.8174 212.043,-39.7817 208.44,-49.745 215.44,-49.8174"/>
<text text-anchor="middle" x="208.628" y="-60.8" font-family="Times,serif" font-size="14.00">0&#45;9</text>
</g>
<!-- s2&#45;&gt;s2 -->
<g id="edge5" class="edge"><title>s2&#45;&gt;s2</title>
<path fill="none" stroke="black" d="M203.068,-39.1418C199.798,-56.585 201.651,-76 208.628,-76 214.242,-76 216.538,-63.4283 215.517,-49.4287"/>
<polygon fill="black" stroke="black" points="218.941,-48.6105 214.187,-39.1418 211.998,-49.508 218.941,-48.6105"/>
<text text-anchor="middle" x="208.628" y="-78.8" font-family="Times,serif" font-size="14.00">a&#45;zA&#45;Z</text>
</g>
</g>
</svg>
