<?xml version="1.0" encoding="UTF-8" standalone="no"?>
<!DOCTYPE svg PUBLIC "-//W3C//DTD SVG 1.1//EN"
 "http://www.w3.org/Graphics/SVG/1.1/DTD/svg11.dtd">
<!-- Generated by graphviz version 2.38.0 (20140413.2041)
 -->
<!-- Title: finite_state_machine Pages: 1 -->
<svg width="381pt" height="172pt"
 viewBox="0.00 0.00 381.07 172.00" xmlns="http://www.w3.org/2000/svg" xmlns:xlink="http://www.w3.org/1999/xlink">
<g id="graph0" class="graph" transform="scale(1 1) rotate(0) translate(4 168)">
<title>finite_state_machine</title>
<polygon fill="white" stroke="none" points="-4,4 -4,-168 377.065,-168 377.065,4 -4,4"/>
<!-- s6 -->
<g id="node1" class="node"><title>s6</title>
<ellipse fill="none" stroke="black" cx="264.065" cy="-84" rx="18" ry="18"/>
<ellipse fill="none" stroke="black" cx="264.065" cy="-84" rx="22" ry="22"/>
<text text-anchor="middle" x="264.065" y="-79.8" font-family="Times,serif" font-size="14.00">s6</text>
</g>
<!-- s7 -->
<g id="node2" class="node"><title>s7</title>
<ellipse fill="none" stroke="black" cx="264.065" cy="-22" rx="18" ry="18"/>
<ellipse fill="none" stroke="black" cx="264.065" cy="-22" rx="22" ry="22"/>
<text text-anchor="middle" x="264.065" y="-17.8" font-family="Times,serif" font-size="14.00">s7</text>
</g>
<!-- s8 -->
<g id="node3" class="node"><title>s8</title>
<ellipse fill="none" stroke="black" cx="351.065" cy="-142" rx="18" ry="18"/>
<ellipse fill="none" stroke="black" cx="351.065" cy="-142" rx="22" ry="22"/>
<text text-anchor="middle" x="351.065" y="-137.8" font-family="Times,serif" font-size="14.00">s8</text>
</g>
<!-- s0 -->
<g id="node4" class="node"><title>s0</title>
<ellipse fill="none" stroke="black" cx="18" cy="-84" rx="18" ry="18"/>
<text text-anchor="middle" x="18" y="-79.8" font-family="Times,serif" font-size="14.00">s0</text>
</g>
<!-- s1 -->
<g id="node5" class="node"><title>s1</title>
<ellipse fill="none" stroke="black" cx="96.2139" cy="-84" rx="18" ry="18"/>
<text text-anchor="middle" x="96.2139" y="-79.8" font-family="Times,serif" font-size="14.00">s1</text>
</g>
<!-- s0&#45;&gt;s1 -->
<g id="edge1" class="edge"><title>s0&#45;&gt;s1</title>
<path fill="none" stroke="black" d="M36.2941,-84C45.6488,-84 57.4172,-84 67.9721,-84"/>
<polygon fill="black" stroke="black" points="67.9882,-87.5001 77.9882,-84 67.9882,-80.5001 67.9882,-87.5001"/>
<text text-anchor="middle" x="57.1069" y="-86.8" font-family="Times,serif" font-size="14.00">a</text>
</g>
<!-- s2 -->
<g id="node6" class="node"><title>s2</title>
<ellipse fill="none" stroke="black" cx="181.065" cy="-140" rx="18" ry="18"/>
<text text-anchor="middle" x="181.065" y="-135.8" font-family="Times,serif" font-size="14.00">s2</text>
</g>
<!-- s1&#45;&gt;s2 -->
<g id="edge2" class="edge"><title>s1&#45;&gt;s2</title>
<path fill="none" stroke="black" d="M111.646,-93.7545C124.239,-102.266 142.727,-114.763 157.311,-124.62"/>
<polygon fill="black" stroke="black" points="155.554,-127.657 165.799,-130.357 159.474,-121.858 155.554,-127.657"/>
<text text-anchor="middle" x="138.64" y="-118.8" font-family="Times,serif" font-size="14.00">a</text>
</g>
<!-- s3 -->
<g id="node7" class="node"><title>s3</title>
<ellipse fill="none" stroke="black" cx="181.065" cy="-84" rx="18" ry="18"/>
<text text-anchor="middle" x="181.065" y="-79.8" font-family="Times,serif" font-size="14.00">s3</text>
</g>
<!-- s1&#45;&gt;s3 -->
<g id="edge3" class="edge"><title>s1&#45;&gt;s3</title>
<path fill="none" stroke="black" d="M114.381,-84C125.49,-84 140.192,-84 152.87,-84"/>
<polygon fill="black" stroke="black" points="152.921,-87.5001 162.921,-84 152.92,-80.5001 152.921,-87.5001"/>
<text text-anchor="middle" x="138.64" y="-86.8" font-family="Times,serif" font-size="14.00">Î»</text>
</g>
<!-- s4 -->
<g id="node8" class="node"><title>s4</title>
<ellipse fill="none" stroke="black" cx="181.065" cy="-26" rx="18" ry="18"/>
<text text-anchor="middle" x="181.065" y="-21.8" font-family="Times,serif" font-size="14.00">s4</text>
</g>
<!-- s1&#45;&gt;s4 -->
<g id="edge4" class="edge"><title>s1&#45;&gt;s4</title>
<path fill="none" stroke="black" d="M111.646,-73.8972C124.239,-65.0814 142.727,-52.1388 157.311,-41.9294"/>
<polygon fill="black" stroke="black" points="159.614,-44.5892 165.799,-35.9871 155.6,-38.8547 159.614,-44.5892"/>
<text text-anchor="middle" x="138.64" y="-61.8" font-family="Times,serif" font-size="14.00">Ğ¨</text>
</g>
<!-- s5 -->
<g id="node9" class="node"><title>s5</title>
<ellipse fill="none" stroke="black" cx="264.065" cy="-142" rx="18" ry="18"/>
<text text-anchor="middle" x="264.065" y="-137.8" font-family="Times,serif" font-size="14.00">s5</text>
</g>
<!-- s2&#45;&gt;s5 -->
<g id="edge5" class="edge"><title>s2&#45;&gt;s5</title>
<path fill="none" stroke="black" d="M199.243,-140.424C209.875,-140.687 223.759,-141.029 235.862,-141.328"/>
<polygon fill="black" stroke="black" points="235.829,-144.828 245.912,-141.576 236.002,-137.831 235.829,-144.828"/>
<text text-anchor="middle" x="220.565" y="-143.8" font-family="Times,serif" font-size="14.00">a</text>
</g>
<!-- s3&#45;&gt;s6 -->
<g id="edge6" class="edge"><title>s3&#45;&gt;s6</title>
<path fill="none" stroke="black" d="M199.243,-84C208.675,-84 220.666,-84 231.702,-84"/>
<polygon fill="black" stroke="black" points="231.876,-87.5001 241.876,-84 231.876,-80.5001 231.876,-87.5001"/>
<text text-anchor="middle" x="220.565" y="-86.8" font-family="Times,serif" font-size="14.00">b</text>
</g>
<!-- s4&#45;&gt;s7 -->
<g id="edge7" class="edge"><title>s4&#45;&gt;s7</title>
<path fill="none" stroke="black" d="M199.243,-25.1517C208.675,-24.686 220.666,-24.0938 231.702,-23.5488"/>
<polygon fill="black" stroke="black" points="232.061,-27.0354 241.876,-23.0464 231.716,-20.044 232.061,-27.0354"/>
<text text-anchor="middle" x="220.565" y="-27.8" font-family="Times,serif" font-size="14.00">b</text>
</g>
<!-- s5&#45;&gt;s8 -->
<g id="edge8" class="edge"><title>s5&#45;&gt;s8</title>
<path fill="none" stroke="black" d="M282.266,-142C292.697,-142 306.324,-142 318.623,-142"/>
<polygon fill="black" stroke="black" points="318.976,-145.5 328.976,-142 318.976,-138.5 318.976,-145.5"/>
<text text-anchor="middle" x="307.565" y="-144.8" font-family="Times,serif" font-size="14.00">b</text>
</g>
</g>
</svg>
