<?xml version="1.0" encoding="UTF-8" standalone="no"?>
<!DOCTYPE svg PUBLIC "-//W3C//DTD SVG 1.1//EN"
 "http://www.w3.org/Graphics/SVG/1.1/DTD/svg11.dtd">
<!-- Generated by graphviz version 12.2.1 (20241206.2353)
 -->
<!-- Title: finite_state_machine Pages: 1 -->
<svg width="719pt" height="200pt"
 viewBox="0.00 0.00 718.65 199.61" xmlns="http://www.w3.org/2000/svg" xmlns:xlink="http://www.w3.org/1999/xlink">
<g id="graph0" class="graph" transform="scale(1 1) rotate(0) translate(4 195.61)">
<title>finite_state_machine</title>
<polygon fill="white" stroke="none" points="-4,4 -4,-195.61 714.65,-195.61 714.65,4 -4,4"/>
<!-- s2 -->
<g id="node1" class="node">
<title>s2</title>
<ellipse fill="none" stroke="black" cx="687.54" cy="-149.11" rx="19.11" ry="19.11"/>
<ellipse fill="none" stroke="black" cx="687.54" cy="-149.11" rx="23.11" ry="23.11"/>
<text text-anchor="middle" x="687.54" y="-144.06" font-family="Times,serif" font-size="14.00">s2</text>
</g>
<!-- s0 -->
<g id="node2" class="node">
<title>s0</title>
<ellipse fill="none" stroke="black" cx="19.11" cy="-96.11" rx="19.11" ry="19.11"/>
<text text-anchor="middle" x="19.11" y="-91.06" font-family="Times,serif" font-size="14.00">s0</text>
</g>
<!-- s1 -->
<g id="node3" class="node">
<title>s1</title>
<ellipse fill="none" stroke="black" cx="99.32" cy="-96.11" rx="19.11" ry="19.11"/>
<text text-anchor="middle" x="99.32" y="-91.06" font-family="Times,serif" font-size="14.00">s1</text>
</g>
<!-- s0&#45;&gt;s1 -->
<g id="edge1" class="edge">
<title>s0&#45;&gt;s1</title>
<path fill="none" stroke="black" d="M38.64,-96.11C47.6,-96.11 58.58,-96.11 68.67,-96.11"/>
<polygon fill="black" stroke="black" points="68.41,-99.61 78.41,-96.11 68.41,-92.61 68.41,-99.61"/>
<text text-anchor="middle" x="59.22" y="-99.31" font-family="Times,serif" font-size="14.00">a</text>
</g>
<!-- s1&#45;&gt;s2 -->
<g id="edge2" class="edge">
<title>s1&#45;&gt;s2</title>
<path fill="none" stroke="black" d="M108.04,-113.25C119.8,-136.48 144.58,-175.11 179.29,-175.11 179.29,-175.11 179.29,-175.11 598.97,-175.11 618.3,-175.11 639.07,-169.21 655.53,-163.04"/>
<polygon fill="black" stroke="black" points="656.78,-166.31 664.76,-159.35 654.18,-159.81 656.78,-166.31"/>
<text text-anchor="middle" x="388.7" y="-178.31" font-family="Times,serif" font-size="14.00">b</text>
</g>
<!-- s3 -->
<g id="node4" class="node">
<title>s3</title>
<ellipse fill="none" stroke="black" cx="180.29" cy="-19.11" rx="19.11" ry="19.11"/>
<text text-anchor="middle" x="180.29" y="-14.06" font-family="Times,serif" font-size="14.00">s3</text>
</g>
<!-- s1&#45;&gt;s3 -->
<g id="edge3" class="edge">
<title>s1&#45;&gt;s3</title>
<path fill="none" stroke="black" d="M109.1,-79.52C115.58,-68.39 125.2,-53.94 136.43,-43.61 141.16,-39.26 146.8,-35.35 152.4,-32"/>
<polygon fill="black" stroke="black" points="153.84,-35.21 160.93,-27.34 150.48,-29.07 153.84,-35.21"/>
<text text-anchor="middle" x="139.81" y="-46.81" font-family="Times,serif" font-size="14.00">d</text>
</g>
<!-- s4 -->
<g id="node5" class="node">
<title>s4</title>
<ellipse fill="none" stroke="black" cx="180.29" cy="-128.11" rx="19.11" ry="19.11"/>
<text text-anchor="middle" x="180.29" y="-123.06" font-family="Times,serif" font-size="14.00">s4</text>
</g>
<!-- s1&#45;&gt;s4 -->
<g id="edge4" class="edge">
<title>s1&#45;&gt;s4</title>
<path fill="none" stroke="black" d="M117.46,-103.05C127.49,-107.12 140.4,-112.35 151.83,-116.98"/>
<polygon fill="black" stroke="black" points="150.2,-120.1 160.78,-120.61 152.83,-113.61 150.2,-120.1"/>
<text text-anchor="middle" x="139.81" y="-116.27" font-family="Times,serif" font-size="14.00">k</text>
</g>
<!-- s5 -->
<g id="node6" class="node">
<title>s5</title>
<ellipse fill="none" stroke="black" cx="260.5" cy="-57.11" rx="19.11" ry="19.11"/>
<text text-anchor="middle" x="260.5" y="-52.06" font-family="Times,serif" font-size="14.00">s5</text>
</g>
<!-- s3&#45;&gt;s5 -->
<g id="edge5" class="edge">
<title>s3&#45;&gt;s5</title>
<path fill="none" stroke="black" d="M197.87,-27.17C208.04,-32.1 221.28,-38.54 232.88,-44.17"/>
<polygon fill="black" stroke="black" points="231.05,-47.18 241.58,-48.4 234.11,-40.88 231.05,-47.18"/>
<text text-anchor="middle" x="220.4" y="-42.45" font-family="Times,serif" font-size="14.00">e</text>
</g>
<!-- s6 -->
<g id="node7" class="node">
<title>s6</title>
<ellipse fill="none" stroke="black" cx="260.5" cy="-128.11" rx="19.11" ry="19.11"/>
<text text-anchor="middle" x="260.5" y="-123.06" font-family="Times,serif" font-size="14.00">s6</text>
</g>
<!-- s4&#45;&gt;s6 -->
<g id="edge6" class="edge">
<title>s4&#45;&gt;s6</title>
<path fill="none" stroke="black" d="M199.82,-128.11C208.78,-128.11 219.76,-128.11 229.85,-128.11"/>
<polygon fill="black" stroke="black" points="229.59,-131.61 239.59,-128.11 229.59,-124.61 229.59,-131.61"/>
<text text-anchor="middle" x="220.4" y="-131.31" font-family="Times,serif" font-size="14.00">l</text>
</g>
<!-- s5&#45;&gt;s1 -->
<g id="edge7" class="edge">
<title>s5&#45;&gt;s1</title>
<path fill="none" stroke="black" d="M241.86,-61.43C214.68,-68.09 162.26,-80.93 129.41,-88.98"/>
<polygon fill="black" stroke="black" points="128.62,-85.57 119.74,-91.35 130.29,-92.37 128.62,-85.57"/>
<text text-anchor="middle" x="180.29" y="-84.32" font-family="Times,serif" font-size="14.00">f</text>
</g>
<!-- s7 -->
<g id="node8" class="node">
<title>s7</title>
<ellipse fill="none" stroke="black" cx="345.97" cy="-128.11" rx="19.11" ry="19.11"/>
<text text-anchor="middle" x="345.97" y="-123.06" font-family="Times,serif" font-size="14.00">s7</text>
</g>
<!-- s6&#45;&gt;s7 -->
<g id="edge8" class="edge">
<title>s6&#45;&gt;s7</title>
<path fill="none" stroke="black" d="M280.03,-128.11C290.4,-128.11 303.58,-128.11 315.35,-128.11"/>
<polygon fill="black" stroke="black" points="314.98,-131.61 324.98,-128.11 314.98,-124.61 314.98,-131.61"/>
<text text-anchor="middle" x="303.24" y="-131.31" font-family="Times,serif" font-size="14.00">m</text>
</g>
<!-- s8 -->
<g id="node9" class="node">
<title>s8</title>
<ellipse fill="none" stroke="black" cx="431.43" cy="-128.11" rx="19.11" ry="19.11"/>
<text text-anchor="middle" x="431.43" y="-123.06" font-family="Times,serif" font-size="14.00">s8</text>
</g>
<!-- s7&#45;&gt;s8 -->
<g id="edge9" class="edge">
<title>s7&#45;&gt;s8</title>
<path fill="none" stroke="black" d="M365.49,-128.11C375.86,-128.11 389.04,-128.11 400.81,-128.11"/>
<polygon fill="black" stroke="black" points="400.45,-131.61 410.45,-128.11 400.45,-124.61 400.45,-131.61"/>
<text text-anchor="middle" x="388.7" y="-131.31" font-family="Times,serif" font-size="14.00">m</text>
</g>
<!-- s9 -->
<g id="node10" class="node">
<title>s9</title>
<ellipse fill="none" stroke="black" cx="512.4" cy="-128.11" rx="19.11" ry="19.11"/>
<text text-anchor="middle" x="512.4" y="-123.06" font-family="Times,serif" font-size="14.00">s9</text>
</g>
<!-- s8&#45;&gt;s9 -->
<g id="edge10" class="edge">
<title>s8&#45;&gt;s9</title>
<path fill="none" stroke="black" d="M450.75,-128.11C459.85,-128.11 471.09,-128.11 481.4,-128.11"/>
<polygon fill="black" stroke="black" points="481.4,-131.61 491.4,-128.11 481.4,-124.61 481.4,-131.61"/>
<text text-anchor="middle" x="471.92" y="-131.31" font-family="Times,serif" font-size="14.00">n</text>
</g>
<!-- s10 -->
<g id="node11" class="node">
<title>s10</title>
<ellipse fill="none" stroke="black" cx="597.97" cy="-123.11" rx="23.71" ry="23.71"/>
<text text-anchor="middle" x="597.97" y="-118.06" font-family="Times,serif" font-size="14.00">s10</text>
</g>
<!-- s9&#45;&gt;s10 -->
<g id="edge11" class="edge">
<title>s9&#45;&gt;s10</title>
<path fill="none" stroke="black" d="M531.94,-127C540.96,-126.46 552.09,-125.79 562.58,-125.17"/>
<polygon fill="black" stroke="black" points="562.71,-128.66 572.49,-124.57 562.3,-121.68 562.71,-128.66"/>
<text text-anchor="middle" x="552.88" y="-129.11" font-family="Times,serif" font-size="14.00">o</text>
</g>
<!-- s10&#45;&gt;s2 -->
<g id="edge12" class="edge">
<title>s10&#45;&gt;s2</title>
<path fill="none" stroke="black" d="M621.07,-129.67C631.07,-132.64 643.09,-136.21 654.09,-139.47"/>
<polygon fill="black" stroke="black" points="653.02,-142.81 663.6,-142.3 655.01,-136.1 653.02,-142.81"/>
<text text-anchor="middle" x="643.06" y="-140.09" font-family="Times,serif" font-size="14.00">b</text>
</g>
<!-- s10&#45;&gt;s8 -->
<g id="edge13" class="edge">
<title>s10&#45;&gt;s8</title>
<path fill="none" stroke="black" d="M578.77,-108.4C566.29,-99.29 548.9,-88.45 531.51,-83.61 515.14,-79.05 509.44,-78.33 493.29,-83.61 478.71,-88.37 464.73,-98.1 453.85,-107.25"/>
<polygon fill="black" stroke="black" points="451.77,-104.41 446.63,-113.67 456.42,-109.64 451.77,-104.41"/>
<text text-anchor="middle" x="512.4" y="-86.81" font-family="Times,serif" font-size="14.00">m</text>
</g>
</g>
</svg>
