<?xml version="1.0" encoding="UTF-8" standalone="no"?>
<!DOCTYPE svg PUBLIC "-//W3C//DTD SVG 1.1//EN"
 "http://www.w3.org/Graphics/SVG/1.1/DTD/svg11.dtd">
<!-- Generated by graphviz version 12.2.1 (20241206.2353)
 -->
<!-- Title: finite_state_machine Pages: 1 -->
<svg width="311pt" height="54pt"
 viewBox="0.00 0.00 310.86 54.22" xmlns="http://www.w3.org/2000/svg" xmlns:xlink="http://www.w3.org/1999/xlink">
<g id="graph0" class="graph" transform="scale(1 1) rotate(0) translate(4 50.22)">
<title>finite_state_machine</title>
<polygon fill="white" stroke="none" points="-4,4 -4,-50.22 306.86,-50.22 306.86,4 -4,4"/>
<!-- s1 -->
<g id="node1" class="node">
<title>s1</title>
<ellipse fill="none" stroke="black" cx="103.32" cy="-23.11" rx="19.11" ry="19.11"/>
<ellipse fill="none" stroke="black" cx="103.32" cy="-23.11" rx="23.11" ry="23.11"/>
<text text-anchor="middle" x="103.32" y="-18.06" font-family="Times,serif" font-size="14.00">s1</text>
</g>
<!-- s2 -->
<g id="node2" class="node">
<title>s2</title>
<ellipse fill="none" stroke="black" cx="191.54" cy="-23.11" rx="19.11" ry="19.11"/>
<ellipse fill="none" stroke="black" cx="191.54" cy="-23.11" rx="23.11" ry="23.11"/>
<text text-anchor="middle" x="191.54" y="-18.06" font-family="Times,serif" font-size="14.00">s2</text>
</g>
<!-- s1&#45;&gt;s2 -->
<g id="edge2" class="edge">
<title>s1&#45;&gt;s2</title>
<path fill="none" stroke="black" d="M126.53,-23.11C135.71,-23.11 146.55,-23.11 156.69,-23.11"/>
<polygon fill="black" stroke="black" points="156.6,-26.61 166.6,-23.11 156.6,-19.61 156.6,-26.61"/>
<text text-anchor="middle" x="147.43" y="-26.31" font-family="Times,serif" font-size="14.00">a</text>
</g>
<!-- s3 -->
<g id="node3" class="node">
<title>s3</title>
<ellipse fill="none" stroke="black" cx="279.75" cy="-23.11" rx="19.11" ry="19.11"/>
<ellipse fill="none" stroke="black" cx="279.75" cy="-23.11" rx="23.11" ry="23.11"/>
<text text-anchor="middle" x="279.75" y="-18.06" font-family="Times,serif" font-size="14.00">s3</text>
</g>
<!-- s2&#45;&gt;s3 -->
<g id="edge3" class="edge">
<title>s2&#45;&gt;s3</title>
<path fill="none" stroke="black" d="M214.74,-23.11C223.92,-23.11 234.77,-23.11 244.9,-23.11"/>
<polygon fill="black" stroke="black" points="244.81,-26.61 254.81,-23.11 244.81,-19.61 244.81,-26.61"/>
<text text-anchor="middle" x="235.65" y="-26.31" font-family="Times,serif" font-size="14.00">a</text>
</g>
<!-- s0 -->
<g id="node4" class="node">
<title>s0</title>
<ellipse fill="none" stroke="black" cx="19.11" cy="-23.11" rx="19.11" ry="19.11"/>
<text text-anchor="middle" x="19.11" y="-18.06" font-family="Times,serif" font-size="14.00">s0</text>
</g>
<!-- s0&#45;&gt;s1 -->
<g id="edge1" class="edge">
<title>s0&#45;&gt;s1</title>
<path fill="none" stroke="black" d="M38.35,-23.11C47.22,-23.11 58.17,-23.11 68.49,-23.11"/>
<polygon fill="black" stroke="black" points="68.21,-26.61 78.21,-23.11 68.21,-19.61 68.21,-26.61"/>
<text text-anchor="middle" x="59.22" y="-26.31" font-family="Times,serif" font-size="14.00">a</text>
</g>
</g>
</svg>
