<?xml version="1.0" encoding="UTF-8" standalone="no"?>
<!DOCTYPE svg PUBLIC "-//W3C//DTD SVG 1.1//EN"
 "http://www.w3.org/Graphics/SVG/1.1/DTD/svg11.dtd">
<!-- Generated by graphviz version 2.38.0 (20140413.2041)
 -->
<!-- Title: finite_state_machine Pages: 1 -->
<svg width="131pt" height="52pt"
 viewBox="0.00 0.00 131.00 52.00" xmlns="http://www.w3.org/2000/svg" xmlns:xlink="http://www.w3.org/1999/xlink">
<g id="graph0" class="graph" transform="scale(1 1) rotate(0) translate(4 48)">
<title>finite_state_machine</title>
<polygon fill="white" stroke="none" points="-4,4 -4,-48 127,-48 127,4 -4,4"/>
<!-- s0 -->
<g id="node1" class="node"><title>s0</title>
<ellipse fill="none" stroke="black" cx="22" cy="-22" rx="18" ry="18"/>
<ellipse fill="none" stroke="black" cx="22" cy="-22" rx="22" ry="22"/>
<text text-anchor="middle" x="22" y="-17.8" font-family="Times,serif" font-size="14.00">s0</text>
</g>
<!-- s1 -->
<g id="node2" class="node"><title>s1</title>
<ellipse fill="none" stroke="black" cx="105" cy="-22" rx="18" ry="18"/>
<text text-anchor="middle" x="105" y="-17.8" font-family="Times,serif" font-size="14.00">s1</text>
</g>
<!-- s0&#45;&gt;s1 -->
<g id="edge1" class="edge"><title>s0&#45;&gt;s1</title>
<path fill="none" stroke="black" d="M44.2818,-22C54.2657,-22 66.2781,-22 76.9032,-22"/>
<polygon fill="black" stroke="black" points="76.9395,-25.5001 86.9395,-22 76.9395,-18.5001 76.9395,-25.5001"/>
<text text-anchor="middle" x="65.5" y="-24.8" font-family="Times,serif" font-size="14.00">x</text>
</g>
<!-- s1&#45;&gt;s0 -->
<g id="edge2" class="edge"><title>s1&#45;&gt;s0</title>
<path fill="none" stroke="black" d="M89.2832,-12.4577C83.2501,-9.08304 76.0395,-5.70409 69,-4 62.655,-2.46403 56.0159,-3.43319 49.8188,-5.55343"/>
<polygon fill="black" stroke="black" points="48.2894,-2.40258 40.5501,-9.63813 51.1123,-8.80816 48.2894,-2.40258"/>
<text text-anchor="middle" x="65.5" y="-6.8" font-family="Times,serif" font-size="14.00">x</text>
</g>
</g>
</svg>
