<?xml version="1.0" encoding="UTF-8" standalone="no"?>
<!DOCTYPE svg PUBLIC "-//W3C//DTD SVG 1.1//EN"
 "http://www.w3.org/Graphics/SVG/1.1/DTD/svg11.dtd">
<!-- Generated by graphviz version 12.2.1 (20241206.2353)
 -->
<!-- Title: finite_state_machine Pages: 1 -->
<svg width="224pt" height="54pt"
 viewBox="0.00 0.00 224.15 54.22" xmlns="http://www.w3.org/2000/svg" xmlns:xlink="http://www.w3.org/1999/xlink">
<g id="graph0" class="graph" transform="scale(1 1) rotate(0) translate(4 50.22)">
<title>finite_state_machine</title>
<polygon fill="white" stroke="none" points="-4,4 -4,-50.22 220.15,-50.22 220.15,4 -4,4"/>
<!-- s0 -->
<g id="node1" class="node">
<title>s0</title>
<ellipse fill="none" stroke="black" cx="23.11" cy="-23.11" rx="19.11" ry="19.11"/>
<ellipse fill="none" stroke="black" cx="23.11" cy="-23.11" rx="23.11" ry="23.11"/>
<text text-anchor="middle" x="23.11" y="-18.06" font-family="Times,serif" font-size="14.00">s0</text>
</g>
<!-- s1 -->
<g id="node3" class="node">
<title>s1</title>
<ellipse fill="none" stroke="black" cx="108.07" cy="-23.11" rx="19.11" ry="19.11"/>
<text text-anchor="middle" x="108.07" y="-18.06" font-family="Times,serif" font-size="14.00">s1</text>
</g>
<!-- s0&#45;&gt;s1 -->
<g id="edge1" class="edge">
<title>s0&#45;&gt;s1</title>
<path fill="none" stroke="black" d="M46.34,-23.11C55.86,-23.11 67.12,-23.11 77.34,-23.11"/>
<polygon fill="black" stroke="black" points="77.19,-26.61 87.19,-23.11 77.19,-19.61 77.19,-26.61"/>
<text text-anchor="middle" x="67.59" y="-26.31" font-family="Times,serif" font-size="14.00">x</text>
</g>
<!-- s2 -->
<g id="node2" class="node">
<title>s2</title>
<ellipse fill="none" stroke="black" cx="193.04" cy="-23.11" rx="19.11" ry="19.11"/>
<ellipse fill="none" stroke="black" cx="193.04" cy="-23.11" rx="23.11" ry="23.11"/>
<text text-anchor="middle" x="193.04" y="-18.06" font-family="Times,serif" font-size="14.00">s2</text>
</g>
<!-- s1&#45;&gt;s2 -->
<g id="edge2" class="edge">
<title>s1&#45;&gt;s2</title>
<path fill="none" stroke="black" d="M127.49,-23.11C136.5,-23.11 147.65,-23.11 158.14,-23.11"/>
<polygon fill="black" stroke="black" points="158.02,-26.61 168.02,-23.11 158.02,-19.61 158.02,-26.61"/>
<text text-anchor="middle" x="148.56" y="-26.31" font-family="Times,serif" font-size="14.00">x</text>
</g>
</g>
</svg>
