<?xml version="1.0" encoding="UTF-8" standalone="no"?>
<!DOCTYPE svg PUBLIC "-//W3C//DTD SVG 1.1//EN"
 "http://www.w3.org/Graphics/SVG/1.1/DTD/svg11.dtd">
<!-- Generated by graphviz version 2.38.0 (20140413.2041)
 -->
<!-- Title: finite_state_machine Pages: 1 -->
<svg width="131pt" height="114pt"
 viewBox="0.00 0.00 131.00 114.00" xmlns="http://www.w3.org/2000/svg" xmlns:xlink="http://www.w3.org/1999/xlink">
<g id="graph0" class="graph" transform="scale(1 1) rotate(0) translate(4 110)">
<title>finite_state_machine</title>
<polygon fill="white" stroke="none" points="-4,4 -4,-110 127,-110 127,4 -4,4"/>
<!-- s1 -->
<g id="node1" class="node"><title>s1</title>
<ellipse fill="none" stroke="black" cx="101" cy="-84" rx="18" ry="18"/>
<ellipse fill="none" stroke="black" cx="101" cy="-84" rx="22" ry="22"/>
<text text-anchor="middle" x="101" y="-79.8" font-family="Times,serif" font-size="14.00">s1</text>
</g>
<!-- s2 -->
<g id="node2" class="node"><title>s2</title>
<ellipse fill="none" stroke="black" cx="101" cy="-22" rx="18" ry="18"/>
<ellipse fill="none" stroke="black" cx="101" cy="-22" rx="22" ry="22"/>
<text text-anchor="middle" x="101" y="-17.8" font-family="Times,serif" font-size="14.00">s2</text>
</g>
<!-- s0 -->
<g id="node3" class="node"><title>s0</title>
<ellipse fill="none" stroke="black" cx="18" cy="-53" rx="18" ry="18"/>
<text text-anchor="middle" x="18" y="-48.8" font-family="Times,serif" font-size="14.00">s0</text>
</g>
<!-- s0&#45;&gt;s1 -->
<g id="edge1" class="edge"><title>s0&#45;&gt;s1</title>
<path fill="none" stroke="black" d="M35.003,-59.1246C45.1606,-63.0121 58.6112,-68.1598 70.6401,-72.7635"/>
<polygon fill="black" stroke="black" points="69.7161,-76.1574 80.3065,-76.463 72.2182,-69.6198 69.7161,-76.1574"/>
<text text-anchor="middle" x="57.5" y="-70.8" font-family="Times,serif" font-size="14.00">a</text>
</g>
<!-- s0&#45;&gt;s2 -->
<g id="edge2" class="edge"><title>s0&#45;&gt;s2</title>
<path fill="none" stroke="black" d="M35.003,-46.8754C45.1606,-42.9879 58.6112,-37.8402 70.6401,-33.2365"/>
<polygon fill="black" stroke="black" points="72.2182,-36.3802 80.3065,-29.537 69.7161,-29.8426 72.2182,-36.3802"/>
<text text-anchor="middle" x="57.5" y="-41.8" font-family="Times,serif" font-size="14.00">b</text>
</g>
</g>
</svg>
