<?xml version="1.0" encoding="UTF-8" standalone="no"?>
<!DOCTYPE svg PUBLIC "-//W3C//DTD SVG 1.1//EN"
 "http://www.w3.org/Graphics/SVG/1.1/DTD/svg11.dtd">
<!-- Generated by graphviz version 2.38.0 (20140413.2041)
 -->
<!-- Title: finite_state_machine Pages: 1 -->
<svg width="503pt" height="140pt"
 viewBox="0.00 0.00 503.43 140.00" xmlns="http://www.w3.org/2000/svg" xmlns:xlink="http://www.w3.org/1999/xlink">
<g id="graph0" class="graph" transform="scale(1 1) rotate(0) translate(4 136)">
<title>finite_state_machine</title>
<polygon fill="white" stroke="none" points="-4,4 -4,-136 499.428,-136 499.428,4 -4,4"/>
<!-- s6 -->
<g id="node1" class="node"><title>s6</title>
<ellipse fill="none" stroke="black" cx="473.428" cy="-64" rx="18" ry="18"/>
<ellipse fill="none" stroke="black" cx="473.428" cy="-64" rx="22" ry="22"/>
<text text-anchor="middle" x="473.428" y="-59.8" font-family="Times,serif" font-size="14.00">s6</text>
</g>
<!-- s0 -->
<g id="node2" class="node"><title>s0</title>
<ellipse fill="none" stroke="black" cx="18" cy="-36" rx="18" ry="18"/>
<text text-anchor="middle" x="18" y="-31.8" font-family="Times,serif" font-size="14.00">s0</text>
</g>
<!-- s1 -->
<g id="node3" class="node"><title>s1</title>
<ellipse fill="none" stroke="black" cx="96.2139" cy="-36" rx="18" ry="18"/>
<text text-anchor="middle" x="96.2139" y="-31.8" font-family="Times,serif" font-size="14.00">s1</text>
</g>
<!-- s0&#45;&gt;s1 -->
<g id="edge1" class="edge"><title>s0&#45;&gt;s1</title>
<path fill="none" stroke="black" d="M36.2941,-36C45.6488,-36 57.4172,-36 67.9721,-36"/>
<polygon fill="black" stroke="black" points="67.9882,-39.5001 77.9882,-36 67.9882,-32.5001 67.9882,-39.5001"/>
<text text-anchor="middle" x="57.1069" y="-38.8" font-family="Times,serif" font-size="14.00">a</text>
</g>
<!-- s2 -->
<g id="node4" class="node"><title>s2</title>
<ellipse fill="none" stroke="black" cx="175.214" cy="-64" rx="18" ry="18"/>
<text text-anchor="middle" x="175.214" y="-59.8" font-family="Times,serif" font-size="14.00">s2</text>
</g>
<!-- s1&#45;&gt;s2 -->
<g id="edge2" class="edge"><title>s1&#45;&gt;s2</title>
<path fill="none" stroke="black" d="M113.544,-41.9381C123.719,-45.6381 137.027,-50.4776 148.587,-54.681"/>
<polygon fill="black" stroke="black" points="147.578,-58.0383 158.172,-58.1665 149.97,-51.4597 147.578,-58.0383"/>
<text text-anchor="middle" x="135.714" y="-52.8" font-family="Times,serif" font-size="14.00">a</text>
</g>
<!-- s3 -->
<g id="node5" class="node"><title>s3</title>
<ellipse fill="none" stroke="black" cx="229.214" cy="-18" rx="18" ry="18"/>
<text text-anchor="middle" x="229.214" y="-13.8" font-family="Times,serif" font-size="14.00">s3</text>
</g>
<!-- s1&#45;&gt;s3 -->
<g id="edge3" class="edge"><title>s1&#45;&gt;s3</title>
<path fill="none" stroke="black" d="M114.3,-33.5336C119.997,-32.7182 126.378,-31.812 132.214,-31 155.438,-27.7687 181.838,-24.2014 201.067,-21.6224"/>
<polygon fill="black" stroke="black" points="201.767,-25.06 211.214,-20.2639 200.838,-18.1219 201.767,-25.06"/>
<text text-anchor="middle" x="135.714" y="-33.8" font-family="Times,serif" font-size="14.00">b</text>
</g>
<!-- s4 -->
<g id="node6" class="node"><title>s4</title>
<ellipse fill="none" stroke="black" cx="283.214" cy="-112" rx="18" ry="18"/>
<text text-anchor="middle" x="283.214" y="-107.8" font-family="Times,serif" font-size="14.00">s4</text>
</g>
<!-- s2&#45;&gt;s4 -->
<g id="edge4" class="edge"><title>s2&#45;&gt;s4</title>
<path fill="none" stroke="black" d="M191.424,-72.1376C197.525,-75.3187 204.653,-78.9321 211.214,-82 226.09,-88.9559 243.019,-96.1368 256.614,-101.729"/>
<polygon fill="black" stroke="black" points="255.691,-105.131 266.272,-105.665 258.333,-98.6492 255.691,-105.131"/>
<text text-anchor="middle" x="229.214" y="-99.8" font-family="Times,serif" font-size="14.00">a</text>
</g>
<!-- s5 -->
<g id="node7" class="node"><title>s5</title>
<ellipse fill="none" stroke="black" cx="337.214" cy="-64" rx="18" ry="18"/>
<text text-anchor="middle" x="337.214" y="-59.8" font-family="Times,serif" font-size="14.00">s5</text>
</g>
<!-- s2&#45;&gt;s5 -->
<g id="edge5" class="edge"><title>s2&#45;&gt;s5</title>
<path fill="none" stroke="black" d="M193.337,-64C220.86,-64 275.206,-64 308.365,-64"/>
<polygon fill="black" stroke="black" points="308.729,-67.5001 318.729,-64 308.729,-60.5001 308.729,-67.5001"/>
<text text-anchor="middle" x="229.214" y="-66.8" font-family="Times,serif" font-size="14.00">b</text>
</g>
<!-- s3&#45;&gt;s6 -->
<g id="edge6" class="edge"><title>s3&#45;&gt;s6</title>
<path fill="none" stroke="black" d="M247.379,-17.095C271.64,-16.1745 317.237,-15.766 355.214,-23 386.345,-28.9301 420.373,-41.5687 443.706,-51.2561"/>
<polygon fill="black" stroke="black" points="442.438,-54.5202 453.011,-55.1991 445.169,-48.0749 442.438,-54.5202"/>
<text text-anchor="middle" x="337.214" y="-25.8" font-family="Times,serif" font-size="14.00">c</text>
</g>
<!-- s7 -->
<g id="node8" class="node"><title>s7</title>
<ellipse fill="none" stroke="black" cx="391.214" cy="-114" rx="18" ry="18"/>
<text text-anchor="middle" x="391.214" y="-109.8" font-family="Times,serif" font-size="14.00">s7</text>
</g>
<!-- s4&#45;&gt;s7 -->
<g id="edge7" class="edge"><title>s4&#45;&gt;s7</title>
<path fill="none" stroke="black" d="M301.245,-112.321C317.836,-112.634 343.331,-113.115 362.783,-113.482"/>
<polygon fill="black" stroke="black" points="362.809,-116.983 372.873,-113.673 362.941,-109.985 362.809,-116.983"/>
<text text-anchor="middle" x="337.214" y="-115.8" font-family="Times,serif" font-size="14.00">b</text>
</g>
<!-- s5&#45;&gt;s6 -->
<g id="edge8" class="edge"><title>s5&#45;&gt;s6</title>
<path fill="none" stroke="black" d="M355.485,-64C377.015,-64 414.224,-64 440.892,-64"/>
<polygon fill="black" stroke="black" points="441.246,-67.5001 451.246,-64 441.246,-60.5001 441.246,-67.5001"/>
<text text-anchor="middle" x="391.214" y="-66.8" font-family="Times,serif" font-size="14.00">c</text>
</g>
<!-- s7&#45;&gt;s6 -->
<g id="edge9" class="edge"><title>s7&#45;&gt;s6</title>
<path fill="none" stroke="black" d="M406.926,-104.829C417.804,-98.0489 432.915,-88.6297 445.882,-80.5468"/>
<polygon fill="black" stroke="black" points="447.804,-83.4733 454.439,-75.2132 444.101,-77.5328 447.804,-83.4733"/>
<text text-anchor="middle" x="430.321" y="-93.8" font-family="Times,serif" font-size="14.00">c</text>
</g>
</g>
</svg>
