<?xml version="1.0" encoding="UTF-8" standalone="no"?>
<!DOCTYPE svg PUBLIC "-//W3C//DTD SVG 1.1//EN"
 "http://www.w3.org/Graphics/SVG/1.1/DTD/svg11.dtd">
<!-- Generated by graphviz version 12.2.1 (20241206.2353)
 -->
<!-- Title: finite_state_machine Pages: 1 -->
<svg width="619pt" height="317pt"
 viewBox="0.00 0.00 618.72 316.50" xmlns="http://www.w3.org/2000/svg" xmlns:xlink="http://www.w3.org/1999/xlink">
<g id="graph0" class="graph" transform="scale(1 1) rotate(0) translate(4 312.5)">
<title>finite_state_machine</title>
<polygon fill="white" stroke="none" points="-4,4 -4,-312.5 614.72,-312.5 614.72,4 -4,4"/>
<!-- s8 -->
<g id="node1" class="node">
<title>s8</title>
<ellipse fill="none" stroke="black" cx="265.25" cy="-187" rx="19.11" ry="19.11"/>
<ellipse fill="none" stroke="black" cx="265.25" cy="-187" rx="23.11" ry="23.11"/>
<text text-anchor="middle" x="265.25" y="-181.95" font-family="Times,serif" font-size="14.00">s8</text>
</g>
<!-- s0 -->
<g id="node2" class="node">
<title>s0</title>
<ellipse fill="none" stroke="black" cx="19.11" cy="-38" rx="19.11" ry="19.11"/>
<text text-anchor="middle" x="19.11" y="-32.95" font-family="Times,serif" font-size="14.00">s0</text>
</g>
<!-- s1 -->
<g id="node3" class="node">
<title>s1</title>
<ellipse fill="none" stroke="black" cx="99.32" cy="-167" rx="19.11" ry="19.11"/>
<text text-anchor="middle" x="99.32" y="-161.95" font-family="Times,serif" font-size="14.00">s1</text>
</g>
<!-- s0&#45;&gt;s1 -->
<g id="edge1" class="edge">
<title>s0&#45;&gt;s1</title>
<path fill="none" stroke="black" d="M29.86,-54.08C43.09,-75.9 66.89,-115.15 82.64,-141.14"/>
<polygon fill="black" stroke="black" points="79.49,-142.69 87.67,-149.43 85.48,-139.06 79.49,-142.69"/>
<text text-anchor="middle" x="59.22" y="-109.57" font-family="Times,serif" font-size="14.00">a</text>
</g>
<!-- s2 -->
<g id="node4" class="node">
<title>s2</title>
<ellipse fill="none" stroke="black" cx="510.65" cy="-136" rx="19.11" ry="19.11"/>
<text text-anchor="middle" x="510.65" y="-130.95" font-family="Times,serif" font-size="14.00">s2</text>
</g>
<!-- s0&#45;&gt;s2 -->
<g id="edge2" class="edge">
<title>s0&#45;&gt;s2</title>
<path fill="none" stroke="black" d="M34.38,-26.18C49.35,-15.03 74.02,0 98.32,0 98.32,0 98.32,0 430.68,0 479.16,0 498.38,-65.42 505.6,-105.52"/>
<polygon fill="black" stroke="black" points="502.14,-106 507.2,-115.31 509.05,-104.88 502.14,-106"/>
<text text-anchor="middle" x="265.25" y="-3.2" font-family="Times,serif" font-size="14.00">b</text>
</g>
<!-- s3 -->
<g id="node5" class="node">
<title>s3</title>
<ellipse fill="none" stroke="black" cx="265.25" cy="-107" rx="19.11" ry="19.11"/>
<text text-anchor="middle" x="265.25" y="-101.95" font-family="Times,serif" font-size="14.00">s3</text>
</g>
<!-- s0&#45;&gt;s3 -->
<g id="edge3" class="edge">
<title>s0&#45;&gt;s3</title>
<path fill="none" stroke="black" d="M38.47,-41.05C71.28,-46.76 141.89,-60.19 199.4,-79 212.12,-83.16 225.78,-88.86 237.26,-94.04"/>
<polygon fill="black" stroke="black" points="235.59,-97.12 246.14,-98.13 238.52,-90.76 235.59,-97.12"/>
<text text-anchor="middle" x="139.81" y="-65.77" font-family="Times,serif" font-size="14.00">c</text>
</g>
<!-- s4 -->
<g id="node6" class="node">
<title>s4</title>
<ellipse fill="none" stroke="black" cx="180.29" cy="-107" rx="19.11" ry="19.11"/>
<text text-anchor="middle" x="180.29" y="-101.95" font-family="Times,serif" font-size="14.00">s4</text>
</g>
<!-- s1&#45;&gt;s4 -->
<g id="edge4" class="edge">
<title>s1&#45;&gt;s4</title>
<path fill="none" stroke="black" d="M106.25,-148.73C111.74,-135.05 121.36,-117.25 136.43,-108.5 140.44,-106.17 145.04,-104.88 149.71,-104.27"/>
<polygon fill="black" stroke="black" points="149.73,-107.77 159.62,-103.98 149.52,-100.78 149.73,-107.77"/>
<text text-anchor="middle" x="139.81" y="-111.7" font-family="Times,serif" font-size="14.00">a</text>
</g>
<!-- s5 -->
<g id="node7" class="node">
<title>s5</title>
<ellipse fill="none" stroke="black" cx="180.29" cy="-187" rx="19.11" ry="19.11"/>
<text text-anchor="middle" x="180.29" y="-181.95" font-family="Times,serif" font-size="14.00">s5</text>
</g>
<!-- s1&#45;&gt;s5 -->
<g id="edge5" class="edge">
<title>s1&#45;&gt;s5</title>
<path fill="none" stroke="black" d="M118.24,-171.54C127.73,-173.94 139.62,-176.95 150.38,-179.68"/>
<polygon fill="black" stroke="black" points="149.42,-183.05 159.97,-182.11 151.14,-176.26 149.42,-183.05"/>
<text text-anchor="middle" x="139.81" y="-180.8" font-family="Times,serif" font-size="14.00">b</text>
</g>
<!-- s6 -->
<g id="node8" class="node">
<title>s6</title>
<ellipse fill="none" stroke="black" cx="591.61" cy="-192" rx="19.11" ry="19.11"/>
<text text-anchor="middle" x="591.61" y="-186.95" font-family="Times,serif" font-size="14.00">s6</text>
</g>
<!-- s2&#45;&gt;s6 -->
<g id="edge6" class="edge">
<title>s2&#45;&gt;s6</title>
<path fill="none" stroke="black" d="M529.74,-133.05C537.79,-132.6 547.1,-133.35 554.51,-137.5 565.13,-143.45 573.19,-153.98 578.97,-164.2"/>
<polygon fill="black" stroke="black" points="575.68,-165.46 583.31,-172.8 581.92,-162.3 575.68,-165.46"/>
<text text-anchor="middle" x="551.13" y="-140.7" font-family="Times,serif" font-size="14.00">b</text>
</g>
<!-- s7 -->
<g id="node9" class="node">
<title>s7</title>
<ellipse fill="none" stroke="black" cx="349.47" cy="-161" rx="19.11" ry="19.11"/>
<text text-anchor="middle" x="349.47" y="-155.95" font-family="Times,serif" font-size="14.00">s7</text>
</g>
<!-- s3&#45;&gt;s7 -->
<g id="edge7" class="edge">
<title>s3&#45;&gt;s7</title>
<path fill="none" stroke="black" d="M281.72,-117.16C293.47,-124.88 309.88,-135.65 323.49,-144.59"/>
<polygon fill="black" stroke="black" points="321.25,-147.31 331.53,-149.87 325.09,-141.46 321.25,-147.31"/>
<text text-anchor="middle" x="309.36" y="-140.43" font-family="Times,serif" font-size="14.00">c</text>
</g>
<!-- s4&#45;&gt;s1 -->
<g id="edge8" class="edge">
<title>s4&#45;&gt;s1</title>
<path fill="none" stroke="black" d="M164.5,-118.23C153.16,-126.85 137.27,-138.92 124.14,-148.9"/>
<polygon fill="black" stroke="black" points="122.23,-145.96 116.38,-154.8 126.46,-151.54 122.23,-145.96"/>
<text text-anchor="middle" x="139.81" y="-142" font-family="Times,serif" font-size="14.00">a</text>
</g>
<!-- s4&#45;&gt;s2 -->
<g id="edge9" class="edge">
<title>s4&#45;&gt;s2</title>
<path fill="none" stroke="black" d="M197.15,-97.39C209.05,-90.76 226.01,-82.53 242.15,-79 262.21,-74.61 267.86,-77.66 288.36,-79 324.24,-81.34 333.52,-81.5 368.58,-89.5 408.79,-98.67 453.83,-114.54 481.96,-125.15"/>
<polygon fill="black" stroke="black" points="480.57,-128.36 491.16,-128.67 483.07,-121.83 480.57,-128.36"/>
<text text-anchor="middle" x="349.47" y="-92.7" font-family="Times,serif" font-size="14.00">b</text>
</g>
<!-- s4&#45;&gt;s3 -->
<g id="edge10" class="edge">
<title>s4&#45;&gt;s3</title>
<path fill="none" stroke="black" d="M199.7,-107C209.9,-107 222.84,-107 234.45,-107"/>
<polygon fill="black" stroke="black" points="234.38,-110.5 244.38,-107 234.38,-103.5 234.38,-110.5"/>
<text text-anchor="middle" x="220.77" y="-110.2" font-family="Times,serif" font-size="14.00">c</text>
</g>
<!-- s5&#45;&gt;s8 -->
<g id="edge11" class="edge">
<title>s5&#45;&gt;s8</title>
<path fill="none" stroke="black" d="M199.7,-187C208.72,-187 219.87,-187 230.35,-187"/>
<polygon fill="black" stroke="black" points="230.24,-190.5 240.24,-187 230.24,-183.5 230.24,-190.5"/>
<text text-anchor="middle" x="220.77" y="-190.2" font-family="Times,serif" font-size="14.00">b</text>
</g>
<!-- s6&#45;&gt;s1 -->
<g id="edge12" class="edge">
<title>s6&#45;&gt;s1</title>
<path fill="none" stroke="black" d="M585.36,-210.34C575.83,-239.21 552.79,-292 511.65,-292 179.29,-292 179.29,-292 179.29,-292 134.58,-292 114.16,-234.15 105.67,-197.16"/>
<polygon fill="black" stroke="black" points="109.11,-196.53 103.63,-187.47 102.26,-197.97 109.11,-196.53"/>
<text text-anchor="middle" x="349.47" y="-295.2" font-family="Times,serif" font-size="14.00">a</text>
</g>
<!-- s6&#45;&gt;s2 -->
<g id="edge13" class="edge">
<title>s6&#45;&gt;s2</title>
<path fill="none" stroke="black" d="M575.43,-181.24C564.3,-173.34 548.95,-162.46 536.1,-153.34"/>
<polygon fill="black" stroke="black" points="538.29,-150.6 528.11,-147.67 534.24,-156.31 538.29,-150.6"/>
<text text-anchor="middle" x="551.13" y="-168.88" font-family="Times,serif" font-size="14.00">b</text>
</g>
<!-- s6&#45;&gt;s3 -->
<g id="edge14" class="edge">
<title>s6&#45;&gt;s3</title>
<path fill="none" stroke="black" d="M572.94,-197.69C557.07,-202.28 533.05,-208 511.65,-208 348.47,-208 348.47,-208 348.47,-208 329.25,-208 299.31,-163.48 281.36,-133.56"/>
<polygon fill="black" stroke="black" points="284.4,-131.83 276.31,-124.98 278.37,-135.38 284.4,-131.83"/>
<text text-anchor="middle" x="429.68" y="-211.2" font-family="Times,serif" font-size="14.00">c</text>
</g>
<!-- s9 -->
<g id="node10" class="node">
<title>s9</title>
<ellipse fill="none" stroke="black" cx="429.68" cy="-145" rx="19.11" ry="19.11"/>
<text text-anchor="middle" x="429.68" y="-139.95" font-family="Times,serif" font-size="14.00">s9</text>
</g>
<!-- s7&#45;&gt;s9 -->
<g id="edge15" class="edge">
<title>s7&#45;&gt;s9</title>
<path fill="none" stroke="black" d="M368.61,-157.29C377.79,-155.41 389.16,-153.09 399.53,-150.96"/>
<polygon fill="black" stroke="black" points="400.06,-154.43 409.16,-148.99 398.66,-147.57 400.06,-154.43"/>
<text text-anchor="middle" x="389.58" y="-156.68" font-family="Times,serif" font-size="14.00">c</text>
</g>
<!-- s9&#45;&gt;s1 -->
<g id="edge16" class="edge">
<title>s9&#45;&gt;s1</title>
<path fill="none" stroke="black" d="M419.97,-161.68C404.42,-190.36 371.54,-246 350.47,-246 179.29,-246 179.29,-246 179.29,-246 149.19,-246 126.56,-216.95 113.4,-194.09"/>
<polygon fill="black" stroke="black" points="116.58,-192.61 108.75,-185.47 110.42,-195.94 116.58,-192.61"/>
<text text-anchor="middle" x="265.25" y="-249.2" font-family="Times,serif" font-size="14.00">a</text>
</g>
<!-- s9&#45;&gt;s2 -->
<g id="edge17" class="edge">
<title>s9&#45;&gt;s2</title>
<path fill="none" stroke="black" d="M449,-142.91C458.2,-141.86 469.58,-140.57 479.99,-139.38"/>
<polygon fill="black" stroke="black" points="480.12,-142.89 489.65,-138.28 479.32,-135.93 480.12,-142.89"/>
<text text-anchor="middle" x="470.17" y="-143.97" font-family="Times,serif" font-size="14.00">b</text>
</g>
<!-- s9&#45;&gt;s3 -->
<g id="edge18" class="edge">
<title>s9&#45;&gt;s3</title>
<path fill="none" stroke="black" d="M412.7,-135.52C400.92,-129.02 384.28,-120.81 368.58,-116.5 344.7,-109.95 316.64,-107.71 295.95,-107.03"/>
<polygon fill="black" stroke="black" points="296.3,-103.54 286.22,-106.82 296.15,-110.54 296.3,-103.54"/>
<text text-anchor="middle" x="349.47" y="-119.7" font-family="Times,serif" font-size="14.00">c</text>
</g>
</g>
</svg>
