<?xml version="1.0" encoding="UTF-8" standalone="no"?>
<!DOCTYPE svg PUBLIC "-//W3C//DTD SVG 1.1//EN"
 "http://www.w3.org/Graphics/SVG/1.1/DTD/svg11.dtd">
<!-- Generated by graphviz version 12.2.1 (20241206.2353)
 -->
<!-- Title: finite_state_machine Pages: 1 -->
<svg width="304pt" height="119pt"
 viewBox="0.00 0.00 304.36 119.22" xmlns="http://www.w3.org/2000/svg" xmlns:xlink="http://www.w3.org/1999/xlink">
<g id="graph0" class="graph" transform="scale(1 1) rotate(0) translate(4 115.22)">
<title>finite_state_machine</title>
<polygon fill="white" stroke="none" points="-4,4 -4,-115.22 300.36,-115.22 300.36,4 -4,4"/>
<!-- s0 -->
<g id="node1" class="node">
<title>s0</title>
<ellipse fill="none" stroke="black" cx="23.11" cy="-55.11" rx="19.11" ry="19.11"/>
<ellipse fill="none" stroke="black" cx="23.11" cy="-55.11" rx="23.11" ry="23.11"/>
<text text-anchor="middle" x="23.11" y="-50.06" font-family="Times,serif" font-size="14.00">s0</text>
</g>
<!-- s0&#45;&gt;s0 -->
<g id="edge2" class="edge">
<title>s0&#45;&gt;s0</title>
<path fill="none" stroke="black" d="M15.14,-77.1C14.27,-87.3 16.93,-96.22 23.11,-96.22 26.78,-96.22 29.21,-93.07 30.39,-88.38"/>
<polygon fill="black" stroke="black" points="33.87,-88.8 30.98,-78.61 26.88,-88.38 33.87,-88.8"/>
<text text-anchor="middle" x="23.11" y="-97.92" font-family="Times,serif" font-size="14.00">◉</text>
</g>
<!-- s1 -->
<g id="node4" class="node">
<title>s1</title>
<ellipse fill="none" stroke="black" cx="105.82" cy="-55.11" rx="19.11" ry="19.11"/>
<text text-anchor="middle" x="105.82" y="-50.06" font-family="Times,serif" font-size="14.00">s1</text>
</g>
<!-- s0&#45;&gt;s1 -->
<g id="edge1" class="edge">
<title>s0&#45;&gt;s1</title>
<path fill="none" stroke="black" d="M46.59,-55.11C55.38,-55.11 65.59,-55.11 74.98,-55.11"/>
<polygon fill="black" stroke="black" points="74.76,-58.61 84.76,-55.11 74.76,-51.61 74.76,-58.61"/>
<text text-anchor="middle" x="66.47" y="-58.31" font-family="Times,serif" font-size="14.00">&#45;</text>
</g>
<!-- s3 -->
<g id="node2" class="node">
<title>s3</title>
<ellipse fill="none" stroke="black" cx="273.25" cy="-87.11" rx="19.11" ry="19.11"/>
<ellipse fill="none" stroke="black" cx="273.25" cy="-87.11" rx="23.11" ry="23.11"/>
<text text-anchor="middle" x="273.25" y="-82.06" font-family="Times,serif" font-size="14.00">s3</text>
</g>
<!-- s4 -->
<g id="node3" class="node">
<title>s4</title>
<ellipse fill="none" stroke="black" cx="273.25" cy="-23.11" rx="19.11" ry="19.11"/>
<ellipse fill="none" stroke="black" cx="273.25" cy="-23.11" rx="23.11" ry="23.11"/>
<text text-anchor="middle" x="273.25" y="-18.06" font-family="Times,serif" font-size="14.00">s4</text>
</g>
<!-- s2 -->
<g id="node5" class="node">
<title>s2</title>
<ellipse fill="none" stroke="black" cx="188.29" cy="-55.11" rx="19.11" ry="19.11"/>
<text text-anchor="middle" x="188.29" y="-50.06" font-family="Times,serif" font-size="14.00">s2</text>
</g>
<!-- s1&#45;&gt;s2 -->
<g id="edge3" class="edge">
<title>s1&#45;&gt;s2</title>
<path fill="none" stroke="black" d="M125.08,-55.11C134.68,-55.11 146.7,-55.11 157.6,-55.11"/>
<polygon fill="black" stroke="black" points="157.31,-58.61 167.31,-55.11 157.31,-51.61 157.31,-58.61"/>
<text text-anchor="middle" x="147.06" y="-58.31" font-family="Times,serif" font-size="14.00">=</text>
</g>
<!-- s2&#45;&gt;s3 -->
<g id="edge4" class="edge">
<title>s2&#45;&gt;s3</title>
<path fill="none" stroke="black" d="M206.48,-61.74C216.33,-65.54 229.01,-70.43 240.6,-74.9"/>
<polygon fill="black" stroke="black" points="239.26,-78.13 249.85,-78.47 241.78,-71.6 239.26,-78.13"/>
<text text-anchor="middle" x="228.77" y="-74.31" font-family="Times,serif" font-size="14.00">#</text>
</g>
<!-- s2&#45;&gt;s4 -->
<g id="edge5" class="edge">
<title>s2&#45;&gt;s4</title>
<path fill="none" stroke="black" d="M206.48,-48.48C216.33,-44.68 229.01,-39.79 240.6,-35.31"/>
<polygon fill="black" stroke="black" points="241.78,-38.61 249.85,-31.75 239.26,-32.08 241.78,-38.61"/>
<text text-anchor="middle" x="228.77" y="-44.22" font-family="Times,serif" font-size="14.00">&#45;</text>
</g>
</g>
</svg>
