<?xml version="1.0" encoding="UTF-8" standalone="no"?>
<!DOCTYPE svg PUBLIC "-//W3C//DTD SVG 1.1//EN"
 "http://www.w3.org/Graphics/SVG/1.1/DTD/svg11.dtd">
<!-- Generated by graphviz version 12.2.1 (20241206.2353)
 -->
<!-- Title: finite_state_machine Pages: 1 -->
<svg width="216pt" height="118pt"
 viewBox="0.00 0.00 216.15 118.22" xmlns="http://www.w3.org/2000/svg" xmlns:xlink="http://www.w3.org/1999/xlink">
<g id="graph0" class="graph" transform="scale(1 1) rotate(0) translate(4 114.22)">
<title>finite_state_machine</title>
<polygon fill="white" stroke="none" points="-4,4 -4,-114.22 212.15,-114.22 212.15,4 -4,4"/>
<!-- s3 -->
<g id="node1" class="node">
<title>s3</title>
<ellipse fill="none" stroke="black" cx="185.04" cy="-87.11" rx="19.11" ry="19.11"/>
<ellipse fill="none" stroke="black" cx="185.04" cy="-87.11" rx="23.11" ry="23.11"/>
<text text-anchor="middle" x="185.04" y="-82.06" font-family="Times,serif" font-size="14.00">s3</text>
</g>
<!-- s4 -->
<g id="node2" class="node">
<title>s4</title>
<ellipse fill="none" stroke="black" cx="185.04" cy="-23.11" rx="19.11" ry="19.11"/>
<ellipse fill="none" stroke="black" cx="185.04" cy="-23.11" rx="23.11" ry="23.11"/>
<text text-anchor="middle" x="185.04" y="-18.06" font-family="Times,serif" font-size="14.00">s4</text>
</g>
<!-- s0 -->
<g id="node3" class="node">
<title>s0</title>
<ellipse fill="none" stroke="black" cx="19.11" cy="-53.11" rx="19.11" ry="19.11"/>
<text text-anchor="middle" x="19.11" y="-48.06" font-family="Times,serif" font-size="14.00">s0</text>
</g>
<!-- s1 -->
<g id="node4" class="node">
<title>s1</title>
<ellipse fill="none" stroke="black" cx="100.07" cy="-85.11" rx="19.11" ry="19.11"/>
<text text-anchor="middle" x="100.07" y="-80.06" font-family="Times,serif" font-size="14.00">s1</text>
</g>
<!-- s0&#45;&gt;s1 -->
<g id="edge1" class="edge">
<title>s0&#45;&gt;s1</title>
<path fill="none" stroke="black" d="M37.24,-60.05C47.28,-64.12 60.19,-69.35 71.61,-73.98"/>
<polygon fill="black" stroke="black" points="69.99,-77.1 80.57,-77.61 72.62,-70.61 69.99,-77.1"/>
<text text-anchor="middle" x="59.59" y="-73.27" font-family="Times,serif" font-size="14.00">a</text>
</g>
<!-- s2 -->
<g id="node5" class="node">
<title>s2</title>
<ellipse fill="none" stroke="black" cx="100.07" cy="-25.11" rx="19.11" ry="19.11"/>
<text text-anchor="middle" x="100.07" y="-20.06" font-family="Times,serif" font-size="14.00">s2</text>
</g>
<!-- s0&#45;&gt;s2 -->
<g id="edge2" class="edge">
<title>s0&#45;&gt;s2</title>
<path fill="none" stroke="black" d="M37.27,-45.9C43.23,-43.48 49.98,-40.84 56.22,-38.61 60.84,-36.95 65.79,-35.29 70.61,-33.73"/>
<polygon fill="black" stroke="black" points="71.52,-37.12 80.01,-30.78 69.42,-30.44 71.52,-37.12"/>
<text text-anchor="middle" x="59.59" y="-41.81" font-family="Times,serif" font-size="14.00">b</text>
</g>
<!-- s1&#45;&gt;s3 -->
<g id="edge3" class="edge">
<title>s1&#45;&gt;s3</title>
<path fill="none" stroke="black" d="M119.49,-85.55C128.5,-85.77 139.65,-86.04 150.14,-86.29"/>
<polygon fill="black" stroke="black" points="149.94,-89.79 160.03,-86.53 150.11,-82.79 149.94,-89.79"/>
<text text-anchor="middle" x="140.56" y="-89.31" font-family="Times,serif" font-size="14.00">a</text>
</g>
<!-- s2&#45;&gt;s4 -->
<g id="edge4" class="edge">
<title>s2&#45;&gt;s4</title>
<path fill="none" stroke="black" d="M119.49,-24.66C128.5,-24.45 139.65,-24.18 150.14,-23.92"/>
<polygon fill="black" stroke="black" points="150.11,-27.43 160.03,-23.69 149.94,-20.43 150.11,-27.43"/>
<text text-anchor="middle" x="140.56" y="-27.43" font-family="Times,serif" font-size="14.00">b</text>
</g>
</g>
</svg>
