<?xml version="1.0" encoding="UTF-8" standalone="no"?>
<!DOCTYPE svg PUBLIC "-//W3C//DTD SVG 1.1//EN"
 "http://www.w3.org/Graphics/SVG/1.1/DTD/svg11.dtd">
<!-- Generated by graphviz version 12.2.1 (20241206.2353)
 -->
<!-- Title: finite_state_machine Pages: 1 -->
<svg width="409pt" height="153pt"
 viewBox="0.00 0.00 408.58 152.72" xmlns="http://www.w3.org/2000/svg" xmlns:xlink="http://www.w3.org/1999/xlink">
<g id="graph0" class="graph" transform="scale(1 1) rotate(0) translate(4 148.72)">
<title>finite_state_machine</title>
<polygon fill="white" stroke="none" points="-4,4 -4,-148.72 404.58,-148.72 404.58,4 -4,4"/>
<!-- s0 -->
<g id="node1" class="node">
<title>s0</title>
<ellipse fill="none" stroke="black" cx="23.11" cy="-43.11" rx="19.11" ry="19.11"/>
<ellipse fill="none" stroke="black" cx="23.11" cy="-43.11" rx="23.11" ry="23.11"/>
<text text-anchor="middle" x="23.11" y="-38.06" font-family="Times,serif" font-size="14.00">s0</text>
</g>
<!-- s1 -->
<g id="node2" class="node">
<title>s1</title>
<ellipse fill="none" stroke="black" cx="111.32" cy="-43.11" rx="19.11" ry="19.11"/>
<ellipse fill="none" stroke="black" cx="111.32" cy="-43.11" rx="23.11" ry="23.11"/>
<text text-anchor="middle" x="111.32" y="-38.06" font-family="Times,serif" font-size="14.00">s1</text>
</g>
<!-- s0&#45;&gt;s1 -->
<g id="edge1" class="edge">
<title>s0&#45;&gt;s1</title>
<path fill="none" stroke="black" d="M46.31,-43.11C55.49,-43.11 66.34,-43.11 76.47,-43.11"/>
<polygon fill="black" stroke="black" points="76.38,-46.61 86.38,-43.11 76.38,-39.61 76.38,-46.61"/>
<text text-anchor="middle" x="67.22" y="-46.31" font-family="Times,serif" font-size="14.00">a</text>
</g>
<!-- s2 -->
<g id="node3" class="node">
<title>s2</title>
<ellipse fill="none" stroke="black" cx="199.54" cy="-43.11" rx="19.11" ry="19.11"/>
<ellipse fill="none" stroke="black" cx="199.54" cy="-43.11" rx="23.11" ry="23.11"/>
<text text-anchor="middle" x="199.54" y="-38.06" font-family="Times,serif" font-size="14.00">s2</text>
</g>
<!-- s1&#45;&gt;s2 -->
<g id="edge2" class="edge">
<title>s1&#45;&gt;s2</title>
<path fill="none" stroke="black" d="M134.53,-43.11C143.71,-43.11 154.55,-43.11 164.69,-43.11"/>
<polygon fill="black" stroke="black" points="164.6,-46.61 174.6,-43.11 164.6,-39.61 164.6,-46.61"/>
<text text-anchor="middle" x="155.43" y="-46.31" font-family="Times,serif" font-size="14.00">a</text>
</g>
<!-- s3 -->
<g id="node4" class="node">
<title>s3</title>
<ellipse fill="none" stroke="black" cx="288.5" cy="-87.11" rx="19.11" ry="19.11"/>
<ellipse fill="none" stroke="black" cx="288.5" cy="-87.11" rx="23.11" ry="23.11"/>
<text text-anchor="middle" x="288.5" y="-82.06" font-family="Times,serif" font-size="14.00">s3</text>
</g>
<!-- s2&#45;&gt;s3 -->
<g id="edge3" class="edge">
<title>s2&#45;&gt;s3</title>
<path fill="none" stroke="black" d="M220.71,-53.31C231.57,-58.81 245.2,-65.7 257.3,-71.83"/>
<polygon fill="black" stroke="black" points="255.59,-74.88 266.09,-76.27 258.75,-68.64 255.59,-74.88"/>
<text text-anchor="middle" x="244.02" y="-69.63" font-family="Times,serif" font-size="14.00">a</text>
</g>
<!-- s4 -->
<g id="node5" class="node">
<title>s4</title>
<ellipse fill="none" stroke="black" cx="288.5" cy="-23.11" rx="19.11" ry="19.11"/>
<ellipse fill="none" stroke="black" cx="288.5" cy="-23.11" rx="23.11" ry="23.11"/>
<text text-anchor="middle" x="288.5" y="-18.06" font-family="Times,serif" font-size="14.00">s4</text>
</g>
<!-- s2&#45;&gt;s4 -->
<g id="edge4" class="edge">
<title>s2&#45;&gt;s4</title>
<path fill="none" stroke="black" d="M222.48,-38.06C232.16,-35.83 243.75,-33.17 254.44,-30.71"/>
<polygon fill="black" stroke="black" points="255.13,-34.14 264.09,-28.49 253.56,-27.32 255.13,-34.14"/>
<text text-anchor="middle" x="244.02" y="-36.91" font-family="Times,serif" font-size="14.00">b</text>
</g>
<!-- s3&#45;&gt;s3 -->
<g id="edge5" class="edge">
<title>s3&#45;&gt;s3</title>
<path fill="none" stroke="black" d="M280.33,-109.1C279.44,-119.3 282.16,-128.22 288.5,-128.22 292.27,-128.22 294.76,-125.07 295.97,-120.38"/>
<polygon fill="black" stroke="black" points="299.45,-120.81 296.58,-110.61 292.47,-120.37 299.45,-120.81"/>
<text text-anchor="middle" x="288.5" y="-131.42" font-family="Times,serif" font-size="14.00">a</text>
</g>
<!-- s5 -->
<g id="node6" class="node">
<title>s5</title>
<ellipse fill="none" stroke="black" cx="377.47" cy="-87.11" rx="19.11" ry="19.11"/>
<ellipse fill="none" stroke="black" cx="377.47" cy="-87.11" rx="23.11" ry="23.11"/>
<text text-anchor="middle" x="377.47" y="-82.06" font-family="Times,serif" font-size="14.00">s5</text>
</g>
<!-- s3&#45;&gt;s5 -->
<g id="edge6" class="edge">
<title>s3&#45;&gt;s5</title>
<path fill="none" stroke="black" d="M311.9,-87.11C321.33,-87.11 332.51,-87.11 342.9,-87.11"/>
<polygon fill="black" stroke="black" points="342.63,-90.61 352.63,-87.11 342.63,-83.61 342.63,-90.61"/>
<text text-anchor="middle" x="332.99" y="-90.31" font-family="Times,serif" font-size="14.00">b</text>
</g>
</g>
</svg>
