<?xml version="1.0" encoding="UTF-8" standalone="no"?>
<!DOCTYPE svg PUBLIC "-//W3C//DTD SVG 1.1//EN"
 "http://www.w3.org/Graphics/SVG/1.1/DTD/svg11.dtd">
<!-- Generated by graphviz version 2.38.0 (20140413.2041)
 -->
<!-- Title: finite_state_machine Pages: 1 -->
<svg width="603pt" height="298pt"
 viewBox="0.00 0.00 602.64 298.00" xmlns="http://www.w3.org/2000/svg" xmlns:xlink="http://www.w3.org/1999/xlink">
<g id="graph0" class="graph" transform="scale(1 1) rotate(0) translate(4 294)">
<title>finite_state_machine</title>
<polygon fill="white" stroke="none" points="-4,4 -4,-294 598.642,-294 598.642,4 -4,4"/>
<!-- s8 -->
<g id="node1" class="node"><title>s8</title>
<ellipse fill="none" stroke="black" cx="258.214" cy="-171" rx="18" ry="18"/>
<ellipse fill="none" stroke="black" cx="258.214" cy="-171" rx="22" ry="22"/>
<text text-anchor="middle" x="258.214" y="-166.8" font-family="Times,serif" font-size="14.00">s8</text>
</g>
<!-- s0 -->
<g id="node2" class="node"><title>s0</title>
<ellipse fill="none" stroke="black" cx="18" cy="-38" rx="18" ry="18"/>
<text text-anchor="middle" x="18" y="-33.8" font-family="Times,serif" font-size="14.00">s0</text>
</g>
<!-- s1 -->
<g id="node3" class="node"><title>s1</title>
<ellipse fill="none" stroke="black" cx="96.2139" cy="-152" rx="18" ry="18"/>
<text text-anchor="middle" x="96.2139" y="-147.8" font-family="Times,serif" font-size="14.00">s1</text>
</g>
<!-- s0&#45;&gt;s1 -->
<g id="edge1" class="edge"><title>s0&#45;&gt;s1</title>
<path fill="none" stroke="black" d="M28.9636,-52.9035C41.9295,-72.2978 64.7168,-106.383 79.8897,-129.078"/>
<polygon fill="black" stroke="black" points="77.0213,-131.085 85.4888,-137.453 82.8406,-127.195 77.0213,-131.085"/>
<text text-anchor="middle" x="57.1069" y="-100.8" font-family="Times,serif" font-size="14.00">a</text>
</g>
<!-- s2 -->
<g id="node4" class="node"><title>s2</title>
<ellipse fill="none" stroke="black" cx="497.642" cy="-126" rx="18" ry="18"/>
<text text-anchor="middle" x="497.642" y="-121.8" font-family="Times,serif" font-size="14.00">s2</text>
</g>
<!-- s0&#45;&gt;s2 -->
<g id="edge2" class="edge"><title>s0&#45;&gt;s2</title>
<path fill="none" stroke="black" d="M32.3251,-26.5987C46.806,-15.4056 71.1142,-0 95.2139,-0 95.2139,-0 95.2139,-0 419.642,-0 465.258,-0 484.661,-60.8718 492.253,-97.9962"/>
<polygon fill="black" stroke="black" points="488.886,-99.0313 494.17,-108.215 495.766,-97.7406 488.886,-99.0313"/>
<text text-anchor="middle" x="258.214" y="-2.8" font-family="Times,serif" font-size="14.00">b</text>
</g>
<!-- s3 -->
<g id="node5" class="node"><title>s3</title>
<ellipse fill="none" stroke="black" cx="258.214" cy="-97" rx="18" ry="18"/>
<text text-anchor="middle" x="258.214" y="-92.8" font-family="Times,serif" font-size="14.00">s3</text>
</g>
<!-- s0&#45;&gt;s3 -->
<g id="edge3" class="edge"><title>s0&#45;&gt;s3</title>
<path fill="none" stroke="black" d="M36.1065,-39.8882C67.6594,-43.6455 136.939,-53.1798 193.214,-70 206.574,-73.9931 220.921,-79.8871 232.639,-85.1502"/>
<polygon fill="black" stroke="black" points="231.237,-88.358 241.783,-89.3673 234.168,-82.0013 231.237,-88.358"/>
<text text-anchor="middle" x="135.714" y="-58.8" font-family="Times,serif" font-size="14.00">c</text>
</g>
<!-- s4 -->
<g id="node6" class="node"><title>s4</title>
<ellipse fill="none" stroke="black" cx="175.214" cy="-97" rx="18" ry="18"/>
<text text-anchor="middle" x="175.214" y="-92.8" font-family="Times,serif" font-size="14.00">s4</text>
</g>
<!-- s1&#45;&gt;s4 -->
<g id="edge4" class="edge"><title>s1&#45;&gt;s4</title>
<path fill="none" stroke="black" d="M103.05,-135.326C108.466,-122.63 117.879,-106.014 132.214,-98 136.674,-95.5064 141.839,-94.3028 146.989,-93.8699"/>
<polygon fill="black" stroke="black" points="147.298,-97.3706 157.307,-93.8973 147.316,-90.3706 147.298,-97.3706"/>
<text text-anchor="middle" x="135.714" y="-100.8" font-family="Times,serif" font-size="14.00">a</text>
</g>
<!-- s5 -->
<g id="node7" class="node"><title>s5</title>
<ellipse fill="none" stroke="black" cx="175.214" cy="-171" rx="18" ry="18"/>
<text text-anchor="middle" x="175.214" y="-166.8" font-family="Times,serif" font-size="14.00">s5</text>
</g>
<!-- s1&#45;&gt;s5 -->
<g id="edge5" class="edge"><title>s1&#45;&gt;s5</title>
<path fill="none" stroke="black" d="M113.922,-156.123C123.81,-158.563 136.558,-161.708 147.784,-164.478"/>
<polygon fill="black" stroke="black" points="146.991,-167.888 157.539,-166.885 148.668,-161.091 146.991,-167.888"/>
<text text-anchor="middle" x="135.714" y="-164.8" font-family="Times,serif" font-size="14.00">b</text>
</g>
<!-- s6 -->
<g id="node8" class="node"><title>s6</title>
<ellipse fill="none" stroke="black" cx="576.642" cy="-177" rx="18" ry="18"/>
<text text-anchor="middle" x="576.642" y="-172.8" font-family="Times,serif" font-size="14.00">s6</text>
</g>
<!-- s2&#45;&gt;s6 -->
<g id="edge6" class="edge"><title>s2&#45;&gt;s6</title>
<path fill="none" stroke="black" d="M515.484,-123.015C523.539,-122.405 533.056,-122.935 540.642,-127 550.692,-132.386 558.477,-142.078 564.126,-151.505"/>
<polygon fill="black" stroke="black" points="561.054,-153.183 568.891,-160.313 567.211,-149.852 561.054,-153.183"/>
<text text-anchor="middle" x="537.142" y="-129.8" font-family="Times,serif" font-size="14.00">b</text>
</g>
<!-- s7 -->
<g id="node9" class="node"><title>s7</title>
<ellipse fill="none" stroke="black" cx="340.428" cy="-146" rx="18" ry="18"/>
<text text-anchor="middle" x="340.428" y="-141.8" font-family="Times,serif" font-size="14.00">s7</text>
</g>
<!-- s3&#45;&gt;s7 -->
<g id="edge7" class="edge"><title>s3&#45;&gt;s7</title>
<path fill="none" stroke="black" d="M273.926,-105.987C285.612,-113.126 302.184,-123.249 315.735,-131.527"/>
<polygon fill="black" stroke="black" points="314.179,-134.677 324.537,-136.904 317.828,-128.704 314.179,-134.677"/>
<text text-anchor="middle" x="301.321" y="-126.8" font-family="Times,serif" font-size="14.00">c</text>
</g>
<!-- s4&#45;&gt;s1 -->
<g id="edge8" class="edge"><title>s4&#45;&gt;s1</title>
<path fill="none" stroke="black" d="M160.18,-107.024C148.917,-115.069 132.884,-126.521 119.816,-135.856"/>
<polygon fill="black" stroke="black" points="117.44,-133.252 111.337,-141.912 121.509,-138.948 117.44,-133.252"/>
<text text-anchor="middle" x="135.714" y="-128.8" font-family="Times,serif" font-size="14.00">a</text>
</g>
<!-- s4&#45;&gt;s2 -->
<g id="edge9" class="edge"><title>s4&#45;&gt;s2</title>
<path fill="none" stroke="black" d="M191.383,-88.0002C203.157,-81.5634 220.131,-73.4519 236.214,-70 255.334,-65.8962 260.698,-68.7574 280.214,-70 315.188,-72.2267 324.215,-72.4114 358.428,-80 394.056,-87.9025 402.035,-93.4154 436.642,-105 447.903,-108.77 460.299,-113.081 470.885,-116.812"/>
<polygon fill="black" stroke="black" points="469.79,-120.137 480.385,-120.175 472.126,-113.539 469.79,-120.137"/>
<text text-anchor="middle" x="340.428" y="-82.8" font-family="Times,serif" font-size="14.00">b</text>
</g>
<!-- s4&#45;&gt;s3 -->
<g id="edge10" class="edge"><title>s4&#45;&gt;s3</title>
<path fill="none" stroke="black" d="M193.392,-97C204.024,-97 217.908,-97 230.01,-97"/>
<polygon fill="black" stroke="black" points="230.061,-100.5 240.061,-97 230.061,-93.5001 230.061,-100.5"/>
<text text-anchor="middle" x="214.714" y="-99.8" font-family="Times,serif" font-size="14.00">c</text>
</g>
<!-- s5&#45;&gt;s8 -->
<g id="edge11" class="edge"><title>s5&#45;&gt;s8</title>
<path fill="none" stroke="black" d="M193.392,-171C202.823,-171 214.815,-171 225.851,-171"/>
<polygon fill="black" stroke="black" points="226.025,-174.5 236.025,-171 226.025,-167.5 226.025,-174.5"/>
<text text-anchor="middle" x="214.714" y="-173.8" font-family="Times,serif" font-size="14.00">b</text>
</g>
<!-- s6&#45;&gt;s1 -->
<g id="edge12" class="edge"><title>s6&#45;&gt;s1</title>
<path fill="none" stroke="black" d="M570.894,-194.244C561.915,-222.609 539.577,-276 498.642,-276 174.214,-276 174.214,-276 174.214,-276 129.239,-276 109.615,-216.4 101.809,-179.84"/>
<polygon fill="black" stroke="black" points="105.192,-178.904 99.8292,-169.766 98.323,-180.253 105.192,-178.904"/>
<text text-anchor="middle" x="340.428" y="-278.8" font-family="Times,serif" font-size="14.00">a</text>
</g>
<!-- s6&#45;&gt;s2 -->
<g id="edge13" class="edge"><title>s6&#45;&gt;s2</title>
<path fill="none" stroke="black" d="M561.223,-167.45C550.056,-160.054 534.371,-149.665 521.498,-141.138"/>
<polygon fill="black" stroke="black" points="523.395,-138.197 513.125,-135.593 519.529,-144.033 523.395,-138.197"/>
<text text-anchor="middle" x="537.142" y="-155.8" font-family="Times,serif" font-size="14.00">b</text>
</g>
<!-- s6&#45;&gt;s3 -->
<g id="edge14" class="edge"><title>s6&#45;&gt;s3</title>
<path fill="none" stroke="black" d="M559.299,-182.078C543.833,-186.43 519.888,-192 498.642,-192 339.428,-192 339.428,-192 339.428,-192 320.826,-192 290.915,-148.942 273.353,-120.802"/>
<polygon fill="black" stroke="black" points="276.327,-118.957 268.115,-112.263 270.36,-122.618 276.327,-118.957"/>
<text text-anchor="middle" x="418.642" y="-194.8" font-family="Times,serif" font-size="14.00">c</text>
</g>
<!-- s9 -->
<g id="node10" class="node"><title>s9</title>
<ellipse fill="none" stroke="black" cx="418.642" cy="-132" rx="18" ry="18"/>
<text text-anchor="middle" x="418.642" y="-127.8" font-family="Times,serif" font-size="14.00">s9</text>
</g>
<!-- s7&#45;&gt;s9 -->
<g id="edge15" class="edge"><title>s7&#45;&gt;s9</title>
<path fill="none" stroke="black" d="M358.342,-142.893C367.913,-141.135 380.1,-138.896 390.933,-136.906"/>
<polygon fill="black" stroke="black" points="391.571,-140.348 400.775,-135.098 390.307,-133.463 391.571,-140.348"/>
<text text-anchor="middle" x="379.535" y="-141.8" font-family="Times,serif" font-size="14.00">c</text>
</g>
<!-- s9&#45;&gt;s1 -->
<g id="edge16" class="edge"><title>s9&#45;&gt;s1</title>
<path fill="none" stroke="black" d="M409.377,-147.745C394.305,-175.448 362.011,-230 341.428,-230 174.214,-230 174.214,-230 174.214,-230 143.943,-230 121.56,-199.88 108.95,-177.074"/>
<polygon fill="black" stroke="black" points="112.029,-175.408 104.3,-168.162 105.823,-178.646 112.029,-175.408"/>
<text text-anchor="middle" x="258.214" y="-232.8" font-family="Times,serif" font-size="14.00">a</text>
</g>
<!-- s9&#45;&gt;s2 -->
<g id="edge17" class="edge"><title>s9&#45;&gt;s2</title>
<path fill="none" stroke="black" d="M436.73,-130.668C446.301,-129.923 458.459,-128.975 469.318,-128.129"/>
<polygon fill="black" stroke="black" points="469.903,-131.594 479.601,-127.328 469.359,-124.615 469.903,-131.594"/>
<text text-anchor="middle" x="458.142" y="-131.8" font-family="Times,serif" font-size="14.00">b</text>
</g>
<!-- s9&#45;&gt;s3 -->
<g id="edge18" class="edge"><title>s9&#45;&gt;s3</title>
<path fill="none" stroke="black" d="M402.599,-123.367C390.942,-117.122 374.175,-109.09 358.428,-105 334.61,-98.8132 306.589,-97.034 286.413,-96.6732"/>
<polygon fill="black" stroke="black" points="286.389,-93.173 276.364,-96.5987 286.337,-100.173 286.389,-93.173"/>
<text text-anchor="middle" x="340.428" y="-107.8" font-family="Times,serif" font-size="14.00">c</text>
</g>
</g>
</svg>
