<?xml version="1.0" encoding="UTF-8" standalone="no"?>
<!DOCTYPE svg PUBLIC "-//W3C//DTD SVG 1.1//EN"
 "http://www.w3.org/Graphics/SVG/1.1/DTD/svg11.dtd">
<!-- Generated by graphviz version 2.38.0 (20140413.2041)
 -->
<!-- Title: finite_state_machine Pages: 1 -->
<svg width="296pt" height="122pt"
 viewBox="0.00 0.00 295.56 122.00" xmlns="http://www.w3.org/2000/svg" xmlns:xlink="http://www.w3.org/1999/xlink">
<g id="graph0" class="graph" transform="scale(1 1) rotate(0) translate(4 118)">
<title>finite_state_machine</title>
<polygon fill="white" stroke="none" points="-4,4 -4,-118 291.558,-118 291.558,4 -4,4"/>
<!-- s0 -->
<g id="node1" class="node"><title>s0</title>
<ellipse fill="none" stroke="black" cx="22" cy="-53" rx="18" ry="18"/>
<ellipse fill="none" stroke="black" cx="22" cy="-53" rx="22" ry="22"/>
<text text-anchor="middle" x="22" y="-48.8" font-family="Times,serif" font-size="14.00">s0</text>
</g>
<!-- s0&#45;&gt;s0 -->
<g id="edge2" class="edge"><title>s0&#45;&gt;s0</title>
<path fill="none" stroke="black" d="M14.3173,-73.9908C13.3688,-84.0872 15.9297,-93 22,-93 25.8888,-93 28.3373,-89.3422 29.3456,-84.0587"/>
<polygon fill="black" stroke="black" points="32.846,-84.1023 29.6827,-73.9908 25.8499,-83.868 32.846,-84.1023"/>
<text text-anchor="middle" x="22" y="-102.8" font-family="Times,serif" font-size="14.00">◉</text>
</g>
<!-- s1 -->
<g id="node4" class="node"><title>s1</title>
<ellipse fill="none" stroke="black" cx="102.662" cy="-53" rx="18" ry="18"/>
<text text-anchor="middle" x="102.662" y="-48.8" font-family="Times,serif" font-size="14.00">s1</text>
</g>
<!-- s0&#45;&gt;s1 -->
<g id="edge1" class="edge"><title>s0&#45;&gt;s1</title>
<path fill="none" stroke="black" d="M44.08,-53C53.371,-53 64.4078,-53 74.321,-53"/>
<polygon fill="black" stroke="black" points="74.5012,-56.5001 84.5011,-53 74.5011,-49.5001 74.5012,-56.5001"/>
<text text-anchor="middle" x="64.3311" y="-55.8" font-family="Times,serif" font-size="14.00">&#45;</text>
</g>
<!-- s3 -->
<g id="node2" class="node"><title>s3</title>
<ellipse fill="none" stroke="black" cx="265.558" cy="-84" rx="18" ry="18"/>
<ellipse fill="none" stroke="black" cx="265.558" cy="-84" rx="22" ry="22"/>
<text text-anchor="middle" x="265.558" y="-79.8" font-family="Times,serif" font-size="14.00">s3</text>
</g>
<!-- s4 -->
<g id="node3" class="node"><title>s4</title>
<ellipse fill="none" stroke="black" cx="265.558" cy="-22" rx="18" ry="18"/>
<ellipse fill="none" stroke="black" cx="265.558" cy="-22" rx="22" ry="22"/>
<text text-anchor="middle" x="265.558" y="-17.8" font-family="Times,serif" font-size="14.00">s4</text>
</g>
<!-- s2 -->
<g id="node5" class="node"><title>s2</title>
<ellipse fill="none" stroke="black" cx="182.558" cy="-53" rx="18" ry="18"/>
<text text-anchor="middle" x="182.558" y="-48.8" font-family="Times,serif" font-size="14.00">s2</text>
</g>
<!-- s1&#45;&gt;s2 -->
<g id="edge3" class="edge"><title>s1&#45;&gt;s2</title>
<path fill="none" stroke="black" d="M120.95,-53C130.732,-53 143.187,-53 154.259,-53"/>
<polygon fill="black" stroke="black" points="154.318,-56.5001 164.318,-53 154.318,-49.5001 154.318,-56.5001"/>
<text text-anchor="middle" x="142.61" y="-55.8" font-family="Times,serif" font-size="14.00">=</text>
</g>
<!-- s2&#45;&gt;s3 -->
<g id="edge4" class="edge"><title>s2&#45;&gt;s3</title>
<path fill="none" stroke="black" d="M199.561,-59.1246C209.718,-63.0121 223.169,-68.1598 235.198,-72.7635"/>
<polygon fill="black" stroke="black" points="234.274,-76.1574 244.864,-76.463 236.776,-69.6198 234.274,-76.1574"/>
<text text-anchor="middle" x="222.058" y="-70.8" font-family="Times,serif" font-size="14.00">#</text>
</g>
<!-- s2&#45;&gt;s4 -->
<g id="edge5" class="edge"><title>s2&#45;&gt;s4</title>
<path fill="none" stroke="black" d="M199.561,-46.8754C209.718,-42.9879 223.169,-37.8402 235.198,-33.2365"/>
<polygon fill="black" stroke="black" points="236.776,-36.3802 244.864,-29.537 234.274,-29.8426 236.776,-36.3802"/>
<text text-anchor="middle" x="222.058" y="-41.8" font-family="Times,serif" font-size="14.00">&#45;</text>
</g>
</g>
</svg>
