<?xml version="1.0" encoding="UTF-8" standalone="no"?>
<!DOCTYPE svg PUBLIC "-//W3C//DTD SVG 1.1//EN"
 "http://www.w3.org/Graphics/SVG/1.1/DTD/svg11.dtd">
<!-- Generated by graphviz version 2.38.0 (20140413.2041)
 -->
<!-- Title: finite_state_machine Pages: 1 -->
<svg width="303pt" height="52pt"
 viewBox="0.00 0.00 302.64 52.00" xmlns="http://www.w3.org/2000/svg" xmlns:xlink="http://www.w3.org/1999/xlink">
<g id="graph0" class="graph" transform="scale(1 1) rotate(0) translate(4 48)">
<title>finite_state_machine</title>
<polygon fill="white" stroke="none" points="-4,4 -4,-48 298.642,-48 298.642,4 -4,4"/>
<!-- s1 -->
<g id="node1" class="node"><title>s1</title>
<ellipse fill="none" stroke="black" cx="100.214" cy="-22" rx="18" ry="18"/>
<ellipse fill="none" stroke="black" cx="100.214" cy="-22" rx="22" ry="22"/>
<text text-anchor="middle" x="100.214" y="-17.8" font-family="Times,serif" font-size="14.00">s1</text>
</g>
<!-- s2 -->
<g id="node2" class="node"><title>s2</title>
<ellipse fill="none" stroke="black" cx="186.428" cy="-22" rx="18" ry="18"/>
<ellipse fill="none" stroke="black" cx="186.428" cy="-22" rx="22" ry="22"/>
<text text-anchor="middle" x="186.428" y="-17.8" font-family="Times,serif" font-size="14.00">s2</text>
</g>
<!-- s1&#45;&gt;s2 -->
<g id="edge2" class="edge"><title>s1&#45;&gt;s2</title>
<path fill="none" stroke="black" d="M122.465,-22C132.039,-22 143.539,-22 154.075,-22"/>
<polygon fill="black" stroke="black" points="154.184,-25.5001 164.184,-22 154.184,-18.5001 154.184,-25.5001"/>
<text text-anchor="middle" x="143.321" y="-24.8" font-family="Times,serif" font-size="14.00">a</text>
</g>
<!-- s3 -->
<g id="node3" class="node"><title>s3</title>
<ellipse fill="none" stroke="black" cx="272.642" cy="-22" rx="18" ry="18"/>
<ellipse fill="none" stroke="black" cx="272.642" cy="-22" rx="22" ry="22"/>
<text text-anchor="middle" x="272.642" y="-17.8" font-family="Times,serif" font-size="14.00">s3</text>
</g>
<!-- s2&#45;&gt;s3 -->
<g id="edge3" class="edge"><title>s2&#45;&gt;s3</title>
<path fill="none" stroke="black" d="M208.678,-22C218.253,-22 229.753,-22 240.289,-22"/>
<polygon fill="black" stroke="black" points="240.398,-25.5001 250.398,-22 240.398,-18.5001 240.398,-25.5001"/>
<text text-anchor="middle" x="229.535" y="-24.8" font-family="Times,serif" font-size="14.00">a</text>
</g>
<!-- s0 -->
<g id="node4" class="node"><title>s0</title>
<ellipse fill="none" stroke="black" cx="18" cy="-22" rx="18" ry="18"/>
<text text-anchor="middle" x="18" y="-17.8" font-family="Times,serif" font-size="14.00">s0</text>
</g>
<!-- s0&#45;&gt;s1 -->
<g id="edge1" class="edge"><title>s0&#45;&gt;s1</title>
<path fill="none" stroke="black" d="M36.0113,-22C45.2816,-22 57.049,-22 67.9104,-22"/>
<polygon fill="black" stroke="black" points="67.9352,-25.5001 77.9352,-22 67.9352,-18.5001 67.9352,-25.5001"/>
<text text-anchor="middle" x="57.1069" y="-24.8" font-family="Times,serif" font-size="14.00">a</text>
</g>
</g>
</svg>
