<?xml version="1.0" encoding="UTF-8" standalone="no"?>
<!DOCTYPE svg PUBLIC "-//W3C//DTD SVG 1.1//EN"
 "http://www.w3.org/Graphics/SVG/1.1/DTD/svg11.dtd">
<!-- Generated by graphviz version 2.38.0 (20140413.2041)
 -->
<!-- Title: finite_state_machine Pages: 1 -->
<svg width="383pt" height="149pt"
 viewBox="0.00 0.00 383.21 149.00" xmlns="http://www.w3.org/2000/svg" xmlns:xlink="http://www.w3.org/1999/xlink">
<g id="graph0" class="graph" transform="scale(1 1) rotate(0) translate(4 145)">
<title>finite_state_machine</title>
<polygon fill="white" stroke="none" points="-4,4 -4,-145 379.214,-145 379.214,4 -4,4"/>
<!-- s3 -->
<g id="node1" class="node"><title>s3</title>
<ellipse fill="none" stroke="black" cx="179.214" cy="-119" rx="18" ry="18"/>
<ellipse fill="none" stroke="black" cx="179.214" cy="-119" rx="22" ry="22"/>
<text text-anchor="middle" x="179.214" y="-114.8" font-family="Times,serif" font-size="14.00">s3</text>
</g>
<!-- s5 -->
<g id="node2" class="node"><title>s5</title>
<ellipse fill="none" stroke="black" cx="266.214" cy="-80" rx="18" ry="18"/>
<ellipse fill="none" stroke="black" cx="266.214" cy="-80" rx="22" ry="22"/>
<text text-anchor="middle" x="266.214" y="-75.8" font-family="Times,serif" font-size="14.00">s5</text>
</g>
<!-- s6 -->
<g id="node3" class="node"><title>s6</title>
<ellipse fill="none" stroke="black" cx="353.214" cy="-22" rx="18" ry="18"/>
<ellipse fill="none" stroke="black" cx="353.214" cy="-22" rx="22" ry="22"/>
<text text-anchor="middle" x="353.214" y="-17.8" font-family="Times,serif" font-size="14.00">s6</text>
</g>
<!-- s0 -->
<g id="node4" class="node"><title>s0</title>
<ellipse fill="none" stroke="black" cx="18" cy="-100" rx="18" ry="18"/>
<text text-anchor="middle" x="18" y="-95.8" font-family="Times,serif" font-size="14.00">s0</text>
</g>
<!-- s1 -->
<g id="node5" class="node"><title>s1</title>
<ellipse fill="none" stroke="black" cx="96.2139" cy="-100" rx="18" ry="18"/>
<text text-anchor="middle" x="96.2139" y="-95.8" font-family="Times,serif" font-size="14.00">s1</text>
</g>
<!-- s0&#45;&gt;s1 -->
<g id="edge1" class="edge"><title>s0&#45;&gt;s1</title>
<path fill="none" stroke="black" d="M36.2941,-100C45.6488,-100 57.4172,-100 67.9721,-100"/>
<polygon fill="black" stroke="black" points="67.9882,-103.5 77.9882,-100 67.9882,-96.5001 67.9882,-103.5"/>
<text text-anchor="middle" x="57.1069" y="-102.8" font-family="Times,serif" font-size="14.00">a</text>
</g>
<!-- s1&#45;&gt;s3 -->
<g id="edge3" class="edge"><title>s1&#45;&gt;s3</title>
<path fill="none" stroke="black" d="M113.997,-103.937C123.718,-106.217 136.254,-109.157 147.666,-111.834"/>
<polygon fill="black" stroke="black" points="147.182,-115.316 157.717,-114.192 148.78,-108.501 147.182,-115.316"/>
<text text-anchor="middle" x="135.714" y="-111.8" font-family="Times,serif" font-size="14.00">b</text>
</g>
<!-- s2 -->
<g id="node6" class="node"><title>s2</title>
<ellipse fill="none" stroke="black" cx="179.214" cy="-61" rx="18" ry="18"/>
<text text-anchor="middle" x="179.214" y="-56.8" font-family="Times,serif" font-size="14.00">s2</text>
</g>
<!-- s1&#45;&gt;s2 -->
<g id="edge2" class="edge"><title>s1&#45;&gt;s2</title>
<path fill="none" stroke="black" d="M112.831,-92.4804C124.373,-86.9232 140.317,-79.2466 153.571,-72.8653"/>
<polygon fill="black" stroke="black" points="155.153,-75.9882 162.644,-68.4965 152.116,-69.6812 155.153,-75.9882"/>
<text text-anchor="middle" x="135.714" y="-85.8" font-family="Times,serif" font-size="14.00">a</text>
</g>
<!-- s2&#45;&gt;s5 -->
<g id="edge5" class="edge"><title>s2&#45;&gt;s5</title>
<path fill="none" stroke="black" d="M197.007,-64.7538C207.773,-67.1603 222.064,-70.3547 234.782,-73.1977"/>
<polygon fill="black" stroke="black" points="234.025,-76.6147 244.548,-75.3805 235.552,-69.7833 234.025,-76.6147"/>
<text text-anchor="middle" x="222.714" y="-74.8" font-family="Times,serif" font-size="14.00">b</text>
</g>
<!-- s4 -->
<g id="node7" class="node"><title>s4</title>
<ellipse fill="none" stroke="black" cx="266.214" cy="-22" rx="18" ry="18"/>
<text text-anchor="middle" x="266.214" y="-17.8" font-family="Times,serif" font-size="14.00">s4</text>
</g>
<!-- s2&#45;&gt;s4 -->
<g id="edge4" class="edge"><title>s2&#45;&gt;s4</title>
<path fill="none" stroke="black" d="M195.804,-53.8468C208.187,-48.1651 225.748,-40.1077 240.108,-33.5192"/>
<polygon fill="black" stroke="black" points="241.805,-36.5914 249.435,-29.2399 238.886,-30.2291 241.805,-36.5914"/>
<text text-anchor="middle" x="222.714" y="-45.8" font-family="Times,serif" font-size="14.00">a</text>
</g>
<!-- s4&#45;&gt;s6 -->
<g id="edge6" class="edge"><title>s4&#45;&gt;s6</title>
<path fill="none" stroke="black" d="M284.415,-22C294.845,-22 308.472,-22 320.771,-22"/>
<polygon fill="black" stroke="black" points="321.124,-25.5001 331.124,-22 321.124,-18.5001 321.124,-25.5001"/>
<text text-anchor="middle" x="309.714" y="-24.8" font-family="Times,serif" font-size="14.00">b</text>
</g>
</g>
</svg>
