<?xml version="1.0" encoding="UTF-8" standalone="no"?>
<!DOCTYPE svg PUBLIC "-//W3C//DTD SVG 1.1//EN"
 "http://www.w3.org/Graphics/SVG/1.1/DTD/svg11.dtd">
<!-- Generated by graphviz version 12.2.1 (20241206.2353)
 -->
<!-- Title: finite_state_machine Pages: 1 -->
<svg width="520pt" height="146pt"
 viewBox="0.00 0.00 520.47 146.22" xmlns="http://www.w3.org/2000/svg" xmlns:xlink="http://www.w3.org/1999/xlink">
<g id="graph0" class="graph" transform="scale(1 1) rotate(0) translate(4 142.22)">
<title>finite_state_machine</title>
<polygon fill="white" stroke="none" points="-4,4 -4,-142.22 516.47,-142.22 516.47,4 -4,4"/>
<!-- s6 -->
<g id="node1" class="node">
<title>s6</title>
<ellipse fill="none" stroke="black" cx="489.36" cy="-65.11" rx="19.11" ry="19.11"/>
<ellipse fill="none" stroke="black" cx="489.36" cy="-65.11" rx="23.11" ry="23.11"/>
<text text-anchor="middle" x="489.36" y="-60.06" font-family="Times,serif" font-size="14.00">s6</text>
</g>
<!-- s0 -->
<g id="node2" class="node">
<title>s0</title>
<ellipse fill="none" stroke="black" cx="19.11" cy="-39.11" rx="19.11" ry="19.11"/>
<text text-anchor="middle" x="19.11" y="-34.06" font-family="Times,serif" font-size="14.00">s0</text>
</g>
<!-- s1 -->
<g id="node3" class="node">
<title>s1</title>
<ellipse fill="none" stroke="black" cx="99.32" cy="-39.11" rx="19.11" ry="19.11"/>
<text text-anchor="middle" x="99.32" y="-34.06" font-family="Times,serif" font-size="14.00">s1</text>
</g>
<!-- s0&#45;&gt;s1 -->
<g id="edge1" class="edge">
<title>s0&#45;&gt;s1</title>
<path fill="none" stroke="black" d="M38.64,-39.11C47.6,-39.11 58.58,-39.11 68.67,-39.11"/>
<polygon fill="black" stroke="black" points="68.41,-42.61 78.41,-39.11 68.41,-35.61 68.41,-42.61"/>
<text text-anchor="middle" x="59.22" y="-42.31" font-family="Times,serif" font-size="14.00">a</text>
</g>
<!-- s2 -->
<g id="node4" class="node">
<title>s2</title>
<ellipse fill="none" stroke="black" cx="180.29" cy="-66.11" rx="19.11" ry="19.11"/>
<text text-anchor="middle" x="180.29" y="-61.06" font-family="Times,serif" font-size="14.00">s2</text>
</g>
<!-- s1&#45;&gt;s2 -->
<g id="edge2" class="edge">
<title>s1&#45;&gt;s2</title>
<path fill="none" stroke="black" d="M117.85,-45.1C127.56,-48.42 139.87,-52.63 150.92,-56.41"/>
<polygon fill="black" stroke="black" points="149.78,-59.72 160.38,-59.64 152.05,-53.1 149.78,-59.72"/>
<text text-anchor="middle" x="139.81" y="-56.62" font-family="Times,serif" font-size="14.00">a</text>
</g>
<!-- s3 -->
<g id="node5" class="node">
<title>s3</title>
<ellipse fill="none" stroke="black" cx="236.5" cy="-19.11" rx="19.11" ry="19.11"/>
<text text-anchor="middle" x="236.5" y="-14.06" font-family="Times,serif" font-size="14.00">s3</text>
</g>
<!-- s1&#45;&gt;s3 -->
<g id="edge3" class="edge">
<title>s1&#45;&gt;s3</title>
<path fill="none" stroke="black" d="M118.27,-35.09C124.05,-33.87 130.49,-32.6 136.43,-31.61 159.65,-27.74 186.12,-24.45 205.85,-22.23"/>
<polygon fill="black" stroke="black" points="206.12,-25.72 215.67,-21.14 205.35,-18.76 206.12,-25.72"/>
<text text-anchor="middle" x="139.81" y="-34.81" font-family="Times,serif" font-size="14.00">b</text>
</g>
<!-- s4 -->
<g id="node6" class="node">
<title>s4</title>
<ellipse fill="none" stroke="black" cx="292.72" cy="-115.11" rx="19.11" ry="19.11"/>
<text text-anchor="middle" x="292.72" y="-110.06" font-family="Times,serif" font-size="14.00">s4</text>
</g>
<!-- s2&#45;&gt;s4 -->
<g id="edge4" class="edge">
<title>s2&#45;&gt;s4</title>
<path fill="none" stroke="black" d="M197.22,-75.54C203.42,-79.05 210.65,-82.94 217.4,-86.11 232.43,-93.17 249.69,-99.98 263.79,-105.22"/>
<polygon fill="black" stroke="black" points="262.31,-108.4 272.9,-108.55 264.71,-101.83 262.31,-108.4"/>
<text text-anchor="middle" x="236.5" y="-105.29" font-family="Times,serif" font-size="14.00">a</text>
</g>
<!-- s5 -->
<g id="node7" class="node">
<title>s5</title>
<ellipse fill="none" stroke="black" cx="348.93" cy="-65.11" rx="19.11" ry="19.11"/>
<text text-anchor="middle" x="348.93" y="-60.06" font-family="Times,serif" font-size="14.00">s5</text>
</g>
<!-- s2&#45;&gt;s5 -->
<g id="edge5" class="edge">
<title>s2&#45;&gt;s5</title>
<path fill="none" stroke="black" d="M199.66,-65.82C205.34,-65.74 211.63,-65.66 217.4,-65.61 251.98,-65.3 291.73,-65.18 318.19,-65.14"/>
<polygon fill="black" stroke="black" points="317.83,-68.64 327.83,-65.12 317.82,-61.64 317.83,-68.64"/>
<text text-anchor="middle" x="236.5" y="-68.81" font-family="Times,serif" font-size="14.00">b</text>
</g>
<!-- s3&#45;&gt;s6 -->
<g id="edge6" class="edge">
<title>s3&#45;&gt;s6</title>
<path fill="none" stroke="black" d="M255.85,-17.36C281.29,-15.39 328.59,-13.31 368.04,-20.61 399.76,-26.47 434.09,-39.94 457.94,-50.54"/>
<polygon fill="black" stroke="black" points="456.18,-53.58 466.73,-54.54 459.08,-47.21 456.18,-53.58"/>
<text text-anchor="middle" x="348.93" y="-23.81" font-family="Times,serif" font-size="14.00">c</text>
</g>
<!-- s7 -->
<g id="node8" class="node">
<title>s7</title>
<ellipse fill="none" stroke="black" cx="405.15" cy="-119.11" rx="19.11" ry="19.11"/>
<text text-anchor="middle" x="405.15" y="-114.06" font-family="Times,serif" font-size="14.00">s7</text>
</g>
<!-- s4&#45;&gt;s7 -->
<g id="edge7" class="edge">
<title>s4&#45;&gt;s7</title>
<path fill="none" stroke="black" d="M311.95,-115.77C328.98,-116.38 354.68,-117.32 374.63,-118.04"/>
<polygon fill="black" stroke="black" points="374.25,-121.53 384.37,-118.39 374.51,-114.53 374.25,-121.53"/>
<text text-anchor="middle" x="348.93" y="-120.9" font-family="Times,serif" font-size="14.00">b</text>
</g>
<!-- s5&#45;&gt;s6 -->
<g id="edge8" class="edge">
<title>s5&#45;&gt;s6</title>
<path fill="none" stroke="black" d="M368.31,-65.11C390.23,-65.11 427.28,-65.11 454.44,-65.11"/>
<polygon fill="black" stroke="black" points="454.25,-68.61 464.25,-65.11 454.25,-61.61 454.25,-68.61"/>
<text text-anchor="middle" x="405.15" y="-68.31" font-family="Times,serif" font-size="14.00">c</text>
</g>
<!-- s7&#45;&gt;s6 -->
<g id="edge9" class="edge">
<title>s7&#45;&gt;s6</title>
<path fill="none" stroke="black" d="M421.61,-108.95C432.44,-101.84 447.21,-92.14 460.1,-83.67"/>
<polygon fill="black" stroke="black" points="461.8,-86.74 468.24,-78.32 457.96,-80.89 461.8,-86.74"/>
<text text-anchor="middle" x="445.26" y="-98.54" font-family="Times,serif" font-size="14.00">c</text>
</g>
</g>
</svg>
