<?xml version="1.0" encoding="UTF-8" standalone="no"?>
<!DOCTYPE svg PUBLIC "-//W3C//DTD SVG 1.1//EN"
 "http://www.w3.org/Graphics/SVG/1.1/DTD/svg11.dtd">
<!-- Generated by graphviz version 2.38.0 (20140413.2041)
 -->
<!-- Title: finite_state_machine Pages: 1 -->
<svg width="289pt" height="171pt"
 viewBox="0.00 0.00 289.00 170.87" xmlns="http://www.w3.org/2000/svg" xmlns:xlink="http://www.w3.org/1999/xlink">
<g id="graph0" class="graph" transform="scale(1 1) rotate(0) translate(4 166.868)">
<title>finite_state_machine</title>
<polygon fill="white" stroke="none" points="-4,4 -4,-166.868 285,-166.868 285,4 -4,4"/>
<!-- s4 -->
<g id="node1" class="node"><title>s4</title>
<ellipse fill="none" stroke="black" cx="22" cy="-133.868" rx="18" ry="18"/>
<ellipse fill="none" stroke="black" cx="22" cy="-133.868" rx="22" ry="22"/>
<text text-anchor="middle" x="22" y="-129.668" font-family="Times,serif" font-size="14.00">s4</text>
</g>
<!-- s1 -->
<g id="node3" class="node"><title>s1</title>
<ellipse fill="none" stroke="black" cx="184" cy="-85.8678" rx="18" ry="18"/>
<text text-anchor="middle" x="184" y="-81.6678" font-family="Times,serif" font-size="14.00">s1</text>
</g>
<!-- s4&#45;&gt;s1 -->
<g id="edge9" class="edge"><title>s4&#45;&gt;s1</title>
<path fill="none" stroke="black" d="M43.4267,-128.818C63.7254,-123.691 95.686,-115.323 123,-106.868 134.345,-103.356 146.754,-99.086 157.328,-95.3158"/>
<polygon fill="black" stroke="black" points="158.59,-98.5813 166.808,-91.8952 156.214,-91.9967 158.59,-98.5813"/>
<text text-anchor="middle" x="105" y="-119.668" font-family="Times,serif" font-size="14.00">a</text>
</g>
<!-- s2 -->
<g id="node4" class="node"><title>s2</title>
<ellipse fill="none" stroke="black" cx="105" cy="-47.8678" rx="18" ry="18"/>
<text text-anchor="middle" x="105" y="-43.6678" font-family="Times,serif" font-size="14.00">s2</text>
</g>
<!-- s4&#45;&gt;s2 -->
<g id="edge10" class="edge"><title>s4&#45;&gt;s2</title>
<path fill="none" stroke="black" d="M37.8566,-118.094C51.1579,-103.972 70.728,-83.1936 85.1317,-67.9008"/>
<polygon fill="black" stroke="black" points="87.824,-70.1472 92.1324,-60.468 82.7283,-65.3478 87.824,-70.1472"/>
<text text-anchor="middle" x="65.5" y="-93.6678" font-family="Times,serif" font-size="14.00">b</text>
</g>
<!-- s0 -->
<g id="node2" class="node"><title>s0</title>
<ellipse fill="none" stroke="black" cx="22" cy="-18.8678" rx="18" ry="18"/>
<text text-anchor="middle" x="22" y="-14.6678" font-family="Times,serif" font-size="14.00">s0</text>
</g>
<!-- s0&#45;&gt;s1 -->
<g id="edge1" class="edge"><title>s0&#45;&gt;s1</title>
<path fill="none" stroke="black" d="M38.8184,-11.8002C59.3429,-3.74765 95.746,6.65629 123,-6.86785 145.334,-17.9504 161.595,-41.7614 171.51,-60.3612"/>
<polygon fill="black" stroke="black" points="168.495,-62.1564 176.115,-69.5177 174.749,-59.0113 168.495,-62.1564"/>
<text text-anchor="middle" x="105" y="-9.66785" font-family="Times,serif" font-size="14.00">a</text>
</g>
<!-- s0&#45;&gt;s2 -->
<g id="edge2" class="edge"><title>s0&#45;&gt;s2</title>
<path fill="none" stroke="black" d="M39.3916,-24.7364C50.5533,-28.7326 65.5562,-34.104 78.295,-38.6648"/>
<polygon fill="black" stroke="black" points="77.3147,-42.0313 87.9092,-42.107 79.6742,-35.441 77.3147,-42.0313"/>
<text text-anchor="middle" x="65.5" y="-37.6678" font-family="Times,serif" font-size="14.00">b</text>
</g>
<!-- s1&#45;&gt;s1 -->
<g id="edge3" class="edge"><title>s1&#45;&gt;s1</title>
<path fill="none" stroke="black" d="M177.266,-102.905C175.892,-112.726 178.137,-121.868 184,-121.868 187.665,-121.868 189.916,-118.297 190.753,-113.221"/>
<polygon fill="black" stroke="black" points="194.252,-112.899 190.734,-102.905 187.252,-112.912 194.252,-112.899"/>
<text text-anchor="middle" x="184" y="-124.668" font-family="Times,serif" font-size="14.00">a</text>
</g>
<!-- s3 -->
<g id="node5" class="node"><title>s3</title>
<ellipse fill="none" stroke="black" cx="263" cy="-122.868" rx="18" ry="18"/>
<text text-anchor="middle" x="263" y="-118.668" font-family="Times,serif" font-size="14.00">s3</text>
</g>
<!-- s1&#45;&gt;s3 -->
<g id="edge4" class="edge"><title>s1&#45;&gt;s3</title>
<path fill="none" stroke="black" d="M200.582,-93.3553C211.123,-98.4206 225.268,-105.218 237.327,-111.012"/>
<polygon fill="black" stroke="black" points="235.912,-114.215 246.441,-115.391 238.944,-107.906 235.912,-114.215"/>
<text text-anchor="middle" x="223.5" y="-107.668" font-family="Times,serif" font-size="14.00">b</text>
</g>
<!-- s2&#45;&gt;s1 -->
<g id="edge5" class="edge"><title>s2&#45;&gt;s1</title>
<path fill="none" stroke="black" d="M121.582,-55.5577C132.123,-60.7599 146.268,-67.7405 158.327,-73.6914"/>
<polygon fill="black" stroke="black" points="156.925,-76.9025 167.441,-78.1894 160.023,-70.6253 156.925,-76.9025"/>
<text text-anchor="middle" x="144.5" y="-70.6678" font-family="Times,serif" font-size="14.00">a</text>
</g>
<!-- s2&#45;&gt;s2 -->
<g id="edge6" class="edge"><title>s2&#45;&gt;s2</title>
<path fill="none" stroke="black" d="M98.2664,-64.9052C96.8922,-74.7258 99.1367,-83.8678 105,-83.8678 108.665,-83.8678 110.916,-80.2967 111.753,-75.2208"/>
<polygon fill="black" stroke="black" points="115.252,-74.8985 111.734,-64.9052 108.252,-74.9117 115.252,-74.8985"/>
<text text-anchor="middle" x="105" y="-86.6678" font-family="Times,serif" font-size="14.00">b</text>
</g>
<!-- s3&#45;&gt;s4 -->
<g id="edge8" class="edge"><title>s3&#45;&gt;s4</title>
<path fill="none" stroke="black" d="M246.38,-130.322C234.512,-135.555 217.621,-142.094 202,-144.868 150.604,-153.993 89.7535,-146.448 53.8761,-140.154"/>
<polygon fill="black" stroke="black" points="54.0497,-136.627 43.5816,-138.261 52.7835,-143.512 54.0497,-136.627"/>
<text text-anchor="middle" x="144.5" y="-151.668" font-family="Times,serif" font-size="14.00">b</text>
</g>
<!-- s3&#45;&gt;s1 -->
<g id="edge7" class="edge"><title>s3&#45;&gt;s1</title>
<path fill="none" stroke="black" d="M252.671,-107.716C246.537,-99.2762 237.678,-89.5502 227,-84.8678 222.399,-82.8505 217.234,-81.9911 212.141,-81.8125"/>
<polygon fill="black" stroke="black" points="211.833,-78.3224 201.992,-82.2493 212.134,-85.3159 211.833,-78.3224"/>
<text text-anchor="middle" x="223.5" y="-87.6678" font-family="Times,serif" font-size="14.00">a</text>
</g>
</g>
</svg>
