<?xml version="1.0" encoding="UTF-8" standalone="no"?>
<!DOCTYPE svg PUBLIC "-//W3C//DTD SVG 1.1//EN"
 "http://www.w3.org/Graphics/SVG/1.1/DTD/svg11.dtd">
<!-- Generated by graphviz version 12.2.1 (20241206.2353)
 -->
<!-- Title: finite_state_machine Pages: 1 -->
<svg width="393pt" height="178pt"
 viewBox="0.00 0.00 392.83 178.22" xmlns="http://www.w3.org/2000/svg" xmlns:xlink="http://www.w3.org/1999/xlink">
<g id="graph0" class="graph" transform="scale(1 1) rotate(0) translate(4 174.22)">
<title>finite_state_machine</title>
<polygon fill="white" stroke="none" points="-4,4 -4,-174.22 388.83,-174.22 388.83,4 -4,4"/>
<!-- s6 -->
<g id="node1" class="node">
<title>s6</title>
<ellipse fill="none" stroke="black" cx="272.75" cy="-87.11" rx="19.11" ry="19.11"/>
<ellipse fill="none" stroke="black" cx="272.75" cy="-87.11" rx="23.11" ry="23.11"/>
<text text-anchor="middle" x="272.75" y="-82.06" font-family="Times,serif" font-size="14.00">s6</text>
</g>
<!-- s7 -->
<g id="node2" class="node">
<title>s7</title>
<ellipse fill="none" stroke="black" cx="272.75" cy="-23.11" rx="19.11" ry="19.11"/>
<ellipse fill="none" stroke="black" cx="272.75" cy="-23.11" rx="23.11" ry="23.11"/>
<text text-anchor="middle" x="272.75" y="-18.06" font-family="Times,serif" font-size="14.00">s7</text>
</g>
<!-- s8 -->
<g id="node3" class="node">
<title>s8</title>
<ellipse fill="none" stroke="black" cx="361.72" cy="-147.11" rx="19.11" ry="19.11"/>
<ellipse fill="none" stroke="black" cx="361.72" cy="-147.11" rx="23.11" ry="23.11"/>
<text text-anchor="middle" x="361.72" y="-142.06" font-family="Times,serif" font-size="14.00">s8</text>
</g>
<!-- s0 -->
<g id="node4" class="node">
<title>s0</title>
<ellipse fill="none" stroke="black" cx="19.11" cy="-87.11" rx="19.11" ry="19.11"/>
<text text-anchor="middle" x="19.11" y="-82.06" font-family="Times,serif" font-size="14.00">s0</text>
</g>
<!-- s1 -->
<g id="node5" class="node">
<title>s1</title>
<ellipse fill="none" stroke="black" cx="99.32" cy="-87.11" rx="19.11" ry="19.11"/>
<text text-anchor="middle" x="99.32" y="-82.06" font-family="Times,serif" font-size="14.00">s1</text>
</g>
<!-- s0&#45;&gt;s1 -->
<g id="edge1" class="edge">
<title>s0&#45;&gt;s1</title>
<path fill="none" stroke="black" d="M38.64,-87.11C47.6,-87.11 58.58,-87.11 68.67,-87.11"/>
<polygon fill="black" stroke="black" points="68.41,-90.61 78.41,-87.11 68.41,-83.61 68.41,-90.61"/>
<text text-anchor="middle" x="59.22" y="-90.31" font-family="Times,serif" font-size="14.00">a</text>
</g>
<!-- s2 -->
<g id="node6" class="node">
<title>s2</title>
<ellipse fill="none" stroke="black" cx="187.79" cy="-145.11" rx="19.11" ry="19.11"/>
<text text-anchor="middle" x="187.79" y="-140.06" font-family="Times,serif" font-size="14.00">s2</text>
</g>
<!-- s1&#45;&gt;s2 -->
<g id="edge2" class="edge">
<title>s1&#45;&gt;s2</title>
<path fill="none" stroke="black" d="M115.78,-97.48C128.69,-106.14 147.33,-118.64 162.27,-128.66"/>
<polygon fill="black" stroke="black" points="159.95,-131.32 170.21,-133.98 163.85,-125.51 159.95,-131.32"/>
<text text-anchor="middle" x="143.56" y="-122.78" font-family="Times,serif" font-size="14.00">a</text>
</g>
<!-- s3 -->
<g id="node7" class="node">
<title>s3</title>
<ellipse fill="none" stroke="black" cx="187.79" cy="-87.11" rx="19.11" ry="19.11"/>
<text text-anchor="middle" x="187.79" y="-82.06" font-family="Times,serif" font-size="14.00">s3</text>
</g>
<!-- s1&#45;&gt;s3 -->
<g id="edge3" class="edge">
<title>s1&#45;&gt;s3</title>
<path fill="none" stroke="black" d="M118.66,-87.11C129.89,-87.11 144.53,-87.11 157.36,-87.11"/>
<polygon fill="black" stroke="black" points="156.96,-90.61 166.96,-87.11 156.96,-83.61 156.96,-90.61"/>
<text text-anchor="middle" x="143.56" y="-90.31" font-family="Times,serif" font-size="14.00">Î»</text>
</g>
<!-- s4 -->
<g id="node8" class="node">
<title>s4</title>
<ellipse fill="none" stroke="black" cx="187.79" cy="-27.11" rx="19.11" ry="19.11"/>
<text text-anchor="middle" x="187.79" y="-22.06" font-family="Times,serif" font-size="14.00">s4</text>
</g>
<!-- s1&#45;&gt;s4 -->
<g id="edge4" class="edge">
<title>s1&#45;&gt;s4</title>
<path fill="none" stroke="black" d="M115.38,-76.66C128.32,-67.68 147.22,-54.56 162.33,-44.08"/>
<polygon fill="black" stroke="black" points="164.15,-47.08 170.37,-38.5 160.15,-41.33 164.15,-47.08"/>
<text text-anchor="middle" x="143.56" y="-63.9" font-family="Times,serif" font-size="14.00">Ğ¨</text>
</g>
<!-- s5 -->
<g id="node9" class="node">
<title>s5</title>
<ellipse fill="none" stroke="black" cx="272.75" cy="-147.11" rx="19.11" ry="19.11"/>
<text text-anchor="middle" x="272.75" y="-142.06" font-family="Times,serif" font-size="14.00">s5</text>
</g>
<!-- s2&#45;&gt;s5 -->
<g id="edge5" class="edge">
<title>s2&#45;&gt;s5</title>
<path fill="none" stroke="black" d="M207.2,-145.55C217.4,-145.8 230.34,-146.11 241.95,-146.39"/>
<polygon fill="black" stroke="black" points="241.8,-149.89 251.88,-146.63 241.97,-142.89 241.8,-149.89"/>
<text text-anchor="middle" x="228.27" y="-149.31" font-family="Times,serif" font-size="14.00">a</text>
</g>
<!-- s3&#45;&gt;s6 -->
<g id="edge6" class="edge">
<title>s3&#45;&gt;s6</title>
<path fill="none" stroke="black" d="M207.2,-87.11C216.22,-87.11 227.37,-87.11 237.85,-87.11"/>
<polygon fill="black" stroke="black" points="237.74,-90.61 247.74,-87.11 237.74,-83.61 237.74,-90.61"/>
<text text-anchor="middle" x="228.27" y="-90.31" font-family="Times,serif" font-size="14.00">b</text>
</g>
<!-- s4&#45;&gt;s7 -->
<g id="edge7" class="edge">
<title>s4&#45;&gt;s7</title>
<path fill="none" stroke="black" d="M207.2,-26.22C216.22,-25.78 227.37,-25.25 237.85,-24.74"/>
<polygon fill="black" stroke="black" points="237.92,-28.24 247.74,-24.27 237.58,-21.25 237.92,-28.24"/>
<text text-anchor="middle" x="228.27" y="-28.55" font-family="Times,serif" font-size="14.00">b</text>
</g>
<!-- s5&#45;&gt;s8 -->
<g id="edge8" class="edge">
<title>s5&#45;&gt;s8</title>
<path fill="none" stroke="black" d="M292.2,-147.11C302.29,-147.11 315.12,-147.11 326.94,-147.11"/>
<polygon fill="black" stroke="black" points="326.77,-150.61 336.77,-147.11 326.77,-143.61 326.77,-150.61"/>
<text text-anchor="middle" x="317.24" y="-150.31" font-family="Times,serif" font-size="14.00">b</text>
</g>
</g>
</svg>
