<?xml version="1.0" encoding="UTF-8" standalone="no"?>
<!DOCTYPE svg PUBLIC "-//W3C//DTD SVG 1.1//EN"
 "http://www.w3.org/Graphics/SVG/1.1/DTD/svg11.dtd">
<!-- Generated by graphviz version 12.2.1 (20241206.2353)
 -->
<!-- Title: finite_state_machine Pages: 1 -->
<svg width="468pt" height="326pt"
 viewBox="0.00 0.00 467.50 325.61" xmlns="http://www.w3.org/2000/svg" xmlns:xlink="http://www.w3.org/1999/xlink">
<g id="graph0" class="graph" transform="scale(1 1) rotate(0) translate(4 321.61)">
<title>finite_state_machine</title>
<polygon fill="white" stroke="none" points="-4,4 -4,-321.61 463.5,-321.61 463.5,4 -4,4"/>
<!-- s7 -->
<g id="node1" class="node">
<title>s7</title>
<ellipse fill="none" stroke="black" cx="436.4" cy="-275.11" rx="19.11" ry="19.11"/>
<ellipse fill="none" stroke="black" cx="436.4" cy="-275.11" rx="23.11" ry="23.11"/>
<text text-anchor="middle" x="436.4" y="-270.06" font-family="Times,serif" font-size="14.00">s7</text>
</g>
<!-- s0 -->
<g id="node2" class="node">
<title>s0</title>
<ellipse fill="none" stroke="black" cx="19.11" cy="-74.11" rx="19.11" ry="19.11"/>
<text text-anchor="middle" x="19.11" y="-69.06" font-family="Times,serif" font-size="14.00">s0</text>
</g>
<!-- s1 -->
<g id="node3" class="node">
<title>s1</title>
<ellipse fill="none" stroke="black" cx="99.32" cy="-74.11" rx="19.11" ry="19.11"/>
<text text-anchor="middle" x="99.32" y="-69.06" font-family="Times,serif" font-size="14.00">s1</text>
</g>
<!-- s0&#45;&gt;s1 -->
<g id="edge1" class="edge">
<title>s0&#45;&gt;s1</title>
<path fill="none" stroke="black" d="M38.64,-74.11C47.6,-74.11 58.58,-74.11 68.67,-74.11"/>
<polygon fill="black" stroke="black" points="68.41,-77.61 78.41,-74.11 68.41,-70.61 68.41,-77.61"/>
<text text-anchor="middle" x="59.22" y="-77.31" font-family="Times,serif" font-size="14.00">a</text>
</g>
<!-- s2 -->
<g id="node4" class="node">
<title>s2</title>
<ellipse fill="none" stroke="black" cx="180.29" cy="-19.11" rx="19.11" ry="19.11"/>
<text text-anchor="middle" x="180.29" y="-14.06" font-family="Times,serif" font-size="14.00">s2</text>
</g>
<!-- s1&#45;&gt;s2 -->
<g id="edge2" class="edge">
<title>s1&#45;&gt;s2</title>
<path fill="none" stroke="black" d="M113.91,-61.61C120.49,-55.84 128.63,-49.06 136.43,-43.61 141.7,-39.92 147.56,-36.29 153.21,-33.01"/>
<polygon fill="black" stroke="black" points="154.66,-36.2 161.67,-28.25 151.24,-30.1 154.66,-36.2"/>
<text text-anchor="middle" x="139.81" y="-46.81" font-family="Times,serif" font-size="14.00">b</text>
</g>
<!-- s3 -->
<g id="node5" class="node">
<title>s3</title>
<ellipse fill="none" stroke="black" cx="180.29" cy="-128.11" rx="19.11" ry="19.11"/>
<text text-anchor="middle" x="180.29" y="-123.06" font-family="Times,serif" font-size="14.00">s3</text>
</g>
<!-- s1&#45;&gt;s3 -->
<g id="edge3" class="edge">
<title>s1&#45;&gt;s3</title>
<path fill="none" stroke="black" d="M115.55,-84.52C126.62,-92.09 141.84,-102.5 154.64,-111.25"/>
<polygon fill="black" stroke="black" points="152.36,-113.93 162.59,-116.69 156.31,-108.16 152.36,-113.93"/>
<text text-anchor="middle" x="139.81" y="-105.93" font-family="Times,serif" font-size="14.00">g</text>
</g>
<!-- s4 -->
<g id="node6" class="node">
<title>s4</title>
<ellipse fill="none" stroke="black" cx="261.25" cy="-63.11" rx="19.11" ry="19.11"/>
<text text-anchor="middle" x="261.25" y="-58.06" font-family="Times,serif" font-size="14.00">s4</text>
</g>
<!-- s2&#45;&gt;s4 -->
<g id="edge4" class="edge">
<title>s2&#45;&gt;s4</title>
<path fill="none" stroke="black" d="M197.27,-28.01C207.79,-33.88 221.82,-41.7 233.97,-48.46"/>
<polygon fill="black" stroke="black" points="232.26,-51.52 242.7,-53.33 235.67,-45.4 232.26,-51.52"/>
<text text-anchor="middle" x="220.77" y="-45.63" font-family="Times,serif" font-size="14.00">c</text>
</g>
<!-- s5 -->
<g id="node7" class="node">
<title>s5</title>
<ellipse fill="none" stroke="black" cx="261.25" cy="-134.11" rx="19.11" ry="19.11"/>
<text text-anchor="middle" x="261.25" y="-129.06" font-family="Times,serif" font-size="14.00">s5</text>
</g>
<!-- s3&#45;&gt;s5 -->
<g id="edge5" class="edge">
<title>s3&#45;&gt;s5</title>
<path fill="none" stroke="black" d="M199.6,-129.5C208.8,-130.2 220.19,-131.06 230.59,-131.85"/>
<polygon fill="black" stroke="black" points="230.02,-135.32 240.25,-132.59 230.55,-128.34 230.02,-135.32"/>
<text text-anchor="middle" x="220.77" y="-134.49" font-family="Times,serif" font-size="14.00">h</text>
</g>
<!-- s4&#45;&gt;s1 -->
<g id="edge6" class="edge">
<title>s4&#45;&gt;s1</title>
<path fill="none" stroke="black" d="M242.12,-64.35C214.77,-66.24 162.69,-69.82 129.82,-72.08"/>
<polygon fill="black" stroke="black" points="129.91,-68.56 120.18,-72.74 130.4,-75.55 129.91,-68.56"/>
<text text-anchor="middle" x="180.29" y="-73.08" font-family="Times,serif" font-size="14.00">d</text>
</g>
<!-- s6 -->
<g id="node8" class="node">
<title>s6</title>
<ellipse fill="none" stroke="black" cx="99.32" cy="-205.11" rx="19.11" ry="19.11"/>
<text text-anchor="middle" x="99.32" y="-200.06" font-family="Times,serif" font-size="14.00">s6</text>
</g>
<!-- s5&#45;&gt;s6 -->
<g id="edge7" class="edge">
<title>s5&#45;&gt;s6</title>
<path fill="none" stroke="black" d="M243.81,-142.55C237.68,-145.64 230.63,-149.11 224.15,-152.11 191.39,-167.27 153.12,-183.41 127.89,-193.85"/>
<polygon fill="black" stroke="black" points="126.6,-190.59 118.68,-197.64 129.26,-197.07 126.6,-190.59"/>
<text text-anchor="middle" x="180.29" y="-182.55" font-family="Times,serif" font-size="14.00">i</text>
</g>
<!-- s6&#45;&gt;s7 -->
<g id="edge8" class="edge">
<title>s6&#45;&gt;s7</title>
<path fill="none" stroke="black" d="M105.96,-223.16C115.9,-250.97 139.36,-301.11 179.29,-301.11 179.29,-301.11 179.29,-301.11 344.82,-301.11 365.22,-301.11 387.24,-294.94 404.45,-288.61"/>
<polygon fill="black" stroke="black" points="405.55,-291.94 413.6,-285.04 403.01,-285.42 405.55,-291.94"/>
<text text-anchor="middle" x="261.25" y="-304.31" font-family="Times,serif" font-size="14.00">X</text>
</g>
<!-- s6&#45;&gt;s3 -->
<g id="edge9" class="edge">
<title>s6&#45;&gt;s3</title>
<path fill="none" stroke="black" d="M109.1,-188.52C115.58,-177.39 125.2,-162.94 136.43,-152.61 141.16,-148.26 146.8,-144.35 152.4,-141"/>
<polygon fill="black" stroke="black" points="153.84,-144.21 160.93,-136.34 150.48,-138.07 153.84,-144.21"/>
<text text-anchor="middle" x="139.81" y="-155.81" font-family="Times,serif" font-size="14.00">g</text>
</g>
<!-- s8 -->
<g id="node9" class="node">
<title>s8</title>
<ellipse fill="none" stroke="black" cx="180.29" cy="-237.11" rx="19.11" ry="19.11"/>
<text text-anchor="middle" x="180.29" y="-232.06" font-family="Times,serif" font-size="14.00">s8</text>
</g>
<!-- s6&#45;&gt;s8 -->
<g id="edge10" class="edge">
<title>s6&#45;&gt;s8</title>
<path fill="none" stroke="black" d="M117.46,-212.05C127.49,-216.12 140.4,-221.35 151.83,-225.98"/>
<polygon fill="black" stroke="black" points="150.2,-229.1 160.78,-229.61 152.83,-222.61 150.2,-229.1"/>
<text text-anchor="middle" x="139.81" y="-225.27" font-family="Times,serif" font-size="14.00">j</text>
</g>
<!-- s9 -->
<g id="node10" class="node">
<title>s9</title>
<ellipse fill="none" stroke="black" cx="261.25" cy="-193.11" rx="19.11" ry="19.11"/>
<text text-anchor="middle" x="261.25" y="-188.06" font-family="Times,serif" font-size="14.00">s9</text>
</g>
<!-- s8&#45;&gt;s9 -->
<g id="edge11" class="edge">
<title>s8&#45;&gt;s9</title>
<path fill="none" stroke="black" d="M197.27,-228.2C207.79,-222.34 221.82,-214.52 233.97,-207.75"/>
<polygon fill="black" stroke="black" points="235.67,-210.81 242.7,-202.89 232.26,-204.7 235.67,-210.81"/>
<text text-anchor="middle" x="220.77" y="-219.63" font-family="Times,serif" font-size="14.00">k</text>
</g>
<!-- s10 -->
<g id="node11" class="node">
<title>s10</title>
<ellipse fill="none" stroke="black" cx="343.82" cy="-248.11" rx="23.71" ry="23.71"/>
<text text-anchor="middle" x="343.82" y="-243.06" font-family="Times,serif" font-size="14.00">s10</text>
</g>
<!-- s9&#45;&gt;s10 -->
<g id="edge12" class="edge">
<title>s9&#45;&gt;s10</title>
<path fill="none" stroke="black" d="M278.37,-202.55C285.71,-206.97 294.45,-212.4 302.11,-217.61 306.42,-220.54 310.9,-223.73 315.25,-226.92"/>
<polygon fill="black" stroke="black" points="313.12,-229.7 323.22,-232.87 317.3,-224.08 313.12,-229.7"/>
<text text-anchor="middle" x="300.24" y="-220.81" font-family="Times,serif" font-size="14.00">l</text>
</g>
<!-- s10&#45;&gt;s7 -->
<g id="edge13" class="edge">
<title>s10&#45;&gt;s7</title>
<path fill="none" stroke="black" d="M366.75,-254.64C377.62,-257.88 390.96,-261.86 402.99,-265.45"/>
<polygon fill="black" stroke="black" points="401.95,-268.79 412.53,-268.29 403.95,-262.08 401.95,-268.79"/>
<text text-anchor="middle" x="390.41" y="-265.62" font-family="Times,serif" font-size="14.00">X</text>
</g>
<!-- s10&#45;&gt;s8 -->
<g id="edge14" class="edge">
<title>s10&#45;&gt;s8</title>
<path fill="none" stroke="black" d="M319.85,-246.54C291.24,-244.59 242.32,-241.26 210.92,-239.13"/>
<polygon fill="black" stroke="black" points="211.54,-235.66 201.33,-238.47 211.07,-242.64 211.54,-235.66"/>
<text text-anchor="middle" x="261.25" y="-246.9" font-family="Times,serif" font-size="14.00">j</text>
</g>
</g>
</svg>
