<?xml version="1.0" encoding="UTF-8" standalone="no"?>
<!DOCTYPE svg PUBLIC "-//W3C//DTD SVG 1.1//EN"
 "http://www.w3.org/Graphics/SVG/1.1/DTD/svg11.dtd">
<!-- Generated by graphviz version 12.2.1 (20241206.2353)
 -->
<!-- Title: finite_state_machine Pages: 1 -->
<svg width="135pt" height="118pt"
 viewBox="0.00 0.00 135.18 118.22" xmlns="http://www.w3.org/2000/svg" xmlns:xlink="http://www.w3.org/1999/xlink">
<g id="graph0" class="graph" transform="scale(1 1) rotate(0) translate(4 114.22)">
<title>finite_state_machine</title>
<polygon fill="white" stroke="none" points="-4,4 -4,-114.22 131.18,-114.22 131.18,4 -4,4"/>
<!-- s1 -->
<g id="node1" class="node">
<title>s1</title>
<ellipse fill="none" stroke="black" cx="104.07" cy="-87.11" rx="19.11" ry="19.11"/>
<ellipse fill="none" stroke="black" cx="104.07" cy="-87.11" rx="23.11" ry="23.11"/>
<text text-anchor="middle" x="104.07" y="-82.06" font-family="Times,serif" font-size="14.00">s1</text>
</g>
<!-- s2 -->
<g id="node2" class="node">
<title>s2</title>
<ellipse fill="none" stroke="black" cx="104.07" cy="-23.11" rx="19.11" ry="19.11"/>
<ellipse fill="none" stroke="black" cx="104.07" cy="-23.11" rx="23.11" ry="23.11"/>
<text text-anchor="middle" x="104.07" y="-18.06" font-family="Times,serif" font-size="14.00">s2</text>
</g>
<!-- s0 -->
<g id="node3" class="node">
<title>s0</title>
<ellipse fill="none" stroke="black" cx="19.11" cy="-55.11" rx="19.11" ry="19.11"/>
<text text-anchor="middle" x="19.11" y="-50.06" font-family="Times,serif" font-size="14.00">s0</text>
</g>
<!-- s0&#45;&gt;s1 -->
<g id="edge1" class="edge">
<title>s0&#45;&gt;s1</title>
<path fill="none" stroke="black" d="M37.3,-61.74C47.15,-65.54 59.83,-70.43 71.42,-74.9"/>
<polygon fill="black" stroke="black" points="70.08,-78.13 80.67,-78.47 72.6,-71.6 70.08,-78.13"/>
<text text-anchor="middle" x="59.59" y="-74.31" font-family="Times,serif" font-size="14.00">a</text>
</g>
<!-- s0&#45;&gt;s2 -->
<g id="edge2" class="edge">
<title>s0&#45;&gt;s2</title>
<path fill="none" stroke="black" d="M37.3,-48.48C47.15,-44.68 59.83,-39.79 71.42,-35.31"/>
<polygon fill="black" stroke="black" points="72.6,-38.61 80.67,-31.75 70.08,-32.08 72.6,-38.61"/>
<text text-anchor="middle" x="59.59" y="-44.22" font-family="Times,serif" font-size="14.00">b</text>
</g>
</g>
</svg>
