<?xml version="1.0" encoding="UTF-8" standalone="no"?>
<!DOCTYPE svg PUBLIC "-//W3C//DTD SVG 1.1//EN"
 "http://www.w3.org/Graphics/SVG/1.1/DTD/svg11.dtd">
<!-- Generated by graphviz version 2.38.0 (20140413.2041)
 -->
<!-- Title: finite_state_machine Pages: 1 -->
<svg width="455pt" height="310pt"
 viewBox="0.00 0.00 455.00 310.00" xmlns="http://www.w3.org/2000/svg" xmlns:xlink="http://www.w3.org/1999/xlink">
<g id="graph0" class="graph" transform="scale(1 1) rotate(0) translate(4 306)">
<title>finite_state_machine</title>
<polygon fill="white" stroke="none" points="-4,4 -4,-306 450.997,-306 450.997,4 -4,4"/>
<!-- s7 -->
<g id="node1" class="node"><title>s7</title>
<ellipse fill="none" stroke="black" cx="424.997" cy="-268" rx="18" ry="18"/>
<ellipse fill="none" stroke="black" cx="424.997" cy="-268" rx="22" ry="22"/>
<text text-anchor="middle" x="424.997" y="-263.8" font-family="Times,serif" font-size="14.00">s7</text>
</g>
<!-- s0 -->
<g id="node2" class="node"><title>s0</title>
<ellipse fill="none" stroke="black" cx="18" cy="-72" rx="18" ry="18"/>
<text text-anchor="middle" x="18" y="-67.8" font-family="Times,serif" font-size="14.00">s0</text>
</g>
<!-- s1 -->
<g id="node3" class="node"><title>s1</title>
<ellipse fill="none" stroke="black" cx="96.2139" cy="-72" rx="18" ry="18"/>
<text text-anchor="middle" x="96.2139" y="-67.8" font-family="Times,serif" font-size="14.00">s1</text>
</g>
<!-- s0&#45;&gt;s1 -->
<g id="edge1" class="edge"><title>s0&#45;&gt;s1</title>
<path fill="none" stroke="black" d="M36.2941,-72C45.6488,-72 57.4172,-72 67.9721,-72"/>
<polygon fill="black" stroke="black" points="67.9882,-75.5001 77.9882,-72 67.9882,-68.5001 67.9882,-75.5001"/>
<text text-anchor="middle" x="57.1069" y="-74.8" font-family="Times,serif" font-size="14.00">a</text>
</g>
<!-- s2 -->
<g id="node4" class="node"><title>s2</title>
<ellipse fill="none" stroke="black" cx="175.214" cy="-18" rx="18" ry="18"/>
<text text-anchor="middle" x="175.214" y="-13.8" font-family="Times,serif" font-size="14.00">s2</text>
</g>
<!-- s1&#45;&gt;s2 -->
<g id="edge2" class="edge"><title>s1&#45;&gt;s2</title>
<path fill="none" stroke="black" d="M110.55,-60.7066C116.961,-55.4414 124.839,-49.2045 132.214,-44 137.916,-39.9764 144.236,-35.8837 150.206,-32.1723"/>
<polygon fill="black" stroke="black" points="152.44,-34.91 159.16,-26.7189 148.799,-28.9317 152.44,-34.91"/>
<text text-anchor="middle" x="135.714" y="-46.8" font-family="Times,serif" font-size="14.00">b</text>
</g>
<!-- s3 -->
<g id="node5" class="node"><title>s3</title>
<ellipse fill="none" stroke="black" cx="175.214" cy="-122" rx="18" ry="18"/>
<text text-anchor="middle" x="175.214" y="-117.8" font-family="Times,serif" font-size="14.00">s3</text>
</g>
<!-- s1&#45;&gt;s3 -->
<g id="edge3" class="edge"><title>s1&#45;&gt;s3</title>
<path fill="none" stroke="black" d="M111.697,-81.4046C122.775,-88.5979 138.269,-98.6592 151.061,-106.966"/>
<polygon fill="black" stroke="black" points="149.503,-110.127 159.796,-112.638 153.315,-104.256 149.503,-110.127"/>
<text text-anchor="middle" x="135.714" y="-101.8" font-family="Times,serif" font-size="14.00">g</text>
</g>
<!-- s4 -->
<g id="node6" class="node"><title>s4</title>
<ellipse fill="none" stroke="black" cx="254.214" cy="-56" rx="18" ry="18"/>
<text text-anchor="middle" x="254.214" y="-51.8" font-family="Times,serif" font-size="14.00">s4</text>
</g>
<!-- s2&#45;&gt;s4 -->
<g id="edge4" class="edge"><title>s2&#45;&gt;s4</title>
<path fill="none" stroke="black" d="M191.796,-25.6899C202.337,-30.892 216.482,-37.8727 228.541,-43.8235"/>
<polygon fill="black" stroke="black" points="227.139,-47.0346 237.655,-48.3216 230.236,-40.7574 227.139,-47.0346"/>
<text text-anchor="middle" x="214.714" y="-41.8" font-family="Times,serif" font-size="14.00">c</text>
</g>
<!-- s5 -->
<g id="node7" class="node"><title>s5</title>
<ellipse fill="none" stroke="black" cx="254.214" cy="-128" rx="18" ry="18"/>
<text text-anchor="middle" x="254.214" y="-123.8" font-family="Times,serif" font-size="14.00">s5</text>
</g>
<!-- s3&#45;&gt;s5 -->
<g id="edge5" class="edge"><title>s3&#45;&gt;s5</title>
<path fill="none" stroke="black" d="M193.303,-123.332C202.873,-124.077 215.031,-125.025 225.89,-125.871"/>
<polygon fill="black" stroke="black" points="225.931,-129.385 236.173,-126.672 226.475,-122.406 225.931,-129.385"/>
<text text-anchor="middle" x="214.714" y="-128.8" font-family="Times,serif" font-size="14.00">h</text>
</g>
<!-- s4&#45;&gt;s1 -->
<g id="edge6" class="edge"><title>s4&#45;&gt;s1</title>
<path fill="none" stroke="black" d="M236.243,-57.7406C209.296,-60.5044 156.484,-65.921 124.273,-69.2247"/>
<polygon fill="black" stroke="black" points="123.796,-65.7551 114.206,-70.2573 124.511,-72.7186 123.796,-65.7551"/>
<text text-anchor="middle" x="175.214" y="-68.8" font-family="Times,serif" font-size="14.00">d</text>
</g>
<!-- s6 -->
<g id="node8" class="node"><title>s6</title>
<ellipse fill="none" stroke="black" cx="96.2139" cy="-197" rx="18" ry="18"/>
<text text-anchor="middle" x="96.2139" y="-192.8" font-family="Times,serif" font-size="14.00">s6</text>
</g>
<!-- s5&#45;&gt;s6 -->
<g id="edge7" class="edge"><title>s5&#45;&gt;s6</title>
<path fill="none" stroke="black" d="M237.557,-135.222C231.522,-137.989 224.556,-141.162 218.214,-144 185.097,-158.821 146.702,-175.565 122.199,-186.194"/>
<polygon fill="black" stroke="black" points="120.696,-183.031 112.912,-190.219 123.479,-189.454 120.696,-183.031"/>
<text text-anchor="middle" x="175.214" y="-173.8" font-family="Times,serif" font-size="14.00">i</text>
</g>
<!-- s6&#45;&gt;s7 -->
<g id="edge8" class="edge"><title>s6&#45;&gt;s7</title>
<path fill="none" stroke="black" d="M102.862,-214.116C112.765,-240.477 135.927,-288 174.214,-288 174.214,-288 174.214,-288 335.495,-288 355.324,-288 377.05,-283.165 394.014,-278.249"/>
<polygon fill="black" stroke="black" points="395.365,-281.496 403.901,-275.22 393.314,-274.803 395.365,-281.496"/>
<text text-anchor="middle" x="254.214" y="-290.8" font-family="Times,serif" font-size="14.00">X</text>
</g>
<!-- s6&#45;&gt;s3 -->
<g id="edge9" class="edge"><title>s6&#45;&gt;s3</title>
<path fill="none" stroke="black" d="M105.954,-181.65C112.334,-171.328 121.682,-157.859 132.214,-148 137.514,-143.038 143.901,-138.515 150.078,-134.683"/>
<polygon fill="black" stroke="black" points="151.942,-137.647 158.824,-129.592 148.421,-131.597 151.942,-137.647"/>
<text text-anchor="middle" x="135.714" y="-150.8" font-family="Times,serif" font-size="14.00">g</text>
</g>
<!-- s8 -->
<g id="node9" class="node"><title>s8</title>
<ellipse fill="none" stroke="black" cx="175.214" cy="-226" rx="18" ry="18"/>
<text text-anchor="middle" x="175.214" y="-221.8" font-family="Times,serif" font-size="14.00">s8</text>
</g>
<!-- s6&#45;&gt;s8 -->
<g id="edge10" class="edge"><title>s6&#45;&gt;s8</title>
<path fill="none" stroke="black" d="M113.544,-203.15C123.719,-206.982 137.027,-211.995 148.587,-216.348"/>
<polygon fill="black" stroke="black" points="147.58,-219.709 158.172,-219.958 150.047,-213.158 147.58,-219.709"/>
<text text-anchor="middle" x="135.714" y="-214.8" font-family="Times,serif" font-size="14.00">j</text>
</g>
<!-- s9 -->
<g id="node10" class="node"><title>s9</title>
<ellipse fill="none" stroke="black" cx="254.214" cy="-184" rx="18" ry="18"/>
<text text-anchor="middle" x="254.214" y="-179.8" font-family="Times,serif" font-size="14.00">s9</text>
</g>
<!-- s8&#45;&gt;s9 -->
<g id="edge11" class="edge"><title>s8&#45;&gt;s9</title>
<path fill="none" stroke="black" d="M191.427,-217.702C202.184,-211.835 216.826,-203.848 229.157,-197.122"/>
<polygon fill="black" stroke="black" points="230.93,-200.142 238.033,-192.281 227.578,-193.997 230.93,-200.142"/>
<text text-anchor="middle" x="214.714" y="-208.8" font-family="Times,serif" font-size="14.00">k</text>
</g>
<!-- s10 -->
<g id="node11" class="node"><title>s10</title>
<ellipse fill="none" stroke="black" cx="334.495" cy="-238" rx="22.2841" ry="22.2841"/>
<text text-anchor="middle" x="334.495" y="-233.8" font-family="Times,serif" font-size="14.00">s10</text>
</g>
<!-- s9&#45;&gt;s10 -->
<g id="edge12" class="edge"><title>s9&#45;&gt;s10</title>
<path fill="none" stroke="black" d="M269.686,-193.533C277.033,-198.409 286.08,-204.468 294.104,-210 298.481,-213.018 303.106,-216.258 307.586,-219.425"/>
<polygon fill="black" stroke="black" points="305.744,-222.409 315.923,-225.347 309.797,-216.703 305.744,-222.409"/>
<text text-anchor="middle" x="292.159" y="-212.8" font-family="Times,serif" font-size="14.00">l</text>
</g>
<!-- s10&#45;&gt;s7 -->
<g id="edge13" class="edge"><title>s10&#45;&gt;s7</title>
<path fill="none" stroke="black" d="M356.022,-244.958C367.384,-248.81 381.71,-253.665 394.276,-257.925"/>
<polygon fill="black" stroke="black" points="393.293,-261.288 403.887,-261.183 395.54,-254.658 393.293,-261.288"/>
<text text-anchor="middle" x="379.942" y="-255.8" font-family="Times,serif" font-size="14.00">X</text>
</g>
<!-- s10&#45;&gt;s8 -->
<g id="edge14" class="edge"><title>s10&#45;&gt;s8</title>
<path fill="none" stroke="black" d="M312.139,-236.371C283.939,-234.219 234.26,-230.429 203.407,-228.075"/>
<polygon fill="black" stroke="black" points="203.582,-224.578 193.345,-227.307 203.05,-231.558 203.582,-224.578"/>
<text text-anchor="middle" x="254.214" y="-235.8" font-family="Times,serif" font-size="14.00">j</text>
</g>
</g>
</svg>
