<?xml version="1.0" encoding="UTF-8" standalone="no"?>
<!DOCTYPE svg PUBLIC "-//W3C//DTD SVG 1.1//EN"
 "http://www.w3.org/Graphics/SVG/1.1/DTD/svg11.dtd">
<!-- Generated by graphviz version 12.2.1 (20241206.2353)
 -->
<!-- Title: finite_state_machine Pages: 1 -->
<svg width="135pt" height="120pt"
 viewBox="0.00 0.00 135.18 120.22" xmlns="http://www.w3.org/2000/svg" xmlns:xlink="http://www.w3.org/1999/xlink">
<g id="graph0" class="graph" transform="scale(1 1) rotate(0) translate(4 116.22)">
<title>finite_state_machine</title>
<polygon fill="white" stroke="none" points="-4,4 -4,-116.22 131.18,-116.22 131.18,4 -4,4"/>
<!-- s2 -->
<g id="node1" class="node">
<title>s2</title>
<ellipse fill="none" stroke="black" cx="23.11" cy="-89.11" rx="19.11" ry="19.11"/>
<ellipse fill="none" stroke="black" cx="23.11" cy="-89.11" rx="23.11" ry="23.11"/>
<text text-anchor="middle" x="23.11" y="-84.06" font-family="Times,serif" font-size="14.00">s2</text>
</g>
<!-- s1 -->
<g id="node3" class="node">
<title>s1</title>
<ellipse fill="none" stroke="black" cx="108.07" cy="-59.11" rx="19.11" ry="19.11"/>
<text text-anchor="middle" x="108.07" y="-54.06" font-family="Times,serif" font-size="14.00">s1</text>
</g>
<!-- s2&#45;&gt;s1 -->
<g id="edge3" class="edge">
<title>s2&#45;&gt;s1</title>
<path fill="none" stroke="black" d="M45.86,-84.55C53.87,-82.61 62.94,-80.1 70.97,-77.11 74.21,-75.9 77.54,-74.49 80.82,-72.99"/>
<polygon fill="black" stroke="black" points="82.04,-76.29 89.5,-68.77 78.98,-70 82.04,-76.29"/>
<text text-anchor="middle" x="67.59" y="-82.47" font-family="Times,serif" font-size="14.00">x</text>
</g>
<!-- s0 -->
<g id="node2" class="node">
<title>s0</title>
<ellipse fill="none" stroke="black" cx="23.11" cy="-19.11" rx="19.11" ry="19.11"/>
<text text-anchor="middle" x="23.11" y="-14.06" font-family="Times,serif" font-size="14.00">s0</text>
</g>
<!-- s0&#45;&gt;s1 -->
<g id="edge1" class="edge">
<title>s0&#45;&gt;s1</title>
<path fill="none" stroke="black" d="M41.25,-25.66C50.22,-29.23 61.31,-33.88 70.97,-38.61 74.33,-40.26 77.82,-42.08 81.24,-43.94"/>
<polygon fill="black" stroke="black" points="79.37,-46.9 89.8,-48.75 82.8,-40.8 79.37,-46.9"/>
<text text-anchor="middle" x="67.59" y="-41.81" font-family="Times,serif" font-size="14.00">x</text>
</g>
<!-- s1&#45;&gt;s2 -->
<g id="edge2" class="edge">
<title>s1&#45;&gt;s2</title>
<path fill="none" stroke="black" d="M88.72,-57.45C80.98,-57.34 71.97,-57.98 64.22,-60.61 59.35,-62.25 54.56,-64.7 50.07,-67.48"/>
<polygon fill="black" stroke="black" points="48.28,-64.46 42.08,-73.04 52.28,-70.2 48.28,-64.46"/>
<text text-anchor="middle" x="67.59" y="-63.81" font-family="Times,serif" font-size="14.00">x</text>
</g>
</g>
</svg>
