<?xml version="1.0" encoding="UTF-8" standalone="no"?>
<!DOCTYPE svg PUBLIC "-//W3C//DTD SVG 1.1//EN"
 "http://www.w3.org/Graphics/SVG/1.1/DTD/svg11.dtd">
<!-- Generated by graphviz version 12.2.1 (20241206.2353)
 -->
<!-- Title: finite_state_machine Pages: 1 -->
<svg width="458pt" height="169pt"
 viewBox="0.00 0.00 458.29 168.93" xmlns="http://www.w3.org/2000/svg" xmlns:xlink="http://www.w3.org/1999/xlink">
<g id="graph0" class="graph" transform="scale(1 1) rotate(0) translate(4 164.93)">
<title>finite_state_machine</title>
<polygon fill="white" stroke="none" points="-4,4 -4,-164.93 454.29,-164.93 454.29,4 -4,4"/>
<!-- s5 -->
<g id="node1" class="node">
<title>s5</title>
<ellipse fill="none" stroke="black" cx="427.18" cy="-109.11" rx="19.11" ry="19.11"/>
<ellipse fill="none" stroke="black" cx="427.18" cy="-109.11" rx="23.11" ry="23.11"/>
<text text-anchor="middle" x="427.18" y="-104.06" font-family="Times,serif" font-size="14.00">s5</text>
</g>
<!-- s0 -->
<g id="node2" class="node">
<title>s0</title>
<ellipse fill="none" stroke="black" cx="19.11" cy="-72.11" rx="19.11" ry="19.11"/>
<text text-anchor="middle" x="19.11" y="-67.06" font-family="Times,serif" font-size="14.00">s0</text>
</g>
<!-- s1 -->
<g id="node3" class="node">
<title>s1</title>
<ellipse fill="none" stroke="black" cx="261.25" cy="-109.11" rx="19.11" ry="19.11"/>
<text text-anchor="middle" x="261.25" y="-104.06" font-family="Times,serif" font-size="14.00">s1</text>
</g>
<!-- s0&#45;&gt;s1 -->
<g id="edge1" class="edge">
<title>s0&#45;&gt;s1</title>
<path fill="none" stroke="black" d="M30.11,-88.32C40.62,-103.65 58.71,-125.66 80.97,-135.11 131.74,-156.65 197.08,-136.48 233.2,-121.64"/>
<polygon fill="black" stroke="black" points="234.23,-125.01 242.04,-117.85 231.47,-118.57 234.23,-125.01"/>
<text text-anchor="middle" x="140.56" y="-147.63" font-family="Times,serif" font-size="14.00">a</text>
</g>
<!-- s2 -->
<g id="node4" class="node">
<title>s2</title>
<ellipse fill="none" stroke="black" cx="100.07" cy="-72.11" rx="19.11" ry="19.11"/>
<text text-anchor="middle" x="100.07" y="-67.06" font-family="Times,serif" font-size="14.00">s2</text>
</g>
<!-- s0&#45;&gt;s2 -->
<g id="edge2" class="edge">
<title>s0&#45;&gt;s2</title>
<path fill="none" stroke="black" d="M38.42,-72.11C47.53,-72.11 58.76,-72.11 69.08,-72.11"/>
<polygon fill="black" stroke="black" points="69.07,-75.61 79.07,-72.11 69.07,-68.61 69.07,-75.61"/>
<text text-anchor="middle" x="59.59" y="-75.31" font-family="Times,serif" font-size="14.00">x</text>
</g>
<!-- s3 -->
<g id="node5" class="node">
<title>s3</title>
<ellipse fill="none" stroke="black" cx="181.04" cy="-19.11" rx="19.11" ry="19.11"/>
<text text-anchor="middle" x="181.04" y="-14.06" font-family="Times,serif" font-size="14.00">s3</text>
</g>
<!-- s0&#45;&gt;s3 -->
<g id="edge3" class="edge">
<title>s0&#45;&gt;s3</title>
<path fill="none" stroke="black" d="M33.31,-59.08C44.85,-48.59 62.58,-34.5 80.97,-27.61 103.16,-19.29 130.04,-17.45 150.2,-17.53"/>
<polygon fill="black" stroke="black" points="149.91,-21.03 159.98,-17.74 150.06,-14.03 149.91,-21.03"/>
<text text-anchor="middle" x="100.07" y="-30.81" font-family="Times,serif" font-size="14.00">y</text>
</g>
<!-- s4 -->
<g id="node6" class="node">
<title>s4</title>
<ellipse fill="none" stroke="black" cx="342.22" cy="-109.11" rx="19.11" ry="19.11"/>
<text text-anchor="middle" x="342.22" y="-104.06" font-family="Times,serif" font-size="14.00">s4</text>
</g>
<!-- s1&#45;&gt;s4 -->
<g id="edge4" class="edge">
<title>s1&#45;&gt;s4</title>
<path fill="none" stroke="black" d="M280.57,-109.11C289.67,-109.11 300.91,-109.11 311.22,-109.11"/>
<polygon fill="black" stroke="black" points="311.22,-112.61 321.22,-109.11 311.22,-105.61 311.22,-112.61"/>
<text text-anchor="middle" x="301.74" y="-112.31" font-family="Times,serif" font-size="14.00">b</text>
</g>
<!-- s2&#45;&gt;s1 -->
<g id="edge5" class="edge">
<title>s2&#45;&gt;s1</title>
<path fill="none" stroke="black" d="M119.02,-76.28C146.25,-82.61 198.28,-94.7 231.02,-102.31"/>
<polygon fill="black" stroke="black" points="230.12,-105.7 240.65,-104.55 231.7,-98.88 230.12,-105.7"/>
<text text-anchor="middle" x="181.04" y="-98.09" font-family="Times,serif" font-size="14.00">a</text>
</g>
<!-- s2&#45;&gt;s2 -->
<g id="edge6" class="edge">
<title>s2&#45;&gt;s2</title>
<path fill="none" stroke="black" d="M92.85,-90.05C91.5,-100.03 93.91,-109.22 100.07,-109.22 103.73,-109.22 106.07,-105.98 107.08,-101.26"/>
<polygon fill="black" stroke="black" points="110.58,-101.63 107.27,-91.57 103.58,-101.5 110.58,-101.63"/>
<text text-anchor="middle" x="100.07" y="-112.42" font-family="Times,serif" font-size="14.00">x</text>
</g>
<!-- s2&#45;&gt;s3 -->
<g id="edge7" class="edge">
<title>s2&#45;&gt;s3</title>
<path fill="none" stroke="black" d="M118.45,-65.96C126.53,-62.72 136.07,-58.33 143.93,-53.11 149.31,-49.53 154.64,-45.14 159.48,-40.7"/>
<polygon fill="black" stroke="black" points="161.74,-43.38 166.49,-33.91 156.87,-38.35 161.74,-43.38"/>
<text text-anchor="middle" x="140.56" y="-60.28" font-family="Times,serif" font-size="14.00">y</text>
</g>
<!-- s3&#45;&gt;s1 -->
<g id="edge8" class="edge">
<title>s3&#45;&gt;s1</title>
<path fill="none" stroke="black" d="M194.26,-33.17C206.58,-47.35 225.82,-69.48 240.34,-86.2"/>
<polygon fill="black" stroke="black" points="237.66,-88.45 246.87,-93.7 242.95,-83.86 237.66,-88.45"/>
<text text-anchor="middle" x="221.15" y="-70.01" font-family="Times,serif" font-size="14.00">a</text>
</g>
<!-- s3&#45;&gt;s2 -->
<g id="edge9" class="edge">
<title>s3&#45;&gt;s2</title>
<path fill="none" stroke="black" d="M162.03,-22.55C154,-24.63 144.68,-27.83 137.18,-32.61 130.55,-36.84 124.35,-42.59 119.03,-48.39"/>
<polygon fill="black" stroke="black" points="116.71,-45.73 112.89,-55.61 122.04,-50.26 116.71,-45.73"/>
<text text-anchor="middle" x="140.56" y="-35.81" font-family="Times,serif" font-size="14.00">x</text>
</g>
<!-- s3&#45;&gt;s3 -->
<g id="edge10" class="edge">
<title>s3&#45;&gt;s3</title>
<path fill="none" stroke="black" d="M173.88,-37.05C172.54,-47.03 174.93,-56.22 181.04,-56.22 184.67,-56.22 186.98,-52.98 187.98,-48.26"/>
<polygon fill="black" stroke="black" points="191.48,-48.63 188.17,-38.57 184.48,-48.5 191.48,-48.63"/>
<text text-anchor="middle" x="181.04" y="-59.42" font-family="Times,serif" font-size="14.00">y</text>
</g>
<!-- s4&#45;&gt;s5 -->
<g id="edge11" class="edge">
<title>s4&#45;&gt;s5</title>
<path fill="none" stroke="black" d="M361.63,-109.11C370.65,-109.11 381.8,-109.11 392.28,-109.11"/>
<polygon fill="black" stroke="black" points="392.17,-112.61 402.17,-109.11 392.17,-105.61 392.17,-112.61"/>
<text text-anchor="middle" x="382.7" y="-112.31" font-family="Times,serif" font-size="14.00">b</text>
</g>
</g>
</svg>
