<?xml version="1.0" encoding="UTF-8" standalone="no"?>
<!DOCTYPE svg PUBLIC "-//W3C//DTD SVG 1.1//EN"
 "http://www.w3.org/Graphics/SVG/1.1/DTD/svg11.dtd">
<!-- Generated by graphviz version 12.2.1 (20241206.2353)
 -->
<!-- Title: finite_state_machine Pages: 1 -->
<svg width="312pt" height="191pt"
 viewBox="0.00 0.00 312.11 190.74" xmlns="http://www.w3.org/2000/svg" xmlns:xlink="http://www.w3.org/1999/xlink">
<g id="graph0" class="graph" transform="scale(1 1) rotate(0) translate(4 186.74)">
<title>finite_state_machine</title>
<polygon fill="white" stroke="none" points="-4,4 -4,-186.74 308.11,-186.74 308.11,4 -4,4"/>
<!-- s3 -->
<g id="node1" class="node">
<title>s3</title>
<ellipse fill="none" stroke="black" cx="281" cy="-25.63" rx="19.11" ry="19.11"/>
<ellipse fill="none" stroke="black" cx="281" cy="-25.63" rx="23.11" ry="23.11"/>
<text text-anchor="middle" x="281" y="-20.58" font-family="Times,serif" font-size="14.00">s3</text>
</g>
<!-- s0 -->
<g id="node2" class="node">
<title>s0</title>
<ellipse fill="none" stroke="black" cx="19.11" cy="-25.63" rx="19.11" ry="19.11"/>
<text text-anchor="middle" x="19.11" y="-20.58" font-family="Times,serif" font-size="14.00">s0</text>
</g>
<!-- s1 -->
<g id="node3" class="node">
<title>s1</title>
<ellipse fill="none" stroke="black" cx="99.32" cy="-25.63" rx="19.11" ry="19.11"/>
<text text-anchor="middle" x="99.32" y="-20.58" font-family="Times,serif" font-size="14.00">s1</text>
</g>
<!-- s0&#45;&gt;s1 -->
<g id="edge1" class="edge">
<title>s0&#45;&gt;s1</title>
<path fill="none" stroke="black" d="M38.64,-25.63C47.6,-25.63 58.58,-25.63 68.67,-25.63"/>
<polygon fill="black" stroke="black" points="68.41,-29.13 78.41,-25.63 68.41,-22.13 68.41,-29.13"/>
<text text-anchor="middle" x="59.22" y="-28.83" font-family="Times,serif" font-size="14.00">a</text>
</g>
<!-- s2 -->
<g id="node4" class="node">
<title>s2</title>
<ellipse fill="none" stroke="black" cx="196.04" cy="-25.63" rx="19.11" ry="19.11"/>
<text text-anchor="middle" x="196.04" y="-20.58" font-family="Times,serif" font-size="14.00">s2</text>
</g>
<!-- s1&#45;&gt;s2 -->
<g id="edge2" class="edge">
<title>s1&#45;&gt;s2</title>
<path fill="none" stroke="black" d="M115.9,-35.37C122.05,-38.68 129.34,-41.96 136.43,-43.63 146.16,-45.93 149.2,-45.93 158.93,-43.63 162.36,-42.83 165.85,-41.64 169.22,-40.25"/>
<polygon fill="black" stroke="black" points="170.58,-43.48 178.1,-36.02 167.57,-37.16 170.58,-43.48"/>
<text text-anchor="middle" x="147.68" y="-48.55" font-family="Times,serif" font-size="14.00">_</text>
</g>
<!-- s1&#45;&gt;s2 -->
<g id="edge3" class="edge">
<title>s1&#45;&gt;s2</title>
<path fill="none" stroke="black" d="M118.68,-24.12C124.36,-23.71 130.65,-23.33 136.43,-23.13 146.42,-22.79 148.94,-22.79 158.93,-23.13 161.01,-23.21 163.15,-23.3 165.31,-23.41"/>
<polygon fill="black" stroke="black" points="164.97,-26.9 175.17,-24.02 165.41,-19.91 164.97,-26.9"/>
<text text-anchor="middle" x="147.68" y="-26.33" font-family="Times,serif" font-size="14.00">a&#45;z</text>
</g>
<!-- s1&#45;&gt;s2 -->
<g id="edge4" class="edge">
<title>s1&#45;&gt;s2</title>
<path fill="none" stroke="black" d="M114.46,-13.71C120.77,-9.14 128.54,-4.47 136.43,-2.13 146.02,0.71 149.34,0.71 158.93,-2.13 163.24,-3.41 167.52,-5.39 171.55,-7.66"/>
<polygon fill="black" stroke="black" points="169.33,-10.4 179.63,-12.88 173.13,-4.52 169.33,-10.4"/>
<text text-anchor="middle" x="147.68" y="-5.33" font-family="Times,serif" font-size="14.00">A&#45;Z</text>
</g>
<!-- s2&#45;&gt;s3 -->
<g id="edge6" class="edge">
<title>s2&#45;&gt;s3</title>
<path fill="none" stroke="black" d="M215.45,-25.63C224.47,-25.63 235.62,-25.63 246.1,-25.63"/>
<polygon fill="black" stroke="black" points="245.99,-29.13 255.99,-25.63 245.99,-22.13 245.99,-29.13"/>
<text text-anchor="middle" x="236.52" y="-28.83" font-family="Times,serif" font-size="14.00">d</text>
</g>
<!-- s2&#45;&gt;s2 -->
<g id="edge5" class="edge">
<title>s2&#45;&gt;s2</title>
<path fill="none" stroke="black" d="M194.19,-45.11C193.96,-54.47 194.57,-62.74 196.04,-62.74 196.84,-62.74 197.38,-60.27 197.68,-56.5"/>
<polygon fill="black" stroke="black" points="201.18,-56.68 197.86,-46.62 194.18,-56.55 201.18,-56.68"/>
<text text-anchor="middle" x="196.04" y="-65.94" font-family="Times,serif" font-size="14.00">_</text>
</g>
<!-- s2&#45;&gt;s2 -->
<g id="edge7" class="edge">
<title>s2&#45;&gt;s2</title>
<path fill="none" stroke="black" d="M192.92,-44.84C191.4,-62.17 192.44,-80.74 196.04,-80.74 198.85,-80.74 200.1,-69.41 199.79,-56.18"/>
<polygon fill="black" stroke="black" points="203.29,-56.14 199.24,-46.35 196.3,-56.53 203.29,-56.14"/>
<text text-anchor="middle" x="196.04" y="-83.94" font-family="Times,serif" font-size="14.00">0&#45;9</text>
</g>
<!-- s2&#45;&gt;s2 -->
<g id="edge8" class="edge">
<title>s2&#45;&gt;s2</title>
<path fill="none" stroke="black" d="M192.1,-44.73C188.82,-69.29 190.14,-98.74 196.04,-98.74 201.04,-98.74 202.74,-77.58 201.16,-56.17"/>
<polygon fill="black" stroke="black" points="204.64,-55.82 200.13,-46.23 197.67,-56.54 204.64,-55.82"/>
<text text-anchor="middle" x="196.04" y="-101.94" font-family="Times,serif" font-size="14.00">a&#45;z</text>
</g>
<!-- s2&#45;&gt;s2 -->
<g id="edge9" class="edge">
<title>s2&#45;&gt;s2</title>
<path fill="none" stroke="black" d="M191.56,-44.42C186.24,-75.87 187.74,-116.74 196.04,-116.74 203.37,-116.74 205.39,-84.89 202.1,-55.78"/>
<polygon fill="black" stroke="black" points="205.57,-55.34 200.72,-45.92 198.64,-56.31 205.57,-55.34"/>
<text text-anchor="middle" x="196.04" y="-119.94" font-family="Times,serif" font-size="14.00">A&#45;Z</text>
</g>
</g>
</svg>
