<?xml version="1.0" encoding="UTF-8" standalone="no"?>
<!DOCTYPE svg PUBLIC "-//W3C//DTD SVG 1.1//EN"
 "http://www.w3.org/Graphics/SVG/1.1/DTD/svg11.dtd">
<!-- Generated by graphviz version 2.38.0 (20140413.2041)
 -->
<!-- Title: finite_state_machine Pages: 1 -->
<svg width="398pt" height="146pt"
 viewBox="0.00 0.00 398.43 146.00" xmlns="http://www.w3.org/2000/svg" xmlns:xlink="http://www.w3.org/1999/xlink">
<g id="graph0" class="graph" transform="scale(1 1) rotate(0) translate(4 142)">
<title>finite_state_machine</title>
<polygon fill="white" stroke="none" points="-4,4 -4,-142 394.428,-142 394.428,4 -4,4"/>
<!-- s0 -->
<g id="node1" class="node"><title>s0</title>
<ellipse fill="none" stroke="black" cx="22" cy="-46" rx="18" ry="18"/>
<ellipse fill="none" stroke="black" cx="22" cy="-46" rx="22" ry="22"/>
<text text-anchor="middle" x="22" y="-41.8" font-family="Times,serif" font-size="14.00">s0</text>
</g>
<!-- s1 -->
<g id="node2" class="node"><title>s1</title>
<ellipse fill="none" stroke="black" cx="108.214" cy="-46" rx="18" ry="18"/>
<ellipse fill="none" stroke="black" cx="108.214" cy="-46" rx="22" ry="22"/>
<text text-anchor="middle" x="108.214" y="-41.8" font-family="Times,serif" font-size="14.00">s1</text>
</g>
<!-- s0&#45;&gt;s1 -->
<g id="edge1" class="edge"><title>s0&#45;&gt;s1</title>
<path fill="none" stroke="black" d="M44.2507,-46C53.8254,-46 65.3248,-46 75.8613,-46"/>
<polygon fill="black" stroke="black" points="75.97,-49.5001 85.97,-46 75.9699,-42.5001 75.97,-49.5001"/>
<text text-anchor="middle" x="65.1069" y="-48.8" font-family="Times,serif" font-size="14.00">a</text>
</g>
<!-- s2 -->
<g id="node3" class="node"><title>s2</title>
<ellipse fill="none" stroke="black" cx="194.428" cy="-46" rx="18" ry="18"/>
<ellipse fill="none" stroke="black" cx="194.428" cy="-46" rx="22" ry="22"/>
<text text-anchor="middle" x="194.428" y="-41.8" font-family="Times,serif" font-size="14.00">s2</text>
</g>
<!-- s1&#45;&gt;s2 -->
<g id="edge2" class="edge"><title>s1&#45;&gt;s2</title>
<path fill="none" stroke="black" d="M130.465,-46C140.039,-46 151.539,-46 162.075,-46"/>
<polygon fill="black" stroke="black" points="162.184,-49.5001 172.184,-46 162.184,-42.5001 162.184,-49.5001"/>
<text text-anchor="middle" x="151.321" y="-48.8" font-family="Times,serif" font-size="14.00">a</text>
</g>
<!-- s3 -->
<g id="node4" class="node"><title>s3</title>
<ellipse fill="none" stroke="black" cx="281.428" cy="-84" rx="18" ry="18"/>
<ellipse fill="none" stroke="black" cx="281.428" cy="-84" rx="22" ry="22"/>
<text text-anchor="middle" x="281.428" y="-79.8" font-family="Times,serif" font-size="14.00">s3</text>
</g>
<!-- s2&#45;&gt;s3 -->
<g id="edge3" class="edge"><title>s2&#45;&gt;s3</title>
<path fill="none" stroke="black" d="M214.716,-54.6228C225.615,-59.4954 239.452,-65.6814 251.615,-71.1189"/>
<polygon fill="black" stroke="black" points="250.364,-74.3937 260.922,-75.2798 253.221,-68.0032 250.364,-74.3937"/>
<text text-anchor="middle" x="237.928" y="-69.8" font-family="Times,serif" font-size="14.00">a</text>
</g>
<!-- s4 -->
<g id="node5" class="node"><title>s4</title>
<ellipse fill="none" stroke="black" cx="281.428" cy="-22" rx="18" ry="18"/>
<ellipse fill="none" stroke="black" cx="281.428" cy="-22" rx="22" ry="22"/>
<text text-anchor="middle" x="281.428" y="-17.8" font-family="Times,serif" font-size="14.00">s4</text>
</g>
<!-- s2&#45;&gt;s4 -->
<g id="edge4" class="edge"><title>s2&#45;&gt;s4</title>
<path fill="none" stroke="black" d="M216.004,-40.1903C226.236,-37.3013 238.802,-33.7531 250.112,-30.5599"/>
<polygon fill="black" stroke="black" points="251.368,-33.8419 260.041,-27.7562 249.466,-27.1053 251.368,-33.8419"/>
<text text-anchor="middle" x="237.928" y="-37.8" font-family="Times,serif" font-size="14.00">b</text>
</g>
<!-- s3&#45;&gt;s3 -->
<g id="edge5" class="edge"><title>s3&#45;&gt;s3</title>
<path fill="none" stroke="black" d="M273.745,-104.991C272.797,-115.087 275.357,-124 281.428,-124 285.317,-124 287.765,-120.342 288.773,-115.059"/>
<polygon fill="black" stroke="black" points="292.274,-115.102 289.11,-104.991 285.278,-114.868 292.274,-115.102"/>
<text text-anchor="middle" x="281.428" y="-126.8" font-family="Times,serif" font-size="14.00">a</text>
</g>
<!-- s5 -->
<g id="node6" class="node"><title>s5</title>
<ellipse fill="none" stroke="black" cx="368.428" cy="-84" rx="18" ry="18"/>
<ellipse fill="none" stroke="black" cx="368.428" cy="-84" rx="22" ry="22"/>
<text text-anchor="middle" x="368.428" y="-79.8" font-family="Times,serif" font-size="14.00">s5</text>
</g>
<!-- s3&#45;&gt;s5 -->
<g id="edge6" class="edge"><title>s3&#45;&gt;s5</title>
<path fill="none" stroke="black" d="M303.439,-84C313.349,-84 325.374,-84 336.313,-84"/>
<polygon fill="black" stroke="black" points="336.364,-87.5001 346.364,-84 336.364,-80.5001 336.364,-87.5001"/>
<text text-anchor="middle" x="324.928" y="-86.8" font-family="Times,serif" font-size="14.00">b</text>
</g>
</g>
</svg>
