<?xml version="1.0" encoding="UTF-8" standalone="no"?>
<!DOCTYPE svg PUBLIC "-//W3C//DTD SVG 1.1//EN"
 "http://www.w3.org/Graphics/SVG/1.1/DTD/svg11.dtd">
<!-- Generated by graphviz version 12.2.1 (20241206.2353)
 -->
<!-- Title: finite_state_machine Pages: 1 -->
<svg width="477pt" height="256pt"
 viewBox="0.00 0.00 477.00 255.90" xmlns="http://www.w3.org/2000/svg" xmlns:xlink="http://www.w3.org/1999/xlink">
<g id="graph0" class="graph" transform="scale(1 1) rotate(0) translate(4 251.9)">
<title>finite_state_machine</title>
<polygon fill="white" stroke="none" points="-4,4 -4,-251.9 473,-251.9 473,4 -4,4"/>
<!-- s6 -->
<g id="node1" class="node">
<title>s6</title>
<ellipse fill="none" stroke="black" cx="269.75" cy="-99.71" rx="19.11" ry="19.11"/>
<ellipse fill="none" stroke="black" cx="269.75" cy="-99.71" rx="23.11" ry="23.11"/>
<text text-anchor="middle" x="269.75" y="-94.66" font-family="Times,serif" font-size="14.00">s6</text>
</g>
<!-- s8 -->
<g id="node11" class="node">
<title>s8</title>
<ellipse fill="none" stroke="black" cx="353.97" cy="-100.71" rx="19.11" ry="19.11"/>
<text text-anchor="middle" x="353.97" y="-95.66" font-family="Times,serif" font-size="14.00">s8</text>
</g>
<!-- s6&#45;&gt;s8 -->
<g id="edge11" class="edge">
<title>s6&#45;&gt;s8</title>
<path fill="none" stroke="black" d="M293.22,-99.99C302.41,-100.1 313.18,-100.23 323.03,-100.35"/>
<polygon fill="black" stroke="black" points="322.86,-103.85 332.9,-100.47 322.94,-96.85 322.86,-103.85"/>
<text text-anchor="middle" x="313.86" y="-103.47" font-family="Times,serif" font-size="14.00">e</text>
</g>
<!-- s7 -->
<g id="node2" class="node">
<title>s7</title>
<ellipse fill="none" stroke="black" cx="269.75" cy="-34.71" rx="19.11" ry="19.11"/>
<ellipse fill="none" stroke="black" cx="269.75" cy="-34.71" rx="23.11" ry="23.11"/>
<text text-anchor="middle" x="269.75" y="-29.66" font-family="Times,serif" font-size="14.00">s7</text>
</g>
<!-- s9 -->
<g id="node12" class="node">
<title>s9</title>
<ellipse fill="none" stroke="black" cx="353.97" cy="-28.71" rx="19.11" ry="19.11"/>
<text text-anchor="middle" x="353.97" y="-23.66" font-family="Times,serif" font-size="14.00">s9</text>
</g>
<!-- s7&#45;&gt;s9 -->
<g id="edge12" class="edge">
<title>s7&#45;&gt;s9</title>
<path fill="none" stroke="black" d="M293.22,-33.07C302.41,-32.4 313.18,-31.62 323.03,-30.9"/>
<polygon fill="black" stroke="black" points="323.19,-34.4 332.9,-30.18 322.68,-27.42 323.19,-34.4"/>
<text text-anchor="middle" x="313.86" y="-34.91" font-family="Times,serif" font-size="14.00">e</text>
</g>
<!-- s10 -->
<g id="node3" class="node">
<title>s10</title>
<ellipse fill="none" stroke="black" cx="441.29" cy="-100.71" rx="23.71" ry="23.71"/>
<ellipse fill="none" stroke="black" cx="441.29" cy="-100.71" rx="27.71" ry="27.71"/>
<text text-anchor="middle" x="441.29" y="-95.66" font-family="Times,serif" font-size="14.00">s10</text>
</g>
<!-- s11 -->
<g id="node4" class="node">
<title>s11</title>
<ellipse fill="none" stroke="black" cx="441.29" cy="-27.71" rx="23.71" ry="23.71"/>
<ellipse fill="none" stroke="black" cx="441.29" cy="-27.71" rx="27.71" ry="27.71"/>
<text text-anchor="middle" x="441.29" y="-22.66" font-family="Times,serif" font-size="14.00">s11</text>
</g>
<!-- s0 -->
<g id="node5" class="node">
<title>s0</title>
<ellipse fill="none" stroke="black" cx="19.11" cy="-151.71" rx="19.11" ry="19.11"/>
<text text-anchor="middle" x="19.11" y="-146.66" font-family="Times,serif" font-size="14.00">s0</text>
</g>
<!-- s1 -->
<g id="node6" class="node">
<title>s1</title>
<ellipse fill="none" stroke="black" cx="107.57" cy="-190.71" rx="19.11" ry="19.11"/>
<text text-anchor="middle" x="107.57" y="-185.66" font-family="Times,serif" font-size="14.00">s1</text>
</g>
<!-- s0&#45;&gt;s1 -->
<g id="edge1" class="edge">
<title>s0&#45;&gt;s1</title>
<path fill="none" stroke="black" d="M23.12,-170.73C27.16,-189.13 36.28,-216.04 56.22,-228.71 67.81,-236.08 80.14,-227.1 89.69,-216.03"/>
<polygon fill="black" stroke="black" points="92.42,-218.22 95.77,-208.17 86.88,-213.94 92.42,-218.22"/>
<text text-anchor="middle" x="63.34" y="-234.6" font-family="Times,serif" font-size="14.00">e</text>
</g>
<!-- s0&#45;&gt;s1 -->
<g id="edge3" class="edge">
<title>s0&#45;&gt;s1</title>
<path fill="none" stroke="black" d="M30.59,-167.09C36.97,-175.08 45.88,-184.12 56.22,-188.71 62.67,-191.58 70.06,-192.84 77.15,-193.22"/>
<polygon fill="black" stroke="black" points="77.1,-196.72 87.08,-193.17 77.06,-189.72 77.1,-196.72"/>
<text text-anchor="middle" x="63.34" y="-195.62" font-family="Times,serif" font-size="14.00">r</text>
</g>
<!-- s0&#45;&gt;s1 -->
<g id="edge5" class="edge">
<title>s0&#45;&gt;s1</title>
<path fill="none" stroke="black" d="M37.75,-156.36C47.6,-159.23 59.96,-163.31 70.47,-168.21 74.12,-169.92 77.86,-171.93 81.49,-174.02"/>
<polygon fill="black" stroke="black" points="79.58,-176.96 89.93,-179.21 83.24,-170.99 79.58,-176.96"/>
<text text-anchor="middle" x="63.34" y="-171.41" font-family="Times,serif" font-size="14.00">t</text>
</g>
<!-- s0&#45;&gt;s1 -->
<g id="edge6" class="edge">
<title>s0&#45;&gt;s1</title>
<path fill="none" stroke="black" d="M36.73,-144.27C46.92,-140.84 59.98,-138.55 70.47,-143.71 79.39,-148.11 86.72,-155.89 92.39,-163.87"/>
<polygon fill="black" stroke="black" points="89.37,-165.64 97.67,-172.21 95.28,-161.89 89.37,-165.64"/>
<text text-anchor="middle" x="63.34" y="-145.41" font-family="Times,serif" font-size="14.00">◉</text>
</g>
<!-- s2 -->
<g id="node7" class="node">
<title>s2</title>
<ellipse fill="none" stroke="black" cx="107.57" cy="-96.71" rx="19.11" ry="19.11"/>
<text text-anchor="middle" x="107.57" y="-91.66" font-family="Times,serif" font-size="14.00">s2</text>
</g>
<!-- s0&#45;&gt;s2 -->
<g id="edge2" class="edge">
<title>s0&#45;&gt;s2</title>
<path fill="none" stroke="black" d="M33.44,-138.48C39.96,-132.44 48.13,-125.48 56.22,-120.21 63.17,-115.69 71.13,-111.55 78.65,-108.05"/>
<polygon fill="black" stroke="black" points="80.04,-111.26 87.77,-104.02 77.21,-104.86 80.04,-111.26"/>
<text text-anchor="middle" x="63.34" y="-123.41" font-family="Times,serif" font-size="14.00">g</text>
</g>
<!-- s3 -->
<g id="node8" class="node">
<title>s3</title>
<ellipse fill="none" stroke="black" cx="107.57" cy="-40.71" rx="19.11" ry="19.11"/>
<text text-anchor="middle" x="107.57" y="-35.66" font-family="Times,serif" font-size="14.00">s3</text>
</g>
<!-- s0&#45;&gt;s3 -->
<g id="edge4" class="edge">
<title>s0&#45;&gt;s3</title>
<path fill="none" stroke="black" d="M28.95,-134.89C35.74,-122.59 45.7,-105.77 56.22,-92.21 64.78,-81.17 75.47,-69.95 84.79,-60.82"/>
<polygon fill="black" stroke="black" points="86.98,-63.57 91.78,-54.12 82.13,-58.52 86.98,-63.57"/>
<text text-anchor="middle" x="63.34" y="-95.41" font-family="Times,serif" font-size="14.00">s</text>
</g>
<!-- s4 -->
<g id="node9" class="node">
<title>s4</title>
<ellipse fill="none" stroke="black" cx="187.79" cy="-97.71" rx="19.11" ry="19.11"/>
<text text-anchor="middle" x="187.79" y="-92.66" font-family="Times,serif" font-size="14.00">s4</text>
</g>
<!-- s2&#45;&gt;s4 -->
<g id="edge7" class="edge">
<title>s2&#45;&gt;s4</title>
<path fill="none" stroke="black" d="M127.11,-96.95C136.07,-97.07 147.05,-97.21 157.13,-97.33"/>
<polygon fill="black" stroke="black" points="156.83,-100.83 166.87,-97.46 156.92,-93.83 156.83,-100.83"/>
<text text-anchor="middle" x="147.68" y="-100.44" font-family="Times,serif" font-size="14.00">e</text>
</g>
<!-- s5 -->
<g id="node10" class="node">
<title>s5</title>
<ellipse fill="none" stroke="black" cx="187.79" cy="-40.71" rx="19.11" ry="19.11"/>
<text text-anchor="middle" x="187.79" y="-35.66" font-family="Times,serif" font-size="14.00">s5</text>
</g>
<!-- s3&#45;&gt;s5 -->
<g id="edge8" class="edge">
<title>s3&#45;&gt;s5</title>
<path fill="none" stroke="black" d="M127.11,-40.71C136.07,-40.71 147.05,-40.71 157.13,-40.71"/>
<polygon fill="black" stroke="black" points="156.87,-44.21 166.87,-40.71 156.87,-37.21 156.87,-44.21"/>
<text text-anchor="middle" x="147.68" y="-43.91" font-family="Times,serif" font-size="14.00">e</text>
</g>
<!-- s4&#45;&gt;s6 -->
<g id="edge9" class="edge">
<title>s4&#45;&gt;s6</title>
<path fill="none" stroke="black" d="M207.33,-98.18C215.6,-98.38 225.6,-98.63 235.11,-98.87"/>
<polygon fill="black" stroke="black" points="234.72,-102.36 244.81,-99.11 234.9,-95.37 234.72,-102.36"/>
<text text-anchor="middle" x="226.77" y="-101.85" font-family="Times,serif" font-size="14.00">t</text>
</g>
<!-- s5&#45;&gt;s7 -->
<g id="edge10" class="edge">
<title>s5&#45;&gt;s7</title>
<path fill="none" stroke="black" d="M207.33,-39.32C215.6,-38.7 225.6,-37.95 235.11,-37.24"/>
<polygon fill="black" stroke="black" points="235.1,-40.75 244.81,-36.51 234.58,-33.77 235.1,-40.75"/>
<text text-anchor="middle" x="226.77" y="-41.09" font-family="Times,serif" font-size="14.00">t</text>
</g>
<!-- s8&#45;&gt;s10 -->
<g id="edge13" class="edge">
<title>s8&#45;&gt;s10</title>
<path fill="none" stroke="black" d="M373.48,-100.71C381.86,-100.71 392.1,-100.71 402.02,-100.71"/>
<polygon fill="black" stroke="black" points="401.88,-104.21 411.88,-100.71 401.88,-97.21 401.88,-104.21"/>
<text text-anchor="middle" x="393.33" y="-103.91" font-family="Times,serif" font-size="14.00">r</text>
</g>
<!-- s9&#45;&gt;s11 -->
<g id="edge14" class="edge">
<title>s9&#45;&gt;s11</title>
<path fill="none" stroke="black" d="M373.48,-28.5C381.86,-28.4 392.1,-28.28 402.02,-28.16"/>
<polygon fill="black" stroke="black" points="401.92,-31.66 411.88,-28.05 401.84,-24.66 401.92,-31.66"/>
<text text-anchor="middle" x="393.33" y="-31.47" font-family="Times,serif" font-size="14.00">r</text>
</g>
</g>
</svg>
