<?xml version="1.0" encoding="UTF-8" standalone="no"?>
<!DOCTYPE svg PUBLIC "-//W3C//DTD SVG 1.1//EN"
 "http://www.w3.org/Graphics/SVG/1.1/DTD/svg11.dtd">
<!-- Generated by graphviz version 2.38.0 (20140413.2041)
 -->
<!-- Title: finite_state_machine Pages: 1 -->
<svg width="343pt" height="271pt"
 viewBox="0.00 0.00 342.90 270.67" xmlns="http://www.w3.org/2000/svg" xmlns:xlink="http://www.w3.org/1999/xlink">
<g id="graph0" class="graph" transform="scale(1 1) rotate(0) translate(4 266.672)">
<title>finite_state_machine</title>
<polygon fill="white" stroke="none" points="-4,4 -4,-266.672 338.896,-266.672 338.896,4 -4,4"/>
<!-- s1 -->
<g id="node1" class="node"><title>s1</title>
<ellipse fill="none" stroke="black" cx="22" cy="-113.672" rx="18" ry="18"/>
<ellipse fill="none" stroke="black" cx="22" cy="-113.672" rx="22" ry="22"/>
<text text-anchor="middle" x="22" y="-109.472" font-family="Times,serif" font-size="14.00">s1</text>
</g>
<!-- s1&#45;&gt;s1 -->
<g id="edge5" class="edge"><title>s1&#45;&gt;s1</title>
<path fill="none" stroke="black" d="M12.5928,-133.842C11.1455,-144.271 14.2812,-153.672 22,-153.672 27.0654,-153.672 30.1571,-149.623 31.2751,-143.892"/>
<polygon fill="black" stroke="black" points="34.7754,-143.887 31.4072,-133.842 27.776,-143.795 34.7754,-143.887"/>
<text text-anchor="middle" x="22" y="-156.472" font-family="Times,serif" font-size="14.00">&#39;</text>
</g>
<!-- s3 -->
<g id="node2" class="node"><title>s3</title>
<ellipse fill="none" stroke="black" cx="128.448" cy="-208.672" rx="18" ry="18"/>
<ellipse fill="none" stroke="black" cx="128.448" cy="-208.672" rx="22" ry="22"/>
<text text-anchor="middle" x="128.448" y="-204.472" font-family="Times,serif" font-size="14.00">s3</text>
</g>
<!-- s1&#45;&gt;s3 -->
<g id="edge8" class="edge"><title>s1&#45;&gt;s3</title>
<path fill="none" stroke="black" d="M29.4201,-134.685C35.409,-150.984 45.8748,-173.029 62,-186.672 71.7677,-194.936 84.7674,-200.133 96.6062,-203.384"/>
<polygon fill="black" stroke="black" points="96.0615,-206.853 106.601,-205.769 97.6859,-200.044 96.0615,-206.853"/>
<text text-anchor="middle" x="75.2241" y="-203.472" font-family="Times,serif" font-size="14.00">EOF</text>
</g>
<!-- s0 -->
<g id="node3" class="node"><title>s0</title>
<ellipse fill="none" stroke="black" cx="316.896" cy="-144.672" rx="18" ry="18"/>
<text text-anchor="middle" x="316.896" y="-140.472" font-family="Times,serif" font-size="14.00">s0</text>
</g>
<!-- s1&#45;&gt;s0 -->
<g id="edge7" class="edge"><title>s1&#45;&gt;s0</title>
<path fill="none" stroke="black" d="M42.5728,-105.642C48.7037,-103.4 55.5536,-101.171 62,-99.6719 119.765,-86.2409 136.229,-78.9973 194.896,-87.6718 234.398,-93.5124 246.032,-94.2055 280.896,-113.672 286.345,-116.714 291.677,-120.724 296.472,-124.847"/>
<polygon fill="black" stroke="black" points="294.231,-127.542 303.959,-131.741 298.973,-122.393 294.231,-127.542"/>
<text text-anchor="middle" x="181.672" y="-96.4719" font-family="Times,serif" font-size="14.00">◉</text>
</g>
<!-- s2 -->
<g id="node4" class="node"><title>s2</title>
<ellipse fill="none" stroke="black" cx="230.896" cy="-144.672" rx="18" ry="18"/>
<text text-anchor="middle" x="230.896" y="-140.472" font-family="Times,serif" font-size="14.00">s2</text>
</g>
<!-- s1&#45;&gt;s2 -->
<g id="edge6" class="edge"><title>s1&#45;&gt;s2</title>
<path fill="none" stroke="black" d="M43.9769,-116.815C81.7793,-122.479 161.275,-134.39 203.01,-140.643"/>
<polygon fill="black" stroke="black" points="202.59,-144.119 212.998,-142.14 203.627,-137.197 202.59,-144.119"/>
<text text-anchor="middle" x="128.448" y="-135.472" font-family="Times,serif" font-size="14.00">\</text>
</g>
<!-- s3&#45;&gt;s1 -->
<g id="edge13" class="edge"><title>s3&#45;&gt;s1</title>
<path fill="none" stroke="black" d="M112.866,-192.451C105.784,-184.911 96.9767,-176.01 88.4482,-168.672 77.4768,-159.232 73.216,-158.82 62,-149.672 56.7517,-145.391 51.3022,-140.601 46.1997,-135.947"/>
<polygon fill="black" stroke="black" points="48.2548,-133.079 38.5459,-128.838 43.4909,-138.208 48.2548,-133.079"/>
<text text-anchor="middle" x="75.2241" y="-171.472" font-family="Times,serif" font-size="14.00">&#39;</text>
</g>
<!-- s3&#45;&gt;s3 -->
<g id="edge16" class="edge"><title>s3&#45;&gt;s3</title>
<path fill="none" stroke="black" d="M119.041,-228.842C117.594,-239.271 120.729,-248.672 128.448,-248.672 133.514,-248.672 136.605,-244.623 137.723,-238.892"/>
<polygon fill="black" stroke="black" points="141.224,-238.887 137.855,-228.842 134.224,-238.795 141.224,-238.887"/>
<text text-anchor="middle" x="128.448" y="-251.472" font-family="Times,serif" font-size="14.00">EOF</text>
</g>
<!-- s3&#45;&gt;s0 -->
<g id="edge15" class="edge"><title>s3&#45;&gt;s0</title>
<path fill="none" stroke="black" d="M146.976,-220.651C153.451,-224.5 161.025,-228.362 168.448,-230.672 202.63,-241.309 216.034,-248.871 248.896,-234.672 276.467,-222.759 295.131,-192.55 305.616,-170.404"/>
<polygon fill="black" stroke="black" points="308.85,-171.745 309.735,-161.187 302.459,-168.888 308.85,-171.745"/>
<text text-anchor="middle" x="230.896" y="-251.472" font-family="Times,serif" font-size="14.00">◉</text>
</g>
<!-- s3&#45;&gt;s2 -->
<g id="edge14" class="edge"><title>s3&#45;&gt;s2</title>
<path fill="none" stroke="black" d="M150.24,-204.771C163.812,-201.513 181.443,-195.879 194.896,-186.672 202.166,-181.696 208.765,-174.808 214.224,-168.048"/>
<polygon fill="black" stroke="black" points="217.283,-169.804 220.494,-159.707 211.688,-165.598 217.283,-169.804"/>
<text text-anchor="middle" x="181.672" y="-201.472" font-family="Times,serif" font-size="14.00">\</text>
</g>
<!-- s0&#45;&gt;s1 -->
<g id="edge1" class="edge"><title>s0&#45;&gt;s1</title>
<path fill="none" stroke="black" d="M315.681,-126.572C314.362,-101.057 308.083,-54.724 280.896,-28.6719 252.411,-1.37476 234.041,-11.5993 194.896,-6.67185 135.496,0.805454 108.844,8.60985 62,-28.6719 45.2786,-41.9799 35.4421,-64.0737 29.8311,-82.4005"/>
<polygon fill="black" stroke="black" points="26.4368,-81.5428 27.1317,-92.1148 33.1813,-83.417 26.4368,-81.5428"/>
<text text-anchor="middle" x="181.672" y="-9.47185" font-family="Times,serif" font-size="14.00">&#39;</text>
</g>
<!-- s0&#45;&gt;s3 -->
<g id="edge4" class="edge"><title>s0&#45;&gt;s3</title>
<path fill="none" stroke="black" d="M304.443,-158.013C292.09,-171.545 271.178,-192.097 248.896,-203.672 216.756,-220.369 204.482,-220.33 168.448,-216.672 165.706,-216.394 162.872,-216.008 160.041,-215.555"/>
<polygon fill="black" stroke="black" points="160.443,-212.07 149.973,-213.692 159.169,-218.953 160.443,-212.07"/>
<text text-anchor="middle" x="230.896" y="-219.472" font-family="Times,serif" font-size="14.00">EOF</text>
</g>
<!-- s0&#45;&gt;s0 -->
<g id="edge3" class="edge"><title>s0&#45;&gt;s0</title>
<path fill="none" stroke="black" d="M309.514,-161.336C307.873,-171.297 310.334,-180.672 316.896,-180.672 321.101,-180.672 323.621,-176.824 324.459,-171.44"/>
<polygon fill="black" stroke="black" points="327.957,-171.272 324.279,-161.336 320.958,-171.397 327.957,-171.272"/>
<text text-anchor="middle" x="316.896" y="-190.472" font-family="Times,serif" font-size="14.00">◉</text>
</g>
<!-- s0&#45;&gt;s2 -->
<g id="edge2" class="edge"><title>s0&#45;&gt;s2</title>
<path fill="none" stroke="black" d="M298.801,-144.672C287.531,-144.672 272.516,-144.672 259.566,-144.672"/>
<polygon fill="black" stroke="black" points="259.301,-141.172 249.301,-144.672 259.301,-148.172 259.301,-141.172"/>
<text text-anchor="middle" x="273.896" y="-147.472" font-family="Times,serif" font-size="14.00">\</text>
</g>
<!-- s2&#45;&gt;s1 -->
<g id="edge9" class="edge"><title>s2&#45;&gt;s1</title>
<path fill="none" stroke="black" d="M215.362,-135.525C199.937,-126.402 174.514,-113.001 150.448,-107.672 117.944,-100.474 79.6784,-103.796 53.6189,-107.766"/>
<polygon fill="black" stroke="black" points="52.8879,-104.339 43.5898,-109.418 54.0257,-111.246 52.8879,-104.339"/>
<text text-anchor="middle" x="128.448" y="-110.472" font-family="Times,serif" font-size="14.00">&#39;</text>
</g>
<!-- s2&#45;&gt;s3 -->
<g id="edge12" class="edge"><title>s2&#45;&gt;s3</title>
<path fill="none" stroke="black" d="M213.769,-150.39C200.932,-155.318 182.802,-163.134 168.448,-172.672 162.57,-176.578 156.718,-181.369 151.403,-186.166"/>
<polygon fill="black" stroke="black" points="148.93,-183.688 144.059,-193.097 153.734,-188.779 148.93,-183.688"/>
<text text-anchor="middle" x="181.672" y="-175.472" font-family="Times,serif" font-size="14.00">EOF</text>
</g>
<!-- s2&#45;&gt;s0 -->
<g id="edge11" class="edge"><title>s2&#45;&gt;s0</title>
<path fill="none" stroke="black" d="M244.449,-132.791C250.688,-127.696 258.648,-122.315 266.896,-119.672 276.616,-116.557 286.761,-120.4 295.281,-125.935"/>
<polygon fill="black" stroke="black" points="293.388,-128.89 303.486,-132.093 297.59,-123.291 293.388,-128.89"/>
<text text-anchor="middle" x="273.896" y="-128.472" font-family="Times,serif" font-size="14.00">◉</text>
</g>
<!-- s2&#45;&gt;s2 -->
<g id="edge10" class="edge"><title>s2&#45;&gt;s2</title>
<path fill="none" stroke="black" d="M223.514,-161.336C221.873,-171.297 224.334,-180.672 230.896,-180.672 235.101,-180.672 237.621,-176.824 238.459,-171.44"/>
<polygon fill="black" stroke="black" points="241.957,-171.272 238.279,-161.336 234.958,-171.397 241.957,-171.272"/>
<text text-anchor="middle" x="230.896" y="-183.472" font-family="Times,serif" font-size="14.00">\</text>
</g>
</g>
</svg>
