<?xml version="1.0" encoding="UTF-8" standalone="no"?>
<!DOCTYPE svg PUBLIC "-//W3C//DTD SVG 1.1//EN"
 "http://www.w3.org/Graphics/SVG/1.1/DTD/svg11.dtd">
<!-- Generated by graphviz version 2.38.0 (20140413.2041)
 -->
<!-- Title: finite_state_machine Pages: 1 -->
<svg width="257pt" height="168pt"
 viewBox="0.00 0.00 256.90 167.71" xmlns="http://www.w3.org/2000/svg" xmlns:xlink="http://www.w3.org/1999/xlink">
<g id="graph0" class="graph" transform="scale(1 1) rotate(0) translate(4 163.712)">
<title>finite_state_machine</title>
<polygon fill="white" stroke="none" points="-4,4 -4,-163.712 252.896,-163.712 252.896,4 -4,4"/>
<!-- s1 -->
<g id="node1" class="node"><title>s1</title>
<ellipse fill="none" stroke="black" cx="22" cy="-55.7118" rx="18" ry="18"/>
<ellipse fill="none" stroke="black" cx="22" cy="-55.7118" rx="22" ry="22"/>
<text text-anchor="middle" x="22" y="-51.5118" font-family="Times,serif" font-size="14.00">s1</text>
</g>
<!-- s1&#45;&gt;s1 -->
<g id="edge4" class="edge"><title>s1&#45;&gt;s1</title>
<path fill="none" stroke="black" d="M12.5928,-75.8815C11.1455,-86.3108 14.2812,-95.7118 22,-95.7118 27.0654,-95.7118 30.1571,-91.6631 31.2751,-85.9321"/>
<polygon fill="black" stroke="black" points="34.7754,-85.9267 31.4072,-75.8815 27.776,-85.8346 34.7754,-85.9267"/>
<text text-anchor="middle" x="22" y="-98.5118" font-family="Times,serif" font-size="14.00">`</text>
</g>
<!-- s2 -->
<g id="node2" class="node"><title>s2</title>
<ellipse fill="none" stroke="black" cx="128.448" cy="-105.712" rx="18" ry="18"/>
<ellipse fill="none" stroke="black" cx="128.448" cy="-105.712" rx="22" ry="22"/>
<text text-anchor="middle" x="128.448" y="-101.512" font-family="Times,serif" font-size="14.00">s2</text>
</g>
<!-- s1&#45;&gt;s2 -->
<g id="edge6" class="edge"><title>s1&#45;&gt;s2</title>
<path fill="none" stroke="black" d="M38.2381,-70.7422C45.0409,-76.751 53.4446,-83.2821 62,-87.7118 72.7363,-93.2707 85.3787,-97.265 96.6752,-100.056"/>
<polygon fill="black" stroke="black" points="96.0525,-103.503 106.578,-102.291 97.5937,-96.6751 96.0525,-103.503"/>
<text text-anchor="middle" x="75.2241" y="-100.512" font-family="Times,serif" font-size="14.00">EOF</text>
</g>
<!-- s0 -->
<g id="node3" class="node"><title>s0</title>
<ellipse fill="none" stroke="black" cx="230.896" cy="-55.7118" rx="18" ry="18"/>
<text text-anchor="middle" x="230.896" y="-51.5118" font-family="Times,serif" font-size="14.00">s0</text>
</g>
<!-- s1&#45;&gt;s0 -->
<g id="edge5" class="edge"><title>s1&#45;&gt;s0</title>
<path fill="none" stroke="black" d="M44.2626,-55.0618C61.1249,-54.5802 85.2919,-53.9653 106.448,-53.7118 126.002,-53.4775 130.894,-53.4657 150.448,-53.7118 167.767,-53.9297 187.204,-54.4148 202.518,-54.8527"/>
<polygon fill="black" stroke="black" points="202.752,-58.3611 212.851,-55.1587 202.959,-51.3641 202.752,-58.3611"/>
<text text-anchor="middle" x="128.448" y="-62.5119" font-family="Times,serif" font-size="14.00">◉</text>
</g>
<!-- s2&#45;&gt;s1 -->
<g id="edge7" class="edge"><title>s2&#45;&gt;s1</title>
<path fill="none" stroke="black" d="M113.371,-89.2313C106.529,-82.2122 97.775,-74.5447 88.4482,-69.7118 77.8638,-64.2273 65.2516,-60.8902 53.9368,-58.8602"/>
<polygon fill="black" stroke="black" points="54.4204,-55.3936 44.0057,-57.3393 53.3606,-62.3129 54.4204,-55.3936"/>
<text text-anchor="middle" x="75.2241" y="-72.5118" font-family="Times,serif" font-size="14.00">`</text>
</g>
<!-- s2&#45;&gt;s2 -->
<g id="edge9" class="edge"><title>s2&#45;&gt;s2</title>
<path fill="none" stroke="black" d="M119.041,-125.881C117.594,-136.311 120.729,-145.712 128.448,-145.712 133.514,-145.712 136.605,-141.663 137.723,-135.932"/>
<polygon fill="black" stroke="black" points="141.224,-135.927 137.855,-125.881 134.224,-135.835 141.224,-135.927"/>
<text text-anchor="middle" x="128.448" y="-148.512" font-family="Times,serif" font-size="14.00">EOF</text>
</g>
<!-- s2&#45;&gt;s0 -->
<g id="edge8" class="edge"><title>s2&#45;&gt;s0</title>
<path fill="none" stroke="black" d="M150.455,-102.545C163.789,-99.919 181.073,-95.3451 194.896,-87.7118 200.53,-84.6013 205.985,-80.4074 210.847,-76.0816"/>
<polygon fill="black" stroke="black" points="213.599,-78.2923 218.394,-68.845 208.754,-73.2396 213.599,-78.2923"/>
<text text-anchor="middle" x="181.672" y="-107.512" font-family="Times,serif" font-size="14.00">◉</text>
</g>
<!-- s0&#45;&gt;s1 -->
<g id="edge1" class="edge"><title>s0&#45;&gt;s1</title>
<path fill="none" stroke="black" d="M217.218,-43.4976C210.826,-37.7004 202.774,-30.9196 194.896,-25.7118 161.105,-3.37313 145.891,5.51534 106.448,-3.71182 84.2899,-8.89545 62.5798,-22.7818 46.8601,-34.9013"/>
<polygon fill="black" stroke="black" points="44.3876,-32.3978 38.7784,-41.386 48.7684,-37.8574 44.3876,-32.3978"/>
<text text-anchor="middle" x="128.448" y="-6.51182" font-family="Times,serif" font-size="14.00">`</text>
</g>
<!-- s0&#45;&gt;s2 -->
<g id="edge3" class="edge"><title>s0&#45;&gt;s2</title>
<path fill="none" stroke="black" d="M213.03,-58.7393C200.275,-61.4736 182.602,-66.2342 168.448,-73.7118 162.991,-76.5949 157.583,-80.3154 152.611,-84.194"/>
<polygon fill="black" stroke="black" points="150.176,-81.6668 144.722,-90.7504 154.65,-87.0502 150.176,-81.6668"/>
<text text-anchor="middle" x="181.672" y="-76.5118" font-family="Times,serif" font-size="14.00">EOF</text>
</g>
<!-- s0&#45;&gt;s0 -->
<g id="edge2" class="edge"><title>s0&#45;&gt;s0</title>
<path fill="none" stroke="black" d="M222.531,-72.0021C220.514,-82.101 223.303,-91.7118 230.896,-91.7118 235.761,-91.7118 238.654,-87.7675 239.574,-82.2774"/>
<polygon fill="black" stroke="black" points="243.064,-81.8909 239.261,-72.0021 236.067,-82.104 243.064,-81.8909"/>
<text text-anchor="middle" x="230.896" y="-101.512" font-family="Times,serif" font-size="14.00">◉</text>
</g>
</g>
</svg>
