<?xml version="1.0" encoding="UTF-8" standalone="no"?>
<!DOCTYPE svg PUBLIC "-//W3C//DTD SVG 1.1//EN"
 "http://www.w3.org/Graphics/SVG/1.1/DTD/svg11.dtd">
<!-- Generated by graphviz version 2.38.0 (20140413.2041)
 -->
<!-- Title: finite_state_machine Pages: 1 -->
<svg width="281pt" height="1557pt"
 viewBox="0.00 0.00 280.87 1557.39" xmlns="http://www.w3.org/2000/svg" xmlns:xlink="http://www.w3.org/1999/xlink">
<g id="graph0" class="graph" transform="scale(1 1) rotate(0) translate(4 1553.39)">
<title>finite_state_machine</title>
<polygon fill="white" stroke="none" points="-4,4 -4,-1553.39 276.871,-1553.39 276.871,4 -4,4"/>
<!-- s0 -->
<g id="node1" class="node"><title>s0</title>
<ellipse fill="none" stroke="black" cx="22" cy="-798.392" rx="18" ry="18"/>
<ellipse fill="none" stroke="black" cx="22" cy="-798.392" rx="22" ry="22"/>
<text text-anchor="middle" x="22" y="-794.192" font-family="Times,serif" font-size="14.00">s0</text>
</g>
<!-- s1 -->
<g id="node2" class="node"><title>s1</title>
<ellipse fill="none" stroke="black" cx="146.806" cy="-1527.39" rx="18" ry="18"/>
<ellipse fill="none" stroke="black" cx="146.806" cy="-1527.39" rx="22" ry="22"/>
<text text-anchor="middle" x="146.806" y="-1523.19" font-family="Times,serif" font-size="14.00">s1</text>
</g>
<!-- s0&#45;&gt;s1 -->
<g id="edge1" class="edge"><title>s0&#45;&gt;s1</title>
<path fill="none" stroke="black" d="M23.3045,-820.564C24.9223,-928.54 33.5367,-1396.48 62,-1454.39 74.1775,-1479.17 98.9234,-1499.06 118.384,-1511.78"/>
<polygon fill="black" stroke="black" points="116.557,-1514.76 126.889,-1517.11 120.276,-1508.83 116.557,-1514.76"/>
<text text-anchor="middle" x="82.207" y="-1501.19" font-family="Times,serif" font-size="14.00"> </text>
</g>
<!-- s2 -->
<g id="node3" class="node"><title>s2</title>
<ellipse fill="none" stroke="black" cx="146.806" cy="-1465.39" rx="18" ry="18"/>
<ellipse fill="none" stroke="black" cx="146.806" cy="-1465.39" rx="22" ry="22"/>
<text text-anchor="middle" x="146.806" y="-1461.19" font-family="Times,serif" font-size="14.00">s2</text>
</g>
<!-- s0&#45;&gt;s2 -->
<g id="edge2" class="edge"><title>s0&#45;&gt;s2</title>
<path fill="none" stroke="black" d="M23.4494,-820.459C25.6481,-921.856 36.2269,-1340.36 62,-1392.39 74.254,-1417.13 98.9909,-1437.02 118.428,-1449.75"/>
<polygon fill="black" stroke="black" points="116.593,-1452.73 126.922,-1455.09 120.318,-1446.81 116.593,-1452.73"/>
<text text-anchor="middle" x="82.207" y="-1439.19" font-family="Times,serif" font-size="14.00">!</text>
</g>
<!-- s4 -->
<g id="node4" class="node"><title>s4</title>
<ellipse fill="none" stroke="black" cx="146.806" cy="-1403.39" rx="18" ry="18"/>
<ellipse fill="none" stroke="black" cx="146.806" cy="-1403.39" rx="22" ry="22"/>
<text text-anchor="middle" x="146.806" y="-1399.19" font-family="Times,serif" font-size="14.00">s4</text>
</g>
<!-- s0&#45;&gt;s4 -->
<g id="edge4" class="edge"><title>s0&#45;&gt;s4</title>
<path fill="none" stroke="black" d="M23.6454,-820.604C26.5321,-915.39 39.1299,-1283.28 62,-1329.39 74.4141,-1354.42 99.3663,-1374.7 118.831,-1387.66"/>
<polygon fill="black" stroke="black" points="117.012,-1390.65 127.323,-1393.09 120.782,-1384.75 117.012,-1390.65"/>
<text text-anchor="middle" x="82.207" y="-1377.19" font-family="Times,serif" font-size="14.00">%</text>
</g>
<!-- s7 -->
<g id="node5" class="node"><title>s7</title>
<ellipse fill="none" stroke="black" cx="146.806" cy="-1341.39" rx="18" ry="18"/>
<ellipse fill="none" stroke="black" cx="146.806" cy="-1341.39" rx="22" ry="22"/>
<text text-anchor="middle" x="146.806" y="-1337.19" font-family="Times,serif" font-size="14.00">s7</text>
</g>
<!-- s0&#45;&gt;s7 -->
<g id="edge7" class="edge"><title>s0&#45;&gt;s7</title>
<path fill="none" stroke="black" d="M22.7316,-820.388C22.0573,-901.84 22.6386,-1185.7 62,-1265.39 74.521,-1290.74 99.4599,-1311.61 118.892,-1325.03"/>
<polygon fill="black" stroke="black" points="117.101,-1328.04 127.368,-1330.66 120.973,-1322.21 117.101,-1328.04"/>
<text text-anchor="middle" x="82.207" y="-1314.19" font-family="Times,serif" font-size="14.00">)</text>
</g>
<!-- s8 -->
<g id="node6" class="node"><title>s8</title>
<ellipse fill="none" stroke="black" cx="146.806" cy="-1279.39" rx="18" ry="18"/>
<ellipse fill="none" stroke="black" cx="146.806" cy="-1279.39" rx="22" ry="22"/>
<text text-anchor="middle" x="146.806" y="-1275.19" font-family="Times,serif" font-size="14.00">s8</text>
</g>
<!-- s0&#45;&gt;s8 -->
<g id="edge8" class="edge"><title>s0&#45;&gt;s8</title>
<path fill="none" stroke="black" d="M23.1248,-820.556C23.8521,-894.614 28.7806,-1132.63 62,-1200.39 74.8039,-1226.51 100.118,-1248.45 119.59,-1262.53"/>
<polygon fill="black" stroke="black" points="117.587,-1265.41 127.791,-1268.26 121.593,-1259.66 117.587,-1265.41"/>
<text text-anchor="middle" x="82.207" y="-1250.19" font-family="Times,serif" font-size="14.00">*</text>
</g>
<!-- s9 -->
<g id="node7" class="node"><title>s9</title>
<ellipse fill="none" stroke="black" cx="146.806" cy="-1217.39" rx="18" ry="18"/>
<ellipse fill="none" stroke="black" cx="146.806" cy="-1217.39" rx="22" ry="22"/>
<text text-anchor="middle" x="146.806" y="-1213.19" font-family="Times,serif" font-size="14.00">s9</text>
</g>
<!-- s0&#45;&gt;s9 -->
<g id="edge9" class="edge"><title>s0&#45;&gt;s9</title>
<path fill="none" stroke="black" d="M23.7436,-820.503C26.2218,-885.682 35.5919,-1075.95 62,-1131.39 75.1787,-1159.06 100.856,-1183.31 120.332,-1198.94"/>
<polygon fill="black" stroke="black" points="118.203,-1201.72 128.245,-1205.1 122.502,-1196.2 118.203,-1201.72"/>
<text text-anchor="middle" x="82.207" y="-1185.19" font-family="Times,serif" font-size="14.00">+</text>
</g>
<!-- s10 -->
<g id="node8" class="node"><title>s10</title>
<ellipse fill="none" stroke="black" cx="146.806" cy="-1151.39" rx="22.3004" ry="22.3004"/>
<ellipse fill="none" stroke="black" cx="146.806" cy="-1151.39" rx="26.2841" ry="26.2841"/>
<text text-anchor="middle" x="146.806" y="-1147.19" font-family="Times,serif" font-size="14.00">s10</text>
</g>
<!-- s0&#45;&gt;s10 -->
<g id="edge10" class="edge"><title>s0&#45;&gt;s10</title>
<path fill="none" stroke="black" d="M24.6058,-820.38C28.8895,-875.44 41.6662,-1017.87 62,-1060.39 74.9709,-1087.52 98.8189,-1112.19 117.768,-1128.98"/>
<polygon fill="black" stroke="black" points="115.682,-1131.8 125.543,-1135.68 120.25,-1126.5 115.682,-1131.8"/>
<text text-anchor="middle" x="82.207" y="-1116.19" font-family="Times,serif" font-size="14.00">,</text>
</g>
<!-- s11 -->
<g id="node9" class="node"><title>s11</title>
<ellipse fill="none" stroke="black" cx="146.806" cy="-1081.39" rx="22.1256" ry="22.1256"/>
<ellipse fill="none" stroke="black" cx="146.806" cy="-1081.39" rx="26.1361" ry="26.1361"/>
<text text-anchor="middle" x="146.806" y="-1077.19" font-family="Times,serif" font-size="14.00">s11</text>
</g>
<!-- s0&#45;&gt;s11 -->
<g id="edge11" class="edge"><title>s0&#45;&gt;s11</title>
<path fill="none" stroke="black" d="M23.7992,-820.406C25.9206,-857.119 33.673,-932.342 62,-988.392 75.7247,-1015.55 99.502,-1040.82 118.232,-1058.14"/>
<polygon fill="black" stroke="black" points="116.136,-1060.96 125.906,-1065.06 120.824,-1055.76 116.136,-1060.96"/>
<text text-anchor="middle" x="82.207" y="-1045.19" font-family="Times,serif" font-size="14.00">&#45;</text>
</g>
<!-- s12 -->
<g id="node10" class="node"><title>s12</title>
<ellipse fill="none" stroke="black" cx="146.806" cy="-1011.39" rx="22.3004" ry="22.3004"/>
<ellipse fill="none" stroke="black" cx="146.806" cy="-1011.39" rx="26.2841" ry="26.2841"/>
<text text-anchor="middle" x="146.806" y="-1007.19" font-family="Times,serif" font-size="14.00">s12</text>
</g>
<!-- s0&#45;&gt;s12 -->
<g id="edge12" class="edge"><title>s0&#45;&gt;s12</title>
<path fill="none" stroke="black" d="M26.9984,-820.282C32.2906,-845.65 43.2167,-888.1 62,-920.392 77.0241,-946.221 100.47,-970.852 118.747,-987.959"/>
<polygon fill="black" stroke="black" points="116.486,-990.636 126.223,-994.812 121.216,-985.475 116.486,-990.636"/>
<text text-anchor="middle" x="82.207" y="-973.192" font-family="Times,serif" font-size="14.00">.</text>
</g>
<!-- s13 -->
<g id="node11" class="node"><title>s13</title>
<ellipse fill="none" stroke="black" cx="146.806" cy="-940.392" rx="22.3004" ry="22.3004"/>
<ellipse fill="none" stroke="black" cx="146.806" cy="-940.392" rx="26.2841" ry="26.2841"/>
<text text-anchor="middle" x="146.806" y="-936.192" font-family="Times,serif" font-size="14.00">s13</text>
</g>
<!-- s0&#45;&gt;s13 -->
<g id="edge13" class="edge"><title>s0&#45;&gt;s13</title>
<path fill="none" stroke="black" d="M32.985,-817.781C40.2036,-830.967 50.6498,-848.478 62,-862.392 78.6277,-882.775 100.461,-902.929 117.674,-917.644"/>
<polygon fill="black" stroke="black" points="115.805,-920.646 125.71,-924.407 120.313,-915.29 115.805,-920.646"/>
<text text-anchor="middle" x="82.207" y="-905.192" font-family="Times,serif" font-size="14.00">/</text>
</g>
<!-- s14 -->
<g id="node12" class="node"><title>s14</title>
<ellipse fill="none" stroke="black" cx="146.806" cy="-869.392" rx="22.3004" ry="22.3004"/>
<ellipse fill="none" stroke="black" cx="146.806" cy="-869.392" rx="26.2841" ry="26.2841"/>
<text text-anchor="middle" x="146.806" y="-865.192" font-family="Times,serif" font-size="14.00">s14</text>
</g>
<!-- s0&#45;&gt;s14 -->
<g id="edge14" class="edge"><title>s0&#45;&gt;s14</title>
<path fill="none" stroke="black" d="M41.3853,-809.021C60.7604,-820.223 91.619,-838.064 114.775,-851.451"/>
<polygon fill="black" stroke="black" points="113.135,-854.546 123.544,-856.521 116.639,-848.486 113.135,-854.546"/>
<text text-anchor="middle" x="82.207" y="-847.192" font-family="Times,serif" font-size="14.00">&lt;</text>
</g>
<!-- s15 -->
<g id="node13" class="node"><title>s15</title>
<ellipse fill="none" stroke="black" cx="146.806" cy="-798.392" rx="22.3004" ry="22.3004"/>
<ellipse fill="none" stroke="black" cx="146.806" cy="-798.392" rx="26.2841" ry="26.2841"/>
<text text-anchor="middle" x="146.806" y="-794.192" font-family="Times,serif" font-size="14.00">s15</text>
</g>
<!-- s0&#45;&gt;s15 -->
<g id="edge15" class="edge"><title>s0&#45;&gt;s15</title>
<path fill="none" stroke="black" d="M44.1111,-798.392C62.2629,-798.392 88.8254,-798.392 110.251,-798.392"/>
<polygon fill="black" stroke="black" points="110.298,-801.892 120.298,-798.392 110.297,-794.892 110.298,-801.892"/>
<text text-anchor="middle" x="82.207" y="-801.192" font-family="Times,serif" font-size="14.00">=</text>
</g>
<!-- s16 -->
<g id="node14" class="node"><title>s16</title>
<ellipse fill="none" stroke="black" cx="146.806" cy="-727.392" rx="22.3004" ry="22.3004"/>
<ellipse fill="none" stroke="black" cx="146.806" cy="-727.392" rx="26.2841" ry="26.2841"/>
<text text-anchor="middle" x="146.806" y="-723.192" font-family="Times,serif" font-size="14.00">s16</text>
</g>
<!-- s0&#45;&gt;s16 -->
<g id="edge16" class="edge"><title>s0&#45;&gt;s16</title>
<path fill="none" stroke="black" d="M41.3853,-787.762C60.7604,-776.561 91.619,-758.72 114.775,-745.332"/>
<polygon fill="black" stroke="black" points="116.639,-748.298 123.544,-740.262 113.135,-742.237 116.639,-748.298"/>
<text text-anchor="middle" x="82.207" y="-779.192" font-family="Times,serif" font-size="14.00">&gt;</text>
</g>
<!-- s17 -->
<g id="node15" class="node"><title>s17</title>
<ellipse fill="none" stroke="black" cx="146.806" cy="-656.392" rx="22.3004" ry="22.3004"/>
<ellipse fill="none" stroke="black" cx="146.806" cy="-656.392" rx="26.2841" ry="26.2841"/>
<text text-anchor="middle" x="146.806" y="-652.192" font-family="Times,serif" font-size="14.00">s17</text>
</g>
<!-- s0&#45;&gt;s17 -->
<g id="edge17" class="edge"><title>s0&#45;&gt;s17</title>
<path fill="none" stroke="black" d="M32.985,-779.003C40.2036,-765.816 50.6498,-748.305 62,-734.392 78.6277,-714.009 100.461,-693.854 117.674,-679.14"/>
<polygon fill="black" stroke="black" points="120.313,-681.494 125.71,-672.376 115.805,-676.138 120.313,-681.494"/>
<text text-anchor="middle" x="82.207" y="-737.192" font-family="Times,serif" font-size="14.00">^</text>
</g>
<!-- s21 -->
<g id="node16" class="node"><title>s21</title>
<ellipse fill="none" stroke="black" cx="146.806" cy="-553.392" rx="22.3004" ry="22.3004"/>
<ellipse fill="none" stroke="black" cx="146.806" cy="-553.392" rx="26.2841" ry="26.2841"/>
<text text-anchor="middle" x="146.806" y="-549.192" font-family="Times,serif" font-size="14.00">s21</text>
</g>
<!-- s0&#45;&gt;s21 -->
<g id="edge21" class="edge"><title>s0&#45;&gt;s21</title>
<path fill="none" stroke="black" d="M27.852,-776.958C33.9461,-752.017 45.6248,-709.969 62,-676.392 78.9205,-641.697 104.631,-605.61 123.111,-581.57"/>
<polygon fill="black" stroke="black" points="125.941,-583.632 129.32,-573.591 120.416,-579.333 125.941,-583.632"/>
<text text-anchor="middle" x="82.207" y="-679.192" font-family="Times,serif" font-size="14.00">0&#45;9</text>
</g>
<!-- s22 -->
<g id="node17" class="node"><title>s22</title>
<ellipse fill="none" stroke="black" cx="146.806" cy="-450.392" rx="22.3004" ry="22.3004"/>
<ellipse fill="none" stroke="black" cx="146.806" cy="-450.392" rx="26.2841" ry="26.2841"/>
<text text-anchor="middle" x="146.806" y="-446.192" font-family="Times,serif" font-size="14.00">s22</text>
</g>
<!-- s0&#45;&gt;s22 -->
<g id="edge22" class="edge"><title>s0&#45;&gt;s22</title>
<path fill="none" stroke="black" d="M24.6994,-776.486C28.2007,-738.255 38.0036,-657.328 62,-593.392 77.6931,-551.579 105.161,-507.905 124.359,-479.995"/>
<polygon fill="black" stroke="black" points="127.427,-481.714 130.276,-471.51 121.685,-477.71 127.427,-481.714"/>
<text text-anchor="middle" x="82.207" y="-596.192" font-family="Times,serif" font-size="14.00">a&#45;zA&#45;Z</text>
</g>
<!-- s23 -->
<g id="node18" class="node"><title>s23</title>
<ellipse fill="none" stroke="black" cx="146.806" cy="-379.392" rx="22.3004" ry="22.3004"/>
<ellipse fill="none" stroke="black" cx="146.806" cy="-379.392" rx="26.2841" ry="26.2841"/>
<text text-anchor="middle" x="146.806" y="-375.192" font-family="Times,serif" font-size="14.00">s23</text>
</g>
<!-- s0&#45;&gt;s23 -->
<g id="edge23" class="edge"><title>s0&#45;&gt;s23</title>
<path fill="none" stroke="black" d="M24.4284,-776.278C28.5797,-715.461 41.654,-546.805 62,-495.392 75.5162,-461.237 101.372,-427.844 120.807,-405.723"/>
<polygon fill="black" stroke="black" points="123.57,-407.884 127.642,-398.103 118.359,-403.21 123.57,-407.884"/>
<text text-anchor="middle" x="82.207" y="-498.192" font-family="Times,serif" font-size="14.00">EOF</text>
</g>
<!-- s3 -->
<g id="node27" class="node"><title>s3</title>
<ellipse fill="none" stroke="black" cx="146.806" cy="-317.392" rx="18" ry="18"/>
<text text-anchor="middle" x="146.806" y="-313.192" font-family="Times,serif" font-size="14.00">s3</text>
</g>
<!-- s0&#45;&gt;s3 -->
<g id="edge3" class="edge"><title>s0&#45;&gt;s3</title>
<path fill="none" stroke="black" d="M23.473,-776.418C25.287,-704.636 33.215,-477.849 62,-411.392 75.6711,-379.829 104.19,-351.559 124.144,-334.455"/>
<polygon fill="black" stroke="black" points="126.4,-337.131 131.843,-328.042 121.919,-331.753 126.4,-337.131"/>
<text text-anchor="middle" x="82.207" y="-414.192" font-family="Times,serif" font-size="14.00">&quot;</text>
</g>
<!-- s5 -->
<g id="node28" class="node"><title>s5</title>
<ellipse fill="none" stroke="black" cx="146.806" cy="-263.392" rx="18" ry="18"/>
<text text-anchor="middle" x="146.806" y="-259.192" font-family="Times,serif" font-size="14.00">s5</text>
</g>
<!-- s0&#45;&gt;s5 -->
<g id="edge5" class="edge"><title>s0&#45;&gt;s5</title>
<path fill="none" stroke="black" d="M22.7453,-776.162C22.1425,-695.173 23.0062,-416.567 62,-338.392 75.3015,-311.725 102.531,-290.197 122.353,-277.159"/>
<polygon fill="black" stroke="black" points="124.281,-280.081 130.862,-271.778 120.54,-274.164 124.281,-280.081"/>
<text text-anchor="middle" x="82.207" y="-341.192" font-family="Times,serif" font-size="14.00">&amp;</text>
</g>
<!-- s6 -->
<g id="node29" class="node"><title>s6</title>
<ellipse fill="none" stroke="black" cx="146.806" cy="-209.392" rx="18" ry="18"/>
<text text-anchor="middle" x="146.806" y="-205.192" font-family="Times,serif" font-size="14.00">s6</text>
</g>
<!-- s0&#45;&gt;s6 -->
<g id="edge6" class="edge"><title>s0&#45;&gt;s6</title>
<path fill="none" stroke="black" d="M23.6064,-776.165C26.3118,-682.17 38.2059,-320.101 62,-275.392 75.0102,-250.945 101.415,-232.54 121.127,-221.458"/>
<polygon fill="black" stroke="black" points="123.015,-224.418 130.179,-216.613 119.711,-218.247 123.015,-224.418"/>
<text text-anchor="middle" x="82.207" y="-278.192" font-family="Times,serif" font-size="14.00">&#39;</text>
</g>
<!-- s18 -->
<g id="node30" class="node"><title>s18</title>
<ellipse fill="none" stroke="black" cx="146.806" cy="-151.392" rx="22.2841" ry="22.2841"/>
<text text-anchor="middle" x="146.806" y="-147.192" font-family="Times,serif" font-size="14.00">s18</text>
</g>
<!-- s0&#45;&gt;s18 -->
<g id="edge18" class="edge"><title>s0&#45;&gt;s18</title>
<path fill="none" stroke="black" d="M23.4134,-776.404C25.4367,-676.325 35.3008,-266.567 62,-216.392 74.1161,-193.622 98.0648,-176.309 117.269,-165.299"/>
<polygon fill="black" stroke="black" points="119.141,-168.265 126.243,-160.404 115.788,-162.12 119.141,-168.265"/>
<text text-anchor="middle" x="82.207" y="-219.192" font-family="Times,serif" font-size="14.00">`</text>
</g>
<!-- s19 -->
<g id="node31" class="node"><title>s19</title>
<ellipse fill="none" stroke="black" cx="146.806" cy="-88.3918" rx="22.2841" ry="22.2841"/>
<text text-anchor="middle" x="146.806" y="-84.1918" font-family="Times,serif" font-size="14.00">s19</text>
</g>
<!-- s0&#45;&gt;s19 -->
<g id="edge19" class="edge"><title>s0&#45;&gt;s19</title>
<path fill="none" stroke="black" d="M23.3126,-776.397C24.9569,-670.337 33.6344,-214.526 62,-158.392 74.1047,-134.437 98.4529,-115.568 117.8,-103.487"/>
<polygon fill="black" stroke="black" points="119.756,-106.396 126.547,-98.2643 116.167,-100.386 119.756,-106.396"/>
<text text-anchor="middle" x="82.207" y="-161.192" font-family="Times,serif" font-size="14.00">|</text>
</g>
<!-- s20 -->
<g id="node32" class="node"><title>s20</title>
<ellipse fill="none" stroke="black" cx="146.806" cy="-24.3918" rx="22.2841" ry="22.2841"/>
<text text-anchor="middle" x="146.806" y="-20.1918" font-family="Times,serif" font-size="14.00">s20</text>
</g>
<!-- s0&#45;&gt;s20 -->
<g id="edge20" class="edge"><title>s0&#45;&gt;s20</title>
<path fill="none" stroke="black" d="M23.214,-776.208C24.4341,-663.754 31.5747,-159.598 62,-97.3918 74.1304,-72.5904 98.8818,-52.7081 118.356,-39.9941"/>
<polygon fill="black" stroke="black" points="120.25,-42.9381 126.868,-34.665 116.535,-37.0049 120.25,-42.9381"/>
<text text-anchor="middle" x="82.207" y="-100.192" font-family="Times,serif" font-size="14.00">}</text>
</g>
<!-- s24 -->
<g id="node19" class="node"><title>s24</title>
<ellipse fill="none" stroke="black" cx="246.479" cy="-1469.39" rx="22.3004" ry="22.3004"/>
<ellipse fill="none" stroke="black" cx="246.479" cy="-1469.39" rx="26.2841" ry="26.2841"/>
<text text-anchor="middle" x="246.479" y="-1465.19" font-family="Times,serif" font-size="14.00">s24</text>
</g>
<!-- s2&#45;&gt;s24 -->
<g id="edge24" class="edge"><title>s2&#45;&gt;s24</title>
<path fill="none" stroke="black" d="M169,-1466.26C180.892,-1466.75 196.046,-1467.37 209.723,-1467.93"/>
<polygon fill="black" stroke="black" points="209.68,-1471.43 219.815,-1468.34 209.966,-1464.43 209.68,-1471.43"/>
<text text-anchor="middle" x="196.643" y="-1470.19" font-family="Times,serif" font-size="14.00">=</text>
</g>
<!-- s25 -->
<g id="node20" class="node"><title>s25</title>
<ellipse fill="none" stroke="black" cx="246.479" cy="-1398.39" rx="22.3004" ry="22.3004"/>
<ellipse fill="none" stroke="black" cx="246.479" cy="-1398.39" rx="26.2841" ry="26.2841"/>
<text text-anchor="middle" x="246.479" y="-1394.19" font-family="Times,serif" font-size="14.00">s25</text>
</g>
<!-- s4&#45;&gt;s25 -->
<g id="edge25" class="edge"><title>s4&#45;&gt;s25</title>
<path fill="none" stroke="black" d="M169,-1402.31C180.892,-1401.7 196.046,-1400.92 209.723,-1400.22"/>
<polygon fill="black" stroke="black" points="210.007,-1403.71 219.815,-1399.71 209.649,-1396.72 210.007,-1403.71"/>
<text text-anchor="middle" x="196.643" y="-1403.19" font-family="Times,serif" font-size="14.00">}</text>
</g>
<!-- s27 -->
<g id="node22" class="node"><title>s27</title>
<ellipse fill="none" stroke="black" cx="246.479" cy="-940.392" rx="22.3004" ry="22.3004"/>
<ellipse fill="none" stroke="black" cx="246.479" cy="-940.392" rx="26.2841" ry="26.2841"/>
<text text-anchor="middle" x="246.479" y="-936.192" font-family="Times,serif" font-size="14.00">s27</text>
</g>
<!-- s14&#45;&gt;s27 -->
<g id="edge27" class="edge"><title>s14&#45;&gt;s27</title>
<path fill="none" stroke="black" d="M168.52,-884.449C182.411,-894.547 200.907,-907.992 216.285,-919.17"/>
<polygon fill="black" stroke="black" points="214.312,-922.063 224.458,-925.111 218.427,-916.401 214.312,-922.063"/>
<text text-anchor="middle" x="196.643" y="-911.192" font-family="Times,serif" font-size="14.00">=</text>
</g>
<!-- s28 -->
<g id="node23" class="node"><title>s28</title>
<ellipse fill="none" stroke="black" cx="246.479" cy="-869.392" rx="22.3004" ry="22.3004"/>
<ellipse fill="none" stroke="black" cx="246.479" cy="-869.392" rx="26.2841" ry="26.2841"/>
<text text-anchor="middle" x="246.479" y="-865.192" font-family="Times,serif" font-size="14.00">s28</text>
</g>
<!-- s14&#45;&gt;s28 -->
<g id="edge28" class="edge"><title>s14&#45;&gt;s28</title>
<path fill="none" stroke="black" d="M173.213,-869.392C184.318,-869.392 197.54,-869.392 209.62,-869.392"/>
<polygon fill="black" stroke="black" points="209.86,-872.892 219.86,-869.392 209.859,-865.892 209.86,-872.892"/>
<text text-anchor="middle" x="196.643" y="-872.192" font-family="Times,serif" font-size="14.00">&gt;</text>
</g>
<!-- s29 -->
<g id="node24" class="node"><title>s29</title>
<ellipse fill="none" stroke="black" cx="246.479" cy="-798.392" rx="22.3004" ry="22.3004"/>
<ellipse fill="none" stroke="black" cx="246.479" cy="-798.392" rx="26.2841" ry="26.2841"/>
<text text-anchor="middle" x="246.479" y="-794.192" font-family="Times,serif" font-size="14.00">s29</text>
</g>
<!-- s15&#45;&gt;s29 -->
<g id="edge29" class="edge"><title>s15&#45;&gt;s29</title>
<path fill="none" stroke="black" d="M173.213,-798.392C184.318,-798.392 197.54,-798.392 209.62,-798.392"/>
<polygon fill="black" stroke="black" points="209.86,-801.892 219.86,-798.392 209.859,-794.892 209.86,-801.892"/>
<text text-anchor="middle" x="196.643" y="-801.192" font-family="Times,serif" font-size="14.00">=</text>
</g>
<!-- s30 -->
<g id="node25" class="node"><title>s30</title>
<ellipse fill="none" stroke="black" cx="246.479" cy="-727.392" rx="22.3004" ry="22.3004"/>
<ellipse fill="none" stroke="black" cx="246.479" cy="-727.392" rx="26.2841" ry="26.2841"/>
<text text-anchor="middle" x="246.479" y="-723.192" font-family="Times,serif" font-size="14.00">s30</text>
</g>
<!-- s16&#45;&gt;s30 -->
<g id="edge30" class="edge"><title>s16&#45;&gt;s30</title>
<path fill="none" stroke="black" d="M173.213,-727.392C184.318,-727.392 197.54,-727.392 209.62,-727.392"/>
<polygon fill="black" stroke="black" points="209.86,-730.892 219.86,-727.392 209.859,-723.892 209.86,-730.892"/>
<text text-anchor="middle" x="196.643" y="-730.192" font-family="Times,serif" font-size="14.00">=</text>
</g>
<!-- s21&#45;&gt;s21 -->
<g id="edge33" class="edge"><title>s21&#45;&gt;s21</title>
<path fill="none" stroke="black" d="M137.885,-578.491C137.27,-588.933 140.243,-597.784 146.806,-597.784 151.01,-597.784 153.741,-594.151 155,-588.795"/>
<polygon fill="black" stroke="black" points="158.514,-588.713 155.727,-578.491 151.531,-588.22 158.514,-588.713"/>
<text text-anchor="middle" x="146.806" y="-600.584" font-family="Times,serif" font-size="14.00">0&#45;9</text>
</g>
<!-- s22&#45;&gt;s22 -->
<g id="edge34" class="edge"><title>s22&#45;&gt;s22</title>
<path fill="none" stroke="black" d="M137.885,-475.491C137.27,-485.933 140.243,-494.784 146.806,-494.784 151.01,-494.784 153.741,-491.151 155,-485.795"/>
<polygon fill="black" stroke="black" points="158.514,-485.713 155.727,-475.491 151.531,-485.22 158.514,-485.713"/>
<text text-anchor="middle" x="146.806" y="-497.584" font-family="Times,serif" font-size="14.00">a&#45;zA&#45;Z0&#45;9</text>
</g>
<!-- s26 -->
<g id="node21" class="node"><title>s26</title>
<ellipse fill="none" stroke="black" cx="246.479" cy="-263.392" rx="22.3004" ry="22.3004"/>
<ellipse fill="none" stroke="black" cx="246.479" cy="-263.392" rx="26.2841" ry="26.2841"/>
<text text-anchor="middle" x="246.479" y="-259.192" font-family="Times,serif" font-size="14.00">s26</text>
</g>
<!-- s31 -->
<g id="node26" class="node"><title>s31</title>
<ellipse fill="none" stroke="black" cx="246.479" cy="-89.3918" rx="22.3004" ry="22.3004"/>
<ellipse fill="none" stroke="black" cx="246.479" cy="-89.3918" rx="26.2841" ry="26.2841"/>
<text text-anchor="middle" x="246.479" y="-85.1918" font-family="Times,serif" font-size="14.00">s31</text>
</g>
<!-- s5&#45;&gt;s26 -->
<g id="edge26" class="edge"><title>s5&#45;&gt;s26</title>
<path fill="none" stroke="black" d="M164.819,-263.392C177.165,-263.392 194.316,-263.392 209.63,-263.392"/>
<polygon fill="black" stroke="black" points="209.857,-266.892 219.857,-263.392 209.856,-259.892 209.857,-266.892"/>
<text text-anchor="middle" x="196.643" y="-266.192" font-family="Times,serif" font-size="14.00">&amp;</text>
</g>
<!-- s19&#45;&gt;s31 -->
<g id="edge31" class="edge"><title>s19&#45;&gt;s31</title>
<path fill="none" stroke="black" d="M169.483,-88.6137C181.396,-88.7357 196.47,-88.89 210.047,-89.029"/>
<polygon fill="black" stroke="black" points="210.024,-92.5289 220.06,-89.1316 210.096,-85.5293 210.024,-92.5289"/>
<text text-anchor="middle" x="196.643" y="-92.1918" font-family="Times,serif" font-size="14.00">|</text>
</g>
<!-- s32 -->
<g id="node33" class="node"><title>s32</title>
<ellipse fill="none" stroke="black" cx="246.479" cy="-22.3918" rx="22.2841" ry="22.2841"/>
<text text-anchor="middle" x="246.479" y="-18.1918" font-family="Times,serif" font-size="14.00">s32</text>
</g>
<!-- s20&#45;&gt;s32 -->
<g id="edge32" class="edge"><title>s20&#45;&gt;s32</title>
<path fill="none" stroke="black" d="M169.483,-23.9479C182.508,-23.6812 199.311,-23.3372 213.805,-23.0404"/>
<polygon fill="black" stroke="black" points="213.937,-26.5385 223.863,-22.8344 213.793,-19.54 213.937,-26.5385"/>
<text text-anchor="middle" x="196.643" y="-27.1918" font-family="Times,serif" font-size="14.00">}</text>
</g>
</g>
</svg>
