<?xml version="1.0" encoding="UTF-8" standalone="no"?>
<!DOCTYPE svg PUBLIC "-//W3C//DTD SVG 1.1//EN"
 "http://www.w3.org/Graphics/SVG/1.1/DTD/svg11.dtd">
<!-- Generated by graphviz version 2.38.0 (20140413.2041)
 -->
<!-- Title: finite_state_machine Pages: 1 -->
<svg width="281pt" height="1627pt"
 viewBox="0.00 0.00 280.87 1627.39" xmlns="http://www.w3.org/2000/svg" xmlns:xlink="http://www.w3.org/1999/xlink">
<g id="graph0" class="graph" transform="scale(1 1) rotate(0) translate(4 1623.39)">
<title>finite_state_machine</title>
<polygon fill="white" stroke="none" points="-4,4 -4,-1623.39 276.871,-1623.39 276.871,4 -4,4"/>
<!-- s0 -->
<g id="node1" class="node"><title>s0</title>
<ellipse fill="none" stroke="black" cx="22" cy="-823.392" rx="18" ry="18"/>
<ellipse fill="none" stroke="black" cx="22" cy="-823.392" rx="22" ry="22"/>
<text text-anchor="middle" x="22" y="-819.192" font-family="Times,serif" font-size="14.00">s0</text>
</g>
<!-- s1 -->
<g id="node2" class="node"><title>s1</title>
<ellipse fill="none" stroke="black" cx="146.806" cy="-1597.39" rx="18" ry="18"/>
<ellipse fill="none" stroke="black" cx="146.806" cy="-1597.39" rx="22" ry="22"/>
<text text-anchor="middle" x="146.806" y="-1593.19" font-family="Times,serif" font-size="14.00">s1</text>
</g>
<!-- s0&#45;&gt;s1 -->
<g id="edge1" class="edge"><title>s0&#45;&gt;s1</title>
<path fill="none" stroke="black" d="M23.214,-845.576C24.4341,-958.03 31.5747,-1462.19 62,-1524.39 74.2039,-1549.34 99.1823,-1569.32 118.71,-1582.02"/>
<polygon fill="black" stroke="black" points="116.896,-1585.01 127.233,-1587.34 120.601,-1579.07 116.896,-1585.01"/>
<text text-anchor="middle" x="82.207" y="-1571.19" font-family="Times,serif" font-size="14.00"> </text>
</g>
<!-- s4 -->
<g id="node3" class="node"><title>s4</title>
<ellipse fill="none" stroke="black" cx="146.806" cy="-1535.39" rx="18" ry="18"/>
<ellipse fill="none" stroke="black" cx="146.806" cy="-1535.39" rx="22" ry="22"/>
<text text-anchor="middle" x="146.806" y="-1531.19" font-family="Times,serif" font-size="14.00">s4</text>
</g>
<!-- s0&#45;&gt;s4 -->
<g id="edge4" class="edge"><title>s0&#45;&gt;s4</title>
<path fill="none" stroke="black" d="M23.3538,-845.654C25.1777,-951.961 34.5188,-1405.11 62,-1461.39 74.2604,-1486.5 99.2317,-1506.77 118.742,-1519.7"/>
<polygon fill="black" stroke="black" points="116.941,-1522.7 127.257,-1525.12 120.698,-1516.8 116.941,-1522.7"/>
<text text-anchor="middle" x="82.207" y="-1509.19" font-family="Times,serif" font-size="14.00">%</text>
</g>
<!-- s7 -->
<g id="node4" class="node"><title>s7</title>
<ellipse fill="none" stroke="black" cx="146.806" cy="-1473.39" rx="18" ry="18"/>
<ellipse fill="none" stroke="black" cx="146.806" cy="-1473.39" rx="22" ry="22"/>
<text text-anchor="middle" x="146.806" y="-1469.19" font-family="Times,serif" font-size="14.00">s7</text>
</g>
<!-- s0&#45;&gt;s7 -->
<g id="edge7" class="edge"><title>s0&#45;&gt;s7</title>
<path fill="none" stroke="black" d="M23.5245,-845.364C26.0196,-944.441 37.5918,-1346.99 62,-1397.39 74.3244,-1422.84 99.2878,-1443.7 118.779,-1457.08"/>
<polygon fill="black" stroke="black" points="117.01,-1460.11 127.284,-1462.7 120.866,-1454.27 117.01,-1460.11"/>
<text text-anchor="middle" x="82.207" y="-1446.19" font-family="Times,serif" font-size="14.00">)</text>
</g>
<!-- s8 -->
<g id="node5" class="node"><title>s8</title>
<ellipse fill="none" stroke="black" cx="146.806" cy="-1411.39" rx="18" ry="18"/>
<ellipse fill="none" stroke="black" cx="146.806" cy="-1411.39" rx="22" ry="22"/>
<text text-anchor="middle" x="146.806" y="-1407.19" font-family="Times,serif" font-size="14.00">s8</text>
</g>
<!-- s0&#45;&gt;s8 -->
<g id="edge8" class="edge"><title>s0&#45;&gt;s8</title>
<path fill="none" stroke="black" d="M22.6036,-845.539C21.3777,-931.742 19.974,-1244.43 62,-1332.39 74.539,-1358.64 99.8892,-1380.56 119.442,-1394.61"/>
<polygon fill="black" stroke="black" points="117.466,-1397.5 127.681,-1400.31 121.451,-1391.74 117.466,-1397.5"/>
<text text-anchor="middle" x="82.207" y="-1382.19" font-family="Times,serif" font-size="14.00">*</text>
</g>
<!-- s9 -->
<g id="node6" class="node"><title>s9</title>
<ellipse fill="none" stroke="black" cx="146.806" cy="-1349.39" rx="18" ry="18"/>
<ellipse fill="none" stroke="black" cx="146.806" cy="-1349.39" rx="22" ry="22"/>
<text text-anchor="middle" x="146.806" y="-1345.19" font-family="Times,serif" font-size="14.00">s9</text>
</g>
<!-- s0&#45;&gt;s9 -->
<g id="edge9" class="edge"><title>s0&#45;&gt;s9</title>
<path fill="none" stroke="black" d="M23.0008,-845.437C23.3015,-923.853 26.9476,-1188.62 62,-1264.39 74.7896,-1292.04 100.524,-1315.96 120.12,-1331.32"/>
<polygon fill="black" stroke="black" points="118.005,-1334.11 128.087,-1337.37 122.236,-1328.53 118.005,-1334.11"/>
<text text-anchor="middle" x="82.207" y="-1317.19" font-family="Times,serif" font-size="14.00">+</text>
</g>
<!-- s10 -->
<g id="node7" class="node"><title>s10</title>
<ellipse fill="none" stroke="black" cx="146.806" cy="-1283.39" rx="22.3004" ry="22.3004"/>
<ellipse fill="none" stroke="black" cx="146.806" cy="-1283.39" rx="26.2841" ry="26.2841"/>
<text text-anchor="middle" x="146.806" y="-1279.19" font-family="Times,serif" font-size="14.00">s10</text>
</g>
<!-- s0&#45;&gt;s10 -->
<g id="edge10" class="edge"><title>s0&#45;&gt;s10</title>
<path fill="none" stroke="black" d="M23.5046,-845.41C25.3846,-915.211 33.4192,-1130.64 62,-1193.39 74.3896,-1220.59 98.2921,-1244.96 117.41,-1261.46"/>
<polygon fill="black" stroke="black" points="115.348,-1264.3 125.263,-1268.03 119.841,-1258.93 115.348,-1264.3"/>
<text text-anchor="middle" x="82.207" y="-1249.19" font-family="Times,serif" font-size="14.00">,</text>
</g>
<!-- s11 -->
<g id="node8" class="node"><title>s11</title>
<ellipse fill="none" stroke="black" cx="146.806" cy="-1213.39" rx="22.1256" ry="22.1256"/>
<ellipse fill="none" stroke="black" cx="146.806" cy="-1213.39" rx="26.1361" ry="26.1361"/>
<text text-anchor="middle" x="146.806" y="-1209.19" font-family="Times,serif" font-size="14.00">s11</text>
</g>
<!-- s0&#45;&gt;s11 -->
<g id="edge11" class="edge"><title>s0&#45;&gt;s11</title>
<path fill="none" stroke="black" d="M24.1443,-845.346C27.5591,-905.706 38.9037,-1072.95 62,-1122.39 74.7253,-1149.63 98.5963,-1174.3 117.617,-1191.05"/>
<polygon fill="black" stroke="black" points="115.551,-1193.89 125.425,-1197.73 120.102,-1188.57 115.551,-1193.89"/>
<text text-anchor="middle" x="82.207" y="-1178.19" font-family="Times,serif" font-size="14.00">&#45;</text>
</g>
<!-- s12 -->
<g id="node9" class="node"><title>s12</title>
<ellipse fill="none" stroke="black" cx="146.806" cy="-1143.39" rx="22.3004" ry="22.3004"/>
<ellipse fill="none" stroke="black" cx="146.806" cy="-1143.39" rx="26.2841" ry="26.2841"/>
<text text-anchor="middle" x="146.806" y="-1139.19" font-family="Times,serif" font-size="14.00">s12</text>
</g>
<!-- s0&#45;&gt;s12 -->
<g id="edge12" class="edge"><title>s0&#45;&gt;s12</title>
<path fill="none" stroke="black" d="M22.7489,-845.694C23.125,-888.01 28.0888,-981.922 62,-1051.39 75.2688,-1078.57 99.0889,-1103.54 117.951,-1120.58"/>
<polygon fill="black" stroke="black" points="115.866,-1123.41 125.687,-1127.39 120.489,-1118.16 115.866,-1123.41"/>
<text text-anchor="middle" x="82.207" y="-1107.19" font-family="Times,serif" font-size="14.00">.</text>
</g>
<!-- s13 -->
<g id="node10" class="node"><title>s13</title>
<ellipse fill="none" stroke="black" cx="146.806" cy="-1072.39" rx="22.3004" ry="22.3004"/>
<ellipse fill="none" stroke="black" cx="146.806" cy="-1072.39" rx="26.2841" ry="26.2841"/>
<text text-anchor="middle" x="146.806" y="-1068.19" font-family="Times,serif" font-size="14.00">s13</text>
</g>
<!-- s0&#45;&gt;s13 -->
<g id="edge13" class="edge"><title>s0&#45;&gt;s13</title>
<path fill="none" stroke="black" d="M25.0271,-845.427C28.6692,-876.966 38.2893,-936.062 62,-980.392 76.177,-1006.9 99.6965,-1031.77 118.217,-1048.95"/>
<polygon fill="black" stroke="black" points="116.045,-1051.7 125.806,-1055.82 120.745,-1046.52 116.045,-1051.7"/>
<text text-anchor="middle" x="82.207" y="-1036.19" font-family="Times,serif" font-size="14.00">/</text>
</g>
<!-- s14 -->
<g id="node11" class="node"><title>s14</title>
<ellipse fill="none" stroke="black" cx="146.806" cy="-1001.39" rx="22.3004" ry="22.3004"/>
<ellipse fill="none" stroke="black" cx="146.806" cy="-1001.39" rx="26.2841" ry="26.2841"/>
<text text-anchor="middle" x="146.806" y="-997.192" font-family="Times,serif" font-size="14.00">s14</text>
</g>
<!-- s0&#45;&gt;s14 -->
<g id="edge14" class="edge"><title>s0&#45;&gt;s14</title>
<path fill="none" stroke="black" d="M29.2715,-844.472C35.687,-864.1 46.8565,-893.662 62,-916.392 77.5439,-939.723 100.063,-962.132 117.844,-978.078"/>
<polygon fill="black" stroke="black" points="115.817,-980.957 125.638,-984.931 120.439,-975.699 115.817,-980.957"/>
<text text-anchor="middle" x="82.207" y="-965.192" font-family="Times,serif" font-size="14.00">:</text>
</g>
<!-- s15 -->
<g id="node12" class="node"><title>s15</title>
<ellipse fill="none" stroke="black" cx="146.806" cy="-930.392" rx="22.3004" ry="22.3004"/>
<ellipse fill="none" stroke="black" cx="146.806" cy="-930.392" rx="26.2841" ry="26.2841"/>
<text text-anchor="middle" x="146.806" y="-926.192" font-family="Times,serif" font-size="14.00">s15</text>
</g>
<!-- s0&#45;&gt;s15 -->
<g id="edge15" class="edge"><title>s0&#45;&gt;s15</title>
<path fill="none" stroke="black" d="M37.2289,-839.938C44.3747,-847.923 53.3375,-857.465 62,-865.392 79.2362,-881.163 99.9739,-897.268 116.508,-909.502"/>
<polygon fill="black" stroke="black" points="114.595,-912.439 124.73,-915.525 118.731,-906.792 114.595,-912.439"/>
<text text-anchor="middle" x="82.207" y="-901.192" font-family="Times,serif" font-size="14.00">&lt;</text>
</g>
<!-- s16 -->
<g id="node13" class="node"><title>s16</title>
<ellipse fill="none" stroke="black" cx="146.806" cy="-859.392" rx="22.3004" ry="22.3004"/>
<ellipse fill="none" stroke="black" cx="146.806" cy="-859.392" rx="26.2841" ry="26.2841"/>
<text text-anchor="middle" x="146.806" y="-855.192" font-family="Times,serif" font-size="14.00">s16</text>
</g>
<!-- s0&#45;&gt;s16 -->
<g id="edge16" class="edge"><title>s0&#45;&gt;s16</title>
<path fill="none" stroke="black" d="M43.2789,-829.336C61.8293,-834.774 89.6474,-842.929 111.629,-849.373"/>
<polygon fill="black" stroke="black" points="110.682,-852.743 121.263,-852.197 112.652,-846.025 110.682,-852.743"/>
<text text-anchor="middle" x="82.207" y="-850.192" font-family="Times,serif" font-size="14.00">=</text>
</g>
<!-- s17 -->
<g id="node14" class="node"><title>s17</title>
<ellipse fill="none" stroke="black" cx="146.806" cy="-788.392" rx="22.3004" ry="22.3004"/>
<ellipse fill="none" stroke="black" cx="146.806" cy="-788.392" rx="26.2841" ry="26.2841"/>
<text text-anchor="middle" x="146.806" y="-784.192" font-family="Times,serif" font-size="14.00">s17</text>
</g>
<!-- s0&#45;&gt;s17 -->
<g id="edge17" class="edge"><title>s0&#45;&gt;s17</title>
<path fill="none" stroke="black" d="M43.2789,-817.612C61.8293,-812.325 89.6474,-804.397 111.629,-798.132"/>
<polygon fill="black" stroke="black" points="112.606,-801.493 121.263,-795.387 110.687,-794.762 112.606,-801.493"/>
<text text-anchor="middle" x="82.207" y="-815.192" font-family="Times,serif" font-size="14.00">&gt;</text>
</g>
<!-- s18 -->
<g id="node15" class="node"><title>s18</title>
<ellipse fill="none" stroke="black" cx="146.806" cy="-717.392" rx="22.3004" ry="22.3004"/>
<ellipse fill="none" stroke="black" cx="146.806" cy="-717.392" rx="26.2841" ry="26.2841"/>
<text text-anchor="middle" x="146.806" y="-713.192" font-family="Times,serif" font-size="14.00">s18</text>
</g>
<!-- s0&#45;&gt;s18 -->
<g id="edge18" class="edge"><title>s0&#45;&gt;s18</title>
<path fill="none" stroke="black" d="M37.7294,-807.339C44.8438,-799.834 53.6356,-790.916 62,-783.392 79.4701,-767.676 100.21,-751.326 116.687,-738.831"/>
<polygon fill="black" stroke="black" points="118.987,-741.48 124.874,-732.671 114.779,-735.886 118.987,-741.48"/>
<text text-anchor="middle" x="82.207" y="-786.192" font-family="Times,serif" font-size="14.00">^</text>
</g>
<!-- s22 -->
<g id="node16" class="node"><title>s22</title>
<ellipse fill="none" stroke="black" cx="146.806" cy="-614.392" rx="22.3004" ry="22.3004"/>
<ellipse fill="none" stroke="black" cx="146.806" cy="-614.392" rx="26.2841" ry="26.2841"/>
<text text-anchor="middle" x="146.806" y="-610.192" font-family="Times,serif" font-size="14.00">s22</text>
</g>
<!-- s0&#45;&gt;s22 -->
<g id="edge22" class="edge"><title>s0&#45;&gt;s22</title>
<path fill="none" stroke="black" d="M30.335,-802.925C37.4179,-784.086 48.9656,-755.628 62,-732.392 80.1748,-699.993 105.308,-665.66 123.301,-642.432"/>
<polygon fill="black" stroke="black" points="126.178,-644.435 129.581,-634.402 120.664,-640.123 126.178,-644.435"/>
<text text-anchor="middle" x="82.207" y="-735.192" font-family="Times,serif" font-size="14.00">0&#45;9</text>
</g>
<!-- s23 -->
<g id="node17" class="node"><title>s23</title>
<ellipse fill="none" stroke="black" cx="146.806" cy="-511.392" rx="22.3004" ry="22.3004"/>
<ellipse fill="none" stroke="black" cx="146.806" cy="-511.392" rx="26.2841" ry="26.2841"/>
<text text-anchor="middle" x="146.806" y="-507.192" font-family="Times,serif" font-size="14.00">s23</text>
</g>
<!-- s0&#45;&gt;s23 -->
<g id="edge23" class="edge"><title>s0&#45;&gt;s23</title>
<path fill="none" stroke="black" d="M25.936,-801.554C30.7968,-768.892 42.0194,-705.77 62,-655.392 78.5512,-613.661 105.837,-569.602 124.758,-541.376"/>
<polygon fill="black" stroke="black" points="127.864,-543.031 130.583,-532.791 122.072,-539.101 127.864,-543.031"/>
<text text-anchor="middle" x="82.207" y="-658.192" font-family="Times,serif" font-size="14.00">a&#45;zA&#45;Z</text>
</g>
<!-- s24 -->
<g id="node18" class="node"><title>s24</title>
<ellipse fill="none" stroke="black" cx="146.806" cy="-440.392" rx="22.3004" ry="22.3004"/>
<ellipse fill="none" stroke="black" cx="146.806" cy="-440.392" rx="26.2841" ry="26.2841"/>
<text text-anchor="middle" x="146.806" y="-436.192" font-family="Times,serif" font-size="14.00">s24</text>
</g>
<!-- s0&#45;&gt;s24 -->
<g id="edge24" class="edge"><title>s0&#45;&gt;s24</title>
<path fill="none" stroke="black" d="M22.978,-801.138C23.6392,-754.844 28.9072,-645.479 62,-561.392 75.9796,-525.87 102.182,-490.602 121.581,-467.388"/>
<polygon fill="black" stroke="black" points="124.31,-469.581 128.128,-459.698 118.98,-465.043 124.31,-469.581"/>
<text text-anchor="middle" x="82.207" y="-564.192" font-family="Times,serif" font-size="14.00">EOF</text>
</g>
<!-- s2 -->
<g id="node27" class="node"><title>s2</title>
<ellipse fill="none" stroke="black" cx="146.806" cy="-378.392" rx="18" ry="18"/>
<text text-anchor="middle" x="146.806" y="-374.192" font-family="Times,serif" font-size="14.00">s2</text>
</g>
<!-- s0&#45;&gt;s2 -->
<g id="edge2" class="edge"><title>s0&#45;&gt;s2</title>
<path fill="none" stroke="black" d="M23.8178,-801.337C26.5561,-734.42 36.6966,-534.659 62,-475.392 75.8245,-443.011 104.568,-413.608 124.511,-395.867"/>
<polygon fill="black" stroke="black" points="126.92,-398.412 132.192,-389.222 122.339,-393.119 126.92,-398.412"/>
<text text-anchor="middle" x="82.207" y="-478.192" font-family="Times,serif" font-size="14.00">!</text>
</g>
<!-- s3 -->
<g id="node28" class="node"><title>s3</title>
<ellipse fill="none" stroke="black" cx="146.806" cy="-324.392" rx="18" ry="18"/>
<text text-anchor="middle" x="146.806" y="-320.192" font-family="Times,serif" font-size="14.00">s3</text>
</g>
<!-- s0&#45;&gt;s3 -->
<g id="edge3" class="edge"><title>s0&#45;&gt;s3</title>
<path fill="none" stroke="black" d="M22.9747,-801.185C23.2048,-724.653 26.6874,-472.679 62,-401.392 75.3858,-374.369 102.599,-352.199 122.394,-338.7"/>
<polygon fill="black" stroke="black" points="124.452,-341.535 130.891,-333.121 120.61,-335.684 124.452,-341.535"/>
<text text-anchor="middle" x="82.207" y="-404.192" font-family="Times,serif" font-size="14.00">&quot;</text>
</g>
<!-- s5 -->
<g id="node29" class="node"><title>s5</title>
<ellipse fill="none" stroke="black" cx="146.806" cy="-270.392" rx="18" ry="18"/>
<text text-anchor="middle" x="146.806" y="-266.192" font-family="Times,serif" font-size="14.00">s5</text>
</g>
<!-- s0&#45;&gt;s5 -->
<g id="edge5" class="edge"><title>s0&#45;&gt;s5</title>
<path fill="none" stroke="black" d="M23.7468,-801.244C26.9071,-711.631 40.0386,-378.742 62,-337.392 75.1248,-312.68 101.701,-293.901 121.424,-282.6"/>
<polygon fill="black" stroke="black" points="123.105,-285.67 130.198,-277.8 119.746,-279.529 123.105,-285.67"/>
<text text-anchor="middle" x="82.207" y="-340.192" font-family="Times,serif" font-size="14.00">&amp;</text>
</g>
<!-- s6 -->
<g id="node30" class="node"><title>s6</title>
<ellipse fill="none" stroke="black" cx="146.806" cy="-216.392" rx="18" ry="18"/>
<text text-anchor="middle" x="146.806" y="-212.192" font-family="Times,serif" font-size="14.00">s6</text>
</g>
<!-- s0&#45;&gt;s6 -->
<g id="edge6" class="edge"><title>s0&#45;&gt;s6</title>
<path fill="none" stroke="black" d="M23.4993,-801.193C25.8145,-704.739 36.4946,-324.787 62,-278.392 74.9624,-254.813 101.134,-237.71 120.801,-227.514"/>
<polygon fill="black" stroke="black" points="122.418,-230.619 129.846,-223.065 119.328,-224.338 122.418,-230.619"/>
<text text-anchor="middle" x="82.207" y="-281.192" font-family="Times,serif" font-size="14.00">&#39;</text>
</g>
<!-- s19 -->
<g id="node31" class="node"><title>s19</title>
<ellipse fill="none" stroke="black" cx="146.806" cy="-158.392" rx="22.2841" ry="22.2841"/>
<text text-anchor="middle" x="146.806" y="-154.192" font-family="Times,serif" font-size="14.00">s19</text>
</g>
<!-- s0&#45;&gt;s19 -->
<g id="edge19" class="edge"><title>s0&#45;&gt;s19</title>
<path fill="none" stroke="black" d="M23.345,-801.327C25.0903,-698.975 33.992,-273.221 62,-221.392 74.0475,-199.098 97.7767,-182.42 116.919,-171.843"/>
<polygon fill="black" stroke="black" points="118.648,-174.889 125.876,-167.143 115.395,-168.69 118.648,-174.889"/>
<text text-anchor="middle" x="82.207" y="-224.192" font-family="Times,serif" font-size="14.00">`</text>
</g>
<!-- s20 -->
<g id="node32" class="node"><title>s20</title>
<ellipse fill="none" stroke="black" cx="146.806" cy="-95.3918" rx="22.2841" ry="22.2841"/>
<text text-anchor="middle" x="146.806" y="-91.1918" font-family="Times,serif" font-size="14.00">s20</text>
</g>
<!-- s0&#45;&gt;s20 -->
<g id="edge20" class="edge"><title>s0&#45;&gt;s20</title>
<path fill="none" stroke="black" d="M23.2669,-801.102C24.7067,-692.555 32.6093,-222.173 62,-164.392 74.0973,-140.609 98.4463,-122.028 117.796,-110.169"/>
<polygon fill="black" stroke="black" points="119.683,-113.12 126.544,-105.047 116.146,-107.079 119.683,-113.12"/>
<text text-anchor="middle" x="82.207" y="-167.192" font-family="Times,serif" font-size="14.00">|</text>
</g>
<!-- s21 -->
<g id="node33" class="node"><title>s21</title>
<ellipse fill="none" stroke="black" cx="146.806" cy="-30.3918" rx="22.2841" ry="22.2841"/>
<text text-anchor="middle" x="146.806" y="-26.1918" font-family="Times,serif" font-size="14.00">s21</text>
</g>
<!-- s0&#45;&gt;s21 -->
<g id="edge21" class="edge"><title>s0&#45;&gt;s21</title>
<path fill="none" stroke="black" d="M23.187,-801.398C24.2879,-687.601 30.9875,-168.458 62,-104.392 74.1008,-79.3938 98.8557,-59.2223 118.339,-46.2914"/>
<polygon fill="black" stroke="black" points="120.3,-49.1919 126.855,-40.8683 116.54,-43.2873 120.3,-49.1919"/>
<text text-anchor="middle" x="82.207" y="-107.192" font-family="Times,serif" font-size="14.00">}</text>
</g>
<!-- s26 -->
<g id="node34" class="node"><title>s26</title>
<ellipse fill="none" stroke="black" cx="246.479" cy="-1535.39" rx="22.2841" ry="22.2841"/>
<text text-anchor="middle" x="246.479" y="-1531.19" font-family="Times,serif" font-size="14.00">s26</text>
</g>
<!-- s4&#45;&gt;s26 -->
<g id="edge26" class="edge"><title>s4&#45;&gt;s26</title>
<path fill="none" stroke="black" d="M169,-1535.39C182.092,-1535.39 199.138,-1535.39 213.813,-1535.39"/>
<polygon fill="black" stroke="black" points="213.99,-1538.89 223.99,-1535.39 213.99,-1531.89 213.99,-1538.89"/>
<text text-anchor="middle" x="196.643" y="-1538.19" font-family="Times,serif" font-size="14.00">}</text>
</g>
<!-- s28 -->
<g id="node21" class="node"><title>s28</title>
<ellipse fill="none" stroke="black" cx="246.479" cy="-1001.39" rx="22.3004" ry="22.3004"/>
<ellipse fill="none" stroke="black" cx="246.479" cy="-1001.39" rx="26.2841" ry="26.2841"/>
<text text-anchor="middle" x="246.479" y="-997.192" font-family="Times,serif" font-size="14.00">s28</text>
</g>
<!-- s15&#45;&gt;s28 -->
<g id="edge28" class="edge"><title>s15&#45;&gt;s28</title>
<path fill="none" stroke="black" d="M168.52,-945.449C182.411,-955.547 200.907,-968.992 216.285,-980.17"/>
<polygon fill="black" stroke="black" points="214.312,-983.063 224.458,-986.111 218.427,-977.401 214.312,-983.063"/>
<text text-anchor="middle" x="196.643" y="-972.192" font-family="Times,serif" font-size="14.00">=</text>
</g>
<!-- s29 -->
<g id="node22" class="node"><title>s29</title>
<ellipse fill="none" stroke="black" cx="246.479" cy="-930.392" rx="22.3004" ry="22.3004"/>
<ellipse fill="none" stroke="black" cx="246.479" cy="-930.392" rx="26.2841" ry="26.2841"/>
<text text-anchor="middle" x="246.479" y="-926.192" font-family="Times,serif" font-size="14.00">s29</text>
</g>
<!-- s15&#45;&gt;s29 -->
<g id="edge29" class="edge"><title>s15&#45;&gt;s29</title>
<path fill="none" stroke="black" d="M173.213,-930.392C184.318,-930.392 197.54,-930.392 209.62,-930.392"/>
<polygon fill="black" stroke="black" points="209.86,-933.892 219.86,-930.392 209.859,-926.892 209.86,-933.892"/>
<text text-anchor="middle" x="196.643" y="-933.192" font-family="Times,serif" font-size="14.00">&gt;</text>
</g>
<!-- s30 -->
<g id="node23" class="node"><title>s30</title>
<ellipse fill="none" stroke="black" cx="246.479" cy="-859.392" rx="22.3004" ry="22.3004"/>
<ellipse fill="none" stroke="black" cx="246.479" cy="-859.392" rx="26.2841" ry="26.2841"/>
<text text-anchor="middle" x="246.479" y="-855.192" font-family="Times,serif" font-size="14.00">s30</text>
</g>
<!-- s16&#45;&gt;s30 -->
<g id="edge30" class="edge"><title>s16&#45;&gt;s30</title>
<path fill="none" stroke="black" d="M173.213,-859.392C184.318,-859.392 197.54,-859.392 209.62,-859.392"/>
<polygon fill="black" stroke="black" points="209.86,-862.892 219.86,-859.392 209.859,-855.892 209.86,-862.892"/>
<text text-anchor="middle" x="196.643" y="-862.192" font-family="Times,serif" font-size="14.00">=</text>
</g>
<!-- s31 -->
<g id="node24" class="node"><title>s31</title>
<ellipse fill="none" stroke="black" cx="246.479" cy="-788.392" rx="22.3004" ry="22.3004"/>
<ellipse fill="none" stroke="black" cx="246.479" cy="-788.392" rx="26.2841" ry="26.2841"/>
<text text-anchor="middle" x="246.479" y="-784.192" font-family="Times,serif" font-size="14.00">s31</text>
</g>
<!-- s17&#45;&gt;s31 -->
<g id="edge31" class="edge"><title>s17&#45;&gt;s31</title>
<path fill="none" stroke="black" d="M173.213,-788.392C184.318,-788.392 197.54,-788.392 209.62,-788.392"/>
<polygon fill="black" stroke="black" points="209.86,-791.892 219.86,-788.392 209.859,-784.892 209.86,-791.892"/>
<text text-anchor="middle" x="196.643" y="-791.192" font-family="Times,serif" font-size="14.00">=</text>
</g>
<!-- s22&#45;&gt;s22 -->
<g id="edge34" class="edge"><title>s22&#45;&gt;s22</title>
<path fill="none" stroke="black" d="M137.885,-639.491C137.27,-649.933 140.243,-658.784 146.806,-658.784 151.01,-658.784 153.741,-655.151 155,-649.795"/>
<polygon fill="black" stroke="black" points="158.514,-649.713 155.727,-639.491 151.531,-649.22 158.514,-649.713"/>
<text text-anchor="middle" x="146.806" y="-661.584" font-family="Times,serif" font-size="14.00">0&#45;9</text>
</g>
<!-- s23&#45;&gt;s23 -->
<g id="edge35" class="edge"><title>s23&#45;&gt;s23</title>
<path fill="none" stroke="black" d="M137.885,-536.491C137.27,-546.933 140.243,-555.784 146.806,-555.784 151.01,-555.784 153.741,-552.151 155,-546.795"/>
<polygon fill="black" stroke="black" points="158.514,-546.713 155.727,-536.491 151.531,-546.22 158.514,-546.713"/>
<text text-anchor="middle" x="146.806" y="-558.584" font-family="Times,serif" font-size="14.00">a&#45;zA&#45;Z0&#45;9</text>
</g>
<!-- s25 -->
<g id="node19" class="node"><title>s25</title>
<ellipse fill="none" stroke="black" cx="246.479" cy="-378.392" rx="22.3004" ry="22.3004"/>
<ellipse fill="none" stroke="black" cx="246.479" cy="-378.392" rx="26.2841" ry="26.2841"/>
<text text-anchor="middle" x="246.479" y="-374.192" font-family="Times,serif" font-size="14.00">s25</text>
</g>
<!-- s27 -->
<g id="node20" class="node"><title>s27</title>
<ellipse fill="none" stroke="black" cx="246.479" cy="-270.392" rx="22.3004" ry="22.3004"/>
<ellipse fill="none" stroke="black" cx="246.479" cy="-270.392" rx="26.2841" ry="26.2841"/>
<text text-anchor="middle" x="246.479" y="-266.192" font-family="Times,serif" font-size="14.00">s27</text>
</g>
<!-- s32 -->
<g id="node25" class="node"><title>s32</title>
<ellipse fill="none" stroke="black" cx="246.479" cy="-97.3918" rx="22.3004" ry="22.3004"/>
<ellipse fill="none" stroke="black" cx="246.479" cy="-97.3918" rx="26.2841" ry="26.2841"/>
<text text-anchor="middle" x="246.479" y="-93.1918" font-family="Times,serif" font-size="14.00">s32</text>
</g>
<!-- s33 -->
<g id="node26" class="node"><title>s33</title>
<ellipse fill="none" stroke="black" cx="246.479" cy="-26.3918" rx="22.3004" ry="22.3004"/>
<ellipse fill="none" stroke="black" cx="246.479" cy="-26.3918" rx="26.2841" ry="26.2841"/>
<text text-anchor="middle" x="246.479" y="-22.1918" font-family="Times,serif" font-size="14.00">s33</text>
</g>
<!-- s2&#45;&gt;s25 -->
<g id="edge25" class="edge"><title>s2&#45;&gt;s25</title>
<path fill="none" stroke="black" d="M164.819,-378.392C177.165,-378.392 194.316,-378.392 209.63,-378.392"/>
<polygon fill="black" stroke="black" points="209.857,-381.892 219.857,-378.392 209.856,-374.892 209.857,-381.892"/>
<text text-anchor="middle" x="196.643" y="-381.192" font-family="Times,serif" font-size="14.00">=</text>
</g>
<!-- s5&#45;&gt;s27 -->
<g id="edge27" class="edge"><title>s5&#45;&gt;s27</title>
<path fill="none" stroke="black" d="M164.819,-270.392C177.165,-270.392 194.316,-270.392 209.63,-270.392"/>
<polygon fill="black" stroke="black" points="209.857,-273.892 219.857,-270.392 209.856,-266.892 209.857,-273.892"/>
<text text-anchor="middle" x="196.643" y="-273.192" font-family="Times,serif" font-size="14.00">&amp;</text>
</g>
<!-- s20&#45;&gt;s32 -->
<g id="edge32" class="edge"><title>s20&#45;&gt;s32</title>
<path fill="none" stroke="black" d="M169.483,-95.8357C181.396,-96.0796 196.47,-96.3883 210.047,-96.6663"/>
<polygon fill="black" stroke="black" points="209.99,-100.166 220.06,-96.8713 210.133,-93.1672 209.99,-100.166"/>
<text text-anchor="middle" x="196.643" y="-100.192" font-family="Times,serif" font-size="14.00">|</text>
</g>
<!-- s21&#45;&gt;s33 -->
<g id="edge33" class="edge"><title>s21&#45;&gt;s33</title>
<path fill="none" stroke="black" d="M169.483,-29.5041C181.396,-29.0162 196.47,-28.3989 210.047,-27.8429"/>
<polygon fill="black" stroke="black" points="210.211,-31.3392 220.06,-27.4328 209.925,-24.345 210.211,-31.3392"/>
<text text-anchor="middle" x="196.643" y="-32.1918" font-family="Times,serif" font-size="14.00">}</text>
</g>
</g>
</svg>
