<?xml version="1.0" encoding="UTF-8" standalone="no"?>
<!DOCTYPE svg PUBLIC "-//W3C//DTD SVG 1.1//EN"
 "http://www.w3.org/Graphics/SVG/1.1/DTD/svg11.dtd">
<!-- Generated by graphviz version 2.38.0 (20140413.2041)
 -->
<!-- Title: finite_state_machine Pages: 1 -->
<svg width="324pt" height="166pt"
 viewBox="0.00 0.00 324.17 166.00" xmlns="http://www.w3.org/2000/svg" xmlns:xlink="http://www.w3.org/1999/xlink">
<g id="graph0" class="graph" transform="scale(1 1) rotate(0) translate(4 162)">
<title>finite_state_machine</title>
<polygon fill="white" stroke="none" points="-4,4 -4,-162 320.168,-162 320.168,4 -4,4"/>
<!-- s3 -->
<g id="node1" class="node"><title>s3</title>
<ellipse fill="none" stroke="black" cx="120.448" cy="-136" rx="18" ry="18"/>
<ellipse fill="none" stroke="black" cx="120.448" cy="-136" rx="22" ry="22"/>
<text text-anchor="middle" x="120.448" y="-131.8" font-family="Times,serif" font-size="14.00">s3</text>
</g>
<!-- s4 -->
<g id="node2" class="node"><title>s4</title>
<ellipse fill="none" stroke="black" cx="207.168" cy="-80" rx="18" ry="18"/>
<ellipse fill="none" stroke="black" cx="207.168" cy="-80" rx="22" ry="22"/>
<text text-anchor="middle" x="207.168" y="-75.8" font-family="Times,serif" font-size="14.00">s4</text>
</g>
<!-- s6 -->
<g id="node3" class="node"><title>s6</title>
<ellipse fill="none" stroke="black" cx="294.168" cy="-22" rx="18" ry="18"/>
<ellipse fill="none" stroke="black" cx="294.168" cy="-22" rx="22" ry="22"/>
<text text-anchor="middle" x="294.168" y="-17.8" font-family="Times,serif" font-size="14.00">s6</text>
</g>
<!-- s0 -->
<g id="node4" class="node"><title>s0</title>
<ellipse fill="none" stroke="black" cx="18" cy="-78" rx="18" ry="18"/>
<text text-anchor="middle" x="18" y="-73.8" font-family="Times,serif" font-size="14.00">s0</text>
</g>
<!-- s0&#45;&gt;s3 -->
<g id="edge3" class="edge"><title>s0&#45;&gt;s3</title>
<path fill="none" stroke="black" d="M34.2559,-86.809C49.5618,-95.6468 73.4695,-109.451 92.0671,-120.19"/>
<polygon fill="black" stroke="black" points="90.5613,-123.362 100.971,-125.331 94.0616,-117.3 90.5613,-123.362"/>
<text text-anchor="middle" x="67.2241" y="-114.8" font-family="Times,serif" font-size="14.00">EOF</text>
</g>
<!-- s1 -->
<g id="node5" class="node"><title>s1</title>
<ellipse fill="none" stroke="black" cx="120.448" cy="-78" rx="18" ry="18"/>
<text text-anchor="middle" x="120.448" y="-73.8" font-family="Times,serif" font-size="14.00">s1</text>
</g>
<!-- s0&#45;&gt;s1 -->
<g id="edge1" class="edge"><title>s0&#45;&gt;s1</title>
<path fill="none" stroke="black" d="M36.0397,-78C51.4083,-78 74.2805,-78 92.1887,-78"/>
<polygon fill="black" stroke="black" points="92.325,-81.5001 102.325,-78 92.3249,-74.5001 92.325,-81.5001"/>
<text text-anchor="middle" x="67.2241" y="-80.8" font-family="Times,serif" font-size="14.00">#</text>
</g>
<!-- s2 -->
<g id="node6" class="node"><title>s2</title>
<ellipse fill="none" stroke="black" cx="120.448" cy="-24" rx="18" ry="18"/>
<text text-anchor="middle" x="120.448" y="-19.8" font-family="Times,serif" font-size="14.00">s2</text>
</g>
<!-- s0&#45;&gt;s2 -->
<g id="edge2" class="edge"><title>s0&#45;&gt;s2</title>
<path fill="none" stroke="black" d="M34.2559,-69.7986C50.407,-61.1159 76.1358,-47.2844 95.0968,-37.0911"/>
<polygon fill="black" stroke="black" points="96.8981,-40.0965 104.049,-32.2786 93.5835,-33.9309 96.8981,-40.0965"/>
<text text-anchor="middle" x="67.2241" y="-60.8" font-family="Times,serif" font-size="14.00">{</text>
</g>
<!-- s1&#45;&gt;s4 -->
<g id="edge4" class="edge"><title>s1&#45;&gt;s4</title>
<path fill="none" stroke="black" d="M138.593,-78.4047C148.989,-78.6502 162.571,-78.9708 174.829,-79.2602"/>
<polygon fill="black" stroke="black" points="175.068,-82.7667 185.148,-79.5038 175.233,-75.7686 175.068,-82.7667"/>
<text text-anchor="middle" x="163.808" y="-81.8" font-family="Times,serif" font-size="14.00">}</text>
</g>
<!-- s5 -->
<g id="node7" class="node"><title>s5</title>
<ellipse fill="none" stroke="black" cx="207.168" cy="-22" rx="18" ry="18"/>
<text text-anchor="middle" x="207.168" y="-17.8" font-family="Times,serif" font-size="14.00">s5</text>
</g>
<!-- s2&#45;&gt;s5 -->
<g id="edge5" class="edge"><title>s2&#45;&gt;s5</title>
<path fill="none" stroke="black" d="M138.593,-23.5953C150.191,-23.3215 165.754,-22.9541 179.021,-22.6409"/>
<polygon fill="black" stroke="black" points="179.135,-26.1393 189.049,-22.4041 178.969,-19.1412 179.135,-26.1393"/>
<text text-anchor="middle" x="163.808" y="-25.8" font-family="Times,serif" font-size="14.00">\</text>
</g>
<!-- s5&#45;&gt;s6 -->
<g id="edge6" class="edge"><title>s5&#45;&gt;s6</title>
<path fill="none" stroke="black" d="M225.369,-22C235.799,-22 249.426,-22 261.725,-22"/>
<polygon fill="black" stroke="black" points="262.078,-25.5001 272.078,-22 262.078,-18.5001 262.078,-25.5001"/>
<text text-anchor="middle" x="250.668" y="-24.8" font-family="Times,serif" font-size="14.00">#</text>
</g>
</g>
</svg>
