<?xml version="1.0" encoding="UTF-8" standalone="no"?>
<!DOCTYPE svg PUBLIC "-//W3C//DTD SVG 1.1//EN"
 "http://www.w3.org/Graphics/SVG/1.1/DTD/svg11.dtd">
<!-- Generated by graphviz version 2.38.0 (20140413.2041)
 -->
<!-- Title: finite_state_machine Pages: 1 -->
<svg width="150pt" height="106pt"
 viewBox="0.00 0.00 150.45 106.00" xmlns="http://www.w3.org/2000/svg" xmlns:xlink="http://www.w3.org/1999/xlink">
<g id="graph0" class="graph" transform="scale(1 1) rotate(0) translate(4 102)">
<title>finite_state_machine</title>
<polygon fill="white" stroke="none" points="-4,4 -4,-102 146.448,-102 146.448,4 -4,4"/>
<!-- s2 -->
<g id="node1" class="node"><title>s2</title>
<ellipse fill="none" stroke="black" cx="120.448" cy="-76" rx="18" ry="18"/>
<ellipse fill="none" stroke="black" cx="120.448" cy="-76" rx="22" ry="22"/>
<text text-anchor="middle" x="120.448" y="-71.8" font-family="Times,serif" font-size="14.00">s2</text>
</g>
<!-- s0 -->
<g id="node2" class="node"><title>s0</title>
<ellipse fill="none" stroke="black" cx="18" cy="-47" rx="18" ry="18"/>
<text text-anchor="middle" x="18" y="-42.8" font-family="Times,serif" font-size="14.00">s0</text>
</g>
<!-- s0&#45;&gt;s2 -->
<g id="edge2" class="edge"><title>s0&#45;&gt;s2</title>
<path fill="none" stroke="black" d="M35.587,-51.7888C50.1202,-55.9846 71.608,-62.1882 89.1938,-67.2654"/>
<polygon fill="black" stroke="black" points="88.4367,-70.6897 99.0151,-70.1008 90.3783,-63.9643 88.4367,-70.6897"/>
<text text-anchor="middle" x="67.2241" y="-66.8" font-family="Times,serif" font-size="14.00">EOF</text>
</g>
<!-- s1 -->
<g id="node3" class="node"><title>s1</title>
<ellipse fill="none" stroke="black" cx="120.448" cy="-18" rx="18" ry="18"/>
<text text-anchor="middle" x="120.448" y="-13.8" font-family="Times,serif" font-size="14.00">s1</text>
</g>
<!-- s0&#45;&gt;s1 -->
<g id="edge1" class="edge"><title>s0&#45;&gt;s1</title>
<path fill="none" stroke="black" d="M34.8416,-40.0582C40.778,-37.6182 47.6285,-34.9912 54,-33 66.5642,-29.0734 80.7785,-25.6923 92.7426,-23.1395"/>
<polygon fill="black" stroke="black" points="93.4893,-26.5593 102.579,-21.1164 92.0791,-19.7028 93.4893,-26.5593"/>
<text text-anchor="middle" x="67.2241" y="-41.8" font-family="Times,serif" font-size="14.00">◉</text>
</g>
</g>
</svg>
