<?xml version="1.0" encoding="UTF-8" standalone="no"?>
<!DOCTYPE svg PUBLIC "-//W3C//DTD SVG 1.1//EN"
 "http://www.w3.org/Graphics/SVG/1.1/DTD/svg11.dtd">
<!-- Generated by graphviz version 2.38.0 (20140413.2041)
 -->
<!-- Title: finite_state_machine Pages: 1 -->
<svg width="312pt" height="172pt"
 viewBox="0.00 0.00 311.77 172.00" xmlns="http://www.w3.org/2000/svg" xmlns:xlink="http://www.w3.org/1999/xlink">
<g id="graph0" class="graph" transform="scale(1 1) rotate(0) translate(4 168)">
<title>finite_state_machine</title>
<polygon fill="white" stroke="none" points="-4,4 -4,-168 307.772,-168 307.772,4 -4,4"/>
<!-- s1 -->
<g id="node1" class="node"><title>s1</title>
<ellipse fill="none" stroke="black" cx="120.448" cy="-142" rx="18" ry="18"/>
<ellipse fill="none" stroke="black" cx="120.448" cy="-142" rx="22" ry="22"/>
<text text-anchor="middle" x="120.448" y="-137.8" font-family="Times,serif" font-size="14.00">s1</text>
</g>
<!-- s3 -->
<g id="node2" class="node"><title>s3</title>
<ellipse fill="none" stroke="black" cx="120.448" cy="-80" rx="18" ry="18"/>
<ellipse fill="none" stroke="black" cx="120.448" cy="-80" rx="22" ry="22"/>
<text text-anchor="middle" x="120.448" y="-75.8" font-family="Times,serif" font-size="14.00">s3</text>
</g>
<!-- s5 -->
<g id="node3" class="node"><title>s5</title>
<ellipse fill="none" stroke="black" cx="281.772" cy="-22" rx="18" ry="18"/>
<ellipse fill="none" stroke="black" cx="281.772" cy="-22" rx="22" ry="22"/>
<text text-anchor="middle" x="281.772" y="-17.8" font-family="Times,serif" font-size="14.00">s5</text>
</g>
<!-- s0 -->
<g id="node4" class="node"><title>s0</title>
<ellipse fill="none" stroke="black" cx="18" cy="-80" rx="18" ry="18"/>
<text text-anchor="middle" x="18" y="-75.8" font-family="Times,serif" font-size="14.00">s0</text>
</g>
<!-- s0&#45;&gt;s1 -->
<g id="edge1" class="edge"><title>s0&#45;&gt;s1</title>
<path fill="none" stroke="black" d="M33.8215,-89.1483C49.2042,-98.6431 73.6022,-113.702 92.4265,-125.321"/>
<polygon fill="black" stroke="black" points="90.8079,-128.435 101.156,-130.709 94.4846,-122.479 90.8079,-128.435"/>
<text text-anchor="middle" x="67.2241" y="-118.8" font-family="Times,serif" font-size="14.00">[</text>
</g>
<!-- s0&#45;&gt;s3 -->
<g id="edge3" class="edge"><title>s0&#45;&gt;s3</title>
<path fill="none" stroke="black" d="M36.0397,-80C50.2237,-80 70.7991,-80 87.9648,-80"/>
<polygon fill="black" stroke="black" points="88.1247,-83.5001 98.1246,-80 88.1246,-76.5001 88.1247,-83.5001"/>
<text text-anchor="middle" x="67.2241" y="-82.8" font-family="Times,serif" font-size="14.00">EOF</text>
</g>
<!-- s2 -->
<g id="node5" class="node"><title>s2</title>
<ellipse fill="none" stroke="black" cx="120.448" cy="-22" rx="18" ry="18"/>
<text text-anchor="middle" x="120.448" y="-17.8" font-family="Times,serif" font-size="14.00">s2</text>
</g>
<!-- s0&#45;&gt;s2 -->
<g id="edge2" class="edge"><title>s0&#45;&gt;s2</title>
<path fill="none" stroke="black" d="M34.2559,-71.191C50.575,-61.7682 76.6723,-46.6993 95.6865,-35.7203"/>
<polygon fill="black" stroke="black" points="97.468,-38.7333 104.378,-30.7018 93.9677,-32.6712 97.468,-38.7333"/>
<text text-anchor="middle" x="67.2241" y="-61.8" font-family="Times,serif" font-size="14.00">]</text>
</g>
<!-- s4 -->
<g id="node6" class="node"><title>s4</title>
<ellipse fill="none" stroke="black" cx="201.11" cy="-22" rx="18" ry="18"/>
<text text-anchor="middle" x="201.11" y="-17.8" font-family="Times,serif" font-size="14.00">s4</text>
</g>
<!-- s2&#45;&gt;s4 -->
<g id="edge4" class="edge"><title>s2&#45;&gt;s4</title>
<path fill="none" stroke="black" d="M138.517,-22C148.516,-22 161.377,-22 172.758,-22"/>
<polygon fill="black" stroke="black" points="173.075,-25.5001 183.075,-22 173.075,-18.5001 173.075,-25.5001"/>
<text text-anchor="middle" x="162.779" y="-24.8" font-family="Times,serif" font-size="14.00">]</text>
</g>
<!-- s4&#45;&gt;s5 -->
<g id="edge5" class="edge"><title>s4&#45;&gt;s5</title>
<path fill="none" stroke="black" d="M219.179,-22C227.965,-22 238.962,-22 249.223,-22"/>
<polygon fill="black" stroke="black" points="249.526,-25.5001 259.526,-22 249.526,-18.5001 249.526,-25.5001"/>
<text text-anchor="middle" x="239.441" y="-24.8" font-family="Times,serif" font-size="14.00">]</text>
</g>
</g>
</svg>
