<?xml version="1.0" encoding="UTF-8" standalone="no"?>
<!DOCTYPE svg PUBLIC "-//W3C//DTD SVG 1.1//EN"
 "http://www.w3.org/Graphics/SVG/1.1/DTD/svg11.dtd">
<!-- Generated by graphviz version 12.2.1 (20241206.2353)
 -->
<!-- Title: finite_state_machine Pages: 1 -->
<svg width="455pt" height="576pt"
 viewBox="0.00 0.00 454.59 576.00" xmlns="http://www.w3.org/2000/svg" xmlns:xlink="http://www.w3.org/1999/xlink">
<g id="graph0" class="graph" transform="scale(0.731429 0.731429) rotate(0) translate(4 783.5)">
<title>finite_state_machine</title>
<polygon fill="white" stroke="none" points="-4,4 -4,-783.5 617.51,-783.5 617.51,4 -4,4"/>
<!-- s1 -->
<g id="node1" class="node">
<title>s1</title>
<ellipse fill="none" stroke="black" cx="23.11" cy="-281" rx="19.11" ry="19.11"/>
<ellipse fill="none" stroke="black" cx="23.11" cy="-281" rx="23.11" ry="23.11"/>
<text text-anchor="middle" x="23.11" y="-275.95" font-family="Times,serif" font-size="14.00">s1</text>
</g>
<!-- s3 -->
<g id="node2" class="node">
<title>s3</title>
<ellipse fill="none" stroke="black" cx="109.82" cy="-281" rx="19.11" ry="19.11"/>
<ellipse fill="none" stroke="black" cx="109.82" cy="-281" rx="23.11" ry="23.11"/>
<text text-anchor="middle" x="109.82" y="-275.95" font-family="Times,serif" font-size="14.00">s3</text>
</g>
<!-- s1&#45;&gt;s3 -->
<g id="edge7" class="edge">
<title>s1&#45;&gt;s3</title>
<path fill="none" stroke="black" d="M46.37,-281C55.15,-281 65.43,-281 75.09,-281"/>
<polygon fill="black" stroke="black" points="74.91,-284.5 84.91,-281 74.91,-277.5 74.91,-284.5"/>
<text text-anchor="middle" x="66.47" y="-284.2" font-family="Times,serif" font-size="14.00">`</text>
</g>
<!-- s0 -->
<g id="node3" class="node">
<title>s0</title>
<ellipse fill="none" stroke="black" cx="214.29" cy="-428" rx="19.11" ry="19.11"/>
<text text-anchor="middle" x="214.29" y="-422.95" font-family="Times,serif" font-size="14.00">s0</text>
</g>
<!-- s1&#45;&gt;s0 -->
<g id="edge8" class="edge">
<title>s1&#45;&gt;s0</title>
<path fill="none" stroke="black" d="M38.46,-298.67C50.51,-312.89 68.6,-332.93 86.72,-348 112.75,-369.65 122.31,-370.91 150.93,-389 163,-396.62 176.41,-405.03 187.7,-412.07"/>
<polygon fill="black" stroke="black" points="185.75,-414.98 196.09,-417.3 189.45,-409.04 185.75,-414.98"/>
<text text-anchor="middle" x="109.82" y="-381.41" font-family="Times,serif" font-size="14.00">e</text>
</g>
<!-- s1&#45;&gt;s0 -->
<g id="edge9" class="edge">
<title>s1&#45;&gt;s0</title>
<path fill="none" stroke="black" d="M24.56,-304.48C26.15,-362.38 33.21,-509.91 64.22,-546 96.93,-584.08 139.28,-578.93 177.18,-546 202.26,-524.21 210.2,-485.53 212.57,-458.41"/>
<polygon fill="black" stroke="black" points="216.04,-458.94 213.19,-448.73 209.06,-458.49 216.04,-458.94"/>
<text text-anchor="middle" x="109.82" y="-575.86" font-family="Times,serif" font-size="14.00">f</text>
</g>
<!-- s1&#45;&gt;s0 -->
<g id="edge10" class="edge">
<title>s1&#45;&gt;s0</title>
<path fill="none" stroke="black" d="M25.32,-304.46C28.38,-354.22 38.13,-468.03 64.22,-495 99.12,-531.09 135.59,-523.12 177.18,-495 190.31,-486.12 199.06,-470.86 204.66,-457.14"/>
<polygon fill="black" stroke="black" points="207.84,-458.63 207.97,-448.04 201.26,-456.24 207.84,-458.63"/>
<text text-anchor="middle" x="109.82" y="-522.37" font-family="Times,serif" font-size="14.00">o</text>
</g>
<!-- s1&#45;&gt;s0 -->
<g id="edge12" class="edge">
<title>s1&#45;&gt;s0</title>
<path fill="none" stroke="black" d="M24.68,-304.4C27.07,-342.06 38.09,-414.66 86.72,-442 117.4,-459.26 158.89,-449.63 185.87,-439.88"/>
<polygon fill="black" stroke="black" points="186.99,-443.2 195.05,-436.32 184.47,-436.67 186.99,-443.2"/>
<text text-anchor="middle" x="109.82" y="-453.21" font-family="Times,serif" font-size="14.00">◉</text>
</g>
<!-- s2 -->
<g id="node4" class="node">
<title>s2</title>
<ellipse fill="none" stroke="black" cx="314.75" cy="-278" rx="19.11" ry="19.11"/>
<text text-anchor="middle" x="314.75" y="-272.95" font-family="Times,serif" font-size="14.00">s2</text>
</g>
<!-- s1&#45;&gt;s2 -->
<g id="edge11" class="edge">
<title>s1&#45;&gt;s2</title>
<path fill="none" stroke="black" d="M25.61,-257.91C28.59,-231.12 37.52,-187.4 64.22,-162 93.23,-134.39 111.26,-143 150.93,-137.5 207.59,-129.65 237.83,-118.93 277.65,-160 307.25,-190.54 278.39,-215.12 295.65,-254 295.69,-254.11 295.74,-254.21 295.79,-254.32"/>
<polygon fill="black" stroke="black" points="292.62,-255.83 300.73,-262.65 298.64,-252.26 292.62,-255.83"/>
<text text-anchor="middle" x="164.06" y="-140.7" font-family="Times,serif" font-size="14.00">EOL</text>
</g>
<!-- s3&#45;&gt;s3 -->
<g id="edge19" class="edge">
<title>s3&#45;&gt;s3</title>
<path fill="none" stroke="black" d="M101.85,-302.99C100.98,-313.19 103.64,-322.11 109.82,-322.11 113.49,-322.11 115.92,-318.97 117.11,-314.28"/>
<polygon fill="black" stroke="black" points="120.59,-314.7 117.7,-304.5 113.6,-314.27 120.59,-314.7"/>
<text text-anchor="middle" x="109.82" y="-325.31" font-family="Times,serif" font-size="14.00">`</text>
</g>
<!-- s3&#45;&gt;s0 -->
<g id="edge20" class="edge">
<title>s3&#45;&gt;s0</title>
<path fill="none" stroke="black" d="M127.54,-265.54C141.9,-254.18 162.55,-242.6 177.18,-254.5 198.88,-272.15 207.97,-352.25 211.42,-397.19"/>
<polygon fill="black" stroke="black" points="207.92,-397.35 212.12,-407.08 214.9,-396.86 207.92,-397.35"/>
<text text-anchor="middle" x="164.06" y="-257.7" font-family="Times,serif" font-size="14.00">e</text>
</g>
<!-- s3&#45;&gt;s0 -->
<g id="edge21" class="edge">
<title>s3&#45;&gt;s0</title>
<path fill="none" stroke="black" d="M120.89,-301.7C128.22,-315.76 138.94,-334.37 150.93,-349 160.86,-361.11 166.99,-360.61 177.18,-372.5 184.95,-381.57 192.37,-392.42 198.43,-402.11"/>
<polygon fill="black" stroke="black" points="195.26,-403.63 203.43,-410.37 201.25,-400.01 195.26,-403.63"/>
<text text-anchor="middle" x="164.06" y="-375.7" font-family="Times,serif" font-size="14.00">f</text>
</g>
<!-- s3&#45;&gt;s0 -->
<g id="edge22" class="edge">
<title>s3&#45;&gt;s0</title>
<path fill="none" stroke="black" d="M129.35,-293.86C148.36,-307.11 175.41,-326.17 177.18,-328.5 192.75,-349.04 202.1,-376.94 207.37,-397.97"/>
<polygon fill="black" stroke="black" points="203.95,-398.72 209.61,-407.68 210.77,-397.14 203.95,-398.72"/>
<text text-anchor="middle" x="164.06" y="-331.7" font-family="Times,serif" font-size="14.00">o</text>
</g>
<!-- s3&#45;&gt;s0 -->
<g id="edge24" class="edge">
<title>s3&#45;&gt;s0</title>
<path fill="none" stroke="black" d="M133.12,-278.56C147.4,-278.26 165.39,-280.42 177.18,-291 192.85,-305.06 203.7,-361.55 209.18,-397.46"/>
<polygon fill="black" stroke="black" points="205.7,-397.87 210.61,-407.26 212.63,-396.86 205.7,-397.87"/>
<text text-anchor="middle" x="164.06" y="-292.7" font-family="Times,serif" font-size="14.00">◉</text>
</g>
<!-- s3&#45;&gt;s2 -->
<g id="edge23" class="edge">
<title>s3&#45;&gt;s2</title>
<path fill="none" stroke="black" d="M125.33,-263.2C132.24,-256.11 141.14,-248.75 150.93,-245 174.36,-236.03 207.4,-225.29 277.65,-251 282.49,-252.77 287.23,-255.42 291.61,-258.38"/>
<polygon fill="black" stroke="black" points="289.2,-260.95 299.28,-264.21 293.43,-255.37 289.2,-260.95"/>
<text text-anchor="middle" x="214.29" y="-241.32" font-family="Times,serif" font-size="14.00">EOL</text>
</g>
<!-- s0&#45;&gt;s1 -->
<g id="edge1" class="edge">
<title>s0&#45;&gt;s1</title>
<path fill="none" stroke="black" d="M194.8,-428.53C163.67,-428.38 100.63,-423.5 64.22,-389 43.75,-369.61 33.66,-338.84 28.73,-315.09"/>
<polygon fill="black" stroke="black" points="32.23,-314.77 26.97,-305.57 25.34,-316.04 32.23,-314.77"/>
<text text-anchor="middle" x="109.82" y="-424.87" font-family="Times,serif" font-size="14.00">`</text>
</g>
<!-- s0&#45;&gt;s0 -->
<g id="edge2" class="edge">
<title>s0&#45;&gt;s0</title>
<path fill="none" stroke="black" d="M212,-447.09C211.69,-456.61 212.45,-465.11 214.29,-465.11 215.32,-465.11 216.02,-462.42 216.37,-458.37"/>
<polygon fill="black" stroke="black" points="219.86,-458.67 216.55,-448.61 212.86,-458.54 219.86,-458.67"/>
<text text-anchor="middle" x="214.29" y="-468.31" font-family="Times,serif" font-size="14.00">e</text>
</g>
<!-- s0&#45;&gt;s0 -->
<g id="edge3" class="edge">
<title>s0&#45;&gt;s0</title>
<path fill="none" stroke="black" d="M210.42,-447.2C208.53,-464.54 209.82,-483.11 214.29,-483.11 217.78,-483.11 219.33,-471.77 218.94,-458.55"/>
<polygon fill="black" stroke="black" points="222.44,-458.45 218.26,-448.71 215.46,-458.93 222.44,-458.45"/>
<text text-anchor="middle" x="214.29" y="-486.31" font-family="Times,serif" font-size="14.00">f</text>
</g>
<!-- s0&#45;&gt;s0 -->
<g id="edge4" class="edge">
<title>s0&#45;&gt;s0</title>
<path fill="none" stroke="black" d="M209.46,-446.73C205.32,-471.36 206.93,-501.11 214.29,-501.11 220.55,-501.11 222.65,-479.54 220.58,-457.92"/>
<polygon fill="black" stroke="black" points="224.08,-457.69 219.31,-448.23 217.14,-458.6 224.08,-457.69"/>
<text text-anchor="middle" x="214.29" y="-504.31" font-family="Times,serif" font-size="14.00">o</text>
</g>
<!-- s0&#45;&gt;s0 -->
<g id="edge6" class="edge">
<title>s0&#45;&gt;s0</title>
<path fill="none" stroke="black" d="M208.73,-446.78C202.13,-478.24 203.99,-519.11 214.29,-519.11 223.42,-519.11 225.91,-486.97 221.76,-457.76"/>
<polygon fill="black" stroke="black" points="225.27,-457.52 220.1,-448.27 218.37,-458.73 225.27,-457.52"/>
<text text-anchor="middle" x="214.29" y="-520.81" font-family="Times,serif" font-size="14.00">◉</text>
</g>
<!-- s0&#45;&gt;s2 -->
<g id="edge5" class="edge">
<title>s0&#45;&gt;s2</title>
<path fill="none" stroke="black" d="M220.11,-409.29C225.61,-390.29 235.9,-360.58 251.4,-338.5 260.39,-325.68 266.34,-325.83 277.65,-315 282.71,-310.15 288.05,-304.81 293.02,-299.73"/>
<polygon fill="black" stroke="black" points="295.43,-302.28 299.88,-292.66 290.4,-297.41 295.43,-302.28"/>
<text text-anchor="middle" x="264.52" y="-341.7" font-family="Times,serif" font-size="14.00">EOL</text>
</g>
<!-- s2&#45;&gt;s1 -->
<g id="edge13" class="edge">
<title>s2&#45;&gt;s1</title>
<path fill="none" stroke="black" d="M302.03,-263.63C293.81,-253.91 283.32,-242.27 277.65,-239 267.38,-233.1 192.01,-206.7 150.93,-216.5 114.4,-225.22 76.52,-246.33 51.79,-262.04"/>
<polygon fill="black" stroke="black" points="50.09,-258.97 43.62,-267.36 53.91,-264.84 50.09,-258.97"/>
<text text-anchor="middle" x="164.06" y="-219.7" font-family="Times,serif" font-size="14.00">`</text>
</g>
<!-- s2&#45;&gt;s0 -->
<g id="edge15" class="edge">
<title>s2&#45;&gt;s0</title>
<path fill="none" stroke="black" d="M295.24,-278.16C281.38,-279.28 262.91,-283.05 251.4,-294.5 224.04,-321.7 216.8,-367.35 215.2,-397.57"/>
<polygon fill="black" stroke="black" points="211.71,-397.08 214.88,-407.2 218.71,-397.32 211.71,-397.08"/>
<text text-anchor="middle" x="264.52" y="-297.7" font-family="Times,serif" font-size="14.00">f</text>
</g>
<!-- s2&#45;&gt;s0 -->
<g id="edge16" class="edge">
<title>s2&#45;&gt;s0</title>
<path fill="none" stroke="black" d="M298.62,-266.86C284.95,-258.28 264.96,-249.55 251.4,-260.5 230.5,-277.37 221.12,-353.74 217.4,-397.31"/>
<polygon fill="black" stroke="black" points="213.93,-396.89 216.62,-407.14 220.9,-397.45 213.93,-396.89"/>
<text text-anchor="middle" x="264.52" y="-263.7" font-family="Times,serif" font-size="14.00">o</text>
</g>
<!-- s2&#45;&gt;s0 -->
<g id="edge18" class="edge">
<title>s2&#45;&gt;s0</title>
<path fill="none" stroke="black" d="M307.75,-295.96C301.74,-312.34 291.4,-336.71 277.65,-355 268.32,-367.4 261.84,-366.53 251.4,-378 244.53,-385.54 237.77,-394.4 232,-402.54"/>
<polygon fill="black" stroke="black" points="229.14,-400.52 226.35,-410.74 234.9,-404.49 229.14,-400.52"/>
<text text-anchor="middle" x="264.52" y="-379.7" font-family="Times,serif" font-size="14.00">◉</text>
</g>
<!-- s2&#45;&gt;s2 -->
<g id="edge17" class="edge">
<title>s2&#45;&gt;s2</title>
<path fill="none" stroke="black" d="M305.92,-295.18C303.96,-305.44 306.9,-315.11 314.75,-315.11 319.54,-315.11 322.5,-311.52 323.64,-306.39"/>
<polygon fill="black" stroke="black" points="327.14,-306.67 323.59,-296.69 320.14,-306.71 327.14,-306.67"/>
<text text-anchor="middle" x="314.75" y="-318.31" font-family="Times,serif" font-size="14.00">EOL</text>
</g>
<!-- s4 -->
<g id="node5" class="node">
<title>s4</title>
<ellipse fill="none" stroke="black" cx="415.22" cy="-318" rx="19.11" ry="19.11"/>
<text text-anchor="middle" x="415.22" y="-312.95" font-family="Times,serif" font-size="14.00">s4</text>
</g>
<!-- s2&#45;&gt;s4 -->
<g id="edge14" class="edge">
<title>s2&#45;&gt;s4</title>
<path fill="none" stroke="black" d="M334.04,-274.83C346.92,-273.44 364.27,-273.31 378.11,-279.5 385.3,-282.72 391.74,-288.12 397.11,-293.87"/>
<polygon fill="black" stroke="black" points="394.12,-295.75 403.22,-301.18 399.49,-291.26 394.12,-295.75"/>
<text text-anchor="middle" x="364.99" y="-282.7" font-family="Times,serif" font-size="14.00">e</text>
</g>
<!-- s4&#45;&gt;s1 -->
<g id="edge25" class="edge">
<title>s4&#45;&gt;s1</title>
<path fill="none" stroke="black" d="M414.56,-298.65C414.43,-243.75 405.96,-91 315.75,-91 108.82,-91 108.82,-91 108.82,-91 41.53,-91 27.31,-191.65 24.56,-246.44"/>
<polygon fill="black" stroke="black" points="21.08,-246.06 24.18,-256.19 28.07,-246.33 21.08,-246.06"/>
<text text-anchor="middle" x="214.29" y="-94.2" font-family="Times,serif" font-size="14.00">`</text>
</g>
<!-- s4&#45;&gt;s0 -->
<g id="edge26" class="edge">
<title>s4&#45;&gt;s0</title>
<path fill="none" stroke="black" d="M405.19,-301.57C392.51,-280.57 367.2,-245.48 333.86,-233.5 298.6,-220.83 275.47,-222.29 251.4,-251 233.08,-272.85 222.56,-352.95 218.01,-397.54"/>
<polygon fill="black" stroke="black" points="214.54,-397.03 217.05,-407.33 221.51,-397.71 214.54,-397.03"/>
<text text-anchor="middle" x="314.75" y="-236.7" font-family="Times,serif" font-size="14.00">e</text>
</g>
<!-- s4&#45;&gt;s0 -->
<g id="edge27" class="edge">
<title>s4&#45;&gt;s0</title>
<path fill="none" stroke="black" d="M408.07,-336.06C402.36,-350.34 392.54,-369.83 378.11,-382 339.78,-414.33 280.17,-423.99 244.7,-426.85"/>
<polygon fill="black" stroke="black" points="244.92,-423.33 235.18,-427.48 245.39,-430.31 244.92,-423.33"/>
<text text-anchor="middle" x="314.75" y="-422.33" font-family="Times,serif" font-size="14.00">f</text>
</g>
<!-- s4&#45;&gt;s0 -->
<g id="edge30" class="edge">
<title>s4&#45;&gt;s0</title>
<path fill="none" stroke="black" d="M397.99,-326.97C363.64,-345.97 283.3,-390.39 241.54,-413.48"/>
<polygon fill="black" stroke="black" points="239.95,-410.36 232.89,-418.27 243.34,-416.49 239.95,-410.36"/>
<text text-anchor="middle" x="314.75" y="-383.83" font-family="Times,serif" font-size="14.00">◉</text>
</g>
<!-- s4&#45;&gt;s2 -->
<g id="edge29" class="edge">
<title>s4&#45;&gt;s2</title>
<path fill="none" stroke="black" d="M396.53,-312.4C383.92,-308.26 366.66,-302.27 351.86,-296 348.67,-294.65 345.37,-293.15 342.12,-291.61"/>
<polygon fill="black" stroke="black" points="343.97,-288.62 333.45,-287.35 340.88,-294.9 343.97,-288.62"/>
<text text-anchor="middle" x="364.99" y="-309.01" font-family="Times,serif" font-size="14.00">EOL</text>
</g>
<!-- s5 -->
<g id="node6" class="node">
<title>s5</title>
<ellipse fill="none" stroke="black" cx="515.68" cy="-446" rx="19.11" ry="19.11"/>
<text text-anchor="middle" x="515.68" y="-440.95" font-family="Times,serif" font-size="14.00">s5</text>
</g>
<!-- s4&#45;&gt;s5 -->
<g id="edge28" class="edge">
<title>s4&#45;&gt;s5</title>
<path fill="none" stroke="black" d="M432.69,-326.72C446.49,-334.73 465.91,-347.72 478.58,-363.5 491.14,-379.15 500.18,-399.85 506.08,-416.6"/>
<polygon fill="black" stroke="black" points="502.73,-417.62 509.18,-426.02 509.37,-415.42 502.73,-417.62"/>
<text text-anchor="middle" x="465.45" y="-366.7" font-family="Times,serif" font-size="14.00">o</text>
</g>
<!-- s5&#45;&gt;s1 -->
<g id="edge31" class="edge">
<title>s5&#45;&gt;s1</title>
<path fill="none" stroke="black" d="M514.14,-426.66C511.4,-346.56 495.79,-45 416.22,-45 108.82,-45 108.82,-45 108.82,-45 66.51,-45 39.61,-181.09 29.11,-246.58"/>
<polygon fill="black" stroke="black" points="25.66,-246.03 27.58,-256.45 32.57,-247.1 25.66,-246.03"/>
<text text-anchor="middle" x="264.52" y="-48.2" font-family="Times,serif" font-size="14.00">`</text>
</g>
<!-- s5&#45;&gt;s0 -->
<g id="edge32" class="edge">
<title>s5&#45;&gt;s0</title>
<path fill="none" stroke="black" d="M513.73,-465.18C511.44,-488.08 503.81,-525.47 478.58,-543 468.99,-549.66 463.98,-543.41 452.33,-543 362.27,-539.87 320.95,-573.28 251.4,-516 234,-501.67 224.89,-477.62 220.18,-458.28"/>
<polygon fill="black" stroke="black" points="223.65,-457.79 218.14,-448.74 216.8,-459.25 223.65,-457.79"/>
<text text-anchor="middle" x="364.99" y="-552.62" font-family="Times,serif" font-size="14.00">e</text>
</g>
<!-- s5&#45;&gt;s0 -->
<g id="edge34" class="edge">
<title>s5&#45;&gt;s0</title>
<path fill="none" stroke="black" d="M498.14,-454.13C454.87,-474.15 335.85,-521.18 251.4,-478 241.7,-473.04 234.01,-464.13 228.26,-455.19"/>
<polygon fill="black" stroke="black" points="231.35,-453.54 223.34,-446.6 225.27,-457.02 231.35,-453.54"/>
<text text-anchor="middle" x="364.99" y="-497.95" font-family="Times,serif" font-size="14.00">o</text>
</g>
<!-- s5&#45;&gt;s0 -->
<g id="edge36" class="edge">
<title>s5&#45;&gt;s0</title>
<path fill="none" stroke="black" d="M496.22,-445.61C458.52,-444.77 369.97,-442.7 295.65,-440 275.97,-439.29 270.84,-441.09 251.4,-438 248.89,-437.6 246.31,-437.09 243.74,-436.52"/>
<polygon fill="black" stroke="black" points="244.77,-433.17 234.21,-434.06 243.02,-439.95 244.77,-433.17"/>
<text text-anchor="middle" x="364.99" y="-444.29" font-family="Times,serif" font-size="14.00">◉</text>
</g>
<!-- s5&#45;&gt;s2 -->
<g id="edge35" class="edge">
<title>s5&#45;&gt;s2</title>
<path fill="none" stroke="black" d="M498.7,-436.44C468.11,-417.68 400.02,-373.69 351.86,-326 344.88,-319.09 338.15,-310.76 332.42,-303"/>
<polygon fill="black" stroke="black" points="335.29,-300.98 326.65,-294.85 329.58,-305.03 335.29,-300.98"/>
<text text-anchor="middle" x="415.22" y="-395.39" font-family="Times,serif" font-size="14.00">EOL</text>
</g>
<!-- s6 -->
<g id="node7" class="node">
<title>s6</title>
<ellipse fill="none" stroke="black" cx="594.4" cy="-606" rx="19.11" ry="19.11"/>
<text text-anchor="middle" x="594.4" y="-600.95" font-family="Times,serif" font-size="14.00">s6</text>
</g>
<!-- s5&#45;&gt;s6 -->
<g id="edge33" class="edge">
<title>s5&#45;&gt;s6</title>
<path fill="none" stroke="black" d="M530.39,-458.37C539.16,-466.92 550.17,-478.98 557.29,-491.5 572.45,-518.16 582.11,-552 587.59,-575.96"/>
<polygon fill="black" stroke="black" points="584.16,-576.66 589.69,-585.69 591,-575.18 584.16,-576.66"/>
<text text-anchor="middle" x="555.04" y="-494.7" font-family="Times,serif" font-size="14.00">f</text>
</g>
<!-- s6&#45;&gt;s1 -->
<g id="edge37" class="edge">
<title>s6&#45;&gt;s1</title>
<path fill="none" stroke="black" d="M593.03,-586.52C590.82,-482.8 577.26,0 516.68,0 108.82,0 108.82,0 108.82,0 57.8,0 34.76,-172 27.15,-246.86"/>
<polygon fill="black" stroke="black" points="23.7,-246.2 26.2,-256.5 30.66,-246.89 23.7,-246.2"/>
<text text-anchor="middle" x="314.75" y="-3.2" font-family="Times,serif" font-size="14.00">`</text>
</g>
<!-- s6&#45;&gt;s0 -->
<g id="edge38" class="edge">
<title>s6&#45;&gt;s0</title>
<path fill="none" stroke="black" d="M592.7,-625.25C590.05,-667.17 577.36,-763 516.68,-763 313.75,-763 313.75,-763 313.75,-763 281.06,-763 268.94,-751.58 251.4,-724 223.73,-680.52 217.26,-525.62 215.75,-458.92"/>
<polygon fill="black" stroke="black" points="219.25,-458.98 215.55,-449.05 212.25,-459.12 219.25,-458.98"/>
<text text-anchor="middle" x="415.22" y="-766.2" font-family="Times,serif" font-size="14.00">e</text>
</g>
<!-- s6&#45;&gt;s0 -->
<g id="edge39" class="edge">
<title>s6&#45;&gt;s0</title>
<path fill="none" stroke="black" d="M588.83,-624.59C580.23,-654.51 558.64,-710 516.68,-710 313.75,-710 313.75,-710 313.75,-710 281.06,-710 269.3,-698.35 251.4,-671 228.82,-636.52 219.75,-515.62 216.66,-458.42"/>
<polygon fill="black" stroke="black" points="220.17,-458.56 216.17,-448.75 213.18,-458.92 220.17,-458.56"/>
<text text-anchor="middle" x="415.22" y="-713.2" font-family="Times,serif" font-size="14.00">f</text>
</g>
<!-- s6&#45;&gt;s0 -->
<g id="edge40" class="edge">
<title>s6&#45;&gt;s0</title>
<path fill="none" stroke="black" d="M581.46,-620.48C567.61,-635.56 543.23,-657 516.68,-657 313.75,-657 313.75,-657 313.75,-657 228.55,-657 216.16,-521.56 214.98,-459"/>
<polygon fill="black" stroke="black" points="218.48,-459.01 214.89,-449.04 211.48,-459.07 218.48,-459.01"/>
<text text-anchor="middle" x="415.22" y="-660.2" font-family="Times,serif" font-size="14.00">o</text>
</g>
<!-- s6&#45;&gt;s0 -->
<g id="edge42" class="edge">
<title>s6&#45;&gt;s0</title>
<path fill="none" stroke="black" d="M574.8,-606C559.26,-606 536.53,-606 516.68,-606 313.75,-606 313.75,-606 313.75,-606 247.22,-606 225.29,-509.6 218.34,-458.68"/>
<polygon fill="black" stroke="black" points="221.83,-458.39 217.13,-448.89 214.88,-459.24 221.83,-458.39"/>
<text text-anchor="middle" x="415.22" y="-607.7" font-family="Times,serif" font-size="14.00">◉</text>
</g>
<!-- s6&#45;&gt;s2 -->
<g id="edge41" class="edge">
<title>s6&#45;&gt;s2</title>
<path fill="none" stroke="black" d="M576.32,-599.34C521.85,-578.06 355.54,-512.81 351.86,-508 331.73,-481.69 339.44,-392.66 333.86,-360 330.87,-342.48 326.62,-323.05 322.99,-307.5"/>
<polygon fill="black" stroke="black" points="326.43,-306.85 320.71,-297.94 319.62,-308.47 326.43,-306.85"/>
<text text-anchor="middle" x="465.45" y="-563.45" font-family="Times,serif" font-size="14.00">EOL</text>
</g>
</g>
</svg>
