<?xml version="1.0" encoding="UTF-8" standalone="no"?>
<!DOCTYPE svg PUBLIC "-//W3C//DTD SVG 1.1//EN"
 "http://www.w3.org/Graphics/SVG/1.1/DTD/svg11.dtd">
<!-- Generated by graphviz version 12.2.1 (20241206.2353)
 -->
<!-- Title: finite_state_machine Pages: 1 -->
<svg width="340pt" height="280pt"
 viewBox="0.00 0.00 339.61 280.04" xmlns="http://www.w3.org/2000/svg" xmlns:xlink="http://www.w3.org/1999/xlink">
<g id="graph0" class="graph" transform="scale(1 1) rotate(0) translate(4 276.04)">
<title>finite_state_machine</title>
<polygon fill="white" stroke="none" points="-4,4 -4,-276.04 335.61,-276.04 335.61,4 -4,4"/>
<!-- s1 -->
<g id="node1" class="node">
<title>s1</title>
<ellipse fill="none" stroke="black" cx="23.11" cy="-114.43" rx="19.11" ry="19.11"/>
<ellipse fill="none" stroke="black" cx="23.11" cy="-114.43" rx="23.11" ry="23.11"/>
<text text-anchor="middle" x="23.11" y="-109.38" font-family="Times,serif" font-size="14.00">s1</text>
</g>
<!-- s1&#45;&gt;s1 -->
<g id="edge5" class="edge">
<title>s1&#45;&gt;s1</title>
<path fill="none" stroke="black" d="M15.21,-136.42C14.35,-146.63 16.98,-155.54 23.11,-155.54 26.75,-155.54 29.15,-152.4 30.33,-147.71"/>
<polygon fill="black" stroke="black" points="33.81,-148.13 30.92,-137.93 26.82,-147.71 33.81,-148.13"/>
<text text-anchor="middle" x="23.11" y="-158.74" font-family="Times,serif" font-size="14.00">&#39;</text>
</g>
<!-- s2 -->
<g id="node2" class="node">
<title>s2</title>
<ellipse fill="none" stroke="black" cx="109.07" cy="-214.43" rx="19.11" ry="19.11"/>
<ellipse fill="none" stroke="black" cx="109.07" cy="-214.43" rx="23.11" ry="23.11"/>
<text text-anchor="middle" x="109.07" y="-209.38" font-family="Times,serif" font-size="14.00">s2</text>
</g>
<!-- s1&#45;&gt;s2 -->
<g id="edge6" class="edge">
<title>s1&#45;&gt;s2</title>
<path fill="none" stroke="black" d="M31.21,-136.6C37.59,-153.62 48.42,-176.79 64.22,-192.43 67.85,-196.03 72.2,-199.16 76.73,-201.83"/>
<polygon fill="black" stroke="black" points="74.87,-204.81 85.36,-206.27 78.07,-198.59 74.87,-204.81"/>
<text text-anchor="middle" x="66.09" y="-198.3" font-family="Times,serif" font-size="14.00">\</text>
</g>
<!-- s0 -->
<g id="node3" class="node">
<title>s0</title>
<ellipse fill="none" stroke="black" cx="312.5" cy="-148.43" rx="19.11" ry="19.11"/>
<text text-anchor="middle" x="312.5" y="-143.38" font-family="Times,serif" font-size="14.00">s0</text>
</g>
<!-- s1&#45;&gt;s0 -->
<g id="edge7" class="edge">
<title>s1&#45;&gt;s0</title>
<path fill="none" stroke="black" d="M45.1,-106.22C51.19,-104.08 57.91,-101.95 64.22,-100.43 112.5,-88.8 126.58,-84.97 175.68,-92.43 221.56,-99.4 233.68,-103.1 275.4,-123.43 279.52,-125.44 283.7,-127.89 287.68,-130.45"/>
<polygon fill="black" stroke="black" points="285.56,-133.24 295.78,-136.04 289.53,-127.48 285.56,-133.24"/>
<text text-anchor="middle" x="162.93" y="-94.13" font-family="Times,serif" font-size="14.00">◉</text>
</g>
<!-- s3 -->
<g id="node4" class="node">
<title>s3</title>
<ellipse fill="none" stroke="black" cx="212.79" cy="-148.43" rx="19.11" ry="19.11"/>
<text text-anchor="middle" x="212.79" y="-143.38" font-family="Times,serif" font-size="14.00">s3</text>
</g>
<!-- s1&#45;&gt;s3 -->
<g id="edge8" class="edge">
<title>s1&#45;&gt;s3</title>
<path fill="none" stroke="black" d="M46,-118.4C79.77,-124.52 144.6,-136.26 182.41,-143.11"/>
<polygon fill="black" stroke="black" points="181.71,-146.54 192.17,-144.88 182.95,-139.65 181.71,-146.54"/>
<text text-anchor="middle" x="109.07" y="-136.89" font-family="Times,serif" font-size="14.00">EOF</text>
</g>
<!-- s2&#45;&gt;s1 -->
<g id="edge9" class="edge">
<title>s2&#45;&gt;s1</title>
<path fill="none" stroke="black" d="M93.33,-196.88C80.25,-181.3 60.96,-158.33 46.07,-140.58"/>
<polygon fill="black" stroke="black" points="48.82,-138.42 39.71,-133.01 43.46,-142.92 48.82,-138.42"/>
<text text-anchor="middle" x="66.09" y="-167.63" font-family="Times,serif" font-size="14.00">&#39;</text>
</g>
<!-- s2&#45;&gt;s2 -->
<g id="edge10" class="edge">
<title>s2&#45;&gt;s2</title>
<path fill="none" stroke="black" d="M101.17,-236.42C100.31,-246.63 102.94,-255.54 109.07,-255.54 112.71,-255.54 115.12,-252.4 116.29,-247.71"/>
<polygon fill="black" stroke="black" points="119.77,-248.13 116.88,-237.93 112.79,-247.71 119.77,-248.13"/>
<text text-anchor="middle" x="109.07" y="-258.74" font-family="Times,serif" font-size="14.00">\</text>
</g>
<!-- s2&#45;&gt;s0 -->
<g id="edge11" class="edge">
<title>s2&#45;&gt;s0</title>
<path fill="none" stroke="black" d="M127.94,-228.41C134.58,-232.94 142.4,-237.54 150.18,-240.43 184.31,-253.13 198.05,-259.87 231.9,-246.43 263.66,-233.82 286.26,-200.21 299.08,-175.87"/>
<polygon fill="black" stroke="black" points="302.11,-177.63 303.45,-167.12 295.85,-174.5 302.11,-177.63"/>
<text text-anchor="middle" x="212.79" y="-255.49" font-family="Times,serif" font-size="14.00">◉</text>
</g>
<!-- s2&#45;&gt;s3 -->
<g id="edge12" class="edge">
<title>s2&#45;&gt;s3</title>
<path fill="none" stroke="black" d="M132.15,-210.28C145.59,-207 162.62,-201.43 175.68,-192.43 182.95,-187.42 189.55,-180.54 195.05,-173.72"/>
<polygon fill="black" stroke="black" points="197.76,-175.94 200.94,-165.83 192.15,-171.75 197.76,-175.94"/>
<text text-anchor="middle" x="162.93" y="-208.08" font-family="Times,serif" font-size="14.00">EOF</text>
</g>
<!-- s0&#45;&gt;s1 -->
<g id="edge1" class="edge">
<title>s0&#45;&gt;s1</title>
<path fill="none" stroke="black" d="M311.31,-129.23C309.96,-102.7 303.47,-55.1 275.4,-28.43 242.31,3 220.99,-9.42 175.68,-3.93 125.33,2.16 102.81,4.48 64.22,-28.43 48.41,-41.91 38.44,-62.98 32.4,-80.89"/>
<polygon fill="black" stroke="black" points="29.08,-79.78 29.49,-90.36 35.77,-81.83 29.08,-79.78"/>
<text text-anchor="middle" x="162.93" y="-7.13" font-family="Times,serif" font-size="14.00">&#39;</text>
</g>
<!-- s0&#45;&gt;s2 -->
<g id="edge2" class="edge">
<title>s0&#45;&gt;s2</title>
<path fill="none" stroke="black" d="M298.37,-161.79C283.52,-176.14 257.99,-198.6 231.9,-211.43 198.83,-227.68 186.7,-230.35 150.18,-225.43 147.68,-225.09 145.12,-224.65 142.55,-224.12"/>
<polygon fill="black" stroke="black" points="143.51,-220.75 132.97,-221.8 141.87,-227.56 143.51,-220.75"/>
<text text-anchor="middle" x="212.79" y="-229.28" font-family="Times,serif" font-size="14.00">\</text>
</g>
<!-- s0&#45;&gt;s0 -->
<g id="edge3" class="edge">
<title>s0&#45;&gt;s0</title>
<path fill="none" stroke="black" d="M303.74,-165.61C301.79,-175.88 304.71,-185.54 312.5,-185.54 317.25,-185.54 320.19,-181.95 321.32,-176.82"/>
<polygon fill="black" stroke="black" points="324.82,-177.1 321.27,-167.12 317.82,-177.14 324.82,-177.1"/>
<text text-anchor="middle" x="312.5" y="-187.24" font-family="Times,serif" font-size="14.00">◉</text>
</g>
<!-- s0&#45;&gt;s3 -->
<g id="edge4" class="edge">
<title>s0&#45;&gt;s3</title>
<path fill="none" stroke="black" d="M293.21,-148.43C279.17,-148.43 259.51,-148.43 243.26,-148.43"/>
<polygon fill="black" stroke="black" points="243.68,-144.93 233.68,-148.43 243.68,-151.93 243.68,-144.93"/>
<text text-anchor="middle" x="262.65" y="-151.63" font-family="Times,serif" font-size="14.00">EOF</text>
</g>
<!-- s3&#45;&gt;s1 -->
<g id="edge13" class="edge">
<title>s3&#45;&gt;s1</title>
<path fill="none" stroke="black" d="M196.9,-137.3C181.59,-126.6 156.6,-111.17 132.18,-104.93 107.39,-98.6 78.48,-101.66 56.8,-105.93"/>
<polygon fill="black" stroke="black" points="56.08,-102.51 47.05,-108.06 57.57,-109.35 56.08,-102.51"/>
<text text-anchor="middle" x="109.07" y="-108.13" font-family="Times,serif" font-size="14.00">&#39;</text>
</g>
<!-- s3&#45;&gt;s2 -->
<g id="edge14" class="edge">
<title>s3&#45;&gt;s2</title>
<path fill="none" stroke="black" d="M193.78,-152.97C180.92,-156.74 163.6,-162.96 150.18,-171.93 143.49,-176.4 137.1,-182.18 131.46,-188.03"/>
<polygon fill="black" stroke="black" points="128.93,-185.61 124.81,-195.37 134.12,-190.31 128.93,-185.61"/>
<text text-anchor="middle" x="162.93" y="-175.13" font-family="Times,serif" font-size="14.00">\</text>
</g>
<!-- s3&#45;&gt;s0 -->
<g id="edge15" class="edge">
<title>s3&#45;&gt;s0</title>
<path fill="none" stroke="black" d="M229.3,-138.16C235.44,-134.67 242.74,-131.2 249.9,-129.43 260.9,-126.71 264.39,-126.71 275.4,-129.43 278.86,-130.29 282.36,-131.54 285.74,-133.01"/>
<polygon fill="black" stroke="black" points="284.14,-136.11 294.64,-137.48 287.28,-129.86 284.14,-136.11"/>
<text text-anchor="middle" x="262.65" y="-131.13" font-family="Times,serif" font-size="14.00">◉</text>
</g>
<!-- s3&#45;&gt;s3 -->
<g id="edge16" class="edge">
<title>s3&#45;&gt;s3</title>
<path fill="none" stroke="black" d="M204.02,-165.61C202.08,-175.88 205,-185.54 212.79,-185.54 217.53,-185.54 220.47,-181.95 221.61,-176.82"/>
<polygon fill="black" stroke="black" points="225.11,-177.1 221.56,-167.12 218.11,-177.14 225.11,-177.1"/>
<text text-anchor="middle" x="212.79" y="-188.74" font-family="Times,serif" font-size="14.00">EOF</text>
</g>
</g>
</svg>
