<?xml version="1.0" encoding="UTF-8" standalone="no"?>
<!DOCTYPE svg PUBLIC "-//W3C//DTD SVG 1.1//EN"
 "http://www.w3.org/Graphics/SVG/1.1/DTD/svg11.dtd">
<!-- Generated by graphviz version 12.2.1 (20241206.2353)
 -->
<!-- Title: finite_state_machine Pages: 1 -->
<svg width="340pt" height="215pt"
 viewBox="0.00 0.00 340.36 214.84" xmlns="http://www.w3.org/2000/svg" xmlns:xlink="http://www.w3.org/1999/xlink">
<g id="graph0" class="graph" transform="scale(1 1) rotate(0) translate(4 210.84)">
<title>finite_state_machine</title>
<polygon fill="white" stroke="none" points="-4,4 -4,-210.84 336.36,-210.84 336.36,4 -4,4"/>
<!-- s1 -->
<g id="node1" class="node">
<title>s1</title>
<ellipse fill="none" stroke="black" cx="23.11" cy="-40.23" rx="19.11" ry="19.11"/>
<ellipse fill="none" stroke="black" cx="23.11" cy="-40.23" rx="23.11" ry="23.11"/>
<text text-anchor="middle" x="23.11" y="-35.18" font-family="Times,serif" font-size="14.00">s1</text>
</g>
<!-- s3 -->
<g id="node2" class="node">
<title>s3</title>
<ellipse fill="none" stroke="black" cx="109.82" cy="-149.23" rx="19.11" ry="19.11"/>
<ellipse fill="none" stroke="black" cx="109.82" cy="-149.23" rx="23.11" ry="23.11"/>
<text text-anchor="middle" x="109.82" y="-144.18" font-family="Times,serif" font-size="14.00">s3</text>
</g>
<!-- s1&#45;&gt;s3 -->
<g id="edge4" class="edge">
<title>s1&#45;&gt;s3</title>
<path fill="none" stroke="black" d="M34.5,-60.82C41.91,-74.59 52.57,-92.76 64.22,-107.23 69.93,-114.34 76.83,-121.4 83.47,-127.65"/>
<polygon fill="black" stroke="black" points="80.76,-129.92 90.52,-134.05 85.47,-124.74 80.76,-129.92"/>
<text text-anchor="middle" x="66.47" y="-115.51" font-family="Times,serif" font-size="14.00">`</text>
</g>
<!-- s0 -->
<g id="node3" class="node">
<title>s0</title>
<ellipse fill="none" stroke="black" cx="213.54" cy="-66.23" rx="19.11" ry="19.11"/>
<text text-anchor="middle" x="213.54" y="-61.18" font-family="Times,serif" font-size="14.00">s0</text>
</g>
<!-- s1&#45;&gt;s0 -->
<g id="edge5" class="edge">
<title>s1&#45;&gt;s0</title>
<path fill="none" stroke="black" d="M43.29,-52.43C55.27,-59.34 71.3,-67.37 86.72,-71.23 125.4,-80.92 136.73,-77.04 176.43,-73.23 178.76,-73.01 181.17,-72.7 183.58,-72.35"/>
<polygon fill="black" stroke="black" points="183.9,-75.84 193.15,-70.67 182.69,-68.95 183.9,-75.84"/>
<text text-anchor="middle" x="109.82" y="-79.02" font-family="Times,serif" font-size="14.00">◉</text>
</g>
<!-- s2 -->
<g id="node4" class="node">
<title>s2</title>
<ellipse fill="none" stroke="black" cx="313.25" cy="-28.23" rx="19.11" ry="19.11"/>
<text text-anchor="middle" x="313.25" y="-23.18" font-family="Times,serif" font-size="14.00">s2</text>
</g>
<!-- s1&#45;&gt;s2 -->
<g id="edge6" class="edge">
<title>s1&#45;&gt;s2</title>
<path fill="none" stroke="black" d="M46.24,-37.23C86.71,-31.92 175.43,-21.04 250.65,-17.23 261.96,-16.66 264.94,-15.56 276.15,-17.23 278.67,-17.61 281.27,-18.13 283.85,-18.73"/>
<polygon fill="black" stroke="black" points="282.83,-22.08 293.4,-21.39 284.71,-15.34 282.83,-22.08"/>
<text text-anchor="middle" x="163.68" y="-28.12" font-family="Times,serif" font-size="14.00">EOF</text>
</g>
<!-- s3&#45;&gt;s3 -->
<g id="edge10" class="edge">
<title>s3&#45;&gt;s3</title>
<path fill="none" stroke="black" d="M101.85,-171.22C100.98,-181.43 103.64,-190.34 109.82,-190.34 113.49,-190.34 115.92,-187.2 117.11,-182.51"/>
<polygon fill="black" stroke="black" points="120.59,-182.93 117.7,-172.73 113.6,-182.5 120.59,-182.93"/>
<text text-anchor="middle" x="109.82" y="-193.54" font-family="Times,serif" font-size="14.00">`</text>
</g>
<!-- s3&#45;&gt;s0 -->
<g id="edge11" class="edge">
<title>s3&#45;&gt;s0</title>
<path fill="none" stroke="black" d="M130.25,-137.43C143.73,-128.88 161.82,-116.69 176.43,-104.23 182.07,-99.43 187.77,-93.84 192.92,-88.45"/>
<polygon fill="black" stroke="black" points="195.23,-91.11 199.46,-81.39 190.09,-86.35 195.23,-91.11"/>
<text text-anchor="middle" x="163.68" y="-124.53" font-family="Times,serif" font-size="14.00">◉</text>
</g>
<!-- s3&#45;&gt;s2 -->
<g id="edge12" class="edge">
<title>s3&#45;&gt;s2</title>
<path fill="none" stroke="black" d="M133.35,-150.15C159.31,-150.15 202.29,-146.78 232.65,-127.23 260.95,-109.01 283.8,-77.32 297.64,-54.71"/>
<polygon fill="black" stroke="black" points="300.51,-56.73 302.58,-46.34 294.48,-53.17 300.51,-56.73"/>
<text text-anchor="middle" x="213.54" y="-146.2" font-family="Times,serif" font-size="14.00">EOF</text>
</g>
<!-- s0&#45;&gt;s1 -->
<g id="edge1" class="edge">
<title>s0&#45;&gt;s1</title>
<path fill="none" stroke="black" d="M194.21,-63.53C178.08,-61.16 153.95,-57.65 132.93,-54.73 107.6,-51.22 78.94,-47.4 57.38,-44.57"/>
<polygon fill="black" stroke="black" points="58.08,-41.13 47.71,-43.3 57.17,-48.07 58.08,-41.13"/>
<text text-anchor="middle" x="109.82" y="-57.93" font-family="Times,serif" font-size="14.00">`</text>
</g>
<!-- s0&#45;&gt;s0 -->
<g id="edge2" class="edge">
<title>s0&#45;&gt;s0</title>
<path fill="none" stroke="black" d="M204.77,-83.41C202.83,-93.68 205.75,-103.34 213.54,-103.34 218.28,-103.34 221.22,-99.75 222.36,-94.62"/>
<polygon fill="black" stroke="black" points="225.86,-94.91 222.31,-84.92 218.86,-94.94 225.86,-94.91"/>
<text text-anchor="middle" x="213.54" y="-105.04" font-family="Times,serif" font-size="14.00">◉</text>
</g>
<!-- s0&#45;&gt;s2 -->
<g id="edge3" class="edge">
<title>s0&#45;&gt;s2</title>
<path fill="none" stroke="black" d="M232.19,-60.32C244.58,-56.07 261.48,-50.09 276.15,-44.23 279.03,-43.08 282.03,-41.83 285,-40.56"/>
<polygon fill="black" stroke="black" points="286.32,-43.81 294.08,-36.59 283.51,-37.39 286.32,-43.81"/>
<text text-anchor="middle" x="263.4" y="-56.94" font-family="Times,serif" font-size="14.00">EOF</text>
</g>
<!-- s2&#45;&gt;s1 -->
<g id="edge7" class="edge">
<title>s2&#45;&gt;s1</title>
<path fill="none" stroke="black" d="M295.75,-19.62C289.73,-16.83 282.77,-14 276.15,-12.23 253.86,-6.28 187.15,3.64 150.93,-1.73 117.57,-6.68 80.84,-18.58 55.54,-27.85"/>
<polygon fill="black" stroke="black" points="54.32,-24.57 46.18,-31.36 56.78,-31.13 54.32,-24.57"/>
<text text-anchor="middle" x="163.68" y="-4.93" font-family="Times,serif" font-size="14.00">`</text>
</g>
<!-- s2&#45;&gt;s0 -->
<g id="edge8" class="edge">
<title>s2&#45;&gt;s0</title>
<path fill="none" stroke="black" d="M294.46,-23.2C281.7,-20.56 264.4,-19.01 250.65,-25.23 242.92,-28.72 236.19,-34.77 230.7,-41.17"/>
<polygon fill="black" stroke="black" points="228.23,-38.64 224.92,-48.7 233.79,-42.89 228.23,-38.64"/>
<text text-anchor="middle" x="263.4" y="-26.93" font-family="Times,serif" font-size="14.00">◉</text>
</g>
<!-- s2&#45;&gt;s2 -->
<g id="edge9" class="edge">
<title>s2&#45;&gt;s2</title>
<path fill="none" stroke="black" d="M304.49,-45.41C302.54,-55.68 305.46,-65.34 313.25,-65.34 318,-65.34 320.94,-61.75 322.07,-56.62"/>
<polygon fill="black" stroke="black" points="325.57,-56.91 322.02,-46.92 318.57,-56.94 325.57,-56.91"/>
<text text-anchor="middle" x="313.25" y="-68.54" font-family="Times,serif" font-size="14.00">EOF</text>
</g>
</g>
</svg>
