<?xml version="1.0" encoding="UTF-8" standalone="no"?>
<!DOCTYPE svg PUBLIC "-//W3C//DTD SVG 1.1//EN"
 "http://www.w3.org/Graphics/SVG/1.1/DTD/svg11.dtd">
<!-- Generated by graphviz version 12.2.1 (20241206.2353)
 -->
<!-- Title: finite_state_machine Pages: 1 -->
<svg width="411pt" height="349pt"
 viewBox="0.00 0.00 411.33 349.22" xmlns="http://www.w3.org/2000/svg" xmlns:xlink="http://www.w3.org/1999/xlink">
<g id="graph0" class="graph" transform="scale(1 1) rotate(0) translate(4 345.22)">
<title>finite_state_machine</title>
<polygon fill="white" stroke="none" points="-4,4 -4,-345.22 407.33,-345.22 407.33,4 -4,4"/>
<!-- s1 -->
<g id="node1" class="node">
<title>s1</title>
<ellipse fill="none" stroke="black" cx="123.57" cy="-317.11" rx="19.11" ry="19.11"/>
<ellipse fill="none" stroke="black" cx="123.57" cy="-317.11" rx="23.11" ry="23.11"/>
<text text-anchor="middle" x="123.57" y="-312.06" font-family="Times,serif" font-size="14.00">s1</text>
</g>
<!-- s5 -->
<g id="node2" class="node">
<title>s5</title>
<ellipse fill="none" stroke="black" cx="212.54" cy="-318.11" rx="19.11" ry="19.11"/>
<ellipse fill="none" stroke="black" cx="212.54" cy="-318.11" rx="23.11" ry="23.11"/>
<text text-anchor="middle" x="212.54" y="-313.06" font-family="Times,serif" font-size="14.00">s5</text>
</g>
<!-- s1&#45;&gt;s5 -->
<g id="edge9" class="edge">
<title>s1&#45;&gt;s5</title>
<path fill="none" stroke="black" d="M146.97,-317.37C156.4,-317.47 167.58,-317.6 177.97,-317.72"/>
<polygon fill="black" stroke="black" points="177.66,-321.22 187.7,-317.83 177.75,-314.22 177.66,-321.22"/>
<text text-anchor="middle" x="168.06" y="-320.84" font-family="Times,serif" font-size="14.00">}</text>
</g>
<!-- s6 -->
<g id="node3" class="node">
<title>s6</title>
<ellipse fill="none" stroke="black" cx="212.54" cy="-254.11" rx="19.11" ry="19.11"/>
<ellipse fill="none" stroke="black" cx="212.54" cy="-254.11" rx="23.11" ry="23.11"/>
<text text-anchor="middle" x="212.54" y="-249.06" font-family="Times,serif" font-size="14.00">s6</text>
</g>
<!-- s9 -->
<g id="node4" class="node">
<title>s9</title>
<ellipse fill="none" stroke="black" cx="380.22" cy="-23.11" rx="19.11" ry="19.11"/>
<ellipse fill="none" stroke="black" cx="380.22" cy="-23.11" rx="23.11" ry="23.11"/>
<text text-anchor="middle" x="380.22" y="-18.06" font-family="Times,serif" font-size="14.00">s9</text>
</g>
<!-- s0 -->
<g id="node5" class="node">
<title>s0</title>
<ellipse fill="none" stroke="black" cx="19.11" cy="-161.11" rx="19.11" ry="19.11"/>
<text text-anchor="middle" x="19.11" y="-156.06" font-family="Times,serif" font-size="14.00">s0</text>
</g>
<!-- s0&#45;&gt;s1 -->
<g id="edge1" class="edge">
<title>s0&#45;&gt;s1</title>
<path fill="none" stroke="black" d="M23.95,-179.95C28.88,-200.92 38.93,-235.14 56.22,-260.11 66.44,-274.88 81.38,-288.17 94.5,-298.19"/>
<polygon fill="black" stroke="black" points="92.28,-300.91 102.42,-304 96.42,-295.26 92.28,-300.91"/>
<text text-anchor="middle" x="69.34" y="-291.27" font-family="Times,serif" font-size="14.00">%</text>
</g>
<!-- s2 -->
<g id="node6" class="node">
<title>s2</title>
<ellipse fill="none" stroke="black" cx="123.57" cy="-255.11" rx="19.11" ry="19.11"/>
<text text-anchor="middle" x="123.57" y="-250.06" font-family="Times,serif" font-size="14.00">s2</text>
</g>
<!-- s0&#45;&gt;s2 -->
<g id="edge2" class="edge">
<title>s0&#45;&gt;s2</title>
<path fill="none" stroke="black" d="M26.98,-178.77C33,-192.33 42.86,-210.76 56.22,-223.11 67.04,-233.12 81.56,-240.6 94.26,-245.8"/>
<polygon fill="black" stroke="black" points="92.81,-248.99 103.4,-249.26 95.29,-242.44 92.81,-248.99"/>
<text text-anchor="middle" x="69.34" y="-243.02" font-family="Times,serif" font-size="14.00">b</text>
</g>
<!-- s3 -->
<g id="node7" class="node">
<title>s3</title>
<ellipse fill="none" stroke="black" cx="123.57" cy="-141.11" rx="19.11" ry="19.11"/>
<text text-anchor="middle" x="123.57" y="-136.06" font-family="Times,serif" font-size="14.00">s3</text>
</g>
<!-- s0&#45;&gt;s3 -->
<g id="edge3" class="edge">
<title>s0&#45;&gt;s3</title>
<path fill="none" stroke="black" d="M30.43,-177.05C36.77,-185.31 45.68,-194.58 56.22,-199.11 66.94,-203.71 72.13,-204.52 82.47,-199.11 94.75,-192.67 104.02,-180.56 110.53,-169.07"/>
<polygon fill="black" stroke="black" points="113.62,-170.72 115.06,-160.22 107.39,-167.53 113.62,-170.72"/>
<text text-anchor="middle" x="69.34" y="-206.07" font-family="Times,serif" font-size="14.00">e</text>
</g>
<!-- s0&#45;&gt;s3 -->
<g id="edge4" class="edge">
<title>s0&#45;&gt;s3</title>
<path fill="none" stroke="black" d="M38.63,-162.38C51.16,-162.78 68.01,-162.45 82.47,-159.11 86.94,-158.07 91.52,-156.53 95.92,-154.78"/>
<polygon fill="black" stroke="black" points="97.21,-158.04 104.92,-150.77 94.36,-151.64 97.21,-158.04"/>
<text text-anchor="middle" x="69.34" y="-165.49" font-family="Times,serif" font-size="14.00">f</text>
</g>
<!-- s0&#45;&gt;s3 -->
<g id="edge5" class="edge">
<title>s0&#45;&gt;s3</title>
<path fill="none" stroke="black" d="M34.67,-149.44C40.92,-145.15 48.55,-140.8 56.22,-138.61 67.98,-135.24 81.39,-135.1 93.07,-136.08"/>
<polygon fill="black" stroke="black" points="92.62,-139.55 102.96,-137.25 93.44,-132.6 92.62,-139.55"/>
<text text-anchor="middle" x="69.34" y="-141.81" font-family="Times,serif" font-size="14.00">o</text>
</g>
<!-- s0&#45;&gt;s3 -->
<g id="edge6" class="edge">
<title>s0&#45;&gt;s3</title>
<path fill="none" stroke="black" d="M28.24,-144.06C34.32,-133.46 43.73,-120.72 56.22,-114.61 70.24,-107.74 86.52,-114.04 99.45,-122.21"/>
<polygon fill="black" stroke="black" points="97.15,-124.88 107.35,-127.77 101.18,-119.15 97.15,-124.88"/>
<text text-anchor="middle" x="69.34" y="-117.81" font-family="Times,serif" font-size="14.00">}</text>
</g>
<!-- s0&#45;&gt;s3 -->
<g id="edge8" class="edge">
<title>s0&#45;&gt;s3</title>
<path fill="none" stroke="black" d="M24.33,-142.38C29.09,-126.17 38.57,-103.71 56.22,-93.11 66.21,-87.1 71.9,-88.17 82.47,-93.11 92.58,-97.84 101.04,-106.51 107.54,-115.19"/>
<polygon fill="black" stroke="black" points="104.45,-116.88 112.96,-123.19 110.24,-112.95 104.45,-116.88"/>
<text text-anchor="middle" x="69.34" y="-94.81" font-family="Times,serif" font-size="14.00">◉</text>
</g>
<!-- s4 -->
<g id="node8" class="node">
<title>s4</title>
<ellipse fill="none" stroke="black" cx="123.57" cy="-23.11" rx="19.11" ry="19.11"/>
<text text-anchor="middle" x="123.57" y="-18.06" font-family="Times,serif" font-size="14.00">s4</text>
</g>
<!-- s0&#45;&gt;s4 -->
<g id="edge7" class="edge">
<title>s0&#45;&gt;s4</title>
<path fill="none" stroke="black" d="M23.94,-142.43C28.76,-122.49 38.64,-90.75 56.22,-68.61 66.87,-55.18 82.56,-44.17 96.01,-36.35"/>
<polygon fill="black" stroke="black" points="97.33,-39.61 104.41,-31.73 93.96,-33.48 97.33,-39.61"/>
<text text-anchor="middle" x="69.34" y="-71.81" font-family="Times,serif" font-size="14.00">EOL</text>
</g>
<!-- s2&#45;&gt;s6 -->
<g id="edge10" class="edge">
<title>s2&#45;&gt;s6</title>
<path fill="none" stroke="black" d="M143.02,-254.9C153.11,-254.78 165.94,-254.63 177.76,-254.5"/>
<polygon fill="black" stroke="black" points="177.63,-258 187.59,-254.38 177.55,-251 177.63,-258"/>
<text text-anchor="middle" x="168.06" y="-257.84" font-family="Times,serif" font-size="14.00">b</text>
</g>
<!-- s7 -->
<g id="node9" class="node">
<title>s7</title>
<ellipse fill="none" stroke="black" cx="212.54" cy="-23.11" rx="19.11" ry="19.11"/>
<text text-anchor="middle" x="212.54" y="-18.06" font-family="Times,serif" font-size="14.00">s7</text>
</g>
<!-- s4&#45;&gt;s7 -->
<g id="edge11" class="edge">
<title>s4&#45;&gt;s7</title>
<path fill="none" stroke="black" d="M143.02,-23.11C154.31,-23.11 169.04,-23.11 181.94,-23.11"/>
<polygon fill="black" stroke="black" points="181.61,-26.61 191.61,-23.11 181.61,-19.61 181.61,-26.61"/>
<text text-anchor="middle" x="168.06" y="-26.31" font-family="Times,serif" font-size="14.00">e</text>
</g>
<!-- s8 -->
<g id="node10" class="node">
<title>s8</title>
<ellipse fill="none" stroke="black" cx="297.5" cy="-23.11" rx="19.11" ry="19.11"/>
<text text-anchor="middle" x="297.5" y="-18.06" font-family="Times,serif" font-size="14.00">s8</text>
</g>
<!-- s7&#45;&gt;s8 -->
<g id="edge12" class="edge">
<title>s7&#45;&gt;s8</title>
<path fill="none" stroke="black" d="M231.95,-23.11C242.15,-23.11 255.09,-23.11 266.7,-23.11"/>
<polygon fill="black" stroke="black" points="266.63,-26.61 276.63,-23.11 266.63,-19.61 266.63,-26.61"/>
<text text-anchor="middle" x="257.02" y="-26.31" font-family="Times,serif" font-size="14.00">o</text>
</g>
<!-- s8&#45;&gt;s9 -->
<g id="edge13" class="edge">
<title>s8&#45;&gt;s9</title>
<path fill="none" stroke="black" d="M316.82,-23.11C325.22,-23.11 335.45,-23.11 345.19,-23.11"/>
<polygon fill="black" stroke="black" points="345.14,-26.61 355.14,-23.11 345.14,-19.61 345.14,-26.61"/>
<text text-anchor="middle" x="336.86" y="-26.31" font-family="Times,serif" font-size="14.00">f</text>
</g>
</g>
</svg>
