<?xml version="1.0" encoding="UTF-8" standalone="no"?>
<!DOCTYPE svg PUBLIC "-//W3C//DTD SVG 1.1//EN"
 "http://www.w3.org/Graphics/SVG/1.1/DTD/svg11.dtd">
<!-- Generated by graphviz version 2.38.0 (20140413.2041)
 -->
<!-- Title: finite_state_machine Pages: 1 -->
<svg width="333pt" height="268pt"
 viewBox="0.00 0.00 332.79 268.20" xmlns="http://www.w3.org/2000/svg" xmlns:xlink="http://www.w3.org/1999/xlink">
<g id="graph0" class="graph" transform="scale(1 1) rotate(0) translate(4 264.199)">
<title>finite_state_machine</title>
<polygon fill="white" stroke="none" points="-4,4 -4,-264.199 328.786,-264.199 328.786,4 -4,4"/>
<!-- s1 -->
<g id="node1" class="node"><title>s1</title>
<ellipse fill="none" stroke="black" cx="22" cy="-111.199" rx="18" ry="18"/>
<ellipse fill="none" stroke="black" cx="22" cy="-111.199" rx="22" ry="22"/>
<text text-anchor="middle" x="22" y="-106.999" font-family="Times,serif" font-size="14.00">s1</text>
</g>
<!-- s1&#45;&gt;s1 -->
<g id="edge5" class="edge"><title>s1&#45;&gt;s1</title>
<path fill="none" stroke="black" d="M14.6831,-132.19C13.7798,-142.287 16.2188,-151.199 22,-151.199 25.7036,-151.199 28.0356,-147.542 28.9958,-142.258"/>
<polygon fill="black" stroke="black" points="32.4963,-142.297 29.3169,-132.19 25.4998,-142.074 32.4963,-142.297"/>
<text text-anchor="middle" x="22" y="-153.999" font-family="Times,serif" font-size="14.00">&#39;</text>
</g>
<!-- s2 -->
<g id="node2" class="node"><title>s2</title>
<ellipse fill="none" stroke="black" cx="105.89" cy="-206.199" rx="18" ry="18"/>
<ellipse fill="none" stroke="black" cx="105.89" cy="-206.199" rx="22" ry="22"/>
<text text-anchor="middle" x="105.89" y="-201.999" font-family="Times,serif" font-size="14.00">s2</text>
</g>
<!-- s1&#45;&gt;s2 -->
<g id="edge6" class="edge"><title>s1&#45;&gt;s2</title>
<path fill="none" stroke="black" d="M30.1289,-131.903C36.4608,-147.815 47.0424,-169.49 62,-184.199 66.0275,-188.16 70.913,-191.562 75.9239,-194.424"/>
<polygon fill="black" stroke="black" points="74.4205,-197.586 84.921,-198.997 77.5922,-191.345 74.4205,-197.586"/>
<text text-anchor="middle" x="63.9448" y="-189.999" font-family="Times,serif" font-size="14.00">\</text>
</g>
<!-- s0 -->
<g id="node3" class="node"><title>s0</title>
<ellipse fill="none" stroke="black" cx="306.786" cy="-142.199" rx="18" ry="18"/>
<text text-anchor="middle" x="306.786" y="-137.999" font-family="Times,serif" font-size="14.00">s0</text>
</g>
<!-- s1&#45;&gt;s0 -->
<g id="edge7" class="edge"><title>s1&#45;&gt;s0</title>
<path fill="none" stroke="black" d="M42.7035,-103.414C71.1753,-93.0986 125.543,-76.8988 172.338,-83.1994 217.303,-89.2536 231.061,-88.2821 270.786,-110.199 276.42,-113.308 281.877,-117.501 286.738,-121.827"/>
<polygon fill="black" stroke="black" points="284.645,-124.669 294.286,-129.064 289.49,-119.616 284.645,-124.669"/>
<text text-anchor="middle" x="159.114" y="-91.9995" font-family="Times,serif" font-size="14.00">◉</text>
</g>
<!-- s3 -->
<g id="node4" class="node"><title>s3</title>
<ellipse fill="none" stroke="black" cx="208.338" cy="-142.199" rx="18" ry="18"/>
<text text-anchor="middle" x="208.338" y="-137.999" font-family="Times,serif" font-size="14.00">s3</text>
</g>
<!-- s1&#45;&gt;s3 -->
<g id="edge8" class="edge"><title>s1&#45;&gt;s3</title>
<path fill="none" stroke="black" d="M43.7876,-114.695C77.2958,-120.33 143.236,-131.42 180.336,-137.659"/>
<polygon fill="black" stroke="black" points="179.979,-141.148 190.421,-139.355 181.14,-134.244 179.979,-141.148"/>
<text text-anchor="middle" x="105.89" y="-130.999" font-family="Times,serif" font-size="14.00">EOF</text>
</g>
<!-- s2&#45;&gt;s1 -->
<g id="edge9" class="edge"><title>s2&#45;&gt;s1</title>
<path fill="none" stroke="black" d="M90.789,-189.841C77.9256,-174.919 58.7419,-152.664 44.0616,-135.633"/>
<polygon fill="black" stroke="black" points="46.4442,-133.036 37.2641,-127.747 41.1422,-137.607 46.4442,-133.036"/>
<text text-anchor="middle" x="63.9448" y="-163.999" font-family="Times,serif" font-size="14.00">&#39;</text>
</g>
<!-- s2&#45;&gt;s2 -->
<g id="edge10" class="edge"><title>s2&#45;&gt;s2</title>
<path fill="none" stroke="black" d="M98.5728,-227.19C97.6694,-237.287 100.108,-246.199 105.89,-246.199 109.593,-246.199 111.925,-242.542 112.885,-237.258"/>
<polygon fill="black" stroke="black" points="116.386,-237.297 113.207,-227.19 109.389,-237.074 116.386,-237.297"/>
<text text-anchor="middle" x="105.89" y="-248.999" font-family="Times,serif" font-size="14.00">\</text>
</g>
<!-- s2&#45;&gt;s0 -->
<g id="edge11" class="edge"><title>s2&#45;&gt;s0</title>
<path fill="none" stroke="black" d="M124.417,-218.178C130.892,-222.028 138.467,-225.89 145.89,-228.199 180.072,-238.836 192.593,-244.151 226.338,-232.199 257.246,-221.253 280.17,-189.77 293.251,-167.127"/>
<polygon fill="black" stroke="black" points="296.328,-168.795 298.092,-158.348 290.198,-165.415 296.328,-168.795"/>
<text text-anchor="middle" x="208.338" y="-248" font-family="Times,serif" font-size="14.00">◉</text>
</g>
<!-- s2&#45;&gt;s3 -->
<g id="edge12" class="edge"><title>s2&#45;&gt;s3</title>
<path fill="none" stroke="black" d="M127.681,-202.299C141.254,-199.04 158.884,-193.407 172.338,-184.199 179.608,-179.224 186.207,-172.336 191.666,-165.576"/>
<polygon fill="black" stroke="black" points="194.724,-167.331 197.935,-157.235 189.129,-163.125 194.724,-167.331"/>
<text text-anchor="middle" x="159.114" y="-198.999" font-family="Times,serif" font-size="14.00">EOF</text>
</g>
<!-- s0&#45;&gt;s1 -->
<g id="edge1" class="edge"><title>s0&#45;&gt;s1</title>
<path fill="none" stroke="black" d="M305.677,-123.986C304.49,-98.3328 298.368,-51.8329 270.786,-26.1995 237.945,4.32193 216.901,-9.11807 172.338,-4.19949 122.635,1.28631 100.292,5.95876 62,-26.1995 45.7397,-39.8551 35.9147,-61.7419 30.1935,-79.886"/>
<polygon fill="black" stroke="black" points="26.8276,-78.9268 27.4225,-89.5049 33.554,-80.8646 26.8276,-78.9268"/>
<text text-anchor="middle" x="159.114" y="-6.99949" font-family="Times,serif" font-size="14.00">&#39;</text>
</g>
<!-- s0&#45;&gt;s2 -->
<g id="edge2" class="edge"><title>s0&#45;&gt;s2</title>
<path fill="none" stroke="black" d="M293.079,-154.227C278.218,-167.64 252.327,-189.044 226.338,-201.199 193.531,-216.545 181.923,-217.857 145.89,-214.199 143.148,-213.921 140.314,-213.535 137.483,-213.083"/>
<polygon fill="black" stroke="black" points="137.884,-209.598 127.414,-211.22 136.611,-216.481 137.884,-209.598"/>
<text text-anchor="middle" x="208.338" y="-216.999" font-family="Times,serif" font-size="14.00">\</text>
</g>
<!-- s0&#45;&gt;s0 -->
<g id="edge3" class="edge"><title>s0&#45;&gt;s0</title>
<path fill="none" stroke="black" d="M298.421,-158.49C296.404,-168.589 299.192,-178.199 306.786,-178.199 311.651,-178.199 314.543,-174.255 315.464,-168.765"/>
<polygon fill="black" stroke="black" points="318.954,-168.379 315.151,-158.49 311.957,-168.592 318.954,-168.379"/>
<text text-anchor="middle" x="306.786" y="-188" font-family="Times,serif" font-size="14.00">◉</text>
</g>
<!-- s0&#45;&gt;s3 -->
<g id="edge4" class="edge"><title>s0&#45;&gt;s3</title>
<path fill="none" stroke="black" d="M288.692,-142.199C274.336,-142.199 253.551,-142.199 236.854,-142.199"/>
<polygon fill="black" stroke="black" points="236.581,-138.7 226.581,-142.199 236.581,-145.7 236.581,-138.7"/>
<text text-anchor="middle" x="257.562" y="-144.999" font-family="Times,serif" font-size="14.00">EOF</text>
</g>
<!-- s3&#45;&gt;s1 -->
<g id="edge13" class="edge"><title>s3&#45;&gt;s1</title>
<path fill="none" stroke="black" d="M192.876,-132.564C177.511,-122.952 152.136,-108.83 127.89,-103.199 103.388,-97.51 74.8898,-100.258 53.7876,-104.012"/>
<polygon fill="black" stroke="black" points="52.9247,-100.614 43.7802,-105.964 54.2654,-107.484 52.9247,-100.614"/>
<text text-anchor="middle" x="105.89" y="-105.999" font-family="Times,serif" font-size="14.00">&#39;</text>
</g>
<!-- s3&#45;&gt;s2 -->
<g id="edge14" class="edge"><title>s3&#45;&gt;s2</title>
<path fill="none" stroke="black" d="M190.773,-146.569C177.855,-150.456 159.828,-156.963 145.89,-166.199 139.331,-170.546 133.012,-176.154 127.441,-181.789"/>
<polygon fill="black" stroke="black" points="124.624,-179.676 120.353,-189.372 129.739,-184.456 124.624,-179.676"/>
<text text-anchor="middle" x="159.114" y="-168.999" font-family="Times,serif" font-size="14.00">\</text>
</g>
<!-- s3&#45;&gt;s0 -->
<g id="edge15" class="edge"><title>s3&#45;&gt;s0</title>
<path fill="none" stroke="black" d="M221.891,-130.319C228.129,-125.224 236.089,-119.843 244.338,-117.199 255.532,-113.612 259.592,-113.612 270.786,-117.199 275.684,-118.769 280.48,-121.304 284.874,-124.17"/>
<polygon fill="black" stroke="black" points="283.104,-127.213 293.233,-130.319 287.251,-121.574 283.104,-127.213"/>
<text text-anchor="middle" x="257.562" y="-126" font-family="Times,serif" font-size="14.00">◉</text>
</g>
<!-- s3&#45;&gt;s3 -->
<g id="edge16" class="edge"><title>s3&#45;&gt;s3</title>
<path fill="none" stroke="black" d="M199.973,-158.49C197.956,-168.589 200.744,-178.199 208.338,-178.199 213.203,-178.199 216.095,-174.255 217.016,-168.765"/>
<polygon fill="black" stroke="black" points="220.506,-168.379 216.703,-158.49 213.509,-168.592 220.506,-168.379"/>
<text text-anchor="middle" x="208.338" y="-180.999" font-family="Times,serif" font-size="14.00">EOF</text>
</g>
</g>
</svg>
