<?xml version="1.0" encoding="UTF-8" standalone="no"?>
<!DOCTYPE svg PUBLIC "-//W3C//DTD SVG 1.1//EN"
 "http://www.w3.org/Graphics/SVG/1.1/DTD/svg11.dtd">
<!-- Generated by graphviz version 12.2.1 (20241206.2353)
 -->
<!-- Title: finite_state_machine Pages: 1 -->
<svg width="342pt" height="280pt"
 viewBox="0.00 0.00 341.86 280.20" xmlns="http://www.w3.org/2000/svg" xmlns:xlink="http://www.w3.org/1999/xlink">
<g id="graph0" class="graph" transform="scale(1 1) rotate(0) translate(4 276.2)">
<title>finite_state_machine</title>
<polygon fill="white" stroke="none" points="-4,4 -4,-276.2 337.86,-276.2 337.86,4 -4,4"/>
<!-- s1 -->
<g id="node1" class="node">
<title>s1</title>
<ellipse fill="none" stroke="black" cx="23.11" cy="-114.6" rx="19.11" ry="19.11"/>
<ellipse fill="none" stroke="black" cx="23.11" cy="-114.6" rx="23.11" ry="23.11"/>
<text text-anchor="middle" x="23.11" y="-109.55" font-family="Times,serif" font-size="14.00">s1</text>
</g>
<!-- s1&#45;&gt;s1 -->
<g id="edge5" class="edge">
<title>s1&#45;&gt;s1</title>
<path fill="none" stroke="black" d="M15,-136.59C14.12,-146.79 16.82,-155.7 23.11,-155.7 26.84,-155.7 29.31,-152.56 30.52,-147.87"/>
<polygon fill="black" stroke="black" points="34,-148.3 31.12,-138.1 27.01,-147.86 34,-148.3"/>
<text text-anchor="middle" x="23.11" y="-158.9" font-family="Times,serif" font-size="14.00">&quot;</text>
</g>
<!-- s2 -->
<g id="node2" class="node">
<title>s2</title>
<ellipse fill="none" stroke="black" cx="111.32" cy="-214.6" rx="19.11" ry="19.11"/>
<ellipse fill="none" stroke="black" cx="111.32" cy="-214.6" rx="23.11" ry="23.11"/>
<text text-anchor="middle" x="111.32" y="-209.55" font-family="Times,serif" font-size="14.00">s2</text>
</g>
<!-- s1&#45;&gt;s2 -->
<g id="edge6" class="edge">
<title>s1&#45;&gt;s2</title>
<path fill="none" stroke="black" d="M30.99,-136.5C37.31,-153.6 48.15,-177.01 64.22,-192.6 68.4,-196.66 73.49,-200.09 78.73,-202.94"/>
<polygon fill="black" stroke="black" points="76.9,-205.95 87.43,-207.08 79.9,-199.63 76.9,-205.95"/>
<text text-anchor="middle" x="67.22" y="-200.25" font-family="Times,serif" font-size="14.00">\</text>
</g>
<!-- s0 -->
<g id="node3" class="node">
<title>s0</title>
<ellipse fill="none" stroke="black" cx="314.75" cy="-148.6" rx="19.11" ry="19.11"/>
<text text-anchor="middle" x="314.75" y="-143.55" font-family="Times,serif" font-size="14.00">s0</text>
</g>
<!-- s1&#45;&gt;s0 -->
<g id="edge7" class="edge">
<title>s1&#45;&gt;s0</title>
<path fill="none" stroke="black" d="M45.05,-106.17C51.14,-104.02 57.87,-101.95 64.22,-100.6 113.74,-90.07 127.83,-86.22 177.93,-93.6 223.72,-100.33 235.95,-103.51 277.65,-123.6 281.78,-125.59 285.96,-128.02 289.94,-130.58"/>
<polygon fill="black" stroke="black" points="287.82,-133.37 298.04,-136.17 291.8,-127.61 287.82,-133.37"/>
<text text-anchor="middle" x="165.18" y="-95.3" font-family="Times,serif" font-size="14.00">◉</text>
</g>
<!-- s3 -->
<g id="node4" class="node">
<title>s3</title>
<ellipse fill="none" stroke="black" cx="215.04" cy="-148.6" rx="19.11" ry="19.11"/>
<text text-anchor="middle" x="215.04" y="-143.55" font-family="Times,serif" font-size="14.00">s3</text>
</g>
<!-- s1&#45;&gt;s3 -->
<g id="edge8" class="edge">
<title>s1&#45;&gt;s3</title>
<path fill="none" stroke="black" d="M46.27,-118.56C80.67,-124.72 146.95,-136.59 185.1,-143.41"/>
<polygon fill="black" stroke="black" points="184.01,-146.78 194.47,-145.09 185.25,-139.89 184.01,-146.78"/>
<text text-anchor="middle" x="111.32" y="-137.06" font-family="Times,serif" font-size="14.00">EOF</text>
</g>
<!-- s2&#45;&gt;s1 -->
<g id="edge9" class="edge">
<title>s2&#45;&gt;s1</title>
<path fill="none" stroke="black" d="M95.63,-197.55C81.98,-181.72 61.48,-157.94 45.92,-139.9"/>
<polygon fill="black" stroke="black" points="48.9,-137.99 39.72,-132.71 43.6,-142.57 48.9,-137.99"/>
<text text-anchor="middle" x="67.22" y="-170.79" font-family="Times,serif" font-size="14.00">&quot;</text>
</g>
<!-- s2&#45;&gt;s2 -->
<g id="edge10" class="edge">
<title>s2&#45;&gt;s2</title>
<path fill="none" stroke="black" d="M103.22,-236.59C102.33,-246.79 105.03,-255.7 111.32,-255.7 115.06,-255.7 117.53,-252.56 118.73,-247.87"/>
<polygon fill="black" stroke="black" points="122.21,-248.3 119.34,-238.1 115.22,-247.86 122.21,-248.3"/>
<text text-anchor="middle" x="111.32" y="-258.9" font-family="Times,serif" font-size="14.00">\</text>
</g>
<!-- s2&#45;&gt;s0 -->
<g id="edge11" class="edge">
<title>s2&#45;&gt;s0</title>
<path fill="none" stroke="black" d="M130.19,-228.57C136.83,-233.1 144.65,-237.7 152.43,-240.6 186.56,-253.29 200.3,-260.03 234.15,-246.6 265.91,-233.98 288.51,-200.38 301.33,-176.03"/>
<polygon fill="black" stroke="black" points="304.36,-177.8 305.7,-167.29 298.1,-174.67 304.36,-177.8"/>
<text text-anchor="middle" x="215.04" y="-255.65" font-family="Times,serif" font-size="14.00">◉</text>
</g>
<!-- s2&#45;&gt;s3 -->
<g id="edge12" class="edge">
<title>s2&#45;&gt;s3</title>
<path fill="none" stroke="black" d="M134.4,-210.45C147.84,-207.16 164.87,-201.6 177.93,-192.6 185.2,-187.58 191.8,-180.71 197.3,-173.88"/>
<polygon fill="black" stroke="black" points="200.01,-176.1 203.19,-165.99 194.4,-171.91 200.01,-176.1"/>
<text text-anchor="middle" x="165.18" y="-208.25" font-family="Times,serif" font-size="14.00">EOF</text>
</g>
<!-- s0&#45;&gt;s1 -->
<g id="edge1" class="edge">
<title>s0&#45;&gt;s1</title>
<path fill="none" stroke="black" d="M313.56,-129.39C312.21,-102.86 305.72,-55.27 277.65,-28.6 244.56,2.83 223.24,-9.58 177.93,-4.1 126.6,2.12 103.67,4.81 64.22,-28.6 48.36,-42.02 38.39,-63.09 32.36,-81.01"/>
<polygon fill="black" stroke="black" points="29.04,-79.91 29.46,-90.5 35.73,-81.96 29.04,-79.91"/>
<text text-anchor="middle" x="165.18" y="-7.3" font-family="Times,serif" font-size="14.00">&quot;</text>
</g>
<!-- s0&#45;&gt;s2 -->
<g id="edge2" class="edge">
<title>s0&#45;&gt;s2</title>
<path fill="none" stroke="black" d="M300.62,-161.96C285.77,-176.31 260.24,-198.77 234.15,-211.6 201.08,-227.85 188.95,-230.51 152.43,-225.6 149.93,-225.26 147.37,-224.81 144.8,-224.28"/>
<polygon fill="black" stroke="black" points="145.76,-220.92 135.22,-221.97 144.12,-227.72 145.76,-220.92"/>
<text text-anchor="middle" x="215.04" y="-229.44" font-family="Times,serif" font-size="14.00">\</text>
</g>
<!-- s0&#45;&gt;s0 -->
<g id="edge3" class="edge">
<title>s0&#45;&gt;s0</title>
<path fill="none" stroke="black" d="M305.99,-165.77C304.04,-176.04 306.96,-185.7 314.75,-185.7 319.5,-185.7 322.44,-182.12 323.57,-176.99"/>
<polygon fill="black" stroke="black" points="327.07,-177.27 323.52,-167.29 320.07,-177.3 327.07,-177.27"/>
<text text-anchor="middle" x="314.75" y="-187.4" font-family="Times,serif" font-size="14.00">◉</text>
</g>
<!-- s0&#45;&gt;s3 -->
<g id="edge4" class="edge">
<title>s0&#45;&gt;s3</title>
<path fill="none" stroke="black" d="M295.46,-148.6C281.42,-148.6 261.76,-148.6 245.51,-148.6"/>
<polygon fill="black" stroke="black" points="245.93,-145.1 235.93,-148.6 245.93,-152.1 245.93,-145.1"/>
<text text-anchor="middle" x="264.9" y="-151.8" font-family="Times,serif" font-size="14.00">EOF</text>
</g>
<!-- s3&#45;&gt;s1 -->
<g id="edge13" class="edge">
<title>s3&#45;&gt;s1</title>
<path fill="none" stroke="black" d="M199.11,-137.72C183.76,-127.26 158.75,-112.18 134.43,-106.1 108.84,-99.69 78.96,-102.6 56.76,-106.68"/>
<polygon fill="black" stroke="black" points="56.18,-103.23 47.08,-108.64 57.58,-110.09 56.18,-103.23"/>
<text text-anchor="middle" x="111.32" y="-109.3" font-family="Times,serif" font-size="14.00">&quot;</text>
</g>
<!-- s3&#45;&gt;s2 -->
<g id="edge14" class="edge">
<title>s3&#45;&gt;s2</title>
<path fill="none" stroke="black" d="M196.03,-153.13C183.17,-156.91 165.85,-163.12 152.43,-172.1 145.74,-176.57 139.35,-182.34 133.71,-188.19"/>
<polygon fill="black" stroke="black" points="131.18,-185.78 127.06,-195.54 136.37,-190.47 131.18,-185.78"/>
<text text-anchor="middle" x="165.18" y="-175.3" font-family="Times,serif" font-size="14.00">\</text>
</g>
<!-- s3&#45;&gt;s0 -->
<g id="edge15" class="edge">
<title>s3&#45;&gt;s0</title>
<path fill="none" stroke="black" d="M231.55,-138.32C237.69,-134.83 244.99,-131.36 252.15,-129.6 263.15,-126.88 266.64,-126.88 277.65,-129.6 281.11,-130.45 284.61,-131.71 287.99,-133.17"/>
<polygon fill="black" stroke="black" points="286.39,-136.28 296.89,-137.64 289.53,-130.02 286.39,-136.28"/>
<text text-anchor="middle" x="264.9" y="-131.3" font-family="Times,serif" font-size="14.00">◉</text>
</g>
<!-- s3&#45;&gt;s3 -->
<g id="edge16" class="edge">
<title>s3&#45;&gt;s3</title>
<path fill="none" stroke="black" d="M206.27,-165.77C204.33,-176.04 207.25,-185.7 215.04,-185.7 219.78,-185.7 222.72,-182.12 223.86,-176.99"/>
<polygon fill="black" stroke="black" points="227.36,-177.27 223.81,-167.29 220.36,-177.3 227.36,-177.27"/>
<text text-anchor="middle" x="215.04" y="-188.9" font-family="Times,serif" font-size="14.00">EOF</text>
</g>
</g>
</svg>
