<?xml version="1.0" encoding="UTF-8" standalone="no"?>
<!DOCTYPE svg PUBLIC "-//W3C//DTD SVG 1.1//EN"
 "http://www.w3.org/Graphics/SVG/1.1/DTD/svg11.dtd">
<!-- Generated by graphviz version 2.38.0 (20140413.2041)
 -->
<!-- Title: finite_state_machine Pages: 1 -->
<svg width="334pt" height="213pt"
 viewBox="0.00 0.00 333.56 213.36" xmlns="http://www.w3.org/2000/svg" xmlns:xlink="http://www.w3.org/1999/xlink">
<g id="graph0" class="graph" transform="scale(1 1) rotate(0) translate(4 209.364)">
<title>finite_state_machine</title>
<polygon fill="white" stroke="none" points="-4,4 -4,-209.364 329.559,-209.364 329.559,4 -4,4"/>
<!-- s1 -->
<g id="node1" class="node"><title>s1</title>
<ellipse fill="none" stroke="black" cx="22" cy="-40.364" rx="18" ry="18"/>
<ellipse fill="none" stroke="black" cx="22" cy="-40.364" rx="22" ry="22"/>
<text text-anchor="middle" x="22" y="-36.164" font-family="Times,serif" font-size="14.00">s1</text>
</g>
<!-- s3 -->
<g id="node2" class="node"><title>s3</title>
<ellipse fill="none" stroke="black" cx="106.662" cy="-151.364" rx="18" ry="18"/>
<ellipse fill="none" stroke="black" cx="106.662" cy="-151.364" rx="22" ry="22"/>
<text text-anchor="middle" x="106.662" y="-147.164" font-family="Times,serif" font-size="14.00">s3</text>
</g>
<!-- s1&#45;&gt;s3 -->
<g id="edge4" class="edge"><title>s1&#45;&gt;s3</title>
<path fill="none" stroke="black" d="M33.3119,-59.4963C40.6765,-72.5681 51.1627,-90.0472 62,-104.364 68.3186,-112.711 75.8838,-121.265 82.9282,-128.749"/>
<polygon fill="black" stroke="black" points="80.8269,-131.613 90.2841,-136.389 85.8695,-126.758 80.8269,-131.613"/>
<text text-anchor="middle" x="64.3311" y="-113.164" font-family="Times,serif" font-size="14.00">`</text>
</g>
<!-- s0 -->
<g id="node3" class="node"><title>s0</title>
<ellipse fill="none" stroke="black" cx="209.11" cy="-66.364" rx="18" ry="18"/>
<text text-anchor="middle" x="209.11" y="-62.164" font-family="Times,serif" font-size="14.00">s0</text>
</g>
<!-- s1&#45;&gt;s0 -->
<g id="edge5" class="edge"><title>s1&#45;&gt;s0</title>
<path fill="none" stroke="black" d="M41.4599,-51.1678C53.3587,-57.5092 69.4061,-64.9327 84.6621,-68.364 123.054,-76.9988 133.902,-75.7004 173.11,-72.364 175.69,-72.1445 178.366,-71.8355 181.036,-71.4723"/>
<polygon fill="black" stroke="black" points="181.767,-74.9003 191.095,-69.8775 180.671,-67.9866 181.767,-74.9003"/>
<text text-anchor="middle" x="106.662" y="-84.1641" font-family="Times,serif" font-size="14.00">◉</text>
</g>
<!-- s2 -->
<g id="node4" class="node"><title>s2</title>
<ellipse fill="none" stroke="black" cx="307.559" cy="-27.364" rx="18" ry="18"/>
<text text-anchor="middle" x="307.559" y="-23.164" font-family="Times,serif" font-size="14.00">s2</text>
</g>
<!-- s1&#45;&gt;s2 -->
<g id="edge6" class="edge"><title>s1&#45;&gt;s2</title>
<path fill="none" stroke="black" d="M44.0645,-37.1954C83.4365,-31.4508 170.917,-19.5264 245.11,-15.364 256.847,-14.7056 259.964,-13.4315 271.559,-15.364 274.689,-15.8858 277.915,-16.6531 281.083,-17.5518"/>
<polygon fill="black" stroke="black" points="280.224,-20.9531 290.816,-20.7304 282.397,-14.299 280.224,-20.9531"/>
<text text-anchor="middle" x="159.886" y="-26.164" font-family="Times,serif" font-size="14.00">EOF</text>
</g>
<!-- s3&#45;&gt;s3 -->
<g id="edge10" class="edge"><title>s3&#45;&gt;s3</title>
<path fill="none" stroke="black" d="M98.9794,-172.355C98.0309,-182.451 100.592,-191.364 106.662,-191.364 110.551,-191.364 112.999,-187.706 114.008,-182.423"/>
<polygon fill="black" stroke="black" points="117.508,-182.466 114.345,-172.355 110.512,-182.232 117.508,-182.466"/>
<text text-anchor="middle" x="106.662" y="-194.164" font-family="Times,serif" font-size="14.00">`</text>
</g>
<!-- s3&#45;&gt;s0 -->
<g id="edge11" class="edge"><title>s3&#45;&gt;s0</title>
<path fill="none" stroke="black" d="M125.105,-139.016C138.583,-129.245 157.508,-115.018 173.11,-101.364 178.498,-96.6493 184.086,-91.2964 189.173,-86.22"/>
<polygon fill="black" stroke="black" points="191.671,-88.6716 196.186,-79.087 186.679,-83.7639 191.671,-88.6716"/>
<text text-anchor="middle" x="159.886" y="-132.164" font-family="Times,serif" font-size="14.00">◉</text>
</g>
<!-- s3&#45;&gt;s2 -->
<g id="edge12" class="edge"><title>s3&#45;&gt;s2</title>
<path fill="none" stroke="black" d="M128.858,-152.874C154.219,-153.646 197.02,-151.569 227.11,-132.364 257.9,-112.712 281.206,-76.6853 294.375,-52.3814"/>
<polygon fill="black" stroke="black" points="297.545,-53.8717 299.077,-43.3882 291.342,-50.6282 297.545,-53.8717"/>
<text text-anchor="middle" x="209.11" y="-149.164" font-family="Times,serif" font-size="14.00">EOF</text>
</g>
<!-- s0&#45;&gt;s1 -->
<g id="edge1" class="edge"><title>s0&#45;&gt;s1</title>
<path fill="none" stroke="black" d="M191.076,-63.6995C174.997,-61.2062 150.208,-57.4183 128.662,-54.364 103.585,-50.8091 75.118,-47.0534 54.055,-44.3279"/>
<polygon fill="black" stroke="black" points="54.4306,-40.8474 44.0653,-43.0406 53.5359,-47.79 54.4306,-40.8474"/>
<text text-anchor="middle" x="106.662" y="-57.164" font-family="Times,serif" font-size="14.00">`</text>
</g>
<!-- s0&#45;&gt;s0 -->
<g id="edge2" class="edge"><title>s0&#45;&gt;s0</title>
<path fill="none" stroke="black" d="M200.745,-82.6543C198.728,-92.7532 201.517,-102.364 209.11,-102.364 213.975,-102.364 216.868,-98.4197 217.788,-92.9296"/>
<polygon fill="black" stroke="black" points="221.278,-92.5431 217.475,-82.6543 214.281,-92.7562 221.278,-92.5431"/>
<text text-anchor="middle" x="209.11" y="-112.164" font-family="Times,serif" font-size="14.00">◉</text>
</g>
<!-- s0&#45;&gt;s2 -->
<g id="edge3" class="edge"><title>s0&#45;&gt;s2</title>
<path fill="none" stroke="black" d="M226.994,-63.0862C239.601,-60.3093 257.077,-55.7536 271.559,-49.364 275.622,-47.5714 279.765,-45.3601 283.713,-43.0372"/>
<polygon fill="black" stroke="black" points="285.831,-45.8403 292.439,-37.5593 282.109,-39.9116 285.831,-45.8403"/>
<text text-anchor="middle" x="258.334" y="-61.164" font-family="Times,serif" font-size="14.00">EOF</text>
</g>
<!-- s2&#45;&gt;s1 -->
<g id="edge7" class="edge"><title>s2&#45;&gt;s1</title>
<path fill="none" stroke="black" d="M291.775,-18.0779C285.733,-14.7385 278.533,-11.3168 271.559,-9.36402 242.135,-1.12589 179.589,2.5681 146.662,-2.36402 113.474,-7.33518 76.9014,-19.4481 52.2003,-28.6727"/>
<polygon fill="black" stroke="black" points="50.8019,-25.4601 42.7065,-32.2949 53.2972,-32.0003 50.8019,-25.4601"/>
<text text-anchor="middle" x="159.886" y="-5.16402" font-family="Times,serif" font-size="14.00">`</text>
</g>
<!-- s2&#45;&gt;s0 -->
<g id="edge8" class="edge"><title>s2&#45;&gt;s0</title>
<path fill="none" stroke="black" d="M290.095,-22.5147C277.233,-19.6556 259.232,-17.7497 245.11,-24.364 236.832,-28.2414 229.828,-35.1461 224.312,-42.2514"/>
<polygon fill="black" stroke="black" points="221.396,-40.3144 218.533,-50.5151 227.132,-44.3262 221.396,-40.3144"/>
<text text-anchor="middle" x="258.334" y="-33.1641" font-family="Times,serif" font-size="14.00">◉</text>
</g>
<!-- s2&#45;&gt;s2 -->
<g id="edge9" class="edge"><title>s2&#45;&gt;s2</title>
<path fill="none" stroke="black" d="M299.194,-43.6543C297.177,-53.7532 299.965,-63.364 307.559,-63.364 312.423,-63.364 315.316,-59.4197 316.236,-53.9296"/>
<polygon fill="black" stroke="black" points="319.726,-53.5431 315.924,-43.6543 312.73,-53.7562 319.726,-53.5431"/>
<text text-anchor="middle" x="307.559" y="-66.164" font-family="Times,serif" font-size="14.00">EOF</text>
</g>
</g>
</svg>
