<?xml version="1.0" encoding="UTF-8" standalone="no"?>
<!DOCTYPE svg PUBLIC "-//W3C//DTD SVG 1.1//EN"
 "http://www.w3.org/Graphics/SVG/1.1/DTD/svg11.dtd">
<!-- Generated by graphviz version 2.38.0 (20140413.2041)
 -->
<!-- Title: finite_state_machine Pages: 1 -->
<svg width="335pt" height="268pt"
 viewBox="0.00 0.00 334.61 268.37" xmlns="http://www.w3.org/2000/svg" xmlns:xlink="http://www.w3.org/1999/xlink">
<g id="graph0" class="graph" transform="scale(1 1) rotate(0) translate(4 264.366)">
<title>finite_state_machine</title>
<polygon fill="white" stroke="none" points="-4,4 -4,-264.366 330.611,-264.366 330.611,4 -4,4"/>
<!-- s1 -->
<g id="node1" class="node"><title>s1</title>
<ellipse fill="none" stroke="black" cx="22" cy="-111.366" rx="18" ry="18"/>
<ellipse fill="none" stroke="black" cx="22" cy="-111.366" rx="22" ry="22"/>
<text text-anchor="middle" x="22" y="-107.166" font-family="Times,serif" font-size="14.00">s1</text>
</g>
<!-- s1&#45;&gt;s1 -->
<g id="edge5" class="edge"><title>s1&#45;&gt;s1</title>
<path fill="none" stroke="black" d="M14.3173,-132.357C13.3688,-142.453 15.9297,-151.366 22,-151.366 25.8888,-151.366 28.3373,-147.708 29.3456,-142.424"/>
<polygon fill="black" stroke="black" points="32.846,-142.468 29.6827,-132.357 25.8499,-142.234 32.846,-142.468"/>
<text text-anchor="middle" x="22" y="-154.166" font-family="Times,serif" font-size="14.00">&quot;</text>
</g>
<!-- s2 -->
<g id="node2" class="node"><title>s2</title>
<ellipse fill="none" stroke="black" cx="107.715" cy="-206.366" rx="18" ry="18"/>
<ellipse fill="none" stroke="black" cx="107.715" cy="-206.366" rx="22" ry="22"/>
<text text-anchor="middle" x="107.715" y="-202.166" font-family="Times,serif" font-size="14.00">s2</text>
</g>
<!-- s1&#45;&gt;s2 -->
<g id="edge6" class="edge"><title>s1&#45;&gt;s2</title>
<path fill="none" stroke="black" d="M30.0611,-132.139C36.3556,-148.089 46.92,-169.782 62,-184.366 66.3825,-188.604 71.7405,-192.176 77.2048,-195.127"/>
<polygon fill="black" stroke="black" points="75.818,-198.344 86.3477,-199.516 78.8473,-192.034 75.818,-198.344"/>
<text text-anchor="middle" x="64.8574" y="-192.166" font-family="Times,serif" font-size="14.00">\</text>
</g>
<!-- s0 -->
<g id="node3" class="node"><title>s0</title>
<ellipse fill="none" stroke="black" cx="308.611" cy="-142.366" rx="18" ry="18"/>
<text text-anchor="middle" x="308.611" y="-138.166" font-family="Times,serif" font-size="14.00">s0</text>
</g>
<!-- s1&#45;&gt;s0 -->
<g id="edge7" class="edge"><title>s1&#45;&gt;s0</title>
<path fill="none" stroke="black" d="M42.9495,-103.56C71.7757,-93.2202 126.815,-76.9907 174.163,-83.3657 219.128,-89.4199 232.886,-88.4484 272.611,-110.366 278.246,-113.474 283.702,-117.667 288.563,-121.993"/>
<polygon fill="black" stroke="black" points="286.47,-124.835 296.111,-129.23 291.315,-119.783 286.47,-124.835"/>
<text text-anchor="middle" x="160.939" y="-92.1658" font-family="Times,serif" font-size="14.00">◉</text>
</g>
<!-- s3 -->
<g id="node4" class="node"><title>s3</title>
<ellipse fill="none" stroke="black" cx="210.163" cy="-142.366" rx="18" ry="18"/>
<text text-anchor="middle" x="210.163" y="-138.166" font-family="Times,serif" font-size="14.00">s3</text>
</g>
<!-- s1&#45;&gt;s3 -->
<g id="edge8" class="edge"><title>s1&#45;&gt;s3</title>
<path fill="none" stroke="black" d="M43.9934,-114.862C77.9199,-120.511 144.768,-131.643 182.181,-137.873"/>
<polygon fill="black" stroke="black" points="181.901,-141.374 192.34,-139.564 183.051,-134.469 181.901,-141.374"/>
<text text-anchor="middle" x="107.715" y="-131.166" font-family="Times,serif" font-size="14.00">EOF</text>
</g>
<!-- s2&#45;&gt;s1 -->
<g id="edge9" class="edge"><title>s2&#45;&gt;s1</title>
<path fill="none" stroke="black" d="M92.4441,-190.171C79.1914,-175.132 59.2874,-152.545 44.1812,-135.402"/>
<polygon fill="black" stroke="black" points="46.4384,-132.67 37.2011,-127.481 41.1866,-137.298 46.4384,-132.67"/>
<text text-anchor="middle" x="64.8574" y="-164.166" font-family="Times,serif" font-size="14.00">&quot;</text>
</g>
<!-- s2&#45;&gt;s2 -->
<g id="edge10" class="edge"><title>s2&#45;&gt;s2</title>
<path fill="none" stroke="black" d="M100.032,-227.357C99.0836,-237.453 101.645,-246.366 107.715,-246.366 111.604,-246.366 114.052,-242.708 115.06,-237.424"/>
<polygon fill="black" stroke="black" points="118.561,-237.468 115.398,-227.357 111.565,-237.234 118.561,-237.468"/>
<text text-anchor="middle" x="107.715" y="-249.166" font-family="Times,serif" font-size="14.00">\</text>
</g>
<!-- s2&#45;&gt;s0 -->
<g id="edge11" class="edge"><title>s2&#45;&gt;s0</title>
<path fill="none" stroke="black" d="M126.242,-218.344C132.717,-222.194 140.292,-226.056 147.715,-228.366 181.897,-239.002 194.418,-244.317 228.163,-232.366 259.071,-221.419 281.996,-189.937 295.076,-167.293"/>
<polygon fill="black" stroke="black" points="298.153,-168.961 299.917,-158.514 292.023,-165.581 298.153,-168.961"/>
<text text-anchor="middle" x="210.163" y="-248.166" font-family="Times,serif" font-size="14.00">◉</text>
</g>
<!-- s2&#45;&gt;s3 -->
<g id="edge12" class="edge"><title>s2&#45;&gt;s3</title>
<path fill="none" stroke="black" d="M129.507,-202.465C143.079,-199.207 160.709,-193.573 174.163,-184.366 181.433,-179.39 188.032,-172.502 193.491,-165.742"/>
<polygon fill="black" stroke="black" points="196.55,-167.498 199.761,-157.401 190.954,-163.292 196.55,-167.498"/>
<text text-anchor="middle" x="160.939" y="-199.166" font-family="Times,serif" font-size="14.00">EOF</text>
</g>
<!-- s0&#45;&gt;s1 -->
<g id="edge1" class="edge"><title>s0&#45;&gt;s1</title>
<path fill="none" stroke="black" d="M307.503,-124.153C306.315,-98.4991 300.193,-51.9992 272.611,-26.3658 239.77,4.15564 218.726,-9.28436 174.163,-4.36578 123.67,1.20733 100.987,6.20237 62,-26.3658 45.704,-39.9788 35.8798,-61.8665 30.1679,-80.0217"/>
<polygon fill="black" stroke="black" points="26.7998,-79.0699 27.4027,-89.6476 33.5277,-81.0027 26.7998,-79.0699"/>
<text text-anchor="middle" x="160.939" y="-7.16578" font-family="Times,serif" font-size="14.00">&quot;</text>
</g>
<!-- s0&#45;&gt;s2 -->
<g id="edge2" class="edge"><title>s0&#45;&gt;s2</title>
<path fill="none" stroke="black" d="M294.904,-154.393C280.043,-167.806 254.152,-189.21 228.163,-201.366 195.356,-216.711 183.748,-218.023 147.715,-214.366 144.973,-214.087 142.139,-213.702 139.308,-213.249"/>
<polygon fill="black" stroke="black" points="139.71,-209.764 129.24,-211.386 138.436,-216.647 139.71,-209.764"/>
<text text-anchor="middle" x="210.163" y="-217.166" font-family="Times,serif" font-size="14.00">\</text>
</g>
<!-- s0&#45;&gt;s0 -->
<g id="edge3" class="edge"><title>s0&#45;&gt;s0</title>
<path fill="none" stroke="black" d="M300.246,-158.656C298.229,-168.755 301.018,-178.366 308.611,-178.366 313.476,-178.366 316.369,-174.421 317.289,-168.931"/>
<polygon fill="black" stroke="black" points="320.779,-168.545 316.976,-158.656 313.782,-168.758 320.779,-168.545"/>
<text text-anchor="middle" x="308.611" y="-188.166" font-family="Times,serif" font-size="14.00">◉</text>
</g>
<!-- s0&#45;&gt;s3 -->
<g id="edge4" class="edge"><title>s0&#45;&gt;s3</title>
<path fill="none" stroke="black" d="M290.518,-142.366C276.161,-142.366 255.376,-142.366 238.679,-142.366"/>
<polygon fill="black" stroke="black" points="238.406,-138.866 228.406,-142.366 238.406,-145.866 238.406,-138.866"/>
<text text-anchor="middle" x="259.387" y="-145.166" font-family="Times,serif" font-size="14.00">EOF</text>
</g>
<!-- s3&#45;&gt;s1 -->
<g id="edge13" class="edge"><title>s3&#45;&gt;s1</title>
<path fill="none" stroke="black" d="M194.702,-132.73C179.336,-123.118 153.962,-108.996 129.715,-103.366 104.52,-97.5153 75.1679,-100.394 53.6315,-104.238"/>
<polygon fill="black" stroke="black" points="52.8838,-100.818 43.7394,-106.168 54.2247,-107.688 52.8838,-100.818"/>
<text text-anchor="middle" x="107.715" y="-106.166" font-family="Times,serif" font-size="14.00">&quot;</text>
</g>
<!-- s3&#45;&gt;s2 -->
<g id="edge14" class="edge"><title>s3&#45;&gt;s2</title>
<path fill="none" stroke="black" d="M192.598,-146.735C179.68,-150.622 161.654,-157.129 147.715,-166.366 141.156,-170.712 134.837,-176.32 129.266,-181.955"/>
<polygon fill="black" stroke="black" points="126.45,-179.842 122.178,-189.538 131.564,-184.622 126.45,-179.842"/>
<text text-anchor="middle" x="160.939" y="-169.166" font-family="Times,serif" font-size="14.00">\</text>
</g>
<!-- s3&#45;&gt;s0 -->
<g id="edge15" class="edge"><title>s3&#45;&gt;s0</title>
<path fill="none" stroke="black" d="M223.716,-130.485C229.955,-125.39 237.914,-120.009 246.163,-117.366 257.357,-113.778 261.417,-113.778 272.611,-117.366 277.509,-118.935 282.305,-121.47 286.699,-124.337"/>
<polygon fill="black" stroke="black" points="284.929,-127.38 295.059,-130.485 289.076,-121.74 284.929,-127.38"/>
<text text-anchor="middle" x="259.387" y="-126.166" font-family="Times,serif" font-size="14.00">◉</text>
</g>
<!-- s3&#45;&gt;s3 -->
<g id="edge16" class="edge"><title>s3&#45;&gt;s3</title>
<path fill="none" stroke="black" d="M201.798,-158.656C199.781,-168.755 202.569,-178.366 210.163,-178.366 215.028,-178.366 217.92,-174.421 218.841,-168.931"/>
<polygon fill="black" stroke="black" points="222.331,-168.545 218.528,-158.656 215.334,-168.758 222.331,-168.545"/>
<text text-anchor="middle" x="210.163" y="-181.166" font-family="Times,serif" font-size="14.00">EOF</text>
</g>
</g>
</svg>
