<?xml version="1.0" encoding="UTF-8" standalone="no"?>
<!DOCTYPE svg PUBLIC "-//W3C//DTD SVG 1.1//EN"
 "http://www.w3.org/Graphics/SVG/1.1/DTD/svg11.dtd">
<!-- Generated by graphviz version 12.2.1 (20241206.2353)
 -->
<!-- Title: finite_state_machine Pages: 1 -->
<svg width="585pt" height="576pt"
 viewBox="0.00 0.00 585.36 576.00" xmlns="http://www.w3.org/2000/svg" xmlns:xlink="http://www.w3.org/1999/xlink">
<g id="graph0" class="graph" transform="scale(0.925567 0.925567) rotate(0) translate(4 618.32)">
<title>finite_state_machine</title>
<polygon fill="white" stroke="none" points="-4,4 -4,-618.32 628.43,-618.32 628.43,4 -4,4"/>
<!-- s0 -->
<g id="node1" class="node">
<title>s0</title>
<ellipse fill="none" stroke="black" cx="23.11" cy="-82.71" rx="19.11" ry="19.11"/>
<ellipse fill="none" stroke="black" cx="23.11" cy="-82.71" rx="23.11" ry="23.11"/>
<text text-anchor="middle" x="23.11" y="-77.66" font-family="Times,serif" font-size="14.00">s0</text>
</g>
<!-- s0&#45;&gt;s0 -->
<g id="edge4" class="edge">
<title>s0&#45;&gt;s0</title>
<path fill="none" stroke="black" d="M13.24,-103.86C11.87,-114.41 15.16,-123.82 23.11,-123.82 27.95,-123.82 31.06,-120.33 32.44,-115.21"/>
<polygon fill="black" stroke="black" points="35.93,-115.53 32.9,-105.38 28.94,-115.2 35.93,-115.53"/>
<text text-anchor="middle" x="23.11" y="-127.02" font-family="Times,serif" font-size="14.00">0&#45;9</text>
</g>
<!-- s2 -->
<g id="node2" class="node">
<title>s2</title>
<ellipse fill="none" stroke="black" cx="131.57" cy="-142.71" rx="19.11" ry="19.11"/>
<ellipse fill="none" stroke="black" cx="131.57" cy="-142.71" rx="23.11" ry="23.11"/>
<text text-anchor="middle" x="131.57" y="-137.66" font-family="Times,serif" font-size="14.00">s2</text>
</g>
<!-- s0&#45;&gt;s2 -->
<g id="edge2" class="edge">
<title>s0&#45;&gt;s2</title>
<path fill="none" stroke="black" d="M43.63,-93.72C59.67,-102.75 82.63,-115.69 100.93,-126.01"/>
<polygon fill="black" stroke="black" points="99.06,-128.97 109.49,-130.83 102.5,-122.87 99.06,-128.97"/>
<text text-anchor="middle" x="77.34" y="-123.05" font-family="Times,serif" font-size="14.00">x</text>
</g>
<!-- s1 -->
<g id="node6" class="node">
<title>s1</title>
<ellipse fill="none" stroke="black" cx="131.57" cy="-82.71" rx="19.11" ry="19.11"/>
<text text-anchor="middle" x="131.57" y="-77.66" font-family="Times,serif" font-size="14.00">s1</text>
</g>
<!-- s0&#45;&gt;s1 -->
<g id="edge1" class="edge">
<title>s0&#45;&gt;s1</title>
<path fill="none" stroke="black" d="M46.69,-82.71C62.56,-82.71 83.94,-82.71 101.15,-82.71"/>
<polygon fill="black" stroke="black" points="100.76,-86.21 110.76,-82.71 100.76,-79.21 100.76,-86.21"/>
<text text-anchor="middle" x="77.34" y="-85.91" font-family="Times,serif" font-size="14.00">.</text>
</g>
<!-- s3 -->
<g id="node7" class="node">
<title>s3</title>
<ellipse fill="none" stroke="black" cx="131.57" cy="-26.71" rx="19.11" ry="19.11"/>
<text text-anchor="middle" x="131.57" y="-21.66" font-family="Times,serif" font-size="14.00">s3</text>
</g>
<!-- s0&#45;&gt;s3 -->
<g id="edge3" class="edge">
<title>s0&#45;&gt;s3</title>
<path fill="none" stroke="black" d="M44.13,-72.18C61.05,-63.28 85.42,-50.46 103.97,-40.7"/>
<polygon fill="black" stroke="black" points="105.57,-43.82 112.79,-36.07 102.31,-37.63 105.57,-43.82"/>
<text text-anchor="middle" x="77.34" y="-64.58" font-family="Times,serif" font-size="14.00">EOL</text>
</g>
<!-- s2&#45;&gt;s2 -->
<g id="edge6" class="edge">
<title>s2&#45;&gt;s2</title>
<path fill="none" stroke="black" d="M130.09,-165.96C129.98,-175.63 130.48,-183.82 131.57,-183.82 132.19,-183.82 132.61,-181.23 132.85,-177.24"/>
<polygon fill="black" stroke="black" points="136.35,-177.53 133.03,-167.47 129.35,-177.4 136.35,-177.53"/>
<text text-anchor="middle" x="131.57" y="-187.02" font-family="Times,serif" font-size="14.00">A</text>
</g>
<!-- s2&#45;&gt;s2 -->
<g id="edge7" class="edge">
<title>s2&#45;&gt;s2</title>
<path fill="none" stroke="black" d="M128.94,-166.08C127.99,-183.83 128.87,-201.82 131.57,-201.82 133.68,-201.82 134.68,-190.84 134.56,-177.57"/>
<polygon fill="black" stroke="black" points="138.06,-177.47 134.25,-167.59 131.07,-177.69 138.06,-177.47"/>
<text text-anchor="middle" x="131.57" y="-205.02" font-family="Times,serif" font-size="14.00">B</text>
</g>
<!-- s2&#45;&gt;s2 -->
<g id="edge8" class="edge">
<title>s2&#45;&gt;s2</title>
<path fill="none" stroke="black" d="M128.16,-166C125.96,-191.21 127.1,-219.82 131.57,-219.82 135.38,-219.82 136.77,-199.07 135.74,-177.35"/>
<polygon fill="black" stroke="black" points="139.24,-177.25 135.08,-167.51 132.26,-177.72 139.24,-177.25"/>
<text text-anchor="middle" x="131.57" y="-223.02" font-family="Times,serif" font-size="14.00">C</text>
</g>
<!-- s2&#45;&gt;s2 -->
<g id="edge9" class="edge">
<title>s2&#45;&gt;s2</title>
<path fill="none" stroke="black" d="M127.63,-165.64C123.92,-197.95 125.23,-237.82 131.57,-237.82 137.2,-237.82 138.87,-206.47 136.58,-176.84"/>
<polygon fill="black" stroke="black" points="140.09,-176.77 135.66,-167.14 133.12,-177.43 140.09,-176.77"/>
<text text-anchor="middle" x="131.57" y="-241.02" font-family="Times,serif" font-size="14.00">D</text>
</g>
<!-- s2&#45;&gt;s2 -->
<g id="edge10" class="edge">
<title>s2&#45;&gt;s2</title>
<path fill="none" stroke="black" d="M127.19,-165.75C121.89,-204.84 123.35,-255.82 131.57,-255.82 139.02,-255.82 140.92,-213.95 137.27,-177.01"/>
<polygon fill="black" stroke="black" points="140.77,-176.79 136.13,-167.26 133.81,-177.6 140.77,-176.79"/>
<text text-anchor="middle" x="131.57" y="-259.02" font-family="Times,serif" font-size="14.00">E</text>
</g>
<!-- s2&#45;&gt;s2 -->
<g id="edge11" class="edge">
<title>s2&#45;&gt;s2</title>
<path fill="none" stroke="black" d="M126.87,-165.58C119.86,-211.31 121.42,-273.82 131.57,-273.82 140.91,-273.82 142.98,-220.92 137.79,-176.85"/>
<polygon fill="black" stroke="black" points="141.28,-176.52 136.47,-167.08 134.34,-177.46 141.28,-176.52"/>
<text text-anchor="middle" x="131.57" y="-277.02" font-family="Times,serif" font-size="14.00">F</text>
</g>
<!-- s2&#45;&gt;s2 -->
<g id="edge12" class="edge">
<title>s2&#45;&gt;s2</title>
<path fill="none" stroke="black" d="M126.62,-165.51C117.83,-217.74 119.49,-291.82 131.57,-291.82 142.81,-291.82 145.03,-227.79 138.23,-176.81"/>
<polygon fill="black" stroke="black" points="141.7,-176.37 136.75,-167 134.78,-177.41 141.7,-176.37"/>
<text text-anchor="middle" x="131.57" y="-295.02" font-family="Times,serif" font-size="14.00">a</text>
</g>
<!-- s2&#45;&gt;s2 -->
<g id="edge13" class="edge">
<title>s2&#45;&gt;s2</title>
<path fill="none" stroke="black" d="M126.39,-165.49C115.81,-224.15 117.54,-309.82 131.57,-309.82 144.73,-309.82 147.07,-234.52 138.59,-176.78"/>
<polygon fill="black" stroke="black" points="142.06,-176.3 137,-166.99 135.15,-177.42 142.06,-176.3"/>
<text text-anchor="middle" x="131.57" y="-313.02" font-family="Times,serif" font-size="14.00">b</text>
</g>
<!-- s2&#45;&gt;s2 -->
<g id="edge14" class="edge">
<title>s2&#45;&gt;s2</title>
<path fill="none" stroke="black" d="M126.23,-165.36C113.8,-230.36 115.58,-327.82 131.57,-327.82 146.66,-327.82 149.1,-241.09 138.89,-176.69"/>
<polygon fill="black" stroke="black" points="142.34,-176.1 137.17,-166.85 135.44,-177.3 142.34,-176.1"/>
<text text-anchor="middle" x="131.57" y="-331.02" font-family="Times,serif" font-size="14.00">c</text>
</g>
<!-- s2&#45;&gt;s2 -->
<g id="edge15" class="edge">
<title>s2&#45;&gt;s2</title>
<path fill="none" stroke="black" d="M126.1,-165.22C111.78,-236.52 113.6,-345.82 131.57,-345.82 148.63,-345.82 151.14,-247.34 139.1,-176.36"/>
<polygon fill="black" stroke="black" points="142.58,-175.91 137.32,-166.71 135.7,-177.18 142.58,-175.91"/>
<text text-anchor="middle" x="131.57" y="-349.02" font-family="Times,serif" font-size="14.00">d</text>
</g>
<!-- s2&#45;&gt;s2 -->
<g id="edge16" class="edge">
<title>s2&#45;&gt;s2</title>
<path fill="none" stroke="black" d="M125.91,-165.45C109.77,-243.02 111.66,-363.82 131.57,-363.82 150.55,-363.82 153.16,-254.08 139.38,-176.63"/>
<polygon fill="black" stroke="black" points="142.85,-176.1 137.52,-166.94 135.97,-177.42 142.85,-176.1"/>
<text text-anchor="middle" x="131.57" y="-367.02" font-family="Times,serif" font-size="14.00">e</text>
</g>
<!-- s2&#45;&gt;s2 -->
<g id="edge17" class="edge">
<title>s2&#45;&gt;s2</title>
<path fill="none" stroke="black" d="M125.8,-165.41C107.76,-249.21 109.68,-381.82 131.57,-381.82 152.52,-381.82 155.18,-260.36 139.56,-176.47"/>
<polygon fill="black" stroke="black" points="143.04,-176.02 137.64,-166.9 136.17,-177.39 143.04,-176.02"/>
<text text-anchor="middle" x="131.57" y="-385.02" font-family="Times,serif" font-size="14.00">f</text>
</g>
<!-- s2&#45;&gt;s2 -->
<g id="edge18" class="edge">
<title>s2&#45;&gt;s2</title>
<path fill="none" stroke="black" d="M125.7,-165.39C105.75,-255.38 107.71,-399.82 131.57,-399.82 154.48,-399.82 157.21,-266.72 139.74,-176.45"/>
<polygon fill="black" stroke="black" points="143.21,-175.96 137.75,-166.87 136.35,-177.38 143.21,-175.96"/>
<text text-anchor="middle" x="131.57" y="-403.02" font-family="Times,serif" font-size="14.00">0&#45;9</text>
</g>
<!-- s4 -->
<g id="node3" class="node">
<title>s4</title>
<ellipse fill="none" stroke="black" cx="231.79" cy="-83.71" rx="19.11" ry="19.11"/>
<ellipse fill="none" stroke="black" cx="231.79" cy="-83.71" rx="23.11" ry="23.11"/>
<text text-anchor="middle" x="231.79" y="-78.66" font-family="Times,serif" font-size="14.00">s4</text>
</g>
<!-- s4&#45;&gt;s4 -->
<g id="edge22" class="edge">
<title>s4&#45;&gt;s4</title>
<path fill="none" stroke="black" d="M223.47,-105.71C222.57,-115.91 225.34,-124.82 231.79,-124.82 235.62,-124.82 238.15,-121.68 239.39,-116.99"/>
<polygon fill="black" stroke="black" points="242.86,-117.42 240.01,-107.22 235.88,-116.97 242.86,-117.42"/>
<text text-anchor="middle" x="231.79" y="-128.02" font-family="Times,serif" font-size="14.00">0&#45;9</text>
</g>
<!-- s6 -->
<g id="node9" class="node">
<title>s6</title>
<ellipse fill="none" stroke="black" cx="318.25" cy="-111.71" rx="19.11" ry="19.11"/>
<text text-anchor="middle" x="318.25" y="-106.66" font-family="Times,serif" font-size="14.00">s6</text>
</g>
<!-- s4&#45;&gt;s6 -->
<g id="edge20" class="edge">
<title>s4&#45;&gt;s6</title>
<path fill="none" stroke="black" d="M253.98,-91.24C260.07,-93.37 266.74,-95.67 272.9,-97.71 277.95,-99.39 283.34,-101.13 288.56,-102.8"/>
<polygon fill="black" stroke="black" points="287.48,-106.13 298.07,-105.79 289.58,-99.45 287.48,-106.13"/>
<text text-anchor="middle" x="277.02" y="-103.29" font-family="Times,serif" font-size="14.00">E</text>
</g>
<!-- s4&#45;&gt;s6 -->
<g id="edge21" class="edge">
<title>s4&#45;&gt;s6</title>
<path fill="none" stroke="black" d="M254.07,-76.29C262.72,-74.43 272.65,-73.81 281.15,-77.21 287.43,-79.74 293.25,-83.93 298.29,-88.55"/>
<polygon fill="black" stroke="black" points="295.47,-90.66 304.95,-95.4 300.49,-85.79 295.47,-90.66"/>
<text text-anchor="middle" x="277.02" y="-80.41" font-family="Times,serif" font-size="14.00">e</text>
</g>
<!-- s9 -->
<g id="node4" class="node">
<title>s9</title>
<ellipse fill="none" stroke="black" cx="506.15" cy="-116.71" rx="19.11" ry="19.11"/>
<ellipse fill="none" stroke="black" cx="506.15" cy="-116.71" rx="23.11" ry="23.11"/>
<text text-anchor="middle" x="506.15" y="-111.66" font-family="Times,serif" font-size="14.00">s9</text>
</g>
<!-- s9&#45;&gt;s9 -->
<g id="edge30" class="edge">
<title>s9&#45;&gt;s9</title>
<path fill="none" stroke="black" d="M498.25,-138.71C497.38,-148.91 500.02,-157.82 506.15,-157.82 509.78,-157.82 512.19,-154.68 513.36,-149.99"/>
<polygon fill="black" stroke="black" points="516.85,-150.41 513.95,-140.22 509.86,-149.99 516.85,-150.41"/>
<text text-anchor="middle" x="506.15" y="-161.02" font-family="Times,serif" font-size="14.00">0&#45;9</text>
</g>
<!-- s11 -->
<g id="node5" class="node">
<title>s11</title>
<ellipse fill="none" stroke="black" cx="596.72" cy="-116.71" rx="23.71" ry="23.71"/>
<ellipse fill="none" stroke="black" cx="596.72" cy="-116.71" rx="27.71" ry="27.71"/>
<text text-anchor="middle" x="596.72" y="-111.66" font-family="Times,serif" font-size="14.00">s11</text>
</g>
<!-- s9&#45;&gt;s11 -->
<g id="edge29" class="edge">
<title>s9&#45;&gt;s11</title>
<path fill="none" stroke="black" d="M529.5,-116.71C537.95,-116.71 547.83,-116.71 557.34,-116.71"/>
<polygon fill="black" stroke="black" points="557.12,-120.21 567.12,-116.71 557.12,-113.21 557.12,-120.21"/>
<text text-anchor="middle" x="549.13" y="-119.91" font-family="Times,serif" font-size="14.00">.</text>
</g>
<!-- s11&#45;&gt;s11 -->
<g id="edge31" class="edge">
<title>s11&#45;&gt;s11</title>
<path fill="none" stroke="black" d="M587.83,-143.48C587.43,-153.83 590.4,-162.43 596.72,-162.43 600.47,-162.43 603.04,-159.4 604.42,-154.77"/>
<polygon fill="black" stroke="black" points="607.89,-155.29 605.45,-144.98 600.93,-154.57 607.89,-155.29"/>
<text text-anchor="middle" x="596.72" y="-165.63" font-family="Times,serif" font-size="14.00">0&#45;9</text>
</g>
<!-- s1&#45;&gt;s4 -->
<g id="edge5" class="edge">
<title>s1&#45;&gt;s4</title>
<path fill="none" stroke="black" d="M151.05,-82.9C163.98,-83.03 181.62,-83.21 197.03,-83.37"/>
<polygon fill="black" stroke="black" points="196.71,-86.87 206.75,-83.47 196.78,-79.87 196.71,-86.87"/>
<text text-anchor="middle" x="181.68" y="-86.5" font-family="Times,serif" font-size="14.00">0&#45;9</text>
</g>
<!-- s5 -->
<g id="node8" class="node">
<title>s5</title>
<ellipse fill="none" stroke="black" cx="231.79" cy="-23.71" rx="19.11" ry="19.11"/>
<text text-anchor="middle" x="231.79" y="-18.66" font-family="Times,serif" font-size="14.00">s5</text>
</g>
<!-- s3&#45;&gt;s5 -->
<g id="edge19" class="edge">
<title>s3&#45;&gt;s5</title>
<path fill="none" stroke="black" d="M151.05,-26.15C165.18,-25.72 184.94,-25.11 201.26,-24.62"/>
<polygon fill="black" stroke="black" points="201,-28.13 210.88,-24.32 200.78,-21.13 201,-28.13"/>
<text text-anchor="middle" x="181.68" y="-28.68" font-family="Times,serif" font-size="14.00">e</text>
</g>
<!-- s7 -->
<g id="node10" class="node">
<title>s7</title>
<ellipse fill="none" stroke="black" cx="318.25" cy="-23.71" rx="19.11" ry="19.11"/>
<text text-anchor="middle" x="318.25" y="-18.66" font-family="Times,serif" font-size="14.00">s7</text>
</g>
<!-- s5&#45;&gt;s7 -->
<g id="edge23" class="edge">
<title>s5&#45;&gt;s7</title>
<path fill="none" stroke="black" d="M251.12,-23.71C261.67,-23.71 275.19,-23.71 287.25,-23.71"/>
<polygon fill="black" stroke="black" points="287.16,-27.21 297.16,-23.71 287.16,-20.21 287.16,-27.21"/>
<text text-anchor="middle" x="277.02" y="-26.91" font-family="Times,serif" font-size="14.00">o</text>
</g>
<!-- s6&#45;&gt;s9 -->
<g id="edge26" class="edge">
<title>s6&#45;&gt;s9</title>
<path fill="none" stroke="black" d="M336.71,-117.41C342.57,-119.09 349.19,-120.74 355.36,-121.71 403.54,-129.34 416.56,-131.09 465.04,-125.71 467.52,-125.44 470.06,-125.07 472.62,-124.64"/>
<polygon fill="black" stroke="black" points="473.03,-128.13 482.16,-122.75 471.67,-121.26 473.03,-128.13"/>
<text text-anchor="middle" x="405.32" y="-132.02" font-family="Times,serif" font-size="14.00">0&#45;9</text>
</g>
<!-- s8 -->
<g id="node11" class="node">
<title>s8</title>
<ellipse fill="none" stroke="black" cx="405.32" cy="-88.71" rx="19.11" ry="19.11"/>
<text text-anchor="middle" x="405.32" y="-83.66" font-family="Times,serif" font-size="14.00">s8</text>
</g>
<!-- s6&#45;&gt;s8 -->
<g id="edge24" class="edge">
<title>s6&#45;&gt;s8</title>
<path fill="none" stroke="black" d="M336.88,-106.95C347.98,-103.95 362.58,-100 375.36,-96.54"/>
<polygon fill="black" stroke="black" points="376.23,-99.94 384.97,-93.95 374.4,-93.18 376.23,-99.94"/>
<text text-anchor="middle" x="359.49" y="-104.79" font-family="Times,serif" font-size="14.00">+</text>
</g>
<!-- s6&#45;&gt;s8 -->
<g id="edge25" class="edge">
<title>s6&#45;&gt;s8</title>
<path fill="none" stroke="black" d="M331.08,-97.46C337.49,-90.86 346.01,-83.72 355.36,-80.21 361.88,-77.77 369.16,-77.71 376.07,-78.78"/>
<polygon fill="black" stroke="black" points="375.13,-82.15 385.67,-81.06 376.75,-75.34 375.13,-82.15"/>
<text text-anchor="middle" x="359.49" y="-83.41" font-family="Times,serif" font-size="14.00">&#45;</text>
</g>
<!-- s10 -->
<g id="node12" class="node">
<title>s10</title>
<ellipse fill="none" stroke="black" cx="405.32" cy="-23.71" rx="23.71" ry="23.71"/>
<text text-anchor="middle" x="405.32" y="-18.66" font-family="Times,serif" font-size="14.00">s10</text>
</g>
<!-- s7&#45;&gt;s10 -->
<g id="edge27" class="edge">
<title>s7&#45;&gt;s10</title>
<path fill="none" stroke="black" d="M337.71,-23.71C347.11,-23.71 358.86,-23.71 369.85,-23.71"/>
<polygon fill="black" stroke="black" points="369.83,-27.21 379.83,-23.71 369.83,-20.21 369.83,-27.21"/>
<text text-anchor="middle" x="359.49" y="-26.91" font-family="Times,serif" font-size="14.00">f</text>
</g>
<!-- s8&#45;&gt;s9 -->
<g id="edge28" class="edge">
<title>s8&#45;&gt;s9</title>
<path fill="none" stroke="black" d="M423.99,-93.72C437.52,-97.55 456.56,-102.95 472.8,-107.55"/>
<polygon fill="black" stroke="black" points="471.46,-110.81 482.04,-110.17 473.37,-104.07 471.46,-110.81"/>
<text text-anchor="middle" x="456.04" y="-108.42" font-family="Times,serif" font-size="14.00">0&#45;9</text>
</g>
</g>
</svg>
