<?xml version="1.0" encoding="UTF-8" standalone="no"?>
<!DOCTYPE svg PUBLIC "-//W3C//DTD SVG 1.1//EN"
 "http://www.w3.org/Graphics/SVG/1.1/DTD/svg11.dtd">
<!-- Generated by graphviz version 2.38.0 (20140413.2041)
 -->
<!-- Title: finite_state_machine Pages: 1 -->
<svg width="410pt" height="576pt"
 viewBox="0.00 0.00 409.94 576.00" xmlns="http://www.w3.org/2000/svg" xmlns:xlink="http://www.w3.org/1999/xlink">
<g id="graph0" class="graph" transform="scale(0.627451 0.627451) rotate(0) translate(4 914)">
<title>finite_state_machine</title>
<polygon fill="white" stroke="none" points="-4,4 -4,-914 649.345,-914 649.345,4 -4,4"/>
<!-- s0 -->
<g id="node1" class="node"><title>s0</title>
<ellipse fill="none" stroke="black" cx="22" cy="-463" rx="18" ry="18"/>
<ellipse fill="none" stroke="black" cx="22" cy="-463" rx="22" ry="22"/>
<text text-anchor="middle" x="22" y="-458.8" font-family="Times,serif" font-size="14.00">s0</text>
</g>
<!-- s0&#45;&gt;s0 -->
<g id="edge1" class="edge"><title>s0&#45;&gt;s0</title>
<path fill="none" stroke="black" d="M19.1594,-485.212C18.9268,-494.795 19.8737,-503 22,-503 23.2957,-503 24.1535,-499.953 24.5732,-495.405"/>
<polygon fill="black" stroke="black" points="28.0771,-495.301 24.8406,-485.212 21.0795,-495.117 28.0771,-495.301"/>
<text text-anchor="middle" x="22" y="-505.8" font-family="Times,serif" font-size="14.00">%</text>
</g>
<!-- s0&#45;&gt;s0 -->
<g id="edge2" class="edge"><title>s0&#45;&gt;s0</title>
<path fill="none" stroke="black" d="M17.0926,-484.717C15.0634,-502.516 16.6992,-521 22,-521 26.2655,-521 28.1578,-509.031 27.6769,-495.082"/>
<polygon fill="black" stroke="black" points="31.1383,-494.431 26.9074,-484.717 24.1575,-494.949 31.1383,-494.431"/>
<text text-anchor="middle" x="22" y="-523.8" font-family="Times,serif" font-size="14.00">\</text>
</g>
<!-- s0&#45;&gt;s0 -->
<g id="edge4" class="edge"><title>s0&#45;&gt;s0</title>
<path fill="none" stroke="black" d="M15.7381,-484.396C11.1529,-509.602 13.2402,-539 22,-539 29.5964,-539 32.1749,-516.893 29.7357,-494.582"/>
<polygon fill="black" stroke="black" points="33.1578,-493.792 28.2619,-484.396 26.23,-494.794 33.1578,-493.792"/>
<text text-anchor="middle" x="22" y="-548.8" font-family="Times,serif" font-size="14.00">◉</text>
</g>
<!-- s1 -->
<g id="node2" class="node"><title>s1</title>
<ellipse fill="none" stroke="black" cx="116" cy="-464" rx="18" ry="18"/>
<ellipse fill="none" stroke="black" cx="116" cy="-464" rx="22" ry="22"/>
<text text-anchor="middle" x="116" y="-459.8" font-family="Times,serif" font-size="14.00">s1</text>
</g>
<!-- s0&#45;&gt;s1 -->
<g id="edge3" class="edge"><title>s0&#45;&gt;s1</title>
<path fill="none" stroke="black" d="M41.4071,-452.051C51.4961,-447.338 64.2967,-443.43 76,-446 79.7146,-446.816 83.497,-448.021 87.1728,-449.428"/>
<polygon fill="black" stroke="black" points="85.9674,-452.72 96.5339,-453.495 88.7568,-446.3 85.9674,-452.72"/>
<text text-anchor="middle" x="69" y="-448.8" font-family="Times,serif" font-size="14.00">{</text>
</g>
<!-- s2 -->
<g id="node3" class="node"><title>s2</title>
<ellipse fill="none" stroke="black" cx="623.345" cy="-579" rx="18" ry="18"/>
<ellipse fill="none" stroke="black" cx="623.345" cy="-579" rx="22" ry="22"/>
<text text-anchor="middle" x="623.345" y="-574.8" font-family="Times,serif" font-size="14.00">s2</text>
</g>
<!-- s0&#45;&gt;s2 -->
<g id="edge5" class="edge"><title>s0&#45;&gt;s2</title>
<path fill="none" stroke="black" d="M22.7563,-485.104C22.3087,-558.928 23.9325,-795.918 62,-860 76.5433,-884.482 86.5243,-896 115,-896 115,-896 115,-896 517.896,-896 551.095,-896 564.52,-887.345 583.345,-860 610.726,-820.226 619.042,-676.524 621.435,-611.436"/>
<polygon fill="black" stroke="black" points="624.937,-611.443 621.782,-601.329 617.941,-611.203 624.937,-611.443"/>
<text text-anchor="middle" x="304" y="-898.8" font-family="Times,serif" font-size="14.00">EOF</text>
</g>
<!-- s1&#45;&gt;s0 -->
<g id="edge9" class="edge"><title>s1&#45;&gt;s0</title>
<path fill="none" stroke="black" d="M93.7778,-463.769C82.1861,-463.643 67.6022,-463.485 54.6894,-463.344"/>
<polygon fill="black" stroke="black" points="54.3754,-459.841 44.3379,-463.232 54.2992,-466.841 54.3754,-459.841"/>
<text text-anchor="middle" x="69" y="-472.8" font-family="Times,serif" font-size="14.00">◉</text>
</g>
<!-- s1&#45;&gt;s2 -->
<g id="edge10" class="edge"><title>s1&#45;&gt;s2</title>
<path fill="none" stroke="black" d="M123.117,-484.826C134.281,-517.965 161.316,-579 209,-579 209,-579 209,-579 517.896,-579 542.449,-579 570.248,-579 590.99,-579"/>
<polygon fill="black" stroke="black" points="591.14,-582.5 601.14,-579 591.14,-575.5 591.14,-582.5"/>
<text text-anchor="middle" x="357.224" y="-581.8" font-family="Times,serif" font-size="14.00">EOF</text>
</g>
<!-- s3 -->
<g id="node4" class="node"><title>s3</title>
<ellipse fill="none" stroke="black" cx="516.896" cy="-514" rx="18" ry="18"/>
<ellipse fill="none" stroke="black" cx="516.896" cy="-514" rx="22" ry="22"/>
<text text-anchor="middle" x="516.896" y="-509.8" font-family="Times,serif" font-size="14.00">s3</text>
</g>
<!-- s1&#45;&gt;s3 -->
<g id="edge6" class="edge"><title>s1&#45;&gt;s3</title>
<path fill="none" stroke="black" d="M136.561,-472.08C142.692,-474.323 149.544,-476.542 156,-478 275.276,-504.945 421.339,-511.728 484.419,-513.431"/>
<polygon fill="black" stroke="black" points="484.429,-516.932 494.512,-513.679 484.601,-509.934 484.429,-516.932"/>
<text text-anchor="middle" x="304" y="-505.8" font-family="Times,serif" font-size="14.00">%</text>
</g>
<!-- s4 -->
<g id="node5" class="node"><title>s4</title>
<ellipse fill="none" stroke="black" cx="304" cy="-215" rx="18" ry="18"/>
<ellipse fill="none" stroke="black" cx="304" cy="-215" rx="22" ry="22"/>
<text text-anchor="middle" x="304" y="-210.8" font-family="Times,serif" font-size="14.00">s4</text>
</g>
<!-- s1&#45;&gt;s4 -->
<g id="edge7" class="edge"><title>s1&#45;&gt;s4</title>
<path fill="none" stroke="black" d="M130.375,-447.159C133.022,-443.558 135.692,-439.717 138,-436 163.999,-394.121 158.397,-376.415 188,-337 204.052,-315.627 215.181,-316.775 232,-296 241.784,-283.915 240.313,-278.163 250,-266 258.576,-255.231 269.329,-244.487 278.904,-235.657"/>
<polygon fill="black" stroke="black" points="281.506,-238.024 286.596,-228.731 276.823,-232.821 281.506,-238.024"/>
<text text-anchor="middle" x="210" y="-339.8" font-family="Times,serif" font-size="14.00">\</text>
</g>
<!-- s5 -->
<g id="node6" class="node"><title>s5</title>
<ellipse fill="none" stroke="black" cx="210" cy="-382" rx="18" ry="18"/>
<ellipse fill="none" stroke="black" cx="210" cy="-382" rx="22" ry="22"/>
<text text-anchor="middle" x="210" y="-377.8" font-family="Times,serif" font-size="14.00">s5</text>
</g>
<!-- s1&#45;&gt;s5 -->
<g id="edge8" class="edge"><title>s1&#45;&gt;s5</title>
<path fill="none" stroke="black" d="M133.025,-449.717C147.448,-436.861 168.834,-417.8 185.245,-403.173"/>
<polygon fill="black" stroke="black" points="187.713,-405.661 192.85,-396.395 183.056,-400.436 187.713,-405.661"/>
<text text-anchor="middle" x="163" y="-429.8" font-family="Times,serif" font-size="14.00">{</text>
</g>
<!-- s2&#45;&gt;s0 -->
<g id="edge11" class="edge"><title>s2&#45;&gt;s0</title>
<path fill="none" stroke="black" d="M621.046,-601.028C617.662,-652.046 607.132,-776.51 583.345,-810 564.121,-837.066 551.095,-846 517.896,-846 115,-846 115,-846 115,-846 86.5243,-846 76.7143,-834.379 62,-810 30.3515,-757.563 24.3665,-571.721 23.2495,-495.737"/>
<polygon fill="black" stroke="black" points="26.7444,-495.308 23.1175,-485.353 19.745,-495.397 26.7444,-495.308"/>
<text text-anchor="middle" x="304" y="-848.8" font-family="Times,serif" font-size="14.00">%</text>
</g>
<!-- s2&#45;&gt;s0 -->
<g id="edge12" class="edge"><title>s2&#45;&gt;s0</title>
<path fill="none" stroke="black" d="M621.785,-601.001C619.099,-656.169 603.817,-796 517.896,-796 115,-796 115,-796 115,-796 84.6669,-796 76.8459,-779.452 62,-753 37.5647,-709.462 27.6611,-561.82 24.3793,-495.603"/>
<polygon fill="black" stroke="black" points="27.8621,-495.156 23.8914,-485.333 20.87,-495.488 27.8621,-495.156"/>
<text text-anchor="middle" x="304" y="-798.8" font-family="Times,serif" font-size="14.00">\</text>
</g>
<!-- s2&#45;&gt;s0 -->
<g id="edge14" class="edge"><title>s2&#45;&gt;s0</title>
<path fill="none" stroke="black" d="M618.672,-600.578C609.871,-644.251 583.247,-739 517.896,-739 115,-739 115,-739 115,-739 81.6874,-739 77.3614,-715.559 62,-686 29.7851,-624.01 23.5041,-540.595 22.6743,-495.393"/>
<polygon fill="black" stroke="black" points="26.1731,-495.252 22.5692,-485.289 19.1735,-495.325 26.1731,-495.252"/>
<text text-anchor="middle" x="304" y="-748.8" font-family="Times,serif" font-size="14.00">◉</text>
</g>
<!-- s2&#45;&gt;s1 -->
<g id="edge13" class="edge"><title>s2&#45;&gt;s1</title>
<path fill="none" stroke="black" d="M604.203,-589.991C583.922,-601.214 549.735,-617 517.896,-617 209,-617 209,-617 209,-617 152.928,-617 130.161,-540.594 121.63,-495.77"/>
<polygon fill="black" stroke="black" points="125.076,-495.158 119.886,-485.921 118.183,-496.378 125.076,-495.158"/>
<text text-anchor="middle" x="357.224" y="-619.8" font-family="Times,serif" font-size="14.00">{</text>
</g>
<!-- s2&#45;&gt;s2 -->
<g id="edge15" class="edge"><title>s2&#45;&gt;s2</title>
<path fill="none" stroke="black" d="M613.938,-599.17C612.49,-609.599 615.626,-619 623.345,-619 628.41,-619 631.502,-614.951 632.62,-609.22"/>
<polygon fill="black" stroke="black" points="636.12,-609.215 632.752,-599.17 629.121,-609.123 636.12,-609.215"/>
<text text-anchor="middle" x="623.345" y="-621.8" font-family="Times,serif" font-size="14.00">EOF</text>
</g>
<!-- s3&#45;&gt;s0 -->
<g id="edge16" class="edge"><title>s3&#45;&gt;s0</title>
<path fill="none" stroke="black" d="M496.264,-522.248C475.557,-530.188 441.79,-541 411.448,-541 115,-541 115,-541 115,-541 82.6917,-541 55.9094,-512.667 39.7278,-490.154"/>
<polygon fill="black" stroke="black" points="42.5974,-488.15 34.0557,-481.882 36.8242,-492.108 42.5974,-488.15"/>
<text text-anchor="middle" x="257" y="-543.8" font-family="Times,serif" font-size="14.00">%</text>
</g>
<!-- s3&#45;&gt;s0 -->
<g id="edge17" class="edge"><title>s3&#45;&gt;s0</title>
<path fill="none" stroke="black" d="M513.577,-535.981C509.001,-574.655 497.433,-652.362 476.896,-669 441.078,-698.02 96.8666,-699.158 62,-669 36.3089,-646.779 27.3489,-547.462 24.3796,-495.276"/>
<polygon fill="black" stroke="black" points="27.8701,-495.004 23.8477,-485.203 20.8799,-495.373 27.8701,-495.004"/>
<text text-anchor="middle" x="257" y="-693.8" font-family="Times,serif" font-size="14.00">\</text>
</g>
<!-- s3&#45;&gt;s0 -->
<g id="edge19" class="edge"><title>s3&#45;&gt;s0</title>
<path fill="none" stroke="black" d="M510.715,-535.415C499.752,-574.859 470.244,-655 411.448,-655 115,-655 115,-655 115,-655 45.0024,-655 28.221,-549.933 24.2273,-495.245"/>
<polygon fill="black" stroke="black" points="27.7056,-494.786 23.5871,-485.025 20.7193,-495.224 27.7056,-494.786"/>
<text text-anchor="middle" x="257" y="-664.8" font-family="Times,serif" font-size="14.00">◉</text>
</g>
<!-- s3&#45;&gt;s1 -->
<g id="edge18" class="edge"><title>s3&#45;&gt;s1</title>
<path fill="none" stroke="black" d="M495.196,-509.766C460.399,-502.793 387.908,-488.88 326,-481 263.179,-473.003 189.231,-468.025 148.284,-465.655"/>
<polygon fill="black" stroke="black" points="148.31,-462.151 138.128,-465.082 147.915,-469.14 148.31,-462.151"/>
<text text-anchor="middle" x="304" y="-483.8" font-family="Times,serif" font-size="14.00">{</text>
</g>
<!-- s3&#45;&gt;s2 -->
<g id="edge20" class="edge"><title>s3&#45;&gt;s2</title>
<path fill="none" stroke="black" d="M536.832,-523.999C550.075,-531.162 568.056,-541.231 583.345,-551 587.796,-553.844 592.433,-556.996 596.892,-560.129"/>
<polygon fill="black" stroke="black" points="594.982,-563.067 605.15,-566.045 599.059,-557.376 594.982,-563.067"/>
<text text-anchor="middle" x="570.121" y="-553.8" font-family="Times,serif" font-size="14.00">EOF</text>
</g>
<!-- s4&#45;&gt;s0 -->
<g id="edge22" class="edge"><title>s4&#45;&gt;s0</title>
<path fill="none" stroke="black" d="M293.475,-195.493C286.84,-184.084 276.874,-170.493 264,-163 186.314,-117.781 122.43,-106.457 62,-173 28.2043,-210.215 23.3538,-363.214 22.8926,-430.731"/>
<polygon fill="black" stroke="black" points="19.3925,-430.788 22.8525,-440.802 26.3924,-430.816 19.3925,-430.788"/>
<text text-anchor="middle" x="163" y="-129.8" font-family="Times,serif" font-size="14.00">\</text>
</g>
<!-- s4&#45;&gt;s0 -->
<g id="edge24" class="edge"><title>s4&#45;&gt;s0</title>
<path fill="none" stroke="black" d="M282.556,-209.718C254.168,-203.049 201.199,-193.013 156,-198 113.451,-202.695 91.3277,-187.817 62,-219 33.7785,-249.007 25.9514,-371.309 23.8019,-430.543"/>
<polygon fill="black" stroke="black" points="20.2942,-430.723 23.463,-440.833 27.2904,-430.954 20.2942,-430.723"/>
<text text-anchor="middle" x="163" y="-207.8" font-family="Times,serif" font-size="14.00">◉</text>
</g>
<!-- s4&#45;&gt;s2 -->
<g id="edge25" class="edge"><title>s4&#45;&gt;s2</title>
<path fill="none" stroke="black" d="M325.942,-213.4C338.942,-212.954 355.888,-213.372 370.448,-217 472.821,-242.507 521.112,-236.807 583.345,-322 609.085,-357.237 618.192,-485.897 621.106,-546.724"/>
<polygon fill="black" stroke="black" points="617.619,-547.08 621.567,-556.912 624.612,-546.764 617.619,-547.08"/>
<text text-anchor="middle" x="463.672" y="-244.8" font-family="Times,serif" font-size="14.00">EOF</text>
</g>
<!-- s6 -->
<g id="node7" class="node"><title>s6</title>
<ellipse fill="none" stroke="black" cx="410.448" cy="-122" rx="18" ry="18"/>
<ellipse fill="none" stroke="black" cx="410.448" cy="-122" rx="22" ry="22"/>
<text text-anchor="middle" x="410.448" y="-117.8" font-family="Times,serif" font-size="14.00">s6</text>
</g>
<!-- s4&#45;&gt;s6 -->
<g id="edge21" class="edge"><title>s4&#45;&gt;s6</title>
<path fill="none" stroke="black" d="M318.696,-197.965C325.856,-189.483 334.988,-179.297 344,-171 356.184,-159.782 370.858,-148.611 383.22,-139.775"/>
<polygon fill="black" stroke="black" points="385.575,-142.398 391.745,-133.785 381.551,-136.67 385.575,-142.398"/>
<text text-anchor="middle" x="357.224" y="-173.8" font-family="Times,serif" font-size="14.00">%</text>
</g>
<!-- s7 -->
<g id="node8" class="node"><title>s7</title>
<ellipse fill="none" stroke="black" cx="410.448" cy="-301" rx="18" ry="18"/>
<ellipse fill="none" stroke="black" cx="410.448" cy="-301" rx="22" ry="22"/>
<text text-anchor="middle" x="410.448" y="-296.8" font-family="Times,serif" font-size="14.00">s7</text>
</g>
<!-- s4&#45;&gt;s7 -->
<g id="edge23" class="edge"><title>s4&#45;&gt;s7</title>
<path fill="none" stroke="black" d="M326.006,-216.642C339.84,-218.651 357.686,-223.111 370.448,-233 382.914,-242.659 392.085,-257.506 398.39,-270.865"/>
<polygon fill="black" stroke="black" points="395.272,-272.47 402.481,-280.235 401.687,-269.669 395.272,-272.47"/>
<text text-anchor="middle" x="357.224" y="-235.8" font-family="Times,serif" font-size="14.00">{</text>
</g>
<!-- s5&#45;&gt;s0 -->
<g id="edge29" class="edge"><title>s5&#45;&gt;s0</title>
<path fill="none" stroke="black" d="M187.849,-385.118C164.153,-389.149 125.003,-397.44 94,-412 77.2092,-419.885 60.267,-431.867 47.1455,-442.235"/>
<polygon fill="black" stroke="black" points="44.671,-439.736 39.1145,-448.757 49.0837,-445.17 44.671,-439.736"/>
<text text-anchor="middle" x="116" y="-420.8" font-family="Times,serif" font-size="14.00">◉</text>
</g>
<!-- s5&#45;&gt;s2 -->
<g id="edge30" class="edge"><title>s5&#45;&gt;s2</title>
<path fill="none" stroke="black" d="M231.114,-375.416C277.506,-361.477 394.341,-333.592 476.896,-376 548.184,-412.62 592.357,-502.198 611.405,-549.161"/>
<polygon fill="black" stroke="black" points="608.164,-550.483 615.088,-558.502 614.675,-547.915 608.164,-550.483"/>
<text text-anchor="middle" x="410.448" y="-361.8" font-family="Times,serif" font-size="14.00">EOF</text>
</g>
<!-- s5&#45;&gt;s3 -->
<g id="edge26" class="edge"><title>s5&#45;&gt;s3</title>
<path fill="none" stroke="black" d="M232.11,-380.675C280.596,-378.751 401.532,-380.454 476.896,-438 491.4,-449.074 500.971,-467.061 507.001,-482.756"/>
<polygon fill="black" stroke="black" points="503.856,-484.366 510.468,-492.644 510.462,-482.049 503.856,-484.366"/>
<text text-anchor="middle" x="357.224" y="-393.8" font-family="Times,serif" font-size="14.00">%</text>
</g>
<!-- s5&#45;&gt;s4 -->
<g id="edge27" class="edge"><title>s5&#45;&gt;s4</title>
<path fill="none" stroke="black" d="M222.563,-363.663C225.832,-358.102 229.245,-351.901 232,-346 241.992,-324.599 239.462,-317.137 250,-296 259.653,-276.638 273,-256.267 283.885,-240.796"/>
<polygon fill="black" stroke="black" points="286.992,-242.469 289.963,-232.299 281.298,-238.396 286.992,-242.469"/>
<text text-anchor="middle" x="257" y="-298.8" font-family="Times,serif" font-size="14.00">\</text>
</g>
<!-- s5&#45;&gt;s5 -->
<g id="edge28" class="edge"><title>s5&#45;&gt;s5</title>
<path fill="none" stroke="black" d="M201.63,-402.581C200.472,-412.845 203.262,-422 210,-422 214.317,-422 217.013,-418.243 218.089,-412.844"/>
<polygon fill="black" stroke="black" points="221.595,-412.673 218.37,-402.581 214.598,-412.481 221.595,-412.673"/>
<text text-anchor="middle" x="210" y="-424.8" font-family="Times,serif" font-size="14.00">{</text>
</g>
<!-- s6&#45;&gt;s0 -->
<g id="edge31" class="edge"><title>s6&#45;&gt;s0</title>
<path fill="none" stroke="black" d="M388.766,-117.254C367.783,-112.859 334.311,-107 305,-107 115,-107 115,-107 115,-107 82.9199,-107 76.1233,-127.196 62,-156 38.5374,-203.851 28.0182,-361.905 24.4718,-430.622"/>
<polygon fill="black" stroke="black" points="20.964,-430.691 23.9615,-440.853 27.9554,-431.04 20.964,-430.691"/>
<text text-anchor="middle" x="210" y="-109.8" font-family="Times,serif" font-size="14.00">%</text>
</g>
<!-- s6&#45;&gt;s0 -->
<g id="edge32" class="edge"><title>s6&#45;&gt;s0</title>
<path fill="none" stroke="black" d="M395.282,-105.933C376.659,-86.6842 341.949,-57 305,-57 115,-57 115,-57 115,-57 38.4592,-57 25.5958,-334.932 23.4355,-430.884"/>
<polygon fill="black" stroke="black" points="19.9363,-430.815 23.2349,-440.883 26.9349,-430.956 19.9363,-430.815"/>
<text text-anchor="middle" x="210" y="-59.8" font-family="Times,serif" font-size="14.00">\</text>
</g>
<!-- s6&#45;&gt;s0 -->
<g id="edge34" class="edge"><title>s6&#45;&gt;s0</title>
<path fill="none" stroke="black" d="M402.559,-101.304C389.515,-66.4972 357.698,-0 305,-0 115,-0 115,-0 115,-0 27.042,-0 21.9058,-325.52 22.5411,-430.669"/>
<polygon fill="black" stroke="black" points="19.0437,-431.01 22.6268,-440.98 26.0435,-430.951 19.0437,-431.01"/>
<text text-anchor="middle" x="210" y="-9.80004" font-family="Times,serif" font-size="14.00">◉</text>
</g>
<!-- s6&#45;&gt;s1 -->
<g id="edge33" class="edge"><title>s6&#45;&gt;s1</title>
<path fill="none" stroke="black" d="M388.857,-128.041C361.81,-136.798 314.005,-155.193 282,-184 252.498,-210.554 258.361,-228.325 232,-258 214.84,-277.318 203.801,-275.555 188,-296 168.31,-321.478 166.936,-330.714 156,-361 144.358,-393.242 152.586,-404.978 138,-436 137.535,-436.99 137.031,-437.979 136.496,-438.962"/>
<polygon fill="black" stroke="black" points="133.461,-437.214 131.066,-447.535 139.374,-440.96 133.461,-437.214"/>
<text text-anchor="middle" x="257" y="-234.8" font-family="Times,serif" font-size="14.00">{</text>
</g>
<!-- s6&#45;&gt;s2 -->
<g id="edge35" class="edge"><title>s6&#45;&gt;s2</title>
<path fill="none" stroke="black" d="M432.459,-122.883C469.588,-125.68 546.362,-137.258 583.345,-185 605.339,-213.393 617.415,-458.043 621.108,-546.911"/>
<polygon fill="black" stroke="black" points="617.613,-547.102 621.517,-556.952 624.607,-546.817 617.613,-547.102"/>
<text text-anchor="middle" x="516.896" y="-152.8" font-family="Times,serif" font-size="14.00">EOF</text>
</g>
<!-- s7&#45;&gt;s0 -->
<g id="edge39" class="edge"><title>s7&#45;&gt;s0</title>
<path fill="none" stroke="black" d="M388.839,-296.202C355.917,-288.81 289.328,-274.97 232,-270 212.518,-268.311 205.761,-261.817 188,-270 113.989,-304.098 60.8312,-389.582 37.0002,-434.465"/>
<polygon fill="black" stroke="black" points="33.8663,-432.905 32.3631,-443.393 40.0784,-436.132 33.8663,-432.905"/>
<text text-anchor="middle" x="210" y="-278.8" font-family="Times,serif" font-size="14.00">◉</text>
</g>
<!-- s7&#45;&gt;s2 -->
<g id="edge40" class="edge"><title>s7&#45;&gt;s2</title>
<path fill="none" stroke="black" d="M432.426,-299.916C469.151,-299.276 544.842,-303.786 583.345,-348 608.751,-377.175 617.934,-490.554 620.976,-546.878"/>
<polygon fill="black" stroke="black" points="617.488,-547.209 621.49,-557.019 624.479,-546.855 617.488,-547.209"/>
<text text-anchor="middle" x="516.896" y="-318.8" font-family="Times,serif" font-size="14.00">EOF</text>
</g>
<!-- s7&#45;&gt;s3 -->
<g id="edge36" class="edge"><title>s7&#45;&gt;s3</title>
<path fill="none" stroke="black" d="M425.067,-317.593C439.53,-335.871 462.278,-366.586 476.896,-396 490.928,-424.233 501.648,-458.682 508.265,-483.051"/>
<polygon fill="black" stroke="black" points="504.91,-484.055 510.847,-492.83 511.678,-482.268 504.91,-484.055"/>
<text text-anchor="middle" x="463.672" y="-398.8" font-family="Times,serif" font-size="14.00">%</text>
</g>
<!-- s7&#45;&gt;s4 -->
<g id="edge37" class="edge"><title>s7&#45;&gt;s4</title>
<path fill="none" stroke="black" d="M393.053,-287.5C376.044,-273.496 349.245,-251.43 329.676,-235.317"/>
<polygon fill="black" stroke="black" points="331.726,-232.472 321.781,-228.817 327.277,-237.876 331.726,-232.472"/>
<text text-anchor="middle" x="357.224" y="-270.8" font-family="Times,serif" font-size="14.00">\</text>
</g>
<!-- s7&#45;&gt;s5 -->
<g id="edge38" class="edge"><title>s7&#45;&gt;s5</title>
<path fill="none" stroke="black" d="M388.869,-305.887C363.446,-312.136 319.015,-323.746 282,-337 267.385,-342.233 263.299,-342.992 250,-351 244.999,-354.012 239.923,-357.59 235.161,-361.228"/>
<polygon fill="black" stroke="black" points="232.645,-358.757 227.009,-367.728 237.01,-364.23 232.645,-358.757"/>
<text text-anchor="middle" x="304" y="-339.8" font-family="Times,serif" font-size="14.00">{</text>
</g>
</g>
</svg>
