<?xml version="1.0" encoding="UTF-8" standalone="no"?>
<!DOCTYPE svg PUBLIC "-//W3C//DTD SVG 1.1//EN"
 "http://www.w3.org/Graphics/SVG/1.1/DTD/svg11.dtd">
<!-- Generated by graphviz version 12.2.1 (20241206.2353)
 -->
<!-- Title: finite_state_machine Pages: 1 -->
<svg width="369pt" height="576pt"
 viewBox="0.00 0.00 368.80 576.00" xmlns="http://www.w3.org/2000/svg" xmlns:xlink="http://www.w3.org/1999/xlink">
<g id="graph0" class="graph" transform="scale(0.594121 0.594121) rotate(0) translate(4 965.5)">
<title>finite_state_machine</title>
<polygon fill="white" stroke="none" points="-4,4 -4,-965.5 616.76,-965.5 616.76,4 -4,4"/>
<!-- s1 -->
<g id="node1" class="node">
<title>s1</title>
<ellipse fill="none" stroke="black" cx="23.11" cy="-454" rx="19.11" ry="19.11"/>
<ellipse fill="none" stroke="black" cx="23.11" cy="-454" rx="23.11" ry="23.11"/>
<text text-anchor="middle" x="23.11" y="-448.95" font-family="Times,serif" font-size="14.00">s1</text>
</g>
<!-- s1&#45;&gt;s1 -->
<g id="edge8" class="edge">
<title>s1&#45;&gt;s1</title>
<path fill="none" stroke="black" d="M15,-475.99C14.12,-486.19 16.82,-495.11 23.11,-495.11 26.84,-495.11 29.31,-491.97 30.52,-487.28"/>
<polygon fill="black" stroke="black" points="34,-487.7 31.12,-477.5 27.01,-487.27 34,-487.7"/>
<text text-anchor="middle" x="23.11" y="-498.31" font-family="Times,serif" font-size="14.00">&quot;</text>
</g>
<!-- s2 -->
<g id="node2" class="node">
<title>s2</title>
<ellipse fill="none" stroke="black" cx="111.32" cy="-537" rx="19.11" ry="19.11"/>
<ellipse fill="none" stroke="black" cx="111.32" cy="-537" rx="23.11" ry="23.11"/>
<text text-anchor="middle" x="111.32" y="-531.95" font-family="Times,serif" font-size="14.00">s2</text>
</g>
<!-- s1&#45;&gt;s2 -->
<g id="edge9" class="edge">
<title>s1&#45;&gt;s2</title>
<path fill="none" stroke="black" d="M40.32,-469.61C53.13,-481.94 71.2,-499.34 85.78,-513.37"/>
<polygon fill="black" stroke="black" points="83.16,-515.71 92.8,-520.13 88.02,-510.67 83.16,-515.71"/>
<text text-anchor="middle" x="67.22" y="-501.19" font-family="Times,serif" font-size="14.00">\</text>
</g>
<!-- s0 -->
<g id="node3" class="node">
<title>s0</title>
<ellipse fill="none" stroke="black" cx="593.65" cy="-453" rx="19.11" ry="19.11"/>
<text text-anchor="middle" x="593.65" y="-447.95" font-family="Times,serif" font-size="14.00">s0</text>
</g>
<!-- s1&#45;&gt;s0 -->
<g id="edge10" class="edge">
<title>s1&#45;&gt;s0</title>
<path fill="none" stroke="black" d="M23.87,-477.56C23.41,-559.36 24.94,-830.3 64.22,-906 76.58,-929.82 83.48,-945 110.32,-945 110.32,-945 110.32,-945 506.18,-945 534.49,-945 543.08,-930.9 556.54,-906 576.51,-869.06 588.24,-580.21 591.62,-484.03"/>
<polygon fill="black" stroke="black" points="595.12,-484.16 591.97,-474.05 588.12,-483.92 595.12,-484.16"/>
<text text-anchor="middle" x="316.25" y="-948.2" font-family="Times,serif" font-size="14.00">e</text>
</g>
<!-- s1&#45;&gt;s0 -->
<g id="edge11" class="edge">
<title>s1&#45;&gt;s0</title>
<path fill="none" stroke="black" d="M24.19,-477.37C24.8,-552.55 29.52,-787.08 64.22,-853 76.71,-876.75 83.48,-892 110.32,-892 110.32,-892 110.32,-892 506.18,-892 534.49,-892 542.95,-877.83 556.54,-853 591.29,-789.53 593.43,-566.02 592.99,-483.72"/>
<polygon fill="black" stroke="black" points="596.49,-483.91 592.92,-473.93 589.49,-483.96 596.49,-483.91"/>
<text text-anchor="middle" x="316.25" y="-895.2" font-family="Times,serif" font-size="14.00">f</text>
</g>
<!-- s1&#45;&gt;s0 -->
<g id="edge12" class="edge">
<title>s1&#45;&gt;s0</title>
<path fill="none" stroke="black" d="M24.51,-477.27C26.06,-545.85 33.19,-745.84 64.22,-802 76.92,-825 84.05,-839 110.32,-839 110.32,-839 110.32,-839 506.18,-839 533.96,-839 542.74,-826.1 556.54,-802 587.44,-748.05 592.02,-558.23 592.61,-483.53"/>
<polygon fill="black" stroke="black" points="596.11,-483.7 592.66,-473.68 589.11,-483.66 596.11,-483.7"/>
<text text-anchor="middle" x="316.25" y="-842.2" font-family="Times,serif" font-size="14.00">o</text>
</g>
<!-- s1&#45;&gt;s0 -->
<g id="edge14" class="edge">
<title>s1&#45;&gt;s0</title>
<path fill="none" stroke="black" d="M25.11,-477.49C28.97,-553.51 46.09,-788 110.32,-788 110.32,-788 110.32,-788 506.18,-788 538.04,-788 542.61,-765.64 556.54,-737 578.04,-692.81 587.87,-547.42 591.23,-483.55"/>
<polygon fill="black" stroke="black" points="594.71,-483.94 591.72,-473.78 587.72,-483.59 594.71,-483.94"/>
<text text-anchor="middle" x="316.25" y="-789.7" font-family="Times,serif" font-size="14.00">◉</text>
</g>
<!-- s3 -->
<g id="node4" class="node">
<title>s3</title>
<ellipse fill="none" stroke="black" cx="215.79" cy="-358" rx="19.11" ry="19.11"/>
<text text-anchor="middle" x="215.79" y="-352.95" font-family="Times,serif" font-size="14.00">s3</text>
</g>
<!-- s1&#45;&gt;s3 -->
<g id="edge13" class="edge">
<title>s1&#45;&gt;s3</title>
<path fill="none" stroke="black" d="M33.51,-433.09C43.72,-413.45 62.13,-385.61 88.22,-375.5 119.82,-363.25 158.79,-359.39 185.07,-358.27"/>
<polygon fill="black" stroke="black" points="185.12,-361.77 195.01,-357.96 184.91,-354.77 185.12,-361.77"/>
<text text-anchor="middle" x="111.32" y="-378.7" font-family="Times,serif" font-size="14.00">EOL</text>
</g>
<!-- s2&#45;&gt;s1 -->
<g id="edge15" class="edge">
<title>s2&#45;&gt;s1</title>
<path fill="none" stroke="black" d="M101.35,-515.67C94.57,-501.77 84.05,-484.11 70.22,-472.5 66.06,-469.01 61.16,-466.12 56.13,-463.74"/>
<polygon fill="black" stroke="black" points="57.82,-460.65 47.23,-460.13 55.18,-467.14 57.82,-460.65"/>
<text text-anchor="middle" x="67.22" y="-475.7" font-family="Times,serif" font-size="14.00">&quot;</text>
</g>
<!-- s2&#45;&gt;s2 -->
<g id="edge16" class="edge">
<title>s2&#45;&gt;s2</title>
<path fill="none" stroke="black" d="M103.22,-558.99C102.33,-569.19 105.03,-578.11 111.32,-578.11 115.06,-578.11 117.53,-574.97 118.73,-570.28"/>
<polygon fill="black" stroke="black" points="122.21,-570.7 119.34,-560.5 115.22,-570.27 122.21,-570.7"/>
<text text-anchor="middle" x="111.32" y="-581.31" font-family="Times,serif" font-size="14.00">\</text>
</g>
<!-- s2&#45;&gt;s0 -->
<g id="edge17" class="edge">
<title>s2&#45;&gt;s0</title>
<path fill="none" stroke="black" d="M114.01,-560.2C117.75,-604.41 128.38,-698.1 152.43,-718 187.02,-746.63 523.07,-749.93 556.54,-720 590.94,-689.25 593.76,-547.32 593.25,-483.84"/>
<polygon fill="black" stroke="black" points="596.75,-484.06 593.13,-474.11 589.75,-484.15 596.75,-484.06"/>
<text text-anchor="middle" x="366.49" y="-744.2" font-family="Times,serif" font-size="14.00">e</text>
</g>
<!-- s2&#45;&gt;s0 -->
<g id="edge18" class="edge">
<title>s2&#45;&gt;s0</title>
<path fill="none" stroke="black" d="M115.47,-560.23C120.95,-596.85 133.52,-665.36 152.43,-680 187.94,-707.48 522.65,-710.45 556.54,-681 585.64,-655.72 591.39,-539.67 592.46,-483.56"/>
<polygon fill="black" stroke="black" points="595.95,-483.8 592.6,-473.75 588.96,-483.69 595.95,-483.8"/>
<text text-anchor="middle" x="366.49" y="-705.07" font-family="Times,serif" font-size="14.00">f</text>
</g>
<!-- s2&#45;&gt;s0 -->
<g id="edge19" class="edge">
<title>s2&#45;&gt;s0</title>
<path fill="none" stroke="black" d="M113.9,-560.4C116.98,-585.31 126,-623.61 152.43,-642 189.29,-667.65 522.03,-671.73 556.54,-643 580.51,-623.05 588.7,-532.01 591.4,-483.56"/>
<polygon fill="black" stroke="black" points="594.88,-483.9 591.89,-473.74 587.89,-483.55 594.88,-483.9"/>
<text text-anchor="middle" x="366.49" y="-666.14" font-family="Times,serif" font-size="14.00">o</text>
</g>
<!-- s2&#45;&gt;s0 -->
<g id="edge21" class="edge">
<title>s2&#45;&gt;s0</title>
<path fill="none" stroke="black" d="M124.95,-556.18C131.95,-565.21 141.45,-575.24 152.43,-581 241.86,-627.92 280.47,-595.26 379.61,-576 460.84,-560.22 493.78,-571.94 556.54,-518 567.82,-508.3 576.26,-494.16 582.14,-481.55"/>
<polygon fill="black" stroke="black" points="585.34,-482.97 586.05,-472.39 578.9,-480.22 585.34,-482.97"/>
<text text-anchor="middle" x="366.49" y="-583.19" font-family="Times,serif" font-size="14.00">◉</text>
</g>
<!-- s2&#45;&gt;s3 -->
<g id="edge20" class="edge">
<title>s2&#45;&gt;s3</title>
<path fill="none" stroke="black" d="M119.24,-515.04C125.89,-496.03 137.16,-468.4 152.43,-447.5 161.67,-434.86 168.95,-436.27 178.68,-424 187.91,-412.37 196.06,-398.05 202.27,-385.72"/>
<polygon fill="black" stroke="black" points="205.35,-387.41 206.55,-376.89 199.05,-384.36 205.35,-387.41"/>
<text text-anchor="middle" x="165.56" y="-450.7" font-family="Times,serif" font-size="14.00">EOL</text>
</g>
<!-- s0&#45;&gt;s1 -->
<g id="edge1" class="edge">
<title>s0&#45;&gt;s1</title>
<path fill="none" stroke="black" d="M593.14,-433.54C594.8,-346.83 595.86,0 506.18,0 110.32,0 110.32,0 110.32,0 25.06,0 21.95,-312.99 23.35,-419.22"/>
<polygon fill="black" stroke="black" points="19.84,-419.09 23.5,-429.03 26.84,-418.98 19.84,-419.09"/>
<text text-anchor="middle" x="316.25" y="-3.2" font-family="Times,serif" font-size="14.00">&quot;</text>
</g>
<!-- s0&#45;&gt;s2 -->
<g id="edge2" class="edge">
<title>s0&#45;&gt;s2</title>
<path fill="none" stroke="black" d="M583.5,-469.37C577.11,-479.46 567.74,-491.96 556.54,-500 544.23,-508.83 538.89,-506.99 524.29,-511 397.54,-545.84 365.63,-558.37 234.9,-572 198.22,-575.82 186.56,-576.95 152.43,-563 148.23,-561.28 143.99,-559.11 139.93,-556.76"/>
<polygon fill="black" stroke="black" points="141.9,-553.87 131.57,-551.51 138.17,-559.8 141.9,-553.87"/>
<text text-anchor="middle" x="366.49" y="-558.34" font-family="Times,serif" font-size="14.00">\</text>
</g>
<!-- s0&#45;&gt;s0 -->
<g id="edge3" class="edge">
<title>s0&#45;&gt;s0</title>
<path fill="none" stroke="black" d="M591.62,-472.47C591.38,-481.84 592.05,-490.11 593.65,-490.11 594.52,-490.11 595.12,-487.63 595.44,-483.86"/>
<polygon fill="black" stroke="black" points="598.94,-484.05 595.64,-473.99 591.94,-483.91 598.94,-484.05"/>
<text text-anchor="middle" x="593.65" y="-493.31" font-family="Times,serif" font-size="14.00">e</text>
</g>
<!-- s0&#45;&gt;s0 -->
<g id="edge4" class="edge">
<title>s0&#45;&gt;s0</title>
<path fill="none" stroke="black" d="M590.24,-472.2C588.58,-489.54 589.72,-508.11 593.65,-508.11 596.72,-508.11 598.08,-496.77 597.74,-483.55"/>
<polygon fill="black" stroke="black" points="601.25,-483.48 597.15,-473.71 594.26,-483.91 601.25,-483.48"/>
<text text-anchor="middle" x="593.65" y="-511.31" font-family="Times,serif" font-size="14.00">f</text>
</g>
<!-- s0&#45;&gt;s0 -->
<g id="edge5" class="edge">
<title>s0&#45;&gt;s0</title>
<path fill="none" stroke="black" d="M589.34,-472.1C585.77,-496.66 587.2,-526.11 593.65,-526.11 599.14,-526.11 600.99,-504.75 599.22,-483.24"/>
<polygon fill="black" stroke="black" points="602.73,-483.14 598.12,-473.6 595.77,-483.93 602.73,-483.14"/>
<text text-anchor="middle" x="593.65" y="-529.31" font-family="Times,serif" font-size="14.00">o</text>
</g>
<!-- s0&#45;&gt;s0 -->
<g id="edge7" class="edge">
<title>s0&#45;&gt;s0</title>
<path fill="none" stroke="black" d="M588.76,-471.78C582.95,-503.24 584.58,-544.11 593.65,-544.11 601.66,-544.11 603.86,-512.25 600.27,-483.15"/>
<polygon fill="black" stroke="black" points="603.74,-482.64 598.77,-473.28 596.82,-483.69 603.74,-482.64"/>
<text text-anchor="middle" x="593.65" y="-545.81" font-family="Times,serif" font-size="14.00">◉</text>
</g>
<!-- s0&#45;&gt;s3 -->
<g id="edge6" class="edge">
<title>s0&#45;&gt;s3</title>
<path fill="none" stroke="black" d="M576.16,-461.36C570.14,-464 563.18,-466.6 556.54,-468 518.06,-476.13 507.4,-469.56 468.08,-470 390.35,-470.88 369.53,-461.33 297.15,-433 276.11,-424.77 269.73,-423.06 252.9,-408 245.09,-401.02 237.99,-392.08 232.18,-383.7"/>
<polygon fill="black" stroke="black" points="235.23,-381.97 226.83,-375.53 229.38,-385.81 235.23,-381.97"/>
<text text-anchor="middle" x="416.72" y="-472.8" font-family="Times,serif" font-size="14.00">EOL</text>
</g>
<!-- s3&#45;&gt;s1 -->
<g id="edge22" class="edge">
<title>s3&#45;&gt;s1</title>
<path fill="none" stroke="black" d="M198,-350.17C172.54,-339.54 123.41,-323.97 88.22,-343.5 59.2,-359.6 42.2,-394.63 33.09,-420.96"/>
<polygon fill="black" stroke="black" points="29.85,-419.6 30.11,-430.19 36.51,-421.74 29.85,-419.6"/>
<text text-anchor="middle" x="111.32" y="-346.7" font-family="Times,serif" font-size="14.00">&quot;</text>
</g>
<!-- s3&#45;&gt;s2 -->
<g id="edge23" class="edge">
<title>s3&#45;&gt;s2</title>
<path fill="none" stroke="black" d="M211.39,-376.91C206.74,-399.18 196.81,-436.6 178.68,-464 170.04,-477.06 163.23,-476.16 152.43,-487.5 145.63,-494.64 138.71,-502.81 132.57,-510.42"/>
<polygon fill="black" stroke="black" points="130.17,-507.81 126.71,-517.83 135.66,-512.15 130.17,-507.81"/>
<text text-anchor="middle" x="165.56" y="-490.7" font-family="Times,serif" font-size="14.00">\</text>
</g>
<!-- s3&#45;&gt;s0 -->
<g id="edge25" class="edge">
<title>s3&#45;&gt;s0</title>
<path fill="none" stroke="black" d="M228.32,-343.04C262.69,-300.41 368.25,-183.47 468.08,-217 514.83,-232.71 530.07,-242.38 556.54,-284 583.74,-326.76 590.77,-386.66 592.4,-422.47"/>
<polygon fill="black" stroke="black" points="588.89,-422.24 592.72,-432.12 595.88,-422.01 588.89,-422.24"/>
<text text-anchor="middle" x="416.72" y="-218.13" font-family="Times,serif" font-size="14.00">f</text>
</g>
<!-- s3&#45;&gt;s0 -->
<g id="edge26" class="edge">
<title>s3&#45;&gt;s0</title>
<path fill="none" stroke="black" d="M216.85,-338.54C217.94,-309.21 223.99,-253.38 252.9,-218 343.32,-107.3 450.28,-16.4 556.54,-112 579.43,-132.59 588.9,-342.6 591.7,-422.43"/>
<polygon fill="black" stroke="black" points="588.19,-422.26 592.03,-432.14 595.19,-422.03 588.19,-422.26"/>
<text text-anchor="middle" x="416.72" y="-90.84" font-family="Times,serif" font-size="14.00">o</text>
</g>
<!-- s3&#45;&gt;s0 -->
<g id="edge28" class="edge">
<title>s3&#45;&gt;s0</title>
<path fill="none" stroke="black" d="M222.27,-376.44C227.81,-392.49 237.75,-415.55 252.9,-431 278.44,-457.06 390.78,-488.81 397.61,-490 467.27,-502.1 490.82,-509.07 556.54,-483 561.76,-480.93 566.78,-477.8 571.34,-474.34"/>
<polygon fill="black" stroke="black" points="573.47,-477.12 578.8,-467.96 568.92,-471.8 573.47,-477.12"/>
<text text-anchor="middle" x="416.72" y="-498.28" font-family="Times,serif" font-size="14.00">◉</text>
</g>
<!-- s3&#45;&gt;s3 -->
<g id="edge27" class="edge">
<title>s3&#45;&gt;s3</title>
<path fill="none" stroke="black" d="M206.96,-375.18C205,-385.44 207.94,-395.11 215.79,-395.11 220.57,-395.11 223.53,-391.52 224.67,-386.39"/>
<polygon fill="black" stroke="black" points="228.17,-386.67 224.62,-376.69 221.17,-386.71 228.17,-386.67"/>
<text text-anchor="middle" x="215.79" y="-398.31" font-family="Times,serif" font-size="14.00">EOL</text>
</g>
<!-- s4 -->
<g id="node5" class="node">
<title>s4</title>
<ellipse fill="none" stroke="black" cx="316.25" cy="-405" rx="19.11" ry="19.11"/>
<text text-anchor="middle" x="316.25" y="-399.95" font-family="Times,serif" font-size="14.00">s4</text>
</g>
<!-- s3&#45;&gt;s4 -->
<g id="edge24" class="edge">
<title>s3&#45;&gt;s4</title>
<path fill="none" stroke="black" d="M233.49,-365.97C248.49,-373.13 270.77,-383.77 288.28,-392.13"/>
<polygon fill="black" stroke="black" points="286.57,-395.19 297.1,-396.34 289.58,-388.87 286.57,-395.19"/>
<text text-anchor="middle" x="266.02" y="-390.29" font-family="Times,serif" font-size="14.00">e</text>
</g>
<!-- s4&#45;&gt;s1 -->
<g id="edge29" class="edge">
<title>s4&#45;&gt;s1</title>
<path fill="none" stroke="black" d="M314.47,-424.15C312.36,-447.47 304.93,-485.96 279.15,-504 269.59,-510.69 263.31,-509.26 252.9,-504 228.11,-491.49 203.47,-416.01 178.68,-403.5 135.97,-381.95 82.07,-411.06 50.51,-433.2"/>
<polygon fill="black" stroke="black" points="48.72,-430.18 42.69,-438.9 52.84,-435.84 48.72,-430.18"/>
<text text-anchor="middle" x="165.56" y="-406.7" font-family="Times,serif" font-size="14.00">&quot;</text>
</g>
<!-- s4&#45;&gt;s2 -->
<g id="edge30" class="edge">
<title>s4&#45;&gt;s2</title>
<path fill="none" stroke="black" d="M315.98,-424.22C315.87,-452.29 311.01,-503.87 279.15,-529 241.14,-558.97 181.76,-553.26 145.05,-545.65"/>
<polygon fill="black" stroke="black" points="145.98,-542.27 135.46,-543.49 144.44,-549.1 145.98,-542.27"/>
<text text-anchor="middle" x="215.79" y="-554.93" font-family="Times,serif" font-size="14.00">\</text>
</g>
<!-- s4&#45;&gt;s0 -->
<g id="edge31" class="edge">
<title>s4&#45;&gt;s0</title>
<path fill="none" stroke="black" d="M334.99,-400.62C363.28,-394.25 420.29,-383.99 468.08,-391.5 508.88,-397.91 520.82,-399.26 556.54,-420 561.82,-423.07 566.98,-427.01 571.68,-431.11"/>
<polygon fill="black" stroke="black" points="569.25,-433.62 578.93,-437.92 574.04,-428.52 569.25,-433.62"/>
<text text-anchor="middle" x="460.95" y="-394.7" font-family="Times,serif" font-size="14.00">e</text>
</g>
<!-- s4&#45;&gt;s0 -->
<g id="edge32" class="edge">
<title>s4&#45;&gt;s0</title>
<path fill="none" stroke="black" d="M332.96,-414.96C339.14,-418.54 346.4,-422.34 353.36,-425 424.9,-452.37 516.54,-454.91 562.91,-454.14"/>
<polygon fill="black" stroke="black" points="562.79,-457.64 572.7,-453.9 562.62,-450.65 562.79,-457.64"/>
<text text-anchor="middle" x="460.95" y="-453.2" font-family="Times,serif" font-size="14.00">f</text>
</g>
<!-- s4&#45;&gt;s0 -->
<g id="edge35" class="edge">
<title>s4&#45;&gt;s0</title>
<path fill="none" stroke="black" d="M335.38,-407.89C363.72,-412.45 420.23,-421.62 468.08,-430 500.8,-435.73 538.29,-442.71 563.51,-447.47"/>
<polygon fill="black" stroke="black" points="562.55,-450.84 573.02,-449.26 563.85,-443.97 562.55,-450.84"/>
<text text-anchor="middle" x="460.95" y="-431.7" font-family="Times,serif" font-size="14.00">◉</text>
</g>
<!-- s4&#45;&gt;s3 -->
<g id="edge34" class="edge">
<title>s4&#45;&gt;s3</title>
<path fill="none" stroke="black" d="M307.65,-387.38C301.7,-376.02 292.23,-362.15 279.15,-355.5 269,-350.34 256.69,-349.84 245.69,-351.04"/>
<polygon fill="black" stroke="black" points="245.24,-347.56 235.93,-352.62 246.36,-354.47 245.24,-347.56"/>
<text text-anchor="middle" x="266.02" y="-358.7" font-family="Times,serif" font-size="14.00">EOL</text>
</g>
<!-- s5 -->
<g id="node6" class="node">
<title>s5</title>
<ellipse fill="none" stroke="black" cx="416.72" cy="-297" rx="19.11" ry="19.11"/>
<text text-anchor="middle" x="416.72" y="-291.95" font-family="Times,serif" font-size="14.00">s5</text>
</g>
<!-- s4&#45;&gt;s5 -->
<g id="edge33" class="edge">
<title>s4&#45;&gt;s5</title>
<path fill="none" stroke="black" d="M327.52,-389.19C334.35,-379.14 343.8,-366.07 353.36,-355.5 363.87,-343.89 368.15,-342.67 379.61,-332 384.4,-327.54 389.48,-322.68 394.28,-318.05"/>
<polygon fill="black" stroke="black" points="396.65,-320.63 401.38,-311.15 391.77,-315.61 396.65,-320.63"/>
<text text-anchor="middle" x="366.49" y="-358.7" font-family="Times,serif" font-size="14.00">o</text>
</g>
<!-- s5&#45;&gt;s1 -->
<g id="edge36" class="edge">
<title>s5&#45;&gt;s1</title>
<path fill="none" stroke="black" d="M410.33,-278.82C400.99,-247.43 382.5,-186.05 379.61,-182 359.61,-153.97 351.69,-136 317.25,-136 110.32,-136 110.32,-136 110.32,-136 52.12,-136 31.97,-336.93 26.16,-419.35"/>
<polygon fill="black" stroke="black" points="22.68,-418.89 25.5,-429.11 29.66,-419.36 22.68,-418.89"/>
<text text-anchor="middle" x="215.79" y="-139.2" font-family="Times,serif" font-size="14.00">&quot;</text>
</g>
<!-- s5&#45;&gt;s2 -->
<g id="edge37" class="edge">
<title>s5&#45;&gt;s2</title>
<path fill="none" stroke="black" d="M399.57,-306.28C386.82,-313.73 368.69,-324.63 353.36,-335 327.52,-352.47 317.89,-353.71 297.15,-377 286.55,-388.9 289,-395.48 279.15,-408 240.93,-456.52 229.23,-468.51 178.68,-504 167.91,-511.56 155.15,-518.35 143.71,-523.78"/>
<polygon fill="black" stroke="black" points="142.28,-520.58 134.63,-527.91 145.18,-526.95 142.28,-520.58"/>
<text text-anchor="middle" x="266.02" y="-442.85" font-family="Times,serif" font-size="14.00">\</text>
</g>
<!-- s5&#45;&gt;s0 -->
<g id="edge38" class="edge">
<title>s5&#45;&gt;s0</title>
<path fill="none" stroke="black" d="M434.72,-303.74C463.13,-315.72 520.68,-343.19 556.54,-382 567.8,-394.18 576.43,-410.53 582.43,-424.47"/>
<polygon fill="black" stroke="black" points="579.13,-425.64 586.11,-433.61 585.62,-423.02 579.13,-425.64"/>
<text text-anchor="middle" x="505.18" y="-355.96" font-family="Times,serif" font-size="14.00">e</text>
</g>
<!-- s5&#45;&gt;s0 -->
<g id="edge40" class="edge">
<title>s5&#45;&gt;s0</title>
<path fill="none" stroke="black" d="M435.94,-294.27C458.56,-291.87 497.45,-291.07 524.29,-308.5 563.43,-333.92 580.65,-388.3 587.85,-422.62"/>
<polygon fill="black" stroke="black" points="584.4,-423.2 589.72,-432.36 591.27,-421.88 584.4,-423.2"/>
<text text-anchor="middle" x="505.18" y="-311.7" font-family="Times,serif" font-size="14.00">o</text>
</g>
<!-- s5&#45;&gt;s0 -->
<g id="edge42" class="edge">
<title>s5&#45;&gt;s0</title>
<path fill="none" stroke="black" d="M433.76,-287.73C455.42,-276.55 494.69,-260.99 524.29,-276 577.06,-302.75 589.43,-379.09 592.12,-422.27"/>
<polygon fill="black" stroke="black" points="588.61,-422.17 592.57,-431.99 595.6,-421.84 588.61,-422.17"/>
<text text-anchor="middle" x="505.18" y="-277.7" font-family="Times,serif" font-size="14.00">◉</text>
</g>
<!-- s5&#45;&gt;s3 -->
<g id="edge41" class="edge">
<title>s5&#45;&gt;s3</title>
<path fill="none" stroke="black" d="M397.21,-298.24C373.51,-300.24 331.41,-305.15 297.15,-316.5 277.89,-322.88 257.6,-333.39 242.23,-342.23"/>
<polygon fill="black" stroke="black" points="240.58,-339.15 233.75,-347.25 244.14,-345.17 240.58,-339.15"/>
<text text-anchor="middle" x="316.25" y="-319.7" font-family="Times,serif" font-size="14.00">EOL</text>
</g>
<!-- s6 -->
<g id="node7" class="node">
<title>s6</title>
<ellipse fill="none" stroke="black" cx="505.18" cy="-147" rx="19.11" ry="19.11"/>
<text text-anchor="middle" x="505.18" y="-141.95" font-family="Times,serif" font-size="14.00">s6</text>
</g>
<!-- s5&#45;&gt;s6 -->
<g id="edge39" class="edge">
<title>s5&#45;&gt;s6</title>
<path fill="none" stroke="black" d="M427.14,-280.66C442.08,-254.74 471.35,-203.96 489.2,-172.99"/>
<polygon fill="black" stroke="black" points="492.06,-175.04 494.02,-164.63 485.99,-171.55 492.06,-175.04"/>
<text text-anchor="middle" x="460.95" y="-234.18" font-family="Times,serif" font-size="14.00">f</text>
</g>
<!-- s6&#45;&gt;s1 -->
<g id="edge43" class="edge">
<title>s6&#45;&gt;s1</title>
<path fill="none" stroke="black" d="M498.19,-128.76C487.26,-99.43 461.13,-45 417.72,-45 110.32,-45 110.32,-45 110.32,-45 34.13,-45 24.93,-320.2 24.08,-419.12"/>
<polygon fill="black" stroke="black" points="20.58,-419.01 24.02,-429.03 27.58,-419.05 20.58,-419.01"/>
<text text-anchor="middle" x="266.02" y="-48.2" font-family="Times,serif" font-size="14.00">&quot;</text>
</g>
<!-- s6&#45;&gt;s2 -->
<g id="edge44" class="edge">
<title>s6&#45;&gt;s2</title>
<path fill="none" stroke="black" d="M486.13,-143.41C440.46,-135.47 319.22,-121.65 252.9,-183 157.68,-271.08 125.85,-432.01 116.17,-502.45"/>
<polygon fill="black" stroke="black" points="112.71,-501.86 114.9,-512.23 119.66,-502.76 112.71,-501.86"/>
<text text-anchor="middle" x="316.25" y="-157.93" font-family="Times,serif" font-size="14.00">\</text>
</g>
<!-- s6&#45;&gt;s0 -->
<g id="edge45" class="edge">
<title>s6&#45;&gt;s0</title>
<path fill="none" stroke="black" d="M517.13,-162.41C531.17,-182.29 554.03,-215.11 556.54,-221.5 583.4,-289.81 590.33,-376.85 592.09,-422.27"/>
<polygon fill="black" stroke="black" points="588.58,-422.27 592.4,-432.15 595.58,-422.04 588.58,-422.27"/>
<text text-anchor="middle" x="549.42" y="-224.7" font-family="Times,serif" font-size="14.00">e</text>
</g>
<!-- s6&#45;&gt;s0 -->
<g id="edge46" class="edge">
<title>s6&#45;&gt;s0</title>
<path fill="none" stroke="black" d="M523.51,-153.28C534.81,-158.31 548.85,-166.53 556.54,-178.5 582.12,-218.3 589.71,-359.23 591.85,-422.21"/>
<polygon fill="black" stroke="black" points="588.35,-422.31 592.17,-432.2 595.35,-422.09 588.35,-422.31"/>
<text text-anchor="middle" x="549.42" y="-181.7" font-family="Times,serif" font-size="14.00">f</text>
</g>
<!-- s6&#45;&gt;s0 -->
<g id="edge47" class="edge">
<title>s6&#45;&gt;s0</title>
<path fill="none" stroke="black" d="M523.62,-140.53C534.39,-137.75 547.78,-136.7 556.54,-144.5 577.1,-162.79 587.83,-348.07 591.33,-422.4"/>
<polygon fill="black" stroke="black" points="587.83,-422.39 591.78,-432.22 594.82,-422.07 587.83,-422.39"/>
<text text-anchor="middle" x="549.42" y="-147.7" font-family="Times,serif" font-size="14.00">o</text>
</g>
<!-- s6&#45;&gt;s0 -->
<g id="edge49" class="edge">
<title>s6&#45;&gt;s0</title>
<path fill="none" stroke="black" d="M518.38,-132.7C529.26,-121.64 545.17,-109.8 556.54,-120 578.87,-140.04 588.67,-344.24 591.62,-422.6"/>
<polygon fill="black" stroke="black" points="588.11,-422.26 591.97,-432.12 595.1,-422 588.11,-422.26"/>
<text text-anchor="middle" x="549.42" y="-121.7" font-family="Times,serif" font-size="14.00">◉</text>
</g>
<!-- s6&#45;&gt;s3 -->
<g id="edge48" class="edge">
<title>s6&#45;&gt;s3</title>
<path fill="none" stroke="black" d="M486.35,-152.29C431.79,-168.61 269.82,-218.16 252.9,-236 229.32,-260.85 221.06,-300.35 218.21,-327.64"/>
<polygon fill="black" stroke="black" points="214.74,-327.1 217.39,-337.36 221.72,-327.69 214.74,-327.1"/>
<text text-anchor="middle" x="366.49" y="-196.74" font-family="Times,serif" font-size="14.00">EOL</text>
</g>
</g>
</svg>
