<?xml version="1.0" encoding="UTF-8" standalone="no"?>
<!DOCTYPE svg PUBLIC "-//W3C//DTD SVG 1.1//EN"
 "http://www.w3.org/Graphics/SVG/1.1/DTD/svg11.dtd">
<!-- Generated by graphviz version 2.38.0 (20140413.2041)
 -->
<!-- Title: finite_state_machine Pages: 1 -->
<svg width="600pt" height="576pt"
 viewBox="0.00 0.00 599.72 576.00" xmlns="http://www.w3.org/2000/svg" xmlns:xlink="http://www.w3.org/1999/xlink">
<g id="graph0" class="graph" transform="scale(1 1) rotate(0) translate(4 572)">
<title>finite_state_machine</title>
<polygon fill="white" stroke="none" points="-4,4 -4,-572 595.72,-572 595.72,4 -4,4"/>
<!-- s0 -->
<g id="node1" class="node"><title>s0</title>
<ellipse fill="none" stroke="black" cx="22" cy="-72" rx="18" ry="18"/>
<ellipse fill="none" stroke="black" cx="22" cy="-72" rx="22" ry="22"/>
<text text-anchor="middle" x="22" y="-67.8" font-family="Times,serif" font-size="14.00">s0</text>
</g>
<!-- s0&#45;&gt;s0 -->
<g id="edge3" class="edge"><title>s0&#45;&gt;s0</title>
<path fill="none" stroke="black" d="M12.5928,-92.1697C11.1455,-102.599 14.2812,-112 22,-112 27.0654,-112 30.1571,-107.951 31.2751,-102.22"/>
<polygon fill="black" stroke="black" points="34.7754,-102.215 31.4072,-92.1697 27.776,-102.123 34.7754,-102.215"/>
<text text-anchor="middle" x="22" y="-114.8" font-family="Times,serif" font-size="14.00">0&#45;9</text>
</g>
<!-- s2 -->
<g id="node2" class="node"><title>s2</title>
<ellipse fill="none" stroke="black" cx="128.448" cy="-130" rx="18" ry="18"/>
<ellipse fill="none" stroke="black" cx="128.448" cy="-130" rx="22" ry="22"/>
<text text-anchor="middle" x="128.448" y="-125.8" font-family="Times,serif" font-size="14.00">s2</text>
</g>
<!-- s0&#45;&gt;s2 -->
<g id="edge2" class="edge"><title>s0&#45;&gt;s2</title>
<path fill="none" stroke="black" d="M41.6733,-82.3692C57.9371,-91.4005 81.7293,-104.612 100.133,-114.832"/>
<polygon fill="black" stroke="black" points="98.4949,-117.926 108.937,-119.721 101.893,-111.806 98.4949,-117.926"/>
<text text-anchor="middle" x="75.2241" y="-109.8" font-family="Times,serif" font-size="14.00">x</text>
</g>
<!-- s1 -->
<g id="node6" class="node"><title>s1</title>
<ellipse fill="none" stroke="black" cx="128.448" cy="-72" rx="18" ry="18"/>
<text text-anchor="middle" x="128.448" y="-67.8" font-family="Times,serif" font-size="14.00">s1</text>
</g>
<!-- s0&#45;&gt;s1 -->
<g id="edge1" class="edge"><title>s0&#45;&gt;s1</title>
<path fill="none" stroke="black" d="M44.1367,-72C60.2294,-72 82.5141,-72 99.9868,-72"/>
<polygon fill="black" stroke="black" points="100.146,-75.5001 110.146,-72 100.146,-68.5001 100.146,-75.5001"/>
<text text-anchor="middle" x="75.2241" y="-74.8" font-family="Times,serif" font-size="14.00">.</text>
</g>
<!-- s3 -->
<g id="node7" class="node"><title>s3</title>
<ellipse fill="none" stroke="black" cx="128.448" cy="-18" rx="18" ry="18"/>
<text text-anchor="middle" x="128.448" y="-13.8" font-family="Times,serif" font-size="14.00">s3</text>
</g>
<!-- s0&#45;&gt;s3 -->
<g id="edge4" class="edge"><title>s0&#45;&gt;s3</title>
<path fill="none" stroke="black" d="M42.1574,-62.0956C59.3091,-53.2281 84.5446,-40.1813 103.118,-30.5788"/>
<polygon fill="black" stroke="black" points="104.87,-33.6134 112.145,-25.9117 101.655,-27.3952 104.87,-33.6134"/>
<text text-anchor="middle" x="75.2241" y="-54.8" font-family="Times,serif" font-size="14.00">EOF</text>
</g>
<!-- s2&#45;&gt;s2 -->
<g id="edge6" class="edge"><title>s2&#45;&gt;s2</title>
<path fill="none" stroke="black" d="M126.966,-152.212C126.845,-161.795 127.339,-170 128.448,-170 129.124,-170 129.572,-166.953 129.791,-162.405"/>
<polygon fill="black" stroke="black" points="133.293,-162.259 129.93,-152.212 126.294,-162.163 133.293,-162.259"/>
<text text-anchor="middle" x="128.448" y="-172.8" font-family="Times,serif" font-size="14.00">A</text>
</g>
<!-- s2&#45;&gt;s2 -->
<g id="edge7" class="edge"><title>s2&#45;&gt;s2</title>
<path fill="none" stroke="black" d="M125.87,-152.019C124.839,-169.724 125.698,-188 128.448,-188 130.661,-188 131.65,-176.166 131.414,-162.318"/>
<polygon fill="black" stroke="black" points="134.9,-161.88 131.026,-152.019 127.905,-162.144 134.9,-161.88"/>
<text text-anchor="middle" x="128.448" y="-190.8" font-family="Times,serif" font-size="14.00">B</text>
</g>
<!-- s2&#45;&gt;s2 -->
<g id="edge8" class="edge"><title>s2&#45;&gt;s2</title>
<path fill="none" stroke="black" d="M125.145,-151.784C122.8,-176.903 123.901,-206 128.448,-206 132.391,-206 133.743,-184.119 132.504,-161.926"/>
<polygon fill="black" stroke="black" points="135.982,-161.498 131.752,-151.784 129.001,-162.016 135.982,-161.498"/>
<text text-anchor="middle" x="128.448" y="-208.8" font-family="Times,serif" font-size="14.00">C</text>
</g>
<!-- s2&#45;&gt;s2 -->
<g id="edge9" class="edge"><title>s2&#45;&gt;s2</title>
<path fill="none" stroke="black" d="M124.62,-151.714C120.766,-183.815 122.042,-224 128.448,-224 134.204,-224 135.819,-191.563 133.292,-161.694"/>
<polygon fill="black" stroke="black" points="136.771,-161.308 132.277,-151.714 129.807,-162.017 136.771,-161.308"/>
<text text-anchor="middle" x="128.448" y="-226.8" font-family="Times,serif" font-size="14.00">D</text>
</g>
<!-- s2&#45;&gt;s2 -->
<g id="edge10" class="edge"><title>s2&#45;&gt;s2</title>
<path fill="none" stroke="black" d="M124.217,-151.716C118.737,-190.552 120.147,-242 128.448,-242 136.036,-242 137.866,-199.015 133.94,-161.967"/>
<polygon fill="black" stroke="black" points="137.374,-161.214 132.68,-151.716 130.426,-162.068 137.374,-161.214"/>
<text text-anchor="middle" x="128.448" y="-244.8" font-family="Times,serif" font-size="14.00">E</text>
</g>
<!-- s2&#45;&gt;s2 -->
<g id="edge11" class="edge"><title>s2&#45;&gt;s2</title>
<path fill="none" stroke="black" d="M123.898,-151.736C116.713,-197.153 118.229,-260 128.448,-260 137.929,-260 139.919,-205.908 134.42,-161.825"/>
<polygon fill="black" stroke="black" points="137.86,-161.15 132.999,-151.736 130.928,-162.127 137.86,-161.15"/>
<text text-anchor="middle" x="128.448" y="-262.8" font-family="Times,serif" font-size="14.00">F</text>
</g>
<!-- s2&#45;&gt;s2 -->
<g id="edge12" class="edge"><title>s2&#45;&gt;s2</title>
<path fill="none" stroke="black" d="M123.671,-151.57C114.688,-203.467 116.28,-278 128.448,-278 139.856,-278 141.968,-212.492 134.786,-161.542"/>
<polygon fill="black" stroke="black" points="138.229,-160.909 133.225,-151.57 131.313,-161.991 138.229,-160.909"/>
<text text-anchor="middle" x="128.448" y="-280.8" font-family="Times,serif" font-size="14.00">a</text>
</g>
<!-- s2&#45;&gt;s2 -->
<g id="edge13" class="edge"><title>s2&#45;&gt;s2</title>
<path fill="none" stroke="black" d="M123.482,-151.466C112.668,-209.751 114.323,-296 128.448,-296 141.773,-296 144.001,-219.245 135.132,-161.618"/>
<polygon fill="black" stroke="black" points="138.533,-160.742 133.414,-151.466 131.631,-161.909 138.533,-160.742"/>
<text text-anchor="middle" x="128.448" y="-298.8" font-family="Times,serif" font-size="14.00">b</text>
</g>
<!-- s2&#45;&gt;s2 -->
<g id="edge14" class="edge"><title>s2&#45;&gt;s2</title>
<path fill="none" stroke="black" d="M123.271,-151.661C110.656,-216.272 112.382,-314 128.448,-314 143.699,-314 146.028,-225.945 135.437,-161.743"/>
<polygon fill="black" stroke="black" points="138.839,-160.885 133.626,-151.661 131.949,-162.122 138.839,-160.885"/>
<text text-anchor="middle" x="128.448" y="-316.8" font-family="Times,serif" font-size="14.00">c</text>
</g>
<!-- s2&#45;&gt;s2 -->
<g id="edge15" class="edge"><title>s2&#45;&gt;s2</title>
<path fill="none" stroke="black" d="M123.161,-151.465C108.639,-222.351 110.401,-332 128.448,-332 145.649,-332 148.057,-232.39 135.67,-161.673"/>
<polygon fill="black" stroke="black" points="139.036,-160.638 133.735,-151.465 132.159,-161.942 139.036,-160.638"/>
<text text-anchor="middle" x="128.448" y="-334.8" font-family="Times,serif" font-size="14.00">d</text>
</g>
<!-- s2&#45;&gt;s2 -->
<g id="edge16" class="edge"><title>s2&#45;&gt;s2</title>
<path fill="none" stroke="black" d="M123.051,-151.382C106.626,-228.504 108.425,-350 128.448,-350 147.611,-350 150.082,-238.72 135.862,-161.556"/>
<polygon fill="black" stroke="black" points="139.223,-160.511 133.845,-151.382 132.356,-161.872 139.223,-160.511"/>
<text text-anchor="middle" x="128.448" y="-352.8" font-family="Times,serif" font-size="14.00">e</text>
</g>
<!-- s2&#45;&gt;s2 -->
<g id="edge17" class="edge"><title>s2&#45;&gt;s2</title>
<path fill="none" stroke="black" d="M122.909,-151.526C104.618,-234.865 106.464,-368 128.448,-368 149.574,-368 152.104,-245.063 136.039,-161.509"/>
<polygon fill="black" stroke="black" points="139.428,-160.617 133.987,-151.526 132.572,-162.026 139.428,-160.617"/>
<text text-anchor="middle" x="128.448" y="-370.8" font-family="Times,serif" font-size="14.00">f</text>
</g>
<!-- s2&#45;&gt;s2 -->
<g id="edge18" class="edge"><title>s2&#45;&gt;s2</title>
<path fill="none" stroke="black" d="M122.831,-151.44C102.607,-240.958 104.479,-386 128.448,-386 151.551,-386 154.125,-251.25 136.172,-161.352"/>
<polygon fill="black" stroke="black" points="139.568,-160.495 134.066,-151.44 132.72,-161.949 139.568,-160.495"/>
<text text-anchor="middle" x="128.448" y="-388.8" font-family="Times,serif" font-size="14.00">0&#45;9</text>
</g>
<!-- s4 -->
<g id="node3" class="node"><title>s4</title>
<ellipse fill="none" stroke="black" cx="227.11" cy="-72" rx="18" ry="18"/>
<ellipse fill="none" stroke="black" cx="227.11" cy="-72" rx="22" ry="22"/>
<text text-anchor="middle" x="227.11" y="-67.8" font-family="Times,serif" font-size="14.00">s4</text>
</g>
<!-- s4&#45;&gt;s4 -->
<g id="edge21" class="edge"><title>s4&#45;&gt;s4</title>
<path fill="none" stroke="black" d="M219.104,-92.5808C217.996,-102.845 220.665,-112 227.11,-112 231.239,-112 233.819,-108.243 234.848,-102.844"/>
<polygon fill="black" stroke="black" points="238.353,-102.669 235.117,-92.5808 231.356,-102.486 238.353,-102.669"/>
<text text-anchor="middle" x="227.11" y="-114.8" font-family="Times,serif" font-size="14.00">0&#45;9</text>
</g>
<!-- s5 -->
<g id="node8" class="node"><title>s5</title>
<ellipse fill="none" stroke="black" cx="311.662" cy="-72" rx="18" ry="18"/>
<text text-anchor="middle" x="311.662" y="-67.8" font-family="Times,serif" font-size="14.00">s5</text>
</g>
<!-- s4&#45;&gt;s5 -->
<g id="edge19" class="edge"><title>s4&#45;&gt;s5</title>
<path fill="none" stroke="black" d="M249.369,-72C259.796,-72 272.471,-72 283.582,-72"/>
<polygon fill="black" stroke="black" points="283.632,-75.5001 293.632,-72 283.632,-68.5001 283.632,-75.5001"/>
<text text-anchor="middle" x="271.386" y="-74.8" font-family="Times,serif" font-size="14.00">E</text>
</g>
<!-- s4&#45;&gt;s5 -->
<g id="edge20" class="edge"><title>s4&#45;&gt;s5</title>
<path fill="none" stroke="black" d="M245.841,-59.811C254.645,-55.1822 265.538,-51.5493 275.662,-54 279.402,-54.9053 283.19,-56.2833 286.824,-57.8822"/>
<polygon fill="black" stroke="black" points="285.438,-61.1023 295.945,-62.4577 288.576,-54.8454 285.438,-61.1023"/>
<text text-anchor="middle" x="271.386" y="-56.8" font-family="Times,serif" font-size="14.00">e</text>
</g>
<!-- s7 -->
<g id="node4" class="node"><title>s7</title>
<ellipse fill="none" stroke="black" cx="486.22" cy="-80" rx="18" ry="18"/>
<ellipse fill="none" stroke="black" cx="486.22" cy="-80" rx="22" ry="22"/>
<text text-anchor="middle" x="486.22" y="-75.8" font-family="Times,serif" font-size="14.00">s7</text>
</g>
<!-- s7&#45;&gt;s7 -->
<g id="edge27" class="edge"><title>s7&#45;&gt;s7</title>
<path fill="none" stroke="black" d="M478.903,-100.991C478,-111.087 480.438,-120 486.22,-120 489.923,-120 492.255,-116.342 493.216,-111.059"/>
<polygon fill="black" stroke="black" points="496.716,-111.097 493.537,-100.991 489.72,-110.874 496.716,-111.097"/>
<text text-anchor="middle" x="486.22" y="-122.8" font-family="Times,serif" font-size="14.00">0&#45;9</text>
</g>
<!-- s8 -->
<g id="node5" class="node"><title>s8</title>
<ellipse fill="none" stroke="black" cx="569.72" cy="-80" rx="18" ry="18"/>
<ellipse fill="none" stroke="black" cx="569.72" cy="-80" rx="22" ry="22"/>
<text text-anchor="middle" x="569.72" y="-75.8" font-family="Times,serif" font-size="14.00">s8</text>
</g>
<!-- s7&#45;&gt;s8 -->
<g id="edge26" class="edge"><title>s7&#45;&gt;s8</title>
<path fill="none" stroke="black" d="M508.633,-80C517.43,-80 527.793,-80 537.412,-80"/>
<polygon fill="black" stroke="black" points="537.45,-83.5001 547.45,-80 537.45,-76.5001 537.45,-83.5001"/>
<text text-anchor="middle" x="527.97" y="-82.8" font-family="Times,serif" font-size="14.00">.</text>
</g>
<!-- s8&#45;&gt;s8 -->
<g id="edge28" class="edge"><title>s8&#45;&gt;s8</title>
<path fill="none" stroke="black" d="M562.403,-100.991C561.5,-111.087 563.938,-120 569.72,-120 573.423,-120 575.755,-116.342 576.716,-111.059"/>
<polygon fill="black" stroke="black" points="580.216,-111.097 577.037,-100.991 573.22,-110.874 580.216,-111.097"/>
<text text-anchor="middle" x="569.72" y="-122.8" font-family="Times,serif" font-size="14.00">0&#45;9</text>
</g>
<!-- s1&#45;&gt;s4 -->
<g id="edge5" class="edge"><title>s1&#45;&gt;s4</title>
<path fill="none" stroke="black" d="M146.729,-72C160.093,-72 178.949,-72 194.931,-72"/>
<polygon fill="black" stroke="black" points="194.931,-75.5001 204.931,-72 194.931,-68.5001 194.931,-75.5001"/>
<text text-anchor="middle" x="177.779" y="-74.8" font-family="Times,serif" font-size="14.00">0&#45;9</text>
</g>
<!-- s5&#45;&gt;s7 -->
<g id="edge24" class="edge"><title>s5&#45;&gt;s7</title>
<path fill="none" stroke="black" d="M329.321,-75.8087C335.1,-77.0028 341.641,-78.2131 347.662,-79 391.152,-84.6835 402.417,-86.2404 446.22,-84 448.777,-83.8692 451.425,-83.6904 454.082,-83.4806"/>
<polygon fill="black" stroke="black" points="454.561,-86.9515 464.2,-82.5535 453.922,-79.9807 454.561,-86.9515"/>
<text text-anchor="middle" x="391.558" y="-86.8" font-family="Times,serif" font-size="14.00">0&#45;9</text>
</g>
<!-- s6 -->
<g id="node9" class="node"><title>s6</title>
<ellipse fill="none" stroke="black" cx="391.558" cy="-47" rx="18" ry="18"/>
<text text-anchor="middle" x="391.558" y="-42.8" font-family="Times,serif" font-size="14.00">s6</text>
</g>
<!-- s5&#45;&gt;s6 -->
<g id="edge22" class="edge"><title>s5&#45;&gt;s6</title>
<path fill="none" stroke="black" d="M329.182,-66.6981C339.406,-63.4168 352.758,-59.1315 364.397,-55.3962"/>
<polygon fill="black" stroke="black" points="365.61,-58.6828 374.062,-52.2942 363.471,-52.0176 365.61,-58.6828"/>
<text text-anchor="middle" x="351.61" y="-63.8" font-family="Times,serif" font-size="14.00">+</text>
</g>
<!-- s5&#45;&gt;s6 -->
<g id="edge23" class="edge"><title>s5&#45;&gt;s6</title>
<path fill="none" stroke="black" d="M323.781,-58.2969C330.02,-51.7161 338.403,-44.5111 347.662,-41 352.804,-39.0504 358.508,-38.7042 364.034,-39.2044"/>
<polygon fill="black" stroke="black" points="363.789,-42.7153 374.245,-41.0103 365.008,-35.8222 363.789,-42.7153"/>
<text text-anchor="middle" x="351.61" y="-43.8" font-family="Times,serif" font-size="14.00">&#45;</text>
</g>
<!-- s6&#45;&gt;s7 -->
<g id="edge25" class="edge"><title>s6&#45;&gt;s7</title>
<path fill="none" stroke="black" d="M408.698,-52.7482C421.544,-57.3229 439.873,-63.8507 455.373,-69.3706"/>
<polygon fill="black" stroke="black" points="454.469,-72.7639 465.063,-72.8217 456.817,-66.1696 454.469,-72.7639"/>
<text text-anchor="middle" x="436.889" y="-68.8" font-family="Times,serif" font-size="14.00">0&#45;9</text>
</g>
</g>
</svg>
