<?xml version="1.0" encoding="UTF-8" standalone="no"?>
<!DOCTYPE svg PUBLIC "-//W3C//DTD SVG 1.1//EN"
 "http://www.w3.org/Graphics/SVG/1.1/DTD/svg11.dtd">
<!-- Generated by graphviz version 12.2.1 (20241206.2353)
 -->
<!-- Title: finite_state_machine Pages: 1 -->
<svg width="575pt" height="576pt"
 viewBox="0.00 0.00 574.63 576.00" xmlns="http://www.w3.org/2000/svg" xmlns:xlink="http://www.w3.org/1999/xlink">
<g id="graph0" class="graph" transform="scale(0.93702 0.93702) rotate(0) translate(4 610.72)">
<title>finite_state_machine</title>
<polygon fill="white" stroke="none" points="-4,4 -4,-610.72 609.26,-610.72 609.26,4 -4,4"/>
<!-- s0 -->
<g id="node1" class="node">
<title>s0</title>
<ellipse fill="none" stroke="black" cx="23.11" cy="-75.11" rx="19.11" ry="19.11"/>
<ellipse fill="none" stroke="black" cx="23.11" cy="-75.11" rx="23.11" ry="23.11"/>
<text text-anchor="middle" x="23.11" y="-70.06" font-family="Times,serif" font-size="14.00">s0</text>
</g>
<!-- s0&#45;&gt;s0 -->
<g id="edge3" class="edge">
<title>s0&#45;&gt;s0</title>
<path fill="none" stroke="black" d="M13.31,-96.26C11.95,-106.81 15.22,-116.22 23.11,-116.22 27.92,-116.22 31.01,-112.72 32.38,-107.6"/>
<polygon fill="black" stroke="black" points="35.87,-107.92 32.84,-97.77 28.88,-107.6 35.87,-107.92"/>
<text text-anchor="middle" x="23.11" y="-119.42" font-family="Times,serif" font-size="14.00">0&#45;9</text>
</g>
<!-- s2 -->
<g id="node2" class="node">
<title>s2</title>
<ellipse fill="none" stroke="black" cx="130.82" cy="-135.11" rx="19.11" ry="19.11"/>
<ellipse fill="none" stroke="black" cx="130.82" cy="-135.11" rx="23.11" ry="23.11"/>
<text text-anchor="middle" x="130.82" y="-130.06" font-family="Times,serif" font-size="14.00">s2</text>
</g>
<!-- s0&#45;&gt;s2 -->
<g id="edge2" class="edge">
<title>s0&#45;&gt;s2</title>
<path fill="none" stroke="black" d="M43.5,-86.11C59.42,-95.15 82.22,-108.09 100.39,-118.4"/>
<polygon fill="black" stroke="black" points="98.46,-121.33 108.88,-123.22 101.91,-115.24 98.46,-121.33"/>
<text text-anchor="middle" x="76.97" y="-115.45" font-family="Times,serif" font-size="14.00">x</text>
</g>
<!-- s1 -->
<g id="node6" class="node">
<title>s1</title>
<ellipse fill="none" stroke="black" cx="130.82" cy="-75.11" rx="19.11" ry="19.11"/>
<text text-anchor="middle" x="130.82" y="-70.06" font-family="Times,serif" font-size="14.00">s1</text>
</g>
<!-- s0&#45;&gt;s1 -->
<g id="edge1" class="edge">
<title>s0&#45;&gt;s1</title>
<path fill="none" stroke="black" d="M46.53,-75.11C62.19,-75.11 83.25,-75.11 100.28,-75.11"/>
<polygon fill="black" stroke="black" points="99.8,-78.61 109.8,-75.11 99.8,-71.61 99.8,-78.61"/>
<text text-anchor="middle" x="76.97" y="-78.31" font-family="Times,serif" font-size="14.00">.</text>
</g>
<!-- s3 -->
<g id="node7" class="node">
<title>s3</title>
<ellipse fill="none" stroke="black" cx="130.82" cy="-19.11" rx="19.11" ry="19.11"/>
<text text-anchor="middle" x="130.82" y="-14.06" font-family="Times,serif" font-size="14.00">s3</text>
</g>
<!-- s0&#45;&gt;s3 -->
<g id="edge4" class="edge">
<title>s0&#45;&gt;s3</title>
<path fill="none" stroke="black" d="M43.99,-64.57C60.79,-55.68 84.99,-42.86 103.41,-33.1"/>
<polygon fill="black" stroke="black" points="104.96,-36.24 112.16,-28.47 101.68,-30.05 104.96,-36.24"/>
<text text-anchor="middle" x="76.97" y="-56.97" font-family="Times,serif" font-size="14.00">EOF</text>
</g>
<!-- s2&#45;&gt;s2 -->
<g id="edge6" class="edge">
<title>s2&#45;&gt;s2</title>
<path fill="none" stroke="black" d="M129.34,-158.35C129.23,-168.02 129.73,-176.22 130.82,-176.22 131.44,-176.22 131.86,-173.62 132.1,-169.63"/>
<polygon fill="black" stroke="black" points="135.6,-169.93 132.28,-159.86 128.6,-169.8 135.6,-169.93"/>
<text text-anchor="middle" x="130.82" y="-179.42" font-family="Times,serif" font-size="14.00">A</text>
</g>
<!-- s2&#45;&gt;s2 -->
<g id="edge7" class="edge">
<title>s2&#45;&gt;s2</title>
<path fill="none" stroke="black" d="M128.19,-158.47C127.24,-176.22 128.12,-194.22 130.82,-194.22 132.93,-194.22 133.93,-183.23 133.81,-169.96"/>
<polygon fill="black" stroke="black" points="137.31,-169.87 133.5,-159.98 130.32,-170.09 137.31,-169.87"/>
<text text-anchor="middle" x="130.82" y="-197.42" font-family="Times,serif" font-size="14.00">B</text>
</g>
<!-- s2&#45;&gt;s2 -->
<g id="edge8" class="edge">
<title>s2&#45;&gt;s2</title>
<path fill="none" stroke="black" d="M127.41,-158.39C125.21,-183.6 126.35,-212.22 130.82,-212.22 134.63,-212.22 136.02,-191.46 134.99,-169.74"/>
<polygon fill="black" stroke="black" points="138.49,-169.65 134.33,-159.9 131.51,-170.12 138.49,-169.65"/>
<text text-anchor="middle" x="130.82" y="-215.42" font-family="Times,serif" font-size="14.00">C</text>
</g>
<!-- s2&#45;&gt;s2 -->
<g id="edge9" class="edge">
<title>s2&#45;&gt;s2</title>
<path fill="none" stroke="black" d="M126.88,-158.03C123.17,-190.35 124.48,-230.22 130.82,-230.22 136.45,-230.22 138.12,-198.87 135.83,-169.23"/>
<polygon fill="black" stroke="black" points="139.34,-169.16 134.91,-159.54 132.37,-169.82 139.34,-169.16"/>
<text text-anchor="middle" x="130.82" y="-233.42" font-family="Times,serif" font-size="14.00">D</text>
</g>
<!-- s2&#45;&gt;s2 -->
<g id="edge10" class="edge">
<title>s2&#45;&gt;s2</title>
<path fill="none" stroke="black" d="M126.44,-158.15C121.14,-197.23 122.6,-248.22 130.82,-248.22 138.27,-248.22 140.17,-206.34 136.52,-169.4"/>
<polygon fill="black" stroke="black" points="140.02,-169.18 135.38,-159.65 133.06,-169.99 140.02,-169.18"/>
<text text-anchor="middle" x="130.82" y="-251.42" font-family="Times,serif" font-size="14.00">E</text>
</g>
<!-- s2&#45;&gt;s2 -->
<g id="edge11" class="edge">
<title>s2&#45;&gt;s2</title>
<path fill="none" stroke="black" d="M126.12,-157.98C119.11,-203.7 120.67,-266.22 130.82,-266.22 140.16,-266.22 142.23,-213.31 137.04,-169.24"/>
<polygon fill="black" stroke="black" points="140.53,-168.92 135.72,-159.48 133.59,-169.85 140.53,-168.92"/>
<text text-anchor="middle" x="130.82" y="-269.42" font-family="Times,serif" font-size="14.00">F</text>
</g>
<!-- s2&#45;&gt;s2 -->
<g id="edge12" class="edge">
<title>s2&#45;&gt;s2</title>
<path fill="none" stroke="black" d="M125.87,-157.9C117.08,-210.13 118.74,-284.22 130.82,-284.22 142.06,-284.22 144.28,-220.18 137.48,-169.21"/>
<polygon fill="black" stroke="black" points="140.95,-168.77 136,-159.4 134.03,-169.8 140.95,-168.77"/>
<text text-anchor="middle" x="130.82" y="-287.42" font-family="Times,serif" font-size="14.00">a</text>
</g>
<!-- s2&#45;&gt;s2 -->
<g id="edge13" class="edge">
<title>s2&#45;&gt;s2</title>
<path fill="none" stroke="black" d="M125.64,-157.89C115.06,-216.54 116.79,-302.22 130.82,-302.22 143.98,-302.22 146.32,-226.91 137.84,-169.17"/>
<polygon fill="black" stroke="black" points="141.31,-168.69 136.25,-159.38 134.4,-169.81 141.31,-168.69"/>
<text text-anchor="middle" x="130.82" y="-305.42" font-family="Times,serif" font-size="14.00">b</text>
</g>
<!-- s2&#45;&gt;s2 -->
<g id="edge14" class="edge">
<title>s2&#45;&gt;s2</title>
<path fill="none" stroke="black" d="M125.48,-157.75C113.05,-222.76 114.83,-320.22 130.82,-320.22 145.91,-320.22 148.35,-233.48 138.14,-169.09"/>
<polygon fill="black" stroke="black" points="141.59,-168.5 136.42,-159.25 134.69,-169.7 141.59,-168.5"/>
<text text-anchor="middle" x="130.82" y="-323.42" font-family="Times,serif" font-size="14.00">c</text>
</g>
<!-- s2&#45;&gt;s2 -->
<g id="edge15" class="edge">
<title>s2&#45;&gt;s2</title>
<path fill="none" stroke="black" d="M125.35,-157.62C111.03,-228.92 112.85,-338.22 130.82,-338.22 147.88,-338.22 150.39,-239.74 138.35,-168.75"/>
<polygon fill="black" stroke="black" points="141.83,-168.3 136.57,-159.11 134.95,-169.58 141.83,-168.3"/>
<text text-anchor="middle" x="130.82" y="-341.42" font-family="Times,serif" font-size="14.00">d</text>
</g>
<!-- s2&#45;&gt;s2 -->
<g id="edge16" class="edge">
<title>s2&#45;&gt;s2</title>
<path fill="none" stroke="black" d="M125.16,-157.85C109.02,-235.41 110.91,-356.22 130.82,-356.22 149.8,-356.22 152.41,-246.47 138.63,-169.02"/>
<polygon fill="black" stroke="black" points="142.1,-168.49 136.77,-159.33 135.22,-169.82 142.1,-168.49"/>
<text text-anchor="middle" x="130.82" y="-359.42" font-family="Times,serif" font-size="14.00">e</text>
</g>
<!-- s2&#45;&gt;s2 -->
<g id="edge17" class="edge">
<title>s2&#45;&gt;s2</title>
<path fill="none" stroke="black" d="M125.05,-157.81C107.01,-241.6 108.93,-374.22 130.82,-374.22 151.77,-374.22 154.43,-252.75 138.81,-168.86"/>
<polygon fill="black" stroke="black" points="142.29,-168.41 136.89,-159.29 135.42,-169.78 142.29,-168.41"/>
<text text-anchor="middle" x="130.82" y="-377.42" font-family="Times,serif" font-size="14.00">f</text>
</g>
<!-- s2&#45;&gt;s2 -->
<g id="edge18" class="edge">
<title>s2&#45;&gt;s2</title>
<path fill="none" stroke="black" d="M124.95,-157.79C105,-247.78 106.96,-392.22 130.82,-392.22 153.73,-392.22 156.46,-259.11 138.99,-168.85"/>
<polygon fill="black" stroke="black" points="142.46,-168.35 137,-159.27 135.6,-169.77 142.46,-168.35"/>
<text text-anchor="middle" x="130.82" y="-395.42" font-family="Times,serif" font-size="14.00">0&#45;9</text>
</g>
<!-- s4 -->
<g id="node3" class="node">
<title>s4</title>
<ellipse fill="none" stroke="black" cx="231.04" cy="-75.11" rx="19.11" ry="19.11"/>
<ellipse fill="none" stroke="black" cx="231.04" cy="-75.11" rx="23.11" ry="23.11"/>
<text text-anchor="middle" x="231.04" y="-70.06" font-family="Times,serif" font-size="14.00">s4</text>
</g>
<!-- s4&#45;&gt;s4 -->
<g id="edge21" class="edge">
<title>s4&#45;&gt;s4</title>
<path fill="none" stroke="black" d="M222.72,-97.1C221.82,-107.3 224.59,-116.22 231.04,-116.22 234.87,-116.22 237.4,-113.07 238.64,-108.38"/>
<polygon fill="black" stroke="black" points="242.11,-108.81 239.26,-98.61 235.13,-108.37 242.11,-108.81"/>
<text text-anchor="middle" x="231.04" y="-119.42" font-family="Times,serif" font-size="14.00">0&#45;9</text>
</g>
<!-- s5 -->
<g id="node8" class="node">
<title>s5</title>
<ellipse fill="none" stroke="black" cx="317.5" cy="-75.11" rx="19.11" ry="19.11"/>
<text text-anchor="middle" x="317.5" y="-70.06" font-family="Times,serif" font-size="14.00">s5</text>
</g>
<!-- s4&#45;&gt;s5 -->
<g id="edge19" class="edge">
<title>s4&#45;&gt;s5</title>
<path fill="none" stroke="black" d="M254.23,-75.11C264.17,-75.11 276.05,-75.11 286.75,-75.11"/>
<polygon fill="black" stroke="black" points="286.65,-78.61 296.65,-75.11 286.65,-71.61 286.65,-78.61"/>
<text text-anchor="middle" x="276.27" y="-78.31" font-family="Times,serif" font-size="14.00">E</text>
</g>
<!-- s4&#45;&gt;s5 -->
<g id="edge20" class="edge">
<title>s4&#45;&gt;s5</title>
<path fill="none" stroke="black" d="M249.97,-61.26C258.9,-56 269.99,-51.86 280.4,-54.61 284.09,-55.58 287.8,-57.03 291.37,-58.72"/>
<polygon fill="black" stroke="black" points="289.67,-61.78 300.12,-63.52 293.04,-55.65 289.67,-61.78"/>
<text text-anchor="middle" x="276.27" y="-57.81" font-family="Times,serif" font-size="14.00">e</text>
</g>
<!-- s7 -->
<g id="node4" class="node">
<title>s7</title>
<ellipse fill="none" stroke="black" cx="496.18" cy="-80.11" rx="19.11" ry="19.11"/>
<ellipse fill="none" stroke="black" cx="496.18" cy="-80.11" rx="23.11" ry="23.11"/>
<text text-anchor="middle" x="496.18" y="-75.06" font-family="Times,serif" font-size="14.00">s7</text>
</g>
<!-- s7&#45;&gt;s7 -->
<g id="edge27" class="edge">
<title>s7&#45;&gt;s7</title>
<path fill="none" stroke="black" d="M488.28,-102.1C487.42,-112.3 490.05,-121.22 496.18,-121.22 499.82,-121.22 502.23,-118.07 503.4,-113.38"/>
<polygon fill="black" stroke="black" points="506.88,-113.8 503.99,-103.61 499.9,-113.38 506.88,-113.8"/>
<text text-anchor="middle" x="496.18" y="-124.42" font-family="Times,serif" font-size="14.00">0&#45;9</text>
</g>
<!-- s8 -->
<g id="node5" class="node">
<title>s8</title>
<ellipse fill="none" stroke="black" cx="582.15" cy="-80.11" rx="19.11" ry="19.11"/>
<ellipse fill="none" stroke="black" cx="582.15" cy="-80.11" rx="23.11" ry="23.11"/>
<text text-anchor="middle" x="582.15" y="-75.06" font-family="Times,serif" font-size="14.00">s8</text>
</g>
<!-- s7&#45;&gt;s8 -->
<g id="edge26" class="edge">
<title>s7&#45;&gt;s8</title>
<path fill="none" stroke="black" d="M519.68,-80.11C528.15,-80.11 537.98,-80.11 547.27,-80.11"/>
<polygon fill="black" stroke="black" points="547.07,-83.61 557.07,-80.11 547.07,-76.61 547.07,-83.61"/>
<text text-anchor="middle" x="539.17" y="-83.31" font-family="Times,serif" font-size="14.00">.</text>
</g>
<!-- s8&#45;&gt;s8 -->
<g id="edge28" class="edge">
<title>s8&#45;&gt;s8</title>
<path fill="none" stroke="black" d="M574.25,-102.1C573.39,-112.3 576.02,-121.22 582.15,-121.22 585.79,-121.22 588.19,-118.07 589.37,-113.38"/>
<polygon fill="black" stroke="black" points="592.85,-113.8 589.96,-103.61 585.86,-113.38 592.85,-113.8"/>
<text text-anchor="middle" x="582.15" y="-124.42" font-family="Times,serif" font-size="14.00">0&#45;9</text>
</g>
<!-- s1&#45;&gt;s4 -->
<g id="edge5" class="edge">
<title>s1&#45;&gt;s4</title>
<path fill="none" stroke="black" d="M150.3,-75.11C163.23,-75.11 180.87,-75.11 196.28,-75.11"/>
<polygon fill="black" stroke="black" points="196,-78.61 206,-75.11 196,-71.61 196,-78.61"/>
<text text-anchor="middle" x="180.93" y="-78.31" font-family="Times,serif" font-size="14.00">0&#45;9</text>
</g>
<!-- s5&#45;&gt;s7 -->
<g id="edge24" class="edge">
<title>s5&#45;&gt;s7</title>
<path fill="none" stroke="black" d="M335.95,-80.83C341.82,-82.51 348.44,-84.15 354.61,-85.11 398.76,-91.93 410.62,-92.5 455.08,-88.11 457.39,-87.88 459.78,-87.58 462.17,-87.22"/>
<polygon fill="black" stroke="black" points="462.49,-90.72 471.74,-85.56 461.29,-83.83 462.49,-90.72"/>
<text text-anchor="middle" x="399.97" y="-94.12" font-family="Times,serif" font-size="14.00">0&#45;9</text>
</g>
<!-- s6 -->
<g id="node9" class="node">
<title>s6</title>
<ellipse fill="none" stroke="black" cx="399.97" cy="-52.11" rx="19.11" ry="19.11"/>
<text text-anchor="middle" x="399.97" y="-47.06" font-family="Times,serif" font-size="14.00">s6</text>
</g>
<!-- s5&#45;&gt;s6 -->
<g id="edge22" class="edge">
<title>s5&#45;&gt;s6</title>
<path fill="none" stroke="black" d="M336.36,-70C346.36,-67.14 359.07,-63.51 370.41,-60.27"/>
<polygon fill="black" stroke="black" points="371.05,-63.73 379.7,-57.61 369.13,-57 371.05,-63.73"/>
<text text-anchor="middle" x="358.74" y="-67.5" font-family="Times,serif" font-size="14.00">+</text>
</g>
<!-- s5&#45;&gt;s6 -->
<g id="edge23" class="edge">
<title>s5&#45;&gt;s6</title>
<path fill="none" stroke="black" d="M330.25,-60.41C336.64,-53.6 345.16,-46.23 354.61,-42.61 359.85,-40.6 365.61,-40.44 371.19,-41.26"/>
<polygon fill="black" stroke="black" points="370.16,-44.61 380.72,-43.67 371.88,-37.83 370.16,-44.61"/>
<text text-anchor="middle" x="358.74" y="-45.81" font-family="Times,serif" font-size="14.00">&#45;</text>
</g>
<!-- s6&#45;&gt;s7 -->
<g id="edge25" class="edge">
<title>s6&#45;&gt;s7</title>
<path fill="none" stroke="black" d="M418.69,-57.37C431.09,-61.06 448.02,-66.09 462.8,-70.48"/>
<polygon fill="black" stroke="black" points="461.54,-73.76 472.12,-73.25 463.53,-67.05 461.54,-73.76"/>
<text text-anchor="middle" x="446.08" y="-70.98" font-family="Times,serif" font-size="14.00">0&#45;9</text>
</g>
</g>
</svg>
