<?xml version="1.0" encoding="UTF-8" standalone="no"?>
<!DOCTYPE svg PUBLIC "-//W3C//DTD SVG 1.1//EN"
 "http://www.w3.org/Graphics/SVG/1.1/DTD/svg11.dtd">
<!-- Generated by graphviz version 12.2.1 (20241206.2353)
 -->
<!-- Title: finite_state_machine Pages: 1 -->
<svg width="238pt" height="576pt"
 viewBox="0.00 0.00 237.93 576.00" xmlns="http://www.w3.org/2000/svg" xmlns:xlink="http://www.w3.org/1999/xlink">
<g id="graph0" class="graph" transform="scale(0.242326 0.242326) rotate(0) translate(4 2372.96)">
<title>finite_state_machine</title>
<polygon fill="white" stroke="none" points="-4,4 -4,-2372.96 977.86,-2372.96 977.86,4 -4,4"/>
<!-- s0 -->
<g id="node1" class="node">
<title>s0</title>
<ellipse fill="none" stroke="black" cx="23.11" cy="-1085" rx="19.11" ry="19.11"/>
<ellipse fill="none" stroke="black" cx="23.11" cy="-1085" rx="23.11" ry="23.11"/>
<text text-anchor="middle" x="23.11" y="-1079.95" font-family="Times,serif" font-size="14.00">s0</text>
</g>
<!-- s0&#45;&gt;s0 -->
<g id="edge1" class="edge">
<title>s0&#45;&gt;s0</title>
<path fill="none" stroke="black" d="M21.61,-1108.24C21.51,-1117.91 22.01,-1126.11 23.11,-1126.11 23.73,-1126.11 24.15,-1123.51 24.39,-1119.52"/>
<polygon fill="black" stroke="black" points="27.89,-1119.82 24.57,-1109.76 20.89,-1119.69 27.89,-1119.82"/>
<text text-anchor="middle" x="23.11" y="-1129.31" font-family="Times,serif" font-size="14.00">%</text>
</g>
<!-- s0&#45;&gt;s0 -->
<g id="edge2" class="edge">
<title>s0&#45;&gt;s0</title>
<path fill="none" stroke="black" d="M20.47,-1108.36C19.51,-1126.11 20.39,-1144.11 23.11,-1144.11 25.23,-1144.11 26.23,-1133.12 26.11,-1119.86"/>
<polygon fill="black" stroke="black" points="29.61,-1119.76 25.8,-1109.88 22.61,-1119.98 29.61,-1119.76"/>
<text text-anchor="middle" x="23.11" y="-1147.31" font-family="Times,serif" font-size="14.00">\</text>
</g>
<!-- s0&#45;&gt;s0 -->
<g id="edge3" class="edge">
<title>s0&#45;&gt;s0</title>
<path fill="none" stroke="black" d="M19.68,-1108.29C17.47,-1133.49 18.61,-1162.11 23.11,-1162.11 26.94,-1162.11 28.33,-1141.36 27.3,-1119.63"/>
<polygon fill="black" stroke="black" points="30.8,-1119.54 26.64,-1109.8 23.82,-1120.01 30.8,-1119.54"/>
<text text-anchor="middle" x="23.11" y="-1165.31" font-family="Times,serif" font-size="14.00">e</text>
</g>
<!-- s0&#45;&gt;s0 -->
<g id="edge4" class="edge">
<title>s0&#45;&gt;s0</title>
<path fill="none" stroke="black" d="M19.15,-1107.92C15.41,-1140.24 16.73,-1180.11 23.11,-1180.11 28.76,-1180.11 30.44,-1148.76 28.14,-1119.13"/>
<polygon fill="black" stroke="black" points="31.65,-1119.05 27.21,-1109.43 24.68,-1119.72 31.65,-1119.05"/>
<text text-anchor="middle" x="23.11" y="-1183.31" font-family="Times,serif" font-size="14.00">f</text>
</g>
<!-- s0&#45;&gt;s0 -->
<g id="edge5" class="edge">
<title>s0&#45;&gt;s0</title>
<path fill="none" stroke="black" d="M18.7,-1108.04C13.38,-1147.12 14.85,-1198.11 23.11,-1198.11 30.6,-1198.11 32.5,-1156.24 28.83,-1119.3"/>
<polygon fill="black" stroke="black" points="32.33,-1119.07 27.69,-1109.54 25.38,-1119.88 32.33,-1119.07"/>
<text text-anchor="middle" x="23.11" y="-1201.31" font-family="Times,serif" font-size="14.00">o</text>
</g>
<!-- s0&#45;&gt;s0 -->
<g id="edge8" class="edge">
<title>s0&#45;&gt;s0</title>
<path fill="none" stroke="black" d="M18.39,-1107.87C11.34,-1153.59 12.91,-1216.11 23.11,-1216.11 32.49,-1216.11 34.57,-1163.21 29.36,-1119.14"/>
<polygon fill="black" stroke="black" points="32.84,-1118.81 28.03,-1109.37 25.91,-1119.75 32.84,-1118.81"/>
<text text-anchor="middle" x="23.11" y="-1217.81" font-family="Times,serif" font-size="14.00">◉</text>
</g>
<!-- s1 -->
<g id="node2" class="node">
<title>s1</title>
<ellipse fill="none" stroke="black" cx="119.57" cy="-1399" rx="19.11" ry="19.11"/>
<ellipse fill="none" stroke="black" cx="119.57" cy="-1399" rx="23.11" ry="23.11"/>
<text text-anchor="middle" x="119.57" y="-1393.95" font-family="Times,serif" font-size="14.00">s1</text>
</g>
<!-- s0&#45;&gt;s1 -->
<g id="edge6" class="edge">
<title>s0&#45;&gt;s1</title>
<path fill="none" stroke="black" d="M24.38,-1108.4C25.54,-1170.08 31.69,-1335.21 64.22,-1377 69.55,-1383.85 77.35,-1388.58 85.4,-1391.84"/>
<polygon fill="black" stroke="black" points="84.27,-1395.15 94.87,-1394.96 86.47,-1388.5 84.27,-1395.15"/>
<text text-anchor="middle" x="71.34" y="-1391.18" font-family="Times,serif" font-size="14.00">{</text>
</g>
<!-- s2 -->
<g id="node3" class="node">
<title>s2</title>
<ellipse fill="none" stroke="black" cx="637.9" cy="-1488" rx="19.11" ry="19.11"/>
<ellipse fill="none" stroke="black" cx="637.9" cy="-1488" rx="23.11" ry="23.11"/>
<text text-anchor="middle" x="637.9" y="-1482.95" font-family="Times,serif" font-size="14.00">s2</text>
</g>
<!-- s0&#45;&gt;s2 -->
<g id="edge7" class="edge">
<title>s0&#45;&gt;s2</title>
<path fill="none" stroke="black" d="M24.71,-1061.71C27.35,-964.97 38.97,-597.78 64.22,-553 147.21,-405.76 299.2,-447.95 444.08,-535 548.62,-597.82 563.96,-645.54 596.79,-763 633.77,-895.32 636.85,-1327.9 636.95,-1453.51"/>
<polygon fill="black" stroke="black" points="633.45,-1453.18 636.95,-1463.18 640.45,-1453.18 633.45,-1453.18"/>
<text text-anchor="middle" x="312.5" y="-483.25" font-family="Times,serif" font-size="14.00">EOL</text>
</g>
<!-- s1&#45;&gt;s0 -->
<g id="edge11" class="edge">
<title>s1&#45;&gt;s0</title>
<path fill="none" stroke="black" d="M103.24,-1382.49C88.05,-1365.97 66.69,-1342.28 64.22,-1337 30.41,-1264.97 24.3,-1169.98 23.66,-1119.69"/>
<polygon fill="black" stroke="black" points="27.16,-1119.99 23.61,-1110.01 20.16,-1120.03 27.16,-1119.99"/>
<text text-anchor="middle" x="71.34" y="-1357.25" font-family="Times,serif" font-size="14.00">e</text>
</g>
<!-- s1&#45;&gt;s0 -->
<g id="edge12" class="edge">
<title>s1&#45;&gt;s0</title>
<path fill="none" stroke="black" d="M109.52,-1377.78C101.97,-1360.78 90.54,-1336.56 78.47,-1316.5 72.93,-1307.3 68.48,-1306.85 64.22,-1297 38.61,-1237.94 29.31,-1162.64 25.96,-1119.52"/>
<polygon fill="black" stroke="black" points="29.47,-1119.49 25.27,-1109.76 22.48,-1119.98 29.47,-1119.49"/>
<text text-anchor="middle" x="71.34" y="-1319.7" font-family="Times,serif" font-size="14.00">f</text>
</g>
<!-- s1&#45;&gt;s0 -->
<g id="edge13" class="edge">
<title>s1&#45;&gt;s0</title>
<path fill="none" stroke="black" d="M113.47,-1376.48C107.25,-1351.25 95.41,-1309.56 78.47,-1276.5 73.57,-1266.95 68.69,-1266.76 64.22,-1257 43.54,-1211.93 32.98,-1155.16 28.01,-1119.46"/>
<polygon fill="black" stroke="black" points="31.5,-1119.17 26.73,-1109.71 24.56,-1120.08 31.5,-1119.17"/>
<text text-anchor="middle" x="71.34" y="-1279.7" font-family="Times,serif" font-size="14.00">o</text>
</g>
<!-- s1&#45;&gt;s0 -->
<g id="edge16" class="edge">
<title>s1&#45;&gt;s0</title>
<path fill="none" stroke="black" d="M98.54,-1409.48C87.19,-1413.82 73.46,-1416.17 64.22,-1408 42.82,-1389.09 30.21,-1198.69 25.85,-1119.38"/>
<polygon fill="black" stroke="black" points="29.35,-1119.4 25.32,-1109.6 22.36,-1119.77 29.35,-1119.4"/>
<text text-anchor="middle" x="71.34" y="-1415.1" font-family="Times,serif" font-size="14.00">◉</text>
</g>
<!-- s1&#45;&gt;s2 -->
<g id="edge15" class="edge">
<title>s1&#45;&gt;s2</title>
<path fill="none" stroke="black" d="M129.83,-1419.99C136.51,-1432.43 146.79,-1447.25 160.68,-1455 179.97,-1465.77 497.66,-1481.5 603.15,-1486.45"/>
<polygon fill="black" stroke="black" points="602.71,-1489.93 612.86,-1486.9 603.04,-1482.94 602.71,-1489.93"/>
<text text-anchor="middle" x="366.74" y="-1477.81" font-family="Times,serif" font-size="14.00">EOL</text>
</g>
<!-- s3 -->
<g id="node4" class="node">
<title>s3</title>
<ellipse fill="none" stroke="black" cx="529.43" cy="-712" rx="19.11" ry="19.11"/>
<ellipse fill="none" stroke="black" cx="529.43" cy="-712" rx="23.11" ry="23.11"/>
<text text-anchor="middle" x="529.43" y="-706.95" font-family="Times,serif" font-size="14.00">s3</text>
</g>
<!-- s1&#45;&gt;s3 -->
<g id="edge9" class="edge">
<title>s1&#45;&gt;s3</title>
<path fill="none" stroke="black" d="M133.55,-1380.15C140.77,-1370.6 150.36,-1359.31 160.68,-1351 191.32,-1326.32 207.81,-1333.79 239.15,-1310 311.95,-1254.72 328.87,-1235.87 379.86,-1160 471.82,-1023.18 511,-824.74 523.56,-746.02"/>
<polygon fill="black" stroke="black" points="526.98,-746.78 525.06,-736.36 520.07,-745.71 526.98,-746.78"/>
<text text-anchor="middle" x="312.5" y="-1272.98" font-family="Times,serif" font-size="14.00">%</text>
</g>
<!-- s4 -->
<g id="node5" class="node">
<title>s4</title>
<ellipse fill="none" stroke="black" cx="312.5" cy="-1160" rx="19.11" ry="19.11"/>
<ellipse fill="none" stroke="black" cx="312.5" cy="-1160" rx="23.11" ry="23.11"/>
<text text-anchor="middle" x="312.5" y="-1154.95" font-family="Times,serif" font-size="14.00">s4</text>
</g>
<!-- s1&#45;&gt;s4 -->
<g id="edge10" class="edge">
<title>s1&#45;&gt;s4</title>
<path fill="none" stroke="black" d="M126.77,-1376.69C132.89,-1357.92 143.82,-1331.29 160.68,-1313 199.06,-1271.38 233.37,-1291.95 271.4,-1250 285.95,-1233.94 295.92,-1211.73 302.28,-1193.39"/>
<polygon fill="black" stroke="black" points="305.57,-1194.6 305.32,-1184.01 298.91,-1192.44 305.57,-1194.6"/>
<text text-anchor="middle" x="216.04" y="-1292.69" font-family="Times,serif" font-size="14.00">\</text>
</g>
<!-- s5 -->
<g id="node6" class="node">
<title>s5</title>
<ellipse fill="none" stroke="black" cx="216.04" cy="-750" rx="19.11" ry="19.11"/>
<ellipse fill="none" stroke="black" cx="216.04" cy="-750" rx="23.11" ry="23.11"/>
<text text-anchor="middle" x="216.04" y="-744.95" font-family="Times,serif" font-size="14.00">s5</text>
</g>
<!-- s1&#45;&gt;s5 -->
<g id="edge14" class="edge">
<title>s1&#45;&gt;s5</title>
<path fill="none" stroke="black" d="M120.53,-1375.56C121.13,-1324.44 126.32,-1199.71 160.68,-1102.5 164.75,-1090.98 171.16,-1090.62 174.93,-1079 205.05,-986.1 179.29,-956.7 192.93,-860 196.57,-834.17 202.46,-805.26 207.24,-783.56"/>
<polygon fill="black" stroke="black" points="210.59,-784.62 209.36,-774.1 203.76,-783.09 210.59,-784.62"/>
<text text-anchor="middle" x="167.81" y="-1105.7" font-family="Times,serif" font-size="14.00">{</text>
</g>
<!-- s2&#45;&gt;s0 -->
<g id="edge17" class="edge">
<title>s2&#45;&gt;s0</title>
<path fill="none" stroke="black" d="M637.02,-1511.28C637.36,-1615.22 636.24,-2033.58 596.79,-2075 545.63,-2128.72 339.45,-2114 265.27,-2114 118.57,-2114 118.57,-2114 118.57,-2114 88.84,-2114 78.33,-2101.17 64.22,-2075 41.11,-2032.14 27.5,-1290.47 24.66,-1119.82"/>
<polygon fill="black" stroke="black" points="28.16,-1119.77 24.5,-1109.83 21.16,-1119.88 28.16,-1119.77"/>
<text text-anchor="middle" x="312.5" y="-2118.55" font-family="Times,serif" font-size="14.00">%</text>
</g>
<!-- s2&#45;&gt;s0 -->
<g id="edge18" class="edge">
<title>s2&#45;&gt;s0</title>
<path fill="none" stroke="black" d="M636.93,-1511.56C636.77,-1598.1 633.5,-1897.96 596.79,-1985 579.36,-2026.32 575.27,-2061 530.43,-2061 118.57,-2061 118.57,-2061 118.57,-2061 92.16,-2061 79.1,-2058.82 64.22,-2037 37.9,-1998.42 26.8,-1286.96 24.55,-1119.9"/>
<polygon fill="black" stroke="black" points="28.05,-1119.87 24.42,-1109.92 21.05,-1119.96 28.05,-1119.87"/>
<text text-anchor="middle" x="312.5" y="-2064.2" font-family="Times,serif" font-size="14.00">\</text>
</g>
<!-- s2&#45;&gt;s0 -->
<g id="edge20" class="edge">
<title>s2&#45;&gt;s0</title>
<path fill="none" stroke="black" d="M636.52,-1511.39C634.87,-1600.46 626.93,-1915.09 596.79,-1947 569.22,-1976.2 279.2,-1996.1 239.15,-1999 161.6,-2004.61 120.38,-2052.76 64.22,-1999 31.89,-1968.06 25.4,-1283.29 24.3,-1119.81"/>
<polygon fill="black" stroke="black" points="27.81,-1120.03 24.24,-1110.05 20.81,-1120.08 27.81,-1120.03"/>
<text text-anchor="middle" x="312.5" y="-1998.37" font-family="Times,serif" font-size="14.00">f</text>
</g>
<!-- s2&#45;&gt;s0 -->
<g id="edge21" class="edge">
<title>s2&#45;&gt;s0</title>
<path fill="none" stroke="black" d="M636.32,-1511.45C634.04,-1595.76 624.35,-1880.05 596.79,-1909 554.97,-1952.94 106.88,-2001.75 64.22,-1961 33.3,-1931.47 25.76,-1279.2 24.37,-1119.87"/>
<polygon fill="black" stroke="black" points="27.87,-1119.93 24.29,-1109.96 20.87,-1119.98 27.87,-1119.93"/>
<text text-anchor="middle" x="312.5" y="-1973.78" font-family="Times,serif" font-size="14.00">o</text>
</g>
<!-- s2&#45;&gt;s0 -->
<g id="edge24" class="edge">
<title>s2&#45;&gt;s0</title>
<path fill="none" stroke="black" d="M626.65,-1508.65C596.47,-1567.66 502.26,-1739.26 379.86,-1840 281.95,-1920.58 215.34,-1917.14 96.47,-1873 80.43,-1867.05 72.76,-1866.82 64.22,-1852 27.37,-1788.09 24.26,-1261.51 24.09,-1119.93"/>
<polygon fill="black" stroke="black" points="27.59,-1120.07 24.08,-1110.07 20.59,-1120.07 27.59,-1120.07"/>
<text text-anchor="middle" x="312.5" y="-1895.76" font-family="Times,serif" font-size="14.00">◉</text>
</g>
<!-- s2&#45;&gt;s1 -->
<g id="edge22" class="edge">
<title>s2&#45;&gt;s1</title>
<path fill="none" stroke="black" d="M614.85,-1484.04C608.99,-1483.02 602.65,-1481.94 596.79,-1481 548.43,-1473.23 207.7,-1430.71 160.68,-1417 157.52,-1416.08 154.29,-1414.96 151.09,-1413.73"/>
<polygon fill="black" stroke="black" points="152.53,-1410.54 141.96,-1409.87 149.81,-1416.98 152.53,-1410.54"/>
<text text-anchor="middle" x="366.74" y="-1454.43" font-family="Times,serif" font-size="14.00">{</text>
</g>
<!-- s2&#45;&gt;s2 -->
<g id="edge23" class="edge">
<title>s2&#45;&gt;s2</title>
<path fill="none" stroke="black" d="M628.03,-1509.15C626.66,-1519.7 629.95,-1529.11 637.9,-1529.11 642.74,-1529.11 645.85,-1525.61 647.24,-1520.5"/>
<polygon fill="black" stroke="black" points="650.72,-1520.82 647.7,-1510.66 643.73,-1520.49 650.72,-1520.82"/>
<text text-anchor="middle" x="637.9" y="-1532.31" font-family="Times,serif" font-size="14.00">EOL</text>
</g>
<!-- s6 -->
<g id="node7" class="node">
<title>s6</title>
<ellipse fill="none" stroke="black" cx="746.36" cy="-2060" rx="19.11" ry="19.11"/>
<ellipse fill="none" stroke="black" cx="746.36" cy="-2060" rx="23.11" ry="23.11"/>
<text text-anchor="middle" x="746.36" y="-2054.95" font-family="Times,serif" font-size="14.00">s6</text>
</g>
<!-- s2&#45;&gt;s6 -->
<g id="edge19" class="edge">
<title>s2&#45;&gt;s6</title>
<path fill="none" stroke="black" d="M646.66,-1509.87C660.56,-1549.93 689.73,-1638 705.26,-1714.5 728.11,-1827.08 739.15,-1963.13 743.31,-2025.6"/>
<polygon fill="black" stroke="black" points="739.79,-2025.48 743.93,-2035.23 746.78,-2025.02 739.79,-2025.48"/>
<text text-anchor="middle" x="692.13" y="-1717.7" font-family="Times,serif" font-size="14.00">e</text>
</g>
<!-- s3&#45;&gt;s0 -->
<g id="edge25" class="edge">
<title>s3&#45;&gt;s0</title>
<path fill="none" stroke="black" d="M518.07,-691.64C511.22,-680.37 501.14,-667.22 488.33,-660 406.2,-613.73 131.1,-585.58 64.22,-652 36.12,-679.89 27.14,-952.76 24.81,-1050.44"/>
<polygon fill="black" stroke="black" points="21.32,-1050.13 24.59,-1060.21 28.32,-1050.29 21.32,-1050.13"/>
<text text-anchor="middle" x="264.27" y="-616.94" font-family="Times,serif" font-size="14.00">%</text>
</g>
<!-- s3&#45;&gt;s0 -->
<g id="edge26" class="edge">
<title>s3&#45;&gt;s0</title>
<path fill="none" stroke="black" d="M519.85,-690.58C513.12,-676.09 502.51,-657.4 488.33,-645 472.21,-630.91 464.53,-632.3 444.08,-626 296.36,-580.53 240.45,-559.83 96.47,-616 80.3,-622.31 73,-623.04 64.22,-638 23.35,-707.61 22.36,-957.36 23.47,-1050.05"/>
<polygon fill="black" stroke="black" points="19.97,-1050.09 23.61,-1060.04 26.97,-1049.99 19.97,-1050.09"/>
<text text-anchor="middle" x="264.27" y="-586.2" font-family="Times,serif" font-size="14.00">\</text>
</g>
<!-- s3&#45;&gt;s0 -->
<g id="edge27" class="edge">
<title>s3&#45;&gt;s0</title>
<path fill="none" stroke="black" d="M522.67,-689.47C516.82,-670.61 506.05,-644.11 488.33,-627 472.93,-612.14 464.29,-615.02 444.08,-608 284.53,-552.58 147.93,-472.31 64.22,-619 42.99,-656.19 29.51,-948.44 25.43,-1050.21"/>
<polygon fill="black" stroke="black" points="21.93,-1050 25.03,-1060.13 28.93,-1050.28 21.93,-1050"/>
<text text-anchor="middle" x="264.27" y="-549.9" font-family="Times,serif" font-size="14.00">e</text>
</g>
<!-- s3&#45;&gt;s0 -->
<g id="edge28" class="edge">
<title>s3&#45;&gt;s0</title>
<path fill="none" stroke="black" d="M524.66,-689.32C519.81,-666.52 509.37,-631.62 488.33,-609 413.69,-528.81 366.56,-518.13 257.15,-523.5 233.39,-524.67 104,-536.12 96.47,-541 73.31,-555.97 72.73,-567.78 64.22,-594 36.57,-679.11 27.32,-953.18 24.87,-1050.4"/>
<polygon fill="black" stroke="black" points="21.37,-1050.02 24.63,-1060.1 28.37,-1050.19 21.37,-1050.02"/>
<text text-anchor="middle" x="264.27" y="-526.7" font-family="Times,serif" font-size="14.00">f</text>
</g>
<!-- s3&#45;&gt;s0 -->
<g id="edge29" class="edge">
<title>s3&#45;&gt;s0</title>
<path fill="none" stroke="black" d="M516.68,-731.38C502.13,-753.94 475.4,-791.04 444.08,-814 309.61,-912.57 228.55,-853.27 96.47,-955 64.62,-979.53 44.75,-1022.27 34.07,-1052.03"/>
<polygon fill="black" stroke="black" points="30.82,-1050.7 30.91,-1061.29 37.45,-1052.96 30.82,-1050.7"/>
<text text-anchor="middle" x="264.27" y="-888.57" font-family="Times,serif" font-size="14.00">o</text>
</g>
<!-- s3&#45;&gt;s0 -->
<g id="edge32" class="edge">
<title>s3&#45;&gt;s0</title>
<path fill="none" stroke="black" d="M507.26,-704.19C428.74,-676.72 154.16,-594.06 64.22,-746 34.05,-796.95 26.54,-974.88 24.7,-1050.54"/>
<polygon fill="black" stroke="black" points="21.2,-1050.18 24.48,-1060.25 28.2,-1050.33 21.2,-1050.18"/>
<text text-anchor="middle" x="264.27" y="-658.77" font-family="Times,serif" font-size="14.00">◉</text>
</g>
<!-- s3&#45;&gt;s1 -->
<g id="edge30" class="edge">
<title>s3&#45;&gt;s1</title>
<path fill="none" stroke="black" d="M527.99,-735.29C525.03,-822.14 502.69,-1130.29 335.61,-1290 281.64,-1341.59 198.47,-1374.21 153,-1389.24"/>
<polygon fill="black" stroke="black" points="152.19,-1385.83 143.74,-1392.22 154.33,-1392.49 152.19,-1385.83"/>
<text text-anchor="middle" x="312.5" y="-1328.77" font-family="Times,serif" font-size="14.00">{</text>
</g>
<!-- s3&#45;&gt;s2 -->
<g id="edge31" class="edge">
<title>s3&#45;&gt;s2</title>
<path fill="none" stroke="black" d="M544.91,-729.28C560.87,-749.47 585.74,-784.58 596.79,-819.5 634.73,-939.4 637.19,-1334 637.04,-1453.44"/>
<polygon fill="black" stroke="black" points="633.54,-1453.23 637.02,-1463.24 640.54,-1453.24 633.54,-1453.23"/>
<text text-anchor="middle" x="583.67" y="-822.7" font-family="Times,serif" font-size="14.00">EOL</text>
</g>
<!-- s4&#45;&gt;s0 -->
<g id="edge34" class="edge">
<title>s4&#45;&gt;s0</title>
<path fill="none" stroke="black" d="M299.52,-1140.5C292.33,-1129.93 282.44,-1117.19 271.4,-1108 234.35,-1077.18 221.77,-1069.82 174.93,-1058.5 168.77,-1057.01 166.42,-1055.82 160.68,-1058.5 149.39,-1063.77 153.86,-1074.49 142.68,-1080 116.16,-1093.07 82.11,-1093.06 57.31,-1090.52"/>
<polygon fill="black" stroke="black" points="57.8,-1087.06 47.45,-1089.31 56.94,-1094.01 57.8,-1087.06"/>
<text text-anchor="middle" x="167.81" y="-1061.7" font-family="Times,serif" font-size="14.00">\</text>
</g>
<!-- s4&#45;&gt;s0 -->
<g id="edge35" class="edge">
<title>s4&#45;&gt;s0</title>
<path fill="none" stroke="black" d="M300.42,-1180.23C293.44,-1191.16 283.48,-1204.02 271.4,-1212 194.2,-1262.98 136.26,-1290.03 64.22,-1232 46.81,-1217.98 34.9,-1158.39 28.82,-1119.52"/>
<polygon fill="black" stroke="black" points="32.29,-1119.07 27.35,-1109.7 25.37,-1120.1 32.29,-1119.07"/>
<text text-anchor="middle" x="167.81" y="-1266.81" font-family="Times,serif" font-size="14.00">e</text>
</g>
<!-- s4&#45;&gt;s0 -->
<g id="edge36" class="edge">
<title>s4&#45;&gt;s0</title>
<path fill="none" stroke="black" d="M291.95,-1171.09C247.02,-1194.93 134.87,-1244.94 64.22,-1194 40.63,-1177 30.89,-1144.58 26.88,-1119.5"/>
<polygon fill="black" stroke="black" points="30.37,-1119.17 25.58,-1109.72 23.43,-1120.1 30.37,-1119.17"/>
<text text-anchor="middle" x="167.81" y="-1217.96" font-family="Times,serif" font-size="14.00">f</text>
</g>
<!-- s4&#45;&gt;s0 -->
<g id="edge37" class="edge">
<title>s4&#45;&gt;s0</title>
<path fill="none" stroke="black" d="M290.08,-1166.26C244.71,-1178.19 137.11,-1199.34 64.22,-1156 50.06,-1147.58 40.48,-1132.15 34.25,-1117.82"/>
<polygon fill="black" stroke="black" points="37.56,-1116.67 30.67,-1108.62 31.04,-1119.21 37.56,-1116.67"/>
<text text-anchor="middle" x="167.81" y="-1185.24" font-family="Times,serif" font-size="14.00">o</text>
</g>
<!-- s4&#45;&gt;s0 -->
<g id="edge40" class="edge">
<title>s4&#45;&gt;s0</title>
<path fill="none" stroke="black" d="M289.17,-1156.9C245.18,-1150.4 144.63,-1133.51 64.22,-1105 60.77,-1103.78 57.24,-1102.33 53.76,-1100.78"/>
<polygon fill="black" stroke="black" points="55.58,-1097.77 45.05,-1096.61 52.56,-1104.08 55.58,-1097.77"/>
<text text-anchor="middle" x="167.81" y="-1137.49" font-family="Times,serif" font-size="14.00">◉</text>
</g>
<!-- s4&#45;&gt;s2 -->
<g id="edge39" class="edge">
<title>s4&#45;&gt;s2</title>
<path fill="none" stroke="black" d="M330.6,-1175.09C375.99,-1215.47 502.47,-1330.12 596.79,-1436 603.66,-1443.71 610.69,-1452.47 616.9,-1460.58"/>
<polygon fill="black" stroke="black" points="614.04,-1462.6 622.86,-1468.48 619.63,-1458.39 614.04,-1462.6"/>
<text text-anchor="middle" x="475.2" y="-1324.59" font-family="Times,serif" font-size="14.00">EOL</text>
</g>
<!-- s7 -->
<g id="node8" class="node">
<title>s7</title>
<ellipse fill="none" stroke="black" cx="420.97" cy="-1692" rx="19.11" ry="19.11"/>
<ellipse fill="none" stroke="black" cx="420.97" cy="-1692" rx="23.11" ry="23.11"/>
<text text-anchor="middle" x="420.97" y="-1686.95" font-family="Times,serif" font-size="14.00">s7</text>
</g>
<!-- s4&#45;&gt;s7 -->
<g id="edge33" class="edge">
<title>s4&#45;&gt;s7</title>
<path fill="none" stroke="black" d="M318.22,-1182.57C323.21,-1207.16 330.98,-1247.72 335.61,-1283 348.14,-1378.51 333.24,-1404.85 353.61,-1499 360.95,-1532.9 368.51,-1539.72 379.86,-1572.5 390,-1601.78 401.19,-1635.22 409.17,-1659.27"/>
<polygon fill="black" stroke="black" points="405.76,-1660.1 412.23,-1668.5 412.4,-1657.9 405.76,-1660.1"/>
<text text-anchor="middle" x="366.74" y="-1575.7" font-family="Times,serif" font-size="14.00">%</text>
</g>
<!-- s8 -->
<g id="node9" class="node">
<title>s8</title>
<ellipse fill="none" stroke="black" cx="420.97" cy="-988" rx="19.11" ry="19.11"/>
<ellipse fill="none" stroke="black" cx="420.97" cy="-988" rx="23.11" ry="23.11"/>
<text text-anchor="middle" x="420.97" y="-982.95" font-family="Times,serif" font-size="14.00">s8</text>
</g>
<!-- s4&#45;&gt;s8 -->
<g id="edge38" class="edge">
<title>s4&#45;&gt;s8</title>
<path fill="none" stroke="black" d="M325.87,-1140.74C339.31,-1119.74 361.33,-1085.12 379.86,-1055 387.39,-1042.76 395.55,-1029.18 402.54,-1017.46"/>
<polygon fill="black" stroke="black" points="405.46,-1019.4 407.56,-1009.02 399.44,-1015.83 405.46,-1019.4"/>
<text text-anchor="middle" x="366.74" y="-1098.76" font-family="Times,serif" font-size="14.00">{</text>
</g>
<!-- s5&#45;&gt;s0 -->
<g id="edge43" class="edge">
<title>s5&#45;&gt;s0</title>
<path fill="none" stroke="black" d="M192.69,-749.92C157.44,-751.2 90.29,-759.64 64.22,-804 40.06,-845.09 29.51,-984.55 25.79,-1050.24"/>
<polygon fill="black" stroke="black" points="22.31,-1049.92 25.26,-1060.09 29.3,-1050.3 22.31,-1049.92"/>
<text text-anchor="middle" x="119.57" y="-775.63" font-family="Times,serif" font-size="14.00">e</text>
</g>
<!-- s5&#45;&gt;s0 -->
<g id="edge44" class="edge">
<title>s5&#45;&gt;s0</title>
<path fill="none" stroke="black" d="M194.4,-740.55C169.63,-730.7 127.54,-718.85 96.47,-735.5 73.65,-747.73 73.33,-759.77 64.22,-784 29.74,-875.68 24.18,-992.82 23.72,-1050.18"/>
<polygon fill="black" stroke="black" points="20.23,-1049.96 23.7,-1059.97 27.23,-1049.98 20.23,-1049.96"/>
<text text-anchor="middle" x="119.57" y="-738.7" font-family="Times,serif" font-size="14.00">f</text>
</g>
<!-- s5&#45;&gt;s0 -->
<g id="edge45" class="edge">
<title>s5&#45;&gt;s0</title>
<path fill="none" stroke="black" d="M208.07,-772.2C201.64,-789.95 190.7,-814.64 174.93,-832 136.1,-874.74 97.61,-852.89 64.22,-900 32.35,-944.95 25.02,-1010.37 23.75,-1050.17"/>
<polygon fill="black" stroke="black" points="20.26,-1050.07 23.57,-1060.13 27.25,-1050.2 20.26,-1050.07"/>
<text text-anchor="middle" x="119.57" y="-875.23" font-family="Times,serif" font-size="14.00">o</text>
</g>
<!-- s5&#45;&gt;s0 -->
<g id="edge48" class="edge">
<title>s5&#45;&gt;s0</title>
<path fill="none" stroke="black" d="M195.57,-761.65C170.86,-777.01 127.69,-805.76 96.47,-837 79.32,-854.15 73.95,-858.8 64.22,-881 39.61,-937.11 30,-1008.5 26.32,-1050.24"/>
<polygon fill="black" stroke="black" points="22.83,-1049.93 25.51,-1060.18 29.81,-1050.49 22.83,-1049.93"/>
<text text-anchor="middle" x="119.57" y="-838.7" font-family="Times,serif" font-size="14.00">◉</text>
</g>
<!-- s5&#45;&gt;s2 -->
<g id="edge47" class="edge">
<title>s5&#45;&gt;s2</title>
<path fill="none" stroke="black" d="M238.73,-756.38C248.68,-759.31 260.64,-762.83 271.4,-766 299.94,-774.42 310.42,-769.14 335.61,-785 360.44,-800.64 362.32,-810.47 379.86,-834 533.99,-1040.74 608.84,-1351.96 630.24,-1454.16"/>
<polygon fill="black" stroke="black" points="626.78,-1454.73 632.23,-1463.82 633.64,-1453.32 626.78,-1454.73"/>
<text text-anchor="middle" x="420.97" y="-935.95" font-family="Times,serif" font-size="14.00">EOL</text>
</g>
<!-- s5&#45;&gt;s3 -->
<g id="edge41" class="edge">
<title>s5&#45;&gt;s3</title>
<path fill="none" stroke="black" d="M237.48,-740.51C243.68,-738 250.58,-735.56 257.15,-734 340.77,-714.09 442.54,-711.37 494.43,-711.46"/>
<polygon fill="black" stroke="black" points="494.38,-714.96 504.4,-711.52 494.43,-707.96 494.38,-714.96"/>
<text text-anchor="middle" x="366.74" y="-721.19" font-family="Times,serif" font-size="14.00">%</text>
</g>
<!-- s5&#45;&gt;s4 -->
<g id="edge42" class="edge">
<title>s5&#45;&gt;s4</title>
<path fill="none" stroke="black" d="M235.15,-763.75C247.57,-774.28 263.23,-789.94 271.4,-807.5 297.4,-863.43 307.27,-1047.61 310.33,-1125.13"/>
<polygon fill="black" stroke="black" points="306.83,-1125.24 310.7,-1135.1 313.82,-1124.98 306.83,-1125.24"/>
<text text-anchor="middle" x="264.27" y="-810.7" font-family="Times,serif" font-size="14.00">\</text>
</g>
<!-- s5&#45;&gt;s5 -->
<g id="edge46" class="edge">
<title>s5&#45;&gt;s5</title>
<path fill="none" stroke="black" d="M207.21,-771.57C206.13,-781.95 209.07,-791.11 216.04,-791.11 220.29,-791.11 223.04,-787.71 224.29,-782.7"/>
<polygon fill="black" stroke="black" points="227.77,-783.25 224.78,-773.08 220.78,-782.89 227.77,-783.25"/>
<text text-anchor="middle" x="216.04" y="-794.31" font-family="Times,serif" font-size="14.00">{</text>
</g>
<!-- s6&#45;&gt;s0 -->
<g id="edge49" class="edge">
<title>s6&#45;&gt;s0</title>
<path fill="none" stroke="black" d="M744.28,-2083.44C741.72,-2112.03 733.23,-2160.1 705.26,-2189 643.61,-2252.69 402.14,-2264 313.5,-2264 118.57,-2264 118.57,-2264 118.57,-2264 84.83,-2264 77.88,-2241.85 64.22,-2211 19.14,-2109.2 22.52,-1298.02 23.82,-1119.62"/>
<polygon fill="black" stroke="black" points="27.32,-1119.65 23.89,-1109.62 20.32,-1119.6 27.32,-1119.65"/>
<text text-anchor="middle" x="366.74" y="-2266.54" font-family="Times,serif" font-size="14.00">%</text>
</g>
<!-- s6&#45;&gt;s0 -->
<g id="edge50" class="edge">
<title>s6&#45;&gt;s0</title>
<path fill="none" stroke="black" d="M741.83,-2083.14C737.28,-2104.42 727.16,-2135.03 705.26,-2151 625.82,-2208.91 363.58,-2197 265.27,-2197 118.57,-2197 118.57,-2197 118.57,-2197 92.16,-2197 79.04,-2194.86 64.22,-2173 33.98,-2128.41 25.79,-1300.15 24.36,-1119.57"/>
<polygon fill="black" stroke="black" points="27.86,-1119.66 24.28,-1109.68 20.86,-1119.71 27.86,-1119.66"/>
<text text-anchor="middle" x="366.74" y="-2201.21" font-family="Times,serif" font-size="14.00">\</text>
</g>
<!-- s6&#45;&gt;s0 -->
<g id="edge51" class="edge">
<title>s6&#45;&gt;s0</title>
<path fill="none" stroke="black" d="M724.15,-2067.6C657.53,-2090.79 446.11,-2159 265.27,-2159 118.57,-2159 118.57,-2159 118.57,-2159 82.92,-2159 77.84,-2132.95 64.22,-2100 26.16,-2007.93 24.04,-1287.62 24.06,-1119.84"/>
<polygon fill="black" stroke="black" points="27.56,-1120.03 24.07,-1110.03 20.56,-1120.03 27.56,-1120.03"/>
<text text-anchor="middle" x="366.74" y="-2157.15" font-family="Times,serif" font-size="14.00">e</text>
</g>
<!-- s6&#45;&gt;s0 -->
<g id="edge52" class="edge">
<title>s6&#45;&gt;s0</title>
<path fill="none" stroke="black" d="M744.31,-2036.59C740.64,-1957.55 727.39,-1693.38 705.26,-1476 654.19,-974.66 769.2,-431 265.27,-431 118.57,-431 118.57,-431 118.57,-431 69.15,-431 78.33,-480.64 64.22,-528 34.85,-626.52 26.61,-944.07 24.65,-1050.14"/>
<polygon fill="black" stroke="black" points="21.16,-1049.86 24.48,-1059.92 28.15,-1049.98 21.16,-1049.86"/>
<text text-anchor="middle" x="366.74" y="-444.08" font-family="Times,serif" font-size="14.00">f</text>
</g>
<!-- s6&#45;&gt;s0 -->
<g id="edge56" class="edge">
<title>s6&#45;&gt;s0</title>
<path fill="none" stroke="black" d="M745.67,-2083.4C745.13,-2144.47 734.57,-2304 638.9,-2304 118.57,-2304 118.57,-2304 118.57,-2304 81.25,-2304 77.69,-2274.8 64.22,-2240 22.92,-2133.34 23.37,-1300.43 23.96,-1119.58"/>
<polygon fill="black" stroke="black" points="27.46,-1119.68 24,-1109.67 20.46,-1119.66 27.46,-1119.68"/>
<text text-anchor="middle" x="366.74" y="-2305.7" font-family="Times,serif" font-size="14.00">◉</text>
</g>
<!-- s6&#45;&gt;s1 -->
<g id="edge54" class="edge">
<title>s6&#45;&gt;s1</title>
<path fill="none" stroke="black" d="M745.88,-2036.42C747.6,-1934.73 748.59,-1535.16 661.01,-1456 562.74,-1367.19 500.19,-1403 367.74,-1403 215.04,-1403 215.04,-1403 215.04,-1403 194.94,-1403 172.45,-1402.08 154.46,-1401.13"/>
<polygon fill="black" stroke="black" points="154.78,-1397.64 144.59,-1400.57 154.38,-1404.63 154.78,-1397.64"/>
<text text-anchor="middle" x="420.97" y="-1405.59" font-family="Times,serif" font-size="14.00">{</text>
</g>
<!-- s6&#45;&gt;s2 -->
<g id="edge55" class="edge">
<title>s6&#45;&gt;s2</title>
<path fill="none" stroke="black" d="M740.5,-2037.32C729.13,-1984 700.18,-1846.49 679.01,-1731 665.42,-1656.91 651.54,-1569.72 644.2,-1522.54"/>
<polygon fill="black" stroke="black" points="647.66,-1522.01 642.67,-1512.66 640.75,-1523.08 647.66,-1522.01"/>
<text text-anchor="middle" x="692.13" y="-1869.97" font-family="Times,serif" font-size="14.00">EOL</text>
</g>
<!-- s9 -->
<g id="node10" class="node">
<title>s9</title>
<ellipse fill="none" stroke="black" cx="854.83" cy="-401" rx="19.11" ry="19.11"/>
<ellipse fill="none" stroke="black" cx="854.83" cy="-401" rx="23.11" ry="23.11"/>
<text text-anchor="middle" x="854.83" y="-395.95" font-family="Times,serif" font-size="14.00">s9</text>
</g>
<!-- s6&#45;&gt;s9 -->
<g id="edge53" class="edge">
<title>s6&#45;&gt;s9</title>
<path fill="none" stroke="black" d="M769.03,-2054.17C784.4,-2048.8 803.97,-2039.14 813.72,-2023 856.18,-1952.72 854.56,-664.51 853.94,-435.63"/>
<polygon fill="black" stroke="black" points="857.44,-435.87 853.91,-425.88 850.44,-435.89 857.44,-435.87"/>
<text text-anchor="middle" x="800.6" y="-2048.96" font-family="Times,serif" font-size="14.00">o</text>
</g>
<!-- s7&#45;&gt;s0 -->
<g id="edge57" class="edge">
<title>s7&#45;&gt;s0</title>
<path fill="none" stroke="black" d="M417.63,-1715.33C413.91,-1739.38 404.34,-1776.11 379.86,-1796 325.35,-1840.29 113.9,-1861.64 64.22,-1812 39.45,-1787.26 27.51,-1260.87 24.75,-1119.62"/>
<polygon fill="black" stroke="black" points="28.25,-1119.72 24.56,-1109.79 21.25,-1119.85 28.25,-1119.72"/>
<text text-anchor="middle" x="216.04" y="-1843.64" font-family="Times,serif" font-size="14.00">%</text>
</g>
<!-- s7&#45;&gt;s0 -->
<g id="edge58" class="edge">
<title>s7&#45;&gt;s0</title>
<path fill="none" stroke="black" d="M412.77,-1714.1C406.59,-1729.23 396.07,-1748.27 379.86,-1758 319.72,-1794.11 113.94,-1808.47 64.22,-1759 41.35,-1736.25 28.15,-1254.37 24.9,-1119.69"/>
<polygon fill="black" stroke="black" points="28.41,-1119.9 24.67,-1109.98 21.41,-1120.06 28.41,-1119.9"/>
<text text-anchor="middle" x="216.04" y="-1794.05" font-family="Times,serif" font-size="14.00">\</text>
</g>
<!-- s7&#45;&gt;s0 -->
<g id="edge59" class="edge">
<title>s7&#45;&gt;s0</title>
<path fill="none" stroke="black" d="M399.45,-1701.65C338.48,-1728.75 156.9,-1797.75 64.22,-1706 22.46,-1664.67 22.71,-1245.28 23.72,-1120.1"/>
<polygon fill="black" stroke="black" points="27.22,-1120.14 23.81,-1110.11 20.22,-1120.07 27.22,-1120.14"/>
<text text-anchor="middle" x="216.04" y="-1755.29" font-family="Times,serif" font-size="14.00">e</text>
</g>
<!-- s7&#45;&gt;s0 -->
<g id="edge60" class="edge">
<title>s7&#45;&gt;s0</title>
<path fill="none" stroke="black" d="M397.54,-1692C375.99,-1692 342.52,-1692 313.5,-1692 118.57,-1692 118.57,-1692 118.57,-1692 88.84,-1692 78.72,-1678.96 64.22,-1653 38.25,-1606.53 27.59,-1236.21 24.86,-1119.86"/>
<polygon fill="black" stroke="black" points="28.36,-1119.91 24.63,-1110 21.36,-1120.07 28.36,-1119.91"/>
<text text-anchor="middle" x="216.04" y="-1695.2" font-family="Times,serif" font-size="14.00">f</text>
</g>
<!-- s7&#45;&gt;s0 -->
<g id="edge61" class="edge">
<title>s7&#45;&gt;s0</title>
<path fill="none" stroke="black" d="M402.81,-1677.24C382.78,-1661.55 347.98,-1639 313.5,-1639 118.57,-1639 118.57,-1639 118.57,-1639 65.64,-1639 34.56,-1240.85 26.33,-1119.62"/>
<polygon fill="black" stroke="black" points="29.84,-1119.71 25.68,-1109.96 22.86,-1120.17 29.84,-1119.71"/>
<text text-anchor="middle" x="216.04" y="-1642.2" font-family="Times,serif" font-size="14.00">o</text>
</g>
<!-- s7&#45;&gt;s0 -->
<g id="edge64" class="edge">
<title>s7&#45;&gt;s0</title>
<path fill="none" stroke="black" d="M418.07,-1714.97C414.69,-1742.29 405.38,-1787.85 379.86,-1817 333.61,-1869.83 102.09,-1890.12 64.22,-1831 25.55,-1770.64 23.75,-1258.28 23.98,-1119.53"/>
<polygon fill="black" stroke="black" points="27.48,-1119.89 24.01,-1109.88 20.48,-1119.88 27.48,-1119.89"/>
<text text-anchor="middle" x="216.04" y="-1868.6" font-family="Times,serif" font-size="14.00">◉</text>
</g>
<!-- s7&#45;&gt;s1 -->
<g id="edge62" class="edge">
<title>s7&#45;&gt;s1</title>
<path fill="none" stroke="black" d="M412.1,-1670.19C405.64,-1655.32 395.07,-1636.35 379.86,-1625 299.26,-1564.89 231.12,-1640.75 160.68,-1569 142.1,-1550.07 130.18,-1477.61 124.5,-1433.63"/>
<polygon fill="black" stroke="black" points="127.99,-1433.31 123.28,-1423.82 121.04,-1434.17 127.99,-1433.31"/>
<text text-anchor="middle" x="264.27" y="-1605.1" font-family="Times,serif" font-size="14.00">{</text>
</g>
<!-- s7&#45;&gt;s2 -->
<g id="edge63" class="edge">
<title>s7&#45;&gt;s2</title>
<path fill="none" stroke="black" d="M438.48,-1676.33C475.98,-1640.73 567.79,-1553.6 612.13,-1511.51"/>
<polygon fill="black" stroke="black" points="614.39,-1514.19 619.24,-1504.76 609.57,-1509.11 614.39,-1514.19"/>
<text text-anchor="middle" x="529.43" y="-1613.48" font-family="Times,serif" font-size="14.00">EOL</text>
</g>
<!-- s8&#45;&gt;s0 -->
<g id="edge67" class="edge">
<title>s8&#45;&gt;s0</title>
<path fill="none" stroke="black" d="M397.46,-987.38C356.36,-986.7 266.62,-987.32 192.93,-1002.5 178.03,-1005.57 174.93,-1008.66 160.68,-1014 117.54,-1030.19 103.93,-1028.63 64.22,-1052 59.1,-1055.01 53.96,-1058.65 49.16,-1062.4"/>
<polygon fill="black" stroke="black" points="47.07,-1059.59 41.58,-1068.65 51.52,-1064.99 47.07,-1059.59"/>
<text text-anchor="middle" x="216.04" y="-1005.7" font-family="Times,serif" font-size="14.00">e</text>
</g>
<!-- s8&#45;&gt;s0 -->
<g id="edge68" class="edge">
<title>s8&#45;&gt;s0</title>
<path fill="none" stroke="black" d="M398.08,-982.89C357.26,-974.2 266.92,-958.92 192.93,-974.5 130.12,-987.72 112,-997.14 64.22,-1040 57.79,-1045.77 51.34,-1052.49 45.55,-1058.95"/>
<polygon fill="black" stroke="black" points="43.04,-1056.51 39.12,-1066.35 48.32,-1061.1 43.04,-1056.51"/>
<text text-anchor="middle" x="216.04" y="-977.7" font-family="Times,serif" font-size="14.00">f</text>
</g>
<!-- s8&#45;&gt;s0 -->
<g id="edge69" class="edge">
<title>s8&#45;&gt;s0</title>
<path fill="none" stroke="black" d="M399.5,-978.2C393.3,-975.54 386.4,-972.88 379.86,-971 299.43,-947.9 275.31,-933.82 192.93,-948.5 147.95,-956.51 133.58,-957.37 96.47,-984 77.91,-997.31 77.67,-1005.55 64.22,-1024 56.74,-1034.24 48.99,-1045.8 42.31,-1056.07"/>
<polygon fill="black" stroke="black" points="39.57,-1053.87 37.1,-1064.17 45.45,-1057.65 39.57,-1053.87"/>
<text text-anchor="middle" x="216.04" y="-951.7" font-family="Times,serif" font-size="14.00">o</text>
</g>
<!-- s8&#45;&gt;s0 -->
<g id="edge72" class="edge">
<title>s8&#45;&gt;s0</title>
<path fill="none" stroke="black" d="M398.84,-995.23C392.75,-997.21 386.07,-999.28 379.86,-1001 297.69,-1023.72 275.89,-1024.38 192.93,-1044 145.67,-1055.17 91.07,-1068.51 57.07,-1076.87"/>
<polygon fill="black" stroke="black" points="56.28,-1073.46 47.41,-1079.25 57.96,-1080.26 56.28,-1073.46"/>
<text text-anchor="middle" x="216.04" y="-1045.7" font-family="Times,serif" font-size="14.00">◉</text>
</g>
<!-- s8&#45;&gt;s2 -->
<g id="edge71" class="edge">
<title>s8&#45;&gt;s2</title>
<path fill="none" stroke="black" d="M431.07,-1009.17C464.81,-1087.67 582.93,-1362.46 623.27,-1456.31"/>
<polygon fill="black" stroke="black" points="620.03,-1457.63 627.2,-1465.44 626.47,-1454.87 620.03,-1457.63"/>
<text text-anchor="middle" x="529.43" y="-1290.9" font-family="Times,serif" font-size="14.00">EOL</text>
</g>
<!-- s8&#45;&gt;s3 -->
<g id="edge65" class="edge">
<title>s8&#45;&gt;s3</title>
<path fill="none" stroke="black" d="M430.32,-966.34C448.98,-917.97 494.12,-800.96 516.05,-744.09"/>
<polygon fill="black" stroke="black" points="519.24,-745.56 519.57,-734.97 512.71,-743.04 519.24,-745.56"/>
<text text-anchor="middle" x="475.2" y="-886.04" font-family="Times,serif" font-size="14.00">%</text>
</g>
<!-- s8&#45;&gt;s4 -->
<g id="edge66" class="edge">
<title>s8&#45;&gt;s4</title>
<path fill="none" stroke="black" d="M417.48,-1010.92C413.53,-1038.29 403.64,-1084.35 379.86,-1116 370.56,-1128.38 356.68,-1138.35 344.03,-1145.65"/>
<polygon fill="black" stroke="black" points="342.72,-1142.38 335.58,-1150.21 346.04,-1148.54 342.72,-1142.38"/>
<text text-anchor="middle" x="366.74" y="-1142.39" font-family="Times,serif" font-size="14.00">\</text>
</g>
<!-- s8&#45;&gt;s5 -->
<g id="edge70" class="edge">
<title>s8&#45;&gt;s5</title>
<path fill="none" stroke="black" d="M416.5,-964.89C411.75,-939.23 401.22,-897.55 379.86,-868 344.96,-819.72 284.23,-783.37 247.62,-764.5"/>
<polygon fill="black" stroke="black" points="249.39,-761.47 238.89,-760.11 246.25,-767.73 249.39,-761.47"/>
<text text-anchor="middle" x="312.5" y="-823.17" font-family="Times,serif" font-size="14.00">{</text>
</g>
<!-- s9&#45;&gt;s0 -->
<g id="edge73" class="edge">
<title>s9&#45;&gt;s0</title>
<path fill="none" stroke="black" d="M831.4,-401C809.85,-401 776.38,-401 747.36,-401 474.2,-401 474.2,-401 474.2,-401 381.27,-401 358.2,-393 265.27,-393 118.57,-393 118.57,-393 118.57,-393 80.91,-393 78.19,-423.03 64.22,-458 42.21,-513.08 28.64,-927.18 25.06,-1050.47"/>
<polygon fill="black" stroke="black" points="21.57,-1050.19 24.78,-1060.28 28.57,-1050.39 21.57,-1050.19"/>
<text text-anchor="middle" x="420.97" y="-403.87" font-family="Times,serif" font-size="14.00">%</text>
</g>
<!-- s9&#45;&gt;s0 -->
<g id="edge74" class="edge">
<title>s9&#45;&gt;s0</title>
<path fill="none" stroke="black" d="M836.67,-386.24C816.64,-370.55 781.84,-348 747.36,-348 118.57,-348 118.57,-348 118.57,-348 79.18,-348 78.1,-381.14 64.22,-418 41.89,-477.29 28.46,-921.09 25,-1049.99"/>
<polygon fill="black" stroke="black" points="21.5,-1049.86 24.74,-1059.95 28.5,-1050.04 21.5,-1049.86"/>
<text text-anchor="middle" x="420.97" y="-351.2" font-family="Times,serif" font-size="14.00">\</text>
</g>
<!-- s9&#45;&gt;s0 -->
<g id="edge75" class="edge">
<title>s9&#45;&gt;s0</title>
<path fill="none" stroke="black" d="M844.44,-380.06C828.99,-349.17 795.09,-295 747.36,-295 118.57,-295 118.57,-295 118.57,-295 76.32,-295 78.01,-333.06 64.22,-373 42.01,-437.33 28.36,-916.34 24.95,-1050.29"/>
<polygon fill="black" stroke="black" points="21.46,-1049.86 24.71,-1059.94 28.46,-1050.03 21.46,-1049.86"/>
<text text-anchor="middle" x="420.97" y="-298.2" font-family="Times,serif" font-size="14.00">e</text>
</g>
<!-- s9&#45;&gt;s0 -->
<g id="edge77" class="edge">
<title>s9&#45;&gt;s0</title>
<path fill="none" stroke="black" d="M849.61,-378.22C840.01,-334.25 812.14,-242 747.36,-242 118.57,-242 118.57,-242 118.57,-242 75.59,-242 77.93,-281.26 64.22,-322 40.8,-391.55 27.9,-911.03 24.83,-1050.58"/>
<polygon fill="black" stroke="black" points="21.34,-1050.2 24.62,-1060.28 28.33,-1050.36 21.34,-1050.2"/>
<text text-anchor="middle" x="420.97" y="-245.2" font-family="Times,serif" font-size="14.00">o</text>
</g>
<!-- s9&#45;&gt;s0 -->
<g id="edge80" class="edge">
<title>s9&#45;&gt;s0</title>
<path fill="none" stroke="black" d="M853.85,-424.4C853.99,-614.24 853.45,-1899.35 813.72,-2066 787.69,-2175.16 782.48,-2212.58 705.26,-2294 600.62,-2404.33 519.79,-2350 367.74,-2350 118.57,-2350 118.57,-2350 118.57,-2350 76.68,-2350 77.56,-2312.71 64.22,-2273 26.7,-2161.38 24.2,-1304.42 24.1,-1119.92"/>
<polygon fill="black" stroke="black" points="27.6,-1120.04 24.09,-1110.04 20.6,-1120.04 27.6,-1120.04"/>
<text text-anchor="middle" x="420.97" y="-2355.66" font-family="Times,serif" font-size="14.00">◉</text>
</g>
<!-- s9&#45;&gt;s1 -->
<g id="edge78" class="edge">
<title>s9&#45;&gt;s1</title>
<path fill="none" stroke="black" d="M853.55,-424.35C851.04,-622.09 830.51,-2009 747.36,-2009 582.67,-2009 582.67,-2009 582.67,-2009 397.04,-2009 553.97,-1764.6 444.08,-1615 360.43,-1501.14 265.37,-1565.87 160.68,-1471 148.6,-1460.05 139.32,-1444.58 132.75,-1430.79"/>
<polygon fill="black" stroke="black" points="136.13,-1429.77 128.87,-1422.05 129.73,-1432.61 136.13,-1429.77"/>
<text text-anchor="middle" x="475.2" y="-1939.97" font-family="Times,serif" font-size="14.00">{</text>
</g>
<!-- s9&#45;&gt;s2 -->
<g id="edge79" class="edge">
<title>s9&#45;&gt;s2</title>
<path fill="none" stroke="black" d="M832.73,-408.85C788.27,-425.59 688.27,-464.4 679.01,-478 651,-519.12 641.14,-1280.16 639.25,-1453.2"/>
<polygon fill="black" stroke="black" points="635.75,-1453.07 639.14,-1463.11 642.75,-1453.15 635.75,-1453.07"/>
<text text-anchor="middle" x="746.36" y="-455.71" font-family="Times,serif" font-size="14.00">EOL</text>
</g>
<!-- s10 -->
<g id="node11" class="node">
<title>s10</title>
<ellipse fill="none" stroke="black" cx="946.15" cy="-158" rx="23.71" ry="23.71"/>
<ellipse fill="none" stroke="black" cx="946.15" cy="-158" rx="27.71" ry="27.71"/>
<text text-anchor="middle" x="946.15" y="-152.95" font-family="Times,serif" font-size="14.00">s10</text>
</g>
<!-- s9&#45;&gt;s10 -->
<g id="edge76" class="edge">
<title>s9&#45;&gt;s10</title>
<path fill="none" stroke="black" d="M863.75,-379.44C879.07,-337.77 912.87,-245.81 931.74,-194.47"/>
<polygon fill="black" stroke="black" points="934.96,-195.87 935.12,-185.28 928.39,-193.46 934.96,-195.87"/>
<text text-anchor="middle" x="898.19" y="-289.99" font-family="Times,serif" font-size="14.00">f</text>
</g>
<!-- s10&#45;&gt;s0 -->
<g id="edge81" class="edge">
<title>s10&#45;&gt;s0</title>
<path fill="none" stroke="black" d="M923.23,-174.04C905.85,-185.17 880.46,-198 855.83,-198 528.43,-198 528.43,-198 528.43,-198 457.01,-198 439.16,-196 367.74,-196 118.57,-196 118.57,-196 118.57,-196 78.48,-196 77.88,-230.31 64.22,-268 37.29,-342.26 26.87,-904.58 24.6,-1050.5"/>
<polygon fill="black" stroke="black" points="21.11,-1050.23 24.46,-1060.28 28.11,-1050.34 21.11,-1050.23"/>
<text text-anchor="middle" x="475.2" y="-200.93" font-family="Times,serif" font-size="14.00">%</text>
</g>
<!-- s10&#45;&gt;s0 -->
<g id="edge82" class="edge">
<title>s10&#45;&gt;s0</title>
<path fill="none" stroke="black" d="M918.18,-158C900.46,-158 876.76,-158 855.83,-158 118.57,-158 118.57,-158 118.57,-158 81.59,-158 77.9,-186.64 64.22,-221 33.17,-298.93 25.76,-899.07 24.38,-1050.42"/>
<polygon fill="black" stroke="black" points="20.88,-1050.17 24.3,-1060.2 27.88,-1050.23 20.88,-1050.17"/>
<text text-anchor="middle" x="475.2" y="-161.2" font-family="Times,serif" font-size="14.00">\</text>
</g>
<!-- s10&#45;&gt;s0 -->
<g id="edge83" class="edge">
<title>s10&#45;&gt;s0</title>
<path fill="none" stroke="black" d="M923.23,-141.96C905.85,-130.83 880.46,-118 855.83,-118 118.57,-118 118.57,-118 118.57,-118 81.25,-118 77.86,-147.26 64.22,-182 32.07,-263.85 25.47,-894.71 24.32,-1050.37"/>
<polygon fill="black" stroke="black" points="20.83,-1050.01 24.25,-1060.03 27.82,-1050.06 20.83,-1050.01"/>
<text text-anchor="middle" x="475.2" y="-121.2" font-family="Times,serif" font-size="14.00">e</text>
</g>
<!-- s10&#45;&gt;s0 -->
<g id="edge84" class="edge">
<title>s10&#45;&gt;s0</title>
<path fill="none" stroke="black" d="M931.78,-134C916.69,-110.43 889.76,-78 855.83,-78 118.57,-78 118.57,-78 118.57,-78 81.25,-78 77.83,-107.25 64.22,-142 30.62,-227.78 25.1,-890.59 24.25,-1050.41"/>
<polygon fill="black" stroke="black" points="20.75,-1050.33 24.2,-1060.34 27.75,-1050.36 20.75,-1050.33"/>
<text text-anchor="middle" x="475.2" y="-81.2" font-family="Times,serif" font-size="14.00">f</text>
</g>
<!-- s10&#45;&gt;s0 -->
<g id="edge85" class="edge">
<title>s10&#45;&gt;s0</title>
<path fill="none" stroke="black" d="M938.11,-131.07C927.04,-95.69 901.93,-38 855.83,-38 118.57,-38 118.57,-38 118.57,-38 81.25,-38 77.8,-67.24 64.22,-102 29.16,-191.73 24.74,-886.74 24.19,-1050.51"/>
<polygon fill="black" stroke="black" points="20.69,-1050.27 24.16,-1060.28 27.69,-1050.29 20.69,-1050.27"/>
<text text-anchor="middle" x="475.2" y="-41.2" font-family="Times,serif" font-size="14.00">o</text>
</g>
<!-- s10&#45;&gt;s0 -->
<g id="edge88" class="edge">
<title>s10&#45;&gt;s0</title>
<path fill="none" stroke="black" d="M942.08,-130.12C935.36,-84.76 914.91,0 855.83,0 118.57,0 118.57,0 118.57,0 81.93,0 77.79,-27.96 64.22,-62 26.98,-155.36 24.23,-882.46 24.1,-1050.45"/>
<polygon fill="black" stroke="black" points="20.6,-1050.26 24.09,-1060.26 27.6,-1050.26 20.6,-1050.26"/>
<text text-anchor="middle" x="475.2" y="-1.7" font-family="Times,serif" font-size="14.00">◉</text>
</g>
<!-- s10&#45;&gt;s1 -->
<g id="edge86" class="edge">
<title>s10&#45;&gt;s1</title>
<path fill="none" stroke="black" d="M944.73,-185.81C940.85,-434.43 910.46,-2266 855.83,-2266 691.13,-2266 691.13,-2266 691.13,-2266 520.18,-2266 515.59,-2119.36 462.08,-1957 441.38,-1894.2 473.79,-1719.07 444.08,-1660 427.32,-1626.69 411.39,-1625.9 379.86,-1606 302.68,-1557.29 268.87,-1571.63 192.93,-1521 176.64,-1510.14 172,-1506.97 160.68,-1491 147.92,-1472.99 137.96,-1450.27 131.17,-1431.91"/>
<polygon fill="black" stroke="black" points="134.49,-1430.81 127.85,-1422.56 127.89,-1433.15 134.49,-1430.81"/>
<text text-anchor="middle" x="529.43" y="-2207.19" font-family="Times,serif" font-size="14.00">{</text>
</g>
<!-- s10&#45;&gt;s2 -->
<g id="edge87" class="edge">
<title>s10&#45;&gt;s2</title>
<path fill="none" stroke="black" d="M938.93,-185.02C899.96,-354.26 689.73,-1267.24 646.62,-1454.44"/>
<polygon fill="black" stroke="black" points="643.26,-1453.47 644.42,-1464 650.08,-1455.04 643.26,-1453.47"/>
<text text-anchor="middle" x="800.6" y="-841.54" font-family="Times,serif" font-size="14.00">EOL</text>
</g>
</g>
</svg>
