<?xml version="1.0" encoding="UTF-8" standalone="no"?>
<!DOCTYPE svg PUBLIC "-//W3C//DTD SVG 1.1//EN"
 "http://www.w3.org/Graphics/SVG/1.1/DTD/svg11.dtd">
<!-- Generated by graphviz version 12.2.1 (20241206.2353)
 -->
<!-- Title: finite_state_machine Pages: 1 -->
<svg width="413pt" height="576pt"
 viewBox="0.00 0.00 412.74 576.00" xmlns="http://www.w3.org/2000/svg" xmlns:xlink="http://www.w3.org/1999/xlink">
<g id="graph0" class="graph" transform="scale(0.619022 0.619022) rotate(0) translate(4 926.5)">
<title>finite_state_machine</title>
<polygon fill="white" stroke="none" points="-4,4 -4,-926.5 662.76,-926.5 662.76,4 -4,4"/>
<!-- s0 -->
<g id="node1" class="node">
<title>s0</title>
<ellipse fill="none" stroke="black" cx="23.11" cy="-468" rx="19.11" ry="19.11"/>
<ellipse fill="none" stroke="black" cx="23.11" cy="-468" rx="23.11" ry="23.11"/>
<text text-anchor="middle" x="23.11" y="-462.95" font-family="Times,serif" font-size="14.00">s0</text>
</g>
<!-- s0&#45;&gt;s0 -->
<g id="edge1" class="edge">
<title>s0&#45;&gt;s0</title>
<path fill="none" stroke="black" d="M20.12,-491.24C19.91,-500.91 20.91,-509.11 23.11,-509.11 24.34,-509.11 25.2,-506.51 25.68,-502.52"/>
<polygon fill="black" stroke="black" points="29.16,-502.88 26.04,-492.76 22.17,-502.62 29.16,-502.88"/>
<text text-anchor="middle" x="23.11" y="-512.31" font-family="Times,serif" font-size="14.00">%</text>
</g>
<!-- s0&#45;&gt;s0 -->
<g id="edge2" class="edge">
<title>s0&#45;&gt;s0</title>
<path fill="none" stroke="black" d="M17.89,-490.75C15.87,-508.69 17.61,-527.11 23.11,-527.11 27.44,-527.11 29.44,-515.64 29.1,-501.99"/>
<polygon fill="black" stroke="black" points="32.61,-501.99 28.43,-492.26 25.62,-502.47 32.61,-501.99"/>
<text text-anchor="middle" x="23.11" y="-530.31" font-family="Times,serif" font-size="14.00">\</text>
</g>
<!-- s0&#45;&gt;s0 -->
<g id="edge4" class="edge">
<title>s0&#45;&gt;s0</title>
<path fill="none" stroke="black" d="M16.4,-490.5C11.78,-515.89 14.02,-545.11 23.11,-545.11 30.88,-545.11 33.65,-523.73 31.39,-501.65"/>
<polygon fill="black" stroke="black" points="34.89,-501.41 30.03,-491.99 27.96,-502.39 34.89,-501.41"/>
<text text-anchor="middle" x="23.11" y="-546.81" font-family="Times,serif" font-size="14.00">◉</text>
</g>
<!-- s1 -->
<g id="node2" class="node">
<title>s1</title>
<ellipse fill="none" stroke="black" cx="119.57" cy="-468" rx="19.11" ry="19.11"/>
<ellipse fill="none" stroke="black" cx="119.57" cy="-468" rx="23.11" ry="23.11"/>
<text text-anchor="middle" x="119.57" y="-462.95" font-family="Times,serif" font-size="14.00">s1</text>
</g>
<!-- s0&#45;&gt;s1 -->
<g id="edge3" class="edge">
<title>s0&#45;&gt;s1</title>
<path fill="none" stroke="black" d="M43.18,-456.08C53.47,-451.04 66.49,-446.87 78.47,-449.5 81.88,-450.25 85.34,-451.32 88.73,-452.57"/>
<polygon fill="black" stroke="black" points="87.21,-455.72 97.78,-456.42 89.95,-449.28 87.21,-455.72"/>
<text text-anchor="middle" x="71.34" y="-452.7" font-family="Times,serif" font-size="14.00">{</text>
</g>
<!-- s2 -->
<g id="node3" class="node">
<title>s2</title>
<ellipse fill="none" stroke="black" cx="635.65" cy="-587" rx="19.11" ry="19.11"/>
<ellipse fill="none" stroke="black" cx="635.65" cy="-587" rx="23.11" ry="23.11"/>
<text text-anchor="middle" x="635.65" y="-581.95" font-family="Times,serif" font-size="14.00">s2</text>
</g>
<!-- s0&#45;&gt;s2 -->
<g id="edge5" class="edge">
<title>s0&#45;&gt;s2</title>
<path fill="none" stroke="black" d="M23.98,-491.49C23.95,-567.02 26.92,-802.51 64.22,-867 79.1,-892.74 88.84,-906 118.57,-906 118.57,-906 118.57,-906 528.93,-906 562.85,-906 575.71,-895.22 594.54,-867 620.9,-827.49 630.33,-687.79 633.36,-621.89"/>
<polygon fill="black" stroke="black" points="636.85,-622.14 633.78,-612 629.86,-621.84 636.85,-622.14"/>
<text text-anchor="middle" x="312.5" y="-909.2" font-family="Times,serif" font-size="14.00">EOF</text>
</g>
<!-- s1&#45;&gt;s0 -->
<g id="edge9" class="edge">
<title>s1&#45;&gt;s0</title>
<path fill="none" stroke="black" d="M96.02,-468C84.55,-468 70.37,-468 57.65,-468"/>
<polygon fill="black" stroke="black" points="58.01,-464.5 48.01,-468 58.01,-471.5 58.01,-464.5"/>
<text text-anchor="middle" x="71.34" y="-469.7" font-family="Times,serif" font-size="14.00">◉</text>
</g>
<!-- s1&#45;&gt;s2 -->
<g id="edge10" class="edge">
<title>s1&#45;&gt;s2</title>
<path fill="none" stroke="black" d="M135.26,-484.91C158.25,-509.9 205.48,-555.5 257.15,-572 320.59,-592.26 520.93,-589.82 601.05,-587.94"/>
<polygon fill="black" stroke="black" points="600.98,-591.44 610.89,-587.7 600.81,-584.44 600.98,-591.44"/>
<text text-anchor="middle" x="366.36" y="-589.93" font-family="Times,serif" font-size="14.00">EOF</text>
</g>
<!-- s3 -->
<g id="node4" class="node">
<title>s3</title>
<ellipse fill="none" stroke="black" cx="527.93" cy="-521" rx="19.11" ry="19.11"/>
<ellipse fill="none" stroke="black" cx="527.93" cy="-521" rx="23.11" ry="23.11"/>
<text text-anchor="middle" x="527.93" y="-515.95" font-family="Times,serif" font-size="14.00">s3</text>
</g>
<!-- s1&#45;&gt;s3 -->
<g id="edge6" class="edge">
<title>s1&#45;&gt;s3</title>
<path fill="none" stroke="black" d="M139.22,-480.44C157.67,-491.53 187.11,-506 215.04,-506 215.04,-506 215.04,-506 421.22,-506 445.82,-506 473.32,-510.03 494.1,-513.91"/>
<polygon fill="black" stroke="black" points="493.22,-517.31 503.71,-515.8 494.57,-510.44 493.22,-517.31"/>
<text text-anchor="middle" x="312.5" y="-509.2" font-family="Times,serif" font-size="14.00">%</text>
</g>
<!-- s4 -->
<g id="node5" class="node">
<title>s4</title>
<ellipse fill="none" stroke="black" cx="312.5" cy="-221" rx="19.11" ry="19.11"/>
<ellipse fill="none" stroke="black" cx="312.5" cy="-221" rx="23.11" ry="23.11"/>
<text text-anchor="middle" x="312.5" y="-215.95" font-family="Times,serif" font-size="14.00">s4</text>
</g>
<!-- s1&#45;&gt;s4 -->
<g id="edge7" class="edge">
<title>s1&#45;&gt;s4</title>
<path fill="none" stroke="black" d="M135.24,-450.67C137.86,-447.23 140.46,-443.58 142.68,-440 170.24,-395.51 161.68,-375.48 192.93,-333.5 209.42,-311.36 219.02,-310.89 239.15,-292 255.51,-276.64 273.53,-258.96 287.49,-245.09"/>
<polygon fill="black" stroke="black" points="289.92,-247.6 294.53,-238.07 284.98,-242.65 289.92,-247.6"/>
<text text-anchor="middle" x="216.04" y="-336.7" font-family="Times,serif" font-size="14.00">\</text>
</g>
<!-- s5 -->
<g id="node6" class="node">
<title>s5</title>
<ellipse fill="none" stroke="black" cx="216.04" cy="-382" rx="19.11" ry="19.11"/>
<ellipse fill="none" stroke="black" cx="216.04" cy="-382" rx="23.11" ry="23.11"/>
<text text-anchor="middle" x="216.04" y="-376.95" font-family="Times,serif" font-size="14.00">s5</text>
</g>
<!-- s1&#45;&gt;s5 -->
<g id="edge8" class="edge">
<title>s1&#45;&gt;s5</title>
<path fill="none" stroke="black" d="M137.46,-452.62C152.1,-439.29 173.49,-419.82 190.1,-404.7"/>
<polygon fill="black" stroke="black" points="192.14,-407.58 197.18,-398.26 187.43,-402.4 192.14,-407.58"/>
<text text-anchor="middle" x="167.81" y="-433.35" font-family="Times,serif" font-size="14.00">{</text>
</g>
<!-- s2&#45;&gt;s0 -->
<g id="edge11" class="edge">
<title>s2&#45;&gt;s0</title>
<path fill="none" stroke="black" d="M633,-610.11C628.97,-661.05 617.29,-781.08 594.54,-814 575.26,-841.91 562.85,-853 528.93,-853 118.57,-853 118.57,-853 118.57,-853 88.84,-853 79.3,-839.63 64.22,-814 33.5,-761.81 26.3,-579.5 24.62,-502.62"/>
<polygon fill="black" stroke="black" points="28.12,-502.66 24.42,-492.73 21.12,-502.8 28.12,-502.66"/>
<text text-anchor="middle" x="312.5" y="-856.2" font-family="Times,serif" font-size="14.00">%</text>
</g>
<!-- s2&#45;&gt;s0 -->
<g id="edge12" class="edge">
<title>s2&#45;&gt;s0</title>
<path fill="none" stroke="black" d="M635.09,-610.56C634.59,-646.84 628.82,-717.02 594.54,-763 574.53,-789.84 562.41,-800 528.93,-800 118.57,-800 118.57,-800 118.57,-800 89.35,-800 79.59,-787.85 64.22,-763 37.66,-720.09 28.28,-570.99 25.32,-502.68"/>
<polygon fill="black" stroke="black" points="28.83,-502.65 24.92,-492.8 21.83,-502.93 28.83,-502.65"/>
<text text-anchor="middle" x="312.5" y="-803.2" font-family="Times,serif" font-size="14.00">\</text>
</g>
<!-- s2&#45;&gt;s0 -->
<g id="edge14" class="edge">
<title>s2&#45;&gt;s0</title>
<path fill="none" stroke="black" d="M630.73,-609.87C621.62,-654.52 594.59,-749 528.93,-749 118.57,-749 118.57,-749 118.57,-749 86.05,-749 79.93,-728.48 64.22,-700 29.34,-636.79 23.49,-550.36 23.22,-502.85"/>
<polygon fill="black" stroke="black" points="26.72,-502.89 23.26,-492.88 19.72,-502.87 26.72,-502.89"/>
<text text-anchor="middle" x="312.5" y="-750.7" font-family="Times,serif" font-size="14.00">◉</text>
</g>
<!-- s2&#45;&gt;s1 -->
<g id="edge13" class="edge">
<title>s2&#45;&gt;s1</title>
<path fill="none" stroke="black" d="M615.59,-599C595.03,-610.78 560.92,-627 528.93,-627 215.04,-627 215.04,-627 215.04,-627 157.47,-627 134.2,-549 125.43,-502.26"/>
<polygon fill="black" stroke="black" points="128.91,-501.87 123.75,-492.61 122.01,-503.06 128.91,-501.87"/>
<text text-anchor="middle" x="366.36" y="-630.2" font-family="Times,serif" font-size="14.00">{</text>
</g>
<!-- s2&#45;&gt;s2 -->
<g id="edge15" class="edge">
<title>s2&#45;&gt;s2</title>
<path fill="none" stroke="black" d="M625.85,-608.15C624.49,-618.7 627.76,-628.11 635.65,-628.11 640.46,-628.11 643.55,-624.61 644.92,-619.5"/>
<polygon fill="black" stroke="black" points="648.41,-619.81 645.38,-609.66 641.42,-619.49 648.41,-619.81"/>
<text text-anchor="middle" x="635.65" y="-631.31" font-family="Times,serif" font-size="14.00">EOF</text>
</g>
<!-- s3&#45;&gt;s0 -->
<g id="edge16" class="edge">
<title>s3&#45;&gt;s0</title>
<path fill="none" stroke="black" d="M504.98,-525.23C460.12,-533.5 354.66,-551 265.27,-551 118.57,-551 118.57,-551 118.57,-551 85.19,-551 57.98,-521.38 41.48,-497.53"/>
<polygon fill="black" stroke="black" points="44.53,-495.79 36.11,-489.36 38.68,-499.64 44.53,-495.79"/>
<text text-anchor="middle" x="264.27" y="-554.2" font-family="Times,serif" font-size="14.00">%</text>
</g>
<!-- s3&#45;&gt;s0 -->
<g id="edge17" class="edge">
<title>s3&#45;&gt;s0</title>
<path fill="none" stroke="black" d="M527.45,-544.51C526.92,-578.44 520.96,-641.19 486.83,-679 466.02,-702.05 452.27,-703 421.22,-703 118.57,-703 118.57,-703 118.57,-703 92.16,-703 80.64,-699.68 64.22,-679 42.91,-652.19 31.53,-555.22 26.8,-502.57"/>
<polygon fill="black" stroke="black" points="30.29,-502.3 25.94,-492.64 23.32,-502.91 30.29,-502.3"/>
<text text-anchor="middle" x="264.27" y="-706.2" font-family="Times,serif" font-size="14.00">\</text>
</g>
<!-- s3&#45;&gt;s0 -->
<g id="edge19" class="edge">
<title>s3&#45;&gt;s0</title>
<path fill="none" stroke="black" d="M521.58,-543.5C510.46,-584 480.76,-665 421.22,-665 118.57,-665 118.57,-665 118.57,-665 47.4,-665 29.81,-559.15 25.49,-502.63"/>
<polygon fill="black" stroke="black" points="29,-502.63 24.86,-492.88 22.01,-503.09 29,-502.63"/>
<text text-anchor="middle" x="264.27" y="-666.7" font-family="Times,serif" font-size="14.00">◉</text>
</g>
<!-- s3&#45;&gt;s1 -->
<g id="edge18" class="edge">
<title>s3&#45;&gt;s1</title>
<path fill="none" stroke="black" d="M506.25,-512.34C500.05,-509.85 493.2,-507.22 486.83,-505 467.77,-498.37 462.84,-497.13 443.33,-492 395.84,-479.52 384.4,-472.98 335.61,-467.5 315.2,-465.21 309.93,-467.47 289.4,-467.5 242.46,-467.57 188.2,-467.75 154.13,-467.87"/>
<polygon fill="black" stroke="black" points="154.47,-464.37 144.48,-467.91 154.49,-471.37 154.47,-464.37"/>
<text text-anchor="middle" x="312.5" y="-470.7" font-family="Times,serif" font-size="14.00">{</text>
</g>
<!-- s3&#45;&gt;s2 -->
<g id="edge20" class="edge">
<title>s3&#45;&gt;s2</title>
<path fill="none" stroke="black" d="M549.2,-530.94C562.41,-537.67 579.85,-547.02 594.54,-556.5 599.08,-559.43 603.76,-562.72 608.25,-566.03"/>
<polygon fill="black" stroke="black" points="605.81,-568.57 615.9,-571.81 610.04,-562.99 605.81,-568.57"/>
<text text-anchor="middle" x="581.79" y="-559.7" font-family="Times,serif" font-size="14.00">EOF</text>
</g>
<!-- s4&#45;&gt;s0 -->
<g id="edge22" class="edge">
<title>s4&#45;&gt;s0</title>
<path fill="none" stroke="black" d="M302.4,-199.85C295.74,-187.03 285.4,-171.54 271.4,-163 192.63,-115 125.66,-106.21 64.22,-175 30.67,-212.55 24.98,-364.58 24.16,-433.6"/>
<polygon fill="black" stroke="black" points="20.66,-433.17 24.07,-443.2 27.66,-433.23 20.66,-433.17"/>
<text text-anchor="middle" x="167.81" y="-128.91" font-family="Times,serif" font-size="14.00">\</text>
</g>
<!-- s4&#45;&gt;s0 -->
<g id="edge24" class="edge">
<title>s4&#45;&gt;s0</title>
<path fill="none" stroke="black" d="M290.64,-212.58C242.97,-194.87 125.44,-160.19 64.22,-221 34.89,-250.13 27,-372.46 24.88,-433.31"/>
<polygon fill="black" stroke="black" points="21.39,-433 24.58,-443.11 28.39,-433.22 21.39,-433"/>
<text text-anchor="middle" x="167.81" y="-188.56" font-family="Times,serif" font-size="14.00">◉</text>
</g>
<!-- s4&#45;&gt;s2 -->
<g id="edge25" class="edge">
<title>s4&#45;&gt;s2</title>
<path fill="none" stroke="black" d="M335.33,-216.05C348.21,-213.94 364.76,-212.65 379.11,-216 483.4,-240.37 532.49,-236.7 594.54,-324 620.18,-360.08 629.91,-489.53 633.18,-552.34"/>
<polygon fill="black" stroke="black" points="629.67,-552.28 633.66,-562.1 636.66,-551.94 629.67,-552.28"/>
<text text-anchor="middle" x="474.08" y="-243.58" font-family="Times,serif" font-size="14.00">EOF</text>
</g>
<!-- s6 -->
<g id="node7" class="node">
<title>s6</title>
<ellipse fill="none" stroke="black" cx="420.22" cy="-117" rx="19.11" ry="19.11"/>
<ellipse fill="none" stroke="black" cx="420.22" cy="-117" rx="23.11" ry="23.11"/>
<text text-anchor="middle" x="420.22" y="-111.95" font-family="Times,serif" font-size="14.00">s6</text>
</g>
<!-- s4&#45;&gt;s6 -->
<g id="edge21" class="edge">
<title>s4&#45;&gt;s6</title>
<path fill="none" stroke="black" d="M324.99,-201.09C332.3,-189.38 342.46,-174.73 353.61,-163.5 364.44,-152.58 378.1,-142.45 390.15,-134.45"/>
<polygon fill="black" stroke="black" points="391.99,-137.43 398.52,-129.08 388.21,-131.54 391.99,-137.43"/>
<text text-anchor="middle" x="366.36" y="-166.7" font-family="Times,serif" font-size="14.00">%</text>
</g>
<!-- s7 -->
<g id="node8" class="node">
<title>s7</title>
<ellipse fill="none" stroke="black" cx="420.22" cy="-302" rx="19.11" ry="19.11"/>
<ellipse fill="none" stroke="black" cx="420.22" cy="-302" rx="23.11" ry="23.11"/>
<text text-anchor="middle" x="420.22" y="-296.95" font-family="Times,serif" font-size="14.00">s7</text>
</g>
<!-- s4&#45;&gt;s7 -->
<g id="edge23" class="edge">
<title>s4&#45;&gt;s7</title>
<path fill="none" stroke="black" d="M335.93,-218.63C349.51,-218.32 366.56,-220.05 379.11,-228.5 393.28,-238.04 402.89,-254.3 409.14,-269.11"/>
<polygon fill="black" stroke="black" points="405.74,-270.01 412.58,-278.1 412.28,-267.51 405.74,-270.01"/>
<text text-anchor="middle" x="366.36" y="-231.7" font-family="Times,serif" font-size="14.00">{</text>
</g>
<!-- s5&#45;&gt;s0 -->
<g id="edge29" class="edge">
<title>s5&#45;&gt;s0</title>
<path fill="none" stroke="black" d="M193.4,-387.31C169.13,-393.67 128.9,-405.45 96.47,-421 80.86,-428.48 64.6,-438.78 51.45,-447.84"/>
<polygon fill="black" stroke="black" points="49.47,-444.95 43.31,-453.58 53.5,-450.68 49.47,-444.95"/>
<text text-anchor="middle" x="119.57" y="-422.7" font-family="Times,serif" font-size="14.00">◉</text>
</g>
<!-- s5&#45;&gt;s2 -->
<g id="edge30" class="edge">
<title>s5&#45;&gt;s2</title>
<path fill="none" stroke="black" d="M238.54,-375.09C286.37,-361.03 403.87,-333.95 486.83,-377 559.15,-414.54 603.55,-505.51 623.03,-554.49"/>
<polygon fill="black" stroke="black" points="619.73,-555.64 626.59,-563.71 626.26,-553.12 619.73,-555.64"/>
<text text-anchor="middle" x="420.22" y="-364.17" font-family="Times,serif" font-size="14.00">EOF</text>
</g>
<!-- s5&#45;&gt;s3 -->
<g id="edge26" class="edge">
<title>s5&#45;&gt;s3</title>
<path fill="none" stroke="black" d="M239.42,-384.5C296.88,-391.31 447.78,-411.7 486.83,-442 501.54,-453.42 511.3,-471.7 517.51,-487.81"/>
<polygon fill="black" stroke="black" points="514.15,-488.79 520.76,-497.07 520.75,-486.47 514.15,-488.79"/>
<text text-anchor="middle" x="366.36" y="-408.95" font-family="Times,serif" font-size="14.00">%</text>
</g>
<!-- s5&#45;&gt;s4 -->
<g id="edge27" class="edge">
<title>s5&#45;&gt;s4</title>
<path fill="none" stroke="black" d="M229.22,-362.68C232.59,-357.06 236.14,-350.86 239.15,-345 248.32,-327.11 247.58,-321.18 257.15,-303.5 267.42,-284.51 280.73,-264.25 291.61,-248.56"/>
<polygon fill="black" stroke="black" points="294.27,-250.86 297.15,-240.67 288.54,-246.84 294.27,-250.86"/>
<text text-anchor="middle" x="264.27" y="-306.7" font-family="Times,serif" font-size="14.00">\</text>
</g>
<!-- s5&#45;&gt;s5 -->
<g id="edge28" class="edge">
<title>s5&#45;&gt;s5</title>
<path fill="none" stroke="black" d="M207.21,-403.57C206.13,-413.95 209.07,-423.11 216.04,-423.11 220.29,-423.11 223.04,-419.71 224.29,-414.7"/>
<polygon fill="black" stroke="black" points="227.77,-415.25 224.78,-405.08 220.78,-414.89 227.77,-415.25"/>
<text text-anchor="middle" x="216.04" y="-426.31" font-family="Times,serif" font-size="14.00">{</text>
</g>
<!-- s6&#45;&gt;s0 -->
<g id="edge31" class="edge">
<title>s6&#45;&gt;s0</title>
<path fill="none" stroke="black" d="M397.04,-112.67C375.72,-108.89 342.53,-104 313.5,-104 118.57,-104 118.57,-104 118.57,-104 84.52,-104 78.61,-127.14 64.22,-158 41.65,-206.35 30.09,-363.3 25.94,-433.51"/>
<polygon fill="black" stroke="black" points="22.46,-433.09 25.38,-443.27 29.45,-433.49 22.46,-433.09"/>
<text text-anchor="middle" x="216.04" y="-107.2" font-family="Times,serif" font-size="14.00">%</text>
</g>
<!-- s6&#45;&gt;s0 -->
<g id="edge32" class="edge">
<title>s6&#45;&gt;s0</title>
<path fill="none" stroke="black" d="M404.23,-100C385.24,-80.45 350.5,-51 313.5,-51 118.57,-51 118.57,-51 118.57,-51 40.38,-51 26.91,-333.44 24.59,-433.43"/>
<polygon fill="black" stroke="black" points="21.09,-433.1 24.39,-443.17 28.09,-433.25 21.09,-433.1"/>
<text text-anchor="middle" x="216.04" y="-54.2" font-family="Times,serif" font-size="14.00">\</text>
</g>
<!-- s6&#45;&gt;s0 -->
<g id="edge34" class="edge">
<title>s6&#45;&gt;s0</title>
<path fill="none" stroke="black" d="M411.14,-95.27C396.98,-61.43 364.28,0 313.5,0 118.57,0 118.57,0 118.57,0 30.19,0 23.51,-324.76 23.74,-433.21"/>
<polygon fill="black" stroke="black" points="20.24,-432.97 23.78,-442.96 27.24,-432.94 20.24,-432.97"/>
<text text-anchor="middle" x="216.04" y="-1.7" font-family="Times,serif" font-size="14.00">◉</text>
</g>
<!-- s6&#45;&gt;s1 -->
<g id="edge33" class="edge">
<title>s6&#45;&gt;s1</title>
<path fill="none" stroke="black" d="M397.94,-123.94C384.81,-128.58 367.81,-135.25 353.61,-143 322.79,-159.81 314.67,-164.63 289.4,-189 263.11,-214.34 264.57,-227.79 239.15,-254 220.63,-273.08 209.29,-271.04 192.93,-292 172.35,-318.37 171.58,-328.38 160.68,-360 148.8,-394.45 158.36,-407.1 142.68,-440 142.45,-440.48 142.22,-440.95 141.97,-441.42"/>
<polygon fill="black" stroke="black" points="139.09,-439.43 136.71,-449.75 145.01,-443.17 139.09,-439.43"/>
<text text-anchor="middle" x="264.27" y="-234.96" font-family="Times,serif" font-size="14.00">{</text>
</g>
<!-- s6&#45;&gt;s2 -->
<g id="edge35" class="edge">
<title>s6&#45;&gt;s2</title>
<path fill="none" stroke="black" d="M443.66,-117.86C481.63,-120.63 557.96,-132.2 594.54,-180 616.97,-209.3 629.42,-459.41 633.31,-552.38"/>
<polygon fill="black" stroke="black" points="629.8,-552.31 633.71,-562.16 636.79,-552.02 629.8,-552.31"/>
<text text-anchor="middle" x="527.93" y="-147.73" font-family="Times,serif" font-size="14.00">EOF</text>
</g>
<!-- s7&#45;&gt;s0 -->
<g id="edge39" class="edge">
<title>s7&#45;&gt;s0</title>
<path fill="none" stroke="black" d="M397.38,-296.27C347.99,-283.77 229.13,-256.46 192.93,-273 118.68,-306.93 64.57,-391.42 39.57,-437.26"/>
<polygon fill="black" stroke="black" points="36.58,-435.41 34.97,-445.89 42.76,-438.71 36.58,-435.41"/>
<text text-anchor="middle" x="216.04" y="-274.7" font-family="Times,serif" font-size="14.00">◉</text>
</g>
<!-- s7&#45;&gt;s2 -->
<g id="edge40" class="edge">
<title>s7&#45;&gt;s2</title>
<path fill="none" stroke="black" d="M443.53,-300.6C481.3,-299.59 557.34,-303.71 594.54,-349 619.61,-379.52 629.5,-494.15 632.98,-552.46"/>
<polygon fill="black" stroke="black" points="629.47,-552.37 633.53,-562.16 636.46,-551.98 629.47,-552.37"/>
<text text-anchor="middle" x="527.93" y="-320.34" font-family="Times,serif" font-size="14.00">EOF</text>
</g>
<!-- s7&#45;&gt;s3 -->
<g id="edge36" class="edge">
<title>s7&#45;&gt;s3</title>
<path fill="none" stroke="black" d="M435.7,-319.69C450.25,-338.17 472.51,-368.45 486.83,-397.5 501.17,-426.61 512.07,-462.03 518.85,-487.46"/>
<polygon fill="black" stroke="black" points="515.41,-488.12 521.3,-496.92 522.18,-486.36 515.41,-488.12"/>
<text text-anchor="middle" x="474.08" y="-400.7" font-family="Times,serif" font-size="14.00">%</text>
</g>
<!-- s7&#45;&gt;s4 -->
<g id="edge37" class="edge">
<title>s7&#45;&gt;s4</title>
<path fill="none" stroke="black" d="M402.26,-287.39C395.19,-281.42 386.84,-274.52 379.11,-268.5 366.97,-259.05 353.23,-249.01 341.47,-240.6"/>
<polygon fill="black" stroke="black" points="343.55,-237.79 333.37,-234.85 339.5,-243.49 343.55,-237.79"/>
<text text-anchor="middle" x="366.36" y="-271.7" font-family="Times,serif" font-size="14.00">\</text>
</g>
<!-- s7&#45;&gt;s5 -->
<g id="edge38" class="edge">
<title>s7&#45;&gt;s5</title>
<path fill="none" stroke="black" d="M397.19,-306.78C371.01,-312.78 326.23,-324.06 289.4,-338.5 274.4,-344.37 271.01,-346.82 257.15,-355 253.08,-357.4 248.86,-360.05 244.76,-362.72"/>
<polygon fill="black" stroke="black" points="243.14,-359.59 236.77,-368.05 247.03,-365.41 243.14,-359.59"/>
<text text-anchor="middle" x="312.5" y="-341.7" font-family="Times,serif" font-size="14.00">{</text>
</g>
</g>
</svg>
