<?xml version="1.0" encoding="UTF-8" standalone="no"?>
<!DOCTYPE svg PUBLIC "-//W3C//DTD SVG 1.1//EN"
 "http://www.w3.org/Graphics/SVG/1.1/DTD/svg11.dtd">
<!-- Generated by graphviz version 12.2.1 (20241206.2353)
 -->
<!-- Title: finite_state_machine Pages: 1 -->
<svg width="367pt" height="576pt"
 viewBox="0.00 0.00 367.47 576.00" xmlns="http://www.w3.org/2000/svg" xmlns:xlink="http://www.w3.org/1999/xlink">
<g id="graph0" class="graph" transform="scale(0.594121 0.594121) rotate(0) translate(4 965.5)">
<title>finite_state_machine</title>
<polygon fill="white" stroke="none" points="-4,4 -4,-965.5 614.51,-965.5 614.51,4 -4,4"/>
<!-- s1 -->
<g id="node1" class="node">
<title>s1</title>
<ellipse fill="none" stroke="black" cx="23.11" cy="-454" rx="19.11" ry="19.11"/>
<ellipse fill="none" stroke="black" cx="23.11" cy="-454" rx="23.11" ry="23.11"/>
<text text-anchor="middle" x="23.11" y="-448.95" font-family="Times,serif" font-size="14.00">s1</text>
</g>
<!-- s1&#45;&gt;s1 -->
<g id="edge8" class="edge">
<title>s1&#45;&gt;s1</title>
<path fill="none" stroke="black" d="M15.21,-475.99C14.35,-486.19 16.98,-495.11 23.11,-495.11 26.75,-495.11 29.15,-491.97 30.33,-487.28"/>
<polygon fill="black" stroke="black" points="33.81,-487.7 30.92,-477.5 26.82,-487.27 33.81,-487.7"/>
<text text-anchor="middle" x="23.11" y="-498.31" font-family="Times,serif" font-size="14.00">&#39;</text>
</g>
<!-- s2 -->
<g id="node2" class="node">
<title>s2</title>
<ellipse fill="none" stroke="black" cx="109.07" cy="-537" rx="19.11" ry="19.11"/>
<ellipse fill="none" stroke="black" cx="109.07" cy="-537" rx="23.11" ry="23.11"/>
<text text-anchor="middle" x="109.07" y="-531.95" font-family="Times,serif" font-size="14.00">s2</text>
</g>
<!-- s1&#45;&gt;s2 -->
<g id="edge9" class="edge">
<title>s1&#45;&gt;s2</title>
<path fill="none" stroke="black" d="M40.3,-470C52.73,-482.29 70.08,-499.44 84.11,-513.32"/>
<polygon fill="black" stroke="black" points="81.28,-515.44 90.86,-519.98 86.21,-510.46 81.28,-515.44"/>
<text text-anchor="middle" x="66.09" y="-498.7" font-family="Times,serif" font-size="14.00">\</text>
</g>
<!-- s0 -->
<g id="node3" class="node">
<title>s0</title>
<ellipse fill="none" stroke="black" cx="591.4" cy="-453" rx="19.11" ry="19.11"/>
<text text-anchor="middle" x="591.4" y="-447.95" font-family="Times,serif" font-size="14.00">s0</text>
</g>
<!-- s1&#45;&gt;s0 -->
<g id="edge10" class="edge">
<title>s1&#45;&gt;s0</title>
<path fill="none" stroke="black" d="M23.94,-477.52C23.7,-559.22 25.88,-829.82 64.22,-906 75.94,-929.3 81.99,-945 108.07,-945 108.07,-945 108.07,-945 503.93,-945 532.24,-945 540.83,-930.9 554.29,-906 574.26,-869.06 585.99,-580.21 589.37,-484.03"/>
<polygon fill="black" stroke="black" points="592.87,-484.16 589.72,-474.05 585.87,-483.92 592.87,-484.16"/>
<text text-anchor="middle" x="314" y="-948.2" font-family="Times,serif" font-size="14.00">e</text>
</g>
<!-- s1&#45;&gt;s0 -->
<g id="edge11" class="edge">
<title>s1&#45;&gt;s0</title>
<path fill="none" stroke="black" d="M23.57,-477.55C22.11,-568.53 22.9,-892 108.07,-892 108.07,-892 108.07,-892 503.93,-892 532.24,-892 540.7,-877.83 554.29,-853 589.04,-789.53 591.18,-566.02 590.74,-483.72"/>
<polygon fill="black" stroke="black" points="594.24,-483.91 590.67,-473.93 587.24,-483.96 594.24,-483.91"/>
<text text-anchor="middle" x="314" y="-895.2" font-family="Times,serif" font-size="14.00">f</text>
</g>
<!-- s1&#45;&gt;s0 -->
<g id="edge12" class="edge">
<title>s1&#45;&gt;s0</title>
<path fill="none" stroke="black" d="M24.58,-477.24C26.31,-545.71 33.88,-745.46 64.22,-802 76.27,-824.47 82.57,-839 108.07,-839 108.07,-839 108.07,-839 503.93,-839 531.71,-839 540.49,-826.1 554.29,-802 585.19,-748.05 589.77,-558.23 590.36,-483.53"/>
<polygon fill="black" stroke="black" points="593.86,-483.7 590.41,-473.68 586.86,-483.66 593.86,-483.7"/>
<text text-anchor="middle" x="314" y="-842.2" font-family="Times,serif" font-size="14.00">o</text>
</g>
<!-- s1&#45;&gt;s0 -->
<g id="edge14" class="edge">
<title>s1&#45;&gt;s0</title>
<path fill="none" stroke="black" d="M24.96,-477.49C28.33,-553.51 43.95,-788 108.07,-788 108.07,-788 108.07,-788 503.93,-788 535.79,-788 540.36,-765.64 554.29,-737 575.79,-692.81 585.62,-547.42 588.98,-483.55"/>
<polygon fill="black" stroke="black" points="592.46,-483.94 589.47,-473.78 585.47,-483.59 592.46,-483.94"/>
<text text-anchor="middle" x="314" y="-789.7" font-family="Times,serif" font-size="14.00">◉</text>
</g>
<!-- s3 -->
<g id="node4" class="node">
<title>s3</title>
<ellipse fill="none" stroke="black" cx="213.54" cy="-358" rx="19.11" ry="19.11"/>
<text text-anchor="middle" x="213.54" y="-352.95" font-family="Times,serif" font-size="14.00">s3</text>
</g>
<!-- s1&#45;&gt;s3 -->
<g id="edge13" class="edge">
<title>s1&#45;&gt;s3</title>
<path fill="none" stroke="black" d="M33.23,-432.91C43.01,-413.44 60.64,-386 85.97,-375.5 117.27,-362.51 156.3,-358.79 182.68,-357.91"/>
<polygon fill="black" stroke="black" points="182.74,-361.41 192.66,-357.7 182.6,-354.41 182.74,-361.41"/>
<text text-anchor="middle" x="109.07" y="-378.7" font-family="Times,serif" font-size="14.00">EOL</text>
</g>
<!-- s2&#45;&gt;s1 -->
<g id="edge15" class="edge">
<title>s2&#45;&gt;s1</title>
<path fill="none" stroke="black" d="M98.14,-516.12C91.15,-503.14 80.76,-486.82 67.97,-475.5 64.15,-472.12 59.7,-469.14 55.14,-466.57"/>
<polygon fill="black" stroke="black" points="57.01,-463.59 46.5,-462.24 53.87,-469.85 57.01,-463.59"/>
<text text-anchor="middle" x="66.09" y="-478.7" font-family="Times,serif" font-size="14.00">&#39;</text>
</g>
<!-- s2&#45;&gt;s2 -->
<g id="edge16" class="edge">
<title>s2&#45;&gt;s2</title>
<path fill="none" stroke="black" d="M101.17,-558.99C100.31,-569.19 102.94,-578.11 109.07,-578.11 112.71,-578.11 115.12,-574.97 116.29,-570.28"/>
<polygon fill="black" stroke="black" points="119.77,-570.7 116.88,-560.5 112.79,-570.27 119.77,-570.7"/>
<text text-anchor="middle" x="109.07" y="-581.31" font-family="Times,serif" font-size="14.00">\</text>
</g>
<!-- s2&#45;&gt;s0 -->
<g id="edge17" class="edge">
<title>s2&#45;&gt;s0</title>
<path fill="none" stroke="black" d="M111.76,-560.2C115.5,-604.41 126.13,-698.1 150.18,-718 184.77,-746.63 520.82,-749.93 554.29,-720 588.69,-689.25 591.51,-547.32 591,-483.84"/>
<polygon fill="black" stroke="black" points="594.5,-484.06 590.88,-474.11 587.5,-484.15 594.5,-484.06"/>
<text text-anchor="middle" x="364.24" y="-744.2" font-family="Times,serif" font-size="14.00">e</text>
</g>
<!-- s2&#45;&gt;s0 -->
<g id="edge18" class="edge">
<title>s2&#45;&gt;s0</title>
<path fill="none" stroke="black" d="M113.22,-560.23C118.7,-596.85 131.27,-665.36 150.18,-680 185.69,-707.48 520.4,-710.45 554.29,-681 583.39,-655.72 589.14,-539.67 590.21,-483.56"/>
<polygon fill="black" stroke="black" points="593.7,-483.8 590.35,-473.75 586.71,-483.69 593.7,-483.8"/>
<text text-anchor="middle" x="364.24" y="-705.07" font-family="Times,serif" font-size="14.00">f</text>
</g>
<!-- s2&#45;&gt;s0 -->
<g id="edge19" class="edge">
<title>s2&#45;&gt;s0</title>
<path fill="none" stroke="black" d="M111.65,-560.4C114.73,-585.31 123.75,-623.61 150.18,-642 187.04,-667.65 519.78,-671.73 554.29,-643 578.26,-623.05 586.45,-532.01 589.15,-483.56"/>
<polygon fill="black" stroke="black" points="592.63,-483.9 589.64,-473.74 585.64,-483.55 592.63,-483.9"/>
<text text-anchor="middle" x="364.24" y="-666.14" font-family="Times,serif" font-size="14.00">o</text>
</g>
<!-- s2&#45;&gt;s0 -->
<g id="edge21" class="edge">
<title>s2&#45;&gt;s0</title>
<path fill="none" stroke="black" d="M122.7,-556.18C129.7,-565.21 139.2,-575.24 150.18,-581 239.61,-627.92 278.22,-595.26 377.36,-576 458.59,-560.22 491.53,-571.94 554.29,-518 565.57,-508.3 574.01,-494.16 579.89,-481.55"/>
<polygon fill="black" stroke="black" points="583.09,-482.97 583.8,-472.39 576.65,-480.22 583.09,-482.97"/>
<text text-anchor="middle" x="364.24" y="-583.19" font-family="Times,serif" font-size="14.00">◉</text>
</g>
<!-- s2&#45;&gt;s3 -->
<g id="edge20" class="edge">
<title>s2&#45;&gt;s3</title>
<path fill="none" stroke="black" d="M116.99,-515.04C123.64,-496.03 134.91,-468.4 150.18,-447.5 159.42,-434.86 166.7,-436.27 176.43,-424 185.66,-412.37 193.81,-398.05 200.02,-385.72"/>
<polygon fill="black" stroke="black" points="203.1,-387.41 204.3,-376.89 196.8,-384.36 203.1,-387.41"/>
<text text-anchor="middle" x="163.31" y="-450.7" font-family="Times,serif" font-size="14.00">EOL</text>
</g>
<!-- s0&#45;&gt;s1 -->
<g id="edge1" class="edge">
<title>s0&#45;&gt;s1</title>
<path fill="none" stroke="black" d="M590.89,-433.54C592.55,-346.83 593.61,0 503.93,0 108.07,0 108.07,0 108.07,0 69.07,0 76.28,-38.91 64.22,-76 43.58,-139.42 30.53,-338.33 25.95,-419.25"/>
<polygon fill="black" stroke="black" points="22.45,-419.05 25.39,-429.23 29.44,-419.44 22.45,-419.05"/>
<text text-anchor="middle" x="314" y="-3.2" font-family="Times,serif" font-size="14.00">&#39;</text>
</g>
<!-- s0&#45;&gt;s2 -->
<g id="edge2" class="edge">
<title>s0&#45;&gt;s2</title>
<path fill="none" stroke="black" d="M581.25,-469.37C574.86,-479.46 565.49,-491.96 554.29,-500 541.98,-508.83 536.64,-506.99 522.04,-511 395.29,-545.84 363.38,-558.37 232.65,-572 195.97,-575.82 184.31,-576.95 150.18,-563 145.98,-561.28 141.74,-559.11 137.68,-556.76"/>
<polygon fill="black" stroke="black" points="139.65,-553.87 129.32,-551.51 135.92,-559.8 139.65,-553.87"/>
<text text-anchor="middle" x="364.24" y="-558.34" font-family="Times,serif" font-size="14.00">\</text>
</g>
<!-- s0&#45;&gt;s0 -->
<g id="edge3" class="edge">
<title>s0&#45;&gt;s0</title>
<path fill="none" stroke="black" d="M589.37,-472.47C589.13,-481.84 589.8,-490.11 591.4,-490.11 592.27,-490.11 592.87,-487.63 593.19,-483.86"/>
<polygon fill="black" stroke="black" points="596.69,-484.05 593.39,-473.99 589.69,-483.91 596.69,-484.05"/>
<text text-anchor="middle" x="591.4" y="-493.31" font-family="Times,serif" font-size="14.00">e</text>
</g>
<!-- s0&#45;&gt;s0 -->
<g id="edge4" class="edge">
<title>s0&#45;&gt;s0</title>
<path fill="none" stroke="black" d="M587.99,-472.2C586.33,-489.54 587.47,-508.11 591.4,-508.11 594.47,-508.11 595.83,-496.77 595.49,-483.55"/>
<polygon fill="black" stroke="black" points="599,-483.48 594.9,-473.71 592.01,-483.91 599,-483.48"/>
<text text-anchor="middle" x="591.4" y="-511.31" font-family="Times,serif" font-size="14.00">f</text>
</g>
<!-- s0&#45;&gt;s0 -->
<g id="edge5" class="edge">
<title>s0&#45;&gt;s0</title>
<path fill="none" stroke="black" d="M587.09,-472.1C583.52,-496.66 584.95,-526.11 591.4,-526.11 596.89,-526.11 598.74,-504.75 596.97,-483.24"/>
<polygon fill="black" stroke="black" points="600.48,-483.14 595.87,-473.6 593.52,-483.93 600.48,-483.14"/>
<text text-anchor="middle" x="591.4" y="-529.31" font-family="Times,serif" font-size="14.00">o</text>
</g>
<!-- s0&#45;&gt;s0 -->
<g id="edge7" class="edge">
<title>s0&#45;&gt;s0</title>
<path fill="none" stroke="black" d="M586.51,-471.78C580.7,-503.24 582.33,-544.11 591.4,-544.11 599.41,-544.11 601.61,-512.25 598.02,-483.15"/>
<polygon fill="black" stroke="black" points="601.49,-482.64 596.52,-473.28 594.57,-483.69 601.49,-482.64"/>
<text text-anchor="middle" x="591.4" y="-545.81" font-family="Times,serif" font-size="14.00">◉</text>
</g>
<!-- s0&#45;&gt;s3 -->
<g id="edge6" class="edge">
<title>s0&#45;&gt;s3</title>
<path fill="none" stroke="black" d="M573.91,-461.36C567.89,-464 560.93,-466.6 554.29,-468 515.81,-476.13 505.15,-469.56 465.83,-470 388.1,-470.88 367.28,-461.33 294.9,-433 273.86,-424.77 267.48,-423.06 250.65,-408 242.84,-401.02 235.74,-392.08 229.93,-383.7"/>
<polygon fill="black" stroke="black" points="232.98,-381.97 224.58,-375.53 227.13,-385.81 232.98,-381.97"/>
<text text-anchor="middle" x="414.47" y="-472.8" font-family="Times,serif" font-size="14.00">EOL</text>
</g>
<!-- s3&#45;&gt;s1 -->
<g id="edge22" class="edge">
<title>s3&#45;&gt;s1</title>
<path fill="none" stroke="black" d="M196.05,-349.92C170.55,-338.7 120.88,-321.94 85.97,-342.5 57.42,-359.31 41.11,-394.56 32.49,-420.95"/>
<polygon fill="black" stroke="black" points="29.24,-419.6 29.69,-430.19 35.94,-421.63 29.24,-419.6"/>
<text text-anchor="middle" x="109.07" y="-345.7" font-family="Times,serif" font-size="14.00">&#39;</text>
</g>
<!-- s3&#45;&gt;s2 -->
<g id="edge23" class="edge">
<title>s3&#45;&gt;s2</title>
<path fill="none" stroke="black" d="M209.14,-376.91C204.49,-399.18 194.56,-436.6 176.43,-464 167.79,-477.06 160.98,-476.16 150.18,-487.5 143.38,-494.64 136.46,-502.81 130.32,-510.42"/>
<polygon fill="black" stroke="black" points="127.92,-507.81 124.46,-517.83 133.41,-512.15 127.92,-507.81"/>
<text text-anchor="middle" x="163.31" y="-490.7" font-family="Times,serif" font-size="14.00">\</text>
</g>
<!-- s3&#45;&gt;s0 -->
<g id="edge25" class="edge">
<title>s3&#45;&gt;s0</title>
<path fill="none" stroke="black" d="M226.07,-343.04C260.44,-300.41 366,-183.47 465.83,-217 512.58,-232.71 527.82,-242.38 554.29,-284 581.49,-326.76 588.52,-386.66 590.15,-422.47"/>
<polygon fill="black" stroke="black" points="586.64,-422.24 590.47,-432.12 593.63,-422.01 586.64,-422.24"/>
<text text-anchor="middle" x="414.47" y="-218.13" font-family="Times,serif" font-size="14.00">f</text>
</g>
<!-- s3&#45;&gt;s0 -->
<g id="edge26" class="edge">
<title>s3&#45;&gt;s0</title>
<path fill="none" stroke="black" d="M214.6,-338.54C215.69,-309.21 221.74,-253.38 250.65,-218 341.07,-107.3 448.03,-16.4 554.29,-112 577.18,-132.59 586.65,-342.6 589.45,-422.43"/>
<polygon fill="black" stroke="black" points="585.94,-422.26 589.78,-432.14 592.94,-422.03 585.94,-422.26"/>
<text text-anchor="middle" x="414.47" y="-90.84" font-family="Times,serif" font-size="14.00">o</text>
</g>
<!-- s3&#45;&gt;s0 -->
<g id="edge28" class="edge">
<title>s3&#45;&gt;s0</title>
<path fill="none" stroke="black" d="M220.02,-376.44C225.56,-392.49 235.5,-415.55 250.65,-431 276.19,-457.06 388.53,-488.81 395.36,-490 465.02,-502.1 488.57,-509.07 554.29,-483 559.51,-480.93 564.53,-477.8 569.09,-474.34"/>
<polygon fill="black" stroke="black" points="571.22,-477.12 576.55,-467.96 566.67,-471.8 571.22,-477.12"/>
<text text-anchor="middle" x="414.47" y="-498.28" font-family="Times,serif" font-size="14.00">◉</text>
</g>
<!-- s3&#45;&gt;s3 -->
<g id="edge27" class="edge">
<title>s3&#45;&gt;s3</title>
<path fill="none" stroke="black" d="M204.71,-375.18C202.75,-385.44 205.69,-395.11 213.54,-395.11 218.32,-395.11 221.28,-391.52 222.42,-386.39"/>
<polygon fill="black" stroke="black" points="225.92,-386.67 222.37,-376.69 218.92,-386.71 225.92,-386.67"/>
<text text-anchor="middle" x="213.54" y="-398.31" font-family="Times,serif" font-size="14.00">EOL</text>
</g>
<!-- s4 -->
<g id="node5" class="node">
<title>s4</title>
<ellipse fill="none" stroke="black" cx="314" cy="-405" rx="19.11" ry="19.11"/>
<text text-anchor="middle" x="314" y="-399.95" font-family="Times,serif" font-size="14.00">s4</text>
</g>
<!-- s3&#45;&gt;s4 -->
<g id="edge24" class="edge">
<title>s3&#45;&gt;s4</title>
<path fill="none" stroke="black" d="M231.24,-365.97C246.24,-373.13 268.52,-383.77 286.03,-392.13"/>
<polygon fill="black" stroke="black" points="284.32,-395.19 294.85,-396.34 287.33,-388.87 284.32,-395.19"/>
<text text-anchor="middle" x="263.77" y="-390.29" font-family="Times,serif" font-size="14.00">e</text>
</g>
<!-- s4&#45;&gt;s1 -->
<g id="edge29" class="edge">
<title>s4&#45;&gt;s1</title>
<path fill="none" stroke="black" d="M312.22,-424.15C310.11,-447.47 302.68,-485.96 276.9,-504 267.34,-510.69 261.06,-509.26 250.65,-504 225.86,-491.49 201.22,-416.01 176.43,-403.5 134.5,-382.34 81.75,-410.94 50.6,-432.95"/>
<polygon fill="black" stroke="black" points="48.88,-429.87 42.89,-438.61 53.02,-435.51 48.88,-429.87"/>
<text text-anchor="middle" x="163.31" y="-406.7" font-family="Times,serif" font-size="14.00">&#39;</text>
</g>
<!-- s4&#45;&gt;s2 -->
<g id="edge30" class="edge">
<title>s4&#45;&gt;s2</title>
<path fill="none" stroke="black" d="M313.73,-424.22C313.62,-452.29 308.76,-503.87 276.9,-529 238.89,-558.97 179.51,-553.26 142.8,-545.65"/>
<polygon fill="black" stroke="black" points="143.73,-542.27 133.21,-543.49 142.19,-549.1 143.73,-542.27"/>
<text text-anchor="middle" x="213.54" y="-554.93" font-family="Times,serif" font-size="14.00">\</text>
</g>
<!-- s4&#45;&gt;s0 -->
<g id="edge31" class="edge">
<title>s4&#45;&gt;s0</title>
<path fill="none" stroke="black" d="M332.74,-400.62C361.03,-394.25 418.04,-383.99 465.83,-391.5 506.63,-397.91 518.57,-399.26 554.29,-420 559.57,-423.07 564.73,-427.01 569.43,-431.11"/>
<polygon fill="black" stroke="black" points="567,-433.62 576.68,-437.92 571.79,-428.52 567,-433.62"/>
<text text-anchor="middle" x="458.7" y="-394.7" font-family="Times,serif" font-size="14.00">e</text>
</g>
<!-- s4&#45;&gt;s0 -->
<g id="edge32" class="edge">
<title>s4&#45;&gt;s0</title>
<path fill="none" stroke="black" d="M330.71,-414.96C336.89,-418.54 344.15,-422.34 351.11,-425 422.65,-452.37 514.29,-454.91 560.66,-454.14"/>
<polygon fill="black" stroke="black" points="560.54,-457.64 570.45,-453.9 560.37,-450.65 560.54,-457.64"/>
<text text-anchor="middle" x="458.7" y="-453.2" font-family="Times,serif" font-size="14.00">f</text>
</g>
<!-- s4&#45;&gt;s0 -->
<g id="edge35" class="edge">
<title>s4&#45;&gt;s0</title>
<path fill="none" stroke="black" d="M333.13,-407.89C361.47,-412.45 417.98,-421.62 465.83,-430 498.55,-435.73 536.04,-442.71 561.26,-447.47"/>
<polygon fill="black" stroke="black" points="560.3,-450.84 570.77,-449.26 561.6,-443.97 560.3,-450.84"/>
<text text-anchor="middle" x="458.7" y="-431.7" font-family="Times,serif" font-size="14.00">◉</text>
</g>
<!-- s4&#45;&gt;s3 -->
<g id="edge34" class="edge">
<title>s4&#45;&gt;s3</title>
<path fill="none" stroke="black" d="M305.4,-387.38C299.45,-376.02 289.98,-362.15 276.9,-355.5 266.75,-350.34 254.44,-349.84 243.44,-351.04"/>
<polygon fill="black" stroke="black" points="242.99,-347.56 233.68,-352.62 244.11,-354.47 242.99,-347.56"/>
<text text-anchor="middle" x="263.77" y="-358.7" font-family="Times,serif" font-size="14.00">EOL</text>
</g>
<!-- s5 -->
<g id="node6" class="node">
<title>s5</title>
<ellipse fill="none" stroke="black" cx="414.47" cy="-297" rx="19.11" ry="19.11"/>
<text text-anchor="middle" x="414.47" y="-291.95" font-family="Times,serif" font-size="14.00">s5</text>
</g>
<!-- s4&#45;&gt;s5 -->
<g id="edge33" class="edge">
<title>s4&#45;&gt;s5</title>
<path fill="none" stroke="black" d="M325.27,-389.19C332.1,-379.14 341.55,-366.07 351.11,-355.5 361.62,-343.89 365.9,-342.67 377.36,-332 382.15,-327.54 387.23,-322.68 392.03,-318.05"/>
<polygon fill="black" stroke="black" points="394.4,-320.63 399.13,-311.15 389.52,-315.61 394.4,-320.63"/>
<text text-anchor="middle" x="364.24" y="-358.7" font-family="Times,serif" font-size="14.00">o</text>
</g>
<!-- s5&#45;&gt;s1 -->
<g id="edge36" class="edge">
<title>s5&#45;&gt;s1</title>
<path fill="none" stroke="black" d="M408.08,-278.82C398.74,-247.43 380.25,-186.05 377.36,-182 357.36,-153.97 349.44,-136 315,-136 108.07,-136 108.07,-136 108.07,-136 49.98,-136 31.19,-336.93 25.92,-419.35"/>
<polygon fill="black" stroke="black" points="22.44,-418.91 25.33,-429.11 29.43,-419.34 22.44,-418.91"/>
<text text-anchor="middle" x="213.54" y="-139.2" font-family="Times,serif" font-size="14.00">&#39;</text>
</g>
<!-- s5&#45;&gt;s2 -->
<g id="edge37" class="edge">
<title>s5&#45;&gt;s2</title>
<path fill="none" stroke="black" d="M397.32,-306.28C384.57,-313.73 366.44,-324.63 351.11,-335 325.27,-352.47 315.64,-353.71 294.9,-377 284.3,-388.9 286.75,-395.48 276.9,-408 238.68,-456.52 226.98,-468.51 176.43,-504 165.66,-511.56 152.9,-518.35 141.46,-523.78"/>
<polygon fill="black" stroke="black" points="140.03,-520.58 132.38,-527.91 142.93,-526.95 140.03,-520.58"/>
<text text-anchor="middle" x="263.77" y="-442.85" font-family="Times,serif" font-size="14.00">\</text>
</g>
<!-- s5&#45;&gt;s0 -->
<g id="edge38" class="edge">
<title>s5&#45;&gt;s0</title>
<path fill="none" stroke="black" d="M432.47,-303.74C460.88,-315.72 518.43,-343.19 554.29,-382 565.55,-394.18 574.18,-410.53 580.18,-424.47"/>
<polygon fill="black" stroke="black" points="576.88,-425.64 583.86,-433.61 583.37,-423.02 576.88,-425.64"/>
<text text-anchor="middle" x="502.93" y="-355.96" font-family="Times,serif" font-size="14.00">e</text>
</g>
<!-- s5&#45;&gt;s0 -->
<g id="edge40" class="edge">
<title>s5&#45;&gt;s0</title>
<path fill="none" stroke="black" d="M433.69,-294.27C456.31,-291.87 495.2,-291.07 522.04,-308.5 561.18,-333.92 578.4,-388.3 585.6,-422.62"/>
<polygon fill="black" stroke="black" points="582.15,-423.2 587.47,-432.36 589.02,-421.88 582.15,-423.2"/>
<text text-anchor="middle" x="502.93" y="-311.7" font-family="Times,serif" font-size="14.00">o</text>
</g>
<!-- s5&#45;&gt;s0 -->
<g id="edge42" class="edge">
<title>s5&#45;&gt;s0</title>
<path fill="none" stroke="black" d="M431.51,-287.73C453.17,-276.55 492.44,-260.99 522.04,-276 574.81,-302.75 587.18,-379.09 589.87,-422.27"/>
<polygon fill="black" stroke="black" points="586.36,-422.17 590.32,-431.99 593.35,-421.84 586.36,-422.17"/>
<text text-anchor="middle" x="502.93" y="-277.7" font-family="Times,serif" font-size="14.00">◉</text>
</g>
<!-- s5&#45;&gt;s3 -->
<g id="edge41" class="edge">
<title>s5&#45;&gt;s3</title>
<path fill="none" stroke="black" d="M394.96,-298.24C371.26,-300.24 329.16,-305.15 294.9,-316.5 275.64,-322.88 255.35,-333.39 239.98,-342.23"/>
<polygon fill="black" stroke="black" points="238.33,-339.15 231.5,-347.25 241.89,-345.17 238.33,-339.15"/>
<text text-anchor="middle" x="314" y="-319.7" font-family="Times,serif" font-size="14.00">EOL</text>
</g>
<!-- s6 -->
<g id="node7" class="node">
<title>s6</title>
<ellipse fill="none" stroke="black" cx="502.93" cy="-147" rx="19.11" ry="19.11"/>
<text text-anchor="middle" x="502.93" y="-141.95" font-family="Times,serif" font-size="14.00">s6</text>
</g>
<!-- s5&#45;&gt;s6 -->
<g id="edge39" class="edge">
<title>s5&#45;&gt;s6</title>
<path fill="none" stroke="black" d="M424.89,-280.66C439.83,-254.74 469.1,-203.96 486.95,-172.99"/>
<polygon fill="black" stroke="black" points="489.81,-175.04 491.77,-164.63 483.74,-171.55 489.81,-175.04"/>
<text text-anchor="middle" x="458.7" y="-234.18" font-family="Times,serif" font-size="14.00">f</text>
</g>
<!-- s6&#45;&gt;s1 -->
<g id="edge43" class="edge">
<title>s6&#45;&gt;s1</title>
<path fill="none" stroke="black" d="M495.94,-128.76C485.01,-99.43 458.88,-45 415.47,-45 108.07,-45 108.07,-45 108.07,-45 31.96,-45 24.22,-320.2 23.89,-419.12"/>
<polygon fill="black" stroke="black" points="20.39,-419.03 23.89,-429.03 27.39,-419.03 20.39,-419.03"/>
<text text-anchor="middle" x="263.77" y="-48.2" font-family="Times,serif" font-size="14.00">&#39;</text>
</g>
<!-- s6&#45;&gt;s2 -->
<g id="edge44" class="edge">
<title>s6&#45;&gt;s2</title>
<path fill="none" stroke="black" d="M483.88,-143.41C438.21,-135.47 316.97,-121.65 250.65,-183 155.43,-271.08 123.6,-432.01 113.92,-502.45"/>
<polygon fill="black" stroke="black" points="110.46,-501.86 112.65,-512.23 117.41,-502.76 110.46,-501.86"/>
<text text-anchor="middle" x="314" y="-157.93" font-family="Times,serif" font-size="14.00">\</text>
</g>
<!-- s6&#45;&gt;s0 -->
<g id="edge45" class="edge">
<title>s6&#45;&gt;s0</title>
<path fill="none" stroke="black" d="M514.88,-162.41C528.92,-182.29 551.78,-215.11 554.29,-221.5 581.15,-289.81 588.08,-376.85 589.84,-422.27"/>
<polygon fill="black" stroke="black" points="586.33,-422.27 590.15,-432.15 593.33,-422.04 586.33,-422.27"/>
<text text-anchor="middle" x="547.17" y="-224.7" font-family="Times,serif" font-size="14.00">e</text>
</g>
<!-- s6&#45;&gt;s0 -->
<g id="edge46" class="edge">
<title>s6&#45;&gt;s0</title>
<path fill="none" stroke="black" d="M521.26,-153.28C532.56,-158.31 546.6,-166.53 554.29,-178.5 579.87,-218.3 587.46,-359.23 589.6,-422.21"/>
<polygon fill="black" stroke="black" points="586.1,-422.31 589.92,-432.2 593.1,-422.09 586.1,-422.31"/>
<text text-anchor="middle" x="547.17" y="-181.7" font-family="Times,serif" font-size="14.00">f</text>
</g>
<!-- s6&#45;&gt;s0 -->
<g id="edge47" class="edge">
<title>s6&#45;&gt;s0</title>
<path fill="none" stroke="black" d="M521.37,-140.53C532.14,-137.75 545.53,-136.7 554.29,-144.5 574.85,-162.79 585.58,-348.07 589.08,-422.4"/>
<polygon fill="black" stroke="black" points="585.58,-422.39 589.53,-432.22 592.57,-422.07 585.58,-422.39"/>
<text text-anchor="middle" x="547.17" y="-147.7" font-family="Times,serif" font-size="14.00">o</text>
</g>
<!-- s6&#45;&gt;s0 -->
<g id="edge49" class="edge">
<title>s6&#45;&gt;s0</title>
<path fill="none" stroke="black" d="M516.13,-132.7C527.01,-121.64 542.92,-109.8 554.29,-120 576.62,-140.04 586.42,-344.24 589.37,-422.6"/>
<polygon fill="black" stroke="black" points="585.86,-422.26 589.72,-432.12 592.85,-422 585.86,-422.26"/>
<text text-anchor="middle" x="547.17" y="-121.7" font-family="Times,serif" font-size="14.00">◉</text>
</g>
<!-- s6&#45;&gt;s3 -->
<g id="edge48" class="edge">
<title>s6&#45;&gt;s3</title>
<path fill="none" stroke="black" d="M484.1,-152.29C429.54,-168.61 267.57,-218.16 250.65,-236 227.07,-260.85 218.81,-300.35 215.96,-327.64"/>
<polygon fill="black" stroke="black" points="212.49,-327.1 215.14,-337.36 219.47,-327.69 212.49,-327.1"/>
<text text-anchor="middle" x="364.24" y="-196.74" font-family="Times,serif" font-size="14.00">EOL</text>
</g>
</g>
</svg>
