<?xml version="1.0" encoding="UTF-8" standalone="no"?>
<!DOCTYPE svg PUBLIC "-//W3C//DTD SVG 1.1//EN"
 "http://www.w3.org/Graphics/SVG/1.1/DTD/svg11.dtd">
<!-- Generated by graphviz version 12.2.1 (20241206.2353)
 -->
<!-- Title: finite_state_machine Pages: 1 -->
<svg width="232pt" height="166pt"
 viewBox="0.00 0.00 231.65 165.96" xmlns="http://www.w3.org/2000/svg" xmlns:xlink="http://www.w3.org/1999/xlink">
<g id="graph0" class="graph" transform="scale(1 1) rotate(0) translate(4 161.96)">
<title>finite_state_machine</title>
<polygon fill="white" stroke="none" points="-4,4 -4,-161.96 227.65,-161.96 227.65,4 -4,4"/>
<!-- s0 -->
<g id="node1" class="node">
<title>s0</title>
<ellipse fill="none" stroke="black" cx="23.11" cy="-56.85" rx="19.11" ry="19.11"/>
<ellipse fill="none" stroke="black" cx="23.11" cy="-56.85" rx="23.11" ry="23.11"/>
<text text-anchor="middle" x="23.11" y="-51.8" font-family="Times,serif" font-size="14.00">s0</text>
</g>
<!-- s1 -->
<g id="node4" class="node">
<title>s1</title>
<ellipse fill="none" stroke="black" cx="115.57" cy="-134.85" rx="19.11" ry="19.11"/>
<text text-anchor="middle" x="115.57" y="-129.8" font-family="Times,serif" font-size="14.00">s1</text>
</g>
<!-- s0&#45;&gt;s1 -->
<g id="edge1" class="edge">
<title>s0&#45;&gt;s1</title>
<path fill="none" stroke="black" d="M40.11,-73.21C47.3,-80.36 56,-88.72 64.22,-95.85 72.59,-103.12 82.12,-110.68 90.63,-117.18"/>
<polygon fill="black" stroke="black" points="88.38,-119.87 98.47,-123.1 92.6,-114.28 88.38,-119.87"/>
<text text-anchor="middle" x="71.34" y="-110.23" font-family="Times,serif" font-size="14.00">}</text>
</g>
<!-- s3 -->
<g id="node5" class="node">
<title>s3</title>
<ellipse fill="none" stroke="black" cx="115.57" cy="-36.85" rx="19.11" ry="19.11"/>
<text text-anchor="middle" x="115.57" y="-31.8" font-family="Times,serif" font-size="14.00">s3</text>
</g>
<!-- s0&#45;&gt;s3 -->
<g id="edge2" class="edge">
<title>s0&#45;&gt;s3</title>
<path fill="none" stroke="black" d="M42.77,-69.75C53.4,-75.44 66.86,-79.83 78.47,-74.85 85.38,-71.88 91.59,-66.86 96.84,-61.43"/>
<polygon fill="black" stroke="black" points="99.41,-63.81 103.26,-53.94 94.1,-59.26 99.41,-63.81"/>
<text text-anchor="middle" x="71.34" y="-78.71" font-family="Times,serif" font-size="14.00">◉</text>
</g>
<!-- s0&#45;&gt;s3 -->
<g id="edge3" class="edge">
<title>s0&#45;&gt;s3</title>
<path fill="none" stroke="black" d="M46.01,-52.01C57.86,-49.39 72.65,-46.12 85.46,-43.28"/>
<polygon fill="black" stroke="black" points="86.04,-46.74 95.05,-41.17 84.53,-39.91 86.04,-46.74"/>
<text text-anchor="middle" x="71.34" y="-50.65" font-family="Times,serif" font-size="14.00">λ</text>
</g>
<!-- s0&#45;&gt;s3 -->
<g id="edge4" class="edge">
<title>s0&#45;&gt;s3</title>
<path fill="none" stroke="black" d="M39.68,-40.06C46.53,-33.87 55.09,-27.58 64.22,-24.35 71.75,-21.68 80.1,-22.36 87.81,-24.39"/>
<polygon fill="black" stroke="black" points="86.44,-27.62 97.03,-27.6 88.74,-21.01 86.44,-27.62"/>
<text text-anchor="middle" x="71.34" y="-27.55" font-family="Times,serif" font-size="14.00">}</text>
</g>
<!-- s2 -->
<g id="node2" class="node">
<title>s2</title>
<ellipse fill="none" stroke="black" cx="200.54" cy="-134.85" rx="19.11" ry="19.11"/>
<ellipse fill="none" stroke="black" cx="200.54" cy="-134.85" rx="23.11" ry="23.11"/>
<text text-anchor="middle" x="200.54" y="-129.8" font-family="Times,serif" font-size="14.00">s2</text>
</g>
<!-- s4 -->
<g id="node3" class="node">
<title>s4</title>
<ellipse fill="none" stroke="black" cx="200.54" cy="-36.85" rx="19.11" ry="19.11"/>
<ellipse fill="none" stroke="black" cx="200.54" cy="-36.85" rx="23.11" ry="23.11"/>
<text text-anchor="middle" x="200.54" y="-31.8" font-family="Times,serif" font-size="14.00">s4</text>
</g>
<!-- s1&#45;&gt;s2 -->
<g id="edge5" class="edge">
<title>s1&#45;&gt;s2</title>
<path fill="none" stroke="black" d="M134.99,-134.85C144,-134.85 155.15,-134.85 165.64,-134.85"/>
<polygon fill="black" stroke="black" points="165.52,-138.35 175.52,-134.85 165.52,-131.35 165.52,-138.35"/>
<text text-anchor="middle" x="156.06" y="-138.05" font-family="Times,serif" font-size="14.00">}</text>
</g>
<!-- s3&#45;&gt;s0 -->
<g id="edge6" class="edge">
<title>s3&#45;&gt;s0</title>
<path fill="none" stroke="black" d="M103.9,-21.27C94.04,-8.96 78.78,5.02 64.22,-2.35 53.94,-7.54 45.66,-16.74 39.35,-26.12"/>
<polygon fill="black" stroke="black" points="36.46,-24.14 34.27,-34.51 42.44,-27.77 36.46,-24.14"/>
<text text-anchor="middle" x="71.34" y="-5.55" font-family="Times,serif" font-size="14.00">λ</text>
</g>
<!-- s3&#45;&gt;s4 -->
<g id="edge7" class="edge">
<title>s3&#45;&gt;s4</title>
<path fill="none" stroke="black" d="M134.99,-36.85C144,-36.85 155.15,-36.85 165.64,-36.85"/>
<polygon fill="black" stroke="black" points="165.52,-40.35 175.52,-36.85 165.52,-33.35 165.52,-40.35"/>
<text text-anchor="middle" x="156.06" y="-40.05" font-family="Times,serif" font-size="14.00">τ</text>
</g>
</g>
</svg>
