<?xml version="1.0" encoding="UTF-8" standalone="no"?>
<!DOCTYPE svg PUBLIC "-//W3C//DTD SVG 1.1//EN"
 "http://www.w3.org/Graphics/SVG/1.1/DTD/svg11.dtd">
<!-- Generated by graphviz version 2.38.0 (20140413.2041)
 -->
<!-- Title: finite_state_machine Pages: 1 -->
<svg width="230pt" height="259pt"
 viewBox="0.00 0.00 229.66 259.19" xmlns="http://www.w3.org/2000/svg" xmlns:xlink="http://www.w3.org/1999/xlink">
<g id="graph0" class="graph" transform="scale(1 1) rotate(0) translate(4 255.194)">
<title>finite_state_machine</title>
<polygon fill="white" stroke="none" points="-4,4 -4,-255.194 225.662,-255.194 225.662,4 -4,4"/>
<!-- s0 -->
<g id="node1" class="node"><title>s0</title>
<ellipse fill="none" stroke="black" cx="22" cy="-98.1937" rx="18" ry="18"/>
<ellipse fill="none" stroke="black" cx="22" cy="-98.1937" rx="22" ry="22"/>
<text text-anchor="middle" x="22" y="-93.9937" font-family="Times,serif" font-size="14.00">s0</text>
</g>
<!-- s1 -->
<g id="node5" class="node"><title>s1</title>
<ellipse fill="none" stroke="black" cx="112" cy="-229.194" rx="18" ry="18"/>
<text text-anchor="middle" x="112" y="-224.994" font-family="Times,serif" font-size="14.00">s1</text>
</g>
<!-- s0&#45;&gt;s1 -->
<g id="edge1" class="edge"><title>s0&#45;&gt;s1</title>
<path fill="none" stroke="black" d="M24.6729,-120.332C27.7831,-146.05 36.6641,-188.144 62,-213.194 67.9958,-219.122 76.2154,-222.854 84.2099,-225.203"/>
<polygon fill="black" stroke="black" points="83.497,-228.63 94.0314,-227.5 85.0914,-221.814 83.497,-228.63"/>
<text text-anchor="middle" x="69" y="-224.994" font-family="Times,serif" font-size="14.00">{</text>
</g>
<!-- s0&#45;&gt;s1 -->
<g id="edge2" class="edge"><title>s0&#45;&gt;s1</title>
<path fill="none" stroke="black" d="M35.0515,-116.134C50.7997,-139.577 78.3948,-180.656 95.6307,-206.314"/>
<polygon fill="black" stroke="black" points="92.7772,-208.343 101.259,-214.693 98.5879,-204.44 92.7772,-208.343"/>
<text text-anchor="middle" x="69" y="-177.994" font-family="Times,serif" font-size="14.00">λ</text>
</g>
<!-- s3 -->
<g id="node6" class="node"><title>s3</title>
<ellipse fill="none" stroke="black" cx="112" cy="-161.194" rx="18" ry="18"/>
<text text-anchor="middle" x="112" y="-156.994" font-family="Times,serif" font-size="14.00">s3</text>
</g>
<!-- s0&#45;&gt;s3 -->
<g id="edge3" class="edge"><title>s0&#45;&gt;s3</title>
<path fill="none" stroke="black" d="M40.386,-110.64C54.2037,-120.533 73.6305,-134.44 88.611,-145.165"/>
<polygon fill="black" stroke="black" points="86.6729,-148.082 96.8414,-151.057 90.7477,-142.39 86.6729,-148.082"/>
<text text-anchor="middle" x="69" y="-137.994" font-family="Times,serif" font-size="14.00">{</text>
</g>
<!-- s5 -->
<g id="node7" class="node"><title>s5</title>
<ellipse fill="none" stroke="black" cx="112" cy="-43.1937" rx="18" ry="18"/>
<text text-anchor="middle" x="112" y="-38.9937" font-family="Times,serif" font-size="14.00">s5</text>
</g>
<!-- s0&#45;&gt;s5 -->
<g id="edge4" class="edge"><title>s0&#45;&gt;s5</title>
<path fill="none" stroke="black" d="M43.8433,-101.185C54.1423,-101.666 66.3885,-100.664 76,-95.1937 86.4269,-89.2588 94.3644,-78.7913 100.023,-68.7959"/>
<polygon fill="black" stroke="black" points="103.139,-70.3887 104.584,-59.8929 96.9094,-67.1967 103.139,-70.3887"/>
<text text-anchor="middle" x="69" y="-108.994" font-family="Times,serif" font-size="14.00">◉</text>
</g>
<!-- s0&#45;&gt;s5 -->
<g id="edge5" class="edge"><title>s0&#45;&gt;s5</title>
<path fill="none" stroke="black" d="M41.2337,-86.7977C54.6139,-78.435 72.9026,-67.0046 87.3981,-57.9449"/>
<polygon fill="black" stroke="black" points="89.6613,-60.6578 96.2863,-52.3898 85.9513,-54.7218 89.6613,-60.6578"/>
<text text-anchor="middle" x="69" y="-74.9937" font-family="Times,serif" font-size="14.00">λ</text>
</g>
<!-- s0&#45;&gt;s5 -->
<g id="edge6" class="edge"><title>s0&#45;&gt;s5</title>
<path fill="none" stroke="black" d="M32.4965,-78.8508C39.1206,-67.5827 49.0859,-54.2437 62,-47.1937 68.5177,-43.6356 76.2646,-42.0339 83.6525,-41.4698"/>
<polygon fill="black" stroke="black" points="83.7645,-44.9684 93.6919,-41.2675 83.6234,-37.9698 83.7645,-44.9684"/>
<text text-anchor="middle" x="69" y="-49.9937" font-family="Times,serif" font-size="14.00">%</text>
</g>
<!-- s0&#45;&gt;s5 -->
<g id="edge7" class="edge"><title>s0&#45;&gt;s5</title>
<path fill="none" stroke="black" d="M27.8249,-76.7763C33.0293,-59.2323 43.2242,-35.5221 62,-24.1937 70.4653,-19.0861 80.5433,-21.7065 89.3521,-26.4279"/>
<polygon fill="black" stroke="black" points="87.6304,-29.4802 97.9516,-31.8726 91.375,-23.566 87.6304,-29.4802"/>
<text text-anchor="middle" x="69" y="-26.9937" font-family="Times,serif" font-size="14.00">{</text>
</g>
<!-- s2 -->
<g id="node2" class="node"><title>s2</title>
<ellipse fill="none" stroke="black" cx="199.662" cy="-229.194" rx="18" ry="18"/>
<ellipse fill="none" stroke="black" cx="199.662" cy="-229.194" rx="22" ry="22"/>
<text text-anchor="middle" x="199.662" y="-224.994" font-family="Times,serif" font-size="14.00">s2</text>
</g>
<!-- s4 -->
<g id="node3" class="node"><title>s4</title>
<ellipse fill="none" stroke="black" cx="199.662" cy="-161.194" rx="18" ry="18"/>
<ellipse fill="none" stroke="black" cx="199.662" cy="-161.194" rx="22" ry="22"/>
<text text-anchor="middle" x="199.662" y="-156.994" font-family="Times,serif" font-size="14.00">s4</text>
</g>
<!-- s6 -->
<g id="node4" class="node"><title>s6</title>
<ellipse fill="none" stroke="black" cx="199.662" cy="-43.1937" rx="18" ry="18"/>
<ellipse fill="none" stroke="black" cx="199.662" cy="-43.1937" rx="22" ry="22"/>
<text text-anchor="middle" x="199.662" y="-38.9937" font-family="Times,serif" font-size="14.00">s6</text>
</g>
<!-- s1&#45;&gt;s2 -->
<g id="edge8" class="edge"><title>s1&#45;&gt;s2</title>
<path fill="none" stroke="black" d="M130.335,-229.194C140.953,-229.194 154.858,-229.194 167.35,-229.194"/>
<polygon fill="black" stroke="black" points="167.408,-232.694 177.408,-229.194 167.408,-225.694 167.408,-232.694"/>
<text text-anchor="middle" x="153.831" y="-231.994" font-family="Times,serif" font-size="14.00">τ</text>
</g>
<!-- s3&#45;&gt;s4 -->
<g id="edge9" class="edge"><title>s3&#45;&gt;s4</title>
<path fill="none" stroke="black" d="M130.335,-161.194C140.953,-161.194 154.858,-161.194 167.35,-161.194"/>
<polygon fill="black" stroke="black" points="167.408,-164.694 177.408,-161.194 167.408,-157.694 167.408,-164.694"/>
<text text-anchor="middle" x="153.831" y="-163.994" font-family="Times,serif" font-size="14.00">%</text>
</g>
<!-- s5&#45;&gt;s0 -->
<g id="edge10" class="edge"><title>s5&#45;&gt;s0</title>
<path fill="none" stroke="black" d="M102.532,-27.799C93.0552,-12.6369 77.0499,6.89668 62,-3.19369 41.1623,-17.1645 31.449,-44.4795 26.9264,-66.2478"/>
<polygon fill="black" stroke="black" points="23.4806,-65.6346 25.1447,-76.0979 30.3688,-66.8806 23.4806,-65.6346"/>
<text text-anchor="middle" x="69" y="-5.99369" font-family="Times,serif" font-size="14.00">λ</text>
</g>
<!-- s5&#45;&gt;s6 -->
<g id="edge11" class="edge"><title>s5&#45;&gt;s6</title>
<path fill="none" stroke="black" d="M130.335,-43.1937C140.953,-43.1937 154.858,-43.1937 167.35,-43.1937"/>
<polygon fill="black" stroke="black" points="167.408,-46.6938 177.408,-43.1937 167.408,-39.6938 167.408,-46.6938"/>
<text text-anchor="middle" x="153.831" y="-45.9937" font-family="Times,serif" font-size="14.00">τ</text>
</g>
</g>
</svg>
