<?xml version="1.0" encoding="UTF-8" standalone="no"?>
<!DOCTYPE svg PUBLIC "-//W3C//DTD SVG 1.1//EN"
 "http://www.w3.org/Graphics/SVG/1.1/DTD/svg11.dtd">
<!-- Generated by graphviz version 12.2.1 (20241206.2353)
 -->
<!-- Title: finite_state_machine Pages: 1 -->
<svg width="237pt" height="359pt"
 viewBox="0.00 0.00 236.90 359.03" xmlns="http://www.w3.org/2000/svg" xmlns:xlink="http://www.w3.org/1999/xlink">
<g id="graph0" class="graph" transform="scale(1 1) rotate(0) translate(4 355.03)">
<title>finite_state_machine</title>
<polygon fill="white" stroke="none" points="-4,4 -4,-355.03 232.9,-355.03 232.9,4 -4,4"/>
<text text-anchor="middle" x="114.45" y="-72.7" font-family="Times,serif" font-size="14.00">Regular Expression: </text>
<text text-anchor="middle" x="114.45" y="-56.2" font-family="Times,serif" font-size="14.00">{{</text>
<text text-anchor="middle" x="114.45" y="-39.7" font-family="Times,serif" font-size="14.00">{%</text>
<text text-anchor="middle" x="114.45" y="-23.2" font-family="Times,serif" font-size="14.00">.*</text>
<!-- s0 -->
<g id="node1" class="node">
<title>s0</title>
<ellipse fill="none" stroke="black" cx="23.11" cy="-197.92" rx="19.11" ry="19.11"/>
<ellipse fill="none" stroke="black" cx="23.11" cy="-197.92" rx="23.11" ry="23.11"/>
<text text-anchor="middle" x="23.11" y="-192.87" font-family="Times,serif" font-size="14.00">s0</text>
</g>
<!-- s1 -->
<g id="node5" class="node">
<title>s1</title>
<ellipse fill="none" stroke="black" cx="115.57" cy="-327.92" rx="19.11" ry="19.11"/>
<text text-anchor="middle" x="115.57" y="-322.87" font-family="Times,serif" font-size="14.00">s1</text>
</g>
<!-- s0&#45;&gt;s1 -->
<g id="edge1" class="edge">
<title>s0&#45;&gt;s1</title>
<path fill="none" stroke="black" d="M25.82,-220.92C29.01,-247.1 38.13,-289.4 64.22,-313.92 69.92,-319.28 77.51,-322.62 85.05,-324.69"/>
<polygon fill="black" stroke="black" points="84.25,-328.1 94.75,-326.65 85.64,-321.24 84.25,-328.1"/>
<text text-anchor="middle" x="71.34" y="-325.24" font-family="Times,serif" font-size="14.00">{</text>
</g>
<!-- s0&#45;&gt;s1 -->
<g id="edge2" class="edge">
<title>s0&#45;&gt;s1</title>
<path fill="none" stroke="black" d="M35.76,-217.54C43.53,-230.36 54.14,-247.37 64.22,-261.92 74.22,-276.36 86.12,-292.02 95.84,-304.46"/>
<polygon fill="black" stroke="black" points="92.9,-306.39 101.84,-312.08 98.4,-302.06 92.9,-306.39"/>
<text text-anchor="middle" x="71.34" y="-283.63" font-family="Times,serif" font-size="14.00">λ</text>
</g>
<!-- s3 -->
<g id="node6" class="node">
<title>s3</title>
<ellipse fill="none" stroke="black" cx="115.57" cy="-255.92" rx="19.11" ry="19.11"/>
<text text-anchor="middle" x="115.57" y="-250.87" font-family="Times,serif" font-size="14.00">s3</text>
</g>
<!-- s0&#45;&gt;s3 -->
<g id="edge3" class="edge">
<title>s0&#45;&gt;s3</title>
<path fill="none" stroke="black" d="M39.92,-214.26C46.94,-220.92 55.56,-228.35 64.22,-233.92 71.12,-238.36 79.06,-242.3 86.57,-245.57"/>
<polygon fill="black" stroke="black" points="85.11,-248.76 95.7,-249.3 87.76,-242.28 85.11,-248.76"/>
<text text-anchor="middle" x="71.34" y="-244.48" font-family="Times,serif" font-size="14.00">{</text>
</g>
<!-- s5 -->
<g id="node7" class="node">
<title>s5</title>
<ellipse fill="none" stroke="black" cx="115.57" cy="-137.92" rx="19.11" ry="19.11"/>
<text text-anchor="middle" x="115.57" y="-132.87" font-family="Times,serif" font-size="14.00">s5</text>
</g>
<!-- s0&#45;&gt;s5 -->
<g id="edge4" class="edge">
<title>s0&#45;&gt;s5</title>
<path fill="none" stroke="black" d="M46.33,-201.69C56.73,-202.35 68.91,-201.46 78.47,-195.92 89.82,-189.34 98.1,-177.61 103.85,-166.42"/>
<polygon fill="black" stroke="black" points="106.99,-167.96 107.97,-157.41 100.63,-165.04 106.99,-167.96"/>
<text text-anchor="middle" x="71.34" y="-202.48" font-family="Times,serif" font-size="14.00">◉</text>
</g>
<!-- s0&#45;&gt;s5 -->
<g id="edge5" class="edge">
<title>s0&#45;&gt;s5</title>
<path fill="none" stroke="black" d="M42.85,-185.49C56.39,-176.51 74.82,-164.28 89.61,-154.48"/>
<polygon fill="black" stroke="black" points="91.5,-157.42 97.9,-148.98 87.63,-151.59 91.5,-157.42"/>
<text text-anchor="middle" x="71.34" y="-172.92" font-family="Times,serif" font-size="14.00">λ</text>
</g>
<!-- s0&#45;&gt;s5 -->
<g id="edge6" class="edge">
<title>s0&#45;&gt;s5</title>
<path fill="none" stroke="black" d="M33.62,-176.93C40.34,-164.69 50.57,-150.18 64.22,-142.42 70.37,-138.92 77.66,-137.17 84.74,-136.43"/>
<polygon fill="black" stroke="black" points="84.87,-139.93 94.73,-136.05 84.6,-132.94 84.87,-139.93"/>
<text text-anchor="middle" x="71.34" y="-145.62" font-family="Times,serif" font-size="14.00">%</text>
</g>
<!-- s0&#45;&gt;s5 -->
<g id="edge7" class="edge">
<title>s0&#45;&gt;s5</title>
<path fill="none" stroke="black" d="M28.41,-175.15C33.41,-155.79 43.73,-129.17 64.22,-116.42 72.78,-111.09 82.89,-113.87 91.8,-118.95"/>
<polygon fill="black" stroke="black" points="89.71,-121.77 99.95,-124.51 93.65,-115.98 89.71,-121.77"/>
<text text-anchor="middle" x="71.34" y="-119.62" font-family="Times,serif" font-size="14.00">{</text>
</g>
<!-- s2 -->
<g id="node2" class="node">
<title>s2</title>
<ellipse fill="none" stroke="black" cx="205.79" cy="-327.92" rx="19.11" ry="19.11"/>
<ellipse fill="none" stroke="black" cx="205.79" cy="-327.92" rx="23.11" ry="23.11"/>
<text text-anchor="middle" x="205.79" y="-322.87" font-family="Times,serif" font-size="14.00">s2</text>
</g>
<!-- s4 -->
<g id="node3" class="node">
<title>s4</title>
<ellipse fill="none" stroke="black" cx="205.79" cy="-255.92" rx="19.11" ry="19.11"/>
<ellipse fill="none" stroke="black" cx="205.79" cy="-255.92" rx="23.11" ry="23.11"/>
<text text-anchor="middle" x="205.79" y="-250.87" font-family="Times,serif" font-size="14.00">s4</text>
</g>
<!-- s6 -->
<g id="node4" class="node">
<title>s6</title>
<ellipse fill="none" stroke="black" cx="205.79" cy="-137.92" rx="19.11" ry="19.11"/>
<ellipse fill="none" stroke="black" cx="205.79" cy="-137.92" rx="23.11" ry="23.11"/>
<text text-anchor="middle" x="205.79" y="-132.87" font-family="Times,serif" font-size="14.00">s6</text>
</g>
<!-- s1&#45;&gt;s2 -->
<g id="edge8" class="edge">
<title>s1&#45;&gt;s2</title>
<path fill="none" stroke="black" d="M134.85,-327.92C145.33,-327.92 158.81,-327.92 171.14,-327.92"/>
<polygon fill="black" stroke="black" points="170.95,-331.42 180.95,-327.92 170.95,-324.42 170.95,-331.42"/>
<text text-anchor="middle" x="158.68" y="-331.12" font-family="Times,serif" font-size="14.00">τ</text>
</g>
<!-- s3&#45;&gt;s4 -->
<g id="edge9" class="edge">
<title>s3&#45;&gt;s4</title>
<path fill="none" stroke="black" d="M134.85,-255.92C145.33,-255.92 158.81,-255.92 171.14,-255.92"/>
<polygon fill="black" stroke="black" points="170.95,-259.42 180.95,-255.92 170.95,-252.42 170.95,-259.42"/>
<text text-anchor="middle" x="158.68" y="-259.12" font-family="Times,serif" font-size="14.00">%</text>
</g>
<!-- s5&#45;&gt;s0 -->
<g id="edge10" class="edge">
<title>s5&#45;&gt;s0</title>
<path fill="none" stroke="black" d="M106.02,-120.91C96.41,-104.15 80.08,-82.51 64.22,-93.42 41.51,-109.03 31.65,-139.4 27.37,-163.4"/>
<polygon fill="black" stroke="black" points="23.94,-162.67 25.92,-173.08 30.87,-163.71 23.94,-162.67"/>
<text text-anchor="middle" x="71.34" y="-96.62" font-family="Times,serif" font-size="14.00">λ</text>
</g>
<!-- s5&#45;&gt;s6 -->
<g id="edge11" class="edge">
<title>s5&#45;&gt;s6</title>
<path fill="none" stroke="black" d="M134.85,-137.92C145.33,-137.92 158.81,-137.92 171.14,-137.92"/>
<polygon fill="black" stroke="black" points="170.95,-141.42 180.95,-137.92 170.95,-134.42 170.95,-141.42"/>
<text text-anchor="middle" x="158.68" y="-141.12" font-family="Times,serif" font-size="14.00">τ</text>
</g>
</g>
</svg>
