<?xml version="1.0" encoding="UTF-8" standalone="no"?>
<!DOCTYPE svg PUBLIC "-//W3C//DTD SVG 1.1//EN"
 "http://www.w3.org/Graphics/SVG/1.1/DTD/svg11.dtd">
<!-- Generated by graphviz version 2.38.0 (20140413.2041)
 -->
<!-- Title: finite_state_machine Pages: 1 -->
<svg width="225pt" height="163pt"
 viewBox="0.00 0.00 224.72 163.19" xmlns="http://www.w3.org/2000/svg" xmlns:xlink="http://www.w3.org/1999/xlink">
<g id="graph0" class="graph" transform="scale(1 1) rotate(0) translate(4 159.188)">
<title>finite_state_machine</title>
<polygon fill="white" stroke="none" points="-4,4 -4,-159.188 220.72,-159.188 220.72,4 -4,4"/>
<!-- s0 -->
<g id="node1" class="node"><title>s0</title>
<ellipse fill="none" stroke="black" cx="22" cy="-52.1881" rx="18" ry="18"/>
<ellipse fill="none" stroke="black" cx="22" cy="-52.1881" rx="22" ry="22"/>
<text text-anchor="middle" x="22" y="-47.9881" font-family="Times,serif" font-size="14.00">s0</text>
</g>
<!-- s1 -->
<g id="node4" class="node"><title>s1</title>
<ellipse fill="none" stroke="black" cx="112" cy="-133.188" rx="18" ry="18"/>
<text text-anchor="middle" x="112" y="-128.988" font-family="Times,serif" font-size="14.00">s1</text>
</g>
<!-- s0&#45;&gt;s1 -->
<g id="edge1" class="edge"><title>s0&#45;&gt;s1</title>
<path fill="none" stroke="black" d="M37.2724,-68.6868C44.4286,-76.6606 53.3875,-86.2075 62,-94.1881 70.3738,-101.948 80.1217,-109.903 88.7077,-116.588"/>
<polygon fill="black" stroke="black" points="86.7453,-119.493 96.8125,-122.795 91.0016,-113.936 86.7453,-119.493"/>
<text text-anchor="middle" x="69" y="-108.988" font-family="Times,serif" font-size="14.00">}</text>
</g>
<!-- s3 -->
<g id="node5" class="node"><title>s3</title>
<ellipse fill="none" stroke="black" cx="112" cy="-33.1881" rx="18" ry="18"/>
<text text-anchor="middle" x="112" y="-28.9881" font-family="Times,serif" font-size="14.00">s3</text>
</g>
<!-- s0&#45;&gt;s3 -->
<g id="edge2" class="edge"><title>s0&#45;&gt;s3</title>
<path fill="none" stroke="black" d="M41.4835,-63.3685C51.8213,-68.1554 64.8349,-71.7183 76,-67.1881 82.6454,-64.4917 88.7231,-59.8606 93.8819,-54.8692"/>
<polygon fill="black" stroke="black" points="96.5019,-57.1914 100.742,-47.4818 91.3723,-52.4282 96.5019,-57.1914"/>
<text text-anchor="middle" x="69" y="-78.9881" font-family="Times,serif" font-size="14.00">◉</text>
</g>
<!-- s0&#45;&gt;s3 -->
<g id="edge3" class="edge"><title>s0&#45;&gt;s3</title>
<path fill="none" stroke="black" d="M43.8548,-47.6854C55.9664,-45.0704 71.3489,-41.7491 84.334,-38.9455"/>
<polygon fill="black" stroke="black" points="85.0894,-42.3632 94.1255,-36.8315 83.612,-35.5208 85.0894,-42.3632"/>
<text text-anchor="middle" x="69" y="-45.9881" font-family="Times,serif" font-size="14.00">λ</text>
</g>
<!-- s0&#45;&gt;s3 -->
<g id="edge4" class="edge"><title>s0&#45;&gt;s3</title>
<path fill="none" stroke="black" d="M38.2754,-36.6798C44.9598,-30.9624 53.2657,-25.1588 62,-22.1881 69.5759,-19.6114 78.0179,-20.2962 85.7311,-22.2351"/>
<polygon fill="black" stroke="black" points="84.7252,-25.5882 95.3171,-25.3374 86.8806,-18.9283 84.7252,-25.5882"/>
<text text-anchor="middle" x="69" y="-24.9881" font-family="Times,serif" font-size="14.00">}</text>
</g>
<!-- s2 -->
<g id="node2" class="node"><title>s2</title>
<ellipse fill="none" stroke="black" cx="194.72" cy="-133.188" rx="18" ry="18"/>
<ellipse fill="none" stroke="black" cx="194.72" cy="-133.188" rx="22" ry="22"/>
<text text-anchor="middle" x="194.72" y="-128.988" font-family="Times,serif" font-size="14.00">s2</text>
</g>
<!-- s4 -->
<g id="node3" class="node"><title>s4</title>
<ellipse fill="none" stroke="black" cx="194.72" cy="-33.1881" rx="18" ry="18"/>
<ellipse fill="none" stroke="black" cx="194.72" cy="-33.1881" rx="22" ry="22"/>
<text text-anchor="middle" x="194.72" y="-28.9881" font-family="Times,serif" font-size="14.00">s4</text>
</g>
<!-- s1&#45;&gt;s2 -->
<g id="edge5" class="edge"><title>s1&#45;&gt;s2</title>
<path fill="none" stroke="black" d="M130.119,-133.188C139.517,-133.188 151.467,-133.188 162.465,-133.188"/>
<polygon fill="black" stroke="black" points="162.604,-136.688 172.604,-133.188 162.604,-129.688 162.604,-136.688"/>
<text text-anchor="middle" x="151.36" y="-135.988" font-family="Times,serif" font-size="14.00">}</text>
</g>
<!-- s3&#45;&gt;s0 -->
<g id="edge6" class="edge"><title>s3&#45;&gt;s0</title>
<path fill="none" stroke="black" d="M100.497,-19.1066C90.833,-7.98649 75.9307,4.61324 62,-2.1881 52.2803,-6.93352 44.2768,-15.4012 38.1038,-24.035"/>
<polygon fill="black" stroke="black" points="35.0573,-22.2997 32.5452,-32.5924 40.9276,-26.1129 35.0573,-22.2997"/>
<text text-anchor="middle" x="69" y="-4.9881" font-family="Times,serif" font-size="14.00">λ</text>
</g>
<!-- s3&#45;&gt;s4 -->
<g id="edge7" class="edge"><title>s3&#45;&gt;s4</title>
<path fill="none" stroke="black" d="M130.119,-33.1881C139.517,-33.1881 151.467,-33.1881 162.465,-33.1881"/>
<polygon fill="black" stroke="black" points="162.604,-36.6882 172.604,-33.1881 162.604,-29.6882 162.604,-36.6882"/>
<text text-anchor="middle" x="151.36" y="-35.9881" font-family="Times,serif" font-size="14.00">τ</text>
</g>
</g>
</svg>
