<?xml version="1.0" encoding="UTF-8" standalone="no"?>
<!DOCTYPE svg PUBLIC "-//W3C//DTD SVG 1.1//EN"
 "http://www.w3.org/Graphics/SVG/1.1/DTD/svg11.dtd">
<!-- Generated by graphviz version 12.2.1 (20241206.2353)
 -->
<!-- Title: finite_state_machine Pages: 1 -->
<svg width="232pt" height="223pt"
 viewBox="0.00 0.00 231.65 222.95" xmlns="http://www.w3.org/2000/svg" xmlns:xlink="http://www.w3.org/1999/xlink">
<g id="graph0" class="graph" transform="scale(1 1) rotate(0) translate(4 218.95)">
<title>finite_state_machine</title>
<polygon fill="white" stroke="none" points="-4,4 -4,-218.95 227.65,-218.95 227.65,4 -4,4"/>
<text text-anchor="middle" x="111.82" y="-7.2" font-family="Times,serif" font-size="14.00">Regular Expression: %}.*</text>
<!-- s0 -->
<g id="node1" class="node">
<title>s0</title>
<ellipse fill="none" stroke="black" cx="23.11" cy="-93.84" rx="19.11" ry="19.11"/>
<ellipse fill="none" stroke="black" cx="23.11" cy="-93.84" rx="23.11" ry="23.11"/>
<text text-anchor="middle" x="23.11" y="-88.79" font-family="Times,serif" font-size="14.00">s0</text>
</g>
<!-- s1 -->
<g id="node4" class="node">
<title>s1</title>
<ellipse fill="none" stroke="black" cx="115.57" cy="-191.84" rx="19.11" ry="19.11"/>
<text text-anchor="middle" x="115.57" y="-186.79" font-family="Times,serif" font-size="14.00">s1</text>
</g>
<!-- s0&#45;&gt;s1 -->
<g id="edge1" class="edge">
<title>s0&#45;&gt;s1</title>
<path fill="none" stroke="black" d="M35.51,-113.85C42.86,-125.85 53.1,-141.02 64.22,-152.84 71.81,-160.92 81.18,-168.65 89.77,-175.07"/>
<polygon fill="black" stroke="black" points="87.61,-177.83 97.77,-180.83 91.69,-172.15 87.61,-177.83"/>
<text text-anchor="middle" x="71.34" y="-169.16" font-family="Times,serif" font-size="14.00">%</text>
</g>
<!-- s3 -->
<g id="node5" class="node">
<title>s3</title>
<ellipse fill="none" stroke="black" cx="115.57" cy="-73.84" rx="19.11" ry="19.11"/>
<text text-anchor="middle" x="115.57" y="-68.79" font-family="Times,serif" font-size="14.00">s3</text>
</g>
<!-- s0&#45;&gt;s3 -->
<g id="edge2" class="edge">
<title>s0&#45;&gt;s3</title>
<path fill="none" stroke="black" d="M37.01,-112.84C47.73,-126.12 63.57,-140.12 78.47,-131.84 89.94,-125.47 98.24,-113.77 103.97,-102.54"/>
<polygon fill="black" stroke="black" points="107.13,-104.04 108.06,-93.49 100.75,-101.15 107.13,-104.04"/>
<text text-anchor="middle" x="71.34" y="-136.02" font-family="Times,serif" font-size="14.00">◉</text>
</g>
<!-- s0&#45;&gt;s3 -->
<g id="edge3" class="edge">
<title>s0&#45;&gt;s3</title>
<path fill="none" stroke="black" d="M46.63,-95.14C56.53,-95.16 68.22,-94.45 78.47,-91.84 81.71,-91.01 85,-89.87 88.21,-88.55"/>
<polygon fill="black" stroke="black" points="89.7,-91.72 97.24,-84.28 86.71,-85.39 89.7,-91.72"/>
<text text-anchor="middle" x="71.34" y="-97.38" font-family="Times,serif" font-size="14.00">λ</text>
</g>
<!-- s0&#45;&gt;s3 -->
<g id="edge4" class="edge">
<title>s0&#45;&gt;s3</title>
<path fill="none" stroke="black" d="M42.43,-80.97C48.99,-77.08 56.64,-73.32 64.22,-71.34 70.94,-69.58 78.34,-69.16 85.35,-69.41"/>
<polygon fill="black" stroke="black" points="84.83,-72.87 95.08,-70.22 85.41,-65.9 84.83,-72.87"/>
<text text-anchor="middle" x="71.34" y="-74.54" font-family="Times,serif" font-size="14.00">%</text>
</g>
<!-- s0&#45;&gt;s3 -->
<g id="edge5" class="edge">
<title>s0&#45;&gt;s3</title>
<path fill="none" stroke="black" d="M36.04,-74.27C42.97,-64.85 52.62,-54.5 64.22,-49.34 73.51,-45.21 83.62,-48.54 92.32,-53.94"/>
<polygon fill="black" stroke="black" points="90.08,-56.63 100.21,-59.71 94.21,-50.98 90.08,-56.63"/>
<text text-anchor="middle" x="71.34" y="-52.54" font-family="Times,serif" font-size="14.00">}</text>
</g>
<!-- s2 -->
<g id="node2" class="node">
<title>s2</title>
<ellipse fill="none" stroke="black" cx="200.54" cy="-191.84" rx="19.11" ry="19.11"/>
<ellipse fill="none" stroke="black" cx="200.54" cy="-191.84" rx="23.11" ry="23.11"/>
<text text-anchor="middle" x="200.54" y="-186.79" font-family="Times,serif" font-size="14.00">s2</text>
</g>
<!-- s4 -->
<g id="node3" class="node">
<title>s4</title>
<ellipse fill="none" stroke="black" cx="200.54" cy="-73.84" rx="19.11" ry="19.11"/>
<ellipse fill="none" stroke="black" cx="200.54" cy="-73.84" rx="23.11" ry="23.11"/>
<text text-anchor="middle" x="200.54" y="-68.79" font-family="Times,serif" font-size="14.00">s4</text>
</g>
<!-- s1&#45;&gt;s2 -->
<g id="edge6" class="edge">
<title>s1&#45;&gt;s2</title>
<path fill="none" stroke="black" d="M134.99,-191.84C144,-191.84 155.15,-191.84 165.64,-191.84"/>
<polygon fill="black" stroke="black" points="165.52,-195.34 175.52,-191.84 165.52,-188.34 165.52,-195.34"/>
<text text-anchor="middle" x="156.06" y="-195.04" font-family="Times,serif" font-size="14.00">}</text>
</g>
<!-- s3&#45;&gt;s0 -->
<g id="edge7" class="edge">
<title>s3&#45;&gt;s0</title>
<path fill="none" stroke="black" d="M106.49,-56.73C97.29,-39.8 81.31,-17.69 64.22,-27.34 51.06,-34.77 41.74,-48.43 35.41,-61.45"/>
<polygon fill="black" stroke="black" points="32.37,-59.67 31.57,-70.24 38.79,-62.48 32.37,-59.67"/>
<text text-anchor="middle" x="71.34" y="-30.54" font-family="Times,serif" font-size="14.00">λ</text>
</g>
<!-- s3&#45;&gt;s4 -->
<g id="edge8" class="edge">
<title>s3&#45;&gt;s4</title>
<path fill="none" stroke="black" d="M134.99,-73.84C144,-73.84 155.15,-73.84 165.64,-73.84"/>
<polygon fill="black" stroke="black" points="165.52,-77.34 175.52,-73.84 165.52,-70.34 165.52,-77.34"/>
<text text-anchor="middle" x="156.06" y="-77.04" font-family="Times,serif" font-size="14.00">τ</text>
</g>
</g>
</svg>
