<?xml version="1.0" encoding="UTF-8" standalone="no"?>
<!DOCTYPE svg PUBLIC "-//W3C//DTD SVG 1.1//EN"
 "http://www.w3.org/Graphics/SVG/1.1/DTD/svg11.dtd">
<!-- Generated by graphviz version 2.38.0 (20140413.2041)
 -->
<!-- Title: finite_state_machine Pages: 1 -->
<svg width="225pt" height="194pt"
 viewBox="0.00 0.00 224.72 193.65" xmlns="http://www.w3.org/2000/svg" xmlns:xlink="http://www.w3.org/1999/xlink">
<g id="graph0" class="graph" transform="scale(1 1) rotate(0) translate(4 189.646)">
<title>finite_state_machine</title>
<polygon fill="white" stroke="none" points="-4,4 -4,-189.646 220.72,-189.646 220.72,4 -4,4"/>
<!-- s0 -->
<g id="node1" class="node"><title>s0</title>
<ellipse fill="none" stroke="black" cx="22" cy="-63.6455" rx="18" ry="18"/>
<ellipse fill="none" stroke="black" cx="22" cy="-63.6455" rx="22" ry="22"/>
<text text-anchor="middle" x="22" y="-59.4455" font-family="Times,serif" font-size="14.00">s0</text>
</g>
<!-- s1 -->
<g id="node4" class="node"><title>s1</title>
<ellipse fill="none" stroke="black" cx="112" cy="-163.646" rx="18" ry="18"/>
<text text-anchor="middle" x="112" y="-159.446" font-family="Times,serif" font-size="14.00">s1</text>
</g>
<!-- s0&#45;&gt;s1 -->
<g id="edge1" class="edge"><title>s0&#45;&gt;s1</title>
<path fill="none" stroke="black" d="M33.1286,-82.9207C40.2615,-95.5268 50.5529,-111.949 62,-124.646 69.7537,-133.245 79.5365,-141.44 88.3181,-148.077"/>
<polygon fill="black" stroke="black" points="86.5112,-151.091 96.6539,-154.154 90.6346,-145.435 86.5112,-151.091"/>
<text text-anchor="middle" x="69" y="-140.446" font-family="Times,serif" font-size="14.00">%</text>
</g>
<!-- s3 -->
<g id="node5" class="node"><title>s3</title>
<ellipse fill="none" stroke="black" cx="112" cy="-45.6455" rx="18" ry="18"/>
<text text-anchor="middle" x="112" y="-41.4455" font-family="Times,serif" font-size="14.00">s3</text>
</g>
<!-- s0&#45;&gt;s3 -->
<g id="edge2" class="edge"><title>s0&#45;&gt;s3</title>
<path fill="none" stroke="black" d="M36.1433,-81.2374C46.6539,-93.0321 61.9112,-105.146 76,-97.6455 86.6641,-91.9686 94.6611,-81.4364 100.299,-71.3275"/>
<polygon fill="black" stroke="black" points="103.465,-72.8219 104.822,-62.3143 97.2083,-69.6822 103.465,-72.8219"/>
<text text-anchor="middle" x="69" y="-109.446" font-family="Times,serif" font-size="14.00">◉</text>
</g>
<!-- s0&#45;&gt;s3 -->
<g id="edge3" class="edge"><title>s0&#45;&gt;s3</title>
<path fill="none" stroke="black" d="M44.1333,-64.1235C53.9391,-63.9207 65.6823,-63.0691 76,-60.6455 79.4512,-59.8348 82.9922,-58.7056 86.4341,-57.4268"/>
<polygon fill="black" stroke="black" points="87.8252,-60.639 95.7146,-53.5674 85.1372,-54.1756 87.8252,-60.639"/>
<text text-anchor="middle" x="69" y="-65.4455" font-family="Times,serif" font-size="14.00">λ</text>
</g>
<!-- s0&#45;&gt;s3 -->
<g id="edge4" class="edge"><title>s0&#45;&gt;s3</title>
<path fill="none" stroke="black" d="M40.8792,-51.6271C47.2645,-47.9971 54.6925,-44.4879 62,-42.6455 68.9962,-40.8816 76.7237,-40.6124 83.9337,-41.0422"/>
<polygon fill="black" stroke="black" points="83.675,-44.534 93.9815,-42.0794 84.3938,-37.571 83.675,-44.534"/>
<text text-anchor="middle" x="69" y="-45.4455" font-family="Times,serif" font-size="14.00">%</text>
</g>
<!-- s0&#45;&gt;s3 -->
<g id="edge5" class="edge"><title>s0&#45;&gt;s3</title>
<path fill="none" stroke="black" d="M34.8164,-45.5886C41.6116,-36.9032 50.9852,-27.3701 62,-22.6455 71.457,-18.5891 81.7887,-22.2108 90.5166,-27.6844"/>
<polygon fill="black" stroke="black" points="88.468,-30.5222 98.6181,-33.5595 92.5775,-24.8555 88.468,-30.5222"/>
<text text-anchor="middle" x="69" y="-25.4455" font-family="Times,serif" font-size="14.00">}</text>
</g>
<!-- s2 -->
<g id="node2" class="node"><title>s2</title>
<ellipse fill="none" stroke="black" cx="194.72" cy="-163.646" rx="18" ry="18"/>
<ellipse fill="none" stroke="black" cx="194.72" cy="-163.646" rx="22" ry="22"/>
<text text-anchor="middle" x="194.72" y="-159.446" font-family="Times,serif" font-size="14.00">s2</text>
</g>
<!-- s4 -->
<g id="node3" class="node"><title>s4</title>
<ellipse fill="none" stroke="black" cx="194.72" cy="-45.6455" rx="18" ry="18"/>
<ellipse fill="none" stroke="black" cx="194.72" cy="-45.6455" rx="22" ry="22"/>
<text text-anchor="middle" x="194.72" y="-41.4455" font-family="Times,serif" font-size="14.00">s4</text>
</g>
<!-- s1&#45;&gt;s2 -->
<g id="edge6" class="edge"><title>s1&#45;&gt;s2</title>
<path fill="none" stroke="black" d="M130.119,-163.646C139.517,-163.646 151.467,-163.646 162.465,-163.646"/>
<polygon fill="black" stroke="black" points="162.604,-167.146 172.604,-163.646 162.604,-160.146 162.604,-167.146"/>
<text text-anchor="middle" x="151.36" y="-166.446" font-family="Times,serif" font-size="14.00">}</text>
</g>
<!-- s3&#45;&gt;s0 -->
<g id="edge7" class="edge"><title>s3&#45;&gt;s0</title>
<path fill="none" stroke="black" d="M103.036,-29.8082C94.0007,-14.1321 78.3799,6.32362 62,-2.64551 49.7337,-9.36214 40.7631,-21.7622 34.5403,-33.6371"/>
<polygon fill="black" stroke="black" points="31.2558,-32.3945 30.1284,-42.9292 37.5793,-35.3969 31.2558,-32.3945"/>
<text text-anchor="middle" x="69" y="-5.44551" font-family="Times,serif" font-size="14.00">λ</text>
</g>
<!-- s3&#45;&gt;s4 -->
<g id="edge8" class="edge"><title>s3&#45;&gt;s4</title>
<path fill="none" stroke="black" d="M130.119,-45.6455C139.517,-45.6455 151.467,-45.6455 162.465,-45.6455"/>
<polygon fill="black" stroke="black" points="162.604,-49.1456 172.604,-45.6455 162.604,-42.1456 162.604,-49.1456"/>
<text text-anchor="middle" x="151.36" y="-48.4455" font-family="Times,serif" font-size="14.00">τ</text>
</g>
</g>
</svg>
