<?xml version="1.0" encoding="UTF-8" standalone="no"?>
<!DOCTYPE svg PUBLIC "-//W3C//DTD SVG 1.1//EN"
 "http://www.w3.org/Graphics/SVG/1.1/DTD/svg11.dtd">
<!-- Generated by graphviz version 12.2.1 (20241206.2353)
 -->
<!-- Title: finite_state_machine Pages: 1 -->
<svg width="237pt" height="269pt"
 viewBox="0.00 0.00 236.90 269.03" xmlns="http://www.w3.org/2000/svg" xmlns:xlink="http://www.w3.org/1999/xlink">
<g id="graph0" class="graph" transform="scale(1 1) rotate(0) translate(4 265.03)">
<title>finite_state_machine</title>
<polygon fill="white" stroke="none" points="-4,4 -4,-265.03 232.9,-265.03 232.9,4 -4,4"/>
<!-- s0 -->
<g id="node1" class="node">
<title>s0</title>
<ellipse fill="none" stroke="black" cx="23.11" cy="-107.92" rx="19.11" ry="19.11"/>
<ellipse fill="none" stroke="black" cx="23.11" cy="-107.92" rx="23.11" ry="23.11"/>
<text text-anchor="middle" x="23.11" y="-102.87" font-family="Times,serif" font-size="14.00">s0</text>
</g>
<!-- s1 -->
<g id="node5" class="node">
<title>s1</title>
<ellipse fill="none" stroke="black" cx="115.57" cy="-237.92" rx="19.11" ry="19.11"/>
<text text-anchor="middle" x="115.57" y="-232.87" font-family="Times,serif" font-size="14.00">s1</text>
</g>
<!-- s0&#45;&gt;s1 -->
<g id="edge1" class="edge">
<title>s0&#45;&gt;s1</title>
<path fill="none" stroke="black" d="M25.82,-130.92C29.01,-157.1 38.13,-199.4 64.22,-223.92 69.92,-229.28 77.51,-232.62 85.05,-234.69"/>
<polygon fill="black" stroke="black" points="84.25,-238.1 94.75,-236.65 85.64,-231.24 84.25,-238.1"/>
<text text-anchor="middle" x="71.34" y="-235.24" font-family="Times,serif" font-size="14.00">{</text>
</g>
<!-- s0&#45;&gt;s1 -->
<g id="edge2" class="edge">
<title>s0&#45;&gt;s1</title>
<path fill="none" stroke="black" d="M35.76,-127.54C43.53,-140.36 54.14,-157.37 64.22,-171.92 74.22,-186.36 86.12,-202.02 95.84,-214.46"/>
<polygon fill="black" stroke="black" points="92.9,-216.39 101.84,-222.08 98.4,-212.06 92.9,-216.39"/>
<text text-anchor="middle" x="71.34" y="-193.63" font-family="Times,serif" font-size="14.00">λ</text>
</g>
<!-- s3 -->
<g id="node6" class="node">
<title>s3</title>
<ellipse fill="none" stroke="black" cx="115.57" cy="-165.92" rx="19.11" ry="19.11"/>
<text text-anchor="middle" x="115.57" y="-160.87" font-family="Times,serif" font-size="14.00">s3</text>
</g>
<!-- s0&#45;&gt;s3 -->
<g id="edge3" class="edge">
<title>s0&#45;&gt;s3</title>
<path fill="none" stroke="black" d="M39.92,-124.26C46.94,-130.92 55.56,-138.35 64.22,-143.92 71.12,-148.36 79.06,-152.3 86.57,-155.57"/>
<polygon fill="black" stroke="black" points="85.11,-158.76 95.7,-159.3 87.76,-152.28 85.11,-158.76"/>
<text text-anchor="middle" x="71.34" y="-154.48" font-family="Times,serif" font-size="14.00">{</text>
</g>
<!-- s5 -->
<g id="node7" class="node">
<title>s5</title>
<ellipse fill="none" stroke="black" cx="115.57" cy="-47.92" rx="19.11" ry="19.11"/>
<text text-anchor="middle" x="115.57" y="-42.87" font-family="Times,serif" font-size="14.00">s5</text>
</g>
<!-- s0&#45;&gt;s5 -->
<g id="edge4" class="edge">
<title>s0&#45;&gt;s5</title>
<path fill="none" stroke="black" d="M46.33,-111.69C56.73,-112.35 68.91,-111.46 78.47,-105.92 89.82,-99.34 98.1,-87.61 103.85,-76.42"/>
<polygon fill="black" stroke="black" points="106.99,-77.96 107.97,-67.41 100.63,-75.04 106.99,-77.96"/>
<text text-anchor="middle" x="71.34" y="-112.48" font-family="Times,serif" font-size="14.00">◉</text>
</g>
<!-- s0&#45;&gt;s5 -->
<g id="edge5" class="edge">
<title>s0&#45;&gt;s5</title>
<path fill="none" stroke="black" d="M42.85,-95.49C56.39,-86.51 74.82,-74.28 89.61,-64.48"/>
<polygon fill="black" stroke="black" points="91.5,-67.42 97.9,-58.98 87.63,-61.59 91.5,-67.42"/>
<text text-anchor="middle" x="71.34" y="-82.92" font-family="Times,serif" font-size="14.00">λ</text>
</g>
<!-- s0&#45;&gt;s5 -->
<g id="edge6" class="edge">
<title>s0&#45;&gt;s5</title>
<path fill="none" stroke="black" d="M33.62,-86.93C40.34,-74.69 50.57,-60.18 64.22,-52.42 70.37,-48.92 77.66,-47.17 84.74,-46.43"/>
<polygon fill="black" stroke="black" points="84.87,-49.93 94.73,-46.05 84.6,-42.94 84.87,-49.93"/>
<text text-anchor="middle" x="71.34" y="-55.62" font-family="Times,serif" font-size="14.00">%</text>
</g>
<!-- s0&#45;&gt;s5 -->
<g id="edge7" class="edge">
<title>s0&#45;&gt;s5</title>
<path fill="none" stroke="black" d="M28.41,-85.15C33.41,-65.79 43.73,-39.17 64.22,-26.42 72.78,-21.09 82.89,-23.87 91.8,-28.95"/>
<polygon fill="black" stroke="black" points="89.71,-31.77 99.95,-34.51 93.65,-25.98 89.71,-31.77"/>
<text text-anchor="middle" x="71.34" y="-29.62" font-family="Times,serif" font-size="14.00">{</text>
</g>
<!-- s2 -->
<g id="node2" class="node">
<title>s2</title>
<ellipse fill="none" stroke="black" cx="205.79" cy="-237.92" rx="19.11" ry="19.11"/>
<ellipse fill="none" stroke="black" cx="205.79" cy="-237.92" rx="23.11" ry="23.11"/>
<text text-anchor="middle" x="205.79" y="-232.87" font-family="Times,serif" font-size="14.00">s2</text>
</g>
<!-- s4 -->
<g id="node3" class="node">
<title>s4</title>
<ellipse fill="none" stroke="black" cx="205.79" cy="-165.92" rx="19.11" ry="19.11"/>
<ellipse fill="none" stroke="black" cx="205.79" cy="-165.92" rx="23.11" ry="23.11"/>
<text text-anchor="middle" x="205.79" y="-160.87" font-family="Times,serif" font-size="14.00">s4</text>
</g>
<!-- s6 -->
<g id="node4" class="node">
<title>s6</title>
<ellipse fill="none" stroke="black" cx="205.79" cy="-47.92" rx="19.11" ry="19.11"/>
<ellipse fill="none" stroke="black" cx="205.79" cy="-47.92" rx="23.11" ry="23.11"/>
<text text-anchor="middle" x="205.79" y="-42.87" font-family="Times,serif" font-size="14.00">s6</text>
</g>
<!-- s1&#45;&gt;s2 -->
<g id="edge8" class="edge">
<title>s1&#45;&gt;s2</title>
<path fill="none" stroke="black" d="M134.85,-237.92C145.33,-237.92 158.81,-237.92 171.14,-237.92"/>
<polygon fill="black" stroke="black" points="170.95,-241.42 180.95,-237.92 170.95,-234.42 170.95,-241.42"/>
<text text-anchor="middle" x="158.68" y="-241.12" font-family="Times,serif" font-size="14.00">τ</text>
</g>
<!-- s3&#45;&gt;s4 -->
<g id="edge9" class="edge">
<title>s3&#45;&gt;s4</title>
<path fill="none" stroke="black" d="M134.85,-165.92C145.33,-165.92 158.81,-165.92 171.14,-165.92"/>
<polygon fill="black" stroke="black" points="170.95,-169.42 180.95,-165.92 170.95,-162.42 170.95,-169.42"/>
<text text-anchor="middle" x="158.68" y="-169.12" font-family="Times,serif" font-size="14.00">%</text>
</g>
<!-- s5&#45;&gt;s0 -->
<g id="edge10" class="edge">
<title>s5&#45;&gt;s0</title>
<path fill="none" stroke="black" d="M106.02,-30.91C96.41,-14.15 80.08,7.49 64.22,-3.42 41.51,-19.03 31.65,-49.4 27.37,-73.4"/>
<polygon fill="black" stroke="black" points="23.94,-72.67 25.92,-83.08 30.87,-73.71 23.94,-72.67"/>
<text text-anchor="middle" x="71.34" y="-6.62" font-family="Times,serif" font-size="14.00">λ</text>
</g>
<!-- s5&#45;&gt;s6 -->
<g id="edge11" class="edge">
<title>s5&#45;&gt;s6</title>
<path fill="none" stroke="black" d="M134.85,-47.92C145.33,-47.92 158.81,-47.92 171.14,-47.92"/>
<polygon fill="black" stroke="black" points="170.95,-51.42 180.95,-47.92 170.95,-44.42 170.95,-51.42"/>
<text text-anchor="middle" x="158.68" y="-51.12" font-family="Times,serif" font-size="14.00">τ</text>
</g>
</g>
</svg>
