<?xml version="1.0" encoding="UTF-8" standalone="no"?>
<!DOCTYPE svg PUBLIC "-//W3C//DTD SVG 1.1//EN"
 "http://www.w3.org/Graphics/SVG/1.1/DTD/svg11.dtd">
<!-- Generated by graphviz version 12.2.1 (20241206.2353)
 -->
<!-- Title: finite_state_machine Pages: 1 -->
<svg width="232pt" height="198pt"
 viewBox="0.00 0.00 231.65 198.45" xmlns="http://www.w3.org/2000/svg" xmlns:xlink="http://www.w3.org/1999/xlink">
<g id="graph0" class="graph" transform="scale(1 1) rotate(0) translate(4 194.45)">
<title>finite_state_machine</title>
<polygon fill="white" stroke="none" points="-4,4 -4,-194.45 227.65,-194.45 227.65,4 -4,4"/>
<!-- s0 -->
<g id="node1" class="node">
<title>s0</title>
<ellipse fill="none" stroke="black" cx="23.11" cy="-69.34" rx="19.11" ry="19.11"/>
<ellipse fill="none" stroke="black" cx="23.11" cy="-69.34" rx="23.11" ry="23.11"/>
<text text-anchor="middle" x="23.11" y="-64.29" font-family="Times,serif" font-size="14.00">s0</text>
</g>
<!-- s1 -->
<g id="node4" class="node">
<title>s1</title>
<ellipse fill="none" stroke="black" cx="115.57" cy="-167.34" rx="19.11" ry="19.11"/>
<text text-anchor="middle" x="115.57" y="-162.29" font-family="Times,serif" font-size="14.00">s1</text>
</g>
<!-- s0&#45;&gt;s1 -->
<g id="edge1" class="edge">
<title>s0&#45;&gt;s1</title>
<path fill="none" stroke="black" d="M35.51,-89.35C42.86,-101.35 53.1,-116.52 64.22,-128.34 71.81,-136.42 81.18,-144.15 89.77,-150.57"/>
<polygon fill="black" stroke="black" points="87.61,-153.33 97.77,-156.33 91.69,-147.65 87.61,-153.33"/>
<text text-anchor="middle" x="71.34" y="-144.66" font-family="Times,serif" font-size="14.00">%</text>
</g>
<!-- s3 -->
<g id="node5" class="node">
<title>s3</title>
<ellipse fill="none" stroke="black" cx="115.57" cy="-49.34" rx="19.11" ry="19.11"/>
<text text-anchor="middle" x="115.57" y="-44.29" font-family="Times,serif" font-size="14.00">s3</text>
</g>
<!-- s0&#45;&gt;s3 -->
<g id="edge2" class="edge">
<title>s0&#45;&gt;s3</title>
<path fill="none" stroke="black" d="M37.01,-88.34C47.73,-101.62 63.57,-115.62 78.47,-107.34 89.94,-100.97 98.24,-89.27 103.97,-78.04"/>
<polygon fill="black" stroke="black" points="107.13,-79.54 108.06,-68.99 100.75,-76.65 107.13,-79.54"/>
<text text-anchor="middle" x="71.34" y="-111.52" font-family="Times,serif" font-size="14.00">◉</text>
</g>
<!-- s0&#45;&gt;s3 -->
<g id="edge3" class="edge">
<title>s0&#45;&gt;s3</title>
<path fill="none" stroke="black" d="M46.63,-70.64C56.53,-70.66 68.22,-69.95 78.47,-67.34 81.71,-66.51 85,-65.37 88.21,-64.05"/>
<polygon fill="black" stroke="black" points="89.7,-67.22 97.24,-59.78 86.71,-60.89 89.7,-67.22"/>
<text text-anchor="middle" x="71.34" y="-72.88" font-family="Times,serif" font-size="14.00">λ</text>
</g>
<!-- s0&#45;&gt;s3 -->
<g id="edge4" class="edge">
<title>s0&#45;&gt;s3</title>
<path fill="none" stroke="black" d="M42.43,-56.47C48.99,-52.58 56.64,-48.82 64.22,-46.84 70.94,-45.08 78.34,-44.66 85.35,-44.91"/>
<polygon fill="black" stroke="black" points="84.83,-48.37 95.08,-45.72 85.41,-41.4 84.83,-48.37"/>
<text text-anchor="middle" x="71.34" y="-50.04" font-family="Times,serif" font-size="14.00">%</text>
</g>
<!-- s0&#45;&gt;s3 -->
<g id="edge5" class="edge">
<title>s0&#45;&gt;s3</title>
<path fill="none" stroke="black" d="M36.04,-49.77C42.97,-40.35 52.62,-30 64.22,-24.84 73.51,-20.71 83.62,-24.04 92.32,-29.44"/>
<polygon fill="black" stroke="black" points="90.08,-32.13 100.21,-35.21 94.21,-26.48 90.08,-32.13"/>
<text text-anchor="middle" x="71.34" y="-28.04" font-family="Times,serif" font-size="14.00">}</text>
</g>
<!-- s2 -->
<g id="node2" class="node">
<title>s2</title>
<ellipse fill="none" stroke="black" cx="200.54" cy="-167.34" rx="19.11" ry="19.11"/>
<ellipse fill="none" stroke="black" cx="200.54" cy="-167.34" rx="23.11" ry="23.11"/>
<text text-anchor="middle" x="200.54" y="-162.29" font-family="Times,serif" font-size="14.00">s2</text>
</g>
<!-- s4 -->
<g id="node3" class="node">
<title>s4</title>
<ellipse fill="none" stroke="black" cx="200.54" cy="-49.34" rx="19.11" ry="19.11"/>
<ellipse fill="none" stroke="black" cx="200.54" cy="-49.34" rx="23.11" ry="23.11"/>
<text text-anchor="middle" x="200.54" y="-44.29" font-family="Times,serif" font-size="14.00">s4</text>
</g>
<!-- s1&#45;&gt;s2 -->
<g id="edge6" class="edge">
<title>s1&#45;&gt;s2</title>
<path fill="none" stroke="black" d="M134.99,-167.34C144,-167.34 155.15,-167.34 165.64,-167.34"/>
<polygon fill="black" stroke="black" points="165.52,-170.84 175.52,-167.34 165.52,-163.84 165.52,-170.84"/>
<text text-anchor="middle" x="156.06" y="-170.54" font-family="Times,serif" font-size="14.00">}</text>
</g>
<!-- s3&#45;&gt;s0 -->
<g id="edge7" class="edge">
<title>s3&#45;&gt;s0</title>
<path fill="none" stroke="black" d="M106.49,-32.23C97.29,-15.3 81.31,6.81 64.22,-2.84 51.06,-10.27 41.74,-23.93 35.41,-36.95"/>
<polygon fill="black" stroke="black" points="32.37,-35.17 31.57,-45.74 38.79,-37.98 32.37,-35.17"/>
<text text-anchor="middle" x="71.34" y="-6.04" font-family="Times,serif" font-size="14.00">λ</text>
</g>
<!-- s3&#45;&gt;s4 -->
<g id="edge8" class="edge">
<title>s3&#45;&gt;s4</title>
<path fill="none" stroke="black" d="M134.99,-49.34C144,-49.34 155.15,-49.34 165.64,-49.34"/>
<polygon fill="black" stroke="black" points="165.52,-52.84 175.52,-49.34 165.52,-45.84 165.52,-52.84"/>
<text text-anchor="middle" x="156.06" y="-52.54" font-family="Times,serif" font-size="14.00">τ</text>
</g>
</g>
</svg>
