<?xml version="1.0" encoding="UTF-8" standalone="no"?>
<!DOCTYPE svg PUBLIC "-//W3C//DTD SVG 1.1//EN"
 "http://www.w3.org/Graphics/SVG/1.1/DTD/svg11.dtd">
<!-- Generated by graphviz version 12.2.1 (20241206.2353)
 -->
<!-- Title: finite_state_machine Pages: 1 -->
<svg width="237pt" height="294pt"
 viewBox="0.00 0.00 236.90 293.53" xmlns="http://www.w3.org/2000/svg" xmlns:xlink="http://www.w3.org/1999/xlink">
<g id="graph0" class="graph" transform="scale(1 1) rotate(0) translate(4 289.53)">
<title>finite_state_machine</title>
<polygon fill="white" stroke="none" points="-4,4 -4,-289.53 232.9,-289.53 232.9,4 -4,4"/>
<text text-anchor="middle" x="114.45" y="-7.2" font-family="Times,serif" font-size="14.00">Regular Expression: {{{%.*</text>
<!-- s0 -->
<g id="node1" class="node">
<title>s0</title>
<ellipse fill="none" stroke="black" cx="23.11" cy="-132.42" rx="19.11" ry="19.11"/>
<ellipse fill="none" stroke="black" cx="23.11" cy="-132.42" rx="23.11" ry="23.11"/>
<text text-anchor="middle" x="23.11" y="-127.37" font-family="Times,serif" font-size="14.00">s0</text>
</g>
<!-- s1 -->
<g id="node5" class="node">
<title>s1</title>
<ellipse fill="none" stroke="black" cx="115.57" cy="-262.42" rx="19.11" ry="19.11"/>
<text text-anchor="middle" x="115.57" y="-257.37" font-family="Times,serif" font-size="14.00">s1</text>
</g>
<!-- s0&#45;&gt;s1 -->
<g id="edge1" class="edge">
<title>s0&#45;&gt;s1</title>
<path fill="none" stroke="black" d="M25.82,-155.42C29.01,-181.6 38.13,-223.9 64.22,-248.42 69.92,-253.78 77.51,-257.12 85.05,-259.19"/>
<polygon fill="black" stroke="black" points="84.25,-262.6 94.75,-261.15 85.64,-255.74 84.25,-262.6"/>
<text text-anchor="middle" x="71.34" y="-259.74" font-family="Times,serif" font-size="14.00">{</text>
</g>
<!-- s0&#45;&gt;s1 -->
<g id="edge2" class="edge">
<title>s0&#45;&gt;s1</title>
<path fill="none" stroke="black" d="M35.76,-152.04C43.53,-164.86 54.14,-181.87 64.22,-196.42 74.22,-210.86 86.12,-226.52 95.84,-238.96"/>
<polygon fill="black" stroke="black" points="92.9,-240.89 101.84,-246.58 98.4,-236.56 92.9,-240.89"/>
<text text-anchor="middle" x="71.34" y="-218.13" font-family="Times,serif" font-size="14.00">λ</text>
</g>
<!-- s3 -->
<g id="node6" class="node">
<title>s3</title>
<ellipse fill="none" stroke="black" cx="115.57" cy="-190.42" rx="19.11" ry="19.11"/>
<text text-anchor="middle" x="115.57" y="-185.37" font-family="Times,serif" font-size="14.00">s3</text>
</g>
<!-- s0&#45;&gt;s3 -->
<g id="edge3" class="edge">
<title>s0&#45;&gt;s3</title>
<path fill="none" stroke="black" d="M39.92,-148.76C46.94,-155.42 55.56,-162.85 64.22,-168.42 71.12,-172.86 79.06,-176.8 86.57,-180.07"/>
<polygon fill="black" stroke="black" points="85.11,-183.26 95.7,-183.8 87.76,-176.78 85.11,-183.26"/>
<text text-anchor="middle" x="71.34" y="-178.98" font-family="Times,serif" font-size="14.00">{</text>
</g>
<!-- s5 -->
<g id="node7" class="node">
<title>s5</title>
<ellipse fill="none" stroke="black" cx="115.57" cy="-72.42" rx="19.11" ry="19.11"/>
<text text-anchor="middle" x="115.57" y="-67.37" font-family="Times,serif" font-size="14.00">s5</text>
</g>
<!-- s0&#45;&gt;s5 -->
<g id="edge4" class="edge">
<title>s0&#45;&gt;s5</title>
<path fill="none" stroke="black" d="M46.33,-136.19C56.73,-136.85 68.91,-135.96 78.47,-130.42 89.82,-123.84 98.1,-112.11 103.85,-100.92"/>
<polygon fill="black" stroke="black" points="106.99,-102.46 107.97,-91.91 100.63,-99.54 106.99,-102.46"/>
<text text-anchor="middle" x="71.34" y="-136.98" font-family="Times,serif" font-size="14.00">◉</text>
</g>
<!-- s0&#45;&gt;s5 -->
<g id="edge5" class="edge">
<title>s0&#45;&gt;s5</title>
<path fill="none" stroke="black" d="M42.85,-119.99C56.39,-111.01 74.82,-98.78 89.61,-88.98"/>
<polygon fill="black" stroke="black" points="91.5,-91.92 97.9,-83.48 87.63,-86.09 91.5,-91.92"/>
<text text-anchor="middle" x="71.34" y="-107.42" font-family="Times,serif" font-size="14.00">λ</text>
</g>
<!-- s0&#45;&gt;s5 -->
<g id="edge6" class="edge">
<title>s0&#45;&gt;s5</title>
<path fill="none" stroke="black" d="M33.62,-111.43C40.34,-99.19 50.57,-84.68 64.22,-76.92 70.37,-73.42 77.66,-71.67 84.74,-70.93"/>
<polygon fill="black" stroke="black" points="84.87,-74.43 94.73,-70.55 84.6,-67.44 84.87,-74.43"/>
<text text-anchor="middle" x="71.34" y="-80.12" font-family="Times,serif" font-size="14.00">%</text>
</g>
<!-- s0&#45;&gt;s5 -->
<g id="edge7" class="edge">
<title>s0&#45;&gt;s5</title>
<path fill="none" stroke="black" d="M28.41,-109.65C33.41,-90.29 43.73,-63.67 64.22,-50.92 72.78,-45.59 82.89,-48.37 91.8,-53.45"/>
<polygon fill="black" stroke="black" points="89.71,-56.27 99.95,-59.01 93.65,-50.48 89.71,-56.27"/>
<text text-anchor="middle" x="71.34" y="-54.12" font-family="Times,serif" font-size="14.00">{</text>
</g>
<!-- s2 -->
<g id="node2" class="node">
<title>s2</title>
<ellipse fill="none" stroke="black" cx="205.79" cy="-262.42" rx="19.11" ry="19.11"/>
<ellipse fill="none" stroke="black" cx="205.79" cy="-262.42" rx="23.11" ry="23.11"/>
<text text-anchor="middle" x="205.79" y="-257.37" font-family="Times,serif" font-size="14.00">s2</text>
</g>
<!-- s4 -->
<g id="node3" class="node">
<title>s4</title>
<ellipse fill="none" stroke="black" cx="205.79" cy="-190.42" rx="19.11" ry="19.11"/>
<ellipse fill="none" stroke="black" cx="205.79" cy="-190.42" rx="23.11" ry="23.11"/>
<text text-anchor="middle" x="205.79" y="-185.37" font-family="Times,serif" font-size="14.00">s4</text>
</g>
<!-- s6 -->
<g id="node4" class="node">
<title>s6</title>
<ellipse fill="none" stroke="black" cx="205.79" cy="-72.42" rx="19.11" ry="19.11"/>
<ellipse fill="none" stroke="black" cx="205.79" cy="-72.42" rx="23.11" ry="23.11"/>
<text text-anchor="middle" x="205.79" y="-67.37" font-family="Times,serif" font-size="14.00">s6</text>
</g>
<!-- s1&#45;&gt;s2 -->
<g id="edge8" class="edge">
<title>s1&#45;&gt;s2</title>
<path fill="none" stroke="black" d="M134.85,-262.42C145.33,-262.42 158.81,-262.42 171.14,-262.42"/>
<polygon fill="black" stroke="black" points="170.95,-265.92 180.95,-262.42 170.95,-258.92 170.95,-265.92"/>
<text text-anchor="middle" x="158.68" y="-265.62" font-family="Times,serif" font-size="14.00">τ</text>
</g>
<!-- s3&#45;&gt;s4 -->
<g id="edge9" class="edge">
<title>s3&#45;&gt;s4</title>
<path fill="none" stroke="black" d="M134.85,-190.42C145.33,-190.42 158.81,-190.42 171.14,-190.42"/>
<polygon fill="black" stroke="black" points="170.95,-193.92 180.95,-190.42 170.95,-186.92 170.95,-193.92"/>
<text text-anchor="middle" x="158.68" y="-193.62" font-family="Times,serif" font-size="14.00">%</text>
</g>
<!-- s5&#45;&gt;s0 -->
<g id="edge10" class="edge">
<title>s5&#45;&gt;s0</title>
<path fill="none" stroke="black" d="M106.02,-55.41C96.41,-38.65 80.08,-17.01 64.22,-27.92 41.51,-43.53 31.65,-73.9 27.37,-97.9"/>
<polygon fill="black" stroke="black" points="23.94,-97.17 25.92,-107.58 30.87,-98.21 23.94,-97.17"/>
<text text-anchor="middle" x="71.34" y="-31.12" font-family="Times,serif" font-size="14.00">λ</text>
</g>
<!-- s5&#45;&gt;s6 -->
<g id="edge11" class="edge">
<title>s5&#45;&gt;s6</title>
<path fill="none" stroke="black" d="M134.85,-72.42C145.33,-72.42 158.81,-72.42 171.14,-72.42"/>
<polygon fill="black" stroke="black" points="170.95,-75.92 180.95,-72.42 170.95,-68.92 170.95,-75.92"/>
<text text-anchor="middle" x="158.68" y="-75.62" font-family="Times,serif" font-size="14.00">τ</text>
</g>
</g>
</svg>
