<?xml version="1.0" encoding="UTF-8" standalone="no"?>
<!DOCTYPE svg PUBLIC "-//W3C//DTD SVG 1.1//EN"
 "http://www.w3.org/Graphics/SVG/1.1/DTD/svg11.dtd">
<!-- Generated by graphviz version 12.2.1 (20241206.2353)
 -->
<!-- Title: finite_state_machine Pages: 1 -->
<svg width="232pt" height="190pt"
 viewBox="0.00 0.00 231.65 190.46" xmlns="http://www.w3.org/2000/svg" xmlns:xlink="http://www.w3.org/1999/xlink">
<g id="graph0" class="graph" transform="scale(1 1) rotate(0) translate(4 186.46)">
<title>finite_state_machine</title>
<polygon fill="white" stroke="none" points="-4,4 -4,-186.46 227.65,-186.46 227.65,4 -4,4"/>
<text text-anchor="middle" x="111.82" y="-7.2" font-family="Times,serif" font-size="14.00">Regular Expression: }}.*</text>
<!-- s0 -->
<g id="node1" class="node">
<title>s0</title>
<ellipse fill="none" stroke="black" cx="23.11" cy="-81.35" rx="19.11" ry="19.11"/>
<ellipse fill="none" stroke="black" cx="23.11" cy="-81.35" rx="23.11" ry="23.11"/>
<text text-anchor="middle" x="23.11" y="-76.3" font-family="Times,serif" font-size="14.00">s0</text>
</g>
<!-- s1 -->
<g id="node4" class="node">
<title>s1</title>
<ellipse fill="none" stroke="black" cx="115.57" cy="-159.35" rx="19.11" ry="19.11"/>
<text text-anchor="middle" x="115.57" y="-154.3" font-family="Times,serif" font-size="14.00">s1</text>
</g>
<!-- s0&#45;&gt;s1 -->
<g id="edge1" class="edge">
<title>s0&#45;&gt;s1</title>
<path fill="none" stroke="black" d="M40.11,-97.71C47.3,-104.86 56,-113.22 64.22,-120.35 72.59,-127.62 82.12,-135.18 90.63,-141.68"/>
<polygon fill="black" stroke="black" points="88.38,-144.37 98.47,-147.6 92.6,-138.78 88.38,-144.37"/>
<text text-anchor="middle" x="71.34" y="-134.73" font-family="Times,serif" font-size="14.00">}</text>
</g>
<!-- s3 -->
<g id="node5" class="node">
<title>s3</title>
<ellipse fill="none" stroke="black" cx="115.57" cy="-61.35" rx="19.11" ry="19.11"/>
<text text-anchor="middle" x="115.57" y="-56.3" font-family="Times,serif" font-size="14.00">s3</text>
</g>
<!-- s0&#45;&gt;s3 -->
<g id="edge2" class="edge">
<title>s0&#45;&gt;s3</title>
<path fill="none" stroke="black" d="M42.77,-94.25C53.4,-99.94 66.86,-104.33 78.47,-99.35 85.38,-96.38 91.59,-91.36 96.84,-85.93"/>
<polygon fill="black" stroke="black" points="99.41,-88.31 103.26,-78.44 94.1,-83.76 99.41,-88.31"/>
<text text-anchor="middle" x="71.34" y="-103.21" font-family="Times,serif" font-size="14.00">◉</text>
</g>
<!-- s0&#45;&gt;s3 -->
<g id="edge3" class="edge">
<title>s0&#45;&gt;s3</title>
<path fill="none" stroke="black" d="M46.01,-76.51C57.86,-73.89 72.65,-70.62 85.46,-67.78"/>
<polygon fill="black" stroke="black" points="86.04,-71.24 95.05,-65.67 84.53,-64.41 86.04,-71.24"/>
<text text-anchor="middle" x="71.34" y="-75.15" font-family="Times,serif" font-size="14.00">λ</text>
</g>
<!-- s0&#45;&gt;s3 -->
<g id="edge4" class="edge">
<title>s0&#45;&gt;s3</title>
<path fill="none" stroke="black" d="M39.68,-64.56C46.53,-58.37 55.09,-52.08 64.22,-48.85 71.75,-46.18 80.1,-46.86 87.81,-48.89"/>
<polygon fill="black" stroke="black" points="86.44,-52.12 97.03,-52.1 88.74,-45.51 86.44,-52.12"/>
<text text-anchor="middle" x="71.34" y="-52.05" font-family="Times,serif" font-size="14.00">}</text>
</g>
<!-- s2 -->
<g id="node2" class="node">
<title>s2</title>
<ellipse fill="none" stroke="black" cx="200.54" cy="-159.35" rx="19.11" ry="19.11"/>
<ellipse fill="none" stroke="black" cx="200.54" cy="-159.35" rx="23.11" ry="23.11"/>
<text text-anchor="middle" x="200.54" y="-154.3" font-family="Times,serif" font-size="14.00">s2</text>
</g>
<!-- s4 -->
<g id="node3" class="node">
<title>s4</title>
<ellipse fill="none" stroke="black" cx="200.54" cy="-61.35" rx="19.11" ry="19.11"/>
<ellipse fill="none" stroke="black" cx="200.54" cy="-61.35" rx="23.11" ry="23.11"/>
<text text-anchor="middle" x="200.54" y="-56.3" font-family="Times,serif" font-size="14.00">s4</text>
</g>
<!-- s1&#45;&gt;s2 -->
<g id="edge5" class="edge">
<title>s1&#45;&gt;s2</title>
<path fill="none" stroke="black" d="M134.99,-159.35C144,-159.35 155.15,-159.35 165.64,-159.35"/>
<polygon fill="black" stroke="black" points="165.52,-162.85 175.52,-159.35 165.52,-155.85 165.52,-162.85"/>
<text text-anchor="middle" x="156.06" y="-162.55" font-family="Times,serif" font-size="14.00">}</text>
</g>
<!-- s3&#45;&gt;s0 -->
<g id="edge6" class="edge">
<title>s3&#45;&gt;s0</title>
<path fill="none" stroke="black" d="M103.9,-45.77C94.04,-33.46 78.78,-19.48 64.22,-26.85 53.94,-32.04 45.66,-41.24 39.35,-50.62"/>
<polygon fill="black" stroke="black" points="36.46,-48.64 34.27,-59.01 42.44,-52.27 36.46,-48.64"/>
<text text-anchor="middle" x="71.34" y="-30.05" font-family="Times,serif" font-size="14.00">λ</text>
</g>
<!-- s3&#45;&gt;s4 -->
<g id="edge7" class="edge">
<title>s3&#45;&gt;s4</title>
<path fill="none" stroke="black" d="M134.99,-61.35C144,-61.35 155.15,-61.35 165.64,-61.35"/>
<polygon fill="black" stroke="black" points="165.52,-64.85 175.52,-61.35 165.52,-57.85 165.52,-64.85"/>
<text text-anchor="middle" x="156.06" y="-64.55" font-family="Times,serif" font-size="14.00">τ</text>
</g>
</g>
</svg>
