<?xml version="1.0" encoding="UTF-8" standalone="no"?>
<!DOCTYPE svg PUBLIC "-//W3C//DTD SVG 1.1//EN"
 "http://www.w3.org/Graphics/SVG/1.1/DTD/svg11.dtd">
<!-- Generated by graphviz version 12.2.1 (20241206.2353)
 -->
<!-- Title: finite_state_machine Pages: 1 -->
<svg width="232pt" height="272pt"
 viewBox="0.00 0.00 231.65 271.95" xmlns="http://www.w3.org/2000/svg" xmlns:xlink="http://www.w3.org/1999/xlink">
<g id="graph0" class="graph" transform="scale(1 1) rotate(0) translate(4 267.95)">
<title>finite_state_machine</title>
<polygon fill="white" stroke="none" points="-4,4 -4,-267.95 227.65,-267.95 227.65,4 -4,4"/>
<text text-anchor="middle" x="111.82" y="-56.2" font-family="Times,serif" font-size="14.00">Regular Expression: </text>
<text text-anchor="middle" x="111.82" y="-39.7" font-family="Times,serif" font-size="14.00">%}</text>
<text text-anchor="middle" x="111.82" y="-23.2" font-family="Times,serif" font-size="14.00">.*</text>
<!-- s0 -->
<g id="node1" class="node">
<title>s0</title>
<ellipse fill="none" stroke="black" cx="23.11" cy="-142.84" rx="19.11" ry="19.11"/>
<ellipse fill="none" stroke="black" cx="23.11" cy="-142.84" rx="23.11" ry="23.11"/>
<text text-anchor="middle" x="23.11" y="-137.79" font-family="Times,serif" font-size="14.00">s0</text>
</g>
<!-- s1 -->
<g id="node4" class="node">
<title>s1</title>
<ellipse fill="none" stroke="black" cx="115.57" cy="-240.84" rx="19.11" ry="19.11"/>
<text text-anchor="middle" x="115.57" y="-235.79" font-family="Times,serif" font-size="14.00">s1</text>
</g>
<!-- s0&#45;&gt;s1 -->
<g id="edge1" class="edge">
<title>s0&#45;&gt;s1</title>
<path fill="none" stroke="black" d="M35.51,-162.85C42.86,-174.85 53.1,-190.02 64.22,-201.84 71.81,-209.92 81.18,-217.65 89.77,-224.07"/>
<polygon fill="black" stroke="black" points="87.61,-226.83 97.77,-229.83 91.69,-221.15 87.61,-226.83"/>
<text text-anchor="middle" x="71.34" y="-218.16" font-family="Times,serif" font-size="14.00">%</text>
</g>
<!-- s3 -->
<g id="node5" class="node">
<title>s3</title>
<ellipse fill="none" stroke="black" cx="115.57" cy="-122.84" rx="19.11" ry="19.11"/>
<text text-anchor="middle" x="115.57" y="-117.79" font-family="Times,serif" font-size="14.00">s3</text>
</g>
<!-- s0&#45;&gt;s3 -->
<g id="edge2" class="edge">
<title>s0&#45;&gt;s3</title>
<path fill="none" stroke="black" d="M37.01,-161.84C47.73,-175.12 63.57,-189.12 78.47,-180.84 89.94,-174.47 98.24,-162.77 103.97,-151.54"/>
<polygon fill="black" stroke="black" points="107.13,-153.04 108.06,-142.49 100.75,-150.15 107.13,-153.04"/>
<text text-anchor="middle" x="71.34" y="-185.02" font-family="Times,serif" font-size="14.00">◉</text>
</g>
<!-- s0&#45;&gt;s3 -->
<g id="edge3" class="edge">
<title>s0&#45;&gt;s3</title>
<path fill="none" stroke="black" d="M46.63,-144.14C56.53,-144.16 68.22,-143.45 78.47,-140.84 81.71,-140.01 85,-138.87 88.21,-137.55"/>
<polygon fill="black" stroke="black" points="89.7,-140.72 97.24,-133.28 86.71,-134.39 89.7,-140.72"/>
<text text-anchor="middle" x="71.34" y="-146.38" font-family="Times,serif" font-size="14.00">λ</text>
</g>
<!-- s0&#45;&gt;s3 -->
<g id="edge4" class="edge">
<title>s0&#45;&gt;s3</title>
<path fill="none" stroke="black" d="M42.43,-129.97C48.99,-126.08 56.64,-122.32 64.22,-120.34 70.94,-118.58 78.34,-118.16 85.35,-118.41"/>
<polygon fill="black" stroke="black" points="84.83,-121.87 95.08,-119.22 85.41,-114.9 84.83,-121.87"/>
<text text-anchor="middle" x="71.34" y="-123.54" font-family="Times,serif" font-size="14.00">%</text>
</g>
<!-- s0&#45;&gt;s3 -->
<g id="edge5" class="edge">
<title>s0&#45;&gt;s3</title>
<path fill="none" stroke="black" d="M36.04,-123.27C42.97,-113.85 52.62,-103.5 64.22,-98.34 73.51,-94.21 83.62,-97.54 92.32,-102.94"/>
<polygon fill="black" stroke="black" points="90.08,-105.63 100.21,-108.71 94.21,-99.98 90.08,-105.63"/>
<text text-anchor="middle" x="71.34" y="-101.54" font-family="Times,serif" font-size="14.00">}</text>
</g>
<!-- s2 -->
<g id="node2" class="node">
<title>s2</title>
<ellipse fill="none" stroke="black" cx="200.54" cy="-240.84" rx="19.11" ry="19.11"/>
<ellipse fill="none" stroke="black" cx="200.54" cy="-240.84" rx="23.11" ry="23.11"/>
<text text-anchor="middle" x="200.54" y="-235.79" font-family="Times,serif" font-size="14.00">s2</text>
</g>
<!-- s4 -->
<g id="node3" class="node">
<title>s4</title>
<ellipse fill="none" stroke="black" cx="200.54" cy="-122.84" rx="19.11" ry="19.11"/>
<ellipse fill="none" stroke="black" cx="200.54" cy="-122.84" rx="23.11" ry="23.11"/>
<text text-anchor="middle" x="200.54" y="-117.79" font-family="Times,serif" font-size="14.00">s4</text>
</g>
<!-- s1&#45;&gt;s2 -->
<g id="edge6" class="edge">
<title>s1&#45;&gt;s2</title>
<path fill="none" stroke="black" d="M134.99,-240.84C144,-240.84 155.15,-240.84 165.64,-240.84"/>
<polygon fill="black" stroke="black" points="165.52,-244.34 175.52,-240.84 165.52,-237.34 165.52,-244.34"/>
<text text-anchor="middle" x="156.06" y="-244.04" font-family="Times,serif" font-size="14.00">}</text>
</g>
<!-- s3&#45;&gt;s0 -->
<g id="edge7" class="edge">
<title>s3&#45;&gt;s0</title>
<path fill="none" stroke="black" d="M106.49,-105.73C97.29,-88.8 81.31,-66.69 64.22,-76.34 51.06,-83.77 41.74,-97.43 35.41,-110.45"/>
<polygon fill="black" stroke="black" points="32.37,-108.67 31.57,-119.24 38.79,-111.48 32.37,-108.67"/>
<text text-anchor="middle" x="71.34" y="-79.54" font-family="Times,serif" font-size="14.00">λ</text>
</g>
<!-- s3&#45;&gt;s4 -->
<g id="edge8" class="edge">
<title>s3&#45;&gt;s4</title>
<path fill="none" stroke="black" d="M134.99,-122.84C144,-122.84 155.15,-122.84 165.64,-122.84"/>
<polygon fill="black" stroke="black" points="165.52,-126.34 175.52,-122.84 165.52,-119.34 165.52,-126.34"/>
<text text-anchor="middle" x="156.06" y="-126.04" font-family="Times,serif" font-size="14.00">τ</text>
</g>
</g>
</svg>
