<?xml version="1.0" encoding="UTF-8" standalone="no"?>
<!DOCTYPE svg PUBLIC "-//W3C//DTD SVG 1.1//EN"
 "http://www.w3.org/Graphics/SVG/1.1/DTD/svg11.dtd">
<!-- Generated by graphviz version 12.2.1 (20241206.2353)
 -->
<!-- Title: finite_state_machine Pages: 1 -->
<svg width="240pt" height="342pt"
 viewBox="0.00 0.00 239.65 341.75" xmlns="http://www.w3.org/2000/svg" xmlns:xlink="http://www.w3.org/1999/xlink">
<g id="graph0" class="graph" transform="scale(1 1) rotate(0) translate(4 337.75)">
<title>finite_state_machine</title>
<polygon fill="white" stroke="none" points="-4,4 -4,-337.75 235.65,-337.75 235.65,4 -4,4"/>
<text text-anchor="middle" x="115.82" y="-72.7" font-family="Times,serif" font-size="14.00">Regular Expression: </text>
<text text-anchor="middle" x="115.82" y="-56.2" font-family="Times,serif" font-size="14.00">%}</text>
<text text-anchor="middle" x="115.82" y="-39.7" font-family="Times,serif" font-size="14.00">%</text>
<text text-anchor="middle" x="115.82" y="-23.2" font-family="Times,serif" font-size="14.00">.*</text>
<!-- s0 -->
<g id="node1" class="node">
<title>s0</title>
<ellipse fill="none" stroke="black" cx="23.11" cy="-182.64" rx="19.11" ry="19.11"/>
<ellipse fill="none" stroke="black" cx="23.11" cy="-182.64" rx="23.11" ry="23.11"/>
<text text-anchor="middle" x="23.11" y="-177.59" font-family="Times,serif" font-size="14.00">s0</text>
</g>
<!-- s3 -->
<g id="node3" class="node">
<title>s3</title>
<ellipse fill="none" stroke="black" cx="119.57" cy="-310.64" rx="19.11" ry="19.11"/>
<ellipse fill="none" stroke="black" cx="119.57" cy="-310.64" rx="23.11" ry="23.11"/>
<text text-anchor="middle" x="119.57" y="-305.59" font-family="Times,serif" font-size="14.00">s3</text>
</g>
<!-- s0&#45;&gt;s3 -->
<g id="edge2" class="edge">
<title>s0&#45;&gt;s3</title>
<path fill="none" stroke="black" d="M34.33,-203.33C41.81,-217.7 52.64,-236.99 64.22,-252.64 73.19,-264.78 84.42,-277.13 94.33,-287.3"/>
<polygon fill="black" stroke="black" points="91.67,-289.59 101.21,-294.21 96.63,-284.65 91.67,-289.59"/>
<text text-anchor="middle" x="71.34" y="-272.78" font-family="Times,serif" font-size="14.00">%</text>
</g>
<!-- s1 -->
<g id="node5" class="node">
<title>s1</title>
<ellipse fill="none" stroke="black" cx="119.57" cy="-250.64" rx="19.11" ry="19.11"/>
<text text-anchor="middle" x="119.57" y="-245.59" font-family="Times,serif" font-size="14.00">s1</text>
</g>
<!-- s0&#45;&gt;s1 -->
<g id="edge1" class="edge">
<title>s0&#45;&gt;s1</title>
<path fill="none" stroke="black" d="M39.08,-199.82C46.21,-207.38 55.16,-216.04 64.22,-222.64 72.51,-228.69 82.29,-234.16 91.26,-238.63"/>
<polygon fill="black" stroke="black" points="89.73,-241.78 100.26,-242.91 92.73,-235.46 89.73,-241.78"/>
<text text-anchor="middle" x="71.34" y="-234.9" font-family="Times,serif" font-size="14.00">%</text>
</g>
<!-- s4 -->
<g id="node6" class="node">
<title>s4</title>
<ellipse fill="none" stroke="black" cx="119.57" cy="-142.64" rx="19.11" ry="19.11"/>
<text text-anchor="middle" x="119.57" y="-137.59" font-family="Times,serif" font-size="14.00">s4</text>
</g>
<!-- s0&#45;&gt;s4 -->
<g id="edge3" class="edge">
<title>s0&#45;&gt;s4</title>
<path fill="none" stroke="black" d="M42.33,-195.79C53.18,-201.91 67.02,-206.64 78.47,-200.64 90.75,-194.2 100.02,-182.1 106.53,-170.61"/>
<polygon fill="black" stroke="black" points="109.62,-172.25 111.06,-161.76 103.39,-169.07 109.62,-172.25"/>
<text text-anchor="middle" x="71.34" y="-205.11" font-family="Times,serif" font-size="14.00">◉</text>
</g>
<!-- s0&#45;&gt;s4 -->
<g id="edge4" class="edge">
<title>s0&#45;&gt;s4</title>
<path fill="none" stroke="black" d="M45.09,-174.36C55.21,-170.31 67.51,-165.32 78.47,-160.64 82.69,-158.84 87.14,-156.89 91.48,-154.97"/>
<polygon fill="black" stroke="black" points="92.78,-158.22 100.47,-150.93 89.91,-151.83 92.78,-158.22"/>
<text text-anchor="middle" x="71.34" y="-169.44" font-family="Times,serif" font-size="14.00">λ</text>
</g>
<!-- s0&#45;&gt;s4 -->
<g id="edge5" class="edge">
<title>s0&#45;&gt;s4</title>
<path fill="none" stroke="black" d="M36.57,-163.49C43.52,-154.6 53.04,-144.96 64.22,-140.14 72,-136.79 81,-136.09 89.42,-136.6"/>
<polygon fill="black" stroke="black" points="88.88,-140.06 99.22,-137.79 89.72,-133.11 88.88,-140.06"/>
<text text-anchor="middle" x="71.34" y="-143.34" font-family="Times,serif" font-size="14.00">%</text>
</g>
<!-- s0&#45;&gt;s4 -->
<g id="edge6" class="edge">
<title>s0&#45;&gt;s4</title>
<path fill="none" stroke="black" d="M30.97,-160.43C37.03,-144.99 47.54,-125.56 64.22,-116.14 74.75,-110.2 86.8,-114.97 96.88,-122.01"/>
<polygon fill="black" stroke="black" points="94.66,-124.71 104.65,-128.24 99.04,-119.25 94.66,-124.71"/>
<text text-anchor="middle" x="71.34" y="-119.34" font-family="Times,serif" font-size="14.00">}</text>
</g>
<!-- s2 -->
<g id="node2" class="node">
<title>s2</title>
<ellipse fill="none" stroke="black" cx="208.54" cy="-250.64" rx="19.11" ry="19.11"/>
<ellipse fill="none" stroke="black" cx="208.54" cy="-250.64" rx="23.11" ry="23.11"/>
<text text-anchor="middle" x="208.54" y="-245.59" font-family="Times,serif" font-size="14.00">s2</text>
</g>
<!-- s5 -->
<g id="node4" class="node">
<title>s5</title>
<ellipse fill="none" stroke="black" cx="208.54" cy="-142.64" rx="19.11" ry="19.11"/>
<ellipse fill="none" stroke="black" cx="208.54" cy="-142.64" rx="23.11" ry="23.11"/>
<text text-anchor="middle" x="208.54" y="-137.59" font-family="Times,serif" font-size="14.00">s5</text>
</g>
<!-- s1&#45;&gt;s2 -->
<g id="edge7" class="edge">
<title>s1&#45;&gt;s2</title>
<path fill="none" stroke="black" d="M139.02,-250.64C149.11,-250.64 161.94,-250.64 173.76,-250.64"/>
<polygon fill="black" stroke="black" points="173.59,-254.14 183.59,-250.64 173.59,-247.14 173.59,-254.14"/>
<text text-anchor="middle" x="164.06" y="-253.84" font-family="Times,serif" font-size="14.00">}</text>
</g>
<!-- s4&#45;&gt;s0 -->
<g id="edge8" class="edge">
<title>s4&#45;&gt;s0</title>
<path fill="none" stroke="black" d="M110.46,-125.64C100.42,-107.05 82.43,-81.35 64.22,-93.14 45.34,-105.37 35.26,-128.8 29.93,-148.62"/>
<polygon fill="black" stroke="black" points="26.54,-147.76 27.66,-158.29 33.36,-149.36 26.54,-147.76"/>
<text text-anchor="middle" x="71.34" y="-96.34" font-family="Times,serif" font-size="14.00">λ</text>
</g>
<!-- s4&#45;&gt;s5 -->
<g id="edge9" class="edge">
<title>s4&#45;&gt;s5</title>
<path fill="none" stroke="black" d="M139.02,-142.64C149.11,-142.64 161.94,-142.64 173.76,-142.64"/>
<polygon fill="black" stroke="black" points="173.59,-146.14 183.59,-142.64 173.59,-139.14 173.59,-146.14"/>
<text text-anchor="middle" x="164.06" y="-145.84" font-family="Times,serif" font-size="14.00">τ</text>
</g>
</g>
</svg>
