<?xml version="1.0" encoding="UTF-8" standalone="no"?>
<!DOCTYPE svg PUBLIC "-//W3C//DTD SVG 1.1//EN"
 "http://www.w3.org/Graphics/SVG/1.1/DTD/svg11.dtd">
<!-- Generated by graphviz version 12.2.1 (20241206.2353)
 -->
<!-- Title: finite_state_machine Pages: 1 -->
<svg width="232pt" height="239pt"
 viewBox="0.00 0.00 231.65 239.46" xmlns="http://www.w3.org/2000/svg" xmlns:xlink="http://www.w3.org/1999/xlink">
<g id="graph0" class="graph" transform="scale(1 1) rotate(0) translate(4 235.46)">
<title>finite_state_machine</title>
<polygon fill="white" stroke="none" points="-4,4 -4,-235.46 227.65,-235.46 227.65,4 -4,4"/>
<text text-anchor="middle" x="111.82" y="-56.2" font-family="Times,serif" font-size="14.00">Regular Expression: </text>
<text text-anchor="middle" x="111.82" y="-39.7" font-family="Times,serif" font-size="14.00">}}</text>
<text text-anchor="middle" x="111.82" y="-23.2" font-family="Times,serif" font-size="14.00">.*</text>
<!-- s0 -->
<g id="node1" class="node">
<title>s0</title>
<ellipse fill="none" stroke="black" cx="23.11" cy="-130.35" rx="19.11" ry="19.11"/>
<ellipse fill="none" stroke="black" cx="23.11" cy="-130.35" rx="23.11" ry="23.11"/>
<text text-anchor="middle" x="23.11" y="-125.3" font-family="Times,serif" font-size="14.00">s0</text>
</g>
<!-- s1 -->
<g id="node4" class="node">
<title>s1</title>
<ellipse fill="none" stroke="black" cx="115.57" cy="-208.35" rx="19.11" ry="19.11"/>
<text text-anchor="middle" x="115.57" y="-203.3" font-family="Times,serif" font-size="14.00">s1</text>
</g>
<!-- s0&#45;&gt;s1 -->
<g id="edge1" class="edge">
<title>s0&#45;&gt;s1</title>
<path fill="none" stroke="black" d="M40.11,-146.71C47.3,-153.86 56,-162.22 64.22,-169.35 72.59,-176.62 82.12,-184.18 90.63,-190.68"/>
<polygon fill="black" stroke="black" points="88.38,-193.37 98.47,-196.6 92.6,-187.78 88.38,-193.37"/>
<text text-anchor="middle" x="71.34" y="-183.73" font-family="Times,serif" font-size="14.00">}</text>
</g>
<!-- s3 -->
<g id="node5" class="node">
<title>s3</title>
<ellipse fill="none" stroke="black" cx="115.57" cy="-110.35" rx="19.11" ry="19.11"/>
<text text-anchor="middle" x="115.57" y="-105.3" font-family="Times,serif" font-size="14.00">s3</text>
</g>
<!-- s0&#45;&gt;s3 -->
<g id="edge2" class="edge">
<title>s0&#45;&gt;s3</title>
<path fill="none" stroke="black" d="M42.77,-143.25C53.4,-148.94 66.86,-153.33 78.47,-148.35 85.38,-145.38 91.59,-140.36 96.84,-134.93"/>
<polygon fill="black" stroke="black" points="99.41,-137.31 103.26,-127.44 94.1,-132.76 99.41,-137.31"/>
<text text-anchor="middle" x="71.34" y="-152.21" font-family="Times,serif" font-size="14.00">◉</text>
</g>
<!-- s0&#45;&gt;s3 -->
<g id="edge3" class="edge">
<title>s0&#45;&gt;s3</title>
<path fill="none" stroke="black" d="M46.01,-125.51C57.86,-122.89 72.65,-119.62 85.46,-116.78"/>
<polygon fill="black" stroke="black" points="86.04,-120.24 95.05,-114.67 84.53,-113.41 86.04,-120.24"/>
<text text-anchor="middle" x="71.34" y="-124.15" font-family="Times,serif" font-size="14.00">λ</text>
</g>
<!-- s0&#45;&gt;s3 -->
<g id="edge4" class="edge">
<title>s0&#45;&gt;s3</title>
<path fill="none" stroke="black" d="M39.68,-113.56C46.53,-107.37 55.09,-101.08 64.22,-97.85 71.75,-95.18 80.1,-95.86 87.81,-97.89"/>
<polygon fill="black" stroke="black" points="86.44,-101.12 97.03,-101.1 88.74,-94.51 86.44,-101.12"/>
<text text-anchor="middle" x="71.34" y="-101.05" font-family="Times,serif" font-size="14.00">}</text>
</g>
<!-- s2 -->
<g id="node2" class="node">
<title>s2</title>
<ellipse fill="none" stroke="black" cx="200.54" cy="-208.35" rx="19.11" ry="19.11"/>
<ellipse fill="none" stroke="black" cx="200.54" cy="-208.35" rx="23.11" ry="23.11"/>
<text text-anchor="middle" x="200.54" y="-203.3" font-family="Times,serif" font-size="14.00">s2</text>
</g>
<!-- s4 -->
<g id="node3" class="node">
<title>s4</title>
<ellipse fill="none" stroke="black" cx="200.54" cy="-110.35" rx="19.11" ry="19.11"/>
<ellipse fill="none" stroke="black" cx="200.54" cy="-110.35" rx="23.11" ry="23.11"/>
<text text-anchor="middle" x="200.54" y="-105.3" font-family="Times,serif" font-size="14.00">s4</text>
</g>
<!-- s1&#45;&gt;s2 -->
<g id="edge5" class="edge">
<title>s1&#45;&gt;s2</title>
<path fill="none" stroke="black" d="M134.99,-208.35C144,-208.35 155.15,-208.35 165.64,-208.35"/>
<polygon fill="black" stroke="black" points="165.52,-211.85 175.52,-208.35 165.52,-204.85 165.52,-211.85"/>
<text text-anchor="middle" x="156.06" y="-211.55" font-family="Times,serif" font-size="14.00">}</text>
</g>
<!-- s3&#45;&gt;s0 -->
<g id="edge6" class="edge">
<title>s3&#45;&gt;s0</title>
<path fill="none" stroke="black" d="M103.9,-94.77C94.04,-82.46 78.78,-68.48 64.22,-75.85 53.94,-81.04 45.66,-90.24 39.35,-99.62"/>
<polygon fill="black" stroke="black" points="36.46,-97.64 34.27,-108.01 42.44,-101.27 36.46,-97.64"/>
<text text-anchor="middle" x="71.34" y="-79.05" font-family="Times,serif" font-size="14.00">λ</text>
</g>
<!-- s3&#45;&gt;s4 -->
<g id="edge7" class="edge">
<title>s3&#45;&gt;s4</title>
<path fill="none" stroke="black" d="M134.99,-110.35C144,-110.35 155.15,-110.35 165.64,-110.35"/>
<polygon fill="black" stroke="black" points="165.52,-113.85 175.52,-110.35 165.52,-106.85 165.52,-113.85"/>
<text text-anchor="middle" x="156.06" y="-113.55" font-family="Times,serif" font-size="14.00">τ</text>
</g>
</g>
</svg>
