<?xml version="1.0" encoding="UTF-8" standalone="no"?>
<!DOCTYPE svg PUBLIC "-//W3C//DTD SVG 1.1//EN"
 "http://www.w3.org/Graphics/SVG/1.1/DTD/svg11.dtd">
<!-- Generated by graphviz version 12.2.1 (20241206.2353)
 -->
<!-- Title: finite_state_machine Pages: 1 -->
<svg width="440pt" height="173pt"
 viewBox="0.00 0.00 440.26 172.72" xmlns="http://www.w3.org/2000/svg" xmlns:xlink="http://www.w3.org/1999/xlink">
<g id="graph0" class="graph" transform="scale(1 1) rotate(0) translate(4 168.72)">
<title>finite_state_machine</title>
<polygon fill="white" stroke="none" points="-4,4 -4,-168.72 436.26,-168.72 436.26,4 -4,4"/>
<text text-anchor="middle" x="216.13" y="-7.2" font-family="Times,serif" font-size="14.00">Regular Expression: xyzzy401</text>
<!-- s1 -->
<g id="node1" class="node">
<title>s1</title>
<ellipse fill="none" stroke="black" cx="409.15" cy="-99.61" rx="19.11" ry="19.11"/>
<ellipse fill="none" stroke="black" cx="409.15" cy="-99.61" rx="23.11" ry="23.11"/>
<text text-anchor="middle" x="409.15" y="-94.56" font-family="Times,serif" font-size="14.00">s1</text>
</g>
<!-- s0 -->
<g id="node2" class="node">
<title>s0</title>
<ellipse fill="none" stroke="black" cx="19.11" cy="-99.61" rx="19.11" ry="19.11"/>
<text text-anchor="middle" x="19.11" y="-94.56" font-family="Times,serif" font-size="14.00">s0</text>
</g>
<!-- s2 -->
<g id="node3" class="node">
<title>s2</title>
<ellipse fill="none" stroke="black" cx="155.54" cy="-145.61" rx="19.11" ry="19.11"/>
<text text-anchor="middle" x="155.54" y="-140.56" font-family="Times,serif" font-size="14.00">s2</text>
</g>
<!-- s0&#45;&gt;s2 -->
<g id="edge1" class="edge">
<title>s0&#45;&gt;s2</title>
<path fill="none" stroke="black" d="M35.49,-109.67C41.75,-113.46 49.15,-117.58 56.22,-120.61 78.44,-130.14 105.1,-136.64 125.05,-140.62"/>
<polygon fill="black" stroke="black" points="124.26,-144.03 134.74,-142.44 125.56,-137.15 124.26,-144.03"/>
<text text-anchor="middle" x="59.22" y="-126.04" font-family="Times,serif" font-size="14.00">a</text>
</g>
<!-- s3 -->
<g id="node4" class="node">
<title>s3</title>
<ellipse fill="none" stroke="black" cx="99.32" cy="-99.61" rx="19.11" ry="19.11"/>
<text text-anchor="middle" x="99.32" y="-94.56" font-family="Times,serif" font-size="14.00">s3</text>
</g>
<!-- s0&#45;&gt;s3 -->
<g id="edge2" class="edge">
<title>s0&#45;&gt;s3</title>
<path fill="none" stroke="black" d="M38.64,-99.61C47.6,-99.61 58.58,-99.61 68.67,-99.61"/>
<polygon fill="black" stroke="black" points="68.41,-103.11 78.41,-99.61 68.41,-96.11 68.41,-103.11"/>
<text text-anchor="middle" x="59.22" y="-102.81" font-family="Times,serif" font-size="14.00">a</text>
</g>
<!-- s5 -->
<g id="node5" class="node">
<title>s5</title>
<ellipse fill="none" stroke="black" cx="99.32" cy="-43.61" rx="19.11" ry="19.11"/>
<text text-anchor="middle" x="99.32" y="-38.56" font-family="Times,serif" font-size="14.00">s5</text>
</g>
<!-- s0&#45;&gt;s5 -->
<g id="edge3" class="edge">
<title>s0&#45;&gt;s5</title>
<path fill="none" stroke="black" d="M35.19,-88.81C46.22,-80.91 61.43,-70.02 74.15,-60.91"/>
<polygon fill="black" stroke="black" points="75.96,-63.92 82.06,-55.25 71.89,-58.23 75.96,-63.92"/>
<text text-anchor="middle" x="59.22" y="-76.49" font-family="Times,serif" font-size="14.00">a</text>
</g>
<!-- s2&#45;&gt;s1 -->
<g id="edge4" class="edge">
<title>s2&#45;&gt;s1</title>
<path fill="none" stroke="black" d="M174.97,-144.02C208.65,-140.92 282.27,-133.25 343.29,-120.61 354.27,-118.33 366,-114.87 376.43,-111.4"/>
<polygon fill="black" stroke="black" points="377.4,-114.77 385.71,-108.19 375.11,-108.15 377.4,-114.77"/>
<text text-anchor="middle" x="267.97" y="-138.83" font-family="Times,serif" font-size="14.00">λ</text>
</g>
<!-- s4 -->
<g id="node6" class="node">
<title>s4</title>
<ellipse fill="none" stroke="black" cx="267.97" cy="-99.61" rx="19.11" ry="19.11"/>
<text text-anchor="middle" x="267.97" y="-94.56" font-family="Times,serif" font-size="14.00">s4</text>
</g>
<!-- s3&#45;&gt;s4 -->
<g id="edge5" class="edge">
<title>s3&#45;&gt;s4</title>
<path fill="none" stroke="black" d="M118.79,-99.61C147.45,-99.61 202.88,-99.61 237.22,-99.61"/>
<polygon fill="black" stroke="black" points="236.9,-103.11 246.9,-99.61 236.9,-96.11 236.9,-103.11"/>
<text text-anchor="middle" x="155.54" y="-102.81" font-family="Times,serif" font-size="14.00">a</text>
</g>
<!-- s6 -->
<g id="node7" class="node">
<title>s6</title>
<ellipse fill="none" stroke="black" cx="211.75" cy="-43.61" rx="19.11" ry="19.11"/>
<text text-anchor="middle" x="211.75" y="-38.56" font-family="Times,serif" font-size="14.00">s6</text>
</g>
<!-- s5&#45;&gt;s6 -->
<g id="edge7" class="edge">
<title>s5&#45;&gt;s6</title>
<path fill="none" stroke="black" d="M118.56,-43.61C135.58,-43.61 161.29,-43.61 181.23,-43.61"/>
<polygon fill="black" stroke="black" points="180.98,-47.11 190.98,-43.61 180.98,-40.11 180.98,-47.11"/>
<text text-anchor="middle" x="155.54" y="-46.81" font-family="Times,serif" font-size="14.00">a</text>
</g>
<!-- s4&#45;&gt;s1 -->
<g id="edge6" class="edge">
<title>s4&#45;&gt;s1</title>
<path fill="none" stroke="black" d="M287.45,-99.61C309.61,-99.61 347.17,-99.61 374.52,-99.61"/>
<polygon fill="black" stroke="black" points="374.39,-103.11 384.39,-99.61 374.39,-96.11 374.39,-103.11"/>
<text text-anchor="middle" x="324.18" y="-102.81" font-family="Times,serif" font-size="14.00">λ</text>
</g>
<!-- s7 -->
<g id="node8" class="node">
<title>s7</title>
<ellipse fill="none" stroke="black" cx="324.18" cy="-44.61" rx="19.11" ry="19.11"/>
<text text-anchor="middle" x="324.18" y="-39.56" font-family="Times,serif" font-size="14.00">s7</text>
</g>
<!-- s6&#45;&gt;s7 -->
<g id="edge8" class="edge">
<title>s6&#45;&gt;s7</title>
<path fill="none" stroke="black" d="M230.99,-43.77C248.01,-43.93 273.72,-44.16 293.66,-44.34"/>
<polygon fill="black" stroke="black" points="293.38,-47.84 303.41,-44.43 293.44,-40.84 293.38,-47.84"/>
<text text-anchor="middle" x="267.97" y="-47.46" font-family="Times,serif" font-size="14.00">a</text>
</g>
<!-- s7&#45;&gt;s1 -->
<g id="edge9" class="edge">
<title>s7&#45;&gt;s1</title>
<path fill="none" stroke="black" d="M341.36,-53.2C349.51,-57.69 359.46,-63.43 368.04,-69.11 372.54,-72.09 377.21,-75.41 381.7,-78.73"/>
<polygon fill="black" stroke="black" points="379.25,-81.27 389.34,-84.52 383.48,-75.69 379.25,-81.27"/>
<text text-anchor="middle" x="364.67" y="-72.31" font-family="Times,serif" font-size="14.00">λ</text>
</g>
</g>
</svg>
