<?xml version="1.0" encoding="UTF-8" standalone="no"?>
<!DOCTYPE svg PUBLIC "-//W3C//DTD SVG 1.1//EN"
 "http://www.w3.org/Graphics/SVG/1.1/DTD/svg11.dtd">
<!-- Generated by graphviz version 2.38.0 (20140413.2041)
 -->
<!-- Title: finite_state_machine Pages: 1 -->
<svg width="187pt" height="360pt"
 viewBox="0.00 0.00 187.21 360.00" xmlns="http://www.w3.org/2000/svg" xmlns:xlink="http://www.w3.org/1999/xlink">
<g id="graph0" class="graph" transform="scale(0.590164 0.590164) rotate(0) translate(4 606)">
<title>finite_state_machine</title>
<polygon fill="white" stroke="none" points="-4,4 -4,-606 313.214,-606 313.214,4 -4,4"/>
<!-- s1 -->
<g id="node1" class="node"><title>s1</title>
<ellipse fill="none" stroke="black" cx="287.214" cy="-304" rx="18" ry="18"/>
<ellipse fill="none" stroke="black" cx="287.214" cy="-304" rx="22" ry="22"/>
<text text-anchor="middle" x="287.214" y="-299.8" font-family="Times,serif" font-size="14.00">s1</text>
</g>
<!-- s0 -->
<g id="node2" class="node"><title>s0</title>
<ellipse fill="none" stroke="black" cx="18" cy="-304" rx="18" ry="18"/>
<text text-anchor="middle" x="18" y="-299.8" font-family="Times,serif" font-size="14.00">s0</text>
</g>
<!-- s0&#45;&gt;s1 -->
<g id="edge1" class="edge"><title>s0&#45;&gt;s1</title>
<path fill="none" stroke="black" d="M18.7543,-322.129C18.4833,-373.201 20.7564,-516.467 54,-546 118.198,-603.033 182.55,-602.504 247.214,-546 277.985,-519.112 284.536,-396.374 285.889,-336.728"/>
<polygon fill="black" stroke="black" points="289.396,-336.428 286.086,-326.363 282.397,-336.295 289.396,-336.428"/>
<text text-anchor="middle" x="150.214" y="-590.8" font-family="Times,serif" font-size="14.00">λ</text>
</g>
<!-- s0&#45;&gt;s1 -->
<g id="edge2" class="edge"><title>s0&#45;&gt;s1</title>
<path fill="none" stroke="black" d="M19.2973,-322.194C20.4578,-367.583 26.1452,-483.901 54,-508 118.942,-564.184 181.735,-563.557 247.214,-508 272.872,-486.23 281.847,-387.769 284.827,-336.015"/>
<polygon fill="black" stroke="black" points="288.322,-336.196 285.361,-326.024 281.332,-335.823 288.322,-336.196"/>
<text text-anchor="middle" x="150.214" y="-551.8" font-family="Times,serif" font-size="14.00">λ</text>
</g>
<!-- s0&#45;&gt;s1 -->
<g id="edge3" class="edge"><title>s0&#45;&gt;s1</title>
<path fill="none" stroke="black" d="M20.0626,-321.941C22.7781,-360.89 31.4215,-451.202 54,-470 119.994,-524.944 180.586,-524.175 247.214,-470 267.691,-453.35 278.563,-379.369 283.276,-335.993"/>
<polygon fill="black" stroke="black" points="286.768,-336.245 284.318,-325.937 279.806,-335.523 286.768,-336.245"/>
<text text-anchor="middle" x="150.214" y="-512.8" font-family="Times,serif" font-size="14.00">λ</text>
</g>
<!-- s0&#45;&gt;s1 -->
<g id="edge4" class="edge"><title>s0&#45;&gt;s1</title>
<path fill="none" stroke="black" d="M21.2742,-321.941C25.7233,-353.856 36.6831,-418.429 54,-432 81.3694,-453.45 97.4436,-433.556 132.214,-434 183.329,-434.653 206.524,-462.944 247.214,-432 276.326,-409.861 284.381,-366.541 286.268,-336.466"/>
<polygon fill="black" stroke="black" points="289.767,-336.579 286.703,-326.437 282.773,-336.276 289.767,-336.579"/>
<text text-anchor="middle" x="150.214" y="-440.8" font-family="Times,serif" font-size="14.00">λ</text>
</g>
<!-- s0&#45;&gt;s1 -->
<g id="edge5" class="edge"><title>s0&#45;&gt;s1</title>
<path fill="none" stroke="black" d="M20.3021,-322.097C22.9006,-343.299 30.6845,-377.609 54,-394 95.5334,-423.198 117.448,-396.642 168.214,-396 203.333,-395.556 218.1,-413.646 247.214,-394 266.535,-380.963 276.344,-356.138 281.29,-335.858"/>
<polygon fill="black" stroke="black" points="284.719,-336.56 283.402,-326.047 277.876,-335.086 284.719,-336.56"/>
<text text-anchor="middle" x="150.214" y="-402.8" font-family="Times,serif" font-size="14.00">λ</text>
</g>
<!-- s0&#45;&gt;s1 -->
<g id="edge6" class="edge"><title>s0&#45;&gt;s1</title>
<path fill="none" stroke="black" d="M25.3476,-320.821C30.9056,-332.95 40.2627,-348.46 54,-356 98.5065,-380.428 117.448,-358.642 168.214,-358 203.333,-357.556 216.001,-372.103 247.214,-356 257.322,-350.785 265.516,-341.616 271.736,-332.415"/>
<polygon fill="black" stroke="black" points="274.832,-334.062 277.093,-323.712 268.871,-330.393 274.832,-334.062"/>
<text text-anchor="middle" x="150.214" y="-363.8" font-family="Times,serif" font-size="14.00">λ</text>
</g>
<!-- s0&#45;&gt;s1 -->
<g id="edge7" class="edge"><title>s0&#45;&gt;s1</title>
<path fill="none" stroke="black" d="M34.6606,-311.642C40.5773,-314.158 47.4618,-316.654 54,-318 138.109,-335.316 162.806,-333.794 247.214,-318 250.467,-317.391 253.81,-316.549 257.105,-315.578"/>
<polygon fill="black" stroke="black" points="258.333,-318.858 266.714,-312.377 256.12,-312.217 258.333,-318.858"/>
<text text-anchor="middle" x="150.214" y="-332.8" font-family="Times,serif" font-size="14.00">λ</text>
</g>
<!-- s0&#45;&gt;s1 -->
<g id="edge8" class="edge"><title>s0&#45;&gt;s1</title>
<path fill="none" stroke="black" d="M36.1219,-304C80.1654,-304 197.902,-304 254.702,-304"/>
<polygon fill="black" stroke="black" points="254.889,-307.5 264.889,-304 254.889,-300.5 254.889,-307.5"/>
<text text-anchor="middle" x="150.214" y="-306.8" font-family="Times,serif" font-size="14.00">λ</text>
</g>
<!-- s0&#45;&gt;s1 -->
<g id="edge11" class="edge"><title>s0&#45;&gt;s1</title>
<path fill="none" stroke="black" d="M35.78,-300.482C57.7962,-296.063 97.6918,-288.727 132.214,-286 175.128,-282.61 224.523,-290.48 255.555,-296.864"/>
<polygon fill="black" stroke="black" points="254.829,-300.288 265.339,-298.954 256.291,-293.443 254.829,-300.288"/>
<text text-anchor="middle" x="150.214" y="-288.8" font-family="Times,serif" font-size="14.00">λ</text>
</g>
<!-- s0&#45;&gt;s1 -->
<g id="edge12" class="edge"><title>s0&#45;&gt;s1</title>
<path fill="none" stroke="black" d="M34.7063,-296.949C56.1921,-287.753 96.197,-272.224 132.214,-267 176.658,-260.554 227.075,-277.393 257.753,-290.429"/>
<polygon fill="black" stroke="black" points="256.425,-293.669 266.988,-294.494 259.245,-287.262 256.425,-293.669"/>
<text text-anchor="middle" x="150.214" y="-269.8" font-family="Times,serif" font-size="14.00">λ</text>
</g>
<!-- s0&#45;&gt;s1 -->
<g id="edge13" class="edge"><title>s0&#45;&gt;s1</title>
<path fill="none" stroke="black" d="M33.0275,-293.432C53.5053,-278.857 93.3858,-253.632 132.214,-247 179.328,-238.953 230.783,-265.894 260.685,-285.446"/>
<polygon fill="black" stroke="black" points="258.999,-288.531 269.244,-291.23 262.918,-282.731 258.999,-288.531"/>
<text text-anchor="middle" x="150.214" y="-249.8" font-family="Times,serif" font-size="14.00">λ</text>
</g>
<!-- s0&#45;&gt;s1 -->
<g id="edge14" class="edge"><title>s0&#45;&gt;s1</title>
<path fill="none" stroke="black" d="M30.4166,-290.12C41.4961,-277.412 59.3603,-258.834 78.2139,-247 112.919,-225.216 127.823,-220.101 168.214,-227 193.293,-231.283 200.356,-232.978 222.214,-246 237.854,-255.317 253.053,-268.842 264.713,-280.488"/>
<polygon fill="black" stroke="black" points="262.351,-283.079 271.833,-287.806 267.368,-278.198 262.351,-283.079"/>
<text text-anchor="middle" x="150.214" y="-229.8" font-family="Times,serif" font-size="14.00">λ</text>
</g>
<!-- s0&#45;&gt;s1 -->
<g id="edge15" class="edge"><title>s0&#45;&gt;s1</title>
<path fill="none" stroke="black" d="M26.8193,-288.139C36.4971,-270.088 54.6276,-240.924 78.2139,-224 111.357,-200.219 128.062,-198.803 168.214,-206 193.406,-210.515 201.193,-211.401 222.214,-226 236.191,-235.707 236.358,-241.896 247.214,-255 253.632,-262.747 260.506,-271.296 266.667,-279.054"/>
<polygon fill="black" stroke="black" points="264.071,-281.413 273.018,-287.087 269.562,-277.072 264.071,-281.413"/>
<text text-anchor="middle" x="150.214" y="-208.8" font-family="Times,serif" font-size="14.00">λ</text>
</g>
<!-- s2 -->
<g id="node3" class="node"><title>s2</title>
<ellipse fill="none" stroke="black" cx="150.214" cy="-72" rx="18" ry="18"/>
<text text-anchor="middle" x="150.214" y="-67.8" font-family="Times,serif" font-size="14.00">s2</text>
</g>
<!-- s0&#45;&gt;s2 -->
<g id="edge9" class="edge"><title>s0&#45;&gt;s2</title>
<path fill="none" stroke="black" d="M19.2601,-285.819C20.3328,-238.597 25.8302,-113.8 54,-86 71.5997,-68.6311 100.672,-66.6655 122.07,-68.0985"/>
<polygon fill="black" stroke="black" points="121.879,-71.5961 132.166,-69.0579 122.542,-64.6275 121.879,-71.5961"/>
<text text-anchor="middle" x="57.1069" y="-88.8" font-family="Times,serif" font-size="14.00">a</text>
</g>
<!-- s3 -->
<g id="node4" class="node"><title>s3</title>
<ellipse fill="none" stroke="black" cx="96.2139" cy="-26" rx="18" ry="18"/>
<text text-anchor="middle" x="96.2139" y="-21.8" font-family="Times,serif" font-size="14.00">s3</text>
</g>
<!-- s0&#45;&gt;s3 -->
<g id="edge10" class="edge"><title>s0&#45;&gt;s3</title>
<path fill="none" stroke="black" d="M18.9465,-285.79C19.1575,-232.208 22.5243,-76.4999 54,-39 57.6779,-34.6182 62.8212,-31.6933 68.2306,-29.7462"/>
<polygon fill="black" stroke="black" points="69.206,-33.1089 77.996,-27.194 67.436,-26.3364 69.206,-33.1089"/>
<text text-anchor="middle" x="57.1069" y="-41.8" font-family="Times,serif" font-size="14.00">a</text>
</g>
<!-- s2&#45;&gt;s1 -->
<g id="edge16" class="edge"><title>s2&#45;&gt;s1</title>
<path fill="none" stroke="black" d="M168.245,-71.2325C190.671,-71.274 229.346,-75.2135 247.214,-100 266.752,-127.103 278.44,-221.869 283.405,-272.132"/>
<polygon fill="black" stroke="black" points="279.926,-272.521 284.363,-282.142 286.894,-271.854 279.926,-272.521"/>
<text text-anchor="middle" x="204.214" y="-82.8" font-family="Times,serif" font-size="14.00">λ</text>
</g>
<!-- s4 -->
<g id="node5" class="node"><title>s4</title>
<ellipse fill="none" stroke="black" cx="204.214" cy="-18" rx="18" ry="18"/>
<text text-anchor="middle" x="204.214" y="-13.8" font-family="Times,serif" font-size="14.00">s4</text>
</g>
<!-- s3&#45;&gt;s4 -->
<g id="edge17" class="edge"><title>s3&#45;&gt;s4</title>
<path fill="none" stroke="black" d="M114.245,-24.7147C130.935,-23.455 156.635,-21.5154 176.13,-20.0441"/>
<polygon fill="black" stroke="black" points="176.517,-23.5249 186.225,-19.2821 175.99,-16.5447 176.517,-23.5249"/>
<text text-anchor="middle" x="150.214" y="-26.8" font-family="Times,serif" font-size="14.00">a</text>
</g>
<!-- s4&#45;&gt;s1 -->
<g id="edge18" class="edge"><title>s4&#45;&gt;s1</title>
<path fill="none" stroke="black" d="M221.263,-23.9302C230.344,-28.1319 241.079,-34.6912 247.214,-44 271.5,-80.8521 281.349,-210.399 284.715,-271.563"/>
<polygon fill="black" stroke="black" points="281.233,-272.003 285.252,-281.806 288.223,-271.636 281.233,-272.003"/>
<text text-anchor="middle" x="243.714" y="-46.8" font-family="Times,serif" font-size="14.00">λ</text>
</g>
</g>
</svg>
