<?xml version="1.0" encoding="UTF-8" standalone="no"?>
<!DOCTYPE svg PUBLIC "-//W3C//DTD SVG 1.1//EN"
 "http://www.w3.org/Graphics/SVG/1.1/DTD/svg11.dtd">
<!-- Generated by graphviz version 12.2.1 (20241206.2353)
 -->
<!-- Title: finite_state_machine Pages: 1 -->
<svg width="216pt" height="102pt"
 viewBox="0.00 0.00 216.15 102.22" xmlns="http://www.w3.org/2000/svg" xmlns:xlink="http://www.w3.org/1999/xlink">
<g id="graph0" class="graph" transform="scale(1 1) rotate(0) translate(4 98.22)">
<title>finite_state_machine</title>
<polygon fill="white" stroke="none" points="-4,4 -4,-98.22 212.15,-98.22 212.15,4 -4,4"/>
<!-- s1 -->
<g id="node1" class="node">
<title>s1</title>
<ellipse fill="none" stroke="black" cx="185.04" cy="-49.11" rx="19.11" ry="19.11"/>
<ellipse fill="none" stroke="black" cx="185.04" cy="-49.11" rx="23.11" ry="23.11"/>
<text text-anchor="middle" x="185.04" y="-44.06" font-family="Times,serif" font-size="14.00">s1</text>
</g>
<!-- s0 -->
<g id="node2" class="node">
<title>s0</title>
<ellipse fill="none" stroke="black" cx="19.11" cy="-47.11" rx="19.11" ry="19.11"/>
<text text-anchor="middle" x="19.11" y="-42.06" font-family="Times,serif" font-size="14.00">s0</text>
</g>
<!-- s2 -->
<g id="node3" class="node">
<title>s2</title>
<ellipse fill="none" stroke="black" cx="100.07" cy="-75.11" rx="19.11" ry="19.11"/>
<text text-anchor="middle" x="100.07" y="-70.06" font-family="Times,serif" font-size="14.00">s2</text>
</g>
<!-- s0&#45;&gt;s2 -->
<g id="edge1" class="edge">
<title>s0&#45;&gt;s2</title>
<path fill="none" stroke="black" d="M37.63,-53.32C47.45,-56.8 59.92,-61.22 71.05,-65.17"/>
<polygon fill="black" stroke="black" points="69.58,-68.36 80.17,-68.4 71.91,-61.76 69.58,-68.36"/>
<text text-anchor="middle" x="59.59" y="-65.15" font-family="Times,serif" font-size="14.00">a</text>
</g>
<!-- s3 -->
<g id="node4" class="node">
<title>s3</title>
<ellipse fill="none" stroke="black" cx="100.07" cy="-19.11" rx="19.11" ry="19.11"/>
<text text-anchor="middle" x="100.07" y="-14.06" font-family="Times,serif" font-size="14.00">s3</text>
</g>
<!-- s0&#45;&gt;s3 -->
<g id="edge2" class="edge">
<title>s0&#45;&gt;s3</title>
<path fill="none" stroke="black" d="M37.63,-40.89C47.45,-37.41 59.92,-32.99 71.05,-29.04"/>
<polygon fill="black" stroke="black" points="71.91,-32.45 80.17,-25.81 69.58,-25.85 71.91,-32.45"/>
<text text-anchor="middle" x="59.59" y="-37.15" font-family="Times,serif" font-size="14.00">b</text>
</g>
<!-- s2&#45;&gt;s1 -->
<g id="edge3" class="edge">
<title>s2&#45;&gt;s1</title>
<path fill="none" stroke="black" d="M118.67,-69.59C128.3,-66.58 140.54,-62.74 151.81,-59.21"/>
<polygon fill="black" stroke="black" points="152.7,-62.6 161.19,-56.27 150.6,-55.92 152.7,-62.6"/>
<text text-anchor="middle" x="140.56" y="-66.86" font-family="Times,serif" font-size="14.00">λ</text>
</g>
<!-- s3&#45;&gt;s1 -->
<g id="edge4" class="edge">
<title>s3&#45;&gt;s1</title>
<path fill="none" stroke="black" d="M118.26,-25.32C128.05,-28.86 140.61,-33.41 152.14,-37.57"/>
<polygon fill="black" stroke="black" points="150.72,-40.78 161.32,-40.89 153.1,-34.2 150.72,-40.78"/>
<text text-anchor="middle" x="140.56" y="-37.31" font-family="Times,serif" font-size="14.00">λ</text>
</g>
</g>
</svg>
