<?xml version="1.0" encoding="UTF-8" standalone="no"?>
<!DOCTYPE svg PUBLIC "-//W3C//DTD SVG 1.1//EN"
 "http://www.w3.org/Graphics/SVG/1.1/DTD/svg11.dtd">
<!-- Generated by graphviz version 12.2.1 (20241206.2353)
 -->
<!-- Title: finite_state_machine Pages: 1 -->
<svg width="576pt" height="187pt"
 viewBox="0.00 0.00 576.00 186.74" xmlns="http://www.w3.org/2000/svg" xmlns:xlink="http://www.w3.org/1999/xlink">
<g id="graph0" class="graph" transform="scale(0.942104 0.942104) rotate(0) translate(4 194.22)">
<title>finite_state_machine</title>
<polygon fill="white" stroke="none" points="-4,4 -4,-194.22 607.4,-194.22 607.4,4 -4,4"/>
<text text-anchor="middle" x="301.7" y="-23.7" font-family="Times,serif" font-size="14.00">Regular Expression: </text>
<text text-anchor="middle" x="301.7" y="-7.2" font-family="Times,serif" font-size="14.00">xyzzy401</text>
<!-- s1 -->
<g id="node1" class="node">
<title>s1</title>
<ellipse fill="none" stroke="black" cx="580.29" cy="-112.11" rx="19.11" ry="19.11"/>
<ellipse fill="none" stroke="black" cx="580.29" cy="-112.11" rx="23.11" ry="23.11"/>
<text text-anchor="middle" x="580.29" y="-107.06" font-family="Times,serif" font-size="14.00">s1</text>
</g>
<!-- s0 -->
<g id="node2" class="node">
<title>s0</title>
<ellipse fill="none" stroke="black" cx="100.07" cy="-140.11" rx="19.11" ry="19.11"/>
<text text-anchor="middle" x="100.07" y="-135.06" font-family="Times,serif" font-size="14.00">s0</text>
</g>
<!-- s2 -->
<g id="node3" class="node">
<title>s2</title>
<ellipse fill="none" stroke="black" cx="19.11" cy="-120.11" rx="19.11" ry="19.11"/>
<text text-anchor="middle" x="19.11" y="-115.06" font-family="Times,serif" font-size="14.00">s2</text>
</g>
<!-- s0&#45;&gt;s2 -->
<g id="edge1" class="edge">
<title>s0&#45;&gt;s2</title>
<path fill="none" stroke="black" d="M81.23,-135.59C71.75,-133.19 59.86,-130.18 49.1,-127.45"/>
<polygon fill="black" stroke="black" points="50.05,-124.08 39.49,-125.02 48.33,-130.87 50.05,-124.08"/>
<text text-anchor="middle" x="59.59" y="-133.91" font-family="Times,serif" font-size="14.00">a</text>
</g>
<!-- s0&#45;&gt;s2 -->
<g id="edge2" class="edge">
<title>s0&#45;&gt;s2</title>
<path fill="none" stroke="black" d="M87.24,-125.85C80.83,-119.25 72.31,-112.11 62.97,-108.61 57.83,-106.68 52.23,-106.72 46.82,-107.77"/>
<polygon fill="black" stroke="black" points="46.17,-104.31 37.66,-110.62 48.25,-111 46.17,-104.31"/>
<text text-anchor="middle" x="59.59" y="-111.81" font-family="Times,serif" font-size="14.00">λ</text>
</g>
<!-- s4 -->
<g id="node4" class="node">
<title>s4</title>
<ellipse fill="none" stroke="black" cx="212.5" cy="-169.11" rx="19.11" ry="19.11"/>
<text text-anchor="middle" x="212.5" y="-164.06" font-family="Times,serif" font-size="14.00">s4</text>
</g>
<!-- s0&#45;&gt;s4 -->
<g id="edge3" class="edge">
<title>s0&#45;&gt;s4</title>
<path fill="none" stroke="black" d="M118.81,-144.77C136.04,-149.29 162.48,-156.23 182.72,-161.55"/>
<polygon fill="black" stroke="black" points="181.78,-164.92 192.34,-164.08 183.56,-158.15 181.78,-164.92"/>
<text text-anchor="middle" x="156.29" y="-162.1" font-family="Times,serif" font-size="14.00">a</text>
</g>
<!-- s7 -->
<g id="node5" class="node">
<title>s7</title>
<ellipse fill="none" stroke="black" cx="212.5" cy="-113.11" rx="19.11" ry="19.11"/>
<text text-anchor="middle" x="212.5" y="-108.06" font-family="Times,serif" font-size="14.00">s7</text>
</g>
<!-- s0&#45;&gt;s7 -->
<g id="edge4" class="edge">
<title>s0&#45;&gt;s7</title>
<path fill="none" stroke="black" d="M118.13,-133.02C124.08,-130.74 130.86,-128.35 137.18,-126.61 151.75,-122.59 168.26,-119.46 182.02,-117.22"/>
<polygon fill="black" stroke="black" points="182.43,-120.7 191.78,-115.72 181.37,-113.78 182.43,-120.7"/>
<text text-anchor="middle" x="156.29" y="-129.81" font-family="Times,serif" font-size="14.00">a</text>
</g>
<!-- s2&#45;&gt;s0 -->
<g id="edge5" class="edge">
<title>s2&#45;&gt;s0</title>
<path fill="none" stroke="black" d="M32.3,-134.47C38.69,-140.87 47.07,-147.72 56.22,-151.11 61.21,-152.96 66.65,-153 71.92,-152.07"/>
<polygon fill="black" stroke="black" points="72.89,-155.43 81.5,-149.26 70.92,-148.72 72.89,-155.43"/>
<text text-anchor="middle" x="59.59" y="-155.66" font-family="Times,serif" font-size="14.00">λ</text>
</g>
<!-- s3 -->
<g id="node6" class="node">
<title>s3</title>
<ellipse fill="none" stroke="black" cx="156.29" cy="-60.11" rx="19.11" ry="19.11"/>
<text text-anchor="middle" x="156.29" y="-55.06" font-family="Times,serif" font-size="14.00">s3</text>
</g>
<!-- s2&#45;&gt;s3 -->
<g id="edge6" class="edge">
<title>s2&#45;&gt;s3</title>
<path fill="none" stroke="black" d="M32.25,-105.99C38.74,-99.24 47.23,-91.57 56.22,-86.61 77.97,-74.59 105.46,-67.8 125.96,-64.11"/>
<polygon fill="black" stroke="black" points="126.33,-67.59 135.63,-62.52 125.2,-60.69 126.33,-67.59"/>
<text text-anchor="middle" x="59.59" y="-89.81" font-family="Times,serif" font-size="14.00">τ</text>
</g>
<!-- s5 -->
<g id="node7" class="node">
<title>s5</title>
<ellipse fill="none" stroke="black" cx="292.72" cy="-171.11" rx="19.11" ry="19.11"/>
<text text-anchor="middle" x="292.72" y="-166.06" font-family="Times,serif" font-size="14.00">s5</text>
</g>
<!-- s4&#45;&gt;s5 -->
<g id="edge8" class="edge">
<title>s4&#45;&gt;s5</title>
<path fill="none" stroke="black" d="M232.04,-169.58C241,-169.81 251.98,-170.09 262.06,-170.35"/>
<polygon fill="black" stroke="black" points="261.72,-173.84 271.8,-170.6 261.89,-166.84 261.72,-173.84"/>
<text text-anchor="middle" x="252.61" y="-173.37" font-family="Times,serif" font-size="14.00">a</text>
</g>
<!-- s8 -->
<g id="node9" class="node">
<title>s8</title>
<ellipse fill="none" stroke="black" cx="292.72" cy="-113.11" rx="19.11" ry="19.11"/>
<text text-anchor="middle" x="292.72" y="-108.06" font-family="Times,serif" font-size="14.00">s8</text>
</g>
<!-- s7&#45;&gt;s8 -->
<g id="edge11" class="edge">
<title>s7&#45;&gt;s8</title>
<path fill="none" stroke="black" d="M232.04,-113.11C241,-113.11 251.98,-113.11 262.06,-113.11"/>
<polygon fill="black" stroke="black" points="261.8,-116.61 271.8,-113.11 261.8,-109.61 261.8,-116.61"/>
<text text-anchor="middle" x="252.61" y="-116.31" font-family="Times,serif" font-size="14.00">a</text>
</g>
<!-- s3&#45;&gt;s1 -->
<g id="edge7" class="edge">
<title>s3&#45;&gt;s1</title>
<path fill="none" stroke="black" d="M175.72,-60.11C194.74,-60.11 225.25,-60.11 251.61,-60.11 251.61,-60.11 251.61,-60.11 491.72,-60.11 515.59,-60.11 538.64,-74.57 555.09,-88.24"/>
<polygon fill="black" stroke="black" points="552.56,-90.67 562.38,-94.65 557.19,-85.42 552.56,-90.67"/>
<text text-anchor="middle" x="333.2" y="-63.31" font-family="Times,serif" font-size="14.00">λ</text>
</g>
<!-- s6 -->
<g id="node8" class="node">
<title>s6</title>
<ellipse fill="none" stroke="black" cx="429.9" cy="-171.11" rx="19.11" ry="19.11"/>
<text text-anchor="middle" x="429.9" y="-166.06" font-family="Times,serif" font-size="14.00">s6</text>
</g>
<!-- s5&#45;&gt;s6 -->
<g id="edge9" class="edge">
<title>s5&#45;&gt;s6</title>
<path fill="none" stroke="black" d="M312.23,-171.11C334.68,-171.11 372.8,-171.11 399.33,-171.11"/>
<polygon fill="black" stroke="black" points="399.09,-174.61 409.09,-171.11 399.09,-167.61 399.09,-174.61"/>
<text text-anchor="middle" x="333.2" y="-174.31" font-family="Times,serif" font-size="14.00">b</text>
</g>
<!-- s6&#45;&gt;s1 -->
<g id="edge10" class="edge">
<title>s6&#45;&gt;s1</title>
<path fill="none" stroke="black" d="M448.76,-166.38C465.86,-161.67 492.26,-153.88 514.43,-145.11 525.8,-140.61 528.27,-138.61 539.18,-133.11 542.48,-131.44 545.92,-129.68 549.34,-127.92"/>
<polygon fill="black" stroke="black" points="550.77,-131.12 558.02,-123.4 547.53,-124.91 550.77,-131.12"/>
<text text-anchor="middle" x="490.72" y="-164.09" font-family="Times,serif" font-size="14.00">λ</text>
</g>
<!-- s9 -->
<g id="node10" class="node">
<title>s9</title>
<ellipse fill="none" stroke="black" cx="373.68" cy="-112.11" rx="19.11" ry="19.11"/>
<text text-anchor="middle" x="373.68" y="-107.06" font-family="Times,serif" font-size="14.00">s9</text>
</g>
<!-- s8&#45;&gt;s9 -->
<g id="edge12" class="edge">
<title>s8&#45;&gt;s9</title>
<path fill="none" stroke="black" d="M312.03,-112.88C321.14,-112.76 332.37,-112.62 342.69,-112.49"/>
<polygon fill="black" stroke="black" points="342.73,-115.99 352.68,-112.36 342.64,-108.99 342.73,-115.99"/>
<text text-anchor="middle" x="333.2" y="-115.84" font-family="Times,serif" font-size="14.00">a</text>
</g>
<!-- s10 -->
<g id="node11" class="node">
<title>s10</title>
<ellipse fill="none" stroke="black" cx="490.72" cy="-112.11" rx="23.71" ry="23.71"/>
<text text-anchor="middle" x="490.72" y="-107.06" font-family="Times,serif" font-size="14.00">s10</text>
</g>
<!-- s9&#45;&gt;s10 -->
<g id="edge13" class="edge">
<title>s9&#45;&gt;s10</title>
<path fill="none" stroke="black" d="M393.17,-112.11C409.84,-112.11 434.79,-112.11 455.15,-112.11"/>
<polygon fill="black" stroke="black" points="455,-115.61 465,-112.11 455,-108.61 455,-115.61"/>
<text text-anchor="middle" x="429.9" y="-115.31" font-family="Times,serif" font-size="14.00">b</text>
</g>
<!-- s10&#45;&gt;s1 -->
<g id="edge14" class="edge">
<title>s10&#45;&gt;s1</title>
<path fill="none" stroke="black" d="M514.73,-112.11C524.05,-112.11 535.01,-112.11 545.23,-112.11"/>
<polygon fill="black" stroke="black" points="545.22,-115.61 555.22,-112.11 545.22,-108.61 545.22,-115.61"/>
<text text-anchor="middle" x="535.81" y="-115.31" font-family="Times,serif" font-size="14.00">λ</text>
</g>
</g>
</svg>
