<?xml version="1.0" encoding="UTF-8" standalone="no"?>
<!DOCTYPE svg PUBLIC "-//W3C//DTD SVG 1.1//EN"
 "http://www.w3.org/Graphics/SVG/1.1/DTD/svg11.dtd">
<!-- Generated by graphviz version 12.2.1 (20241206.2353)
 -->
<!-- Title: finite_state_machine Pages: 1 -->
<svg width="440pt" height="148pt"
 viewBox="0.00 0.00 440.26 148.22" xmlns="http://www.w3.org/2000/svg" xmlns:xlink="http://www.w3.org/1999/xlink">
<g id="graph0" class="graph" transform="scale(1 1) rotate(0) translate(4 144.22)">
<title>finite_state_machine</title>
<polygon fill="white" stroke="none" points="-4,4 -4,-144.22 436.26,-144.22 436.26,4 -4,4"/>
<!-- s1 -->
<g id="node1" class="node">
<title>s1</title>
<ellipse fill="none" stroke="black" cx="409.15" cy="-75.11" rx="19.11" ry="19.11"/>
<ellipse fill="none" stroke="black" cx="409.15" cy="-75.11" rx="23.11" ry="23.11"/>
<text text-anchor="middle" x="409.15" y="-70.06" font-family="Times,serif" font-size="14.00">s1</text>
</g>
<!-- s0 -->
<g id="node2" class="node">
<title>s0</title>
<ellipse fill="none" stroke="black" cx="19.11" cy="-75.11" rx="19.11" ry="19.11"/>
<text text-anchor="middle" x="19.11" y="-70.06" font-family="Times,serif" font-size="14.00">s0</text>
</g>
<!-- s2 -->
<g id="node3" class="node">
<title>s2</title>
<ellipse fill="none" stroke="black" cx="155.54" cy="-121.11" rx="19.11" ry="19.11"/>
<text text-anchor="middle" x="155.54" y="-116.06" font-family="Times,serif" font-size="14.00">s2</text>
</g>
<!-- s0&#45;&gt;s2 -->
<g id="edge1" class="edge">
<title>s0&#45;&gt;s2</title>
<path fill="none" stroke="black" d="M35.49,-85.17C41.75,-88.96 49.15,-93.08 56.22,-96.11 78.44,-105.64 105.1,-112.14 125.05,-116.12"/>
<polygon fill="black" stroke="black" points="124.26,-119.53 134.74,-117.94 125.56,-112.65 124.26,-119.53"/>
<text text-anchor="middle" x="59.22" y="-101.54" font-family="Times,serif" font-size="14.00">a</text>
</g>
<!-- s3 -->
<g id="node4" class="node">
<title>s3</title>
<ellipse fill="none" stroke="black" cx="99.32" cy="-75.11" rx="19.11" ry="19.11"/>
<text text-anchor="middle" x="99.32" y="-70.06" font-family="Times,serif" font-size="14.00">s3</text>
</g>
<!-- s0&#45;&gt;s3 -->
<g id="edge2" class="edge">
<title>s0&#45;&gt;s3</title>
<path fill="none" stroke="black" d="M38.64,-75.11C47.6,-75.11 58.58,-75.11 68.67,-75.11"/>
<polygon fill="black" stroke="black" points="68.41,-78.61 78.41,-75.11 68.41,-71.61 68.41,-78.61"/>
<text text-anchor="middle" x="59.22" y="-78.31" font-family="Times,serif" font-size="14.00">a</text>
</g>
<!-- s5 -->
<g id="node5" class="node">
<title>s5</title>
<ellipse fill="none" stroke="black" cx="99.32" cy="-19.11" rx="19.11" ry="19.11"/>
<text text-anchor="middle" x="99.32" y="-14.06" font-family="Times,serif" font-size="14.00">s5</text>
</g>
<!-- s0&#45;&gt;s5 -->
<g id="edge3" class="edge">
<title>s0&#45;&gt;s5</title>
<path fill="none" stroke="black" d="M35.19,-64.31C46.22,-56.41 61.43,-45.52 74.15,-36.41"/>
<polygon fill="black" stroke="black" points="75.96,-39.42 82.06,-30.75 71.89,-33.73 75.96,-39.42"/>
<text text-anchor="middle" x="59.22" y="-51.99" font-family="Times,serif" font-size="14.00">a</text>
</g>
<!-- s2&#45;&gt;s1 -->
<g id="edge4" class="edge">
<title>s2&#45;&gt;s1</title>
<path fill="none" stroke="black" d="M174.97,-119.52C208.65,-116.42 282.27,-108.75 343.29,-96.11 354.27,-93.83 366,-90.37 376.43,-86.9"/>
<polygon fill="black" stroke="black" points="377.4,-90.27 385.71,-83.69 375.11,-83.65 377.4,-90.27"/>
<text text-anchor="middle" x="267.97" y="-114.33" font-family="Times,serif" font-size="14.00">λ</text>
</g>
<!-- s4 -->
<g id="node6" class="node">
<title>s4</title>
<ellipse fill="none" stroke="black" cx="267.97" cy="-75.11" rx="19.11" ry="19.11"/>
<text text-anchor="middle" x="267.97" y="-70.06" font-family="Times,serif" font-size="14.00">s4</text>
</g>
<!-- s3&#45;&gt;s4 -->
<g id="edge5" class="edge">
<title>s3&#45;&gt;s4</title>
<path fill="none" stroke="black" d="M118.79,-75.11C147.45,-75.11 202.88,-75.11 237.22,-75.11"/>
<polygon fill="black" stroke="black" points="236.9,-78.61 246.9,-75.11 236.9,-71.61 236.9,-78.61"/>
<text text-anchor="middle" x="155.54" y="-78.31" font-family="Times,serif" font-size="14.00">a</text>
</g>
<!-- s6 -->
<g id="node7" class="node">
<title>s6</title>
<ellipse fill="none" stroke="black" cx="211.75" cy="-19.11" rx="19.11" ry="19.11"/>
<text text-anchor="middle" x="211.75" y="-14.06" font-family="Times,serif" font-size="14.00">s6</text>
</g>
<!-- s5&#45;&gt;s6 -->
<g id="edge7" class="edge">
<title>s5&#45;&gt;s6</title>
<path fill="none" stroke="black" d="M118.56,-19.11C135.58,-19.11 161.29,-19.11 181.23,-19.11"/>
<polygon fill="black" stroke="black" points="180.98,-22.61 190.98,-19.11 180.98,-15.61 180.98,-22.61"/>
<text text-anchor="middle" x="155.54" y="-22.31" font-family="Times,serif" font-size="14.00">a</text>
</g>
<!-- s4&#45;&gt;s1 -->
<g id="edge6" class="edge">
<title>s4&#45;&gt;s1</title>
<path fill="none" stroke="black" d="M287.45,-75.11C309.61,-75.11 347.17,-75.11 374.52,-75.11"/>
<polygon fill="black" stroke="black" points="374.39,-78.61 384.39,-75.11 374.39,-71.61 374.39,-78.61"/>
<text text-anchor="middle" x="324.18" y="-78.31" font-family="Times,serif" font-size="14.00">λ</text>
</g>
<!-- s7 -->
<g id="node8" class="node">
<title>s7</title>
<ellipse fill="none" stroke="black" cx="324.18" cy="-20.11" rx="19.11" ry="19.11"/>
<text text-anchor="middle" x="324.18" y="-15.06" font-family="Times,serif" font-size="14.00">s7</text>
</g>
<!-- s6&#45;&gt;s7 -->
<g id="edge8" class="edge">
<title>s6&#45;&gt;s7</title>
<path fill="none" stroke="black" d="M230.99,-19.27C248.01,-19.43 273.72,-19.66 293.66,-19.84"/>
<polygon fill="black" stroke="black" points="293.38,-23.34 303.41,-19.93 293.44,-16.34 293.38,-23.34"/>
<text text-anchor="middle" x="267.97" y="-22.96" font-family="Times,serif" font-size="14.00">a</text>
</g>
<!-- s7&#45;&gt;s1 -->
<g id="edge9" class="edge">
<title>s7&#45;&gt;s1</title>
<path fill="none" stroke="black" d="M341.36,-28.7C349.51,-33.19 359.46,-38.93 368.04,-44.61 372.54,-47.59 377.21,-50.91 381.7,-54.23"/>
<polygon fill="black" stroke="black" points="379.25,-56.77 389.34,-60.02 383.48,-51.19 379.25,-56.77"/>
<text text-anchor="middle" x="364.67" y="-47.81" font-family="Times,serif" font-size="14.00">λ</text>
</g>
</g>
</svg>
