<?xml version="1.0" encoding="UTF-8" standalone="no"?>
<!DOCTYPE svg PUBLIC "-//W3C//DTD SVG 1.1//EN"
 "http://www.w3.org/Graphics/SVG/1.1/DTD/svg11.dtd">
<!-- Generated by graphviz version 12.2.1 (20241206.2353)
 -->
<!-- Title: finite_state_machine Pages: 1 -->
<svg width="576pt" height="194pt"
 viewBox="0.00 0.00 576.00 193.73" xmlns="http://www.w3.org/2000/svg" xmlns:xlink="http://www.w3.org/1999/xlink">
<g id="graph0" class="graph" transform="scale(0.517174 0.517174) rotate(0) translate(4 370.6)">
<title>finite_state_machine</title>
<polygon fill="white" stroke="none" points="-4,4 -4,-370.6 1109.75,-370.6 1109.75,4 -4,4"/>
<text text-anchor="middle" x="552.87" y="-23.7" font-family="Times,serif" font-size="14.00">Regular Expression: </text>
<text text-anchor="middle" x="552.87" y="-7.2" font-family="Times,serif" font-size="14.00">xyzzy401</text>
<!-- s1 -->
<g id="node1" class="node">
<title>s1</title>
<ellipse fill="none" stroke="black" cx="1082.64" cy="-226.49" rx="19.11" ry="19.11"/>
<ellipse fill="none" stroke="black" cx="1082.64" cy="-226.49" rx="23.11" ry="23.11"/>
<text text-anchor="middle" x="1082.64" y="-221.44" font-family="Times,serif" font-size="14.00">s1</text>
</g>
<!-- s0 -->
<g id="node2" class="node">
<title>s0</title>
<ellipse fill="none" stroke="black" cx="111.32" cy="-220.49" rx="19.11" ry="19.11"/>
<text text-anchor="middle" x="111.32" y="-215.44" font-family="Times,serif" font-size="14.00">s0</text>
</g>
<!-- s2 -->
<g id="node3" class="node">
<title>s2</title>
<ellipse fill="none" stroke="black" cx="19.11" cy="-180.49" rx="19.11" ry="19.11"/>
<text text-anchor="middle" x="19.11" y="-175.44" font-family="Times,serif" font-size="14.00">s2</text>
</g>
<!-- s0&#45;&gt;s2 -->
<g id="edge1" class="edge">
<title>s0&#45;&gt;s2</title>
<path fill="none" stroke="black" d="M93.95,-211.68C87.82,-208.49 80.76,-204.95 74.22,-201.99 65.77,-198.15 56.42,-194.31 47.91,-190.95"/>
<polygon fill="black" stroke="black" points="49.34,-187.75 38.75,-187.4 46.81,-194.28 49.34,-187.75"/>
<text text-anchor="middle" x="65.22" y="-205.19" font-family="Times,serif" font-size="14.00">0&#45;9</text>
</g>
<!-- s0&#45;&gt;s2 -->
<g id="edge2" class="edge">
<title>s0&#45;&gt;s2</title>
<path fill="none" stroke="black" d="M102.19,-203.44C96.11,-192.84 86.7,-180.1 74.22,-173.99 66.27,-170.1 56.91,-169.92 48.23,-171.25"/>
<polygon fill="black" stroke="black" points="47.46,-167.84 38.49,-173.47 49.01,-174.66 47.46,-167.84"/>
<text text-anchor="middle" x="65.22" y="-177.19" font-family="Times,serif" font-size="14.00">λ</text>
</g>
<!-- s15 -->
<g id="node4" class="node">
<title>s15</title>
<ellipse fill="none" stroke="black" cx="212.64" cy="-260.49" rx="23.71" ry="23.71"/>
<text text-anchor="middle" x="212.64" y="-255.44" font-family="Times,serif" font-size="14.00">s15</text>
</g>
<!-- s0&#45;&gt;s15 -->
<g id="edge3" class="edge">
<title>s0&#45;&gt;s15</title>
<path fill="none" stroke="black" d="M128.65,-229.18C134.78,-232.29 141.85,-235.71 148.43,-238.49 158.23,-242.62 169.11,-246.61 179.04,-250.03"/>
<polygon fill="black" stroke="black" points="177.71,-253.27 188.3,-253.14 179.94,-246.64 177.71,-253.27"/>
<text text-anchor="middle" x="159.68" y="-250.31" font-family="Times,serif" font-size="14.00">a&#45;z</text>
</g>
<!-- s0&#45;&gt;s15 -->
<g id="edge4" class="edge">
<title>s0&#45;&gt;s15</title>
<path fill="none" stroke="black" d="M130.22,-215.82C142.22,-213.61 158.1,-212.51 170.93,-217.99 178.55,-221.24 185.43,-226.7 191.28,-232.64"/>
<polygon fill="black" stroke="black" points="188.32,-234.58 197.57,-239.74 193.56,-229.94 188.32,-234.58"/>
<text text-anchor="middle" x="159.68" y="-221.19" font-family="Times,serif" font-size="14.00">A&#45;Z</text>
</g>
<!-- s2&#45;&gt;s0 -->
<g id="edge5" class="edge">
<title>s2&#45;&gt;s0</title>
<path fill="none" stroke="black" d="M30.5,-196.28C36.85,-204.49 45.76,-213.77 56.22,-218.49 63.7,-221.86 72.37,-223.17 80.56,-223.42"/>
<polygon fill="black" stroke="black" points="80.57,-226.92 90.48,-223.2 80.41,-219.93 80.57,-226.92"/>
<text text-anchor="middle" x="65.22" y="-226.09" font-family="Times,serif" font-size="14.00">λ</text>
</g>
<!-- s3 -->
<g id="node5" class="node">
<title>s3</title>
<ellipse fill="none" stroke="black" cx="111.32" cy="-68.49" rx="19.11" ry="19.11"/>
<text text-anchor="middle" x="111.32" y="-63.44" font-family="Times,serif" font-size="14.00">s3</text>
</g>
<!-- s2&#45;&gt;s3 -->
<g id="edge6" class="edge">
<title>s2&#45;&gt;s3</title>
<path fill="none" stroke="black" d="M31.9,-165.84C47.03,-147.06 73.45,-114.26 91.41,-91.97"/>
<polygon fill="black" stroke="black" points="94.03,-94.29 97.58,-84.31 88.58,-89.9 94.03,-94.29"/>
<text text-anchor="middle" x="65.22" y="-137.72" font-family="Times,serif" font-size="14.00">τ</text>
</g>
<!-- s16 -->
<g id="node17" class="node">
<title>s16</title>
<ellipse fill="none" stroke="black" cx="318.57" cy="-268.49" rx="23.71" ry="23.71"/>
<text text-anchor="middle" x="318.57" y="-263.44" font-family="Times,serif" font-size="14.00">s16</text>
</g>
<!-- s15&#45;&gt;s16 -->
<g id="edge26" class="edge">
<title>s15&#45;&gt;s16</title>
<path fill="none" stroke="black" d="M235.39,-252.82C247.63,-249.52 263.16,-247.02 276.86,-249.99 280.24,-250.72 283.68,-251.76 287.05,-252.97"/>
<polygon fill="black" stroke="black" points="285.47,-256.11 296.05,-256.72 288.16,-249.64 285.47,-256.11"/>
<text text-anchor="middle" x="265.61" y="-253.19" font-family="Times,serif" font-size="14.00">a&#45;z</text>
</g>
<!-- s15&#45;&gt;s16 -->
<g id="edge27" class="edge">
<title>s15&#45;&gt;s16</title>
<path fill="none" stroke="black" d="M229.49,-243.7C236.45,-237.5 245.14,-231.21 254.36,-227.99 263.8,-224.68 267.61,-224.17 276.86,-227.99 284.04,-230.95 290.62,-235.86 296.31,-241.26"/>
<polygon fill="black" stroke="black" points="293.5,-243.39 302.91,-248.26 298.59,-238.58 293.5,-243.39"/>
<text text-anchor="middle" x="265.61" y="-231.19" font-family="Times,serif" font-size="14.00">A&#45;Z</text>
</g>
<!-- s15&#45;&gt;s16 -->
<g id="edge28" class="edge">
<title>s15&#45;&gt;s16</title>
<path fill="none" stroke="black" d="M217.65,-284.08C222.5,-304.52 232.86,-332.88 254.36,-346.49 277.37,-361.05 295.84,-328.78 306.74,-301.42"/>
<polygon fill="black" stroke="black" points="309.92,-302.91 310.14,-292.32 303.36,-300.46 309.92,-302.91"/>
<text text-anchor="middle" x="265.61" y="-353.3" font-family="Times,serif" font-size="14.00">0&#45;9</text>
</g>
<!-- s15&#45;&gt;s16 -->
<g id="edge29" class="edge">
<title>s15&#45;&gt;s16</title>
<path fill="none" stroke="black" d="M225.68,-280.71C232.69,-290.45 242.49,-301.14 254.36,-306.49 263.48,-310.59 267.55,-310.15 276.86,-306.49 283.59,-303.83 289.86,-299.49 295.37,-294.66"/>
<polygon fill="black" stroke="black" points="297.56,-297.41 302.27,-287.92 292.67,-292.4 297.56,-297.41"/>
<text text-anchor="middle" x="265.61" y="-312.6" font-family="Times,serif" font-size="14.00">λ</text>
</g>
<!-- s4 -->
<g id="node6" class="node">
<title>s4</title>
<ellipse fill="none" stroke="black" cx="212.64" cy="-96.49" rx="19.11" ry="19.11"/>
<text text-anchor="middle" x="212.64" y="-91.44" font-family="Times,serif" font-size="14.00">s4</text>
</g>
<!-- s3&#45;&gt;s4 -->
<g id="edge7" class="edge">
<title>s3&#45;&gt;s4</title>
<path fill="none" stroke="black" d="M129.24,-60.68C141.22,-56.28 157.48,-52.64 170.93,-57.99 179.13,-61.25 186.64,-67.04 192.91,-73.15"/>
<polygon fill="black" stroke="black" points="190.24,-75.42 199.61,-80.37 195.37,-70.66 190.24,-75.42"/>
<text text-anchor="middle" x="159.68" y="-61.19" font-family="Times,serif" font-size="14.00">.</text>
</g>
<!-- s5 -->
<g id="node7" class="node">
<title>s5</title>
<ellipse fill="none" stroke="black" cx="111.32" cy="-136.49" rx="19.11" ry="19.11"/>
<text text-anchor="middle" x="111.32" y="-131.44" font-family="Times,serif" font-size="14.00">s5</text>
</g>
<!-- s4&#45;&gt;s5 -->
<g id="edge8" class="edge">
<title>s4&#45;&gt;s5</title>
<path fill="none" stroke="black" d="M194.7,-104.24C187.42,-107.5 178.8,-111.27 170.93,-114.49 161.09,-118.5 150.23,-122.66 140.55,-126.26"/>
<polygon fill="black" stroke="black" points="139.46,-122.94 131.28,-129.68 141.88,-129.5 139.46,-122.94"/>
<text text-anchor="middle" x="159.68" y="-126.48" font-family="Times,serif" font-size="14.00">0&#45;9</text>
</g>
<!-- s5&#45;&gt;s4 -->
<g id="edge9" class="edge">
<title>s5&#45;&gt;s4</title>
<path fill="none" stroke="black" d="M121.37,-120.01C127.59,-110.48 136.83,-99.35 148.43,-93.99 158.9,-89.14 171.42,-88.7 182.54,-89.85"/>
<polygon fill="black" stroke="black" points="181.99,-93.31 192.4,-91.37 183.05,-86.39 181.99,-93.31"/>
<text text-anchor="middle" x="159.68" y="-97.19" font-family="Times,serif" font-size="14.00">λ</text>
</g>
<!-- s6 -->
<g id="node8" class="node">
<title>s6</title>
<ellipse fill="none" stroke="black" cx="212.64" cy="-164.49" rx="19.11" ry="19.11"/>
<text text-anchor="middle" x="212.64" y="-159.44" font-family="Times,serif" font-size="14.00">s6</text>
</g>
<!-- s5&#45;&gt;s6 -->
<g id="edge10" class="edge">
<title>s5&#45;&gt;s6</title>
<path fill="none" stroke="black" d="M128.41,-145.83C134.51,-149.01 141.63,-152.31 148.43,-154.49 159.12,-157.91 171.21,-160.18 181.94,-161.69"/>
<polygon fill="black" stroke="black" points="181.47,-165.16 191.82,-162.9 182.31,-158.21 181.47,-165.16"/>
<text text-anchor="middle" x="159.68" y="-163.07" font-family="Times,serif" font-size="14.00">τ</text>
</g>
<!-- s7 -->
<g id="node9" class="node">
<title>s7</title>
<ellipse fill="none" stroke="black" cx="318.57" cy="-108.49" rx="19.11" ry="19.11"/>
<text text-anchor="middle" x="318.57" y="-103.44" font-family="Times,serif" font-size="14.00">s7</text>
</g>
<!-- s6&#45;&gt;s7 -->
<g id="edge11" class="edge">
<title>s6&#45;&gt;s7</title>
<path fill="none" stroke="black" d="M229.88,-155.74C246.26,-146.91 271.81,-133.14 291.12,-122.74"/>
<polygon fill="black" stroke="black" points="292.63,-125.9 299.77,-118.08 289.31,-119.74 292.63,-125.9"/>
<text text-anchor="middle" x="265.61" y="-144.7" font-family="Times,serif" font-size="14.00">e</text>
</g>
<!-- s6&#45;&gt;s7 -->
<g id="edge12" class="edge">
<title>s6&#45;&gt;s7</title>
<path fill="none" stroke="black" d="M221.64,-147.18C228.43,-134.7 239.45,-118.75 254.36,-110.99 264.52,-105.7 276.89,-104.3 287.98,-104.51"/>
<polygon fill="black" stroke="black" points="287.64,-107.99 297.85,-105.15 288.1,-101.01 287.64,-107.99"/>
<text text-anchor="middle" x="265.61" y="-114.19" font-family="Times,serif" font-size="14.00">E</text>
</g>
<!-- s13 -->
<g id="node10" class="node">
<title>s13</title>
<ellipse fill="none" stroke="black" cx="903.64" cy="-175.49" rx="23.71" ry="23.71"/>
<text text-anchor="middle" x="903.64" y="-170.44" font-family="Times,serif" font-size="14.00">s13</text>
</g>
<!-- s6&#45;&gt;s13 -->
<g id="edge13" class="edge">
<title>s6&#45;&gt;s13</title>
<path fill="none" stroke="black" d="M231.98,-167.61C252.7,-170.86 287.45,-175.49 317.57,-175.49 317.57,-175.49 317.57,-175.49 815.21,-175.49 832.8,-175.49 852.38,-175.49 868.54,-175.49"/>
<polygon fill="black" stroke="black" points="868.12,-178.99 878.12,-175.49 868.12,-171.99 868.12,-178.99"/>
<text text-anchor="middle" x="577.52" y="-178.69" font-family="Times,serif" font-size="14.00">λ</text>
</g>
<!-- s8 -->
<g id="node11" class="node">
<title>s8</title>
<ellipse fill="none" stroke="black" cx="415.39" cy="-90.49" rx="19.11" ry="19.11"/>
<text text-anchor="middle" x="415.39" y="-85.44" font-family="Times,serif" font-size="14.00">s8</text>
</g>
<!-- s7&#45;&gt;s8 -->
<g id="edge14" class="edge">
<title>s7&#45;&gt;s8</title>
<path fill="none" stroke="black" d="M331.07,-93.87C338.44,-85.74 348.76,-76.4 360.29,-71.99 369.75,-68.37 380.27,-70.57 389.49,-74.54"/>
<polygon fill="black" stroke="black" points="387.76,-77.58 398.25,-79.06 390.97,-71.36 387.76,-77.58"/>
<text text-anchor="middle" x="369.29" y="-75.19" font-family="Times,serif" font-size="14.00">0&#45;9</text>
</g>
<!-- s14 -->
<g id="node16" class="node">
<title>s14</title>
<ellipse fill="none" stroke="black" cx="993.07" cy="-190.49" rx="23.71" ry="23.71"/>
<text text-anchor="middle" x="993.07" y="-185.44" font-family="Times,serif" font-size="14.00">s14</text>
</g>
<!-- s13&#45;&gt;s14 -->
<g id="edge24" class="edge">
<title>s13&#45;&gt;s14</title>
<path fill="none" stroke="black" d="M927.15,-179.35C936.56,-180.96 947.7,-182.88 958.08,-184.65"/>
<polygon fill="black" stroke="black" points="957.38,-188.09 967.83,-186.33 958.57,-181.19 957.38,-188.09"/>
<text text-anchor="middle" x="948.35" y="-186.64" font-family="Times,serif" font-size="14.00">τ</text>
</g>
<!-- s8&#45;&gt;s7 -->
<g id="edge15" class="edge">
<title>s8&#45;&gt;s7</title>
<path fill="none" stroke="black" d="M396.17,-93.95C382.8,-96.48 364.37,-99.98 348.94,-102.91"/>
<polygon fill="black" stroke="black" points="348.51,-99.43 339.34,-104.73 349.82,-106.31 348.51,-99.43"/>
<text text-anchor="middle" x="369.29" y="-103.76" font-family="Times,serif" font-size="14.00">λ</text>
</g>
<!-- s9 -->
<g id="node12" class="node">
<title>s9</title>
<ellipse fill="none" stroke="black" cx="537.04" cy="-90.49" rx="19.11" ry="19.11"/>
<text text-anchor="middle" x="537.04" y="-85.44" font-family="Times,serif" font-size="14.00">s9</text>
</g>
<!-- s8&#45;&gt;s9 -->
<g id="edge16" class="edge">
<title>s8&#45;&gt;s9</title>
<path fill="none" stroke="black" d="M434.82,-90.49C453.94,-90.49 484.11,-90.49 506.54,-90.49"/>
<polygon fill="black" stroke="black" points="506.27,-93.99 516.27,-90.49 506.27,-86.99 506.27,-93.99"/>
<text text-anchor="middle" x="476.21" y="-93.69" font-family="Times,serif" font-size="14.00">τ</text>
</g>
<!-- s10 -->
<g id="node13" class="node">
<title>s10</title>
<ellipse fill="none" stroke="black" cx="622.61" cy="-102.49" rx="23.71" ry="23.71"/>
<text text-anchor="middle" x="622.61" y="-97.44" font-family="Times,serif" font-size="14.00">s10</text>
</g>
<!-- s9&#45;&gt;s10 -->
<g id="edge17" class="edge">
<title>s9&#45;&gt;s10</title>
<path fill="none" stroke="black" d="M556.17,-93.09C565.34,-94.41 576.77,-96.05 587.5,-97.59"/>
<polygon fill="black" stroke="black" points="586.83,-101.03 597.23,-98.99 587.83,-94.1 586.83,-101.03"/>
<text text-anchor="middle" x="577.52" y="-99.69" font-family="Times,serif" font-size="14.00">.</text>
</g>
<!-- s12 -->
<g id="node14" class="node">
<title>s12</title>
<ellipse fill="none" stroke="black" cx="814.21" cy="-103.49" rx="23.71" ry="23.71"/>
<text text-anchor="middle" x="814.21" y="-98.44" font-family="Times,serif" font-size="14.00">s12</text>
</g>
<!-- s9&#45;&gt;s12 -->
<g id="edge18" class="edge">
<title>s9&#45;&gt;s12</title>
<path fill="none" stroke="black" d="M553.29,-79.87C579.27,-63.08 633.98,-33.24 682.32,-42.99 719.42,-50.47 758.35,-70.21 784,-85.12"/>
<polygon fill="black" stroke="black" points="782.13,-88.08 792.52,-90.19 785.72,-82.07 782.13,-88.08"/>
<text text-anchor="middle" x="673.32" y="-46.19" font-family="Times,serif" font-size="14.00">λ</text>
</g>
<!-- s11 -->
<g id="node15" class="node">
<title>s11</title>
<ellipse fill="none" stroke="black" cx="724.03" cy="-103.49" rx="23.71" ry="23.71"/>
<text text-anchor="middle" x="724.03" y="-98.44" font-family="Times,serif" font-size="14.00">s11</text>
</g>
<!-- s10&#45;&gt;s11 -->
<g id="edge19" class="edge">
<title>s10&#45;&gt;s11</title>
<path fill="none" stroke="black" d="M637.96,-83.79C649.35,-71.39 666.03,-58.5 682.32,-64.99 689.08,-67.68 695.37,-72.08 700.88,-76.97"/>
<polygon fill="black" stroke="black" points="698.22,-79.26 707.79,-83.81 703.14,-74.29 698.22,-79.26"/>
<text text-anchor="middle" x="673.32" y="-68.19" font-family="Times,serif" font-size="14.00">0&#45;9</text>
</g>
<!-- s10&#45;&gt;s11 -->
<g id="edge20" class="edge">
<title>s10&#45;&gt;s11</title>
<path fill="none" stroke="black" d="M643.7,-113.97C650.09,-117.04 657.31,-119.93 664.32,-121.49 673.47,-123.52 683.26,-122.03 692.16,-119.2"/>
<polygon fill="black" stroke="black" points="693.39,-122.48 701.45,-115.62 690.86,-115.95 693.39,-122.48"/>
<text text-anchor="middle" x="673.32" y="-125.62" font-family="Times,serif" font-size="14.00">λ</text>
</g>
<!-- s12&#45;&gt;s13 -->
<g id="edge23" class="edge">
<title>s12&#45;&gt;s13</title>
<path fill="none" stroke="black" d="M832.9,-118.06C845.26,-128.24 861.99,-142.01 875.96,-153.52"/>
<polygon fill="black" stroke="black" points="873.56,-156.07 883.5,-159.73 878.01,-150.67 873.56,-156.07"/>
<text text-anchor="middle" x="858.93" y="-144.85" font-family="Times,serif" font-size="14.00">τ</text>
</g>
<!-- s11&#45;&gt;s10 -->
<g id="edge21" class="edge">
<title>s11&#45;&gt;s10</title>
<path fill="none" stroke="black" d="M700.22,-101.84C694.39,-101.48 688.12,-101.16 682.32,-100.99 674.45,-100.74 665.98,-100.79 657.99,-100.96"/>
<polygon fill="black" stroke="black" points="658.16,-97.45 648.27,-101.25 658.37,-104.45 658.16,-97.45"/>
<text text-anchor="middle" x="673.32" y="-104.19" font-family="Times,serif" font-size="14.00">λ</text>
</g>
<!-- s11&#45;&gt;s12 -->
<g id="edge22" class="edge">
<title>s11&#45;&gt;s12</title>
<path fill="none" stroke="black" d="M748.2,-103.49C757.62,-103.49 768.69,-103.49 779.01,-103.49"/>
<polygon fill="black" stroke="black" points="778.69,-106.99 788.69,-103.49 778.69,-99.99 778.69,-106.99"/>
<text text-anchor="middle" x="769.12" y="-106.69" font-family="Times,serif" font-size="14.00">τ</text>
</g>
<!-- s14&#45;&gt;s1 -->
<g id="edge25" class="edge">
<title>s14&#45;&gt;s1</title>
<path fill="none" stroke="black" d="M1015.27,-199.2C1025.78,-203.52 1038.68,-208.83 1050.3,-213.6"/>
<polygon fill="black" stroke="black" points="1048.96,-216.84 1059.54,-217.4 1051.62,-210.36 1048.96,-216.84"/>
<text text-anchor="middle" x="1038.16" y="-212.77" font-family="Times,serif" font-size="14.00">λ</text>
</g>
<!-- s16&#45;&gt;s15 -->
<g id="edge30" class="edge">
<title>s16&#45;&gt;s15</title>
<path fill="none" stroke="black" d="M294.41,-268.39C282.44,-268.18 267.59,-267.67 254.36,-266.49 252.17,-266.29 249.92,-266.06 247.65,-265.79"/>
<polygon fill="black" stroke="black" points="248.29,-262.35 237.91,-264.51 247.37,-269.29 248.29,-262.35"/>
<text text-anchor="middle" x="265.61" y="-271.02" font-family="Times,serif" font-size="14.00">λ</text>
</g>
<!-- s17 -->
<g id="node18" class="node">
<title>s17</title>
<ellipse fill="none" stroke="black" cx="476.21" cy="-251.49" rx="23.71" ry="23.71"/>
<text text-anchor="middle" x="476.21" y="-246.44" font-family="Times,serif" font-size="14.00">s17</text>
</g>
<!-- s16&#45;&gt;s17 -->
<g id="edge31" class="edge">
<title>s16&#45;&gt;s17</title>
<path fill="none" stroke="black" d="M342.54,-265.98C368.52,-263.14 411.09,-258.49 440.99,-255.22"/>
<polygon fill="black" stroke="black" points="441.09,-258.73 450.65,-254.17 440.33,-251.78 441.09,-258.73"/>
<text text-anchor="middle" x="369.29" y="-267.06" font-family="Times,serif" font-size="14.00">τ</text>
</g>
<!-- s17&#45;&gt;s1 -->
<g id="edge32" class="edge">
<title>s17&#45;&gt;s1</title>
<path fill="none" stroke="black" d="M500.07,-249.32C520.18,-247.6 550.26,-245.49 576.52,-245.49 576.52,-245.49 576.52,-245.49 994.07,-245.49 1012.77,-245.49 1033.23,-241.29 1049.66,-236.85"/>
<polygon fill="black" stroke="black" points="1050.23,-240.33 1058.87,-234.2 1048.29,-233.6 1050.23,-240.33"/>
<text text-anchor="middle" x="769.12" y="-248.69" font-family="Times,serif" font-size="14.00">λ</text>
</g>
</g>
</svg>
