<?xml version="1.0" encoding="UTF-8" standalone="no"?>
<!DOCTYPE svg PUBLIC "-//W3C//DTD SVG 1.1//EN"
 "http://www.w3.org/Graphics/SVG/1.1/DTD/svg11.dtd">
<!-- Generated by graphviz version 2.38.0 (20140413.2041)
 -->
<!-- Title: finite_state_machine Pages: 1 -->
<svg width="576pt" height="153pt"
 viewBox="0.00 0.00 576.00 153.27" xmlns="http://www.w3.org/2000/svg" xmlns:xlink="http://www.w3.org/1999/xlink">
<g id="graph0" class="graph" transform="scale(0.646689 0.646689) rotate(0) translate(4 233)">
<title>finite_state_machine</title>
<polygon fill="white" stroke="none" points="-4,4 -4,-233 886.691,-233 886.691,4 -4,4"/>
<!-- s14 -->
<g id="node1" class="node"><title>s14</title>
<ellipse fill="none" stroke="black" cx="856.299" cy="-195" rx="22.3004" ry="22.3004"/>
<ellipse fill="none" stroke="black" cx="856.299" cy="-195" rx="26.2841" ry="26.2841"/>
<text text-anchor="middle" x="856.299" y="-190.8" font-family="Times,serif" font-size="14.00">s14</text>
</g>
<!-- s0 -->
<g id="node2" class="node"><title>s0</title>
<ellipse fill="none" stroke="black" cx="18" cy="-18" rx="18" ry="18"/>
<text text-anchor="middle" x="18" y="-13.8" font-family="Times,serif" font-size="14.00">s0</text>
</g>
<!-- s1 -->
<g id="node3" class="node"><title>s1</title>
<ellipse fill="none" stroke="black" cx="97" cy="-65" rx="18" ry="18"/>
<text text-anchor="middle" x="97" y="-60.8" font-family="Times,serif" font-size="14.00">s1</text>
</g>
<!-- s0&#45;&gt;s1 -->
<g id="edge1" class="edge"><title>s0&#45;&gt;s1</title>
<path fill="none" stroke="black" d="M35.492,-23.7982C43.4641,-26.9142 53.0117,-31.1198 61,-36 65.9663,-39.034 70.976,-42.7267 75.5918,-46.4468"/>
<polygon fill="black" stroke="black" points="73.4855,-49.2494 83.3805,-53.0361 78.0067,-43.9053 73.4855,-49.2494"/>
<text text-anchor="middle" x="57.5" y="-38.8" font-family="Times,serif" font-size="14.00">a</text>
</g>
<!-- s2 -->
<g id="node4" class="node"><title>s2</title>
<ellipse fill="none" stroke="black" cx="176" cy="-73" rx="18" ry="18"/>
<text text-anchor="middle" x="176" y="-68.8" font-family="Times,serif" font-size="14.00">s2</text>
</g>
<!-- s1&#45;&gt;s2 -->
<g id="edge2" class="edge"><title>s1&#45;&gt;s2</title>
<path fill="none" stroke="black" d="M115.089,-66.7755C124.659,-67.7698 136.817,-69.033 147.677,-70.1612"/>
<polygon fill="black" stroke="black" points="147.651,-73.6773 157.959,-71.2295 148.374,-66.7148 147.651,-73.6773"/>
<text text-anchor="middle" x="136.5" y="-72.8" font-family="Times,serif" font-size="14.00">d</text>
</g>
<!-- s4 -->
<g id="node5" class="node"><title>s4</title>
<ellipse fill="none" stroke="black" cx="18" cy="-106" rx="18" ry="18"/>
<text text-anchor="middle" x="18" y="-101.8" font-family="Times,serif" font-size="14.00">s4</text>
</g>
<!-- s1&#45;&gt;s4 -->
<g id="edge3" class="edge"><title>s1&#45;&gt;s4</title>
<path fill="none" stroke="black" d="M80.5578,-56.8831C72.3121,-53.7078 62.2018,-51.7297 54,-56 43.8864,-61.2657 36.0911,-70.9392 30.452,-80.3844"/>
<polygon fill="black" stroke="black" points="27.3548,-78.754 25.7009,-89.219 33.5198,-82.0695 27.3548,-78.754"/>
<text text-anchor="middle" x="57.5" y="-58.8" font-family="Times,serif" font-size="14.00">λ</text>
</g>
<!-- s3 -->
<g id="node6" class="node"><title>s3</title>
<ellipse fill="none" stroke="black" cx="254.214" cy="-97" rx="18" ry="18"/>
<text text-anchor="middle" x="254.214" y="-92.8" font-family="Times,serif" font-size="14.00">s3</text>
</g>
<!-- s2&#45;&gt;s3 -->
<g id="edge4" class="edge"><title>s2&#45;&gt;s3</title>
<path fill="none" stroke="black" d="M193.537,-78.2076C203.325,-81.2897 215.943,-85.2632 227.053,-88.762"/>
<polygon fill="black" stroke="black" points="226.119,-92.1372 236.709,-91.8025 228.222,-85.4604 226.119,-92.1372"/>
<text text-anchor="middle" x="215.107" y="-88.8" font-family="Times,serif" font-size="14.00">e</text>
</g>
<!-- s4&#45;&gt;s1 -->
<g id="edge6" class="edge"><title>s4&#45;&gt;s1</title>
<path fill="none" stroke="black" d="M34.2127,-97.8997C44.9699,-92.1719 59.6122,-84.3753 71.9428,-77.8097"/>
<polygon fill="black" stroke="black" points="73.6372,-80.8728 80.8189,-73.0835 70.3472,-74.6941 73.6372,-80.8728"/>
<text text-anchor="middle" x="57.5" y="-89.8" font-family="Times,serif" font-size="14.00">λ</text>
</g>
<!-- s5 -->
<g id="node7" class="node"><title>s5</title>
<ellipse fill="none" stroke="black" cx="97" cy="-167" rx="18" ry="18"/>
<text text-anchor="middle" x="97" y="-162.8" font-family="Times,serif" font-size="14.00">s5</text>
</g>
<!-- s4&#45;&gt;s5 -->
<g id="edge7" class="edge"><title>s4&#45;&gt;s5</title>
<path fill="none" stroke="black" d="M32.1915,-117.145C38.7043,-122.593 46.71,-129.207 54,-135 60.3155,-140.019 67.252,-145.369 73.6363,-150.229"/>
<polygon fill="black" stroke="black" points="71.8037,-153.231 81.8896,-156.475 76.0282,-147.649 71.8037,-153.231"/>
<text text-anchor="middle" x="57.5" y="-142.8" font-family="Times,serif" font-size="14.00">τ</text>
</g>
<!-- s3&#45;&gt;s4 -->
<g id="edge5" class="edge"><title>s3&#45;&gt;s4</title>
<path fill="none" stroke="black" d="M236.577,-100.989C230.799,-102.198 224.254,-103.371 218.214,-104 157.158,-110.355 85.0095,-108.86 46.4952,-107.345"/>
<polygon fill="black" stroke="black" points="46.2558,-103.831 36.116,-106.903 45.958,-110.825 46.2558,-103.831"/>
<text text-anchor="middle" x="136.5" y="-111.8" font-family="Times,serif" font-size="14.00">f</text>
</g>
<!-- s6 -->
<g id="node8" class="node"><title>s6</title>
<ellipse fill="none" stroke="black" cx="176" cy="-167" rx="18" ry="18"/>
<text text-anchor="middle" x="176" y="-162.8" font-family="Times,serif" font-size="14.00">s6</text>
</g>
<!-- s5&#45;&gt;s6 -->
<g id="edge8" class="edge"><title>s5&#45;&gt;s6</title>
<path fill="none" stroke="black" d="M115.089,-167C124.659,-167 136.817,-167 147.677,-167"/>
<polygon fill="black" stroke="black" points="147.959,-170.5 157.959,-167 147.959,-163.5 147.959,-170.5"/>
<text text-anchor="middle" x="136.5" y="-169.8" font-family="Times,serif" font-size="14.00">k</text>
</g>
<!-- s12 -->
<g id="node9" class="node"><title>s12</title>
<ellipse fill="none" stroke="black" cx="677.518" cy="-195" rx="22.2841" ry="22.2841"/>
<text text-anchor="middle" x="677.518" y="-190.8" font-family="Times,serif" font-size="14.00">s12</text>
</g>
<!-- s5&#45;&gt;s12 -->
<g id="edge9" class="edge"><title>s5&#45;&gt;s12</title>
<path fill="none" stroke="black" d="M109.659,-180.116C123.644,-194.328 148.535,-215 175,-215 175,-215 175,-215 591.845,-215 610.307,-215 630.441,-210.441 646.443,-205.676"/>
<polygon fill="black" stroke="black" points="647.821,-208.911 656.302,-202.561 645.712,-202.236 647.821,-208.911"/>
<text text-anchor="middle" x="378.548" y="-217.8" font-family="Times,serif" font-size="14.00">λ</text>
</g>
<!-- s7 -->
<g id="node10" class="node"><title>s7</title>
<ellipse fill="none" stroke="black" cx="254.214" cy="-165" rx="18" ry="18"/>
<text text-anchor="middle" x="254.214" y="-160.8" font-family="Times,serif" font-size="14.00">s7</text>
</g>
<!-- s6&#45;&gt;s7 -->
<g id="edge10" class="edge"><title>s6&#45;&gt;s7</title>
<path fill="none" stroke="black" d="M194.294,-166.546C203.649,-166.301 215.417,-165.992 225.972,-165.715"/>
<polygon fill="black" stroke="black" points="226.083,-169.213 235.988,-165.452 225.9,-162.216 226.083,-169.213"/>
<text text-anchor="middle" x="215.107" y="-168.8" font-family="Times,serif" font-size="14.00">l</text>
</g>
<!-- s13 -->
<g id="node15" class="node"><title>s13</title>
<ellipse fill="none" stroke="black" cx="764.516" cy="-195" rx="22.2841" ry="22.2841"/>
<text text-anchor="middle" x="764.516" y="-190.8" font-family="Times,serif" font-size="14.00">s13</text>
</g>
<!-- s12&#45;&gt;s13 -->
<g id="edge17" class="edge"><title>s12&#45;&gt;s13</title>
<path fill="none" stroke="black" d="M699.967,-195C709.631,-195 721.237,-195 731.872,-195"/>
<polygon fill="black" stroke="black" points="732.074,-198.5 742.074,-195 732.074,-191.5 732.074,-198.5"/>
<text text-anchor="middle" x="721.017" y="-197.8" font-family="Times,serif" font-size="14.00">τ</text>
</g>
<!-- s8 -->
<g id="node11" class="node"><title>s8</title>
<ellipse fill="none" stroke="black" cx="337.104" cy="-165" rx="18" ry="18"/>
<text text-anchor="middle" x="337.104" y="-160.8" font-family="Times,serif" font-size="14.00">s8</text>
</g>
<!-- s7&#45;&gt;s8 -->
<g id="edge11" class="edge"><title>s7&#45;&gt;s8</title>
<path fill="none" stroke="black" d="M272.368,-165C282.986,-165 296.851,-165 308.937,-165"/>
<polygon fill="black" stroke="black" points="308.974,-168.5 318.974,-165 308.974,-161.5 308.974,-168.5"/>
<text text-anchor="middle" x="295.659" y="-167.8" font-family="Times,serif" font-size="14.00">m</text>
</g>
<!-- s9 -->
<g id="node12" class="node"><title>s9</title>
<ellipse fill="none" stroke="black" cx="419.993" cy="-165" rx="18" ry="18"/>
<text text-anchor="middle" x="419.993" y="-160.8" font-family="Times,serif" font-size="14.00">s9</text>
</g>
<!-- s8&#45;&gt;s9 -->
<g id="edge12" class="edge"><title>s8&#45;&gt;s9</title>
<path fill="none" stroke="black" d="M355.258,-165C365.875,-165 379.741,-165 391.827,-165"/>
<polygon fill="black" stroke="black" points="391.863,-168.5 401.863,-165 391.863,-161.5 391.863,-168.5"/>
<text text-anchor="middle" x="378.548" y="-167.8" font-family="Times,serif" font-size="14.00">m</text>
</g>
<!-- s10 -->
<g id="node13" class="node"><title>s10</title>
<ellipse fill="none" stroke="black" cx="503.385" cy="-165" rx="22.2841" ry="22.2841"/>
<text text-anchor="middle" x="503.385" y="-160.8" font-family="Times,serif" font-size="14.00">s10</text>
</g>
<!-- s9&#45;&gt;s10 -->
<g id="edge13" class="edge"><title>s9&#45;&gt;s10</title>
<path fill="none" stroke="black" d="M438.254,-165C447.661,-165 459.601,-165 470.622,-165"/>
<polygon fill="black" stroke="black" points="470.794,-168.5 480.794,-165 470.794,-161.5 470.794,-168.5"/>
<text text-anchor="middle" x="459.493" y="-167.8" font-family="Times,serif" font-size="14.00">n</text>
</g>
<!-- s11 -->
<g id="node14" class="node"><title>s11</title>
<ellipse fill="none" stroke="black" cx="590.845" cy="-165" rx="22.1361" ry="22.1361"/>
<text text-anchor="middle" x="590.845" y="-160.8" font-family="Times,serif" font-size="14.00">s11</text>
</g>
<!-- s10&#45;&gt;s11 -->
<g id="edge14" class="edge"><title>s10&#45;&gt;s11</title>
<path fill="none" stroke="black" d="M525.95,-165C535.741,-165 547.514,-165 558.273,-165"/>
<polygon fill="black" stroke="black" points="558.583,-168.5 568.583,-165 558.583,-161.5 558.583,-168.5"/>
<text text-anchor="middle" x="547.277" y="-167.8" font-family="Times,serif" font-size="14.00">o</text>
</g>
<!-- s11&#45;&gt;s12 -->
<g id="edge16" class="edge"><title>s11&#45;&gt;s12</title>
<path fill="none" stroke="black" d="M611.911,-172.11C622.275,-175.782 635.128,-180.335 646.634,-184.412"/>
<polygon fill="black" stroke="black" points="645.708,-187.797 656.302,-187.837 648.046,-181.199 645.708,-187.797"/>
<text text-anchor="middle" x="634.02" y="-182.8" font-family="Times,serif" font-size="14.00">τ</text>
</g>
<!-- s11&#45;&gt;s8 -->
<g id="edge15" class="edge"><title>s11&#45;&gt;s8</title>
<path fill="none" stroke="black" d="M571.88,-153.584C559.466,-146.394 542.277,-137.782 525.777,-134 472.125,-121.702 455.647,-125.708 401.993,-138 388.421,-141.109 374.076,-146.918 362.424,-152.353"/>
<polygon fill="black" stroke="black" points="360.812,-149.245 353.347,-156.763 363.871,-155.541 360.812,-149.245"/>
<text text-anchor="middle" x="459.493" y="-129.8" font-family="Times,serif" font-size="14.00">λ</text>
</g>
<!-- s13&#45;&gt;s14 -->
<g id="edge18" class="edge"><title>s13&#45;&gt;s14</title>
<path fill="none" stroke="black" d="M787.25,-195C796.925,-195 808.576,-195 819.481,-195"/>
<polygon fill="black" stroke="black" points="819.62,-198.5 829.62,-195 819.62,-191.5 819.62,-198.5"/>
<text text-anchor="middle" x="808.408" y="-197.8" font-family="Times,serif" font-size="14.00">b</text>
</g>
</g>
</svg>
