<?xml version="1.0" encoding="UTF-8" standalone="no"?>
<!DOCTYPE svg PUBLIC "-//W3C//DTD SVG 1.1//EN"
 "http://www.w3.org/Graphics/SVG/1.1/DTD/svg11.dtd">
<!-- Generated by graphviz version 12.2.1 (20241206.2353)
 -->
<!-- Title: finite_state_machine Pages: 1 -->
<svg width="516pt" height="188pt"
 viewBox="0.00 0.00 515.68 188.32" xmlns="http://www.w3.org/2000/svg" xmlns:xlink="http://www.w3.org/1999/xlink">
<g id="graph0" class="graph" transform="scale(1 1) rotate(0) translate(4 184.32)">
<title>finite_state_machine</title>
<polygon fill="white" stroke="none" points="-4,4 -4,-184.32 511.68,-184.32 511.68,4 -4,4"/>
<text text-anchor="middle" x="253.84" y="-7.2" font-family="Times,serif" font-size="14.00">Regular Expression: xyzzy401</text>
<!-- s1 -->
<g id="node1" class="node">
<title>s1</title>
<ellipse fill="none" stroke="black" cx="484.57" cy="-108.21" rx="19.11" ry="19.11"/>
<ellipse fill="none" stroke="black" cx="484.57" cy="-108.21" rx="23.11" ry="23.11"/>
<text text-anchor="middle" x="484.57" y="-103.16" font-family="Times,serif" font-size="14.00">s1</text>
</g>
<!-- s0 -->
<g id="node2" class="node">
<title>s0</title>
<ellipse fill="none" stroke="black" cx="19.11" cy="-105.21" rx="19.11" ry="19.11"/>
<text text-anchor="middle" x="19.11" y="-100.16" font-family="Times,serif" font-size="14.00">s0</text>
</g>
<!-- s2 -->
<g id="node3" class="node">
<title>s2</title>
<ellipse fill="none" stroke="black" cx="99.32" cy="-161.21" rx="19.11" ry="19.11"/>
<text text-anchor="middle" x="99.32" y="-156.16" font-family="Times,serif" font-size="14.00">s2</text>
</g>
<!-- s0&#45;&gt;s2 -->
<g id="edge1" class="edge">
<title>s0&#45;&gt;s2</title>
<path fill="none" stroke="black" d="M35.19,-116.01C46.22,-123.91 61.43,-134.8 74.15,-143.91"/>
<polygon fill="black" stroke="black" points="71.89,-146.59 82.06,-149.57 75.96,-140.9 71.89,-146.59"/>
<text text-anchor="middle" x="59.22" y="-138.09" font-family="Times,serif" font-size="14.00">a</text>
</g>
<!-- s5 -->
<g id="node4" class="node">
<title>s5</title>
<ellipse fill="none" stroke="black" cx="99.32" cy="-105.21" rx="19.11" ry="19.11"/>
<text text-anchor="middle" x="99.32" y="-100.16" font-family="Times,serif" font-size="14.00">s5</text>
</g>
<!-- s0&#45;&gt;s5 -->
<g id="edge2" class="edge">
<title>s0&#45;&gt;s5</title>
<path fill="none" stroke="black" d="M38.64,-105.21C47.6,-105.21 58.58,-105.21 68.67,-105.21"/>
<polygon fill="black" stroke="black" points="68.41,-108.71 78.41,-105.21 68.41,-101.71 68.41,-108.71"/>
<text text-anchor="middle" x="59.22" y="-108.41" font-family="Times,serif" font-size="14.00">a</text>
</g>
<!-- s8 -->
<g id="node5" class="node">
<title>s8</title>
<ellipse fill="none" stroke="black" cx="99.32" cy="-49.21" rx="19.11" ry="19.11"/>
<text text-anchor="middle" x="99.32" y="-44.16" font-family="Times,serif" font-size="14.00">s8</text>
</g>
<!-- s0&#45;&gt;s8 -->
<g id="edge3" class="edge">
<title>s0&#45;&gt;s8</title>
<path fill="none" stroke="black" d="M35.19,-94.42C46.22,-86.51 61.43,-75.63 74.15,-66.52"/>
<polygon fill="black" stroke="black" points="75.96,-69.53 82.06,-60.86 71.89,-63.83 75.96,-69.53"/>
<text text-anchor="middle" x="59.22" y="-82.09" font-family="Times,serif" font-size="14.00">a</text>
</g>
<!-- s3 -->
<g id="node6" class="node">
<title>s3</title>
<ellipse fill="none" stroke="black" cx="187.79" cy="-161.21" rx="19.11" ry="19.11"/>
<text text-anchor="middle" x="187.79" y="-156.16" font-family="Times,serif" font-size="14.00">s3</text>
</g>
<!-- s2&#45;&gt;s3 -->
<g id="edge4" class="edge">
<title>s2&#45;&gt;s3</title>
<path fill="none" stroke="black" d="M118.66,-161.21C129.89,-161.21 144.53,-161.21 157.36,-161.21"/>
<polygon fill="black" stroke="black" points="156.96,-164.71 166.96,-161.21 156.96,-157.71 156.96,-164.71"/>
<text text-anchor="middle" x="143.56" y="-164.41" font-family="Times,serif" font-size="14.00">λ</text>
</g>
<!-- s6 -->
<g id="node8" class="node">
<title>s6</title>
<ellipse fill="none" stroke="black" cx="187.79" cy="-105.21" rx="19.11" ry="19.11"/>
<text text-anchor="middle" x="187.79" y="-100.16" font-family="Times,serif" font-size="14.00">s6</text>
</g>
<!-- s5&#45;&gt;s6 -->
<g id="edge7" class="edge">
<title>s5&#45;&gt;s6</title>
<path fill="none" stroke="black" d="M118.66,-105.21C129.89,-105.21 144.53,-105.21 157.36,-105.21"/>
<polygon fill="black" stroke="black" points="156.96,-108.71 166.96,-105.21 156.96,-101.71 156.96,-108.71"/>
<text text-anchor="middle" x="143.56" y="-108.41" font-family="Times,serif" font-size="14.00">Ш</text>
</g>
<!-- s9 -->
<g id="node10" class="node">
<title>s9</title>
<ellipse fill="none" stroke="black" cx="187.79" cy="-49.21" rx="19.11" ry="19.11"/>
<text text-anchor="middle" x="187.79" y="-44.16" font-family="Times,serif" font-size="14.00">s9</text>
</g>
<!-- s8&#45;&gt;s9 -->
<g id="edge10" class="edge">
<title>s8&#45;&gt;s9</title>
<path fill="none" stroke="black" d="M118.66,-49.21C129.89,-49.21 144.53,-49.21 157.36,-49.21"/>
<polygon fill="black" stroke="black" points="156.96,-52.71 166.96,-49.21 156.96,-45.71 156.96,-52.71"/>
<text text-anchor="middle" x="143.56" y="-52.41" font-family="Times,serif" font-size="14.00">a</text>
</g>
<!-- s4 -->
<g id="node7" class="node">
<title>s4</title>
<ellipse fill="none" stroke="black" cx="334.18" cy="-161.21" rx="19.11" ry="19.11"/>
<text text-anchor="middle" x="334.18" y="-156.16" font-family="Times,serif" font-size="14.00">s4</text>
</g>
<!-- s3&#45;&gt;s4 -->
<g id="edge5" class="edge">
<title>s3&#45;&gt;s4</title>
<path fill="none" stroke="black" d="M207.37,-161.21C231.63,-161.21 274.39,-161.21 303.25,-161.21"/>
<polygon fill="black" stroke="black" points="303.16,-164.71 313.16,-161.21 303.16,-157.71 303.16,-164.71"/>
<text text-anchor="middle" x="228.27" y="-164.41" font-family="Times,serif" font-size="14.00">b</text>
</g>
<!-- s4&#45;&gt;s1 -->
<g id="edge6" class="edge">
<title>s4&#45;&gt;s1</title>
<path fill="none" stroke="black" d="M352.49,-155.03C376.87,-146.32 421.72,-130.31 452.09,-119.46"/>
<polygon fill="black" stroke="black" points="452.89,-122.89 461.13,-116.23 450.54,-116.3 452.89,-122.89"/>
<text text-anchor="middle" x="395" y="-151.01" font-family="Times,serif" font-size="14.00">λ</text>
</g>
<!-- s7 -->
<g id="node9" class="node">
<title>s7</title>
<ellipse fill="none" stroke="black" cx="334.18" cy="-107.21" rx="19.11" ry="19.11"/>
<text text-anchor="middle" x="334.18" y="-102.16" font-family="Times,serif" font-size="14.00">s7</text>
</g>
<!-- s6&#45;&gt;s7 -->
<g id="edge8" class="edge">
<title>s6&#45;&gt;s7</title>
<path fill="none" stroke="black" d="M207.37,-105.47C231.63,-105.81 274.39,-106.4 303.25,-106.8"/>
<polygon fill="black" stroke="black" points="303.11,-110.3 313.16,-106.94 303.21,-103.3 303.11,-110.3"/>
<text text-anchor="middle" x="228.27" y="-109" font-family="Times,serif" font-size="14.00">b</text>
</g>
<!-- s7&#45;&gt;s1 -->
<g id="edge9" class="edge">
<title>s7&#45;&gt;s1</title>
<path fill="none" stroke="black" d="M353.67,-107.34C377.75,-107.5 420.26,-107.79 450.08,-107.99"/>
<polygon fill="black" stroke="black" points="449.67,-111.49 459.69,-108.05 449.72,-104.49 449.67,-111.49"/>
<text text-anchor="middle" x="395" y="-110.96" font-family="Times,serif" font-size="14.00">λ</text>
</g>
<!-- s10 -->
<g id="node11" class="node">
<title>s10</title>
<ellipse fill="none" stroke="black" cx="273.36" cy="-49.21" rx="23.71" ry="23.71"/>
<text text-anchor="middle" x="273.36" y="-44.16" font-family="Times,serif" font-size="14.00">s10</text>
</g>
<!-- s9&#45;&gt;s10 -->
<g id="edge11" class="edge">
<title>s9&#45;&gt;s10</title>
<path fill="none" stroke="black" d="M207.33,-49.21C216.35,-49.21 227.48,-49.21 237.97,-49.21"/>
<polygon fill="black" stroke="black" points="237.87,-52.71 247.87,-49.21 237.87,-45.71 237.87,-52.71"/>
<text text-anchor="middle" x="228.27" y="-52.41" font-family="Times,serif" font-size="14.00">a</text>
</g>
<!-- s11 -->
<g id="node12" class="node">
<title>s11</title>
<ellipse fill="none" stroke="black" cx="395" cy="-48.21" rx="23.71" ry="23.71"/>
<text text-anchor="middle" x="395" y="-43.16" font-family="Times,serif" font-size="14.00">s11</text>
</g>
<!-- s10&#45;&gt;s11 -->
<g id="edge12" class="edge">
<title>s10&#45;&gt;s11</title>
<path fill="none" stroke="black" d="M297.43,-49.02C315.05,-48.87 339.63,-48.67 359.58,-48.5"/>
<polygon fill="black" stroke="black" points="359.52,-52 369.49,-48.42 359.46,-45 359.52,-52"/>
<text text-anchor="middle" x="334.18" y="-52.06" font-family="Times,serif" font-size="14.00">b</text>
</g>
<!-- s11&#45;&gt;s1 -->
<g id="edge13" class="edge">
<title>s11&#45;&gt;s1</title>
<path fill="none" stroke="black" d="M415.67,-59.86C424.31,-65.13 434.52,-71.55 443.47,-77.71 447.91,-80.78 452.55,-84.14 457.02,-87.47"/>
<polygon fill="black" stroke="black" points="454.58,-90.01 464.66,-93.27 458.81,-84.44 454.58,-90.01"/>
<text text-anchor="middle" x="440.09" y="-80.91" font-family="Times,serif" font-size="14.00">λ</text>
</g>
</g>
</svg>
