<?xml version="1.0" encoding="UTF-8" standalone="no"?>
<!DOCTYPE svg PUBLIC "-//W3C//DTD SVG 1.1//EN"
 "http://www.w3.org/Graphics/SVG/1.1/DTD/svg11.dtd">
<!-- Generated by graphviz version 12.2.1 (20241206.2353)
 -->
<!-- Title: finite_state_machine Pages: 1 -->
<svg width="216pt" height="164pt"
 viewBox="0.00 0.00 216.15 163.88" xmlns="http://www.w3.org/2000/svg" xmlns:xlink="http://www.w3.org/1999/xlink">
<g id="graph0" class="graph" transform="scale(1 1) rotate(0) translate(4 159.88)">
<title>finite_state_machine</title>
<polygon fill="white" stroke="none" points="-4,4 -4,-159.88 212.15,-159.88 212.15,4 -4,4"/>
<text text-anchor="middle" x="104.07" y="-7.2" font-family="Times,serif" font-size="14.00">Regular Expression: (xx)+</text>
<!-- s3 -->
<g id="node1" class="node">
<title>s3</title>
<ellipse fill="none" stroke="black" cx="104.07" cy="-103.61" rx="19.11" ry="19.11"/>
<ellipse fill="none" stroke="black" cx="104.07" cy="-103.61" rx="23.11" ry="23.11"/>
<text text-anchor="middle" x="104.07" y="-98.56" font-family="Times,serif" font-size="14.00">s3</text>
</g>
<!-- s0 -->
<g id="node2" class="node">
<title>s0</title>
<ellipse fill="none" stroke="black" cx="104.07" cy="-43.61" rx="19.11" ry="19.11"/>
<text text-anchor="middle" x="104.07" y="-38.56" font-family="Times,serif" font-size="14.00">s0</text>
</g>
<!-- s1 -->
<g id="node3" class="node">
<title>s1</title>
<ellipse fill="none" stroke="black" cx="189.04" cy="-103.61" rx="19.11" ry="19.11"/>
<text text-anchor="middle" x="189.04" y="-98.56" font-family="Times,serif" font-size="14.00">s1</text>
</g>
<!-- s0&#45;&gt;s1 -->
<g id="edge1" class="edge">
<title>s0&#45;&gt;s1</title>
<path fill="none" stroke="black" d="M120.29,-54.61C132.45,-63.41 149.73,-75.91 163.8,-86.08"/>
<polygon fill="black" stroke="black" points="161.54,-88.76 171.69,-91.79 165.64,-83.09 161.54,-88.76"/>
<text text-anchor="middle" x="148.56" y="-80.4" font-family="Times,serif" font-size="14.00">x</text>
</g>
<!-- s2 -->
<g id="node4" class="node">
<title>s2</title>
<ellipse fill="none" stroke="black" cx="19.11" cy="-103.61" rx="19.11" ry="19.11"/>
<text text-anchor="middle" x="19.11" y="-98.56" font-family="Times,serif" font-size="14.00">s2</text>
</g>
<!-- s1&#45;&gt;s2 -->
<g id="edge2" class="edge">
<title>s1&#45;&gt;s2</title>
<path fill="none" stroke="black" d="M172.87,-114.26C161.04,-121.88 143.87,-131.49 127.18,-135.61 96.19,-143.26 84.63,-139.13 56.22,-124.61 52.86,-122.89 49.37,-121.01 45.95,-119.09"/>
<polygon fill="black" stroke="black" points="47.8,-116.11 37.39,-114.15 44.3,-122.18 47.8,-116.11"/>
<text text-anchor="middle" x="104.07" y="-142.58" font-family="Times,serif" font-size="14.00">x</text>
</g>
<!-- s2&#45;&gt;s3 -->
<g id="edge4" class="edge">
<title>s2&#45;&gt;s3</title>
<path fill="none" stroke="black" d="M38.52,-103.61C47.54,-103.61 58.69,-103.61 69.17,-103.61"/>
<polygon fill="black" stroke="black" points="69.06,-107.11 79.06,-103.61 69.06,-100.11 69.06,-107.11"/>
<text text-anchor="middle" x="59.59" y="-106.81" font-family="Times,serif" font-size="14.00">τ</text>
</g>
<!-- s2&#45;&gt;s0 -->
<g id="edge3" class="edge">
<title>s2&#45;&gt;s0</title>
<path fill="none" stroke="black" d="M35.32,-92.6C47.49,-83.81 64.77,-71.31 78.83,-61.14"/>
<polygon fill="black" stroke="black" points="80.67,-64.13 86.73,-55.43 76.57,-58.45 80.67,-64.13"/>
<text text-anchor="middle" x="59.59" y="-80.4" font-family="Times,serif" font-size="14.00">λ</text>
</g>
</g>
</svg>
