<?xml version="1.0" encoding="UTF-8" standalone="no"?>
<!DOCTYPE svg PUBLIC "-//W3C//DTD SVG 1.1//EN"
 "http://www.w3.org/Graphics/SVG/1.1/DTD/svg11.dtd">
<!-- Generated by graphviz version 2.38.0 (20140413.2041)
 -->
<!-- Title: finite_state_machine Pages: 1 -->
<svg width="210pt" height="132pt"
 viewBox="0.00 0.00 210.00 132.00" xmlns="http://www.w3.org/2000/svg" xmlns:xlink="http://www.w3.org/1999/xlink">
<g id="graph0" class="graph" transform="scale(1 1) rotate(0) translate(4 128)">
<title>finite_state_machine</title>
<polygon fill="white" stroke="none" points="-4,4 -4,-128 206,-128 206,4 -4,4"/>
<!-- s3 -->
<g id="node1" class="node"><title>s3</title>
<ellipse fill="none" stroke="black" cx="101" cy="-76" rx="18" ry="18"/>
<ellipse fill="none" stroke="black" cx="101" cy="-76" rx="22" ry="22"/>
<text text-anchor="middle" x="101" y="-71.8" font-family="Times,serif" font-size="14.00">s3</text>
</g>
<!-- s0 -->
<g id="node2" class="node"><title>s0</title>
<ellipse fill="none" stroke="black" cx="101" cy="-18" rx="18" ry="18"/>
<text text-anchor="middle" x="101" y="-13.8" font-family="Times,serif" font-size="14.00">s0</text>
</g>
<!-- s1 -->
<g id="node3" class="node"><title>s1</title>
<ellipse fill="none" stroke="black" cx="184" cy="-98" rx="18" ry="18"/>
<text text-anchor="middle" x="184" y="-93.8" font-family="Times,serif" font-size="14.00">s1</text>
</g>
<!-- s0&#45;&gt;s1 -->
<g id="edge1" class="edge"><title>s0&#45;&gt;s1</title>
<path fill="none" stroke="black" d="M114.302,-30.1503C127.267,-42.9547 147.884,-63.3177 163.154,-78.3985"/>
<polygon fill="black" stroke="black" points="161.008,-81.1985 170.582,-85.7354 165.927,-76.2181 161.008,-81.1985"/>
<text text-anchor="middle" x="144.5" y="-64.8" font-family="Times,serif" font-size="14.00">x</text>
</g>
<!-- s2 -->
<g id="node4" class="node"><title>s2</title>
<ellipse fill="none" stroke="black" cx="18" cy="-76" rx="18" ry="18"/>
<text text-anchor="middle" x="18" y="-71.8" font-family="Times,serif" font-size="14.00">s2</text>
</g>
<!-- s1&#45;&gt;s2 -->
<g id="edge2" class="edge"><title>s1&#45;&gt;s2</title>
<path fill="none" stroke="black" d="M166.54,-102.649C145.825,-107.769 109.29,-114.363 79,-107 66.1347,-103.873 52.945,-97.4728 42.2202,-91.2956"/>
<polygon fill="black" stroke="black" points="43.8665,-88.2008 33.5001,-86.0125 40.2393,-94.1878 43.8665,-88.2008"/>
<text text-anchor="middle" x="101" y="-112.8" font-family="Times,serif" font-size="14.00">x</text>
</g>
<!-- s2&#45;&gt;s3 -->
<g id="edge4" class="edge"><title>s2&#45;&gt;s3</title>
<path fill="none" stroke="black" d="M36.178,-76C45.6095,-76 57.6007,-76 68.637,-76"/>
<polygon fill="black" stroke="black" points="68.8108,-79.5001 78.8108,-76 68.8108,-72.5001 68.8108,-79.5001"/>
<text text-anchor="middle" x="57.5" y="-78.8" font-family="Times,serif" font-size="14.00">τ</text>
</g>
<!-- s2&#45;&gt;s0 -->
<g id="edge3" class="edge"><title>s2&#45;&gt;s0</title>
<path fill="none" stroke="black" d="M33.1091,-65.8972C45.3458,-57.1351 63.2756,-44.2965 77.4926,-34.1164"/>
<polygon fill="black" stroke="black" points="79.6879,-36.8493 85.7808,-28.1817 75.6125,-31.1579 79.6879,-36.8493"/>
<text text-anchor="middle" x="57.5" y="-52.8" font-family="Times,serif" font-size="14.00">λ</text>
</g>
</g>
</svg>
