<?xml version="1.0" encoding="UTF-8" standalone="no"?>
<!DOCTYPE svg PUBLIC "-//W3C//DTD SVG 1.1//EN"
 "http://www.w3.org/Graphics/SVG/1.1/DTD/svg11.dtd">
<!-- Generated by graphviz version 12.2.1 (20241206.2353)
 -->
<!-- Title: finite_state_machine Pages: 1 -->
<svg width="183pt" height="360pt"
 viewBox="0.00 0.00 182.66 360.00" xmlns="http://www.w3.org/2000/svg" xmlns:xlink="http://www.w3.org/1999/xlink">
<g id="graph0" class="graph" transform="scale(0.557197 0.557197) rotate(0) translate(4 642.09)">
<title>finite_state_machine</title>
<polygon fill="white" stroke="none" points="-4,4 -4,-642.09 323.83,-642.09 323.83,4 -4,4"/>
<text text-anchor="middle" x="159.91" y="-23.7" font-family="Times,serif" font-size="14.00">Regular Expression: </text>
<text text-anchor="middle" x="159.91" y="-7.2" font-family="Times,serif" font-size="14.00">xyzzy401</text>
<!-- s1 -->
<g id="node1" class="node">
<title>s1</title>
<ellipse fill="none" stroke="black" cx="296.72" cy="-358.11" rx="19.11" ry="19.11"/>
<ellipse fill="none" stroke="black" cx="296.72" cy="-358.11" rx="23.11" ry="23.11"/>
<text text-anchor="middle" x="296.72" y="-353.06" font-family="Times,serif" font-size="14.00">s1</text>
</g>
<!-- s0 -->
<g id="node2" class="node">
<title>s0</title>
<ellipse fill="none" stroke="black" cx="19.11" cy="-358.11" rx="19.11" ry="19.11"/>
<text text-anchor="middle" x="19.11" y="-353.06" font-family="Times,serif" font-size="14.00">s0</text>
</g>
<!-- s0&#45;&gt;s1 -->
<g id="edge1" class="edge">
<title>s0&#45;&gt;s1</title>
<path fill="none" stroke="black" d="M19.84,-377.48C19.52,-431.29 21.83,-580.73 56.22,-612.11 82.58,-636.17 100.75,-615.22 136.43,-616.11 189.41,-617.43 216.18,-647.52 255.61,-612.11 287.44,-583.52 294.09,-455.38 295.42,-392.77"/>
<polygon fill="black" stroke="black" points="298.92,-393.1 295.59,-383.04 291.92,-392.97 298.92,-393.1"/>
<text text-anchor="middle" x="155.54" y="-624.79" font-family="Times,serif" font-size="14.00">λ</text>
</g>
<!-- s0&#45;&gt;s1 -->
<g id="edge2" class="edge">
<title>s0&#45;&gt;s1</title>
<path fill="none" stroke="black" d="M20.41,-377.5C21.59,-425.25 27.42,-546.51 56.22,-572.11 82.89,-595.82 100.75,-575.22 136.43,-576.11 189.41,-577.43 215.68,-606.95 255.61,-572.11 282.01,-549.07 291.21,-447.16 294.27,-392.7"/>
<polygon fill="black" stroke="black" points="297.75,-393.21 294.77,-383.04 290.76,-392.85 297.75,-393.21"/>
<text text-anchor="middle" x="155.54" y="-584.7" font-family="Times,serif" font-size="14.00">λ</text>
</g>
<!-- s0&#45;&gt;s1 -->
<g id="edge3" class="edge">
<title>s0&#45;&gt;s1</title>
<path fill="none" stroke="black" d="M21.23,-377.48C24.06,-418.55 32.95,-512.19 56.22,-532.11 83.33,-555.32 100.75,-535.22 136.43,-536.11 189.41,-537.43 214.97,-566.12 255.61,-532.11 276.62,-514.53 287.73,-438.31 292.6,-392.79"/>
<polygon fill="black" stroke="black" points="296.08,-393.19 293.61,-382.88 289.12,-392.48 296.08,-393.19"/>
<text text-anchor="middle" x="155.54" y="-544.57" font-family="Times,serif" font-size="14.00">λ</text>
</g>
<!-- s0&#45;&gt;s1 -->
<g id="edge4" class="edge">
<title>s0&#45;&gt;s1</title>
<path fill="none" stroke="black" d="M22.52,-377.37C27.14,-410.89 38.4,-477.74 56.22,-492.11 84,-514.52 100.75,-495.22 136.43,-496.11 189.41,-497.43 213.89,-524.8 255.61,-492.11 285.44,-468.73 293.81,-424.06 295.79,-392.74"/>
<polygon fill="black" stroke="black" points="299.28,-393.12 296.21,-382.98 292.28,-392.82 299.28,-393.12"/>
<text text-anchor="middle" x="155.54" y="-504.36" font-family="Times,serif" font-size="14.00">λ</text>
</g>
<!-- s0&#45;&gt;s1 -->
<g id="edge5" class="edge">
<title>s0&#45;&gt;s1</title>
<path fill="none" stroke="black" d="M21.49,-377.29C24.22,-399.36 32.29,-434.77 56.22,-452.11 98.87,-483 122,-457.41 174.65,-456.11 210.66,-455.22 226.05,-472.7 255.61,-452.11 275.26,-438.42 285.34,-413.02 290.48,-392.08"/>
<polygon fill="black" stroke="black" points="293.86,-393 292.54,-382.48 287.02,-391.53 293.86,-393"/>
<text text-anchor="middle" x="155.54" y="-464.26" font-family="Times,serif" font-size="14.00">λ</text>
</g>
<!-- s0&#45;&gt;s1 -->
<g id="edge6" class="edge">
<title>s0&#45;&gt;s1</title>
<path fill="none" stroke="black" d="M26.92,-376C32.7,-388.46 42.28,-404.21 56.22,-412.11 102.03,-438.08 122,-417.41 174.65,-416.11 210.66,-415.22 223.83,-429.08 255.61,-412.11 265.62,-406.76 273.82,-397.68 280.13,-388.48"/>
<polygon fill="black" stroke="black" points="282.91,-390.63 285.22,-380.29 276.97,-386.93 282.91,-390.63"/>
<text text-anchor="middle" x="155.54" y="-423.44" font-family="Times,serif" font-size="14.00">λ</text>
</g>
<!-- s0&#45;&gt;s1 -->
<g id="edge7" class="edge">
<title>s0&#45;&gt;s1</title>
<path fill="none" stroke="black" d="M37.03,-365.95C42.97,-368.36 49.77,-370.73 56.22,-372.11 142.89,-390.57 168.63,-389.07 255.61,-372.11 258.4,-371.56 261.25,-370.87 264.09,-370.08"/>
<polygon fill="black" stroke="black" points="264.89,-373.5 273.36,-367.13 262.77,-366.83 264.89,-373.5"/>
<text text-anchor="middle" x="155.54" y="-388.6" font-family="Times,serif" font-size="14.00">λ</text>
</g>
<!-- s0&#45;&gt;s1 -->
<g id="edge8" class="edge">
<title>s0&#45;&gt;s1</title>
<path fill="none" stroke="black" d="M38.62,-358.11C84.35,-358.11 203.2,-358.11 261.9,-358.11"/>
<polygon fill="black" stroke="black" points="261.62,-361.61 271.62,-358.11 261.62,-354.61 261.62,-361.61"/>
<text text-anchor="middle" x="155.54" y="-361.31" font-family="Times,serif" font-size="14.00">λ</text>
</g>
<!-- s0&#45;&gt;s1 -->
<g id="edge11" class="edge">
<title>s0&#45;&gt;s1</title>
<path fill="none" stroke="black" d="M38.11,-353.93C60.86,-348.88 101.29,-340.68 136.43,-337.61 180.34,-333.77 230.76,-342.49 262.91,-349.72"/>
<polygon fill="black" stroke="black" points="261.87,-353.07 272.4,-351.95 263.47,-346.26 261.87,-353.07"/>
<text text-anchor="middle" x="155.54" y="-340.81" font-family="Times,serif" font-size="14.00">λ</text>
</g>
<!-- s0&#45;&gt;s1 -->
<g id="edge12" class="edge">
<title>s0&#45;&gt;s1</title>
<path fill="none" stroke="black" d="M36.55,-350.06C58.63,-339.76 99.38,-322.55 136.43,-316.61 182.12,-309.28 233.73,-327.82 265.5,-342.44"/>
<polygon fill="black" stroke="black" points="263.97,-345.59 274.5,-346.75 266.99,-339.28 263.97,-345.59"/>
<text text-anchor="middle" x="155.54" y="-319.81" font-family="Times,serif" font-size="14.00">λ</text>
</g>
<!-- s0&#45;&gt;s1 -->
<g id="edge13" class="edge">
<title>s0&#45;&gt;s1</title>
<path fill="none" stroke="black" d="M34.36,-346.36C55.2,-330.15 95.93,-302.09 136.43,-294.61 185.3,-285.58 238.17,-315.33 269.04,-337.12"/>
<polygon fill="black" stroke="black" points="266.89,-339.89 277.03,-342.96 271.02,-334.24 266.89,-339.89"/>
<text text-anchor="middle" x="155.54" y="-297.81" font-family="Times,serif" font-size="14.00">λ</text>
</g>
<!-- s0&#45;&gt;s1 -->
<g id="edge14" class="edge">
<title>s0&#45;&gt;s1</title>
<path fill="none" stroke="black" d="M31.3,-343.1C42.4,-329.09 60.56,-308.41 80.22,-295.11 115.95,-270.93 132.28,-264.44 174.65,-272.61 201.07,-277.7 208.29,-280.45 230.86,-295.11 246.69,-305.39 261.96,-319.91 273.7,-332.42"/>
<polygon fill="black" stroke="black" points="270.89,-334.53 280.21,-339.57 276.07,-329.82 270.89,-334.53"/>
<text text-anchor="middle" x="155.54" y="-275.81" font-family="Times,serif" font-size="14.00">λ</text>
</g>
<!-- s0&#45;&gt;s1 -->
<g id="edge15" class="edge">
<title>s0&#45;&gt;s1</title>
<path fill="none" stroke="black" d="M27.88,-340.89C37.56,-321.25 55.82,-289.37 80.22,-270.11 114,-243.43 132.44,-240.14 174.65,-248.61 201.2,-253.93 209.47,-255.5 230.86,-272.11 250.55,-287.4 267.32,-310.09 278.87,-328.32"/>
<polygon fill="black" stroke="black" points="275.75,-329.92 283.95,-336.62 281.72,-326.27 275.75,-329.92"/>
<text text-anchor="middle" x="155.54" y="-251.81" font-family="Times,serif" font-size="14.00">λ</text>
</g>
<!-- s2 -->
<g id="node3" class="node">
<title>s2</title>
<ellipse fill="none" stroke="black" cx="155.54" cy="-116.11" rx="19.11" ry="19.11"/>
<text text-anchor="middle" x="155.54" y="-111.06" font-family="Times,serif" font-size="14.00">s2</text>
</g>
<!-- s0&#45;&gt;s2 -->
<g id="edge9" class="edge">
<title>s0&#45;&gt;s2</title>
<path fill="none" stroke="black" d="M20.25,-338.84C21.06,-288.8 26.07,-156.6 56.22,-127.61 74.19,-110.32 103.38,-108.94 125.3,-110.98"/>
<polygon fill="black" stroke="black" points="124.75,-114.44 135.11,-112.2 125.62,-107.49 124.75,-114.44"/>
<text text-anchor="middle" x="59.22" y="-130.81" font-family="Times,serif" font-size="14.00">a</text>
</g>
<!-- s3 -->
<g id="node4" class="node">
<title>s3</title>
<ellipse fill="none" stroke="black" cx="99.32" cy="-69.11" rx="19.11" ry="19.11"/>
<text text-anchor="middle" x="99.32" y="-64.06" font-family="Times,serif" font-size="14.00">s3</text>
</g>
<!-- s0&#45;&gt;s3 -->
<g id="edge10" class="edge">
<title>s0&#45;&gt;s3</title>
<path fill="none" stroke="black" d="M19.89,-338.88C19.66,-282.31 22,-118.02 56.22,-79.61 59.63,-75.77 64.22,-73.23 69.11,-71.57"/>
<polygon fill="black" stroke="black" points="69.47,-75.08 78.48,-69.51 67.96,-68.24 69.47,-75.08"/>
<text text-anchor="middle" x="59.22" y="-82.81" font-family="Times,serif" font-size="14.00">a</text>
</g>
<!-- s2&#45;&gt;s1 -->
<g id="edge16" class="edge">
<title>s2&#45;&gt;s1</title>
<path fill="none" stroke="black" d="M174.8,-115.34C198.33,-115.49 238.25,-119.89 255.61,-146.11 274.56,-174.72 286.93,-270.98 292.43,-323.39"/>
<polygon fill="black" stroke="black" points="288.94,-323.69 293.44,-333.28 295.91,-322.98 288.94,-323.69"/>
<text text-anchor="middle" x="211.75" y="-128.84" font-family="Times,serif" font-size="14.00">λ</text>
</g>
<!-- s4 -->
<g id="node5" class="node">
<title>s4</title>
<ellipse fill="none" stroke="black" cx="211.75" cy="-60.11" rx="19.11" ry="19.11"/>
<text text-anchor="middle" x="211.75" y="-55.06" font-family="Times,serif" font-size="14.00">s4</text>
</g>
<!-- s3&#45;&gt;s4 -->
<g id="edge17" class="edge">
<title>s3&#45;&gt;s4</title>
<path fill="none" stroke="black" d="M118.56,-67.62C135.58,-66.23 161.29,-64.14 181.23,-62.51"/>
<polygon fill="black" stroke="black" points="181.3,-66.02 190.98,-61.72 180.73,-59.04 181.3,-66.02"/>
<text text-anchor="middle" x="155.54" y="-69.14" font-family="Times,serif" font-size="14.00">a</text>
</g>
<!-- s4&#45;&gt;s1 -->
<g id="edge18" class="edge">
<title>s4&#45;&gt;s1</title>
<path fill="none" stroke="black" d="M230.41,-65.93C239.38,-69.81 249.62,-75.83 255.61,-84.61 281.7,-122.87 291.25,-258.87 294.37,-323.51"/>
<polygon fill="black" stroke="black" points="290.86,-323.36 294.81,-333.19 297.85,-323.05 290.86,-323.36"/>
<text text-anchor="middle" x="252.24" y="-87.81" font-family="Times,serif" font-size="14.00">λ</text>
</g>
</g>
</svg>
