<?xml version="1.0" encoding="UTF-8" standalone="no"?>
<!DOCTYPE svg PUBLIC "-//W3C//DTD SVG 1.1//EN"
 "http://www.w3.org/Graphics/SVG/1.1/DTD/svg11.dtd">
<!-- Generated by graphviz version 2.38.0 (20140413.2041)
 -->
<!-- Title: finite_state_machine Pages: 1 -->
<svg width="271pt" height="360pt"
 viewBox="0.00 0.00 271.29 360.00" xmlns="http://www.w3.org/2000/svg" xmlns:xlink="http://www.w3.org/1999/xlink">
<g id="graph0" class="graph" transform="scale(0.830657 0.830657) rotate(0) translate(4 429.392)">
<title>finite_state_machine</title>
<polygon fill="white" stroke="none" points="-4,4 -4,-429.392 322.597,-429.392 322.597,4 -4,4"/>
<!-- s14 -->
<g id="node1" class="node"><title>s14</title>
<ellipse fill="none" stroke="black" cx="205.069" cy="-399" rx="22.3004" ry="22.3004"/>
<ellipse fill="none" stroke="black" cx="205.069" cy="-399" rx="26.2841" ry="26.2841"/>
<text text-anchor="middle" x="205.069" y="-394.8" font-family="Times,serif" font-size="14.00">s14</text>
</g>
<!-- s0 -->
<g id="node2" class="node"><title>s0</title>
<ellipse fill="none" stroke="black" cx="22.3918" cy="-18" rx="18" ry="18"/>
<text text-anchor="middle" x="22.3918" y="-13.8" font-family="Times,serif" font-size="14.00">s0</text>
</g>
<!-- s1 -->
<g id="node3" class="node"><title>s1</title>
<ellipse fill="none" stroke="black" cx="110.175" cy="-58" rx="18" ry="18"/>
<text text-anchor="middle" x="110.175" y="-53.8" font-family="Times,serif" font-size="14.00">s1</text>
</g>
<!-- s0&#45;&gt;s1 -->
<g id="edge1" class="edge"><title>s0&#45;&gt;s1</title>
<path fill="none" stroke="black" d="M40.339,-15.4135C49.4147,-14.7445 60.5865,-15.1009 69.7836,-19 78.3172,-22.6178 86.0053,-29.0335 92.2763,-35.6298"/>
<polygon fill="black" stroke="black" points="89.747,-38.0549 98.9527,-43.2995 95.0268,-33.4589 89.747,-38.0549"/>
<text text-anchor="middle" x="66.2836" y="-21.8" font-family="Times,serif" font-size="14.00">a</text>
</g>
<!-- s2 -->
<g id="node4" class="node"><title>s2</title>
<ellipse fill="none" stroke="black" cx="205.069" cy="-70" rx="18" ry="18"/>
<text text-anchor="middle" x="205.069" y="-65.8" font-family="Times,serif" font-size="14.00">s2</text>
</g>
<!-- s1&#45;&gt;s2 -->
<g id="edge2" class="edge"><title>s1&#45;&gt;s2</title>
<path fill="none" stroke="black" d="M128.214,-60.201C141.832,-61.9602 161.18,-64.4596 176.927,-66.4938"/>
<polygon fill="black" stroke="black" points="176.773,-70.0029 187.139,-67.813 177.67,-63.0606 176.773,-70.0029"/>
<text text-anchor="middle" x="155.622" y="-67.8" font-family="Times,serif" font-size="14.00">b</text>
</g>
<!-- s4 -->
<g id="node5" class="node"><title>s4</title>
<ellipse fill="none" stroke="black" cx="22.3918" cy="-106" rx="18" ry="18"/>
<text text-anchor="middle" x="22.3918" y="-101.8" font-family="Times,serif" font-size="14.00">s4</text>
</g>
<!-- s1&#45;&gt;s4 -->
<g id="edge3" class="edge"><title>s1&#45;&gt;s4</title>
<path fill="none" stroke="black" d="M94.1165,-66.4262C81.1211,-73.6977 62.1263,-84.3262 47.0933,-92.7379"/>
<polygon fill="black" stroke="black" points="45.3519,-89.7016 38.3342,-97.639 48.77,-95.8103 45.3519,-89.7016"/>
<text text-anchor="middle" x="66.2836" y="-86.8" font-family="Times,serif" font-size="14.00">λ</text>
</g>
<!-- s3 -->
<g id="node6" class="node"><title>s3</title>
<ellipse fill="none" stroke="black" cx="296.529" cy="-101" rx="18" ry="18"/>
<text text-anchor="middle" x="296.529" y="-96.8" font-family="Times,serif" font-size="14.00">s3</text>
</g>
<!-- s2&#45;&gt;s3 -->
<g id="edge4" class="edge"><title>s2&#45;&gt;s3</title>
<path fill="none" stroke="black" d="M222.478,-75.6859C235.593,-80.2305 254.226,-86.6873 269.391,-91.9424"/>
<polygon fill="black" stroke="black" points="268.63,-95.3829 279.225,-95.3502 270.922,-88.7688 268.63,-95.3829"/>
<text text-anchor="middle" x="252.961" y="-90.8" font-family="Times,serif" font-size="14.00">c</text>
</g>
<!-- s4&#45;&gt;s1 -->
<g id="edge6" class="edge"><title>s4&#45;&gt;s1</title>
<path fill="none" stroke="black" d="M32.8376,-91.0337C39.8434,-81.3085 50.3161,-69.3058 62.7836,-63 68.526,-60.0956 75.1715,-58.5123 81.6069,-57.7098"/>
<polygon fill="black" stroke="black" points="82.3022,-61.1707 92.0421,-57.0011 81.8278,-54.1868 82.3022,-61.1707"/>
<text text-anchor="middle" x="66.2836" y="-65.8" font-family="Times,serif" font-size="14.00">λ</text>
</g>
<!-- s5 -->
<g id="node7" class="node"><title>s5</title>
<ellipse fill="none" stroke="black" cx="110.175" cy="-174" rx="18" ry="18"/>
<text text-anchor="middle" x="110.175" y="-169.8" font-family="Times,serif" font-size="14.00">s5</text>
</g>
<!-- s4&#45;&gt;s5 -->
<g id="edge7" class="edge"><title>s4&#45;&gt;s5</title>
<path fill="none" stroke="black" d="M37.1744,-116.925C50.6813,-127.632 71.4801,-144.119 87.257,-156.625"/>
<polygon fill="black" stroke="black" points="85.4162,-159.633 95.427,-163.102 89.7646,-154.147 85.4162,-159.633"/>
<text text-anchor="middle" x="66.2836" y="-145.8" font-family="Times,serif" font-size="14.00">τ</text>
</g>
<!-- s3&#45;&gt;s4 -->
<g id="edge5" class="edge"><title>s3&#45;&gt;s4</title>
<path fill="none" stroke="black" d="M278.459,-103.663C271.636,-104.603 263.695,-105.539 256.461,-106 182.008,-110.745 93.904,-108.655 50.4319,-107.114"/>
<polygon fill="black" stroke="black" points="50.5004,-103.615 40.3768,-106.739 50.2392,-110.61 50.5004,-103.615"/>
<text text-anchor="middle" x="155.622" y="-111.8" font-family="Times,serif" font-size="14.00">d</text>
</g>
<!-- s6 -->
<g id="node8" class="node"><title>s6</title>
<ellipse fill="none" stroke="black" cx="205.069" cy="-174" rx="18" ry="18"/>
<text text-anchor="middle" x="205.069" y="-169.8" font-family="Times,serif" font-size="14.00">s6</text>
</g>
<!-- s5&#45;&gt;s6 -->
<g id="edge8" class="edge"><title>s5&#45;&gt;s6</title>
<path fill="none" stroke="black" d="M128.214,-174C141.747,-174 160.939,-174 176.632,-174"/>
<polygon fill="black" stroke="black" points="176.825,-177.5 186.825,-174 176.825,-170.5 176.825,-177.5"/>
<text text-anchor="middle" x="155.622" y="-176.8" font-family="Times,serif" font-size="14.00">g</text>
</g>
<!-- s7 -->
<g id="node9" class="node"><title>s7</title>
<ellipse fill="none" stroke="black" cx="296.529" cy="-201" rx="18" ry="18"/>
<text text-anchor="middle" x="296.529" y="-196.8" font-family="Times,serif" font-size="14.00">s7</text>
</g>
<!-- s6&#45;&gt;s7 -->
<g id="edge9" class="edge"><title>s6&#45;&gt;s7</title>
<path fill="none" stroke="black" d="M222.478,-178.952C235.511,-182.886 253.993,-188.464 269.106,-193.025"/>
<polygon fill="black" stroke="black" points="268.337,-196.449 278.922,-195.988 270.36,-189.748 268.337,-196.449"/>
<text text-anchor="middle" x="252.961" y="-192.8" font-family="Times,serif" font-size="14.00">h</text>
</g>
<!-- s8 -->
<g id="node10" class="node"><title>s8</title>
<ellipse fill="none" stroke="black" cx="22.3918" cy="-220" rx="18" ry="18"/>
<text text-anchor="middle" x="22.3918" y="-215.8" font-family="Times,serif" font-size="14.00">s8</text>
</g>
<!-- s7&#45;&gt;s8 -->
<g id="edge10" class="edge"><title>s7&#45;&gt;s8</title>
<path fill="none" stroke="black" d="M278.441,-203.44C271.616,-204.349 263.678,-205.322 256.461,-206 182.05,-212.989 93.9275,-217.173 50.4418,-218.967"/>
<polygon fill="black" stroke="black" points="50.2344,-215.472 40.3833,-219.372 50.516,-222.466 50.2344,-215.472"/>
<text text-anchor="middle" x="155.622" y="-216.8" font-family="Times,serif" font-size="14.00">i</text>
</g>
<!-- s8&#45;&gt;s5 -->
<g id="edge11" class="edge"><title>s8&#45;&gt;s5</title>
<path fill="none" stroke="black" d="M37.0637,-209.006C44.4024,-203.441 53.7712,-196.854 62.7836,-192 69.2227,-188.532 76.4763,-185.389 83.3015,-182.736"/>
<polygon fill="black" stroke="black" points="84.6768,-185.959 92.8501,-179.218 82.2567,-179.391 84.6768,-185.959"/>
<text text-anchor="middle" x="66.2836" y="-194.8" font-family="Times,serif" font-size="14.00">λ</text>
</g>
<!-- s9 -->
<g id="node11" class="node"><title>s9</title>
<ellipse fill="none" stroke="black" cx="110.175" cy="-329" rx="18" ry="18"/>
<text text-anchor="middle" x="110.175" y="-324.8" font-family="Times,serif" font-size="14.00">s9</text>
</g>
<!-- s8&#45;&gt;s9 -->
<g id="edge12" class="edge"><title>s8&#45;&gt;s9</title>
<path fill="none" stroke="black" d="M34.2564,-233.805C48.8235,-252.315 74.8416,-285.374 92.0564,-307.248"/>
<polygon fill="black" stroke="black" points="89.4642,-309.613 98.3991,-315.307 94.965,-305.284 89.4642,-309.613"/>
<text text-anchor="middle" x="66.2836" y="-280.8" font-family="Times,serif" font-size="14.00">τ</text>
</g>
<!-- s10 -->
<g id="node12" class="node"><title>s10</title>
<ellipse fill="none" stroke="black" cx="205.069" cy="-332" rx="22.2841" ry="22.2841"/>
<text text-anchor="middle" x="205.069" y="-327.8" font-family="Times,serif" font-size="14.00">s10</text>
</g>
<!-- s9&#45;&gt;s10 -->
<g id="edge13" class="edge"><title>s9&#45;&gt;s10</title>
<path fill="none" stroke="black" d="M128.214,-329.55C140.521,-329.948 157.508,-330.496 172.288,-330.974"/>
<polygon fill="black" stroke="black" points="172.453,-334.481 182.561,-331.305 172.679,-327.484 172.453,-334.481"/>
<text text-anchor="middle" x="155.622" y="-333.8" font-family="Times,serif" font-size="14.00">j</text>
</g>
<!-- s12 -->
<g id="node13" class="node"><title>s12</title>
<ellipse fill="none" stroke="black" cx="22.3918" cy="-335" rx="22.2841" ry="22.2841"/>
<text text-anchor="middle" x="22.3918" y="-330.8" font-family="Times,serif" font-size="14.00">s12</text>
</g>
<!-- s9&#45;&gt;s12 -->
<g id="edge14" class="edge"><title>s9&#45;&gt;s12</title>
<path fill="none" stroke="black" d="M93.3376,-321.739C84.3955,-318.522 72.9976,-315.89 62.7836,-318 59.1409,-318.752 55.4204,-319.858 51.7912,-321.151"/>
<polygon fill="black" stroke="black" points="50.4771,-317.907 42.5132,-324.895 53.0964,-324.398 50.4771,-317.907"/>
<text text-anchor="middle" x="66.2836" y="-320.8" font-family="Times,serif" font-size="14.00">λ</text>
</g>
<!-- s11 -->
<g id="node14" class="node"><title>s11</title>
<ellipse fill="none" stroke="black" cx="296.529" cy="-302" rx="22.1361" ry="22.1361"/>
<text text-anchor="middle" x="296.529" y="-297.8" font-family="Times,serif" font-size="14.00">s11</text>
</g>
<!-- s10&#45;&gt;s11 -->
<g id="edge15" class="edge"><title>s10&#45;&gt;s11</title>
<path fill="none" stroke="black" d="M226.818,-325.042C238.303,-321.19 252.784,-316.335 265.486,-312.075"/>
<polygon fill="black" stroke="black" points="266.833,-315.315 275.201,-308.817 264.607,-308.678 266.833,-315.315"/>
<text text-anchor="middle" x="252.961" y="-319.8" font-family="Times,serif" font-size="14.00">k</text>
</g>
<!-- s12&#45;&gt;s9 -->
<g id="edge17" class="edge"><title>s12&#45;&gt;s9</title>
<path fill="none" stroke="black" d="M45.1085,-333.647C52.8926,-333.149 61.7326,-332.567 69.7836,-332 73.6364,-331.729 77.7002,-331.432 81.6958,-331.133"/>
<polygon fill="black" stroke="black" points="82.2149,-334.604 91.9212,-330.357 81.685,-327.624 82.2149,-334.604"/>
<text text-anchor="middle" x="66.2836" y="-335.8" font-family="Times,serif" font-size="14.00">λ</text>
</g>
<!-- s13 -->
<g id="node15" class="node"><title>s13</title>
<ellipse fill="none" stroke="black" cx="110.175" cy="-394" rx="22.2841" ry="22.2841"/>
<text text-anchor="middle" x="110.175" y="-389.8" font-family="Times,serif" font-size="14.00">s13</text>
</g>
<!-- s12&#45;&gt;s13 -->
<g id="edge18" class="edge"><title>s12&#45;&gt;s13</title>
<path fill="none" stroke="black" d="M41.1662,-347.225C53.1628,-355.476 69.2071,-366.511 82.6991,-375.79"/>
<polygon fill="black" stroke="black" points="80.9059,-378.805 91.1286,-381.588 84.8727,-373.037 80.9059,-378.805"/>
<text text-anchor="middle" x="66.2836" y="-369.8" font-family="Times,serif" font-size="14.00">τ</text>
</g>
<!-- s11&#45;&gt;s12 -->
<g id="edge16" class="edge"><title>s11&#45;&gt;s12</title>
<path fill="none" stroke="black" d="M274.531,-298.895C236.628,-293.97 154.518,-286.427 87.7836,-302 74.6905,-305.055 61.2899,-311.324 50.1276,-317.586"/>
<polygon fill="black" stroke="black" points="48.1688,-314.678 41.3337,-322.773 51.7252,-320.707 48.1688,-314.678"/>
<text text-anchor="middle" x="155.622" y="-296.8" font-family="Times,serif" font-size="14.00">l</text>
</g>
<!-- s13&#45;&gt;s14 -->
<g id="edge19" class="edge"><title>s13&#45;&gt;s14</title>
<path fill="none" stroke="black" d="M132.721,-395.16C143.333,-395.731 156.408,-396.435 168.453,-397.083"/>
<polygon fill="black" stroke="black" points="168.512,-400.591 178.686,-397.634 168.888,-393.601 168.512,-400.591"/>
<text text-anchor="middle" x="155.622" y="-398.8" font-family="Times,serif" font-size="14.00">X</text>
</g>
</g>
</svg>
