<?xml version="1.0" encoding="UTF-8" standalone="no"?>
<!DOCTYPE svg PUBLIC "-//W3C//DTD SVG 1.1//EN"
 "http://www.w3.org/Graphics/SVG/1.1/DTD/svg11.dtd">
<!-- Generated by graphviz version 12.2.1 (20241206.2353)
 -->
<!-- Title: finite_state_machine Pages: 1 -->
<svg width="530pt" height="163pt"
 viewBox="0.00 0.00 530.43 162.82" xmlns="http://www.w3.org/2000/svg" xmlns:xlink="http://www.w3.org/1999/xlink">
<g id="graph0" class="graph" transform="scale(1 1) rotate(0) translate(4 158.82)">
<title>finite_state_machine</title>
<polygon fill="white" stroke="none" points="-4,4 -4,-158.82 526.43,-158.82 526.43,4 -4,4"/>
<!-- s1 -->
<g id="node1" class="node">
<title>s1</title>
<ellipse fill="none" stroke="black" cx="499.33" cy="-83.71" rx="19.11" ry="19.11"/>
<ellipse fill="none" stroke="black" cx="499.33" cy="-83.71" rx="23.11" ry="23.11"/>
<text text-anchor="middle" x="499.33" y="-78.66" font-family="Times,serif" font-size="14.00">s1</text>
</g>
<!-- s0 -->
<g id="node2" class="node">
<title>s0</title>
<ellipse fill="none" stroke="black" cx="19.11" cy="-79.71" rx="19.11" ry="19.11"/>
<text text-anchor="middle" x="19.11" y="-74.66" font-family="Times,serif" font-size="14.00">s0</text>
</g>
<!-- s2 -->
<g id="node3" class="node">
<title>s2</title>
<ellipse fill="none" stroke="black" cx="99.32" cy="-135.71" rx="19.11" ry="19.11"/>
<text text-anchor="middle" x="99.32" y="-130.66" font-family="Times,serif" font-size="14.00">s2</text>
</g>
<!-- s0&#45;&gt;s2 -->
<g id="edge1" class="edge">
<title>s0&#45;&gt;s2</title>
<path fill="none" stroke="black" d="M35.19,-90.51C46.22,-98.41 61.43,-109.3 74.15,-118.41"/>
<polygon fill="black" stroke="black" points="71.89,-121.09 82.06,-124.07 75.96,-115.4 71.89,-121.09"/>
<text text-anchor="middle" x="59.22" y="-112.59" font-family="Times,serif" font-size="14.00">a</text>
</g>
<!-- s4 -->
<g id="node4" class="node">
<title>s4</title>
<ellipse fill="none" stroke="black" cx="99.32" cy="-79.71" rx="19.11" ry="19.11"/>
<text text-anchor="middle" x="99.32" y="-74.66" font-family="Times,serif" font-size="14.00">s4</text>
</g>
<!-- s0&#45;&gt;s4 -->
<g id="edge2" class="edge">
<title>s0&#45;&gt;s4</title>
<path fill="none" stroke="black" d="M38.64,-79.71C47.6,-79.71 58.58,-79.71 68.67,-79.71"/>
<polygon fill="black" stroke="black" points="68.41,-83.21 78.41,-79.71 68.41,-76.21 68.41,-83.21"/>
<text text-anchor="middle" x="59.22" y="-82.91" font-family="Times,serif" font-size="14.00">a</text>
</g>
<!-- s7 -->
<g id="node5" class="node">
<title>s7</title>
<ellipse fill="none" stroke="black" cx="99.32" cy="-23.71" rx="19.11" ry="19.11"/>
<text text-anchor="middle" x="99.32" y="-18.66" font-family="Times,serif" font-size="14.00">s7</text>
</g>
<!-- s0&#45;&gt;s7 -->
<g id="edge3" class="edge">
<title>s0&#45;&gt;s7</title>
<path fill="none" stroke="black" d="M35.19,-68.92C46.22,-61.01 61.43,-50.13 74.15,-41.02"/>
<polygon fill="black" stroke="black" points="75.96,-44.03 82.06,-35.36 71.89,-38.33 75.96,-44.03"/>
<text text-anchor="middle" x="59.22" y="-56.59" font-family="Times,serif" font-size="14.00">a</text>
</g>
<!-- s3 -->
<g id="node6" class="node">
<title>s3</title>
<ellipse fill="none" stroke="black" cx="236.5" cy="-130.71" rx="19.11" ry="19.11"/>
<text text-anchor="middle" x="236.5" y="-125.66" font-family="Times,serif" font-size="14.00">s3</text>
</g>
<!-- s2&#45;&gt;s3 -->
<g id="edge4" class="edge">
<title>s2&#45;&gt;s3</title>
<path fill="none" stroke="black" d="M118.84,-135.03C141.28,-134.2 179.4,-132.79 205.94,-131.81"/>
<polygon fill="black" stroke="black" points="205.84,-135.31 215.7,-131.45 205.58,-128.32 205.84,-135.31"/>
<text text-anchor="middle" x="139.81" y="-137.55" font-family="Times,serif" font-size="14.00">b</text>
</g>
<!-- s5 -->
<g id="node7" class="node">
<title>s5</title>
<ellipse fill="none" stroke="black" cx="180.29" cy="-81.71" rx="19.11" ry="19.11"/>
<text text-anchor="middle" x="180.29" y="-76.66" font-family="Times,serif" font-size="14.00">s5</text>
</g>
<!-- s4&#45;&gt;s5 -->
<g id="edge6" class="edge">
<title>s4&#45;&gt;s5</title>
<path fill="none" stroke="black" d="M118.64,-80.18C127.74,-80.41 138.98,-80.69 149.29,-80.95"/>
<polygon fill="black" stroke="black" points="149.2,-84.45 159.29,-81.21 149.38,-77.46 149.2,-84.45"/>
<text text-anchor="middle" x="139.81" y="-83.97" font-family="Times,serif" font-size="14.00">a</text>
</g>
<!-- s8 -->
<g id="node9" class="node">
<title>s8</title>
<ellipse fill="none" stroke="black" cx="180.29" cy="-23.71" rx="19.11" ry="19.11"/>
<text text-anchor="middle" x="180.29" y="-18.66" font-family="Times,serif" font-size="14.00">s8</text>
</g>
<!-- s7&#45;&gt;s8 -->
<g id="edge9" class="edge">
<title>s7&#45;&gt;s8</title>
<path fill="none" stroke="black" d="M118.64,-23.71C127.74,-23.71 138.98,-23.71 149.29,-23.71"/>
<polygon fill="black" stroke="black" points="149.29,-27.21 159.29,-23.71 149.29,-20.21 149.29,-27.21"/>
<text text-anchor="middle" x="139.81" y="-26.91" font-family="Times,serif" font-size="14.00">a</text>
</g>
<!-- s3&#45;&gt;s1 -->
<g id="edge5" class="edge">
<title>s3&#45;&gt;s1</title>
<path fill="none" stroke="black" d="M255.97,-128.8C290.84,-125.04 368.68,-116 433.47,-103.71 444.59,-101.61 447.36,-100.92 458.22,-97.71 460.94,-96.91 463.75,-96.03 466.56,-95.12"/>
<polygon fill="black" stroke="black" points="467.43,-98.52 475.79,-92 465.19,-91.89 467.43,-98.52"/>
<text text-anchor="middle" x="348.93" y="-122.89" font-family="Times,serif" font-size="14.00">λ</text>
</g>
<!-- s6 -->
<g id="node8" class="node">
<title>s6</title>
<ellipse fill="none" stroke="black" cx="348.93" cy="-82.71" rx="19.11" ry="19.11"/>
<text text-anchor="middle" x="348.93" y="-77.66" font-family="Times,serif" font-size="14.00">s6</text>
</g>
<!-- s5&#45;&gt;s6 -->
<g id="edge7" class="edge">
<title>s5&#45;&gt;s6</title>
<path fill="none" stroke="black" d="M199.76,-81.82C228.41,-82 283.85,-82.33 318.19,-82.54"/>
<polygon fill="black" stroke="black" points="317.84,-86.03 327.87,-82.59 317.89,-79.03 317.84,-86.03"/>
<text text-anchor="middle" x="236.5" y="-85.35" font-family="Times,serif" font-size="14.00">b</text>
</g>
<!-- s6&#45;&gt;s1 -->
<g id="edge8" class="edge">
<title>s6&#45;&gt;s1</title>
<path fill="none" stroke="black" d="M368.43,-82.84C392.5,-83 435.01,-83.29 464.83,-83.49"/>
<polygon fill="black" stroke="black" points="464.42,-86.99 474.45,-83.55 464.47,-79.99 464.42,-86.99"/>
<text text-anchor="middle" x="409.75" y="-86.46" font-family="Times,serif" font-size="14.00">λ</text>
</g>
<!-- s9 -->
<g id="node10" class="node">
<title>s9</title>
<ellipse fill="none" stroke="black" cx="292.72" cy="-23.71" rx="19.11" ry="19.11"/>
<text text-anchor="middle" x="292.72" y="-18.66" font-family="Times,serif" font-size="14.00">s9</text>
</g>
<!-- s8&#45;&gt;s9 -->
<g id="edge10" class="edge">
<title>s8&#45;&gt;s9</title>
<path fill="none" stroke="black" d="M199.52,-23.71C216.55,-23.71 242.25,-23.71 262.2,-23.71"/>
<polygon fill="black" stroke="black" points="261.94,-27.21 271.94,-23.71 261.94,-20.21 261.94,-27.21"/>
<text text-anchor="middle" x="236.5" y="-26.91" font-family="Times,serif" font-size="14.00">a</text>
</g>
<!-- s10 -->
<g id="node11" class="node">
<title>s10</title>
<ellipse fill="none" stroke="black" cx="409.75" cy="-23.71" rx="23.71" ry="23.71"/>
<text text-anchor="middle" x="409.75" y="-18.66" font-family="Times,serif" font-size="14.00">s10</text>
</g>
<!-- s9&#45;&gt;s10 -->
<g id="edge11" class="edge">
<title>s9&#45;&gt;s10</title>
<path fill="none" stroke="black" d="M312.2,-23.71C328.87,-23.71 353.83,-23.71 374.19,-23.71"/>
<polygon fill="black" stroke="black" points="374.04,-27.21 384.04,-23.71 374.04,-20.21 374.04,-27.21"/>
<text text-anchor="middle" x="348.93" y="-26.91" font-family="Times,serif" font-size="14.00">b</text>
</g>
<!-- s10&#45;&gt;s1 -->
<g id="edge12" class="edge">
<title>s10&#45;&gt;s1</title>
<path fill="none" stroke="black" d="M430.42,-35.36C439.06,-40.63 449.27,-47.05 458.22,-53.21 462.67,-56.28 467.3,-59.64 471.78,-62.97"/>
<polygon fill="black" stroke="black" points="469.33,-65.51 479.42,-68.77 473.56,-59.94 469.33,-65.51"/>
<text text-anchor="middle" x="454.84" y="-56.41" font-family="Times,serif" font-size="14.00">λ</text>
</g>
</g>
</svg>
