<?xml version="1.0" encoding="UTF-8" standalone="no"?>
<!DOCTYPE svg PUBLIC "-//W3C//DTD SVG 1.1//EN"
 "http://www.w3.org/Graphics/SVG/1.1/DTD/svg11.dtd">
<!-- Generated by graphviz version 12.2.1 (20241206.2353)
 -->
<!-- Title: finite_state_machine Pages: 1 -->
<svg width="195pt" height="360pt"
 viewBox="0.00 0.00 195.04 360.00" xmlns="http://www.w3.org/2000/svg" xmlns:xlink="http://www.w3.org/1999/xlink">
<g id="graph0" class="graph" transform="scale(0.594952 0.594952) rotate(0) translate(4 601.09)">
<title>finite_state_machine</title>
<polygon fill="white" stroke="none" points="-4,4 -4,-601.09 323.83,-601.09 323.83,4 -4,4"/>
<!-- s1 -->
<g id="node1" class="node">
<title>s1</title>
<ellipse fill="none" stroke="black" cx="296.72" cy="-317.11" rx="19.11" ry="19.11"/>
<ellipse fill="none" stroke="black" cx="296.72" cy="-317.11" rx="23.11" ry="23.11"/>
<text text-anchor="middle" x="296.72" y="-312.06" font-family="Times,serif" font-size="14.00">s1</text>
</g>
<!-- s0 -->
<g id="node2" class="node">
<title>s0</title>
<ellipse fill="none" stroke="black" cx="19.11" cy="-317.11" rx="19.11" ry="19.11"/>
<text text-anchor="middle" x="19.11" y="-312.06" font-family="Times,serif" font-size="14.00">s0</text>
</g>
<!-- s0&#45;&gt;s1 -->
<g id="edge1" class="edge">
<title>s0&#45;&gt;s1</title>
<path fill="none" stroke="black" d="M19.84,-336.48C19.52,-390.29 21.83,-539.73 56.22,-571.11 82.58,-595.17 100.75,-574.22 136.43,-575.11 189.41,-576.43 216.18,-606.52 255.61,-571.11 287.44,-542.52 294.09,-414.38 295.42,-351.77"/>
<polygon fill="black" stroke="black" points="298.92,-352.1 295.59,-342.04 291.92,-351.97 298.92,-352.1"/>
<text text-anchor="middle" x="155.54" y="-583.79" font-family="Times,serif" font-size="14.00">λ</text>
</g>
<!-- s0&#45;&gt;s1 -->
<g id="edge2" class="edge">
<title>s0&#45;&gt;s1</title>
<path fill="none" stroke="black" d="M20.41,-336.5C21.59,-384.25 27.42,-505.51 56.22,-531.11 82.89,-554.82 100.75,-534.22 136.43,-535.11 189.41,-536.43 215.68,-565.95 255.61,-531.11 282.01,-508.07 291.21,-406.16 294.27,-351.7"/>
<polygon fill="black" stroke="black" points="297.75,-352.21 294.77,-342.04 290.76,-351.85 297.75,-352.21"/>
<text text-anchor="middle" x="155.54" y="-543.7" font-family="Times,serif" font-size="14.00">λ</text>
</g>
<!-- s0&#45;&gt;s1 -->
<g id="edge3" class="edge">
<title>s0&#45;&gt;s1</title>
<path fill="none" stroke="black" d="M21.23,-336.48C24.06,-377.55 32.95,-471.19 56.22,-491.11 83.33,-514.32 100.75,-494.22 136.43,-495.11 189.41,-496.43 214.97,-525.12 255.61,-491.11 276.62,-473.53 287.73,-397.31 292.6,-351.79"/>
<polygon fill="black" stroke="black" points="296.08,-352.19 293.61,-341.88 289.12,-351.48 296.08,-352.19"/>
<text text-anchor="middle" x="155.54" y="-503.57" font-family="Times,serif" font-size="14.00">λ</text>
</g>
<!-- s0&#45;&gt;s1 -->
<g id="edge4" class="edge">
<title>s0&#45;&gt;s1</title>
<path fill="none" stroke="black" d="M22.52,-336.37C27.14,-369.89 38.4,-436.74 56.22,-451.11 84,-473.52 100.75,-454.22 136.43,-455.11 189.41,-456.43 213.89,-483.8 255.61,-451.11 285.44,-427.73 293.81,-383.06 295.79,-351.74"/>
<polygon fill="black" stroke="black" points="299.28,-352.12 296.21,-341.98 292.28,-351.82 299.28,-352.12"/>
<text text-anchor="middle" x="155.54" y="-463.36" font-family="Times,serif" font-size="14.00">λ</text>
</g>
<!-- s0&#45;&gt;s1 -->
<g id="edge5" class="edge">
<title>s0&#45;&gt;s1</title>
<path fill="none" stroke="black" d="M21.49,-336.29C24.22,-358.36 32.29,-393.77 56.22,-411.11 98.87,-442 122,-416.41 174.65,-415.11 210.66,-414.22 226.05,-431.7 255.61,-411.11 275.26,-397.42 285.34,-372.02 290.48,-351.08"/>
<polygon fill="black" stroke="black" points="293.86,-352 292.54,-341.48 287.02,-350.53 293.86,-352"/>
<text text-anchor="middle" x="155.54" y="-423.26" font-family="Times,serif" font-size="14.00">λ</text>
</g>
<!-- s0&#45;&gt;s1 -->
<g id="edge6" class="edge">
<title>s0&#45;&gt;s1</title>
<path fill="none" stroke="black" d="M26.92,-335C32.7,-347.46 42.28,-363.21 56.22,-371.11 102.03,-397.08 122,-376.41 174.65,-375.11 210.66,-374.22 223.83,-388.08 255.61,-371.11 265.62,-365.76 273.82,-356.68 280.13,-347.48"/>
<polygon fill="black" stroke="black" points="282.91,-349.63 285.22,-339.29 276.97,-345.93 282.91,-349.63"/>
<text text-anchor="middle" x="155.54" y="-382.44" font-family="Times,serif" font-size="14.00">λ</text>
</g>
<!-- s0&#45;&gt;s1 -->
<g id="edge7" class="edge">
<title>s0&#45;&gt;s1</title>
<path fill="none" stroke="black" d="M37.03,-324.95C42.97,-327.36 49.77,-329.73 56.22,-331.11 142.89,-349.57 168.63,-348.07 255.61,-331.11 258.4,-330.56 261.25,-329.87 264.09,-329.08"/>
<polygon fill="black" stroke="black" points="264.89,-332.5 273.36,-326.13 262.77,-325.83 264.89,-332.5"/>
<text text-anchor="middle" x="155.54" y="-347.6" font-family="Times,serif" font-size="14.00">λ</text>
</g>
<!-- s0&#45;&gt;s1 -->
<g id="edge8" class="edge">
<title>s0&#45;&gt;s1</title>
<path fill="none" stroke="black" d="M38.62,-317.11C84.35,-317.11 203.2,-317.11 261.9,-317.11"/>
<polygon fill="black" stroke="black" points="261.62,-320.61 271.62,-317.11 261.62,-313.61 261.62,-320.61"/>
<text text-anchor="middle" x="155.54" y="-320.31" font-family="Times,serif" font-size="14.00">λ</text>
</g>
<!-- s0&#45;&gt;s1 -->
<g id="edge11" class="edge">
<title>s0&#45;&gt;s1</title>
<path fill="none" stroke="black" d="M38.11,-312.93C60.86,-307.88 101.29,-299.68 136.43,-296.61 180.34,-292.77 230.76,-301.49 262.91,-308.72"/>
<polygon fill="black" stroke="black" points="261.87,-312.07 272.4,-310.95 263.47,-305.26 261.87,-312.07"/>
<text text-anchor="middle" x="155.54" y="-299.81" font-family="Times,serif" font-size="14.00">λ</text>
</g>
<!-- s0&#45;&gt;s1 -->
<g id="edge12" class="edge">
<title>s0&#45;&gt;s1</title>
<path fill="none" stroke="black" d="M36.55,-309.06C58.63,-298.76 99.38,-281.55 136.43,-275.61 182.12,-268.28 233.73,-286.82 265.5,-301.44"/>
<polygon fill="black" stroke="black" points="263.97,-304.59 274.5,-305.75 266.99,-298.28 263.97,-304.59"/>
<text text-anchor="middle" x="155.54" y="-278.81" font-family="Times,serif" font-size="14.00">λ</text>
</g>
<!-- s0&#45;&gt;s1 -->
<g id="edge13" class="edge">
<title>s0&#45;&gt;s1</title>
<path fill="none" stroke="black" d="M34.36,-305.36C55.2,-289.15 95.93,-261.09 136.43,-253.61 185.3,-244.58 238.17,-274.33 269.04,-296.12"/>
<polygon fill="black" stroke="black" points="266.89,-298.89 277.03,-301.96 271.02,-293.24 266.89,-298.89"/>
<text text-anchor="middle" x="155.54" y="-256.81" font-family="Times,serif" font-size="14.00">λ</text>
</g>
<!-- s0&#45;&gt;s1 -->
<g id="edge14" class="edge">
<title>s0&#45;&gt;s1</title>
<path fill="none" stroke="black" d="M31.3,-302.1C42.4,-288.09 60.56,-267.41 80.22,-254.11 115.95,-229.93 132.28,-223.44 174.65,-231.61 201.07,-236.7 208.29,-239.45 230.86,-254.11 246.69,-264.39 261.96,-278.91 273.7,-291.42"/>
<polygon fill="black" stroke="black" points="270.89,-293.53 280.21,-298.57 276.07,-288.82 270.89,-293.53"/>
<text text-anchor="middle" x="155.54" y="-234.81" font-family="Times,serif" font-size="14.00">λ</text>
</g>
<!-- s0&#45;&gt;s1 -->
<g id="edge15" class="edge">
<title>s0&#45;&gt;s1</title>
<path fill="none" stroke="black" d="M27.88,-299.89C37.56,-280.25 55.82,-248.37 80.22,-229.11 114,-202.43 132.44,-199.14 174.65,-207.61 201.2,-212.93 209.47,-214.5 230.86,-231.11 250.55,-246.4 267.32,-269.09 278.87,-287.32"/>
<polygon fill="black" stroke="black" points="275.75,-288.92 283.95,-295.62 281.72,-285.27 275.75,-288.92"/>
<text text-anchor="middle" x="155.54" y="-210.81" font-family="Times,serif" font-size="14.00">λ</text>
</g>
<!-- s2 -->
<g id="node3" class="node">
<title>s2</title>
<ellipse fill="none" stroke="black" cx="155.54" cy="-75.11" rx="19.11" ry="19.11"/>
<text text-anchor="middle" x="155.54" y="-70.06" font-family="Times,serif" font-size="14.00">s2</text>
</g>
<!-- s0&#45;&gt;s2 -->
<g id="edge9" class="edge">
<title>s0&#45;&gt;s2</title>
<path fill="none" stroke="black" d="M20.25,-297.84C21.06,-247.8 26.07,-115.6 56.22,-86.61 74.19,-69.32 103.38,-67.94 125.3,-69.98"/>
<polygon fill="black" stroke="black" points="124.75,-73.44 135.11,-71.2 125.62,-66.49 124.75,-73.44"/>
<text text-anchor="middle" x="59.22" y="-89.81" font-family="Times,serif" font-size="14.00">a</text>
</g>
<!-- s3 -->
<g id="node4" class="node">
<title>s3</title>
<ellipse fill="none" stroke="black" cx="99.32" cy="-28.11" rx="19.11" ry="19.11"/>
<text text-anchor="middle" x="99.32" y="-23.06" font-family="Times,serif" font-size="14.00">s3</text>
</g>
<!-- s0&#45;&gt;s3 -->
<g id="edge10" class="edge">
<title>s0&#45;&gt;s3</title>
<path fill="none" stroke="black" d="M19.89,-297.88C19.66,-241.31 22,-77.02 56.22,-38.61 59.63,-34.77 64.22,-32.23 69.11,-30.57"/>
<polygon fill="black" stroke="black" points="69.47,-34.08 78.48,-28.51 67.96,-27.24 69.47,-34.08"/>
<text text-anchor="middle" x="59.22" y="-41.81" font-family="Times,serif" font-size="14.00">a</text>
</g>
<!-- s2&#45;&gt;s1 -->
<g id="edge16" class="edge">
<title>s2&#45;&gt;s1</title>
<path fill="none" stroke="black" d="M174.8,-74.34C198.33,-74.49 238.25,-78.89 255.61,-105.11 274.56,-133.72 286.93,-229.98 292.43,-282.39"/>
<polygon fill="black" stroke="black" points="288.94,-282.69 293.44,-292.28 295.91,-281.98 288.94,-282.69"/>
<text text-anchor="middle" x="211.75" y="-87.84" font-family="Times,serif" font-size="14.00">λ</text>
</g>
<!-- s4 -->
<g id="node5" class="node">
<title>s4</title>
<ellipse fill="none" stroke="black" cx="211.75" cy="-19.11" rx="19.11" ry="19.11"/>
<text text-anchor="middle" x="211.75" y="-14.06" font-family="Times,serif" font-size="14.00">s4</text>
</g>
<!-- s3&#45;&gt;s4 -->
<g id="edge17" class="edge">
<title>s3&#45;&gt;s4</title>
<path fill="none" stroke="black" d="M118.56,-26.62C135.58,-25.23 161.29,-23.14 181.23,-21.51"/>
<polygon fill="black" stroke="black" points="181.3,-25.02 190.98,-20.72 180.73,-18.04 181.3,-25.02"/>
<text text-anchor="middle" x="155.54" y="-28.14" font-family="Times,serif" font-size="14.00">a</text>
</g>
<!-- s4&#45;&gt;s1 -->
<g id="edge18" class="edge">
<title>s4&#45;&gt;s1</title>
<path fill="none" stroke="black" d="M230.41,-24.93C239.38,-28.81 249.62,-34.83 255.61,-43.61 281.7,-81.87 291.25,-217.87 294.37,-282.51"/>
<polygon fill="black" stroke="black" points="290.86,-282.36 294.81,-292.19 297.85,-282.05 290.86,-282.36"/>
<text text-anchor="middle" x="252.24" y="-46.81" font-family="Times,serif" font-size="14.00">λ</text>
</g>
</g>
</svg>
