<?xml version="1.0" encoding="UTF-8" standalone="no"?>
<!DOCTYPE svg PUBLIC "-//W3C//DTD SVG 1.1//EN"
 "http://www.w3.org/Graphics/SVG/1.1/DTD/svg11.dtd">
<!-- Generated by graphviz version 2.38.0 (20140413.2041)
 -->
<!-- Title: finite_state_machine Pages: 1 -->
<svg width="443pt" height="52pt"
 viewBox="0.00 0.00 443.07 52.00" xmlns="http://www.w3.org/2000/svg" xmlns:xlink="http://www.w3.org/1999/xlink">
<g id="graph0" class="graph" transform="scale(1 1) rotate(0) translate(4 48)">
<title>finite_state_machine</title>
<polygon fill="white" stroke="none" points="-4,4 -4,-48 439.069,-48 439.069,4 -4,4"/>
<!-- s5 -->
<g id="node1" class="node"><title>s5</title>
<ellipse fill="none" stroke="black" cx="413.069" cy="-22" rx="18" ry="18"/>
<ellipse fill="none" stroke="black" cx="413.069" cy="-22" rx="22" ry="22"/>
<text text-anchor="middle" x="413.069" y="-17.8" font-family="Times,serif" font-size="14.00">s5</text>
</g>
<!-- s0 -->
<g id="node2" class="node"><title>s0</title>
<ellipse fill="none" stroke="black" cx="18" cy="-22" rx="18" ry="18"/>
<text text-anchor="middle" x="18" y="-17.8" font-family="Times,serif" font-size="14.00">s0</text>
</g>
<!-- s1 -->
<g id="node3" class="node"><title>s1</title>
<ellipse fill="none" stroke="black" cx="96.2139" cy="-22" rx="18" ry="18"/>
<text text-anchor="middle" x="96.2139" y="-17.8" font-family="Times,serif" font-size="14.00">s1</text>
</g>
<!-- s0&#45;&gt;s1 -->
<g id="edge1" class="edge"><title>s0&#45;&gt;s1</title>
<path fill="none" stroke="black" d="M36.2941,-22C45.6488,-22 57.4172,-22 67.9721,-22"/>
<polygon fill="black" stroke="black" points="67.9882,-25.5001 77.9882,-22 67.9882,-18.5001 67.9882,-25.5001"/>
<text text-anchor="middle" x="57.1069" y="-24.8" font-family="Times,serif" font-size="14.00">a</text>
</g>
<!-- s2 -->
<g id="node4" class="node"><title>s2</title>
<ellipse fill="none" stroke="black" cx="174.428" cy="-22" rx="18" ry="18"/>
<text text-anchor="middle" x="174.428" y="-17.8" font-family="Times,serif" font-size="14.00">s2</text>
</g>
<!-- s1&#45;&gt;s2 -->
<g id="edge2" class="edge"><title>s1&#45;&gt;s2</title>
<path fill="none" stroke="black" d="M114.508,-22C123.863,-22 135.631,-22 146.186,-22"/>
<polygon fill="black" stroke="black" points="146.202,-25.5001 156.202,-22 146.202,-18.5001 146.202,-25.5001"/>
<text text-anchor="middle" x="135.321" y="-24.8" font-family="Times,serif" font-size="14.00">a</text>
</g>
<!-- s3 -->
<g id="node5" class="node"><title>s3</title>
<ellipse fill="none" stroke="black" cx="252.642" cy="-22" rx="18" ry="18"/>
<text text-anchor="middle" x="252.642" y="-17.8" font-family="Times,serif" font-size="14.00">s3</text>
</g>
<!-- s2&#45;&gt;s3 -->
<g id="edge3" class="edge"><title>s2&#45;&gt;s3</title>
<path fill="none" stroke="black" d="M192.722,-22C202.076,-22 213.845,-22 224.4,-22"/>
<polygon fill="black" stroke="black" points="224.416,-25.5001 234.416,-22 224.416,-18.5001 224.416,-25.5001"/>
<text text-anchor="middle" x="213.535" y="-24.8" font-family="Times,serif" font-size="14.00">τ</text>
</g>
<!-- s4 -->
<g id="node6" class="node"><title>s4</title>
<ellipse fill="none" stroke="black" cx="330.855" cy="-22" rx="18" ry="18"/>
<text text-anchor="middle" x="330.855" y="-17.8" font-family="Times,serif" font-size="14.00">s4</text>
</g>
<!-- s3&#45;&gt;s4 -->
<g id="edge4" class="edge"><title>s3&#45;&gt;s4</title>
<path fill="none" stroke="black" d="M270.936,-22C280.29,-22 292.059,-22 302.614,-22"/>
<polygon fill="black" stroke="black" points="302.63,-25.5001 312.63,-22 302.63,-18.5001 302.63,-25.5001"/>
<text text-anchor="middle" x="291.749" y="-24.8" font-family="Times,serif" font-size="14.00">c</text>
</g>
<!-- s4&#45;&gt;s5 -->
<g id="edge5" class="edge"><title>s4&#45;&gt;s5</title>
<path fill="none" stroke="black" d="M348.867,-22C358.137,-22 369.904,-22 380.766,-22"/>
<polygon fill="black" stroke="black" points="380.791,-25.5001 390.791,-22 380.791,-18.5001 380.791,-25.5001"/>
<text text-anchor="middle" x="369.962" y="-24.8" font-family="Times,serif" font-size="14.00">c</text>
</g>
</g>
</svg>
