<?xml version="1.0" encoding="UTF-8" standalone="no"?>
<!DOCTYPE svg PUBLIC "-//W3C//DTD SVG 1.1//EN"
 "http://www.w3.org/Graphics/SVG/1.1/DTD/svg11.dtd">
<!-- Generated by graphviz version 12.2.1 (20241206.2353)
 -->
<!-- Title: finite_state_machine Pages: 1 -->
<svg width="97pt" height="360pt"
 viewBox="0.00 0.00 96.61 360.00" xmlns="http://www.w3.org/2000/svg" xmlns:xlink="http://www.w3.org/1999/xlink">
<g id="graph0" class="graph" transform="scale(0.448506 0.448506) rotate(0) translate(4 798.67)">
<title>finite_state_machine</title>
<polygon fill="white" stroke="none" points="-4,4 -4,-798.67 211.4,-798.67 211.4,4 -4,4"/>
<text text-anchor="middle" x="103.7" y="-23.7" font-family="Times,serif" font-size="14.00">Regular Expression: </text>
<text text-anchor="middle" x="103.7" y="-7.2" font-family="Times,serif" font-size="14.00">xyzzy401</text>
<!-- s1 -->
<g id="node1" class="node">
<title>s1</title>
<ellipse fill="none" stroke="black" cx="184.29" cy="-433.11" rx="19.11" ry="19.11"/>
<ellipse fill="none" stroke="black" cx="184.29" cy="-433.11" rx="23.11" ry="23.11"/>
<text text-anchor="middle" x="184.29" y="-428.06" font-family="Times,serif" font-size="14.00">s1</text>
</g>
<!-- s0 -->
<g id="node2" class="node">
<title>s0</title>
<ellipse fill="none" stroke="black" cx="19.11" cy="-433.11" rx="19.11" ry="19.11"/>
<text text-anchor="middle" x="19.11" y="-428.06" font-family="Times,serif" font-size="14.00">s0</text>
</g>
<!-- s0&#45;&gt;s1 -->
<g id="edge1" class="edge">
<title>s0&#45;&gt;s1</title>
<path fill="none" stroke="black" d="M20.96,-452.2C24.11,-519.21 36.01,-741 56.22,-765.11 63.35,-773.62 69.22,-770.54 80.22,-772.11 108.09,-776.09 124.88,-786.5 143.18,-765.11 180.89,-721.03 184.17,-543.51 183.79,-467.7"/>
<polygon fill="black" stroke="black" points="187.29,-467.93 183.71,-457.96 180.29,-467.98 187.29,-467.93"/>
<text text-anchor="middle" x="99.32" y="-781.37" font-family="Times,serif" font-size="14.00">λ</text>
</g>
<!-- s0&#45;&gt;s1 -->
<g id="edge2" class="edge">
<title>s0&#45;&gt;s1</title>
<path fill="none" stroke="black" d="M19.96,-452.31C19.91,-508.81 22.71,-672.96 56.22,-712.11 63.44,-720.55 69.22,-717.54 80.22,-719.11 108.09,-723.09 124.64,-733.3 143.18,-712.11 174.5,-676.33 181.38,-534.1 182.88,-467.65"/>
<polygon fill="black" stroke="black" points="186.37,-468.12 183.06,-458.05 179.37,-467.98 186.37,-468.12"/>
<text text-anchor="middle" x="99.32" y="-728.28" font-family="Times,serif" font-size="14.00">λ</text>
</g>
<!-- s0&#45;&gt;s1 -->
<g id="edge3" class="edge">
<title>s0&#45;&gt;s1</title>
<path fill="none" stroke="black" d="M20.62,-452.45C22.29,-501.4 29.21,-628.49 56.22,-659.11 63.56,-667.44 69.22,-664.54 80.22,-666.11 108.09,-670.09 124.29,-679.99 143.18,-659.11 168.14,-631.52 178.03,-523.95 181.55,-467.74"/>
<polygon fill="black" stroke="black" points="185.02,-468.28 182.12,-458.09 178.04,-467.86 185.02,-468.28"/>
<text text-anchor="middle" x="99.32" y="-675.16" font-family="Times,serif" font-size="14.00">λ</text>
</g>
<!-- s0&#45;&gt;s1 -->
<g id="edge4" class="edge">
<title>s0&#45;&gt;s1</title>
<path fill="none" stroke="black" d="M21.65,-452.29C25.27,-492.51 35.59,-583.81 56.22,-606.11 63.76,-614.26 69.22,-611.54 80.22,-613.11 108.09,-617.09 123.75,-626.49 143.18,-606.11 161.88,-586.49 173.81,-512.24 179.45,-467.64"/>
<polygon fill="black" stroke="black" points="182.89,-468.3 180.63,-457.95 175.95,-467.46 182.89,-468.3"/>
<text text-anchor="middle" x="99.32" y="-621.96" font-family="Times,serif" font-size="14.00">λ</text>
</g>
<!-- s0&#45;&gt;s1 -->
<g id="edge5" class="edge">
<title>s0&#45;&gt;s1</title>
<path fill="none" stroke="black" d="M20.49,-452.59C22.08,-479.01 28.87,-525.99 56.22,-553.11 64.11,-560.93 69.22,-558.54 80.22,-560.11 108.09,-564.09 122.81,-572.54 143.18,-553.11 166.58,-530.78 176.33,-494.45 180.39,-467.61"/>
<polygon fill="black" stroke="black" points="183.83,-468.25 181.65,-457.89 176.89,-467.35 183.83,-468.25"/>
<text text-anchor="middle" x="99.32" y="-568.6" font-family="Times,serif" font-size="14.00">λ</text>
</g>
<!-- s0&#45;&gt;s1 -->
<g id="edge6" class="edge">
<title>s0&#45;&gt;s1</title>
<path fill="none" stroke="black" d="M25.52,-451.34C30.93,-466.5 40.7,-487.56 56.22,-500.11 64.85,-507.1 69.22,-505.54 80.22,-507.11 108.09,-511.09 120.82,-517.23 143.18,-500.11 154.95,-491.09 163.99,-477.55 170.47,-465"/>
<polygon fill="black" stroke="black" points="173.54,-466.7 174.68,-456.17 167.22,-463.69 173.54,-466.7"/>
<text text-anchor="middle" x="99.32" y="-514.72" font-family="Times,serif" font-size="14.00">λ</text>
</g>
<!-- s0&#45;&gt;s1 -->
<g id="edge7" class="edge">
<title>s0&#45;&gt;s1</title>
<path fill="none" stroke="black" d="M37.02,-441C48.83,-446.02 65.11,-451.95 80.22,-454.11 108.09,-458.09 116.33,-455.58 143.18,-447.11 145.89,-446.25 148.69,-445.34 151.49,-444.4"/>
<polygon fill="black" stroke="black" points="152.38,-447.8 160.7,-441.25 150.11,-441.18 152.38,-447.8"/>
<text text-anchor="middle" x="99.32" y="-459.16" font-family="Times,serif" font-size="14.00">λ</text>
</g>
<!-- s0&#45;&gt;s1 -->
<g id="edge8" class="edge">
<title>s0&#45;&gt;s1</title>
<path fill="none" stroke="black" d="M38.51,-433.11C65.43,-433.11 115.98,-433.11 149.65,-433.11"/>
<polygon fill="black" stroke="black" points="149.28,-436.61 159.28,-433.11 149.28,-429.61 149.28,-436.61"/>
<text text-anchor="middle" x="99.32" y="-436.31" font-family="Times,serif" font-size="14.00">λ</text>
</g>
<!-- s0&#45;&gt;s1 -->
<g id="edge10" class="edge">
<title>s0&#45;&gt;s1</title>
<path fill="none" stroke="black" d="M37.08,-425.64C48.91,-420.86 65.2,-415.1 80.22,-412.61 96.97,-409.83 101.64,-410.02 118.43,-412.61 129.49,-414.31 141.24,-417.56 151.66,-420.98"/>
<polygon fill="black" stroke="black" points="150.33,-424.22 160.92,-424.2 152.63,-417.61 150.33,-424.22"/>
<text text-anchor="middle" x="99.32" y="-415.81" font-family="Times,serif" font-size="14.00">λ</text>
</g>
<!-- s0&#45;&gt;s1 -->
<g id="edge11" class="edge">
<title>s0&#45;&gt;s1</title>
<path fill="none" stroke="black" d="M33.03,-419.97C44.36,-409.47 61.83,-395.56 80.22,-389.61 96.37,-384.37 102.18,-384.66 118.43,-389.61 132.62,-393.92 146.52,-402.49 157.79,-410.89"/>
<polygon fill="black" stroke="black" points="155.38,-413.45 165.4,-416.88 159.7,-407.94 155.38,-413.45"/>
<text text-anchor="middle" x="99.32" y="-392.81" font-family="Times,serif" font-size="14.00">λ</text>
</g>
<!-- s0&#45;&gt;s1 -->
<g id="edge12" class="edge">
<title>s0&#45;&gt;s1</title>
<path fill="none" stroke="black" d="M29.27,-416.39C39.33,-399.98 57.16,-375.95 80.22,-365.61 95.71,-358.66 102.8,-358.95 118.43,-365.61 137.07,-373.55 152.94,-389.77 164.32,-404.32"/>
<polygon fill="black" stroke="black" points="161.47,-406.35 170.23,-412.31 167.1,-402.19 161.47,-406.35"/>
<text text-anchor="middle" x="99.32" y="-368.81" font-family="Times,serif" font-size="14.00">λ</text>
</g>
<!-- s0&#45;&gt;s1 -->
<g id="edge13" class="edge">
<title>s0&#45;&gt;s1</title>
<path fill="none" stroke="black" d="M25.6,-414.81C33.51,-392.2 50.52,-354.86 80.22,-339.61 95.32,-331.85 103.21,-332.07 118.43,-339.61 143.53,-352.04 160.72,-379.39 171.07,-401.31"/>
<polygon fill="black" stroke="black" points="167.74,-402.44 174.99,-410.16 174.14,-399.6 167.74,-402.44"/>
<text text-anchor="middle" x="99.32" y="-342.81" font-family="Times,serif" font-size="14.00">λ</text>
</g>
<!-- s0&#45;&gt;s1 -->
<g id="edge14" class="edge">
<title>s0&#45;&gt;s1</title>
<path fill="none" stroke="black" d="M22.91,-413.89C28.25,-385.47 42.89,-333.43 80.22,-313.61 95.22,-305.64 103.32,-305.85 118.43,-313.61 150.78,-330.21 167.68,-370.11 176.01,-399.25"/>
<polygon fill="black" stroke="black" points="172.58,-399.96 178.51,-408.74 179.35,-398.18 172.58,-399.96"/>
<text text-anchor="middle" x="99.32" y="-316.81" font-family="Times,serif" font-size="14.00">λ</text>
</g>
<!-- s0&#45;&gt;s1 -->
<g id="edge15" class="edge">
<title>s0&#45;&gt;s1</title>
<path fill="none" stroke="black" d="M20.94,-413.73C23.6,-380.11 34.63,-312.19 80.22,-287.61 95.16,-279.55 103.42,-279.65 118.43,-287.61 158.67,-308.94 173.98,-363.03 179.78,-398.91"/>
<polygon fill="black" stroke="black" points="176.25,-398.96 181.13,-408.36 183.18,-397.97 176.25,-398.96"/>
<text text-anchor="middle" x="99.32" y="-290.81" font-family="Times,serif" font-size="14.00">λ</text>
</g>
<!-- s2 -->
<g id="node3" class="node">
<title>s2</title>
<ellipse fill="none" stroke="black" cx="99.32" cy="-60.11" rx="19.11" ry="19.11"/>
<text text-anchor="middle" x="99.32" y="-55.06" font-family="Times,serif" font-size="14.00">s2</text>
</g>
<!-- s0&#45;&gt;s2 -->
<g id="edge9" class="edge">
<title>s0&#45;&gt;s2</title>
<path fill="none" stroke="black" d="M19.86,-413.83C19.38,-348.98 20.65,-139.66 56.22,-84.61 59.77,-79.1 65.03,-74.68 70.64,-71.2"/>
<polygon fill="black" stroke="black" points="72.22,-74.32 79.48,-66.6 68.99,-68.11 72.22,-74.32"/>
<text text-anchor="middle" x="59.22" y="-87.81" font-family="Times,serif" font-size="14.00">a</text>
</g>
<!-- s2&#45;&gt;s1 -->
<g id="edge16" class="edge">
<title>s2&#45;&gt;s1</title>
<path fill="none" stroke="black" d="M117.65,-65.67C126.76,-69.52 137.23,-75.59 143.18,-84.61 176.83,-135.63 182.37,-320.84 183.19,-398.49"/>
<polygon fill="black" stroke="black" points="179.69,-398.08 183.27,-408.05 186.69,-398.02 179.69,-398.08"/>
<text text-anchor="middle" x="139.81" y="-87.81" font-family="Times,serif" font-size="14.00">λ</text>
</g>
</g>
</svg>
