<?xml version="1.0" encoding="UTF-8" standalone="no"?>
<!DOCTYPE svg PUBLIC "-//W3C//DTD SVG 1.1//EN"
 "http://www.w3.org/Graphics/SVG/1.1/DTD/svg11.dtd">
<!-- Generated by graphviz version 12.2.1 (20241206.2353)
 -->
<!-- Title: finite_state_machine Pages: 1 -->
<svg width="576pt" height="65pt"
 viewBox="0.00 0.00 576.00 64.94" xmlns="http://www.w3.org/2000/svg" xmlns:xlink="http://www.w3.org/1999/xlink">
<g id="graph0" class="graph" transform="scale(0.824996 0.824996) rotate(0) translate(4 74.72)">
<title>finite_state_machine</title>
<polygon fill="white" stroke="none" points="-4,4 -4,-74.72 694.19,-74.72 694.19,4 -4,4"/>
<text text-anchor="middle" x="345.09" y="-7.2" font-family="Times,serif" font-size="14.00">Regular Expression: xyzzy401</text>
<!-- s8 -->
<g id="node1" class="node">
<title>s8</title>
<ellipse fill="none" stroke="black" cx="667.08" cy="-47.61" rx="19.11" ry="19.11"/>
<ellipse fill="none" stroke="black" cx="667.08" cy="-47.61" rx="23.11" ry="23.11"/>
<text text-anchor="middle" x="667.08" y="-42.56" font-family="Times,serif" font-size="14.00">s8</text>
</g>
<!-- s0 -->
<g id="node2" class="node">
<title>s0</title>
<ellipse fill="none" stroke="black" cx="19.11" cy="-47.61" rx="19.11" ry="19.11"/>
<text text-anchor="middle" x="19.11" y="-42.56" font-family="Times,serif" font-size="14.00">s0</text>
</g>
<!-- s1 -->
<g id="node3" class="node">
<title>s1</title>
<ellipse fill="none" stroke="black" cx="99.32" cy="-47.61" rx="19.11" ry="19.11"/>
<text text-anchor="middle" x="99.32" y="-42.56" font-family="Times,serif" font-size="14.00">s1</text>
</g>
<!-- s0&#45;&gt;s1 -->
<g id="edge1" class="edge">
<title>s0&#45;&gt;s1</title>
<path fill="none" stroke="black" d="M38.64,-47.61C47.6,-47.61 58.58,-47.61 68.67,-47.61"/>
<polygon fill="black" stroke="black" points="68.41,-51.11 78.41,-47.61 68.41,-44.11 68.41,-51.11"/>
<text text-anchor="middle" x="59.22" y="-50.81" font-family="Times,serif" font-size="14.00">a</text>
</g>
<!-- s2 -->
<g id="node4" class="node">
<title>s2</title>
<ellipse fill="none" stroke="black" cx="179.54" cy="-47.61" rx="19.11" ry="19.11"/>
<text text-anchor="middle" x="179.54" y="-42.56" font-family="Times,serif" font-size="14.00">s2</text>
</g>
<!-- s1&#45;&gt;s2 -->
<g id="edge2" class="edge">
<title>s1&#45;&gt;s2</title>
<path fill="none" stroke="black" d="M118.86,-47.61C127.82,-47.61 138.8,-47.61 148.88,-47.61"/>
<polygon fill="black" stroke="black" points="148.62,-51.11 158.62,-47.61 148.62,-44.11 148.62,-51.11"/>
<text text-anchor="middle" x="139.43" y="-50.81" font-family="Times,serif" font-size="14.00">a</text>
</g>
<!-- s3 -->
<g id="node5" class="node">
<title>s3</title>
<ellipse fill="none" stroke="black" cx="260.5" cy="-47.61" rx="19.11" ry="19.11"/>
<text text-anchor="middle" x="260.5" y="-42.56" font-family="Times,serif" font-size="14.00">s3</text>
</g>
<!-- s2&#45;&gt;s3 -->
<g id="edge3" class="edge">
<title>s2&#45;&gt;s3</title>
<path fill="none" stroke="black" d="M198.85,-47.61C207.96,-47.61 219.19,-47.61 229.51,-47.61"/>
<polygon fill="black" stroke="black" points="229.5,-51.11 239.5,-47.61 229.5,-44.11 229.5,-51.11"/>
<text text-anchor="middle" x="220.02" y="-50.81" font-family="Times,serif" font-size="14.00">b</text>
</g>
<!-- s2&#45;&gt;s3 -->
<g id="edge4" class="edge">
<title>s2&#45;&gt;s3</title>
<path fill="none" stroke="black" d="M195.59,-36.75C201.8,-32.91 209.26,-29.06 216.65,-27.11 223.18,-25.38 229.93,-26.86 236.08,-29.68"/>
<polygon fill="black" stroke="black" points="234.03,-32.53 244.42,-34.57 237.57,-26.49 234.03,-32.53"/>
<text text-anchor="middle" x="220.02" y="-30.31" font-family="Times,serif" font-size="14.00">λ</text>
</g>
<!-- s4 -->
<g id="node6" class="node">
<title>s4</title>
<ellipse fill="none" stroke="black" cx="341.47" cy="-47.61" rx="19.11" ry="19.11"/>
<text text-anchor="middle" x="341.47" y="-42.56" font-family="Times,serif" font-size="14.00">s4</text>
</g>
<!-- s3&#45;&gt;s4 -->
<g id="edge5" class="edge">
<title>s3&#45;&gt;s4</title>
<path fill="none" stroke="black" d="M279.82,-47.61C288.92,-47.61 300.16,-47.61 310.47,-47.61"/>
<polygon fill="black" stroke="black" points="310.47,-51.11 320.47,-47.61 310.47,-44.11 310.47,-51.11"/>
<text text-anchor="middle" x="300.99" y="-50.81" font-family="Times,serif" font-size="14.00">b</text>
</g>
<!-- s3&#45;&gt;s4 -->
<g id="edge6" class="edge">
<title>s3&#45;&gt;s4</title>
<path fill="none" stroke="black" d="M276.56,-36.75C282.76,-32.91 290.22,-29.06 297.61,-27.11 304.15,-25.38 310.9,-26.86 317.05,-29.68"/>
<polygon fill="black" stroke="black" points="314.99,-32.53 325.39,-34.57 318.53,-26.49 314.99,-32.53"/>
<text text-anchor="middle" x="300.99" y="-30.31" font-family="Times,serif" font-size="14.00">λ</text>
</g>
<!-- s5 -->
<g id="node7" class="node">
<title>s5</title>
<ellipse fill="none" stroke="black" cx="422.43" cy="-47.61" rx="19.11" ry="19.11"/>
<text text-anchor="middle" x="422.43" y="-42.56" font-family="Times,serif" font-size="14.00">s5</text>
</g>
<!-- s4&#45;&gt;s5 -->
<g id="edge7" class="edge">
<title>s4&#45;&gt;s5</title>
<path fill="none" stroke="black" d="M360.78,-47.61C369.89,-47.61 381.12,-47.61 391.44,-47.61"/>
<polygon fill="black" stroke="black" points="391.43,-51.11 401.43,-47.61 391.43,-44.11 391.43,-51.11"/>
<text text-anchor="middle" x="381.95" y="-50.81" font-family="Times,serif" font-size="14.00">b</text>
</g>
<!-- s4&#45;&gt;s5 -->
<g id="edge8" class="edge">
<title>s4&#45;&gt;s5</title>
<path fill="none" stroke="black" d="M357.52,-36.75C363.73,-32.91 371.19,-29.06 378.58,-27.11 385.11,-25.38 391.86,-26.86 398.01,-29.68"/>
<polygon fill="black" stroke="black" points="395.96,-32.53 406.35,-34.57 399.5,-26.49 395.96,-32.53"/>
<text text-anchor="middle" x="381.95" y="-30.31" font-family="Times,serif" font-size="14.00">λ</text>
</g>
<!-- s6 -->
<g id="node8" class="node">
<title>s6</title>
<ellipse fill="none" stroke="black" cx="502.65" cy="-47.61" rx="19.11" ry="19.11"/>
<text text-anchor="middle" x="502.65" y="-42.56" font-family="Times,serif" font-size="14.00">s6</text>
</g>
<!-- s5&#45;&gt;s6 -->
<g id="edge9" class="edge">
<title>s5&#45;&gt;s6</title>
<path fill="none" stroke="black" d="M441.97,-47.61C450.93,-47.61 461.91,-47.61 471.99,-47.61"/>
<polygon fill="black" stroke="black" points="471.73,-51.11 481.73,-47.61 471.73,-44.11 471.73,-51.11"/>
<text text-anchor="middle" x="462.54" y="-50.81" font-family="Times,serif" font-size="14.00">τ</text>
</g>
<!-- s7 -->
<g id="node9" class="node">
<title>s7</title>
<ellipse fill="none" stroke="black" cx="582.86" cy="-47.61" rx="19.11" ry="19.11"/>
<text text-anchor="middle" x="582.86" y="-42.56" font-family="Times,serif" font-size="14.00">s7</text>
</g>
<!-- s6&#45;&gt;s7 -->
<g id="edge10" class="edge">
<title>s6&#45;&gt;s7</title>
<path fill="none" stroke="black" d="M522.18,-47.61C531.14,-47.61 542.12,-47.61 552.21,-47.61"/>
<polygon fill="black" stroke="black" points="551.95,-51.11 561.95,-47.61 551.95,-44.11 551.95,-51.11"/>
<text text-anchor="middle" x="542.76" y="-50.81" font-family="Times,serif" font-size="14.00">c</text>
</g>
<!-- s7&#45;&gt;s8 -->
<g id="edge11" class="edge">
<title>s7&#45;&gt;s8</title>
<path fill="none" stroke="black" d="M602.11,-47.61C610.98,-47.61 621.93,-47.61 632.24,-47.61"/>
<polygon fill="black" stroke="black" points="631.97,-51.11 641.97,-47.61 631.97,-44.11 631.97,-51.11"/>
<text text-anchor="middle" x="622.97" y="-50.81" font-family="Times,serif" font-size="14.00">c</text>
</g>
</g>
</svg>
