<?xml version="1.0" encoding="UTF-8" standalone="no"?>
<!DOCTYPE svg PUBLIC "-//W3C//DTD SVG 1.1//EN"
 "http://www.w3.org/Graphics/SVG/1.1/DTD/svg11.dtd">
<!-- Generated by graphviz version 12.2.1 (20241206.2353)
 -->
<!-- Title: finite_state_machine Pages: 1 -->
<svg width="216pt" height="204pt"
 viewBox="0.00 0.00 216.15 204.22" xmlns="http://www.w3.org/2000/svg" xmlns:xlink="http://www.w3.org/1999/xlink">
<g id="graph0" class="graph" transform="scale(1 1) rotate(0) translate(4 200.22)">
<title>finite_state_machine</title>
<polygon fill="white" stroke="none" points="-4,4 -4,-200.22 212.15,-200.22 212.15,4 -4,4"/>
<text text-anchor="middle" x="104.07" y="-23.7" font-family="Times,serif" font-size="14.00">Regular Expression: </text>
<text text-anchor="middle" x="104.07" y="-7.2" font-family="Times,serif" font-size="14.00">xyzzy401</text>
<!-- s3 -->
<g id="node1" class="node">
<title>s3</title>
<ellipse fill="none" stroke="black" cx="104.07" cy="-64.11" rx="19.11" ry="19.11"/>
<ellipse fill="none" stroke="black" cx="104.07" cy="-64.11" rx="23.11" ry="23.11"/>
<text text-anchor="middle" x="104.07" y="-59.06" font-family="Times,serif" font-size="14.00">s3</text>
</g>
<!-- s0 -->
<g id="node2" class="node">
<title>s0</title>
<ellipse fill="none" stroke="black" cx="104.07" cy="-177.11" rx="19.11" ry="19.11"/>
<text text-anchor="middle" x="104.07" y="-172.06" font-family="Times,serif" font-size="14.00">s0</text>
</g>
<!-- s1 -->
<g id="node3" class="node">
<title>s1</title>
<ellipse fill="none" stroke="black" cx="189.04" cy="-139.11" rx="19.11" ry="19.11"/>
<text text-anchor="middle" x="189.04" y="-134.06" font-family="Times,serif" font-size="14.00">s1</text>
</g>
<!-- s0&#45;&gt;s1 -->
<g id="edge1" class="edge">
<title>s0&#45;&gt;s1</title>
<path fill="none" stroke="black" d="M121.86,-169.42C133.11,-164.27 148.16,-157.37 161.07,-151.46"/>
<polygon fill="black" stroke="black" points="162.26,-154.76 169.9,-147.42 159.35,-148.4 162.26,-154.76"/>
<text text-anchor="middle" x="148.56" y="-161.31" font-family="Times,serif" font-size="14.00">x</text>
</g>
<!-- s2 -->
<g id="node4" class="node">
<title>s2</title>
<ellipse fill="none" stroke="black" cx="19.11" cy="-139.11" rx="19.11" ry="19.11"/>
<text text-anchor="middle" x="19.11" y="-134.06" font-family="Times,serif" font-size="14.00">s2</text>
</g>
<!-- s0&#45;&gt;s2 -->
<g id="edge2" class="edge">
<title>s0&#45;&gt;s2</title>
<path fill="none" stroke="black" d="M86.37,-168.78C79.2,-165.26 70.71,-161.16 62.97,-157.61 57.98,-155.32 52.63,-152.95 47.47,-150.7"/>
<polygon fill="black" stroke="black" points="49.25,-147.65 38.68,-146.91 46.48,-154.08 49.25,-147.65"/>
<text text-anchor="middle" x="59.59" y="-160.81" font-family="Times,serif" font-size="14.00">λ</text>
</g>
<!-- s1&#45;&gt;s2 -->
<g id="edge3" class="edge">
<title>s1&#45;&gt;s2</title>
<path fill="none" stroke="black" d="M169.7,-136.64C157.64,-135.14 141.5,-133.37 127.18,-132.61 106.67,-131.52 101.48,-131.52 80.97,-132.61 70.78,-133.15 59.68,-134.2 49.78,-135.3"/>
<polygon fill="black" stroke="black" points="49.47,-131.81 39.95,-136.46 50.29,-138.76 49.47,-131.81"/>
<text text-anchor="middle" x="104.07" y="-135.81" font-family="Times,serif" font-size="14.00">x</text>
</g>
<!-- s2&#45;&gt;s3 -->
<g id="edge5" class="edge">
<title>s2&#45;&gt;s3</title>
<path fill="none" stroke="black" d="M30.23,-123.27C36.86,-113.67 46.15,-101.59 56.22,-92.61 61.31,-88.06 67.23,-83.82 73.12,-80.08"/>
<polygon fill="black" stroke="black" points="74.74,-83.19 81.53,-75.05 71.15,-77.18 74.74,-83.19"/>
<text text-anchor="middle" x="59.59" y="-95.81" font-family="Times,serif" font-size="14.00">τ</text>
</g>
<!-- s2&#45;&gt;s0 -->
<g id="edge4" class="edge">
<title>s2&#45;&gt;s0</title>
<path fill="none" stroke="black" d="M31.42,-154.29C37.82,-161.64 46.48,-169.79 56.22,-174.11 61.44,-176.42 67.31,-177.69 73.09,-178.32"/>
<polygon fill="black" stroke="black" points="72.91,-181.81 83.06,-178.76 73.22,-174.82 72.91,-181.81"/>
<text text-anchor="middle" x="59.59" y="-179.44" font-family="Times,serif" font-size="14.00">λ</text>
</g>
</g>
</svg>
