<?xml version="1.0" encoding="UTF-8" standalone="no"?>
<!DOCTYPE svg PUBLIC "-//W3C//DTD SVG 1.1//EN"
 "http://www.w3.org/Graphics/SVG/1.1/DTD/svg11.dtd">
<!-- Generated by graphviz version 12.2.1 (20241206.2353)
 -->
<!-- Title: finite_state_machine Pages: 1 -->
<svg width="297pt" height="143pt"
 viewBox="0.00 0.00 297.11 143.22" xmlns="http://www.w3.org/2000/svg" xmlns:xlink="http://www.w3.org/1999/xlink">
<g id="graph0" class="graph" transform="scale(1 1) rotate(0) translate(4 139.22)">
<title>finite_state_machine</title>
<polygon fill="white" stroke="none" points="-4,4 -4,-139.22 293.11,-139.22 293.11,4 -4,4"/>
<text text-anchor="middle" x="144.56" y="-23.7" font-family="Times,serif" font-size="14.00">Regular Expression: </text>
<text text-anchor="middle" x="144.56" y="-7.2" font-family="Times,serif" font-size="14.00">xyzzy401</text>
<!-- s1 -->
<g id="node1" class="node">
<title>s1</title>
<ellipse fill="none" stroke="black" cx="266" cy="-90.11" rx="19.11" ry="19.11"/>
<ellipse fill="none" stroke="black" cx="266" cy="-90.11" rx="23.11" ry="23.11"/>
<text text-anchor="middle" x="266" y="-85.06" font-family="Times,serif" font-size="14.00">s1</text>
</g>
<!-- s0 -->
<g id="node2" class="node">
<title>s0</title>
<ellipse fill="none" stroke="black" cx="19.11" cy="-88.11" rx="19.11" ry="19.11"/>
<text text-anchor="middle" x="19.11" y="-83.06" font-family="Times,serif" font-size="14.00">s0</text>
</g>
<!-- s2 -->
<g id="node3" class="node">
<title>s2</title>
<ellipse fill="none" stroke="black" cx="100.07" cy="-116.11" rx="19.11" ry="19.11"/>
<text text-anchor="middle" x="100.07" y="-111.06" font-family="Times,serif" font-size="14.00">s2</text>
</g>
<!-- s0&#45;&gt;s2 -->
<g id="edge1" class="edge">
<title>s0&#45;&gt;s2</title>
<path fill="none" stroke="black" d="M37.63,-94.32C47.45,-97.8 59.92,-102.22 71.05,-106.17"/>
<polygon fill="black" stroke="black" points="69.58,-109.36 80.17,-109.4 71.91,-102.76 69.58,-109.36"/>
<text text-anchor="middle" x="59.59" y="-106.15" font-family="Times,serif" font-size="14.00">a</text>
</g>
<!-- s4 -->
<g id="node4" class="node">
<title>s4</title>
<ellipse fill="none" stroke="black" cx="100.07" cy="-60.11" rx="19.11" ry="19.11"/>
<text text-anchor="middle" x="100.07" y="-55.06" font-family="Times,serif" font-size="14.00">s4</text>
</g>
<!-- s0&#45;&gt;s4 -->
<g id="edge2" class="edge">
<title>s0&#45;&gt;s4</title>
<path fill="none" stroke="black" d="M37.63,-81.89C47.45,-78.41 59.92,-73.99 71.05,-70.04"/>
<polygon fill="black" stroke="black" points="71.91,-73.45 80.17,-66.81 69.58,-66.85 71.91,-73.45"/>
<text text-anchor="middle" x="59.59" y="-78.15" font-family="Times,serif" font-size="14.00">b</text>
</g>
<!-- s3 -->
<g id="node5" class="node">
<title>s3</title>
<ellipse fill="none" stroke="black" cx="181.04" cy="-116.11" rx="19.11" ry="19.11"/>
<text text-anchor="middle" x="181.04" y="-111.06" font-family="Times,serif" font-size="14.00">s3</text>
</g>
<!-- s2&#45;&gt;s3 -->
<g id="edge3" class="edge">
<title>s2&#45;&gt;s3</title>
<path fill="none" stroke="black" d="M119.39,-116.11C128.49,-116.11 139.73,-116.11 150.04,-116.11"/>
<polygon fill="black" stroke="black" points="150.04,-119.61 160.04,-116.11 150.04,-112.61 150.04,-119.61"/>
<text text-anchor="middle" x="140.56" y="-119.31" font-family="Times,serif" font-size="14.00">a</text>
</g>
<!-- s5 -->
<g id="node6" class="node">
<title>s5</title>
<ellipse fill="none" stroke="black" cx="181.04" cy="-60.11" rx="19.11" ry="19.11"/>
<text text-anchor="middle" x="181.04" y="-55.06" font-family="Times,serif" font-size="14.00">s5</text>
</g>
<!-- s4&#45;&gt;s5 -->
<g id="edge5" class="edge">
<title>s4&#45;&gt;s5</title>
<path fill="none" stroke="black" d="M119.39,-60.11C128.49,-60.11 139.73,-60.11 150.04,-60.11"/>
<polygon fill="black" stroke="black" points="150.04,-63.61 160.04,-60.11 150.04,-56.61 150.04,-63.61"/>
<text text-anchor="middle" x="140.56" y="-63.31" font-family="Times,serif" font-size="14.00">b</text>
</g>
<!-- s3&#45;&gt;s1 -->
<g id="edge4" class="edge">
<title>s3&#45;&gt;s1</title>
<path fill="none" stroke="black" d="M199.63,-110.59C209.26,-107.58 221.5,-103.74 232.78,-100.21"/>
<polygon fill="black" stroke="black" points="233.66,-103.6 242.16,-97.27 231.57,-96.92 233.66,-103.6"/>
<text text-anchor="middle" x="221.52" y="-107.86" font-family="Times,serif" font-size="14.00">λ</text>
</g>
<!-- s5&#45;&gt;s1 -->
<g id="edge6" class="edge">
<title>s5&#45;&gt;s1</title>
<path fill="none" stroke="black" d="M199.23,-66.32C209.01,-69.86 221.58,-74.41 233.1,-78.57"/>
<polygon fill="black" stroke="black" points="231.69,-81.78 242.28,-81.89 234.07,-75.2 231.69,-81.78"/>
<text text-anchor="middle" x="221.52" y="-78.31" font-family="Times,serif" font-size="14.00">λ</text>
</g>
</g>
</svg>
