<?xml version="1.0" encoding="UTF-8" standalone="no"?>
<!DOCTYPE svg PUBLIC "-//W3C//DTD SVG 1.1//EN"
 "http://www.w3.org/Graphics/SVG/1.1/DTD/svg11.dtd">
<!-- Generated by graphviz version 12.2.1 (20241206.2353)
 -->
<!-- Title: finite_state_machine Pages: 1 -->
<svg width="368pt" height="360pt"
 viewBox="0.00 0.00 367.70 360.00" xmlns="http://www.w3.org/2000/svg" xmlns:xlink="http://www.w3.org/1999/xlink">
<g id="graph0" class="graph" transform="scale(0.906313 0.906313) rotate(0) translate(4 393.21)">
<title>finite_state_machine</title>
<polygon fill="white" stroke="none" points="-4,4 -4,-393.21 401.71,-393.21 401.71,4 -4,4"/>
<text text-anchor="middle" x="198.86" y="-23.7" font-family="Times,serif" font-size="14.00">Regular Expression: </text>
<text text-anchor="middle" x="198.86" y="-7.2" font-family="Times,serif" font-size="14.00">xyzzy401</text>
<!-- s12 -->
<g id="node1" class="node">
<title>s12</title>
<ellipse fill="none" stroke="black" cx="370" cy="-68.71" rx="23.71" ry="23.71"/>
<ellipse fill="none" stroke="black" cx="370" cy="-68.71" rx="27.71" ry="27.71"/>
<text text-anchor="middle" x="370" y="-63.66" font-family="Times,serif" font-size="14.00">s12</text>
</g>
<!-- s0 -->
<g id="node2" class="node">
<title>s0</title>
<ellipse fill="none" stroke="black" cx="100.07" cy="-223.71" rx="19.11" ry="19.11"/>
<text text-anchor="middle" x="100.07" y="-218.66" font-family="Times,serif" font-size="14.00">s0</text>
</g>
<!-- s2 -->
<g id="node3" class="node">
<title>s2</title>
<ellipse fill="none" stroke="black" cx="185.64" cy="-279.71" rx="19.11" ry="19.11"/>
<text text-anchor="middle" x="185.64" y="-274.66" font-family="Times,serif" font-size="14.00">s2</text>
</g>
<!-- s0&#45;&gt;s2 -->
<g id="edge1" class="edge">
<title>s0&#45;&gt;s2</title>
<path fill="none" stroke="black" d="M116.4,-233.99C128.58,-242.14 145.84,-253.71 159.96,-263.17"/>
<polygon fill="black" stroke="black" points="157.62,-265.82 167.87,-268.48 161.51,-260 157.62,-265.82"/>
<text text-anchor="middle" x="140.56" y="-254.91" font-family="Times,serif" font-size="14.00">a</text>
</g>
<!-- s4 -->
<g id="node4" class="node">
<title>s4</title>
<ellipse fill="none" stroke="black" cx="185.64" cy="-167.71" rx="19.11" ry="19.11"/>
<text text-anchor="middle" x="185.64" y="-162.66" font-family="Times,serif" font-size="14.00">s4</text>
</g>
<!-- s0&#45;&gt;s4 -->
<g id="edge2" class="edge">
<title>s0&#45;&gt;s4</title>
<path fill="none" stroke="black" d="M116.4,-213.44C128.58,-205.28 145.84,-193.71 159.96,-184.25"/>
<polygon fill="black" stroke="black" points="161.51,-187.43 167.87,-178.95 157.62,-181.61 161.51,-187.43"/>
<text text-anchor="middle" x="140.56" y="-202.27" font-family="Times,serif" font-size="14.00">b</text>
</g>
<!-- s6 -->
<g id="node5" class="node">
<title>s6</title>
<ellipse fill="none" stroke="black" cx="185.64" cy="-223.71" rx="19.11" ry="19.11"/>
<text text-anchor="middle" x="185.64" y="-218.66" font-family="Times,serif" font-size="14.00">s6</text>
</g>
<!-- s0&#45;&gt;s6 -->
<g id="edge3" class="edge">
<title>s0&#45;&gt;s6</title>
<path fill="none" stroke="black" d="M119.62,-223.71C130.01,-223.71 143.2,-223.71 154.99,-223.71"/>
<polygon fill="black" stroke="black" points="154.63,-227.21 164.63,-223.71 154.63,-220.21 154.63,-227.21"/>
<text text-anchor="middle" x="140.56" y="-226.91" font-family="Times,serif" font-size="14.00">c</text>
</g>
<!-- s1 -->
<g id="node6" class="node">
<title>s1</title>
<ellipse fill="none" stroke="black" cx="19.11" cy="-223.71" rx="19.11" ry="19.11"/>
<text text-anchor="middle" x="19.11" y="-218.66" font-family="Times,serif" font-size="14.00">s1</text>
</g>
<!-- s0&#45;&gt;s1 -->
<g id="edge4" class="edge">
<title>s0&#45;&gt;s1</title>
<path fill="none" stroke="black" d="M84.43,-212.15C76.34,-207.12 65.98,-202.86 56.22,-205.21 52.77,-206.05 49.28,-207.27 45.89,-208.69"/>
<polygon fill="black" stroke="black" points="44.45,-205.5 37.01,-213.04 47.53,-211.79 44.45,-205.5"/>
<text text-anchor="middle" x="59.59" y="-208.41" font-family="Times,serif" font-size="14.00">λ</text>
</g>
<!-- s3 -->
<g id="node8" class="node">
<title>s3</title>
<ellipse fill="none" stroke="black" cx="275.82" cy="-302.71" rx="19.11" ry="19.11"/>
<text text-anchor="middle" x="275.82" y="-297.66" font-family="Times,serif" font-size="14.00">s3</text>
</g>
<!-- s2&#45;&gt;s3 -->
<g id="edge7" class="edge">
<title>s2&#45;&gt;s3</title>
<path fill="none" stroke="black" d="M204.49,-284.37C216.44,-287.49 232.44,-291.66 246.16,-295.24"/>
<polygon fill="black" stroke="black" points="244.98,-298.55 255.54,-297.68 246.75,-291.77 244.98,-298.55"/>
<text text-anchor="middle" x="230.73" y="-295.1" font-family="Times,serif" font-size="14.00">a</text>
</g>
<!-- s5 -->
<g id="node9" class="node">
<title>s5</title>
<ellipse fill="none" stroke="black" cx="275.82" cy="-145.71" rx="19.11" ry="19.11"/>
<text text-anchor="middle" x="275.82" y="-140.66" font-family="Times,serif" font-size="14.00">s5</text>
</g>
<!-- s4&#45;&gt;s5 -->
<g id="edge9" class="edge">
<title>s4&#45;&gt;s5</title>
<path fill="none" stroke="black" d="M204.49,-163.26C216.44,-160.28 232.44,-156.29 246.16,-152.87"/>
<polygon fill="black" stroke="black" points="246.68,-156.34 255.54,-150.53 244.99,-149.55 246.68,-156.34"/>
<text text-anchor="middle" x="230.73" y="-160.57" font-family="Times,serif" font-size="14.00">b</text>
</g>
<!-- s7 -->
<g id="node10" class="node">
<title>s7</title>
<ellipse fill="none" stroke="black" cx="275.82" cy="-240.71" rx="19.11" ry="19.11"/>
<text text-anchor="middle" x="275.82" y="-235.66" font-family="Times,serif" font-size="14.00">s7</text>
</g>
<!-- s6&#45;&gt;s7 -->
<g id="edge11" class="edge">
<title>s6&#45;&gt;s7</title>
<path fill="none" stroke="black" d="M204.91,-227.24C216.62,-229.49 232.07,-232.47 245.47,-235.06"/>
<polygon fill="black" stroke="black" points="244.61,-238.45 255.09,-236.91 245.93,-231.58 244.61,-238.45"/>
<text text-anchor="middle" x="230.73" y="-235.92" font-family="Times,serif" font-size="14.00">c</text>
</g>
<!-- s1&#45;&gt;s0 -->
<g id="edge5" class="edge">
<title>s1&#45;&gt;s0</title>
<path fill="none" stroke="black" d="M38.42,-223.71C47.53,-223.71 58.76,-223.71 69.08,-223.71"/>
<polygon fill="black" stroke="black" points="69.07,-227.21 79.07,-223.71 69.07,-220.21 69.07,-227.21"/>
<text text-anchor="middle" x="59.59" y="-226.91" font-family="Times,serif" font-size="14.00">λ</text>
</g>
<!-- s9 -->
<g id="node7" class="node">
<title>s9</title>
<ellipse fill="none" stroke="black" cx="100.07" cy="-72.71" rx="19.11" ry="19.11"/>
<text text-anchor="middle" x="100.07" y="-67.66" font-family="Times,serif" font-size="14.00">s9</text>
</g>
<!-- s1&#45;&gt;s9 -->
<g id="edge6" class="edge">
<title>s1&#45;&gt;s9</title>
<path fill="none" stroke="black" d="M20.18,-204.44C21.31,-176.03 27.44,-122.78 56.22,-90.21 60.11,-85.81 65.27,-82.49 70.67,-80"/>
<polygon fill="black" stroke="black" points="71.46,-83.44 79.62,-76.69 69.03,-76.88 71.46,-83.44"/>
<text text-anchor="middle" x="59.59" y="-93.41" font-family="Times,serif" font-size="14.00">τ</text>
</g>
<!-- s10 -->
<g id="node12" class="node">
<title>s10</title>
<ellipse fill="none" stroke="black" cx="185.64" cy="-68.71" rx="23.71" ry="23.71"/>
<text text-anchor="middle" x="185.64" y="-63.66" font-family="Times,serif" font-size="14.00">s10</text>
</g>
<!-- s9&#45;&gt;s10 -->
<g id="edge14" class="edge">
<title>s9&#45;&gt;s10</title>
<path fill="none" stroke="black" d="M119.62,-71.83C128.63,-71.39 139.76,-70.86 150.25,-70.36"/>
<polygon fill="black" stroke="black" points="150.34,-73.86 160.16,-69.89 150.01,-66.87 150.34,-73.86"/>
<text text-anchor="middle" x="140.56" y="-74.15" font-family="Times,serif" font-size="14.00">a</text>
</g>
<!-- s3&#45;&gt;s1 -->
<g id="edge8" class="edge">
<title>s3&#45;&gt;s1</title>
<path fill="none" stroke="black" d="M257.16,-308.04C250.06,-309.91 241.77,-311.79 234.11,-312.71 202.18,-316.58 192.6,-317.39 161.93,-307.71 116.72,-293.46 70.63,-262.48 43.74,-242.39"/>
<polygon fill="black" stroke="black" points="46.01,-239.72 35.94,-236.45 41.77,-245.29 46.01,-239.72"/>
<text text-anchor="middle" x="140.56" y="-303.87" font-family="Times,serif" font-size="14.00">λ</text>
</g>
<!-- s5&#45;&gt;s1 -->
<g id="edge10" class="edge">
<title>s5&#45;&gt;s1</title>
<path fill="none" stroke="black" d="M256.87,-141.38C234.29,-136.69 194.54,-130.98 161.93,-139.71 115.89,-152.04 69.73,-183.88 43.09,-204.63"/>
<polygon fill="black" stroke="black" points="41.02,-201.8 35.38,-210.77 45.38,-207.28 41.02,-201.8"/>
<text text-anchor="middle" x="140.56" y="-151.14" font-family="Times,serif" font-size="14.00">λ</text>
</g>
<!-- s8 -->
<g id="node11" class="node">
<title>s8</title>
<ellipse fill="none" stroke="black" cx="370" cy="-343.71" rx="19.11" ry="19.11"/>
<text text-anchor="middle" x="370" y="-338.66" font-family="Times,serif" font-size="14.00">s8</text>
</g>
<!-- s7&#45;&gt;s8 -->
<g id="edge12" class="edge">
<title>s7&#45;&gt;s8</title>
<path fill="none" stroke="black" d="M289.25,-254.6C304.58,-271.73 330.82,-301.05 348.99,-321.36"/>
<polygon fill="black" stroke="black" points="346.18,-323.47 355.46,-328.59 351.4,-318.8 346.18,-323.47"/>
<text text-anchor="middle" x="320.91" y="-295.41" font-family="Times,serif" font-size="14.00">c</text>
</g>
<!-- s8&#45;&gt;s1 -->
<g id="edge13" class="edge">
<title>s8&#45;&gt;s1</title>
<path fill="none" stroke="black" d="M352.5,-352.26C334.43,-360.81 304.33,-372.71 276.82,-372.71 99.07,-372.71 99.07,-372.71 99.07,-372.71 45.95,-372.71 28.46,-297.87 22.78,-254.27"/>
<polygon fill="black" stroke="black" points="26.27,-253.93 21.65,-244.39 19.31,-254.73 26.27,-253.93"/>
<text text-anchor="middle" x="185.64" y="-375.91" font-family="Times,serif" font-size="14.00">λ</text>
</g>
<!-- s11 -->
<g id="node13" class="node">
<title>s11</title>
<ellipse fill="none" stroke="black" cx="275.82" cy="-68.71" rx="23.71" ry="23.71"/>
<text text-anchor="middle" x="275.82" y="-63.66" font-family="Times,serif" font-size="14.00">s11</text>
</g>
<!-- s10&#45;&gt;s11 -->
<g id="edge15" class="edge">
<title>s10&#45;&gt;s11</title>
<path fill="none" stroke="black" d="M209.81,-68.71C219.23,-68.71 230.3,-68.71 240.62,-68.71"/>
<polygon fill="black" stroke="black" points="240.29,-72.21 250.29,-68.71 240.29,-65.21 240.29,-72.21"/>
<text text-anchor="middle" x="230.73" y="-71.91" font-family="Times,serif" font-size="14.00">b</text>
</g>
<!-- s11&#45;&gt;s12 -->
<g id="edge16" class="edge">
<title>s11&#45;&gt;s12</title>
<path fill="none" stroke="black" d="M299.61,-68.71C308.9,-68.71 319.92,-68.71 330.4,-68.71"/>
<polygon fill="black" stroke="black" points="330.37,-72.21 340.37,-68.71 330.37,-65.21 330.37,-72.21"/>
<text text-anchor="middle" x="320.91" y="-71.91" font-family="Times,serif" font-size="14.00">b</text>
</g>
</g>
</svg>
