<?xml version="1.0" encoding="UTF-8" standalone="no"?>
<!DOCTYPE svg PUBLIC "-//W3C//DTD SVG 1.1//EN"
 "http://www.w3.org/Graphics/SVG/1.1/DTD/svg11.dtd">
<!-- Generated by graphviz version 2.38.0 (20140413.2041)
 -->
<!-- Title: finite_state_machine Pages: 1 -->
<svg width="209pt" height="60pt"
 viewBox="0.00 0.00 209.21 60.05" xmlns="http://www.w3.org/2000/svg" xmlns:xlink="http://www.w3.org/1999/xlink">
<g id="graph0" class="graph" transform="scale(1 1) rotate(0) translate(4 56.05)">
<title>finite_state_machine</title>
<polygon fill="white" stroke="none" points="-4,4 -4,-56.05 205.214,-56.05 205.214,4 -4,4"/>
<!-- s2 -->
<g id="node1" class="node"><title>s2</title>
<ellipse fill="none" stroke="black" cx="179.214" cy="-23.05" rx="18" ry="18"/>
<ellipse fill="none" stroke="black" cx="179.214" cy="-23.05" rx="22" ry="22"/>
<text text-anchor="middle" x="179.214" y="-18.85" font-family="Times,serif" font-size="14.00">s2</text>
</g>
<!-- s0 -->
<g id="node2" class="node"><title>s0</title>
<ellipse fill="none" stroke="black" cx="18" cy="-23.05" rx="18" ry="18"/>
<text text-anchor="middle" x="18" y="-18.85" font-family="Times,serif" font-size="14.00">s0</text>
</g>
<!-- s1 -->
<g id="node3" class="node"><title>s1</title>
<ellipse fill="none" stroke="black" cx="97" cy="-23.05" rx="18" ry="18"/>
<text text-anchor="middle" x="97" y="-18.85" font-family="Times,serif" font-size="14.00">s1</text>
</g>
<!-- s0&#45;&gt;s1 -->
<g id="edge1" class="edge"><title>s0&#45;&gt;s1</title>
<path fill="none" stroke="black" d="M34.2412,-31.1726C40.2259,-33.9328 47.2651,-36.6676 54,-38.05 60.025,-39.2866 66.355,-38.3115 72.2205,-36.3782"/>
<polygon fill="black" stroke="black" points="73.6739,-39.5636 81.5174,-32.4411 70.9442,-33.1178 73.6739,-39.5636"/>
<text text-anchor="middle" x="57.5" y="-40.85" font-family="Times,serif" font-size="14.00">0</text>
</g>
<!-- s0&#45;&gt;s1 -->
<g id="edge2" class="edge"><title>s0&#45;&gt;s1</title>
<path fill="none" stroke="black" d="M36.1524,-20.938C43.7584,-20.2305 52.82,-19.7 61,-20.05 63.5591,-20.1594 66.2206,-20.3137 68.8819,-20.4952"/>
<polygon fill="black" stroke="black" points="68.6834,-23.9904 78.929,-21.2924 69.2372,-17.0123 68.6834,-23.9904"/>
<text text-anchor="middle" x="57.5" y="-22.85" font-family="Times,serif" font-size="14.00">1</text>
</g>
<!-- s0&#45;&gt;s1 -->
<g id="edge3" class="edge"><title>s0&#45;&gt;s1</title>
<path fill="none" stroke="black" d="M32.4324,-12.1111C38.6113,-7.76507 46.276,-3.27589 54,-1.04995 61.2867,1.04995 68.768,-1.21054 75.3602,-4.96507"/>
<polygon fill="black" stroke="black" points="73.4838,-7.92297 83.6968,-10.7417 77.4707,-2.1693 73.4838,-7.92297"/>
<text text-anchor="middle" x="57.5" y="-3.84995" font-family="Times,serif" font-size="14.00">λ</text>
</g>
<!-- s1&#45;&gt;s2 -->
<g id="edge4" class="edge"><title>s1&#45;&gt;s2</title>
<path fill="none" stroke="black" d="M115.011,-23.05C124.282,-23.05 136.049,-23.05 146.91,-23.05"/>
<polygon fill="black" stroke="black" points="146.935,-26.5501 156.935,-23.05 146.935,-19.5501 146.935,-26.5501"/>
<text text-anchor="middle" x="136.107" y="-25.85" font-family="Times,serif" font-size="14.00">τ</text>
</g>
</g>
</svg>
