<?xml version="1.0" encoding="UTF-8" standalone="no"?>
<!DOCTYPE svg PUBLIC "-//W3C//DTD SVG 1.1//EN"
 "http://www.w3.org/Graphics/SVG/1.1/DTD/svg11.dtd">
<!-- Generated by graphviz version 12.2.1 (20241206.2353)
 -->
<!-- Title: finite_state_machine Pages: 1 -->
<svg width="138pt" height="210pt"
 viewBox="0.00 0.00 138.00 210.28" xmlns="http://www.w3.org/2000/svg" xmlns:xlink="http://www.w3.org/1999/xlink">
<g id="graph0" class="graph" transform="scale(1 1) rotate(0) translate(4 206.28)">
<title>finite_state_machine</title>
<polygon fill="white" stroke="none" points="-4,4 -4,-206.28 134,-206.28 134,4 -4,4"/>
<text text-anchor="middle" x="65" y="-23.7" font-family="Times,serif" font-size="14.00">Regular Expression: </text>
<text text-anchor="middle" x="65" y="-7.2" font-family="Times,serif" font-size="14.00">xyzzy401</text>
<!-- s2 -->
<g id="node1" class="node">
<title>s2</title>
<ellipse fill="none" stroke="black" cx="105.48" cy="-64.11" rx="19.11" ry="19.11"/>
<ellipse fill="none" stroke="black" cx="105.48" cy="-64.11" rx="23.11" ry="23.11"/>
<text text-anchor="middle" x="105.48" y="-59.06" font-family="Times,serif" font-size="14.00">s2</text>
</g>
<!-- s0 -->
<g id="node2" class="node">
<title>s0</title>
<ellipse fill="none" stroke="black" cx="105.48" cy="-164.11" rx="19.11" ry="19.11"/>
<text text-anchor="middle" x="105.48" y="-159.06" font-family="Times,serif" font-size="14.00">s0</text>
</g>
<!-- s1 -->
<g id="node3" class="node">
<title>s1</title>
<ellipse fill="none" stroke="black" cx="20.52" cy="-144.11" rx="19.11" ry="19.11"/>
<text text-anchor="middle" x="20.52" y="-139.06" font-family="Times,serif" font-size="14.00">s1</text>
</g>
<!-- s0&#45;&gt;s1 -->
<g id="edge1" class="edge">
<title>s0&#45;&gt;s1</title>
<path fill="none" stroke="black" d="M85.97,-165.08C77.25,-165.1 66.77,-164.47 57.62,-162.11 54.38,-161.27 51.09,-160.12 47.88,-158.8"/>
<polygon fill="black" stroke="black" points="49.39,-155.64 38.85,-154.52 46.39,-161.97 49.39,-155.64"/>
<text text-anchor="middle" x="61" y="-166.63" font-family="Times,serif" font-size="14.00">0</text>
</g>
<!-- s0&#45;&gt;s1 -->
<g id="edge2" class="edge">
<title>s0&#45;&gt;s1</title>
<path fill="none" stroke="black" d="M89.28,-153.14C82.1,-148.62 73.18,-143.91 64.38,-141.61 60.16,-140.51 55.64,-140.04 51.17,-139.97"/>
<polygon fill="black" stroke="black" points="51.01,-136.47 41.21,-140.49 51.38,-143.46 51.01,-136.47"/>
<text text-anchor="middle" x="61" y="-144.81" font-family="Times,serif" font-size="14.00">1</text>
</g>
<!-- s0&#45;&gt;s1 -->
<g id="edge3" class="edge">
<title>s0&#45;&gt;s1</title>
<path fill="none" stroke="black" d="M94.83,-147.73C87.81,-137.56 77.3,-125.36 64.38,-119.61 57.05,-116.35 49.36,-118.74 42.55,-123.09"/>
<polygon fill="black" stroke="black" points="40.8,-120.01 35.11,-128.94 45.13,-125.51 40.8,-120.01"/>
<text text-anchor="middle" x="61" y="-122.81" font-family="Times,serif" font-size="14.00">λ</text>
</g>
<!-- s1&#45;&gt;s2 -->
<g id="edge5" class="edge">
<title>s1&#45;&gt;s2</title>
<path fill="none" stroke="black" d="M31.88,-128.53C38.6,-119.03 47.9,-106.96 57.62,-97.61 63.24,-92.21 69.78,-86.99 76.17,-82.34"/>
<polygon fill="black" stroke="black" points="77.83,-85.45 84.03,-76.86 73.83,-79.71 77.83,-85.45"/>
<text text-anchor="middle" x="61" y="-100.81" font-family="Times,serif" font-size="14.00">τ</text>
</g>
<!-- s1&#45;&gt;s0 -->
<g id="edge4" class="edge">
<title>s1&#45;&gt;s0</title>
<path fill="none" stroke="black" d="M31.07,-160.05C37.37,-168.93 46.51,-179.17 57.62,-184.11 65.1,-187.43 73.28,-185.74 80.69,-182.23"/>
<polygon fill="black" stroke="black" points="82.4,-185.29 89.19,-177.17 78.81,-179.28 82.4,-185.29"/>
<text text-anchor="middle" x="61" y="-188.98" font-family="Times,serif" font-size="14.00">λ</text>
</g>
</g>
</svg>
