<?xml version="1.0" encoding="UTF-8" standalone="no"?>
<!DOCTYPE svg PUBLIC "-//W3C//DTD SVG 1.1//EN"
 "http://www.w3.org/Graphics/SVG/1.1/DTD/svg11.dtd">
<!-- Generated by graphviz version 12.2.1 (20241206.2353)
 -->
<!-- Title: finite_state_machine Pages: 1 -->
<svg width="215pt" height="109pt"
 viewBox="0.00 0.00 215.40 108.64" xmlns="http://www.w3.org/2000/svg" xmlns:xlink="http://www.w3.org/1999/xlink">
<g id="graph0" class="graph" transform="scale(1 1) rotate(0) translate(4 104.64)">
<title>finite_state_machine</title>
<polygon fill="white" stroke="none" points="-4,4 -4,-104.64 211.4,-104.64 211.4,4 -4,4"/>
<text text-anchor="middle" x="103.7" y="-23.7" font-family="Times,serif" font-size="14.00">Regular Expression: </text>
<text text-anchor="middle" x="103.7" y="-7.2" font-family="Times,serif" font-size="14.00">xyzzy401</text>
<!-- s2 -->
<g id="node1" class="node">
<title>s2</title>
<ellipse fill="none" stroke="black" cx="184.29" cy="-65.5" rx="19.11" ry="19.11"/>
<ellipse fill="none" stroke="black" cx="184.29" cy="-65.5" rx="23.11" ry="23.11"/>
<text text-anchor="middle" x="184.29" y="-60.45" font-family="Times,serif" font-size="14.00">s2</text>
</g>
<!-- s0 -->
<g id="node2" class="node">
<title>s0</title>
<ellipse fill="none" stroke="black" cx="19.11" cy="-65.5" rx="19.11" ry="19.11"/>
<text text-anchor="middle" x="19.11" y="-60.45" font-family="Times,serif" font-size="14.00">s0</text>
</g>
<!-- s1 -->
<g id="node3" class="node">
<title>s1</title>
<ellipse fill="none" stroke="black" cx="100.07" cy="-65.5" rx="19.11" ry="19.11"/>
<text text-anchor="middle" x="100.07" y="-60.45" font-family="Times,serif" font-size="14.00">s1</text>
</g>
<!-- s0&#45;&gt;s1 -->
<g id="edge1" class="edge">
<title>s0&#45;&gt;s1</title>
<path fill="none" stroke="black" d="M35.68,-75.23C41.84,-78.54 49.12,-81.83 56.22,-83.5 62.3,-84.93 68.63,-83.85 74.5,-81.64"/>
<polygon fill="black" stroke="black" points="75.63,-84.98 83.05,-77.42 72.54,-78.7 75.63,-84.98"/>
<text text-anchor="middle" x="59.59" y="-87.34" font-family="Times,serif" font-size="14.00">0</text>
</g>
<!-- s0&#45;&gt;s1 -->
<g id="edge2" class="edge">
<title>s0&#45;&gt;s1</title>
<path fill="none" stroke="black" d="M38.45,-63.68C46.04,-63.12 54.92,-62.72 62.97,-63 65.04,-63.07 67.18,-63.16 69.34,-63.28"/>
<polygon fill="black" stroke="black" points="69.01,-66.76 79.21,-63.89 69.44,-59.77 69.01,-66.76"/>
<text text-anchor="middle" x="59.59" y="-66.2" font-family="Times,serif" font-size="14.00">1</text>
</g>
<!-- s0&#45;&gt;s1 -->
<g id="edge3" class="edge">
<title>s0&#45;&gt;s1</title>
<path fill="none" stroke="black" d="M32.97,-52.06C41.17,-45.16 52.23,-38.81 62.97,-42 67.28,-43.28 71.56,-45.25 75.58,-47.53"/>
<polygon fill="black" stroke="black" points="73.36,-50.26 83.66,-52.75 77.16,-44.38 73.36,-50.26"/>
<text text-anchor="middle" x="59.59" y="-45.2" font-family="Times,serif" font-size="14.00">λ</text>
</g>
<!-- s1&#45;&gt;s2 -->
<g id="edge4" class="edge">
<title>s1&#45;&gt;s2</title>
<path fill="none" stroke="black" d="M119.32,-65.5C128.19,-65.5 139.14,-65.5 149.45,-65.5"/>
<polygon fill="black" stroke="black" points="149.18,-69 159.18,-65.5 149.18,-62 149.18,-69"/>
<text text-anchor="middle" x="140.18" y="-68.7" font-family="Times,serif" font-size="14.00">τ</text>
</g>
</g>
</svg>
