<?xml version="1.0" encoding="UTF-8" standalone="no"?>
<!DOCTYPE svg PUBLIC "-//W3C//DTD SVG 1.1//EN"
 "http://www.w3.org/Graphics/SVG/1.1/DTD/svg11.dtd">
<!-- Generated by graphviz version 12.2.1 (20241206.2353)
 -->
<!-- Title: finite_state_machine Pages: 1 -->
<svg width="576pt" height="185pt"
 viewBox="0.00 0.00 576.00 185.20" xmlns="http://www.w3.org/2000/svg" xmlns:xlink="http://www.w3.org/1999/xlink">
<g id="graph0" class="graph" transform="scale(0.517174 0.517174) rotate(0) translate(4 354.1)">
<title>finite_state_machine</title>
<polygon fill="white" stroke="none" points="-4,4 -4,-354.1 1109.75,-354.1 1109.75,4 -4,4"/>
<text text-anchor="middle" x="552.87" y="-7.2" font-family="Times,serif" font-size="14.00">Regular Expression: xyzzy401</text>
<!-- s1 -->
<g id="node1" class="node">
<title>s1</title>
<ellipse fill="none" stroke="black" cx="1082.64" cy="-209.99" rx="19.11" ry="19.11"/>
<ellipse fill="none" stroke="black" cx="1082.64" cy="-209.99" rx="23.11" ry="23.11"/>
<text text-anchor="middle" x="1082.64" y="-204.94" font-family="Times,serif" font-size="14.00">s1</text>
</g>
<!-- s0 -->
<g id="node2" class="node">
<title>s0</title>
<ellipse fill="none" stroke="black" cx="111.32" cy="-203.99" rx="19.11" ry="19.11"/>
<text text-anchor="middle" x="111.32" y="-198.94" font-family="Times,serif" font-size="14.00">s0</text>
</g>
<!-- s2 -->
<g id="node3" class="node">
<title>s2</title>
<ellipse fill="none" stroke="black" cx="19.11" cy="-163.99" rx="19.11" ry="19.11"/>
<text text-anchor="middle" x="19.11" y="-158.94" font-family="Times,serif" font-size="14.00">s2</text>
</g>
<!-- s0&#45;&gt;s2 -->
<g id="edge1" class="edge">
<title>s0&#45;&gt;s2</title>
<path fill="none" stroke="black" d="M93.95,-195.18C87.82,-191.99 80.76,-188.45 74.22,-185.49 65.77,-181.65 56.42,-177.81 47.91,-174.45"/>
<polygon fill="black" stroke="black" points="49.34,-171.25 38.75,-170.9 46.81,-177.78 49.34,-171.25"/>
<text text-anchor="middle" x="65.22" y="-188.69" font-family="Times,serif" font-size="14.00">0&#45;9</text>
</g>
<!-- s0&#45;&gt;s2 -->
<g id="edge2" class="edge">
<title>s0&#45;&gt;s2</title>
<path fill="none" stroke="black" d="M102.19,-186.94C96.11,-176.34 86.7,-163.6 74.22,-157.49 66.27,-153.6 56.91,-153.42 48.23,-154.75"/>
<polygon fill="black" stroke="black" points="47.46,-151.34 38.49,-156.97 49.01,-158.16 47.46,-151.34"/>
<text text-anchor="middle" x="65.22" y="-160.69" font-family="Times,serif" font-size="14.00">λ</text>
</g>
<!-- s15 -->
<g id="node4" class="node">
<title>s15</title>
<ellipse fill="none" stroke="black" cx="212.64" cy="-243.99" rx="23.71" ry="23.71"/>
<text text-anchor="middle" x="212.64" y="-238.94" font-family="Times,serif" font-size="14.00">s15</text>
</g>
<!-- s0&#45;&gt;s15 -->
<g id="edge3" class="edge">
<title>s0&#45;&gt;s15</title>
<path fill="none" stroke="black" d="M128.65,-212.68C134.78,-215.79 141.85,-219.21 148.43,-221.99 158.23,-226.12 169.11,-230.11 179.04,-233.53"/>
<polygon fill="black" stroke="black" points="177.71,-236.77 188.3,-236.64 179.94,-230.14 177.71,-236.77"/>
<text text-anchor="middle" x="159.68" y="-233.81" font-family="Times,serif" font-size="14.00">a&#45;z</text>
</g>
<!-- s0&#45;&gt;s15 -->
<g id="edge4" class="edge">
<title>s0&#45;&gt;s15</title>
<path fill="none" stroke="black" d="M130.22,-199.32C142.22,-197.11 158.1,-196.01 170.93,-201.49 178.55,-204.74 185.43,-210.2 191.28,-216.14"/>
<polygon fill="black" stroke="black" points="188.32,-218.08 197.57,-223.24 193.56,-213.44 188.32,-218.08"/>
<text text-anchor="middle" x="159.68" y="-204.69" font-family="Times,serif" font-size="14.00">A&#45;Z</text>
</g>
<!-- s2&#45;&gt;s0 -->
<g id="edge5" class="edge">
<title>s2&#45;&gt;s0</title>
<path fill="none" stroke="black" d="M30.5,-179.78C36.85,-187.99 45.76,-197.27 56.22,-201.99 63.7,-205.36 72.37,-206.67 80.56,-206.92"/>
<polygon fill="black" stroke="black" points="80.57,-210.42 90.48,-206.7 80.41,-203.43 80.57,-210.42"/>
<text text-anchor="middle" x="65.22" y="-209.59" font-family="Times,serif" font-size="14.00">λ</text>
</g>
<!-- s3 -->
<g id="node5" class="node">
<title>s3</title>
<ellipse fill="none" stroke="black" cx="111.32" cy="-51.99" rx="19.11" ry="19.11"/>
<text text-anchor="middle" x="111.32" y="-46.94" font-family="Times,serif" font-size="14.00">s3</text>
</g>
<!-- s2&#45;&gt;s3 -->
<g id="edge6" class="edge">
<title>s2&#45;&gt;s3</title>
<path fill="none" stroke="black" d="M31.9,-149.34C47.03,-130.56 73.45,-97.76 91.41,-75.47"/>
<polygon fill="black" stroke="black" points="94.03,-77.79 97.58,-67.81 88.58,-73.4 94.03,-77.79"/>
<text text-anchor="middle" x="65.22" y="-121.22" font-family="Times,serif" font-size="14.00">τ</text>
</g>
<!-- s16 -->
<g id="node17" class="node">
<title>s16</title>
<ellipse fill="none" stroke="black" cx="318.57" cy="-251.99" rx="23.71" ry="23.71"/>
<text text-anchor="middle" x="318.57" y="-246.94" font-family="Times,serif" font-size="14.00">s16</text>
</g>
<!-- s15&#45;&gt;s16 -->
<g id="edge26" class="edge">
<title>s15&#45;&gt;s16</title>
<path fill="none" stroke="black" d="M235.39,-236.32C247.63,-233.02 263.16,-230.52 276.86,-233.49 280.24,-234.22 283.68,-235.26 287.05,-236.47"/>
<polygon fill="black" stroke="black" points="285.47,-239.61 296.05,-240.22 288.16,-233.14 285.47,-239.61"/>
<text text-anchor="middle" x="265.61" y="-236.69" font-family="Times,serif" font-size="14.00">a&#45;z</text>
</g>
<!-- s15&#45;&gt;s16 -->
<g id="edge27" class="edge">
<title>s15&#45;&gt;s16</title>
<path fill="none" stroke="black" d="M229.49,-227.2C236.45,-221 245.14,-214.71 254.36,-211.49 263.8,-208.18 267.61,-207.67 276.86,-211.49 284.04,-214.45 290.62,-219.36 296.31,-224.76"/>
<polygon fill="black" stroke="black" points="293.5,-226.89 302.91,-231.76 298.59,-222.08 293.5,-226.89"/>
<text text-anchor="middle" x="265.61" y="-214.69" font-family="Times,serif" font-size="14.00">A&#45;Z</text>
</g>
<!-- s15&#45;&gt;s16 -->
<g id="edge28" class="edge">
<title>s15&#45;&gt;s16</title>
<path fill="none" stroke="black" d="M217.65,-267.58C222.5,-288.02 232.86,-316.38 254.36,-329.99 277.37,-344.55 295.84,-312.28 306.74,-284.92"/>
<polygon fill="black" stroke="black" points="309.92,-286.41 310.14,-275.82 303.36,-283.96 309.92,-286.41"/>
<text text-anchor="middle" x="265.61" y="-336.8" font-family="Times,serif" font-size="14.00">0&#45;9</text>
</g>
<!-- s15&#45;&gt;s16 -->
<g id="edge29" class="edge">
<title>s15&#45;&gt;s16</title>
<path fill="none" stroke="black" d="M225.68,-264.21C232.69,-273.95 242.49,-284.64 254.36,-289.99 263.48,-294.09 267.55,-293.65 276.86,-289.99 283.59,-287.33 289.86,-282.99 295.37,-278.16"/>
<polygon fill="black" stroke="black" points="297.56,-280.91 302.27,-271.42 292.67,-275.9 297.56,-280.91"/>
<text text-anchor="middle" x="265.61" y="-296.1" font-family="Times,serif" font-size="14.00">λ</text>
</g>
<!-- s4 -->
<g id="node6" class="node">
<title>s4</title>
<ellipse fill="none" stroke="black" cx="212.64" cy="-79.99" rx="19.11" ry="19.11"/>
<text text-anchor="middle" x="212.64" y="-74.94" font-family="Times,serif" font-size="14.00">s4</text>
</g>
<!-- s3&#45;&gt;s4 -->
<g id="edge7" class="edge">
<title>s3&#45;&gt;s4</title>
<path fill="none" stroke="black" d="M129.24,-44.18C141.22,-39.78 157.48,-36.14 170.93,-41.49 179.13,-44.75 186.64,-50.54 192.91,-56.65"/>
<polygon fill="black" stroke="black" points="190.24,-58.92 199.61,-63.87 195.37,-54.16 190.24,-58.92"/>
<text text-anchor="middle" x="159.68" y="-44.69" font-family="Times,serif" font-size="14.00">.</text>
</g>
<!-- s5 -->
<g id="node7" class="node">
<title>s5</title>
<ellipse fill="none" stroke="black" cx="111.32" cy="-119.99" rx="19.11" ry="19.11"/>
<text text-anchor="middle" x="111.32" y="-114.94" font-family="Times,serif" font-size="14.00">s5</text>
</g>
<!-- s4&#45;&gt;s5 -->
<g id="edge8" class="edge">
<title>s4&#45;&gt;s5</title>
<path fill="none" stroke="black" d="M194.7,-87.74C187.42,-91 178.8,-94.77 170.93,-97.99 161.09,-102 150.23,-106.16 140.55,-109.76"/>
<polygon fill="black" stroke="black" points="139.46,-106.44 131.28,-113.18 141.88,-113 139.46,-106.44"/>
<text text-anchor="middle" x="159.68" y="-109.98" font-family="Times,serif" font-size="14.00">0&#45;9</text>
</g>
<!-- s5&#45;&gt;s4 -->
<g id="edge9" class="edge">
<title>s5&#45;&gt;s4</title>
<path fill="none" stroke="black" d="M121.37,-103.51C127.59,-93.98 136.83,-82.85 148.43,-77.49 158.9,-72.64 171.42,-72.2 182.54,-73.35"/>
<polygon fill="black" stroke="black" points="181.99,-76.81 192.4,-74.87 183.05,-69.89 181.99,-76.81"/>
<text text-anchor="middle" x="159.68" y="-80.69" font-family="Times,serif" font-size="14.00">λ</text>
</g>
<!-- s6 -->
<g id="node8" class="node">
<title>s6</title>
<ellipse fill="none" stroke="black" cx="212.64" cy="-147.99" rx="19.11" ry="19.11"/>
<text text-anchor="middle" x="212.64" y="-142.94" font-family="Times,serif" font-size="14.00">s6</text>
</g>
<!-- s5&#45;&gt;s6 -->
<g id="edge10" class="edge">
<title>s5&#45;&gt;s6</title>
<path fill="none" stroke="black" d="M128.41,-129.33C134.51,-132.51 141.63,-135.81 148.43,-137.99 159.12,-141.41 171.21,-143.68 181.94,-145.19"/>
<polygon fill="black" stroke="black" points="181.47,-148.66 191.82,-146.4 182.31,-141.71 181.47,-148.66"/>
<text text-anchor="middle" x="159.68" y="-146.57" font-family="Times,serif" font-size="14.00">τ</text>
</g>
<!-- s7 -->
<g id="node9" class="node">
<title>s7</title>
<ellipse fill="none" stroke="black" cx="318.57" cy="-91.99" rx="19.11" ry="19.11"/>
<text text-anchor="middle" x="318.57" y="-86.94" font-family="Times,serif" font-size="14.00">s7</text>
</g>
<!-- s6&#45;&gt;s7 -->
<g id="edge11" class="edge">
<title>s6&#45;&gt;s7</title>
<path fill="none" stroke="black" d="M229.88,-139.24C246.26,-130.41 271.81,-116.64 291.12,-106.24"/>
<polygon fill="black" stroke="black" points="292.63,-109.4 299.77,-101.58 289.31,-103.24 292.63,-109.4"/>
<text text-anchor="middle" x="265.61" y="-128.2" font-family="Times,serif" font-size="14.00">e</text>
</g>
<!-- s6&#45;&gt;s7 -->
<g id="edge12" class="edge">
<title>s6&#45;&gt;s7</title>
<path fill="none" stroke="black" d="M221.64,-130.68C228.43,-118.2 239.45,-102.25 254.36,-94.49 264.52,-89.2 276.89,-87.8 287.98,-88.01"/>
<polygon fill="black" stroke="black" points="287.64,-91.49 297.85,-88.65 288.1,-84.51 287.64,-91.49"/>
<text text-anchor="middle" x="265.61" y="-97.69" font-family="Times,serif" font-size="14.00">E</text>
</g>
<!-- s13 -->
<g id="node10" class="node">
<title>s13</title>
<ellipse fill="none" stroke="black" cx="903.64" cy="-158.99" rx="23.71" ry="23.71"/>
<text text-anchor="middle" x="903.64" y="-153.94" font-family="Times,serif" font-size="14.00">s13</text>
</g>
<!-- s6&#45;&gt;s13 -->
<g id="edge13" class="edge">
<title>s6&#45;&gt;s13</title>
<path fill="none" stroke="black" d="M231.98,-151.11C252.7,-154.36 287.45,-158.99 317.57,-158.99 317.57,-158.99 317.57,-158.99 815.21,-158.99 832.8,-158.99 852.38,-158.99 868.54,-158.99"/>
<polygon fill="black" stroke="black" points="868.12,-162.49 878.12,-158.99 868.12,-155.49 868.12,-162.49"/>
<text text-anchor="middle" x="577.52" y="-162.19" font-family="Times,serif" font-size="14.00">λ</text>
</g>
<!-- s8 -->
<g id="node11" class="node">
<title>s8</title>
<ellipse fill="none" stroke="black" cx="415.39" cy="-73.99" rx="19.11" ry="19.11"/>
<text text-anchor="middle" x="415.39" y="-68.94" font-family="Times,serif" font-size="14.00">s8</text>
</g>
<!-- s7&#45;&gt;s8 -->
<g id="edge14" class="edge">
<title>s7&#45;&gt;s8</title>
<path fill="none" stroke="black" d="M331.07,-77.37C338.44,-69.24 348.76,-59.9 360.29,-55.49 369.75,-51.87 380.27,-54.07 389.49,-58.04"/>
<polygon fill="black" stroke="black" points="387.76,-61.08 398.25,-62.56 390.97,-54.86 387.76,-61.08"/>
<text text-anchor="middle" x="369.29" y="-58.69" font-family="Times,serif" font-size="14.00">0&#45;9</text>
</g>
<!-- s14 -->
<g id="node16" class="node">
<title>s14</title>
<ellipse fill="none" stroke="black" cx="993.07" cy="-173.99" rx="23.71" ry="23.71"/>
<text text-anchor="middle" x="993.07" y="-168.94" font-family="Times,serif" font-size="14.00">s14</text>
</g>
<!-- s13&#45;&gt;s14 -->
<g id="edge24" class="edge">
<title>s13&#45;&gt;s14</title>
<path fill="none" stroke="black" d="M927.15,-162.85C936.56,-164.46 947.7,-166.38 958.08,-168.15"/>
<polygon fill="black" stroke="black" points="957.38,-171.59 967.83,-169.83 958.57,-164.69 957.38,-171.59"/>
<text text-anchor="middle" x="948.35" y="-170.14" font-family="Times,serif" font-size="14.00">τ</text>
</g>
<!-- s8&#45;&gt;s7 -->
<g id="edge15" class="edge">
<title>s8&#45;&gt;s7</title>
<path fill="none" stroke="black" d="M396.17,-77.45C382.8,-79.98 364.37,-83.48 348.94,-86.41"/>
<polygon fill="black" stroke="black" points="348.51,-82.93 339.34,-88.23 349.82,-89.81 348.51,-82.93"/>
<text text-anchor="middle" x="369.29" y="-87.26" font-family="Times,serif" font-size="14.00">λ</text>
</g>
<!-- s9 -->
<g id="node12" class="node">
<title>s9</title>
<ellipse fill="none" stroke="black" cx="537.04" cy="-73.99" rx="19.11" ry="19.11"/>
<text text-anchor="middle" x="537.04" y="-68.94" font-family="Times,serif" font-size="14.00">s9</text>
</g>
<!-- s8&#45;&gt;s9 -->
<g id="edge16" class="edge">
<title>s8&#45;&gt;s9</title>
<path fill="none" stroke="black" d="M434.82,-73.99C453.94,-73.99 484.11,-73.99 506.54,-73.99"/>
<polygon fill="black" stroke="black" points="506.27,-77.49 516.27,-73.99 506.27,-70.49 506.27,-77.49"/>
<text text-anchor="middle" x="476.21" y="-77.19" font-family="Times,serif" font-size="14.00">τ</text>
</g>
<!-- s10 -->
<g id="node13" class="node">
<title>s10</title>
<ellipse fill="none" stroke="black" cx="622.61" cy="-85.99" rx="23.71" ry="23.71"/>
<text text-anchor="middle" x="622.61" y="-80.94" font-family="Times,serif" font-size="14.00">s10</text>
</g>
<!-- s9&#45;&gt;s10 -->
<g id="edge17" class="edge">
<title>s9&#45;&gt;s10</title>
<path fill="none" stroke="black" d="M556.17,-76.59C565.34,-77.91 576.77,-79.55 587.5,-81.09"/>
<polygon fill="black" stroke="black" points="586.83,-84.53 597.23,-82.49 587.83,-77.6 586.83,-84.53"/>
<text text-anchor="middle" x="577.52" y="-83.19" font-family="Times,serif" font-size="14.00">.</text>
</g>
<!-- s12 -->
<g id="node14" class="node">
<title>s12</title>
<ellipse fill="none" stroke="black" cx="814.21" cy="-86.99" rx="23.71" ry="23.71"/>
<text text-anchor="middle" x="814.21" y="-81.94" font-family="Times,serif" font-size="14.00">s12</text>
</g>
<!-- s9&#45;&gt;s12 -->
<g id="edge18" class="edge">
<title>s9&#45;&gt;s12</title>
<path fill="none" stroke="black" d="M553.29,-63.37C579.27,-46.58 633.98,-16.74 682.32,-26.49 719.42,-33.97 758.35,-53.71 784,-68.62"/>
<polygon fill="black" stroke="black" points="782.13,-71.58 792.52,-73.69 785.72,-65.57 782.13,-71.58"/>
<text text-anchor="middle" x="673.32" y="-29.69" font-family="Times,serif" font-size="14.00">λ</text>
</g>
<!-- s11 -->
<g id="node15" class="node">
<title>s11</title>
<ellipse fill="none" stroke="black" cx="724.03" cy="-86.99" rx="23.71" ry="23.71"/>
<text text-anchor="middle" x="724.03" y="-81.94" font-family="Times,serif" font-size="14.00">s11</text>
</g>
<!-- s10&#45;&gt;s11 -->
<g id="edge19" class="edge">
<title>s10&#45;&gt;s11</title>
<path fill="none" stroke="black" d="M637.96,-67.29C649.35,-54.89 666.03,-42 682.32,-48.49 689.08,-51.18 695.37,-55.58 700.88,-60.47"/>
<polygon fill="black" stroke="black" points="698.22,-62.76 707.79,-67.31 703.14,-57.79 698.22,-62.76"/>
<text text-anchor="middle" x="673.32" y="-51.69" font-family="Times,serif" font-size="14.00">0&#45;9</text>
</g>
<!-- s10&#45;&gt;s11 -->
<g id="edge20" class="edge">
<title>s10&#45;&gt;s11</title>
<path fill="none" stroke="black" d="M643.7,-97.47C650.09,-100.54 657.31,-103.43 664.32,-104.99 673.47,-107.02 683.26,-105.53 692.16,-102.7"/>
<polygon fill="black" stroke="black" points="693.39,-105.98 701.45,-99.12 690.86,-99.45 693.39,-105.98"/>
<text text-anchor="middle" x="673.32" y="-109.12" font-family="Times,serif" font-size="14.00">λ</text>
</g>
<!-- s12&#45;&gt;s13 -->
<g id="edge23" class="edge">
<title>s12&#45;&gt;s13</title>
<path fill="none" stroke="black" d="M832.9,-101.56C845.26,-111.74 861.99,-125.51 875.96,-137.02"/>
<polygon fill="black" stroke="black" points="873.56,-139.57 883.5,-143.23 878.01,-134.17 873.56,-139.57"/>
<text text-anchor="middle" x="858.93" y="-128.35" font-family="Times,serif" font-size="14.00">τ</text>
</g>
<!-- s11&#45;&gt;s10 -->
<g id="edge21" class="edge">
<title>s11&#45;&gt;s10</title>
<path fill="none" stroke="black" d="M700.22,-85.34C694.39,-84.98 688.12,-84.66 682.32,-84.49 674.45,-84.24 665.98,-84.29 657.99,-84.46"/>
<polygon fill="black" stroke="black" points="658.16,-80.95 648.27,-84.75 658.37,-87.95 658.16,-80.95"/>
<text text-anchor="middle" x="673.32" y="-87.69" font-family="Times,serif" font-size="14.00">λ</text>
</g>
<!-- s11&#45;&gt;s12 -->
<g id="edge22" class="edge">
<title>s11&#45;&gt;s12</title>
<path fill="none" stroke="black" d="M748.2,-86.99C757.62,-86.99 768.69,-86.99 779.01,-86.99"/>
<polygon fill="black" stroke="black" points="778.69,-90.49 788.69,-86.99 778.69,-83.49 778.69,-90.49"/>
<text text-anchor="middle" x="769.12" y="-90.19" font-family="Times,serif" font-size="14.00">τ</text>
</g>
<!-- s14&#45;&gt;s1 -->
<g id="edge25" class="edge">
<title>s14&#45;&gt;s1</title>
<path fill="none" stroke="black" d="M1015.27,-182.7C1025.78,-187.02 1038.68,-192.33 1050.3,-197.1"/>
<polygon fill="black" stroke="black" points="1048.96,-200.34 1059.54,-200.9 1051.62,-193.86 1048.96,-200.34"/>
<text text-anchor="middle" x="1038.16" y="-196.27" font-family="Times,serif" font-size="14.00">λ</text>
</g>
<!-- s16&#45;&gt;s15 -->
<g id="edge30" class="edge">
<title>s16&#45;&gt;s15</title>
<path fill="none" stroke="black" d="M294.41,-251.89C282.44,-251.68 267.59,-251.17 254.36,-249.99 252.17,-249.79 249.92,-249.56 247.65,-249.29"/>
<polygon fill="black" stroke="black" points="248.29,-245.85 237.91,-248.01 247.37,-252.79 248.29,-245.85"/>
<text text-anchor="middle" x="265.61" y="-254.52" font-family="Times,serif" font-size="14.00">λ</text>
</g>
<!-- s17 -->
<g id="node18" class="node">
<title>s17</title>
<ellipse fill="none" stroke="black" cx="476.21" cy="-234.99" rx="23.71" ry="23.71"/>
<text text-anchor="middle" x="476.21" y="-229.94" font-family="Times,serif" font-size="14.00">s17</text>
</g>
<!-- s16&#45;&gt;s17 -->
<g id="edge31" class="edge">
<title>s16&#45;&gt;s17</title>
<path fill="none" stroke="black" d="M342.54,-249.48C368.52,-246.64 411.09,-241.99 440.99,-238.72"/>
<polygon fill="black" stroke="black" points="441.09,-242.23 450.65,-237.67 440.33,-235.28 441.09,-242.23"/>
<text text-anchor="middle" x="369.29" y="-250.56" font-family="Times,serif" font-size="14.00">τ</text>
</g>
<!-- s17&#45;&gt;s1 -->
<g id="edge32" class="edge">
<title>s17&#45;&gt;s1</title>
<path fill="none" stroke="black" d="M500.07,-232.82C520.18,-231.1 550.26,-228.99 576.52,-228.99 576.52,-228.99 576.52,-228.99 994.07,-228.99 1012.77,-228.99 1033.23,-224.79 1049.66,-220.35"/>
<polygon fill="black" stroke="black" points="1050.23,-223.83 1058.87,-217.7 1048.29,-217.1 1050.23,-223.83"/>
<text text-anchor="middle" x="769.12" y="-232.19" font-family="Times,serif" font-size="14.00">λ</text>
</g>
</g>
</svg>
