<?xml version="1.0" encoding="UTF-8" standalone="no"?>
<!DOCTYPE svg PUBLIC "-//W3C//DTD SVG 1.1//EN"
 "http://www.w3.org/Graphics/SVG/1.1/DTD/svg11.dtd">
<!-- Generated by graphviz version 12.2.1 (20241206.2353)
 -->
<!-- Title: finite_state_machine Pages: 1 -->
<svg width="378pt" height="238pt"
 viewBox="0.00 0.00 378.08 237.78" xmlns="http://www.w3.org/2000/svg" xmlns:xlink="http://www.w3.org/1999/xlink">
<g id="graph0" class="graph" transform="scale(1 1) rotate(0) translate(4 233.78)">
<title>finite_state_machine</title>
<polygon fill="white" stroke="none" points="-4,4 -4,-233.78 374.08,-233.78 374.08,4 -4,4"/>
<text text-anchor="middle" x="185.04" y="-23.7" font-family="Times,serif" font-size="14.00">Regular Expression: </text>
<text text-anchor="middle" x="185.04" y="-7.2" font-family="Times,serif" font-size="14.00">xyzzy401</text>
<!-- s7 -->
<g id="node1" class="node">
<title>s7</title>
<ellipse fill="none" stroke="black" cx="346.97" cy="-64.11" rx="19.11" ry="19.11"/>
<ellipse fill="none" stroke="black" cx="346.97" cy="-64.11" rx="23.11" ry="23.11"/>
<text text-anchor="middle" x="346.97" y="-59.06" font-family="Times,serif" font-size="14.00">s7</text>
</g>
<!-- s0 -->
<g id="node2" class="node">
<title>s0</title>
<ellipse fill="none" stroke="black" cx="100.07" cy="-173.11" rx="19.11" ry="19.11"/>
<text text-anchor="middle" x="100.07" y="-168.06" font-family="Times,serif" font-size="14.00">s0</text>
</g>
<!-- s2 -->
<g id="node3" class="node">
<title>s2</title>
<ellipse fill="none" stroke="black" cx="181.04" cy="-141.11" rx="19.11" ry="19.11"/>
<text text-anchor="middle" x="181.04" y="-136.06" font-family="Times,serif" font-size="14.00">s2</text>
</g>
<!-- s0&#45;&gt;s2 -->
<g id="edge1" class="edge">
<title>s0&#45;&gt;s2</title>
<path fill="none" stroke="black" d="M117.85,-165.1C123.89,-162.3 130.8,-159.21 137.18,-156.61 141.92,-154.67 147.01,-152.72 151.96,-150.89"/>
<polygon fill="black" stroke="black" points="152.76,-154.32 160.98,-147.64 150.38,-147.74 152.76,-154.32"/>
<text text-anchor="middle" x="140.56" y="-159.81" font-family="Times,serif" font-size="14.00">x</text>
</g>
<!-- s3 -->
<g id="node4" class="node">
<title>s3</title>
<ellipse fill="none" stroke="black" cx="181.04" cy="-207.11" rx="19.11" ry="19.11"/>
<text text-anchor="middle" x="181.04" y="-202.06" font-family="Times,serif" font-size="14.00">s3</text>
</g>
<!-- s0&#45;&gt;s3 -->
<g id="edge2" class="edge">
<title>s0&#45;&gt;s3</title>
<path fill="none" stroke="black" d="M118.21,-180.48C128.24,-184.81 141.15,-190.37 152.58,-195.29"/>
<polygon fill="black" stroke="black" points="150.98,-198.41 161.55,-199.15 153.75,-191.98 150.98,-198.41"/>
<text text-anchor="middle" x="140.56" y="-194.33" font-family="Times,serif" font-size="14.00">y</text>
</g>
<!-- s1 -->
<g id="node5" class="node">
<title>s1</title>
<ellipse fill="none" stroke="black" cx="19.11" cy="-152.11" rx="19.11" ry="19.11"/>
<text text-anchor="middle" x="19.11" y="-147.06" font-family="Times,serif" font-size="14.00">s1</text>
</g>
<!-- s0&#45;&gt;s1 -->
<g id="edge3" class="edge">
<title>s0&#45;&gt;s1</title>
<path fill="none" stroke="black" d="M83.56,-162.7C77.42,-159.13 70.12,-155.55 62.97,-153.61 58.77,-152.47 54.25,-151.77 49.78,-151.37"/>
<polygon fill="black" stroke="black" points="49.96,-147.88 39.83,-150.98 49.68,-154.87 49.96,-147.88"/>
<text text-anchor="middle" x="59.59" y="-156.81" font-family="Times,serif" font-size="14.00">λ</text>
</g>
<!-- s2&#45;&gt;s1 -->
<g id="edge6" class="edge">
<title>s2&#45;&gt;s1</title>
<path fill="none" stroke="black" d="M162.4,-135.6C142.51,-130.16 109.26,-123.33 80.97,-128.61 69.52,-130.74 57.45,-134.95 47.11,-139.23"/>
<polygon fill="black" stroke="black" points="45.81,-135.97 38.05,-143.19 48.62,-142.38 45.81,-135.97"/>
<text text-anchor="middle" x="100.07" y="-131.81" font-family="Times,serif" font-size="14.00">λ</text>
</g>
<!-- s3&#45;&gt;s1 -->
<g id="edge7" class="edge">
<title>s3&#45;&gt;s1</title>
<path fill="none" stroke="black" d="M161.72,-210.14C156.04,-210.95 149.74,-211.71 143.93,-212.11 104.04,-214.86 89.38,-214.44 56.22,-192.11 49.65,-187.68 43.47,-181.81 38.15,-175.93"/>
<polygon fill="black" stroke="black" points="41.12,-174.02 32,-168.64 35.77,-178.54 41.12,-174.02"/>
<text text-anchor="middle" x="100.07" y="-216.48" font-family="Times,serif" font-size="14.00">λ</text>
</g>
<!-- s1&#45;&gt;s0 -->
<g id="edge4" class="edge">
<title>s1&#45;&gt;s0</title>
<path fill="none" stroke="black" d="M36.1,-161.77C42.19,-164.99 49.32,-168.23 56.22,-170.11 60.42,-171.25 64.94,-172.03 69.41,-172.55"/>
<polygon fill="black" stroke="black" points="69.14,-176.04 79.37,-173.29 69.65,-169.06 69.14,-176.04"/>
<text text-anchor="middle" x="59.59" y="-174.61" font-family="Times,serif" font-size="14.00">λ</text>
</g>
<!-- s4 -->
<g id="node6" class="node">
<title>s4</title>
<ellipse fill="none" stroke="black" cx="100.07" cy="-64.11" rx="19.11" ry="19.11"/>
<text text-anchor="middle" x="100.07" y="-59.06" font-family="Times,serif" font-size="14.00">s4</text>
</g>
<!-- s1&#45;&gt;s4 -->
<g id="edge5" class="edge">
<title>s1&#45;&gt;s4</title>
<path fill="none" stroke="black" d="M27.13,-134.27C33.23,-120.53 43.14,-101.72 56.22,-88.61 60.83,-83.98 66.5,-79.94 72.18,-76.54"/>
<polygon fill="black" stroke="black" points="73.74,-79.68 80.88,-71.85 70.41,-73.52 73.74,-79.68"/>
<text text-anchor="middle" x="59.59" y="-91.81" font-family="Times,serif" font-size="14.00">τ</text>
</g>
<!-- s5 -->
<g id="node7" class="node">
<title>s5</title>
<ellipse fill="none" stroke="black" cx="181.04" cy="-64.11" rx="19.11" ry="19.11"/>
<text text-anchor="middle" x="181.04" y="-59.06" font-family="Times,serif" font-size="14.00">s5</text>
</g>
<!-- s4&#45;&gt;s5 -->
<g id="edge8" class="edge">
<title>s4&#45;&gt;s5</title>
<path fill="none" stroke="black" d="M119.39,-64.11C128.49,-64.11 139.73,-64.11 150.04,-64.11"/>
<polygon fill="black" stroke="black" points="150.04,-67.61 160.04,-64.11 150.04,-60.61 150.04,-67.61"/>
<text text-anchor="middle" x="140.56" y="-67.31" font-family="Times,serif" font-size="14.00">a</text>
</g>
<!-- s6 -->
<g id="node8" class="node">
<title>s6</title>
<ellipse fill="none" stroke="black" cx="262" cy="-64.11" rx="19.11" ry="19.11"/>
<text text-anchor="middle" x="262" y="-59.06" font-family="Times,serif" font-size="14.00">s6</text>
</g>
<!-- s5&#45;&gt;s6 -->
<g id="edge9" class="edge">
<title>s5&#45;&gt;s6</title>
<path fill="none" stroke="black" d="M200.35,-64.11C209.46,-64.11 220.69,-64.11 231.01,-64.11"/>
<polygon fill="black" stroke="black" points="231,-67.61 241,-64.11 231,-60.61 231,-67.61"/>
<text text-anchor="middle" x="221.52" y="-67.31" font-family="Times,serif" font-size="14.00">b</text>
</g>
<!-- s6&#45;&gt;s7 -->
<g id="edge10" class="edge">
<title>s6&#45;&gt;s7</title>
<path fill="none" stroke="black" d="M281.42,-64.11C290.43,-64.11 301.58,-64.11 312.07,-64.11"/>
<polygon fill="black" stroke="black" points="311.95,-67.61 321.95,-64.11 311.95,-60.61 311.95,-67.61"/>
<text text-anchor="middle" x="302.49" y="-67.31" font-family="Times,serif" font-size="14.00">b</text>
</g>
</g>
</svg>
