<?xml version="1.0" encoding="UTF-8" standalone="no"?>
<!DOCTYPE svg PUBLIC "-//W3C//DTD SVG 1.1//EN"
 "http://www.w3.org/Graphics/SVG/1.1/DTD/svg11.dtd">
<!-- Generated by graphviz version 12.2.1 (20241206.2353)
 -->
<!-- Title: finite_state_machine Pages: 1 -->
<svg width="135pt" height="140pt"
 viewBox="0.00 0.00 135.18 140.10" xmlns="http://www.w3.org/2000/svg" xmlns:xlink="http://www.w3.org/1999/xlink">
<g id="graph0" class="graph" transform="scale(1 1) rotate(0) translate(4 136.1)">
<title>finite_state_machine</title>
<polygon fill="white" stroke="none" points="-4,4 -4,-136.1 131.18,-136.1 131.18,4 -4,4"/>
<!-- s2 -->
<g id="node1" class="node">
<title>s2</title>
<ellipse fill="none" stroke="black" cx="104.07" cy="-23.11" rx="19.11" ry="19.11"/>
<ellipse fill="none" stroke="black" cx="104.07" cy="-23.11" rx="23.11" ry="23.11"/>
<text text-anchor="middle" x="104.07" y="-18.06" font-family="Times,serif" font-size="14.00">s2</text>
</g>
<!-- s0 -->
<g id="node2" class="node">
<title>s0</title>
<ellipse fill="none" stroke="black" cx="104.07" cy="-103.11" rx="19.11" ry="19.11"/>
<text text-anchor="middle" x="104.07" y="-98.06" font-family="Times,serif" font-size="14.00">s0</text>
</g>
<!-- s1 -->
<g id="node3" class="node">
<title>s1</title>
<ellipse fill="none" stroke="black" cx="19.11" cy="-83.11" rx="19.11" ry="19.11"/>
<text text-anchor="middle" x="19.11" y="-78.06" font-family="Times,serif" font-size="14.00">s1</text>
</g>
<!-- s0&#45;&gt;s1 -->
<g id="edge1" class="edge">
<title>s0&#45;&gt;s1</title>
<path fill="none" stroke="black" d="M85.11,-98.78C74.57,-96.24 61,-92.97 49,-90.07"/>
<polygon fill="black" stroke="black" points="50.12,-86.74 39.58,-87.8 48.48,-93.55 50.12,-86.74"/>
<text text-anchor="middle" x="59.59" y="-96.31" font-family="Times,serif" font-size="14.00">x</text>
</g>
<!-- s0&#45;&gt;s1 -->
<g id="edge2" class="edge">
<title>s0&#45;&gt;s1</title>
<path fill="none" stroke="black" d="M90.36,-89.48C83.08,-82.7 73.34,-75.2 62.97,-71.61 57.78,-69.81 52.16,-69.91 46.75,-70.98"/>
<polygon fill="black" stroke="black" points="46.11,-67.52 37.59,-73.81 48.18,-74.2 46.11,-67.52"/>
<text text-anchor="middle" x="59.59" y="-74.81" font-family="Times,serif" font-size="14.00">λ</text>
</g>
<!-- s1&#45;&gt;s2 -->
<g id="edge4" class="edge">
<title>s1&#45;&gt;s2</title>
<path fill="none" stroke="black" d="M33.17,-69.59C39.76,-63.15 48.07,-55.56 56.22,-49.61 61.4,-45.82 67.18,-42.15 72.86,-38.81"/>
<polygon fill="black" stroke="black" points="74.51,-41.9 81.51,-33.95 71.08,-35.8 74.51,-41.9"/>
<text text-anchor="middle" x="59.59" y="-52.81" font-family="Times,serif" font-size="14.00">τ</text>
</g>
<!-- s1&#45;&gt;s0 -->
<g id="edge3" class="edge">
<title>s1&#45;&gt;s0</title>
<path fill="none" stroke="black" d="M32.3,-97.47C38.69,-103.87 47.07,-110.72 56.22,-114.11 62.54,-116.45 69.53,-116.22 76.15,-114.81"/>
<polygon fill="black" stroke="black" points="76.75,-118.29 85.29,-112.01 74.7,-111.59 76.75,-118.29"/>
<text text-anchor="middle" x="59.59" y="-118.8" font-family="Times,serif" font-size="14.00">λ</text>
</g>
</g>
</svg>
