<?xml version="1.0" encoding="UTF-8" standalone="no"?>
<!DOCTYPE svg PUBLIC "-//W3C//DTD SVG 1.1//EN"
 "http://www.w3.org/Graphics/SVG/1.1/DTD/svg11.dtd">
<!-- Generated by graphviz version 12.2.1 (20241206.2353)
 -->
<!-- Title: finite_state_machine Pages: 1 -->
<svg width="142pt" height="360pt"
 viewBox="0.00 0.00 142.15 360.00" xmlns="http://www.w3.org/2000/svg" xmlns:xlink="http://www.w3.org/1999/xlink">
<g id="graph0" class="graph" transform="scale(0.752116 0.752116) rotate(0) translate(4 474.65)">
<title>finite_state_machine</title>
<polygon fill="white" stroke="none" points="-4,4 -4,-474.65 185,-474.65 185,4 -4,4"/>
<text text-anchor="middle" x="90.5" y="-7.2" font-family="Times,serif" font-size="14.00">Regular Expression: (||||||||||||||)</text>
<!-- s1 -->
<g id="node1" class="node">
<title>s1</title>
<ellipse fill="none" stroke="black" cx="130.98" cy="-193.13" rx="19.11" ry="19.11"/>
<ellipse fill="none" stroke="black" cx="130.98" cy="-193.13" rx="23.11" ry="23.11"/>
<text text-anchor="middle" x="130.98" y="-188.08" font-family="Times,serif" font-size="14.00">s1</text>
</g>
<!-- s0 -->
<g id="node2" class="node">
<title>s0</title>
<ellipse fill="none" stroke="black" cx="46.02" cy="-193.13" rx="19.11" ry="19.11"/>
<text text-anchor="middle" x="46.02" y="-188.08" font-family="Times,serif" font-size="14.00">s0</text>
</g>
<!-- s0&#45;&gt;s1 -->
<g id="edge1" class="edge">
<title>s0&#45;&gt;s1</title>
<path fill="none" stroke="black" d="M46.62,-212.49C45.96,-267.04 47.38,-420.03 83.12,-451.13 117.6,-481.12 126.82,-305.4 129.2,-228.17"/>
<polygon fill="black" stroke="black" points="132.69,-228.27 129.48,-218.18 125.7,-228.08 132.69,-228.27"/>
<text text-anchor="middle" x="86.5" y="-457.35" font-family="Times,serif" font-size="14.00">λ</text>
</g>
<!-- s0&#45;&gt;s1 -->
<g id="edge2" class="edge">
<title>s0&#45;&gt;s1</title>
<path fill="none" stroke="black" d="M47.17,-212.61C48.02,-261.2 53.13,-385.69 83.12,-411.13 112.02,-435.63 124.12,-295.2 128.22,-227.74"/>
<polygon fill="black" stroke="black" points="131.7,-228.13 128.79,-217.94 124.71,-227.72 131.7,-228.13"/>
<text text-anchor="middle" x="86.5" y="-417.16" font-family="Times,serif" font-size="14.00">λ</text>
</g>
<!-- s0&#45;&gt;s1 -->
<g id="edge3" class="edge">
<title>s0&#45;&gt;s1</title>
<path fill="none" stroke="black" d="M47.96,-212.4C50.45,-254.24 58.77,-351.22 83.12,-371.13 106.45,-390.2 120.84,-284.57 126.8,-227.62"/>
<polygon fill="black" stroke="black" points="130.27,-228.08 127.79,-217.78 123.31,-227.38 130.27,-228.08"/>
<text text-anchor="middle" x="86.5" y="-376.6" font-family="Times,serif" font-size="14.00">λ</text>
</g>
<!-- s0&#45;&gt;s1 -->
<g id="edge4" class="edge">
<title>s0&#45;&gt;s1</title>
<path fill="none" stroke="black" d="M49.16,-212.23C53.46,-246.6 64.36,-316.64 83.12,-331.13 119.65,-359.32 127.92,-277.3 129.65,-227.8"/>
<polygon fill="black" stroke="black" points="133.14,-228.19 129.91,-218.1 126.14,-228.01 133.14,-228.19"/>
<text text-anchor="middle" x="86.5" y="-338.06" font-family="Times,serif" font-size="14.00">λ</text>
</g>
<!-- s0&#45;&gt;s1 -->
<g id="edge5" class="edge">
<title>s0&#45;&gt;s1</title>
<path fill="none" stroke="black" d="M47.9,-212.5C50.13,-235.62 57.69,-273.39 83.12,-291.13 108.77,-309.01 120.85,-262.64 126.18,-227.74"/>
<polygon fill="black" stroke="black" points="129.63,-228.33 127.53,-217.95 122.7,-227.37 129.63,-228.33"/>
<text text-anchor="middle" x="86.5" y="-296.92" font-family="Times,serif" font-size="14.00">λ</text>
</g>
<!-- s0&#45;&gt;s1 -->
<g id="edge6" class="edge">
<title>s0&#45;&gt;s1</title>
<path fill="none" stroke="black" d="M52.9,-211.39C58.37,-225.03 67.99,-242.72 83.12,-251.13 98.45,-259.64 110.67,-242.91 118.79,-225.27"/>
<polygon fill="black" stroke="black" points="121.89,-226.94 122.5,-216.36 115.43,-224.24 121.89,-226.94"/>
<text text-anchor="middle" x="86.5" y="-256.54" font-family="Times,serif" font-size="14.00">λ</text>
</g>
<!-- s0&#45;&gt;s1 -->
<g id="edge7" class="edge">
<title>s0&#45;&gt;s1</title>
<path fill="none" stroke="black" d="M62.59,-202.86C68.75,-206.17 76.03,-209.46 83.12,-211.13 88.91,-212.49 94.95,-211.85 100.68,-210.17"/>
<polygon fill="black" stroke="black" points="101.83,-213.48 109.8,-206.49 99.21,-206.99 101.83,-213.48"/>
<text text-anchor="middle" x="86.5" y="-215.06" font-family="Times,serif" font-size="14.00">λ</text>
</g>
<!-- s0&#45;&gt;s1 -->
<g id="edge8" class="edge">
<title>s0&#45;&gt;s1</title>
<path fill="none" stroke="black" d="M65.37,-191.61C71.06,-191.2 77.35,-190.83 83.12,-190.63 87.36,-190.48 91.82,-190.5 96.22,-190.61"/>
<polygon fill="black" stroke="black" points="95.93,-194.1 106.07,-191.06 96.24,-187.11 95.93,-194.1"/>
<text text-anchor="middle" x="86.5" y="-193.83" font-family="Times,serif" font-size="14.00">λ</text>
</g>
<!-- s0&#45;&gt;s1 -->
<g id="edge9" class="edge">
<title>s0&#45;&gt;s1</title>
<path fill="none" stroke="black" d="M61.16,-181.2C67.46,-176.63 75.24,-171.97 83.12,-169.63 90,-167.59 97.07,-169.03 103.58,-172"/>
<polygon fill="black" stroke="black" points="101.52,-174.85 111.92,-176.88 105.06,-168.81 101.52,-174.85"/>
<text text-anchor="middle" x="86.5" y="-172.83" font-family="Times,serif" font-size="14.00">λ</text>
</g>
<!-- s0&#45;&gt;s1 -->
<g id="edge10" class="edge">
<title>s0&#45;&gt;s1</title>
<path fill="none" stroke="black" d="M54.24,-175.53C61.7,-160.3 74.39,-141.74 89.88,-148.63 97.85,-152.17 104.9,-158.17 110.78,-164.64"/>
<polygon fill="black" stroke="black" points="108.06,-166.84 117.09,-172.38 113.49,-162.42 108.06,-166.84"/>
<text text-anchor="middle" x="86.5" y="-151.83" font-family="Times,serif" font-size="14.00">λ</text>
</g>
<!-- s0&#45;&gt;s1 -->
<g id="edge11" class="edge">
<title>s0&#45;&gt;s1</title>
<path fill="none" stroke="black" d="M51.46,-174.48C56.33,-158.65 65.85,-136.9 83.12,-126.63 100.57,-116.25 113.2,-138.48 120.91,-159.98"/>
<polygon fill="black" stroke="black" points="117.5,-160.8 123.94,-169.22 124.15,-158.62 117.5,-160.8"/>
<text text-anchor="middle" x="86.5" y="-129.83" font-family="Times,serif" font-size="14.00">λ</text>
</g>
<!-- s0&#45;&gt;s1 -->
<g id="edge12" class="edge">
<title>s0&#45;&gt;s1</title>
<path fill="none" stroke="black" d="M48.67,-173.87C51.63,-152.6 59.93,-119.28 83.12,-103.63 106.56,-87.81 119.06,-127.4 125.11,-158.89"/>
<polygon fill="black" stroke="black" points="121.62,-159.27 126.79,-168.52 128.51,-158.06 121.62,-159.27"/>
<text text-anchor="middle" x="86.5" y="-106.83" font-family="Times,serif" font-size="14.00">λ</text>
</g>
<!-- s0&#45;&gt;s1 -->
<g id="edge13" class="edge">
<title>s0&#45;&gt;s1</title>
<path fill="none" stroke="black" d="M46.77,-173.54C47.63,-147.22 53.58,-101.23 83.12,-79.63 112.96,-57.81 123.88,-117.61 127.81,-158.48"/>
<polygon fill="black" stroke="black" points="124.32,-158.75 128.66,-168.42 131.3,-158.16 124.32,-158.75"/>
<text text-anchor="middle" x="86.5" y="-82.83" font-family="Times,serif" font-size="14.00">λ</text>
</g>
<!-- s0&#45;&gt;s1 -->
<g id="edge14" class="edge">
<title>s0&#45;&gt;s1</title>
<path fill="none" stroke="black" d="M49.21,-173.82C53.55,-139.48 64.46,-70.02 83.12,-55.63 119.47,-27.59 127.82,-108.91 129.61,-158.27"/>
<polygon fill="black" stroke="black" points="126.11,-158.34 129.89,-168.23 133.11,-158.14 126.11,-158.34"/>
<text text-anchor="middle" x="86.5" y="-58.83" font-family="Times,serif" font-size="14.00">λ</text>
</g>
<!-- s0&#45;&gt;s1 -->
<g id="edge15" class="edge">
<title>s0&#45;&gt;s1</title>
<path fill="none" stroke="black" d="M48.39,-173.87C51.61,-134.98 61.09,-49.27 83.12,-31.63 126.09,2.8 131.18,-101.14 130.88,-158.26"/>
<polygon fill="black" stroke="black" points="127.39,-158.12 130.77,-168.16 134.39,-158.21 127.39,-158.12"/>
<text text-anchor="middle" x="86.5" y="-34.83" font-family="Times,serif" font-size="14.00">λ</text>
</g>
</g>
</svg>
