<?xml version="1.0" encoding="UTF-8" standalone="no"?>
<!DOCTYPE svg PUBLIC "-//W3C//DTD SVG 1.1//EN"
 "http://www.w3.org/Graphics/SVG/1.1/DTD/svg11.dtd">
<!-- Generated by graphviz version 2.38.0 (20140413.2041)
 -->
<!-- Title: finite_state_machine Pages: 1 -->
<svg width="114pt" height="360pt"
 viewBox="0.00 0.00 113.51 360.00" xmlns="http://www.w3.org/2000/svg" xmlns:xlink="http://www.w3.org/1999/xlink">
<g id="graph0" class="graph" transform="scale(0.866504 0.866504) rotate(0) translate(4 411.463)">
<title>finite_state_machine</title>
<polygon fill="white" stroke="none" points="-4,4 -4,-411.463 127,-411.463 127,4 -4,4"/>
<!-- s1 -->
<g id="node1" class="node"><title>s1</title>
<ellipse fill="none" stroke="black" cx="101" cy="-153.463" rx="18" ry="18"/>
<ellipse fill="none" stroke="black" cx="101" cy="-153.463" rx="22" ry="22"/>
<text text-anchor="middle" x="101" y="-149.263" font-family="Times,serif" font-size="14.00">s1</text>
</g>
<!-- s0 -->
<g id="node2" class="node"><title>s0</title>
<ellipse fill="none" stroke="black" cx="18" cy="-153.463" rx="18" ry="18"/>
<text text-anchor="middle" x="18" y="-149.263" font-family="Times,serif" font-size="14.00">s0</text>
</g>
<!-- s0&#45;&gt;s1 -->
<g id="edge1" class="edge"><title>s0&#45;&gt;s1</title>
<path fill="none" stroke="black" d="M18.779,-171.623C18.5906,-222.069 21.098,-362.063 54,-390.463 85.8392,-417.945 96.0285,-256.673 98.945,-185.712"/>
<polygon fill="black" stroke="black" points="102.449,-185.663 99.3385,-175.536 95.4546,-185.393 102.449,-185.663"/>
<text text-anchor="middle" x="57.5" y="-396.263" font-family="Times,serif" font-size="14.00">λ</text>
</g>
<!-- s0&#45;&gt;s1 -->
<g id="edge2" class="edge"><title>s0&#45;&gt;s1</title>
<path fill="none" stroke="black" d="M19.3291,-171.673C20.5626,-216.509 26.4044,-330.277 54,-353.463 80.6248,-375.833 93.3919,-247.798 97.9542,-185.726"/>
<polygon fill="black" stroke="black" points="101.452,-185.879 98.6647,-175.658 94.4693,-185.387 101.452,-185.879"/>
<text text-anchor="middle" x="57.5" y="-358.263" font-family="Times,serif" font-size="14.00">λ</text>
</g>
<!-- s0&#45;&gt;s1 -->
<g id="edge3" class="edge"><title>s0&#45;&gt;s1</title>
<path fill="none" stroke="black" d="M20.1013,-171.415C22.8759,-209.907 31.6003,-298.362 54,-316.463 75.5032,-333.839 90.236,-237.739 96.5424,-185.495"/>
<polygon fill="black" stroke="black" points="100.041,-185.712 97.7253,-175.373 93.0881,-184.899 100.041,-185.712"/>
<text text-anchor="middle" x="57.5" y="-321.263" font-family="Times,serif" font-size="14.00">λ</text>
</g>
<!-- s0&#45;&gt;s1 -->
<g id="edge4" class="edge"><title>s0&#45;&gt;s1</title>
<path fill="none" stroke="black" d="M21.2849,-171.169C25.7515,-202.661 36.7386,-266.342 54,-279.463 87.6407,-305.032 96.7026,-231.052 99.1276,-185.798"/>
<polygon fill="black" stroke="black" points="102.636,-185.682 99.5922,-175.534 95.6435,-185.365 102.636,-185.682"/>
<text text-anchor="middle" x="57.5" y="-285.263" font-family="Times,serif" font-size="14.00">λ</text>
</g>
<!-- s0&#45;&gt;s1 -->
<g id="edge5" class="edge"><title>s0&#45;&gt;s1</title>
<path fill="none" stroke="black" d="M20.2984,-171.466C22.8933,-192.538 30.6736,-226.571 54,-242.463 77.6333,-258.564 89.8839,-217.273 95.6245,-185.668"/>
<polygon fill="black" stroke="black" points="99.1411,-185.857 97.3288,-175.418 92.2359,-184.708 99.1411,-185.857"/>
<text text-anchor="middle" x="57.5" y="-248.263" font-family="Times,serif" font-size="14.00">λ</text>
</g>
<!-- s0&#45;&gt;s1 -->
<g id="edge6" class="edge"><title>s0&#45;&gt;s1</title>
<path fill="none" stroke="black" d="M25.1783,-170.131C30.6927,-182.35 40.0714,-198.048 54,-205.463 68.1414,-212.991 79.9985,-198.684 88.1312,-183.187"/>
<polygon fill="black" stroke="black" points="91.3287,-184.613 92.4784,-174.081 85.0116,-181.597 91.3287,-184.613"/>
<text text-anchor="middle" x="57.5" y="-210.263" font-family="Times,serif" font-size="14.00">λ</text>
</g>
<!-- s0&#45;&gt;s1 -->
<g id="edge7" class="edge"><title>s0&#45;&gt;s1</title>
<path fill="none" stroke="black" d="M34.2412,-161.585C40.2259,-164.345 47.2651,-167.08 54,-168.463 59.9039,-169.674 66.1118,-169.029 71.9896,-167.471"/>
<polygon fill="black" stroke="black" points="73.1757,-170.764 81.4578,-164.157 70.863,-164.158 73.1757,-170.764"/>
<text text-anchor="middle" x="57.5" y="-171.263" font-family="Times,serif" font-size="14.00">λ</text>
</g>
<!-- s0&#45;&gt;s1 -->
<g id="edge8" class="edge"><title>s0&#45;&gt;s1</title>
<path fill="none" stroke="black" d="M36.071,-151.705C41.7664,-151.197 48.1506,-150.713 54,-150.463 58.715,-150.261 63.6986,-150.311 68.5768,-150.508"/>
<polygon fill="black" stroke="black" points="68.7502,-154.025 78.9426,-151.133 69.1713,-147.038 68.7502,-154.025"/>
<text text-anchor="middle" x="57.5" y="-153.263" font-family="Times,serif" font-size="14.00">λ</text>
</g>
<!-- s0&#45;&gt;s1 -->
<g id="edge9" class="edge"><title>s0&#45;&gt;s1</title>
<path fill="none" stroke="black" d="M32.4324,-142.524C38.6113,-138.178 46.276,-133.689 54,-131.463 61.1346,-129.407 68.5321,-131.059 75.2542,-134.211"/>
<polygon fill="black" stroke="black" points="73.5072,-137.244 83.914,-139.232 77.0179,-131.188 73.5072,-137.244"/>
<text text-anchor="middle" x="57.5" y="-134.263" font-family="Times,serif" font-size="14.00">λ</text>
</g>
<!-- s0&#45;&gt;s1 -->
<g id="edge10" class="edge"><title>s0&#45;&gt;s1</title>
<path fill="none" stroke="black" d="M26.2473,-137.247C33.6728,-123.221 46.2036,-106.116 61,-112.463 68.7448,-115.785 75.6782,-121.484 81.4744,-127.594"/>
<polygon fill="black" stroke="black" points="79.013,-130.1 88.1836,-135.406 84.3232,-125.539 79.013,-130.1"/>
<text text-anchor="middle" x="57.5" y="-115.263" font-family="Times,serif" font-size="14.00">λ</text>
</g>
<!-- s0&#45;&gt;s1 -->
<g id="edge11" class="edge"><title>s0&#45;&gt;s1</title>
<path fill="none" stroke="black" d="M23.5876,-136.331C28.4901,-121.785 37.8345,-101.825 54,-92.4626 70.4727,-82.9225 82.9329,-103.25 90.7024,-122.955"/>
<polygon fill="black" stroke="black" points="87.4426,-124.233 94.1367,-132.445 94.0248,-121.851 87.4426,-124.233"/>
<text text-anchor="middle" x="57.5" y="-95.2626" font-family="Times,serif" font-size="14.00">λ</text>
</g>
<!-- s0&#45;&gt;s1 -->
<g id="edge12" class="edge"><title>s0&#45;&gt;s1</title>
<path fill="none" stroke="black" d="M20.9861,-135.435C24.2082,-115.898 32.5595,-85.623 54,-71.4626 75.8355,-57.0412 88.3623,-92.8383 94.6762,-121.613"/>
<polygon fill="black" stroke="black" points="91.3206,-122.68 96.727,-131.791 98.1827,-121.297 91.3206,-122.68"/>
<text text-anchor="middle" x="57.5" y="-74.2626" font-family="Times,serif" font-size="14.00">λ</text>
</g>
<!-- s0&#45;&gt;s1 -->
<g id="edge13" class="edge"><title>s0&#45;&gt;s1</title>
<path fill="none" stroke="black" d="M19.2011,-135.244C20.5684,-111.244 26.9782,-69.8197 54,-50.4626 81.3868,-30.844 92.7383,-84.0973 97.2387,-121.148"/>
<polygon fill="black" stroke="black" points="93.8112,-122.002 98.38,-131.561 100.77,-121.239 93.8112,-122.002"/>
<text text-anchor="middle" x="57.5" y="-53.2626" font-family="Times,serif" font-size="14.00">λ</text>
</g>
<!-- s0&#45;&gt;s1 -->
<g id="edge14" class="edge"><title>s0&#45;&gt;s1</title>
<path fill="none" stroke="black" d="M21.3782,-135.401C25.9251,-103.989 36.9421,-41.4003 54,-28.4626 87.3461,-3.17089 96.5339,-76.1212 99.0552,-121.042"/>
<polygon fill="black" stroke="black" points="95.5691,-121.419 99.542,-131.241 102.561,-121.085 95.5691,-121.419"/>
<text text-anchor="middle" x="57.5" y="-31.2626" font-family="Times,serif" font-size="14.00">λ</text>
</g>
<!-- s0&#45;&gt;s1 -->
<g id="edge15" class="edge"><title>s0&#45;&gt;s1</title>
<path fill="none" stroke="black" d="M20.5686,-135.376C24.0766,-99.7051 33.8763,-22.3575 54,-6.4626 93.4608,24.7058 99.7697,-69.2313 100.338,-121.299"/>
<polygon fill="black" stroke="black" points="96.8389,-121.425 100.383,-131.409 103.839,-121.394 96.8389,-121.425"/>
<text text-anchor="middle" x="57.5" y="-9.2626" font-family="Times,serif" font-size="14.00">λ</text>
</g>
</g>
</svg>
