<?xml version="1.0" encoding="UTF-8" standalone="no"?>
<!DOCTYPE svg PUBLIC "-//W3C//DTD SVG 1.1//EN"
 "http://www.w3.org/Graphics/SVG/1.1/DTD/svg11.dtd">
<!-- Generated by graphviz version 12.2.1 (20241206.2353)
 -->
<!-- Title: finite_state_machine Pages: 1 -->
<svg width="153pt" height="92pt"
 viewBox="0.00 0.00 153.00 92.41" xmlns="http://www.w3.org/2000/svg" xmlns:xlink="http://www.w3.org/1999/xlink">
<g id="graph0" class="graph" transform="scale(1 1) rotate(0) translate(4 88.41)">
<title>finite_state_machine</title>
<polygon fill="white" stroke="none" points="-4,4 -4,-88.41 149,-88.41 149,4 -4,4"/>
<text text-anchor="middle" x="72.5" y="-7.2" font-family="Times,serif" font-size="14.00">Regular Expression: (||)</text>
<!-- s1 -->
<g id="node1" class="node">
<title>s1</title>
<ellipse fill="none" stroke="black" cx="112.98" cy="-49.17" rx="19.11" ry="19.11"/>
<ellipse fill="none" stroke="black" cx="112.98" cy="-49.17" rx="23.11" ry="23.11"/>
<text text-anchor="middle" x="112.98" y="-44.12" font-family="Times,serif" font-size="14.00">s1</text>
</g>
<!-- s0 -->
<g id="node2" class="node">
<title>s0</title>
<ellipse fill="none" stroke="black" cx="28.02" cy="-49.17" rx="19.11" ry="19.11"/>
<text text-anchor="middle" x="28.02" y="-44.12" font-family="Times,serif" font-size="14.00">s0</text>
</g>
<!-- s0&#45;&gt;s1 -->
<g id="edge1" class="edge">
<title>s0&#45;&gt;s1</title>
<path fill="none" stroke="black" d="M44.59,-58.91C50.75,-62.22 58.03,-65.5 65.12,-67.17 70.91,-68.53 76.95,-67.89 82.68,-66.21"/>
<polygon fill="black" stroke="black" points="83.83,-69.52 91.8,-62.54 81.21,-63.03 83.83,-69.52"/>
<text text-anchor="middle" x="68.5" y="-71.11" font-family="Times,serif" font-size="14.00">λ</text>
</g>
<!-- s0&#45;&gt;s1 -->
<g id="edge2" class="edge">
<title>s0&#45;&gt;s1</title>
<path fill="none" stroke="black" d="M47.37,-47.65C53.06,-47.25 59.35,-46.87 65.12,-46.67 69.36,-46.52 73.82,-46.54 78.22,-46.66"/>
<polygon fill="black" stroke="black" points="77.93,-50.15 88.07,-47.1 78.24,-43.16 77.93,-50.15"/>
<text text-anchor="middle" x="68.5" y="-49.87" font-family="Times,serif" font-size="14.00">λ</text>
</g>
<!-- s0&#45;&gt;s1 -->
<g id="edge3" class="edge">
<title>s0&#45;&gt;s1</title>
<path fill="none" stroke="black" d="M43.16,-37.24C49.46,-32.68 57.24,-28.01 65.12,-25.67 72,-23.63 79.07,-25.07 85.58,-28.04"/>
<polygon fill="black" stroke="black" points="83.52,-30.89 93.92,-32.92 87.06,-24.85 83.52,-30.89"/>
<text text-anchor="middle" x="68.5" y="-28.87" font-family="Times,serif" font-size="14.00">λ</text>
</g>
</g>
</svg>
