<?xml version="1.0" encoding="UTF-8" standalone="no"?>
<!DOCTYPE svg PUBLIC "-//W3C//DTD SVG 1.1//EN"
 "http://www.w3.org/Graphics/SVG/1.1/DTD/svg11.dtd">
<!-- Generated by graphviz version 12.2.1 (20241206.2353)
 -->
<!-- Title: finite_state_machine Pages: 1 -->
<svg width="576pt" height="173pt"
 viewBox="0.00 0.00 576.00 172.87" xmlns="http://www.w3.org/2000/svg" xmlns:xlink="http://www.w3.org/1999/xlink">
<g id="graph0" class="graph" transform="scale(0.628356 0.628356) rotate(0) translate(4 271.11)">
<title>finite_state_machine</title>
<polygon fill="white" stroke="none" points="-4,4 -4,-271.11 912.68,-271.11 912.68,4 -4,4"/>
<text text-anchor="middle" x="454.34" y="-7.2" font-family="Times,serif" font-size="14.00">Regular Expression: xyzzy401</text>
<!-- s14 -->
<g id="node1" class="node">
<title>s14</title>
<ellipse fill="none" stroke="black" cx="880.96" cy="-224.61" rx="23.71" ry="23.71"/>
<ellipse fill="none" stroke="black" cx="880.96" cy="-224.61" rx="27.71" ry="27.71"/>
<text text-anchor="middle" x="880.96" y="-219.56" font-family="Times,serif" font-size="14.00">s14</text>
</g>
<!-- s0 -->
<g id="node2" class="node">
<title>s0</title>
<ellipse fill="none" stroke="black" cx="19.11" cy="-43.61" rx="19.11" ry="19.11"/>
<text text-anchor="middle" x="19.11" y="-38.56" font-family="Times,serif" font-size="14.00">s0</text>
</g>
<!-- s1 -->
<g id="node3" class="node">
<title>s1</title>
<ellipse fill="none" stroke="black" cx="100.07" cy="-96.61" rx="19.11" ry="19.11"/>
<text text-anchor="middle" x="100.07" y="-91.56" font-family="Times,serif" font-size="14.00">s1</text>
</g>
<!-- s0&#45;&gt;s1 -->
<g id="edge1" class="edge">
<title>s0&#45;&gt;s1</title>
<path fill="none" stroke="black" d="M37.51,-49.5C45.59,-52.63 55.13,-56.92 62.97,-62.11 68.39,-65.7 73.73,-70.15 78.58,-74.64"/>
<polygon fill="black" stroke="black" points="76.01,-77.03 85.59,-81.55 80.92,-72.04 76.01,-77.03"/>
<text text-anchor="middle" x="59.59" y="-65.31" font-family="Times,serif" font-size="14.00">a</text>
</g>
<!-- s2 -->
<g id="node4" class="node">
<title>s2</title>
<ellipse fill="none" stroke="black" cx="181.04" cy="-108.61" rx="19.11" ry="19.11"/>
<text text-anchor="middle" x="181.04" y="-103.56" font-family="Times,serif" font-size="14.00">s2</text>
</g>
<!-- s1&#45;&gt;s2 -->
<g id="edge2" class="edge">
<title>s1&#45;&gt;s2</title>
<path fill="none" stroke="black" d="M119.39,-99.39C128.66,-100.8 140.13,-102.54 150.6,-104.13"/>
<polygon fill="black" stroke="black" points="149.91,-107.57 160.33,-105.61 150.97,-100.65 149.91,-107.57"/>
<text text-anchor="middle" x="140.56" y="-106.17" font-family="Times,serif" font-size="14.00">d</text>
</g>
<!-- s4 -->
<g id="node5" class="node">
<title>s4</title>
<ellipse fill="none" stroke="black" cx="19.11" cy="-139.61" rx="19.11" ry="19.11"/>
<text text-anchor="middle" x="19.11" y="-134.56" font-family="Times,serif" font-size="14.00">s4</text>
</g>
<!-- s1&#45;&gt;s4 -->
<g id="edge3" class="edge">
<title>s1&#45;&gt;s4</title>
<path fill="none" stroke="black" d="M83.35,-86.98C74.95,-83.14 64.63,-80.59 56.22,-85.11 45.49,-90.87 37.41,-101.37 31.65,-111.62"/>
<polygon fill="black" stroke="black" points="28.67,-109.75 27.32,-120.26 34.93,-112.89 28.67,-109.75"/>
<text text-anchor="middle" x="59.59" y="-88.31" font-family="Times,serif" font-size="14.00">λ</text>
</g>
<!-- s3 -->
<g id="node6" class="node">
<title>s3</title>
<ellipse fill="none" stroke="black" cx="261.25" cy="-134.61" rx="19.11" ry="19.11"/>
<text text-anchor="middle" x="261.25" y="-129.56" font-family="Times,serif" font-size="14.00">s3</text>
</g>
<!-- s2&#45;&gt;s3 -->
<g id="edge4" class="edge">
<title>s2&#45;&gt;s3</title>
<path fill="none" stroke="black" d="M199.4,-114.38C208.95,-117.55 221.04,-121.57 231.92,-125.19"/>
<polygon fill="black" stroke="black" points="230.64,-128.45 241.24,-128.29 232.85,-121.81 230.64,-128.45"/>
<text text-anchor="middle" x="221.15" y="-125.59" font-family="Times,serif" font-size="14.00">e</text>
</g>
<!-- s4&#45;&gt;s1 -->
<g id="edge6" class="edge">
<title>s4&#45;&gt;s1</title>
<path fill="none" stroke="black" d="M36.47,-130.7C46.95,-124.99 60.79,-117.45 72.79,-110.92"/>
<polygon fill="black" stroke="black" points="74.29,-114.09 81.4,-106.23 70.95,-107.94 74.29,-114.09"/>
<text text-anchor="middle" x="59.59" y="-122.6" font-family="Times,serif" font-size="14.00">λ</text>
</g>
<!-- s5 -->
<g id="node7" class="node">
<title>s5</title>
<ellipse fill="none" stroke="black" cx="100.07" cy="-202.61" rx="19.11" ry="19.11"/>
<text text-anchor="middle" x="100.07" y="-197.56" font-family="Times,serif" font-size="14.00">s5</text>
</g>
<!-- s4&#45;&gt;s5 -->
<g id="edge7" class="edge">
<title>s4&#45;&gt;s5</title>
<path fill="none" stroke="black" d="M34.41,-151.7C41.01,-157.22 48.96,-163.8 56.22,-169.61 62.42,-174.57 69.21,-179.86 75.52,-184.72"/>
<polygon fill="black" stroke="black" points="73.02,-187.22 83.09,-190.52 77.28,-181.66 73.02,-187.22"/>
<text text-anchor="middle" x="59.59" y="-177.38" font-family="Times,serif" font-size="14.00">τ</text>
</g>
<!-- s3&#45;&gt;s4 -->
<g id="edge5" class="edge">
<title>s3&#45;&gt;s4</title>
<path fill="none" stroke="black" d="M242.35,-138.78C236.58,-139.94 230.12,-141.03 224.15,-141.61 221.49,-141.86 220.81,-141.62 218.15,-141.61 158.58,-141.31 88.93,-140.5 50.13,-140.01"/>
<polygon fill="black" stroke="black" points="50.23,-136.51 40.19,-139.88 50.14,-143.51 50.23,-136.51"/>
<text text-anchor="middle" x="140.56" y="-144.24" font-family="Times,serif" font-size="14.00">f</text>
</g>
<!-- s6 -->
<g id="node8" class="node">
<title>s6</title>
<ellipse fill="none" stroke="black" cx="181.04" cy="-202.61" rx="19.11" ry="19.11"/>
<text text-anchor="middle" x="181.04" y="-197.56" font-family="Times,serif" font-size="14.00">s6</text>
</g>
<!-- s5&#45;&gt;s6 -->
<g id="edge8" class="edge">
<title>s5&#45;&gt;s6</title>
<path fill="none" stroke="black" d="M119.39,-202.61C128.49,-202.61 139.73,-202.61 150.04,-202.61"/>
<polygon fill="black" stroke="black" points="150.04,-206.11 160.04,-202.61 150.04,-199.11 150.04,-206.11"/>
<text text-anchor="middle" x="140.56" y="-205.81" font-family="Times,serif" font-size="14.00">k</text>
</g>
<!-- s12 -->
<g id="node9" class="node">
<title>s12</title>
<ellipse fill="none" stroke="black" cx="697.36" cy="-224.61" rx="23.71" ry="23.71"/>
<text text-anchor="middle" x="697.36" y="-219.56" font-family="Times,serif" font-size="14.00">s12</text>
</g>
<!-- s5&#45;&gt;s12 -->
<g id="edge9" class="edge">
<title>s5&#45;&gt;s12</title>
<path fill="none" stroke="black" d="M113.88,-216.49C128.41,-230.67 153.57,-250.61 180.04,-250.61 180.04,-250.61 180.04,-250.61 608.93,-250.61 627.97,-250.61 648.42,-244.87 664.74,-238.79"/>
<polygon fill="black" stroke="black" points="665.91,-242.09 673.91,-235.14 663.33,-235.58 665.91,-242.09"/>
<text text-anchor="middle" x="389.45" y="-253.81" font-family="Times,serif" font-size="14.00">λ</text>
</g>
<!-- s7 -->
<g id="node10" class="node">
<title>s7</title>
<ellipse fill="none" stroke="black" cx="261.25" cy="-199.61" rx="19.11" ry="19.11"/>
<text text-anchor="middle" x="261.25" y="-194.56" font-family="Times,serif" font-size="14.00">s7</text>
</g>
<!-- s6&#45;&gt;s7 -->
<g id="edge10" class="edge">
<title>s6&#45;&gt;s7</title>
<path fill="none" stroke="black" d="M200.57,-201.9C209.53,-201.55 220.51,-201.13 230.6,-200.75"/>
<polygon fill="black" stroke="black" points="230.48,-204.25 240.34,-200.37 230.21,-197.26 230.48,-204.25"/>
<text text-anchor="middle" x="221.15" y="-204.4" font-family="Times,serif" font-size="14.00">l</text>
</g>
<!-- s13 -->
<g id="node15" class="node">
<title>s13</title>
<ellipse fill="none" stroke="black" cx="786.79" cy="-224.61" rx="23.71" ry="23.71"/>
<text text-anchor="middle" x="786.79" y="-219.56" font-family="Times,serif" font-size="14.00">s13</text>
</g>
<!-- s12&#45;&gt;s13 -->
<g id="edge17" class="edge">
<title>s12&#45;&gt;s13</title>
<path fill="none" stroke="black" d="M721.33,-224.61C730.49,-224.61 741.24,-224.61 751.3,-224.61"/>
<polygon fill="black" stroke="black" points="751.15,-228.11 761.15,-224.61 751.15,-221.11 751.15,-228.11"/>
<text text-anchor="middle" x="742.07" y="-227.81" font-family="Times,serif" font-size="14.00">τ</text>
</g>
<!-- s8 -->
<g id="node11" class="node">
<title>s8</title>
<ellipse fill="none" stroke="black" cx="346.72" cy="-198.61" rx="19.11" ry="19.11"/>
<text text-anchor="middle" x="346.72" y="-193.56" font-family="Times,serif" font-size="14.00">s8</text>
</g>
<!-- s7&#45;&gt;s8 -->
<g id="edge11" class="edge">
<title>s7&#45;&gt;s8</title>
<path fill="none" stroke="black" d="M280.78,-199.39C291.15,-199.26 304.33,-199.1 316.1,-198.96"/>
<polygon fill="black" stroke="black" points="315.77,-202.47 325.73,-198.85 315.69,-195.47 315.77,-202.47"/>
<text text-anchor="middle" x="303.99" y="-202.37" font-family="Times,serif" font-size="14.00">m</text>
</g>
<!-- s9 -->
<g id="node12" class="node">
<title>s9</title>
<ellipse fill="none" stroke="black" cx="432.18" cy="-198.61" rx="19.11" ry="19.11"/>
<text text-anchor="middle" x="432.18" y="-193.56" font-family="Times,serif" font-size="14.00">s9</text>
</g>
<!-- s8&#45;&gt;s9 -->
<g id="edge12" class="edge">
<title>s8&#45;&gt;s9</title>
<path fill="none" stroke="black" d="M366.24,-198.61C376.61,-198.61 389.79,-198.61 401.56,-198.61"/>
<polygon fill="black" stroke="black" points="401.2,-202.11 411.2,-198.61 401.2,-195.11 401.2,-202.11"/>
<text text-anchor="middle" x="389.45" y="-201.81" font-family="Times,serif" font-size="14.00">m</text>
</g>
<!-- s10 -->
<g id="node13" class="node">
<title>s10</title>
<ellipse fill="none" stroke="black" cx="517.75" cy="-198.61" rx="23.71" ry="23.71"/>
<text text-anchor="middle" x="517.75" y="-193.56" font-family="Times,serif" font-size="14.00">s10</text>
</g>
<!-- s9&#45;&gt;s10 -->
<g id="edge13" class="edge">
<title>s9&#45;&gt;s10</title>
<path fill="none" stroke="black" d="M451.73,-198.61C460.74,-198.61 471.87,-198.61 482.36,-198.61"/>
<polygon fill="black" stroke="black" points="482.27,-202.11 492.27,-198.61 482.27,-195.11 482.27,-202.11"/>
<text text-anchor="middle" x="472.67" y="-201.81" font-family="Times,serif" font-size="14.00">n</text>
</g>
<!-- s11 -->
<g id="node14" class="node">
<title>s11</title>
<ellipse fill="none" stroke="black" cx="607.93" cy="-198.61" rx="23.71" ry="23.71"/>
<text text-anchor="middle" x="607.93" y="-193.56" font-family="Times,serif" font-size="14.00">s11</text>
</g>
<!-- s10&#45;&gt;s11 -->
<g id="edge14" class="edge">
<title>s10&#45;&gt;s11</title>
<path fill="none" stroke="black" d="M541.92,-198.61C551.34,-198.61 562.41,-198.61 572.73,-198.61"/>
<polygon fill="black" stroke="black" points="572.4,-202.11 582.4,-198.61 572.4,-195.11 572.4,-202.11"/>
<text text-anchor="middle" x="562.84" y="-201.81" font-family="Times,serif" font-size="14.00">o</text>
</g>
<!-- s11&#45;&gt;s12 -->
<g id="edge16" class="edge">
<title>s11&#45;&gt;s12</title>
<path fill="none" stroke="black" d="M630.99,-205.17C640.83,-208.09 652.62,-211.6 663.47,-214.83"/>
<polygon fill="black" stroke="black" points="662.27,-218.12 672.85,-217.62 664.27,-211.41 662.27,-218.12"/>
<text text-anchor="middle" x="652.65" y="-215.59" font-family="Times,serif" font-size="14.00">τ</text>
</g>
<!-- s11&#45;&gt;s8 -->
<g id="edge15" class="edge">
<title>s11&#45;&gt;s8</title>
<path fill="none" stroke="black" d="M587.52,-185.79C574.96,-178.28 557.94,-169.52 541.47,-165.61 485.91,-152.4 468.64,-157.41 413.08,-170.61 399.88,-173.74 385.97,-179.34 374.39,-184.72"/>
<polygon fill="black" stroke="black" points="372.93,-181.54 365.46,-189.05 375.99,-187.83 372.93,-181.54"/>
<text text-anchor="middle" x="472.67" y="-162.11" font-family="Times,serif" font-size="14.00">λ</text>
</g>
<!-- s13&#45;&gt;s14 -->
<g id="edge18" class="edge">
<title>s13&#45;&gt;s14</title>
<path fill="none" stroke="black" d="M810.57,-224.61C819.87,-224.61 830.88,-224.61 841.36,-224.61"/>
<polygon fill="black" stroke="black" points="841.34,-228.11 851.34,-224.61 841.34,-221.11 841.34,-228.11"/>
<text text-anchor="middle" x="831.88" y="-227.81" font-family="Times,serif" font-size="14.00">b</text>
</g>
</g>
</svg>
