<?xml version="1.0" encoding="UTF-8" standalone="no"?>
<!DOCTYPE svg PUBLIC "-//W3C//DTD SVG 1.1//EN"
 "http://www.w3.org/Graphics/SVG/1.1/DTD/svg11.dtd">
<!-- Generated by graphviz version 12.2.1 (20241206.2353)
 -->
<!-- Title: finite_state_machine Pages: 1 -->
<svg width="498pt" height="95pt"
 viewBox="0.00 0.00 498.04 95.22" xmlns="http://www.w3.org/2000/svg" xmlns:xlink="http://www.w3.org/1999/xlink">
<g id="graph0" class="graph" transform="scale(1 1) rotate(0) translate(4 91.22)">
<title>finite_state_machine</title>
<polygon fill="white" stroke="none" points="-4,4 -4,-91.22 494.04,-91.22 494.04,4 -4,4"/>
<text text-anchor="middle" x="245.02" y="-23.7" font-family="Times,serif" font-size="14.00">Regular Expression: </text>
<text text-anchor="middle" x="245.02" y="-7.2" font-family="Times,serif" font-size="14.00">xyzzy401</text>
<!-- s5 -->
<g id="node1" class="node">
<title>s5</title>
<ellipse fill="none" stroke="black" cx="466.93" cy="-64.11" rx="19.11" ry="19.11"/>
<ellipse fill="none" stroke="black" cx="466.93" cy="-64.11" rx="23.11" ry="23.11"/>
<text text-anchor="middle" x="466.93" y="-59.06" font-family="Times,serif" font-size="14.00">s5</text>
</g>
<!-- s0 -->
<g id="node2" class="node">
<title>s0</title>
<ellipse fill="none" stroke="black" cx="19.11" cy="-64.11" rx="19.11" ry="19.11"/>
<text text-anchor="middle" x="19.11" y="-59.06" font-family="Times,serif" font-size="14.00">s0</text>
</g>
<!-- s1 -->
<g id="node3" class="node">
<title>s1</title>
<ellipse fill="none" stroke="black" cx="120.32" cy="-64.11" rx="19.11" ry="19.11"/>
<text text-anchor="middle" x="120.32" y="-59.06" font-family="Times,serif" font-size="14.00">s1</text>
</g>
<!-- s0&#45;&gt;s1 -->
<g id="edge1" class="edge">
<title>s0&#45;&gt;s1</title>
<path fill="none" stroke="black" d="M38.31,-64.11C52.62,-64.11 72.86,-64.11 89.53,-64.11"/>
<polygon fill="black" stroke="black" points="89.39,-67.61 99.39,-64.11 89.39,-60.61 89.39,-67.61"/>
<text text-anchor="middle" x="69.72" y="-67.31" font-family="Times,serif" font-size="14.00">BOL</text>
</g>
<!-- s2 -->
<g id="node4" class="node">
<title>s2</title>
<ellipse fill="none" stroke="black" cx="200.54" cy="-64.11" rx="19.11" ry="19.11"/>
<text text-anchor="middle" x="200.54" y="-59.06" font-family="Times,serif" font-size="14.00">s2</text>
</g>
<!-- s1&#45;&gt;s2 -->
<g id="edge2" class="edge">
<title>s1&#45;&gt;s2</title>
<path fill="none" stroke="black" d="M139.86,-64.11C148.82,-64.11 159.8,-64.11 169.88,-64.11"/>
<polygon fill="black" stroke="black" points="169.62,-67.61 179.62,-64.11 169.62,-60.61 169.62,-67.61"/>
<text text-anchor="middle" x="160.43" y="-67.31" font-family="Times,serif" font-size="14.00">a</text>
</g>
<!-- s3 -->
<g id="node5" class="node">
<title>s3</title>
<ellipse fill="none" stroke="black" cx="281.5" cy="-64.11" rx="19.11" ry="19.11"/>
<text text-anchor="middle" x="281.5" y="-59.06" font-family="Times,serif" font-size="14.00">s3</text>
</g>
<!-- s2&#45;&gt;s3 -->
<g id="edge3" class="edge">
<title>s2&#45;&gt;s3</title>
<path fill="none" stroke="black" d="M219.85,-64.11C228.96,-64.11 240.19,-64.11 250.51,-64.11"/>
<polygon fill="black" stroke="black" points="250.5,-67.61 260.5,-64.11 250.5,-60.61 250.5,-67.61"/>
<text text-anchor="middle" x="241.02" y="-67.31" font-family="Times,serif" font-size="14.00">b</text>
</g>
<!-- s4 -->
<g id="node6" class="node">
<title>s4</title>
<ellipse fill="none" stroke="black" cx="362.47" cy="-64.11" rx="19.11" ry="19.11"/>
<text text-anchor="middle" x="362.47" y="-59.06" font-family="Times,serif" font-size="14.00">s4</text>
</g>
<!-- s3&#45;&gt;s4 -->
<g id="edge4" class="edge">
<title>s3&#45;&gt;s4</title>
<path fill="none" stroke="black" d="M300.82,-64.11C309.92,-64.11 321.16,-64.11 331.47,-64.11"/>
<polygon fill="black" stroke="black" points="331.47,-67.61 341.47,-64.11 331.47,-60.61 331.47,-67.61"/>
<text text-anchor="middle" x="321.99" y="-67.31" font-family="Times,serif" font-size="14.00">b</text>
</g>
<!-- s4&#45;&gt;s5 -->
<g id="edge5" class="edge">
<title>s4&#45;&gt;s5</title>
<path fill="none" stroke="black" d="M381.79,-64.11C395.82,-64.11 415.56,-64.11 432.4,-64.11"/>
<polygon fill="black" stroke="black" points="431.97,-67.61 441.97,-64.11 431.97,-60.61 431.97,-67.61"/>
<text text-anchor="middle" x="412.7" y="-67.31" font-family="Times,serif" font-size="14.00">EOL</text>
</g>
</g>
</svg>
