<?xml version="1.0" encoding="UTF-8" standalone="no"?>
<!DOCTYPE svg PUBLIC "-//W3C//DTD SVG 1.1//EN"
 "http://www.w3.org/Graphics/SVG/1.1/DTD/svg11.dtd">
<!-- Generated by graphviz version 12.2.1 (20241206.2353)
 -->
<!-- Title: finite_state_machine Pages: 1 -->
<svg width="576pt" height="157pt"
 viewBox="0.00 0.00 576.00 157.05" xmlns="http://www.w3.org/2000/svg" xmlns:xlink="http://www.w3.org/1999/xlink">
<g id="graph0" class="graph" transform="scale(0.85956 0.85956) rotate(0) translate(4 178.72)">
<title>finite_state_machine</title>
<polygon fill="white" stroke="none" points="-4,4 -4,-178.72 666.11,-178.72 666.11,4 -4,4"/>
<text text-anchor="middle" x="331.06" y="-7.2" font-family="Times,serif" font-size="14.00">Regular Expression: xyzzy401</text>
<!-- s11 -->
<g id="node1" class="node">
<title>s11</title>
<ellipse fill="none" stroke="black" cx="634.4" cy="-99.61" rx="23.71" ry="23.71"/>
<ellipse fill="none" stroke="black" cx="634.4" cy="-99.61" rx="27.71" ry="27.71"/>
<text text-anchor="middle" x="634.4" y="-94.56" font-family="Times,serif" font-size="14.00">s11</text>
</g>
<!-- s0 -->
<g id="node2" class="node">
<title>s0</title>
<ellipse fill="none" stroke="black" cx="19.11" cy="-99.61" rx="19.11" ry="19.11"/>
<text text-anchor="middle" x="19.11" y="-94.56" font-family="Times,serif" font-size="14.00">s0</text>
</g>
<!-- s2 -->
<g id="node3" class="node">
<title>s2</title>
<ellipse fill="none" stroke="black" cx="100.07" cy="-155.61" rx="19.11" ry="19.11"/>
<text text-anchor="middle" x="100.07" y="-150.56" font-family="Times,serif" font-size="14.00">s2</text>
</g>
<!-- s0&#45;&gt;s2 -->
<g id="edge1" class="edge">
<title>s0&#45;&gt;s2</title>
<path fill="none" stroke="black" d="M35.33,-110.4C46.48,-118.31 61.83,-129.19 74.67,-138.3"/>
<polygon fill="black" stroke="black" points="72.48,-141.04 82.66,-143.97 76.53,-135.33 72.48,-141.04"/>
<text text-anchor="middle" x="59.59" y="-132.49" font-family="Times,serif" font-size="14.00">a</text>
</g>
<!-- s4 -->
<g id="node4" class="node">
<title>s4</title>
<ellipse fill="none" stroke="black" cx="100.07" cy="-99.61" rx="19.11" ry="19.11"/>
<text text-anchor="middle" x="100.07" y="-94.56" font-family="Times,serif" font-size="14.00">s4</text>
</g>
<!-- s0&#45;&gt;s4 -->
<g id="edge2" class="edge">
<title>s0&#45;&gt;s4</title>
<path fill="none" stroke="black" d="M38.42,-99.61C47.53,-99.61 58.76,-99.61 69.08,-99.61"/>
<polygon fill="black" stroke="black" points="69.07,-103.11 79.07,-99.61 69.07,-96.11 69.07,-103.11"/>
<text text-anchor="middle" x="59.59" y="-102.81" font-family="Times,serif" font-size="14.00">b</text>
</g>
<!-- s6 -->
<g id="node5" class="node">
<title>s6</title>
<ellipse fill="none" stroke="black" cx="100.07" cy="-43.61" rx="19.11" ry="19.11"/>
<text text-anchor="middle" x="100.07" y="-38.56" font-family="Times,serif" font-size="14.00">s6</text>
</g>
<!-- s0&#45;&gt;s6 -->
<g id="edge3" class="edge">
<title>s0&#45;&gt;s6</title>
<path fill="none" stroke="black" d="M35.33,-88.81C46.48,-80.91 61.83,-70.02 74.67,-60.91"/>
<polygon fill="black" stroke="black" points="76.53,-63.89 82.66,-55.25 72.48,-58.18 76.53,-63.89"/>
<text text-anchor="middle" x="59.59" y="-76.49" font-family="Times,serif" font-size="14.00">c</text>
</g>
<!-- s3 -->
<g id="node8" class="node">
<title>s3</title>
<ellipse fill="none" stroke="black" cx="237.25" cy="-153.61" rx="19.11" ry="19.11"/>
<text text-anchor="middle" x="237.25" y="-148.56" font-family="Times,serif" font-size="14.00">s3</text>
</g>
<!-- s2&#45;&gt;s3 -->
<g id="edge5" class="edge">
<title>s2&#45;&gt;s3</title>
<path fill="none" stroke="black" d="M119.59,-155.33C142.03,-155 180.15,-154.44 206.69,-154.04"/>
<polygon fill="black" stroke="black" points="206.5,-157.55 216.45,-153.9 206.4,-150.55 206.5,-157.55"/>
<text text-anchor="middle" x="140.56" y="-158.26" font-family="Times,serif" font-size="14.00">a</text>
</g>
<!-- s5 -->
<g id="node9" class="node">
<title>s5</title>
<ellipse fill="none" stroke="black" cx="237.25" cy="-99.61" rx="19.11" ry="19.11"/>
<text text-anchor="middle" x="237.25" y="-94.56" font-family="Times,serif" font-size="14.00">s5</text>
</g>
<!-- s4&#45;&gt;s5 -->
<g id="edge7" class="edge">
<title>s4&#45;&gt;s5</title>
<path fill="none" stroke="black" d="M119.59,-99.61C142.03,-99.61 180.15,-99.61 206.69,-99.61"/>
<polygon fill="black" stroke="black" points="206.45,-103.11 216.45,-99.61 206.45,-96.11 206.45,-103.11"/>
<text text-anchor="middle" x="140.56" y="-102.81" font-family="Times,serif" font-size="14.00">b</text>
</g>
<!-- s7 -->
<g id="node10" class="node">
<title>s7</title>
<ellipse fill="none" stroke="black" cx="181.04" cy="-43.61" rx="19.11" ry="19.11"/>
<text text-anchor="middle" x="181.04" y="-38.56" font-family="Times,serif" font-size="14.00">s7</text>
</g>
<!-- s6&#45;&gt;s7 -->
<g id="edge9" class="edge">
<title>s6&#45;&gt;s7</title>
<path fill="none" stroke="black" d="M119.39,-43.61C128.49,-43.61 139.73,-43.61 150.04,-43.61"/>
<polygon fill="black" stroke="black" points="150.04,-47.11 160.04,-43.61 150.04,-40.11 150.04,-47.11"/>
<text text-anchor="middle" x="140.56" y="-46.81" font-family="Times,serif" font-size="14.00">c</text>
</g>
<!-- s1 -->
<g id="node6" class="node">
<title>s1</title>
<ellipse fill="none" stroke="black" cx="374.43" cy="-99.61" rx="19.11" ry="19.11"/>
<text text-anchor="middle" x="374.43" y="-94.56" font-family="Times,serif" font-size="14.00">s1</text>
</g>
<!-- s9 -->
<g id="node7" class="node">
<title>s9</title>
<ellipse fill="none" stroke="black" cx="454.65" cy="-99.61" rx="19.11" ry="19.11"/>
<text text-anchor="middle" x="454.65" y="-94.56" font-family="Times,serif" font-size="14.00">s9</text>
</g>
<!-- s1&#45;&gt;s9 -->
<g id="edge4" class="edge">
<title>s1&#45;&gt;s9</title>
<path fill="none" stroke="black" d="M393.97,-99.61C402.93,-99.61 413.91,-99.61 423.99,-99.61"/>
<polygon fill="black" stroke="black" points="423.73,-103.11 433.73,-99.61 423.73,-96.11 423.73,-103.11"/>
<text text-anchor="middle" x="414.54" y="-102.81" font-family="Times,serif" font-size="14.00">a</text>
</g>
<!-- s10 -->
<g id="node12" class="node">
<title>s10</title>
<ellipse fill="none" stroke="black" cx="540.22" cy="-99.61" rx="23.71" ry="23.71"/>
<text text-anchor="middle" x="540.22" y="-94.56" font-family="Times,serif" font-size="14.00">s10</text>
</g>
<!-- s9&#45;&gt;s10 -->
<g id="edge12" class="edge">
<title>s9&#45;&gt;s10</title>
<path fill="none" stroke="black" d="M474.19,-99.61C483.21,-99.61 494.34,-99.61 504.83,-99.61"/>
<polygon fill="black" stroke="black" points="504.73,-103.11 514.73,-99.61 504.73,-96.11 504.73,-103.11"/>
<text text-anchor="middle" x="495.13" y="-102.81" font-family="Times,serif" font-size="14.00">b</text>
</g>
<!-- s3&#45;&gt;s1 -->
<g id="edge6" class="edge">
<title>s3&#45;&gt;s1</title>
<path fill="none" stroke="black" d="M255.37,-146.77C278.23,-137.64 318.97,-121.37 346.09,-110.53"/>
<polygon fill="black" stroke="black" points="347.06,-113.91 355.05,-106.95 344.46,-107.41 347.06,-113.91"/>
<text text-anchor="middle" x="293.47" y="-142.12" font-family="Times,serif" font-size="14.00">λ</text>
</g>
<!-- s5&#45;&gt;s1 -->
<g id="edge8" class="edge">
<title>s5&#45;&gt;s1</title>
<path fill="none" stroke="black" d="M256.77,-99.61C279.21,-99.61 317.33,-99.61 343.87,-99.61"/>
<polygon fill="black" stroke="black" points="343.63,-103.11 353.63,-99.61 343.63,-96.11 343.63,-103.11"/>
<text text-anchor="middle" x="293.47" y="-102.81" font-family="Times,serif" font-size="14.00">λ</text>
</g>
<!-- s8 -->
<g id="node11" class="node">
<title>s8</title>
<ellipse fill="none" stroke="black" cx="293.47" cy="-44.61" rx="19.11" ry="19.11"/>
<text text-anchor="middle" x="293.47" y="-39.56" font-family="Times,serif" font-size="14.00">s8</text>
</g>
<!-- s7&#45;&gt;s8 -->
<g id="edge10" class="edge">
<title>s7&#45;&gt;s8</title>
<path fill="none" stroke="black" d="M200.27,-43.77C217.3,-43.93 243,-44.16 262.95,-44.34"/>
<polygon fill="black" stroke="black" points="262.66,-47.84 272.69,-44.43 262.72,-40.84 262.66,-47.84"/>
<text text-anchor="middle" x="237.25" y="-47.46" font-family="Times,serif" font-size="14.00">c</text>
</g>
<!-- s8&#45;&gt;s1 -->
<g id="edge11" class="edge">
<title>s8&#45;&gt;s1</title>
<path fill="none" stroke="black" d="M310.77,-53.01C318.95,-57.46 328.9,-63.21 337.33,-69.11 341.96,-72.35 346.71,-76.05 351.18,-79.74"/>
<polygon fill="black" stroke="black" points="348.81,-82.31 358.69,-86.13 353.35,-76.98 348.81,-82.31"/>
<text text-anchor="middle" x="333.95" y="-72.31" font-family="Times,serif" font-size="14.00">λ</text>
</g>
<!-- s10&#45;&gt;s11 -->
<g id="edge13" class="edge">
<title>s10&#45;&gt;s11</title>
<path fill="none" stroke="black" d="M564,-99.61C573.3,-99.61 584.31,-99.61 594.8,-99.61"/>
<polygon fill="black" stroke="black" points="594.77,-103.11 604.77,-99.61 594.77,-96.11 594.77,-103.11"/>
<text text-anchor="middle" x="585.31" y="-102.81" font-family="Times,serif" font-size="14.00">b</text>
</g>
</g>
</svg>
