<?xml version="1.0" encoding="UTF-8" standalone="no"?>
<!DOCTYPE svg PUBLIC "-//W3C//DTD SVG 1.1//EN"
 "http://www.w3.org/Graphics/SVG/1.1/DTD/svg11.dtd">
<!-- Generated by graphviz version 12.2.1 (20241206.2353)
 -->
<!-- Title: finite_state_machine Pages: 1 -->
<svg width="456pt" height="211pt"
 viewBox="0.00 0.00 456.04 211.22" xmlns="http://www.w3.org/2000/svg" xmlns:xlink="http://www.w3.org/1999/xlink">
<g id="graph0" class="graph" transform="scale(1 1) rotate(0) translate(4 207.22)">
<title>finite_state_machine</title>
<polygon fill="white" stroke="none" points="-4,4 -4,-207.22 452.04,-207.22 452.04,4 -4,4"/>
<text text-anchor="middle" x="224.02" y="-23.7" font-family="Times,serif" font-size="14.00">Regular Expression: </text>
<text text-anchor="middle" x="224.02" y="-7.2" font-family="Times,serif" font-size="14.00">xyzzy401</text>
<!-- s7 -->
<g id="node1" class="node">
<title>s7</title>
<ellipse fill="none" stroke="black" cx="424.93" cy="-180.11" rx="19.11" ry="19.11"/>
<ellipse fill="none" stroke="black" cx="424.93" cy="-180.11" rx="23.11" ry="23.11"/>
<text text-anchor="middle" x="424.93" y="-175.06" font-family="Times,serif" font-size="14.00">s7</text>
</g>
<!-- s0 -->
<g id="node2" class="node">
<title>s0</title>
<ellipse fill="none" stroke="black" cx="19.11" cy="-60.11" rx="19.11" ry="19.11"/>
<text text-anchor="middle" x="19.11" y="-55.06" font-family="Times,serif" font-size="14.00">s0</text>
</g>
<!-- s1 -->
<g id="node3" class="node">
<title>s1</title>
<ellipse fill="none" stroke="black" cx="99.32" cy="-60.11" rx="19.11" ry="19.11"/>
<text text-anchor="middle" x="99.32" y="-55.06" font-family="Times,serif" font-size="14.00">s1</text>
</g>
<!-- s0&#45;&gt;s1 -->
<g id="edge1" class="edge">
<title>s0&#45;&gt;s1</title>
<path fill="none" stroke="black" d="M38.64,-60.11C47.6,-60.11 58.58,-60.11 68.67,-60.11"/>
<polygon fill="black" stroke="black" points="68.41,-63.61 78.41,-60.11 68.41,-56.61 68.41,-63.61"/>
<text text-anchor="middle" x="59.22" y="-63.31" font-family="Times,serif" font-size="14.00">a</text>
</g>
<!-- s2 -->
<g id="node4" class="node">
<title>s2</title>
<ellipse fill="none" stroke="black" cx="179.54" cy="-60.11" rx="19.11" ry="19.11"/>
<text text-anchor="middle" x="179.54" y="-55.06" font-family="Times,serif" font-size="14.00">s2</text>
</g>
<!-- s1&#45;&gt;s2 -->
<g id="edge2" class="edge">
<title>s1&#45;&gt;s2</title>
<path fill="none" stroke="black" d="M118.86,-60.11C127.82,-60.11 138.8,-60.11 148.88,-60.11"/>
<polygon fill="black" stroke="black" points="148.62,-63.61 158.62,-60.11 148.62,-56.61 148.62,-63.61"/>
<text text-anchor="middle" x="139.43" y="-63.31" font-family="Times,serif" font-size="14.00">a</text>
</g>
<!-- s3 -->
<g id="node5" class="node">
<title>s3</title>
<ellipse fill="none" stroke="black" cx="260.5" cy="-100.11" rx="19.11" ry="19.11"/>
<text text-anchor="middle" x="260.5" y="-95.06" font-family="Times,serif" font-size="14.00">s3</text>
</g>
<!-- s2&#45;&gt;s3 -->
<g id="edge3" class="edge">
<title>s2&#45;&gt;s3</title>
<path fill="none" stroke="black" d="M198.76,-57.73C206.65,-57.44 215.8,-58.16 223.4,-61.61 230.57,-64.87 237,-70.28 242.37,-76.03"/>
<polygon fill="black" stroke="black" points="239.38,-77.91 248.49,-83.33 244.75,-73.42 239.38,-77.91"/>
<text text-anchor="middle" x="220.02" y="-64.81" font-family="Times,serif" font-size="14.00">b</text>
</g>
<!-- s4 -->
<g id="node6" class="node">
<title>s4</title>
<ellipse fill="none" stroke="black" cx="179.54" cy="-140.11" rx="19.11" ry="19.11"/>
<text text-anchor="middle" x="179.54" y="-135.06" font-family="Times,serif" font-size="14.00">s4</text>
</g>
<!-- s3&#45;&gt;s4 -->
<g id="edge4" class="edge">
<title>s3&#45;&gt;s4</title>
<path fill="none" stroke="black" d="M241.28,-97.73C233.39,-97.44 224.24,-98.16 216.65,-101.61 209.47,-104.87 203.04,-110.28 197.67,-116.03"/>
<polygon fill="black" stroke="black" points="195.29,-113.42 191.55,-123.33 200.66,-117.91 195.29,-113.42"/>
<text text-anchor="middle" x="220.02" y="-104.81" font-family="Times,serif" font-size="14.00">b</text>
</g>
<!-- s4&#45;&gt;s3 -->
<g id="edge5" class="edge">
<title>s4&#45;&gt;s3</title>
<path fill="none" stroke="black" d="M196.9,-131.82C207.31,-126.55 221.04,-119.59 232.98,-113.54"/>
<polygon fill="black" stroke="black" points="234.2,-116.85 241.54,-109.21 231.04,-110.6 234.2,-116.85"/>
<text text-anchor="middle" x="220.02" y="-124.51" font-family="Times,serif" font-size="14.00">λ</text>
</g>
<!-- s5 -->
<g id="node7" class="node">
<title>s5</title>
<ellipse fill="none" stroke="black" cx="260.5" cy="-180.11" rx="19.11" ry="19.11"/>
<text text-anchor="middle" x="260.5" y="-175.06" font-family="Times,serif" font-size="14.00">s5</text>
</g>
<!-- s4&#45;&gt;s5 -->
<g id="edge6" class="edge">
<title>s4&#45;&gt;s5</title>
<path fill="none" stroke="black" d="M196.9,-148.4C207.31,-153.67 221.04,-160.62 232.98,-166.67"/>
<polygon fill="black" stroke="black" points="231.04,-169.61 241.54,-171.01 234.2,-163.37 231.04,-169.61"/>
<text text-anchor="middle" x="220.02" y="-164.51" font-family="Times,serif" font-size="14.00">τ</text>
</g>
<!-- s6 -->
<g id="node8" class="node">
<title>s6</title>
<ellipse fill="none" stroke="black" cx="340.72" cy="-180.11" rx="19.11" ry="19.11"/>
<text text-anchor="middle" x="340.72" y="-175.06" font-family="Times,serif" font-size="14.00">s6</text>
</g>
<!-- s5&#45;&gt;s6 -->
<g id="edge7" class="edge">
<title>s5&#45;&gt;s6</title>
<path fill="none" stroke="black" d="M280.04,-180.11C289,-180.11 299.98,-180.11 310.06,-180.11"/>
<polygon fill="black" stroke="black" points="309.8,-183.61 319.8,-180.11 309.8,-176.61 309.8,-183.61"/>
<text text-anchor="middle" x="300.61" y="-183.31" font-family="Times,serif" font-size="14.00">c</text>
</g>
<!-- s6&#45;&gt;s7 -->
<g id="edge8" class="edge">
<title>s6&#45;&gt;s7</title>
<path fill="none" stroke="black" d="M359.96,-180.11C368.83,-180.11 379.78,-180.11 390.1,-180.11"/>
<polygon fill="black" stroke="black" points="389.82,-183.61 399.82,-180.11 389.82,-176.61 389.82,-183.61"/>
<text text-anchor="middle" x="380.83" y="-183.31" font-family="Times,serif" font-size="14.00">c</text>
</g>
</g>
</svg>
