<?xml version="1.0" encoding="UTF-8" standalone="no"?>
<!DOCTYPE svg PUBLIC "-//W3C//DTD SVG 1.1//EN"
 "http://www.w3.org/Graphics/SVG/1.1/DTD/svg11.dtd">
<!-- Generated by graphviz version 2.38.0 (20140413.2041)
 -->
<!-- Title: finite_state_machine Pages: 1 -->
<svg width="210pt" height="156pt"
 viewBox="0.00 0.00 210.00 156.00" xmlns="http://www.w3.org/2000/svg" xmlns:xlink="http://www.w3.org/1999/xlink">
<g id="graph0" class="graph" transform="scale(1 1) rotate(0) translate(4 152)">
<title>finite_state_machine</title>
<polygon fill="white" stroke="none" points="-4,4 -4,-152 206,-152 206,4 -4,4"/>
<!-- s3 -->
<g id="node1" class="node"><title>s3</title>
<ellipse fill="none" stroke="black" cx="101" cy="-22" rx="18" ry="18"/>
<ellipse fill="none" stroke="black" cx="101" cy="-22" rx="22" ry="22"/>
<text text-anchor="middle" x="101" y="-17.8" font-family="Times,serif" font-size="14.00">s3</text>
</g>
<!-- s0 -->
<g id="node2" class="node"><title>s0</title>
<ellipse fill="none" stroke="black" cx="101" cy="-130" rx="18" ry="18"/>
<text text-anchor="middle" x="101" y="-125.8" font-family="Times,serif" font-size="14.00">s0</text>
</g>
<!-- s1 -->
<g id="node3" class="node"><title>s1</title>
<ellipse fill="none" stroke="black" cx="184" cy="-100" rx="18" ry="18"/>
<text text-anchor="middle" x="184" y="-95.8" font-family="Times,serif" font-size="14.00">s1</text>
</g>
<!-- s0&#45;&gt;s1 -->
<g id="edge1" class="edge"><title>s0&#45;&gt;s1</title>
<path fill="none" stroke="black" d="M118.003,-124.073C129.135,-119.95 144.223,-114.362 157.059,-109.608"/>
<polygon fill="black" stroke="black" points="158.591,-112.773 166.753,-106.017 156.16,-106.208 158.591,-112.773"/>
<text text-anchor="middle" x="144.5" y="-117.8" font-family="Times,serif" font-size="14.00">x</text>
</g>
<!-- s2 -->
<g id="node4" class="node"><title>s2</title>
<ellipse fill="none" stroke="black" cx="18" cy="-96" rx="18" ry="18"/>
<text text-anchor="middle" x="18" y="-91.8" font-family="Times,serif" font-size="14.00">s2</text>
</g>
<!-- s0&#45;&gt;s2 -->
<g id="edge2" class="edge"><title>s0&#45;&gt;s2</title>
<path fill="none" stroke="black" d="M84.0303,-123.297C72.7223,-118.55 57.321,-112.085 44.3451,-106.639"/>
<polygon fill="black" stroke="black" points="45.5783,-103.361 35.003,-102.717 42.869,-109.815 45.5783,-103.361"/>
<text text-anchor="middle" x="57.5" y="-115.8" font-family="Times,serif" font-size="14.00">λ</text>
</g>
<!-- s1&#45;&gt;s2 -->
<g id="edge3" class="edge"><title>s1&#45;&gt;s2</title>
<path fill="none" stroke="black" d="M166.301,-96.098C154.326,-93.5063 137.765,-90.3423 123,-89 96.9102,-86.6282 67.0704,-89.1773 46.0647,-91.8403"/>
<polygon fill="black" stroke="black" points="45.3881,-88.4001 35.9521,-93.2179 46.333,-95.336 45.3881,-88.4001"/>
<text text-anchor="middle" x="101" y="-91.8" font-family="Times,serif" font-size="14.00">x</text>
</g>
<!-- s2&#45;&gt;s3 -->
<g id="edge5" class="edge"><title>s2&#45;&gt;s3</title>
<path fill="none" stroke="black" d="M28.973,-81.1349C35.4635,-72.0995 44.4711,-60.6722 54,-52 59.6234,-46.8821 66.2074,-42.0415 72.6076,-37.8021"/>
<polygon fill="black" stroke="black" points="74.5319,-40.7264 81.1139,-32.4241 70.7911,-34.8097 74.5319,-40.7264"/>
<text text-anchor="middle" x="57.5" y="-54.8" font-family="Times,serif" font-size="14.00">τ</text>
</g>
<!-- s2&#45;&gt;s0 -->
<g id="edge4" class="edge"><title>s2&#45;&gt;s0</title>
<path fill="none" stroke="black" d="M29.7949,-109.638C36.0588,-116.469 44.5654,-124.099 54,-128 59.7735,-130.387 66.3093,-131.503 72.6037,-131.902"/>
<polygon fill="black" stroke="black" points="72.7609,-135.403 82.7918,-131.993 72.8235,-128.403 72.7609,-135.403"/>
<text text-anchor="middle" x="57.5" y="-131.8" font-family="Times,serif" font-size="14.00">λ</text>
</g>
</g>
</svg>
