<?xml version="1.0" encoding="UTF-8" standalone="no"?>
<!DOCTYPE svg PUBLIC "-//W3C//DTD SVG 1.1//EN"
 "http://www.w3.org/Graphics/SVG/1.1/DTD/svg11.dtd">
<!-- Generated by graphviz version 12.2.1 (20241206.2353)
 -->
<!-- Title: finite_state_machine Pages: 1 -->
<svg width="266pt" height="360pt"
 viewBox="0.00 0.00 265.68 360.00" xmlns="http://www.w3.org/2000/svg" xmlns:xlink="http://www.w3.org/1999/xlink">
<g id="graph0" class="graph" transform="scale(0.851235 0.851235) rotate(0) translate(4 418.91)">
<title>finite_state_machine</title>
<polygon fill="white" stroke="none" points="-4,4 -4,-418.91 308.11,-418.91 308.11,4 -4,4"/>
<text text-anchor="middle" x="152.06" y="-23.7" font-family="Times,serif" font-size="14.00">Regular Expression: </text>
<text text-anchor="middle" x="152.06" y="-7.2" font-family="Times,serif" font-size="14.00">xyzzy401</text>
<!-- s5 -->
<g id="node1" class="node">
<title>s5</title>
<ellipse fill="none" stroke="black" cx="281" cy="-391.81" rx="19.11" ry="19.11"/>
<ellipse fill="none" stroke="black" cx="281" cy="-391.81" rx="23.11" ry="23.11"/>
<text text-anchor="middle" x="281" y="-386.76" font-family="Times,serif" font-size="14.00">s5</text>
</g>
<!-- s0 -->
<g id="node2" class="node">
<title>s0</title>
<ellipse fill="none" stroke="black" cx="19.11" cy="-71.81" rx="19.11" ry="19.11"/>
<text text-anchor="middle" x="19.11" y="-66.76" font-family="Times,serif" font-size="14.00">s0</text>
</g>
<!-- s1 -->
<g id="node3" class="node">
<title>s1</title>
<ellipse fill="none" stroke="black" cx="99.32" cy="-71.81" rx="19.11" ry="19.11"/>
<text text-anchor="middle" x="99.32" y="-66.76" font-family="Times,serif" font-size="14.00">s1</text>
</g>
<!-- s0&#45;&gt;s1 -->
<g id="edge1" class="edge">
<title>s0&#45;&gt;s1</title>
<path fill="none" stroke="black" d="M38.64,-71.81C47.6,-71.81 58.58,-71.81 68.67,-71.81"/>
<polygon fill="black" stroke="black" points="68.41,-75.31 78.41,-71.81 68.41,-68.31 68.41,-75.31"/>
<text text-anchor="middle" x="59.22" y="-75.01" font-family="Times,serif" font-size="14.00">a</text>
</g>
<!-- s2 -->
<g id="node4" class="node">
<title>s2</title>
<ellipse fill="none" stroke="black" cx="196.04" cy="-191.81" rx="19.11" ry="19.11"/>
<text text-anchor="middle" x="196.04" y="-186.76" font-family="Times,serif" font-size="14.00">s2</text>
</g>
<!-- s1&#45;&gt;s2 -->
<g id="edge2" class="edge">
<title>s1&#45;&gt;s2</title>
<path fill="none" stroke="black" d="M118.26,-67.18C130.89,-65.05 147.51,-64.62 158.93,-73.31 185.62,-93.61 193.19,-133.14 195.03,-160.95"/>
<polygon fill="black" stroke="black" points="191.54,-161.06 195.45,-170.91 198.53,-160.77 191.54,-161.06"/>
<text text-anchor="middle" x="147.68" y="-76.51" font-family="Times,serif" font-size="14.00">a&#45;z</text>
</g>
<!-- s1&#45;&gt;s2 -->
<g id="edge3" class="edge">
<title>s1&#45;&gt;s2</title>
<path fill="none" stroke="black" d="M113.41,-58.35C125.97,-47.07 145.04,-34.43 158.93,-45.31 176.97,-59.44 187.22,-122.7 191.9,-161.32"/>
<polygon fill="black" stroke="black" points="188.41,-161.63 193.03,-171.17 195.36,-160.83 188.41,-161.63"/>
<text text-anchor="middle" x="147.68" y="-48.51" font-family="Times,serif" font-size="14.00">A&#45;Z</text>
</g>
<!-- s1&#45;&gt;s2 -->
<g id="edge4" class="edge">
<title>s1&#45;&gt;s2</title>
<path fill="none" stroke="black" d="M112.42,-86.16C124.41,-100.49 143.22,-123.2 158.93,-143.31 165.09,-151.19 171.66,-159.92 177.49,-167.78"/>
<polygon fill="black" stroke="black" points="174.5,-169.62 183.26,-175.59 180.14,-165.47 174.5,-169.62"/>
<text text-anchor="middle" x="147.68" y="-146.51" font-family="Times,serif" font-size="14.00">_</text>
</g>
<!-- s3 -->
<g id="node5" class="node">
<title>s3</title>
<ellipse fill="none" stroke="black" cx="99.32" cy="-271.81" rx="19.11" ry="19.11"/>
<text text-anchor="middle" x="99.32" y="-266.76" font-family="Times,serif" font-size="14.00">s3</text>
</g>
<!-- s2&#45;&gt;s3 -->
<g id="edge5" class="edge">
<title>s2&#45;&gt;s3</title>
<path fill="none" stroke="black" d="M179.48,-201.59C167.29,-209.53 150.15,-221.35 136.43,-233.31 130.81,-238.21 125.11,-243.88 119.96,-249.34"/>
<polygon fill="black" stroke="black" points="117.58,-246.75 113.41,-256.49 122.75,-251.48 117.58,-246.75"/>
<text text-anchor="middle" x="147.68" y="-236.51" font-family="Times,serif" font-size="14.00">a&#45;z</text>
</g>
<!-- s2&#45;&gt;s3 -->
<g id="edge6" class="edge">
<title>s2&#45;&gt;s3</title>
<path fill="none" stroke="black" d="M176.86,-188.36C164.44,-187.02 148.17,-187.37 136.43,-195.31 120.71,-205.94 111.67,-225.32 106.56,-241.91"/>
<polygon fill="black" stroke="black" points="103.24,-240.79 104.01,-251.35 109.99,-242.61 103.24,-240.79"/>
<text text-anchor="middle" x="147.68" y="-198.51" font-family="Times,serif" font-size="14.00">A&#45;Z</text>
</g>
<!-- s2&#45;&gt;s3 -->
<g id="edge7" class="edge">
<title>s2&#45;&gt;s3</title>
<path fill="none" stroke="black" d="M181.61,-178.94C169.14,-168.61 150.44,-157.32 136.43,-167.31 113.05,-183.96 104.67,-216.81 101.73,-241.26"/>
<polygon fill="black" stroke="black" points="98.27,-240.69 100.83,-250.97 105.24,-241.34 98.27,-240.69"/>
<text text-anchor="middle" x="147.68" y="-170.51" font-family="Times,serif" font-size="14.00">_</text>
</g>
<!-- s2&#45;&gt;s3 -->
<g id="edge8" class="edge">
<title>s2&#45;&gt;s3</title>
<path fill="none" stroke="black" d="M192.89,-210.91C188.59,-245.28 177.7,-315.32 158.93,-329.81 151.01,-335.92 145.17,-334.66 136.43,-329.81 124.96,-323.44 116.66,-311.74 110.93,-300.51"/>
<polygon fill="black" stroke="black" points="114.14,-299.12 106.83,-291.45 107.77,-302.01 114.14,-299.12"/>
<text text-anchor="middle" x="147.68" y="-337.13" font-family="Times,serif" font-size="14.00">0&#45;9</text>
</g>
<!-- s2&#45;&gt;s3 -->
<g id="edge9" class="edge">
<title>s2&#45;&gt;s3</title>
<path fill="none" stroke="black" d="M194.15,-211.18C191.93,-234.3 184.36,-272.07 158.93,-289.81 148.94,-296.77 136.17,-293.92 125.1,-288.62"/>
<polygon fill="black" stroke="black" points="126.91,-285.63 116.48,-283.79 123.49,-291.73 126.91,-285.63"/>
<text text-anchor="middle" x="147.68" y="-297.13" font-family="Times,serif" font-size="14.00">λ</text>
</g>
<!-- s3&#45;&gt;s2 -->
<g id="edge10" class="edge">
<title>s3&#45;&gt;s2</title>
<path fill="none" stroke="black" d="M118.54,-268.22C130.97,-265.05 147.25,-259.38 158.93,-249.81 168.77,-241.74 176.7,-230.26 182.6,-219.63"/>
<polygon fill="black" stroke="black" points="185.68,-221.29 187.12,-210.8 179.45,-218.1 185.68,-221.29"/>
<text text-anchor="middle" x="147.68" y="-265.54" font-family="Times,serif" font-size="14.00">λ</text>
</g>
<!-- s4 -->
<g id="node6" class="node">
<title>s4</title>
<ellipse fill="none" stroke="black" cx="196.04" cy="-391.81" rx="19.11" ry="19.11"/>
<text text-anchor="middle" x="196.04" y="-386.76" font-family="Times,serif" font-size="14.00">s4</text>
</g>
<!-- s3&#45;&gt;s4 -->
<g id="edge11" class="edge">
<title>s3&#45;&gt;s4</title>
<path fill="none" stroke="black" d="M104.94,-290.36C110.17,-308.42 120.16,-335.84 136.43,-354.81 145.04,-364.84 157.05,-373.08 167.97,-379.21"/>
<polygon fill="black" stroke="black" points="166.12,-382.2 176.6,-383.74 169.37,-376 166.12,-382.2"/>
<text text-anchor="middle" x="147.68" y="-376.31" font-family="Times,serif" font-size="14.00">τ</text>
</g>
<!-- s4&#45;&gt;s5 -->
<g id="edge12" class="edge">
<title>s4&#45;&gt;s5</title>
<path fill="none" stroke="black" d="M215.45,-391.81C224.47,-391.81 235.62,-391.81 246.1,-391.81"/>
<polygon fill="black" stroke="black" points="245.99,-395.31 255.99,-391.81 245.99,-388.31 245.99,-395.31"/>
<text text-anchor="middle" x="236.52" y="-395.01" font-family="Times,serif" font-size="14.00">d</text>
</g>
</g>
</svg>
