<?xml version="1.0" encoding="UTF-8" standalone="no"?>
<!DOCTYPE svg PUBLIC "-//W3C//DTD SVG 1.1//EN"
 "http://www.w3.org/Graphics/SVG/1.1/DTD/svg11.dtd">
<!-- Generated by graphviz version 12.2.1 (20241206.2353)
 -->
<!-- Title: finite_state_machine Pages: 1 -->
<svg width="516pt" height="205pt"
 viewBox="0.00 0.00 515.68 204.82" xmlns="http://www.w3.org/2000/svg" xmlns:xlink="http://www.w3.org/1999/xlink">
<g id="graph0" class="graph" transform="scale(1 1) rotate(0) translate(4 200.82)">
<title>finite_state_machine</title>
<polygon fill="white" stroke="none" points="-4,4 -4,-200.82 511.68,-200.82 511.68,4 -4,4"/>
<text text-anchor="middle" x="253.84" y="-23.7" font-family="Times,serif" font-size="14.00">Regular Expression: </text>
<text text-anchor="middle" x="253.84" y="-7.2" font-family="Times,serif" font-size="14.00">xyzzy401</text>
<!-- s1 -->
<g id="node1" class="node">
<title>s1</title>
<ellipse fill="none" stroke="black" cx="484.57" cy="-124.71" rx="19.11" ry="19.11"/>
<ellipse fill="none" stroke="black" cx="484.57" cy="-124.71" rx="23.11" ry="23.11"/>
<text text-anchor="middle" x="484.57" y="-119.66" font-family="Times,serif" font-size="14.00">s1</text>
</g>
<!-- s0 -->
<g id="node2" class="node">
<title>s0</title>
<ellipse fill="none" stroke="black" cx="19.11" cy="-121.71" rx="19.11" ry="19.11"/>
<text text-anchor="middle" x="19.11" y="-116.66" font-family="Times,serif" font-size="14.00">s0</text>
</g>
<!-- s2 -->
<g id="node3" class="node">
<title>s2</title>
<ellipse fill="none" stroke="black" cx="99.32" cy="-177.71" rx="19.11" ry="19.11"/>
<text text-anchor="middle" x="99.32" y="-172.66" font-family="Times,serif" font-size="14.00">s2</text>
</g>
<!-- s0&#45;&gt;s2 -->
<g id="edge1" class="edge">
<title>s0&#45;&gt;s2</title>
<path fill="none" stroke="black" d="M35.19,-132.51C46.22,-140.41 61.43,-151.3 74.15,-160.41"/>
<polygon fill="black" stroke="black" points="71.89,-163.09 82.06,-166.07 75.96,-157.4 71.89,-163.09"/>
<text text-anchor="middle" x="59.22" y="-154.59" font-family="Times,serif" font-size="14.00">a</text>
</g>
<!-- s5 -->
<g id="node4" class="node">
<title>s5</title>
<ellipse fill="none" stroke="black" cx="99.32" cy="-121.71" rx="19.11" ry="19.11"/>
<text text-anchor="middle" x="99.32" y="-116.66" font-family="Times,serif" font-size="14.00">s5</text>
</g>
<!-- s0&#45;&gt;s5 -->
<g id="edge2" class="edge">
<title>s0&#45;&gt;s5</title>
<path fill="none" stroke="black" d="M38.64,-121.71C47.6,-121.71 58.58,-121.71 68.67,-121.71"/>
<polygon fill="black" stroke="black" points="68.41,-125.21 78.41,-121.71 68.41,-118.21 68.41,-125.21"/>
<text text-anchor="middle" x="59.22" y="-124.91" font-family="Times,serif" font-size="14.00">a</text>
</g>
<!-- s8 -->
<g id="node5" class="node">
<title>s8</title>
<ellipse fill="none" stroke="black" cx="99.32" cy="-65.71" rx="19.11" ry="19.11"/>
<text text-anchor="middle" x="99.32" y="-60.66" font-family="Times,serif" font-size="14.00">s8</text>
</g>
<!-- s0&#45;&gt;s8 -->
<g id="edge3" class="edge">
<title>s0&#45;&gt;s8</title>
<path fill="none" stroke="black" d="M35.19,-110.92C46.22,-103.01 61.43,-92.13 74.15,-83.02"/>
<polygon fill="black" stroke="black" points="75.96,-86.03 82.06,-77.36 71.89,-80.33 75.96,-86.03"/>
<text text-anchor="middle" x="59.22" y="-98.59" font-family="Times,serif" font-size="14.00">a</text>
</g>
<!-- s3 -->
<g id="node6" class="node">
<title>s3</title>
<ellipse fill="none" stroke="black" cx="187.79" cy="-177.71" rx="19.11" ry="19.11"/>
<text text-anchor="middle" x="187.79" y="-172.66" font-family="Times,serif" font-size="14.00">s3</text>
</g>
<!-- s2&#45;&gt;s3 -->
<g id="edge4" class="edge">
<title>s2&#45;&gt;s3</title>
<path fill="none" stroke="black" d="M118.66,-177.71C129.89,-177.71 144.53,-177.71 157.36,-177.71"/>
<polygon fill="black" stroke="black" points="156.96,-181.21 166.96,-177.71 156.96,-174.21 156.96,-181.21"/>
<text text-anchor="middle" x="143.56" y="-180.91" font-family="Times,serif" font-size="14.00">λ</text>
</g>
<!-- s6 -->
<g id="node8" class="node">
<title>s6</title>
<ellipse fill="none" stroke="black" cx="187.79" cy="-121.71" rx="19.11" ry="19.11"/>
<text text-anchor="middle" x="187.79" y="-116.66" font-family="Times,serif" font-size="14.00">s6</text>
</g>
<!-- s5&#45;&gt;s6 -->
<g id="edge7" class="edge">
<title>s5&#45;&gt;s6</title>
<path fill="none" stroke="black" d="M118.66,-121.71C129.89,-121.71 144.53,-121.71 157.36,-121.71"/>
<polygon fill="black" stroke="black" points="156.96,-125.21 166.96,-121.71 156.96,-118.21 156.96,-125.21"/>
<text text-anchor="middle" x="143.56" y="-124.91" font-family="Times,serif" font-size="14.00">Ш</text>
</g>
<!-- s9 -->
<g id="node10" class="node">
<title>s9</title>
<ellipse fill="none" stroke="black" cx="187.79" cy="-65.71" rx="19.11" ry="19.11"/>
<text text-anchor="middle" x="187.79" y="-60.66" font-family="Times,serif" font-size="14.00">s9</text>
</g>
<!-- s8&#45;&gt;s9 -->
<g id="edge10" class="edge">
<title>s8&#45;&gt;s9</title>
<path fill="none" stroke="black" d="M118.66,-65.71C129.89,-65.71 144.53,-65.71 157.36,-65.71"/>
<polygon fill="black" stroke="black" points="156.96,-69.21 166.96,-65.71 156.96,-62.21 156.96,-69.21"/>
<text text-anchor="middle" x="143.56" y="-68.91" font-family="Times,serif" font-size="14.00">a</text>
</g>
<!-- s4 -->
<g id="node7" class="node">
<title>s4</title>
<ellipse fill="none" stroke="black" cx="334.18" cy="-177.71" rx="19.11" ry="19.11"/>
<text text-anchor="middle" x="334.18" y="-172.66" font-family="Times,serif" font-size="14.00">s4</text>
</g>
<!-- s3&#45;&gt;s4 -->
<g id="edge5" class="edge">
<title>s3&#45;&gt;s4</title>
<path fill="none" stroke="black" d="M207.37,-177.71C231.63,-177.71 274.39,-177.71 303.25,-177.71"/>
<polygon fill="black" stroke="black" points="303.16,-181.21 313.16,-177.71 303.16,-174.21 303.16,-181.21"/>
<text text-anchor="middle" x="228.27" y="-180.91" font-family="Times,serif" font-size="14.00">b</text>
</g>
<!-- s4&#45;&gt;s1 -->
<g id="edge6" class="edge">
<title>s4&#45;&gt;s1</title>
<path fill="none" stroke="black" d="M352.49,-171.53C376.87,-162.82 421.72,-146.81 452.09,-135.96"/>
<polygon fill="black" stroke="black" points="452.89,-139.39 461.13,-132.73 450.54,-132.8 452.89,-139.39"/>
<text text-anchor="middle" x="395" y="-167.51" font-family="Times,serif" font-size="14.00">λ</text>
</g>
<!-- s7 -->
<g id="node9" class="node">
<title>s7</title>
<ellipse fill="none" stroke="black" cx="334.18" cy="-123.71" rx="19.11" ry="19.11"/>
<text text-anchor="middle" x="334.18" y="-118.66" font-family="Times,serif" font-size="14.00">s7</text>
</g>
<!-- s6&#45;&gt;s7 -->
<g id="edge8" class="edge">
<title>s6&#45;&gt;s7</title>
<path fill="none" stroke="black" d="M207.37,-121.97C231.63,-122.31 274.39,-122.9 303.25,-123.3"/>
<polygon fill="black" stroke="black" points="303.11,-126.8 313.16,-123.44 303.21,-119.8 303.11,-126.8"/>
<text text-anchor="middle" x="228.27" y="-125.5" font-family="Times,serif" font-size="14.00">b</text>
</g>
<!-- s7&#45;&gt;s1 -->
<g id="edge9" class="edge">
<title>s7&#45;&gt;s1</title>
<path fill="none" stroke="black" d="M353.67,-123.84C377.75,-124 420.26,-124.29 450.08,-124.49"/>
<polygon fill="black" stroke="black" points="449.67,-127.99 459.69,-124.55 449.72,-120.99 449.67,-127.99"/>
<text text-anchor="middle" x="395" y="-127.46" font-family="Times,serif" font-size="14.00">λ</text>
</g>
<!-- s10 -->
<g id="node11" class="node">
<title>s10</title>
<ellipse fill="none" stroke="black" cx="273.36" cy="-65.71" rx="23.71" ry="23.71"/>
<text text-anchor="middle" x="273.36" y="-60.66" font-family="Times,serif" font-size="14.00">s10</text>
</g>
<!-- s9&#45;&gt;s10 -->
<g id="edge11" class="edge">
<title>s9&#45;&gt;s10</title>
<path fill="none" stroke="black" d="M207.33,-65.71C216.35,-65.71 227.48,-65.71 237.97,-65.71"/>
<polygon fill="black" stroke="black" points="237.87,-69.21 247.87,-65.71 237.87,-62.21 237.87,-69.21"/>
<text text-anchor="middle" x="228.27" y="-68.91" font-family="Times,serif" font-size="14.00">a</text>
</g>
<!-- s11 -->
<g id="node12" class="node">
<title>s11</title>
<ellipse fill="none" stroke="black" cx="395" cy="-64.71" rx="23.71" ry="23.71"/>
<text text-anchor="middle" x="395" y="-59.66" font-family="Times,serif" font-size="14.00">s11</text>
</g>
<!-- s10&#45;&gt;s11 -->
<g id="edge12" class="edge">
<title>s10&#45;&gt;s11</title>
<path fill="none" stroke="black" d="M297.43,-65.52C315.05,-65.37 339.63,-65.17 359.58,-65"/>
<polygon fill="black" stroke="black" points="359.52,-68.5 369.49,-64.92 359.46,-61.5 359.52,-68.5"/>
<text text-anchor="middle" x="334.18" y="-68.56" font-family="Times,serif" font-size="14.00">b</text>
</g>
<!-- s11&#45;&gt;s1 -->
<g id="edge13" class="edge">
<title>s11&#45;&gt;s1</title>
<path fill="none" stroke="black" d="M415.67,-76.36C424.31,-81.63 434.52,-88.05 443.47,-94.21 447.91,-97.28 452.55,-100.64 457.02,-103.97"/>
<polygon fill="black" stroke="black" points="454.58,-106.51 464.66,-109.77 458.81,-100.94 454.58,-106.51"/>
<text text-anchor="middle" x="440.09" y="-97.41" font-family="Times,serif" font-size="14.00">λ</text>
</g>
</g>
</svg>
