<?xml version="1.0" encoding="UTF-8" standalone="no"?>
<!DOCTYPE svg PUBLIC "-//W3C//DTD SVG 1.1//EN"
 "http://www.w3.org/Graphics/SVG/1.1/DTD/svg11.dtd">
<!-- Generated by graphviz version 12.2.1 (20241206.2353)
 -->
<!-- Title: finite_state_machine Pages: 1 -->
<svg width="100pt" height="360pt"
 viewBox="0.00 0.00 100.33 360.00" xmlns="http://www.w3.org/2000/svg" xmlns:xlink="http://www.w3.org/1999/xlink">
<g id="graph0" class="graph" transform="scale(0.727053 0.727053) rotate(0) translate(4 491.15)">
<title>finite_state_machine</title>
<polygon fill="white" stroke="none" points="-4,4 -4,-491.15 134,-491.15 134,4 -4,4"/>
<text text-anchor="middle" x="65" y="-23.7" font-family="Times,serif" font-size="14.00">Regular Expression: </text>
<text text-anchor="middle" x="65" y="-7.2" font-family="Times,serif" font-size="14.00">xyzzy401</text>
<!-- s1 -->
<g id="node1" class="node">
<title>s1</title>
<ellipse fill="none" stroke="black" cx="105.48" cy="-209.63" rx="19.11" ry="19.11"/>
<ellipse fill="none" stroke="black" cx="105.48" cy="-209.63" rx="23.11" ry="23.11"/>
<text text-anchor="middle" x="105.48" y="-204.58" font-family="Times,serif" font-size="14.00">s1</text>
</g>
<!-- s0 -->
<g id="node2" class="node">
<title>s0</title>
<ellipse fill="none" stroke="black" cx="20.52" cy="-209.63" rx="19.11" ry="19.11"/>
<text text-anchor="middle" x="20.52" y="-204.58" font-family="Times,serif" font-size="14.00">s0</text>
</g>
<!-- s0&#45;&gt;s1 -->
<g id="edge1" class="edge">
<title>s0&#45;&gt;s1</title>
<path fill="none" stroke="black" d="M21.12,-228.99C20.46,-283.54 21.88,-436.53 57.62,-467.63 92.1,-497.62 101.32,-321.9 103.7,-244.67"/>
<polygon fill="black" stroke="black" points="107.19,-244.77 103.98,-234.68 100.2,-244.58 107.19,-244.77"/>
<text text-anchor="middle" x="61" y="-473.85" font-family="Times,serif" font-size="14.00">λ</text>
</g>
<!-- s0&#45;&gt;s1 -->
<g id="edge2" class="edge">
<title>s0&#45;&gt;s1</title>
<path fill="none" stroke="black" d="M21.67,-229.11C22.52,-277.7 27.63,-402.19 57.62,-427.63 86.52,-452.13 98.62,-311.7 102.72,-244.24"/>
<polygon fill="black" stroke="black" points="106.2,-244.63 103.29,-234.44 99.21,-244.22 106.2,-244.63"/>
<text text-anchor="middle" x="61" y="-433.66" font-family="Times,serif" font-size="14.00">λ</text>
</g>
<!-- s0&#45;&gt;s1 -->
<g id="edge3" class="edge">
<title>s0&#45;&gt;s1</title>
<path fill="none" stroke="black" d="M22.46,-228.9C24.95,-270.74 33.27,-367.72 57.62,-387.63 80.95,-406.7 95.34,-301.07 101.3,-244.12"/>
<polygon fill="black" stroke="black" points="104.77,-244.58 102.29,-234.28 97.81,-243.88 104.77,-244.58"/>
<text text-anchor="middle" x="61" y="-393.1" font-family="Times,serif" font-size="14.00">λ</text>
</g>
<!-- s0&#45;&gt;s1 -->
<g id="edge4" class="edge">
<title>s0&#45;&gt;s1</title>
<path fill="none" stroke="black" d="M23.66,-228.73C27.96,-263.1 38.86,-333.14 57.62,-347.63 94.15,-375.82 102.42,-293.8 104.15,-244.3"/>
<polygon fill="black" stroke="black" points="107.64,-244.69 104.41,-234.6 100.64,-244.51 107.64,-244.69"/>
<text text-anchor="middle" x="61" y="-354.56" font-family="Times,serif" font-size="14.00">λ</text>
</g>
<!-- s0&#45;&gt;s1 -->
<g id="edge5" class="edge">
<title>s0&#45;&gt;s1</title>
<path fill="none" stroke="black" d="M22.4,-229C24.63,-252.12 32.19,-289.89 57.62,-307.63 83.27,-325.51 95.35,-279.14 100.68,-244.24"/>
<polygon fill="black" stroke="black" points="104.13,-244.83 102.03,-234.45 97.2,-243.87 104.13,-244.83"/>
<text text-anchor="middle" x="61" y="-313.42" font-family="Times,serif" font-size="14.00">λ</text>
</g>
<!-- s0&#45;&gt;s1 -->
<g id="edge6" class="edge">
<title>s0&#45;&gt;s1</title>
<path fill="none" stroke="black" d="M27.4,-227.89C32.87,-241.53 42.49,-259.22 57.62,-267.63 72.95,-276.14 85.17,-259.41 93.29,-241.77"/>
<polygon fill="black" stroke="black" points="96.39,-243.44 97,-232.86 89.93,-240.74 96.39,-243.44"/>
<text text-anchor="middle" x="61" y="-273.04" font-family="Times,serif" font-size="14.00">λ</text>
</g>
<!-- s0&#45;&gt;s1 -->
<g id="edge7" class="edge">
<title>s0&#45;&gt;s1</title>
<path fill="none" stroke="black" d="M37.09,-219.36C43.25,-222.67 50.53,-225.96 57.62,-227.63 63.41,-228.99 69.45,-228.35 75.18,-226.67"/>
<polygon fill="black" stroke="black" points="76.33,-229.98 84.3,-222.99 73.71,-223.49 76.33,-229.98"/>
<text text-anchor="middle" x="61" y="-231.56" font-family="Times,serif" font-size="14.00">λ</text>
</g>
<!-- s0&#45;&gt;s1 -->
<g id="edge8" class="edge">
<title>s0&#45;&gt;s1</title>
<path fill="none" stroke="black" d="M39.87,-208.11C45.56,-207.7 51.85,-207.33 57.62,-207.13 61.86,-206.98 66.32,-207 70.72,-207.11"/>
<polygon fill="black" stroke="black" points="70.43,-210.6 80.57,-207.56 70.74,-203.61 70.43,-210.6"/>
<text text-anchor="middle" x="61" y="-210.33" font-family="Times,serif" font-size="14.00">λ</text>
</g>
<!-- s0&#45;&gt;s1 -->
<g id="edge9" class="edge">
<title>s0&#45;&gt;s1</title>
<path fill="none" stroke="black" d="M35.66,-197.7C41.96,-193.13 49.74,-188.47 57.62,-186.13 64.5,-184.09 71.57,-185.53 78.08,-188.5"/>
<polygon fill="black" stroke="black" points="76.02,-191.35 86.42,-193.38 79.56,-185.31 76.02,-191.35"/>
<text text-anchor="middle" x="61" y="-189.33" font-family="Times,serif" font-size="14.00">λ</text>
</g>
<!-- s0&#45;&gt;s1 -->
<g id="edge10" class="edge">
<title>s0&#45;&gt;s1</title>
<path fill="none" stroke="black" d="M28.74,-192.03C36.2,-176.8 48.89,-158.24 64.38,-165.13 72.35,-168.67 79.4,-174.67 85.28,-181.14"/>
<polygon fill="black" stroke="black" points="82.56,-183.34 91.59,-188.88 87.99,-178.92 82.56,-183.34"/>
<text text-anchor="middle" x="61" y="-168.33" font-family="Times,serif" font-size="14.00">λ</text>
</g>
<!-- s0&#45;&gt;s1 -->
<g id="edge11" class="edge">
<title>s0&#45;&gt;s1</title>
<path fill="none" stroke="black" d="M25.96,-190.98C30.83,-175.15 40.35,-153.4 57.62,-143.13 75.07,-132.75 87.7,-154.98 95.41,-176.48"/>
<polygon fill="black" stroke="black" points="92,-177.3 98.44,-185.72 98.65,-175.12 92,-177.3"/>
<text text-anchor="middle" x="61" y="-146.33" font-family="Times,serif" font-size="14.00">λ</text>
</g>
<!-- s0&#45;&gt;s1 -->
<g id="edge12" class="edge">
<title>s0&#45;&gt;s1</title>
<path fill="none" stroke="black" d="M23.17,-190.37C26.13,-169.1 34.43,-135.78 57.62,-120.13 81.06,-104.31 93.56,-143.9 99.61,-175.39"/>
<polygon fill="black" stroke="black" points="96.12,-175.77 101.29,-185.02 103.01,-174.56 96.12,-175.77"/>
<text text-anchor="middle" x="61" y="-123.33" font-family="Times,serif" font-size="14.00">λ</text>
</g>
<!-- s0&#45;&gt;s1 -->
<g id="edge13" class="edge">
<title>s0&#45;&gt;s1</title>
<path fill="none" stroke="black" d="M21.27,-190.04C22.13,-163.72 28.08,-117.73 57.62,-96.13 87.46,-74.31 98.38,-134.11 102.31,-174.98"/>
<polygon fill="black" stroke="black" points="98.82,-175.25 103.16,-184.92 105.8,-174.66 98.82,-175.25"/>
<text text-anchor="middle" x="61" y="-99.33" font-family="Times,serif" font-size="14.00">λ</text>
</g>
<!-- s0&#45;&gt;s1 -->
<g id="edge14" class="edge">
<title>s0&#45;&gt;s1</title>
<path fill="none" stroke="black" d="M23.71,-190.32C28.05,-155.98 38.96,-86.52 57.62,-72.13 93.97,-44.09 102.32,-125.41 104.11,-174.77"/>
<polygon fill="black" stroke="black" points="100.61,-174.84 104.39,-184.73 107.61,-174.64 100.61,-174.84"/>
<text text-anchor="middle" x="61" y="-75.33" font-family="Times,serif" font-size="14.00">λ</text>
</g>
<!-- s0&#45;&gt;s1 -->
<g id="edge15" class="edge">
<title>s0&#45;&gt;s1</title>
<path fill="none" stroke="black" d="M22.89,-190.37C26.11,-151.48 35.59,-65.77 57.62,-48.13 100.59,-13.7 105.68,-117.64 105.38,-174.76"/>
<polygon fill="black" stroke="black" points="101.89,-174.62 105.27,-184.66 108.89,-174.71 101.89,-174.62"/>
<text text-anchor="middle" x="61" y="-51.33" font-family="Times,serif" font-size="14.00">λ</text>
</g>
</g>
</svg>
