<?xml version="1.0" encoding="UTF-8" standalone="no"?>
<!DOCTYPE svg PUBLIC "-//W3C//DTD SVG 1.1//EN"
 "http://www.w3.org/Graphics/SVG/1.1/DTD/svg11.dtd">
<!-- Generated by graphviz version 12.2.1 (20241206.2353)
 -->
<!-- Title: finite_state_machine Pages: 1 -->
<svg width="419pt" height="173pt"
 viewBox="0.00 0.00 418.54 173.27" xmlns="http://www.w3.org/2000/svg" xmlns:xlink="http://www.w3.org/1999/xlink">
<g id="graph0" class="graph" transform="scale(1 1) rotate(0) translate(4 169.27)">
<title>finite_state_machine</title>
<polygon fill="white" stroke="none" points="-4,4 -4,-169.27 414.54,-169.27 414.54,4 -4,4"/>
<!-- s1 -->
<g id="node1" class="node">
<title>s1</title>
<ellipse fill="none" stroke="black" cx="387.43" cy="-90.16" rx="19.11" ry="19.11"/>
<ellipse fill="none" stroke="black" cx="387.43" cy="-90.16" rx="23.11" ry="23.11"/>
<text text-anchor="middle" x="387.43" y="-85.11" font-family="Times,serif" font-size="14.00">s1</text>
</g>
<!-- s0 -->
<g id="node2" class="node">
<title>s0</title>
<ellipse fill="none" stroke="black" cx="19.11" cy="-68.16" rx="19.11" ry="19.11"/>
<text text-anchor="middle" x="19.11" y="-63.11" font-family="Times,serif" font-size="14.00">s0</text>
</g>
<!-- s2 -->
<g id="node3" class="node">
<title>s2</title>
<ellipse fill="none" stroke="black" cx="107.57" cy="-146.16" rx="19.11" ry="19.11"/>
<text text-anchor="middle" x="107.57" y="-141.11" font-family="Times,serif" font-size="14.00">s2</text>
</g>
<!-- s0&#45;&gt;s2 -->
<g id="edge1" class="edge">
<title>s0&#45;&gt;s2</title>
<path fill="none" stroke="black" d="M32.28,-82.41C39.04,-90.04 47.78,-99.43 56.22,-107.16 64.39,-114.65 73.89,-122.25 82.42,-128.73"/>
<polygon fill="black" stroke="black" points="80.19,-131.44 90.3,-134.6 84.37,-125.82 80.19,-131.44"/>
<text text-anchor="middle" x="63.34" y="-121.76" font-family="Times,serif" font-size="14.00">&#45;</text>
</g>
<!-- s5 -->
<g id="node4" class="node">
<title>s5</title>
<ellipse fill="none" stroke="black" cx="107.57" cy="-90.16" rx="19.11" ry="19.11"/>
<text text-anchor="middle" x="107.57" y="-85.11" font-family="Times,serif" font-size="14.00">s5</text>
</g>
<!-- s0&#45;&gt;s5 -->
<g id="edge2" class="edge">
<title>s0&#45;&gt;s5</title>
<path fill="none" stroke="black" d="M36.62,-76.72C42.65,-79.51 49.6,-82.34 56.22,-84.16 62.77,-85.96 69.95,-87.22 76.78,-88.1"/>
<polygon fill="black" stroke="black" points="76.32,-91.57 86.63,-89.13 77.05,-84.61 76.32,-91.57"/>
<text text-anchor="middle" x="63.34" y="-90.27" font-family="Times,serif" font-size="14.00">&#45;</text>
</g>
<!-- s8 -->
<g id="node5" class="node">
<title>s8</title>
<ellipse fill="none" stroke="black" cx="107.57" cy="-31.16" rx="19.11" ry="19.11"/>
<text text-anchor="middle" x="107.57" y="-26.11" font-family="Times,serif" font-size="14.00">s8</text>
</g>
<!-- s0&#45;&gt;s8 -->
<g id="edge3" class="edge">
<title>s0&#45;&gt;s8</title>
<path fill="none" stroke="black" d="M37.19,-60.85C49.15,-55.73 65.39,-48.78 79.15,-42.89"/>
<polygon fill="black" stroke="black" points="80.32,-46.2 88.13,-39.05 77.56,-39.77 80.32,-46.2"/>
<text text-anchor="middle" x="63.34" y="-53.57" font-family="Times,serif" font-size="14.00">◉</text>
</g>
<!-- s0&#45;&gt;s8 -->
<g id="edge4" class="edge">
<title>s0&#45;&gt;s8</title>
<path fill="none" stroke="black" d="M29.53,-51.63C35.78,-42.43 44.92,-31.8 56.22,-26.66 62.85,-23.64 70.47,-23.05 77.75,-23.63"/>
<polygon fill="black" stroke="black" points="77.14,-27.08 87.57,-25.18 78.23,-20.17 77.14,-27.08"/>
<text text-anchor="middle" x="63.34" y="-29.86" font-family="Times,serif" font-size="14.00">λ</text>
</g>
<!-- s3 -->
<g id="node6" class="node">
<title>s3</title>
<ellipse fill="none" stroke="black" cx="190.04" cy="-146.16" rx="19.11" ry="19.11"/>
<text text-anchor="middle" x="190.04" y="-141.11" font-family="Times,serif" font-size="14.00">s3</text>
</g>
<!-- s2&#45;&gt;s3 -->
<g id="edge5" class="edge">
<title>s2&#45;&gt;s3</title>
<path fill="none" stroke="black" d="M126.83,-146.16C136.43,-146.16 148.45,-146.16 159.35,-146.16"/>
<polygon fill="black" stroke="black" points="159.06,-149.66 169.06,-146.16 159.06,-142.66 159.06,-149.66"/>
<text text-anchor="middle" x="148.81" y="-149.36" font-family="Times,serif" font-size="14.00">=</text>
</g>
<!-- s6 -->
<g id="node8" class="node">
<title>s6</title>
<ellipse fill="none" stroke="black" cx="190.04" cy="-90.16" rx="19.11" ry="19.11"/>
<text text-anchor="middle" x="190.04" y="-85.11" font-family="Times,serif" font-size="14.00">s6</text>
</g>
<!-- s5&#45;&gt;s6 -->
<g id="edge8" class="edge">
<title>s5&#45;&gt;s6</title>
<path fill="none" stroke="black" d="M126.83,-90.16C136.43,-90.16 148.45,-90.16 159.35,-90.16"/>
<polygon fill="black" stroke="black" points="159.06,-93.66 169.06,-90.16 159.06,-86.66 159.06,-93.66"/>
<text text-anchor="middle" x="148.81" y="-93.36" font-family="Times,serif" font-size="14.00">=</text>
</g>
<!-- s8&#45;&gt;s0 -->
<g id="edge11" class="edge">
<title>s8&#45;&gt;s0</title>
<path fill="none" stroke="black" d="M94.49,-16.6C84.25,-6.1 69.19,5 56.22,-2.66 42.81,-10.58 34.04,-25.45 28.5,-39.03"/>
<polygon fill="black" stroke="black" points="25.35,-37.46 25.24,-48.06 31.93,-39.84 25.35,-37.46"/>
<text text-anchor="middle" x="63.34" y="-5.86" font-family="Times,serif" font-size="14.00">λ</text>
</g>
<!-- s9 -->
<g id="node10" class="node">
<title>s9</title>
<ellipse fill="none" stroke="black" cx="246.25" cy="-36.16" rx="19.11" ry="19.11"/>
<text text-anchor="middle" x="246.25" y="-31.11" font-family="Times,serif" font-size="14.00">s9</text>
</g>
<!-- s8&#45;&gt;s9 -->
<g id="edge12" class="edge">
<title>s8&#45;&gt;s9</title>
<path fill="none" stroke="black" d="M127.01,-31.83C149.63,-32.66 188.29,-34.07 215.22,-35.06"/>
<polygon fill="black" stroke="black" points="215.04,-38.56 225.16,-35.42 215.3,-31.56 215.04,-38.56"/>
<text text-anchor="middle" x="148.81" y="-35.92" font-family="Times,serif" font-size="14.00">τ</text>
</g>
<!-- s4 -->
<g id="node7" class="node">
<title>s4</title>
<ellipse fill="none" stroke="black" cx="302.47" cy="-146.16" rx="19.11" ry="19.11"/>
<text text-anchor="middle" x="302.47" y="-141.11" font-family="Times,serif" font-size="14.00">s4</text>
</g>
<!-- s3&#45;&gt;s4 -->
<g id="edge6" class="edge">
<title>s3&#45;&gt;s4</title>
<path fill="none" stroke="black" d="M209.27,-146.16C226.3,-146.16 252,-146.16 271.95,-146.16"/>
<polygon fill="black" stroke="black" points="271.69,-149.66 281.69,-146.16 271.69,-142.66 271.69,-149.66"/>
<text text-anchor="middle" x="246.25" y="-149.36" font-family="Times,serif" font-size="14.00">&#45;</text>
</g>
<!-- s4&#45;&gt;s1 -->
<g id="edge7" class="edge">
<title>s4&#45;&gt;s1</title>
<path fill="none" stroke="black" d="M318.68,-135.89C329.83,-128.37 345.26,-117.95 358.59,-108.95"/>
<polygon fill="black" stroke="black" points="360.24,-112.06 366.57,-103.56 356.33,-106.26 360.24,-112.06"/>
<text text-anchor="middle" x="342.95" y="-124.71" font-family="Times,serif" font-size="14.00">λ</text>
</g>
<!-- s7 -->
<g id="node9" class="node">
<title>s7</title>
<ellipse fill="none" stroke="black" cx="302.47" cy="-90.16" rx="19.11" ry="19.11"/>
<text text-anchor="middle" x="302.47" y="-85.11" font-family="Times,serif" font-size="14.00">s7</text>
</g>
<!-- s6&#45;&gt;s7 -->
<g id="edge9" class="edge">
<title>s6&#45;&gt;s7</title>
<path fill="none" stroke="black" d="M209.27,-90.16C226.3,-90.16 252,-90.16 271.95,-90.16"/>
<polygon fill="black" stroke="black" points="271.69,-93.66 281.69,-90.16 271.69,-86.66 271.69,-93.66"/>
<text text-anchor="middle" x="246.25" y="-93.36" font-family="Times,serif" font-size="14.00">#</text>
</g>
<!-- s7&#45;&gt;s1 -->
<g id="edge10" class="edge">
<title>s7&#45;&gt;s1</title>
<path fill="none" stroke="black" d="M321.88,-90.16C330.9,-90.16 342.05,-90.16 352.53,-90.16"/>
<polygon fill="black" stroke="black" points="352.42,-93.66 362.42,-90.16 352.42,-86.66 352.42,-93.66"/>
<text text-anchor="middle" x="342.95" y="-93.36" font-family="Times,serif" font-size="14.00">λ</text>
</g>
<!-- s9&#45;&gt;s1 -->
<g id="edge13" class="edge">
<title>s9&#45;&gt;s1</title>
<path fill="none" stroke="black" d="M265.86,-36.13C281.26,-36.67 303.46,-38.75 321.58,-45.66 335.53,-50.98 349.4,-59.88 360.71,-68.32"/>
<polygon fill="black" stroke="black" points="358.32,-70.9 368.36,-74.29 362.63,-65.38 358.32,-70.9"/>
<text text-anchor="middle" x="302.47" y="-48.86" font-family="Times,serif" font-size="14.00">λ</text>
</g>
</g>
</svg>
