<?xml version="1.0" encoding="UTF-8" standalone="no"?>
<!DOCTYPE svg PUBLIC "-//W3C//DTD SVG 1.1//EN"
 "http://www.w3.org/Graphics/SVG/1.1/DTD/svg11.dtd">
<!-- Generated by graphviz version 2.38.0 (20140413.2041)
 -->
<!-- Title: finite_state_machine Pages: 1 -->
<svg width="288pt" height="82pt"
 viewBox="0.00 0.00 288.21 82.00" xmlns="http://www.w3.org/2000/svg" xmlns:xlink="http://www.w3.org/1999/xlink">
<g id="graph0" class="graph" transform="scale(1 1) rotate(0) translate(4 78)">
<title>finite_state_machine</title>
<polygon fill="white" stroke="none" points="-4,4 -4,-78 284.214,-78 284.214,4 -4,4"/>
<!-- s3 -->
<g id="node1" class="node"><title>s3</title>
<ellipse fill="none" stroke="black" cx="258.214" cy="-22" rx="18" ry="18"/>
<ellipse fill="none" stroke="black" cx="258.214" cy="-22" rx="22" ry="22"/>
<text text-anchor="middle" x="258.214" y="-17.8" font-family="Times,serif" font-size="14.00">s3</text>
</g>
<!-- s0 -->
<g id="node2" class="node"><title>s0</title>
<ellipse fill="none" stroke="black" cx="18" cy="-26" rx="18" ry="18"/>
<text text-anchor="middle" x="18" y="-21.8" font-family="Times,serif" font-size="14.00">s0</text>
</g>
<!-- s1 -->
<g id="node3" class="node"><title>s1</title>
<ellipse fill="none" stroke="black" cx="97" cy="-56" rx="18" ry="18"/>
<text text-anchor="middle" x="97" y="-51.8" font-family="Times,serif" font-size="14.00">s1</text>
</g>
<!-- s0&#45;&gt;s1 -->
<g id="edge1" class="edge"><title>s0&#45;&gt;s1</title>
<path fill="none" stroke="black" d="M34.9544,-32.216C45.2787,-36.2385 58.9428,-41.5621 70.7256,-46.1528"/>
<polygon fill="black" stroke="black" points="69.4776,-49.4228 80.066,-49.7919 72.0188,-42.9004 69.4776,-49.4228"/>
<text text-anchor="middle" x="57.5" y="-43.8" font-family="Times,serif" font-size="14.00">x</text>
</g>
<!-- s2 -->
<g id="node4" class="node"><title>s2</title>
<ellipse fill="none" stroke="black" cx="176" cy="-22" rx="18" ry="18"/>
<text text-anchor="middle" x="176" y="-17.8" font-family="Times,serif" font-size="14.00">s2</text>
</g>
<!-- s0&#45;&gt;s2 -->
<g id="edge2" class="edge"><title>s0&#45;&gt;s2</title>
<path fill="none" stroke="black" d="M35.6986,-22.098C47.6744,-19.5063 64.2345,-16.3423 79,-15 102.202,-12.8908 128.604,-15.1549 147.84,-17.6545"/>
<polygon fill="black" stroke="black" points="147.601,-21.1553 157.991,-19.0816 148.575,-14.2234 147.601,-21.1553"/>
<text text-anchor="middle" x="97" y="-17.8" font-family="Times,serif" font-size="14.00">λ</text>
</g>
<!-- s1&#45;&gt;s2 -->
<g id="edge3" class="edge"><title>s1&#45;&gt;s2</title>
<path fill="none" stroke="black" d="M113.954,-48.9552C124.348,-44.366 138.125,-38.2824 149.961,-33.0562"/>
<polygon fill="black" stroke="black" points="151.595,-36.1606 159.329,-28.9195 148.768,-29.7571 151.595,-36.1606"/>
<text text-anchor="middle" x="136.5" y="-42.8" font-family="Times,serif" font-size="14.00">x</text>
</g>
<!-- s2&#45;&gt;s3 -->
<g id="edge4" class="edge"><title>s2&#45;&gt;s3</title>
<path fill="none" stroke="black" d="M194.011,-22C203.282,-22 215.049,-22 225.91,-22"/>
<polygon fill="black" stroke="black" points="225.935,-25.5001 235.935,-22 225.935,-18.5001 225.935,-25.5001"/>
<text text-anchor="middle" x="215.107" y="-24.8" font-family="Times,serif" font-size="14.00">τ</text>
</g>
</g>
</svg>
