<?xml version="1.0" encoding="UTF-8" standalone="no"?>
<!DOCTYPE svg PUBLIC "-//W3C//DTD SVG 1.1//EN"
 "http://www.w3.org/Graphics/SVG/1.1/DTD/svg11.dtd">
<!-- Generated by graphviz version 12.2.1 (20241206.2353)
 -->
<!-- Title: finite_state_machine Pages: 1 -->
<svg width="215pt" height="92pt"
 viewBox="0.00 0.00 215.40 92.14" xmlns="http://www.w3.org/2000/svg" xmlns:xlink="http://www.w3.org/1999/xlink">
<g id="graph0" class="graph" transform="scale(1 1) rotate(0) translate(4 88.14)">
<title>finite_state_machine</title>
<polygon fill="white" stroke="none" points="-4,4 -4,-88.14 211.4,-88.14 211.4,4 -4,4"/>
<text text-anchor="middle" x="103.7" y="-7.2" font-family="Times,serif" font-size="14.00">Regular Expression: xyzzy401</text>
<!-- s2 -->
<g id="node1" class="node">
<title>s2</title>
<ellipse fill="none" stroke="black" cx="184.29" cy="-49" rx="19.11" ry="19.11"/>
<ellipse fill="none" stroke="black" cx="184.29" cy="-49" rx="23.11" ry="23.11"/>
<text text-anchor="middle" x="184.29" y="-43.95" font-family="Times,serif" font-size="14.00">s2</text>
</g>
<!-- s0 -->
<g id="node2" class="node">
<title>s0</title>
<ellipse fill="none" stroke="black" cx="19.11" cy="-49" rx="19.11" ry="19.11"/>
<text text-anchor="middle" x="19.11" y="-43.95" font-family="Times,serif" font-size="14.00">s0</text>
</g>
<!-- s1 -->
<g id="node3" class="node">
<title>s1</title>
<ellipse fill="none" stroke="black" cx="100.07" cy="-49" rx="19.11" ry="19.11"/>
<text text-anchor="middle" x="100.07" y="-43.95" font-family="Times,serif" font-size="14.00">s1</text>
</g>
<!-- s0&#45;&gt;s1 -->
<g id="edge1" class="edge">
<title>s0&#45;&gt;s1</title>
<path fill="none" stroke="black" d="M35.68,-58.73C41.84,-62.04 49.12,-65.33 56.22,-67 62.3,-68.43 68.63,-67.35 74.5,-65.14"/>
<polygon fill="black" stroke="black" points="75.63,-68.48 83.05,-60.92 72.54,-62.2 75.63,-68.48"/>
<text text-anchor="middle" x="59.59" y="-70.84" font-family="Times,serif" font-size="14.00">0</text>
</g>
<!-- s0&#45;&gt;s1 -->
<g id="edge2" class="edge">
<title>s0&#45;&gt;s1</title>
<path fill="none" stroke="black" d="M38.45,-47.18C46.04,-46.62 54.92,-46.22 62.97,-46.5 65.04,-46.57 67.18,-46.66 69.34,-46.78"/>
<polygon fill="black" stroke="black" points="69.01,-50.26 79.21,-47.39 69.44,-43.27 69.01,-50.26"/>
<text text-anchor="middle" x="59.59" y="-49.7" font-family="Times,serif" font-size="14.00">1</text>
</g>
<!-- s0&#45;&gt;s1 -->
<g id="edge3" class="edge">
<title>s0&#45;&gt;s1</title>
<path fill="none" stroke="black" d="M32.97,-35.56C41.17,-28.66 52.23,-22.31 62.97,-25.5 67.28,-26.78 71.56,-28.75 75.58,-31.03"/>
<polygon fill="black" stroke="black" points="73.36,-33.76 83.66,-36.25 77.16,-27.88 73.36,-33.76"/>
<text text-anchor="middle" x="59.59" y="-28.7" font-family="Times,serif" font-size="14.00">λ</text>
</g>
<!-- s1&#45;&gt;s2 -->
<g id="edge4" class="edge">
<title>s1&#45;&gt;s2</title>
<path fill="none" stroke="black" d="M119.32,-49C128.19,-49 139.14,-49 149.45,-49"/>
<polygon fill="black" stroke="black" points="149.18,-52.5 159.18,-49 149.18,-45.5 149.18,-52.5"/>
<text text-anchor="middle" x="140.18" y="-52.2" font-family="Times,serif" font-size="14.00">τ</text>
</g>
</g>
</svg>
