<?xml version="1.0" encoding="UTF-8" standalone="no"?>
<!DOCTYPE svg PUBLIC "-//W3C//DTD SVG 1.1//EN"
 "http://www.w3.org/Graphics/SVG/1.1/DTD/svg11.dtd">
<!-- Generated by graphviz version 12.2.1 (20241206.2353)
 -->
<!-- Title: finite_state_machine Pages: 1 -->
<svg width="191pt" height="194pt"
 viewBox="0.00 0.00 190.50 193.78" xmlns="http://www.w3.org/2000/svg" xmlns:xlink="http://www.w3.org/1999/xlink">
<g id="graph0" class="graph" transform="scale(1 1) rotate(0) translate(4 189.78)">
<title>finite_state_machine</title>
<polygon fill="white" stroke="none" points="-4,4 -4,-189.78 186.5,-189.78 186.5,4 -4,4"/>
<text text-anchor="middle" x="91.25" y="-7.2" font-family="Times,serif" font-size="14.00">Regular Expression: xyzzy401</text>
<!-- s2 -->
<g id="node1" class="node">
<title>s2</title>
<ellipse fill="none" stroke="black" cx="131.73" cy="-47.61" rx="19.11" ry="19.11"/>
<ellipse fill="none" stroke="black" cx="131.73" cy="-47.61" rx="23.11" ry="23.11"/>
<text text-anchor="middle" x="131.73" y="-42.56" font-family="Times,serif" font-size="14.00">s2</text>
</g>
<!-- s0 -->
<g id="node2" class="node">
<title>s0</title>
<ellipse fill="none" stroke="black" cx="131.73" cy="-147.61" rx="19.11" ry="19.11"/>
<text text-anchor="middle" x="131.73" y="-142.56" font-family="Times,serif" font-size="14.00">s0</text>
</g>
<!-- s1 -->
<g id="node3" class="node">
<title>s1</title>
<ellipse fill="none" stroke="black" cx="46.77" cy="-127.61" rx="19.11" ry="19.11"/>
<text text-anchor="middle" x="46.77" y="-122.56" font-family="Times,serif" font-size="14.00">s1</text>
</g>
<!-- s0&#45;&gt;s1 -->
<g id="edge1" class="edge">
<title>s0&#45;&gt;s1</title>
<path fill="none" stroke="black" d="M112.22,-148.58C103.5,-148.6 93.02,-147.97 83.88,-145.61 80.63,-144.77 77.34,-143.62 74.13,-142.3"/>
<polygon fill="black" stroke="black" points="75.64,-139.14 65.1,-138.02 72.64,-145.47 75.64,-139.14"/>
<text text-anchor="middle" x="87.25" y="-150.13" font-family="Times,serif" font-size="14.00">0</text>
</g>
<!-- s0&#45;&gt;s1 -->
<g id="edge2" class="edge">
<title>s0&#45;&gt;s1</title>
<path fill="none" stroke="black" d="M115.53,-136.64C108.35,-132.12 99.43,-127.41 90.62,-125.11 86.41,-124.01 81.89,-123.54 77.42,-123.47"/>
<polygon fill="black" stroke="black" points="77.26,-119.97 67.46,-123.99 77.63,-126.96 77.26,-119.97"/>
<text text-anchor="middle" x="87.25" y="-128.31" font-family="Times,serif" font-size="14.00">1</text>
</g>
<!-- s0&#45;&gt;s1 -->
<g id="edge3" class="edge">
<title>s0&#45;&gt;s1</title>
<path fill="none" stroke="black" d="M121.08,-131.23C114.06,-121.06 103.55,-108.86 90.62,-103.11 83.3,-99.85 75.61,-102.24 68.8,-106.59"/>
<polygon fill="black" stroke="black" points="67.05,-103.51 61.36,-112.44 71.38,-109.01 67.05,-103.51"/>
<text text-anchor="middle" x="87.25" y="-106.31" font-family="Times,serif" font-size="14.00">λ</text>
</g>
<!-- s1&#45;&gt;s2 -->
<g id="edge5" class="edge">
<title>s1&#45;&gt;s2</title>
<path fill="none" stroke="black" d="M58.13,-112.03C64.85,-102.53 74.15,-90.46 83.88,-81.11 89.49,-75.71 96.03,-70.49 102.42,-65.84"/>
<polygon fill="black" stroke="black" points="104.08,-68.95 110.28,-60.36 100.08,-63.21 104.08,-68.95"/>
<text text-anchor="middle" x="87.25" y="-84.31" font-family="Times,serif" font-size="14.00">τ</text>
</g>
<!-- s1&#45;&gt;s0 -->
<g id="edge4" class="edge">
<title>s1&#45;&gt;s0</title>
<path fill="none" stroke="black" d="M57.32,-143.55C63.62,-152.43 72.76,-162.67 83.88,-167.61 91.35,-170.93 99.53,-169.24 106.94,-165.73"/>
<polygon fill="black" stroke="black" points="108.65,-168.79 115.44,-160.67 105.06,-162.78 108.65,-168.79"/>
<text text-anchor="middle" x="87.25" y="-172.48" font-family="Times,serif" font-size="14.00">λ</text>
</g>
</g>
</svg>
