<?xml version="1.0" encoding="UTF-8" standalone="no"?>
<!DOCTYPE svg PUBLIC "-//W3C//DTD SVG 1.1//EN"
 "http://www.w3.org/Graphics/SVG/1.1/DTD/svg11.dtd">
<!-- Generated by graphviz version 2.38.0 (20140413.2041)
 -->
<!-- Title: finite_state_machine Pages: 1 -->
<svg width="542pt" height="154pt"
 viewBox="0.00 0.00 542.00 154.39" xmlns="http://www.w3.org/2000/svg" xmlns:xlink="http://www.w3.org/1999/xlink">
<g id="graph0" class="graph" transform="scale(1 1) rotate(0) translate(4 150.392)">
<title>finite_state_machine</title>
<polygon fill="white" stroke="none" points="-4,4 -4,-150.392 537.997,-150.392 537.997,4 -4,4"/>
<!-- s1 -->
<g id="node1" class="node"><title>s1</title>
<ellipse fill="none" stroke="black" cx="511.997" cy="-80.3918" rx="18" ry="18"/>
<ellipse fill="none" stroke="black" cx="511.997" cy="-80.3918" rx="22" ry="22"/>
<text text-anchor="middle" x="511.997" y="-76.1918" font-family="Times,serif" font-size="14.00">s1</text>
</g>
<!-- s0 -->
<g id="node2" class="node"><title>s0</title>
<ellipse fill="none" stroke="black" cx="18" cy="-76.3918" rx="18" ry="18"/>
<text text-anchor="middle" x="18" y="-72.1918" font-family="Times,serif" font-size="14.00">s0</text>
</g>
<!-- s2 -->
<g id="node3" class="node"><title>s2</title>
<ellipse fill="none" stroke="black" cx="150.214" cy="-128.392" rx="18" ry="18"/>
<text text-anchor="middle" x="150.214" y="-124.192" font-family="Times,serif" font-size="14.00">s2</text>
</g>
<!-- s0&#45;&gt;s2 -->
<g id="edge1" class="edge"><title>s0&#45;&gt;s2</title>
<path fill="none" stroke="black" d="M34.1419,-84.6785C40.2336,-87.8802 47.3732,-91.4687 54,-94.3918 76.8697,-104.48 103.759,-113.865 123.119,-120.208"/>
<polygon fill="black" stroke="black" points="122.169,-123.58 132.76,-123.32 124.319,-116.918 122.169,-123.58"/>
<text text-anchor="middle" x="57.1069" y="-99.1918" font-family="Times,serif" font-size="14.00">a</text>
</g>
<!-- s4 -->
<g id="node4" class="node"><title>s4</title>
<ellipse fill="none" stroke="black" cx="96.2139" cy="-76.3918" rx="18" ry="18"/>
<text text-anchor="middle" x="96.2139" y="-72.1918" font-family="Times,serif" font-size="14.00">s4</text>
</g>
<!-- s0&#45;&gt;s4 -->
<g id="edge2" class="edge"><title>s0&#45;&gt;s4</title>
<path fill="none" stroke="black" d="M36.2941,-76.3918C45.6488,-76.3918 57.4172,-76.3918 67.9721,-76.3918"/>
<polygon fill="black" stroke="black" points="67.9882,-79.8919 77.9882,-76.3918 67.9882,-72.8919 67.9882,-79.8919"/>
<text text-anchor="middle" x="57.1069" y="-79.1918" font-family="Times,serif" font-size="14.00">a</text>
</g>
<!-- s7 -->
<g id="node5" class="node"><title>s7</title>
<ellipse fill="none" stroke="black" cx="96.2139" cy="-22.3918" rx="18" ry="18"/>
<text text-anchor="middle" x="96.2139" y="-18.1918" font-family="Times,serif" font-size="14.00">s7</text>
</g>
<!-- s0&#45;&gt;s7 -->
<g id="edge3" class="edge"><title>s0&#45;&gt;s7</title>
<path fill="none" stroke="black" d="M33.3352,-66.2348C44.4062,-58.3907 59.9342,-47.3886 72.6652,-38.3683"/>
<polygon fill="black" stroke="black" points="74.8069,-41.1404 80.9429,-32.5033 70.76,-35.4287 74.8069,-41.1404"/>
<text text-anchor="middle" x="57.1069" y="-53.1918" font-family="Times,serif" font-size="14.00">a</text>
</g>
<!-- s3 -->
<g id="node6" class="node"><title>s3</title>
<ellipse fill="none" stroke="black" cx="258.214" cy="-128.392" rx="18" ry="18"/>
<text text-anchor="middle" x="258.214" y="-124.192" font-family="Times,serif" font-size="14.00">s3</text>
</g>
<!-- s2&#45;&gt;s3 -->
<g id="edge4" class="edge"><title>s2&#45;&gt;s3</title>
<path fill="none" stroke="black" d="M168.245,-128.392C184.836,-128.392 210.331,-128.392 229.783,-128.392"/>
<polygon fill="black" stroke="black" points="229.873,-131.892 239.873,-128.392 229.873,-124.892 229.873,-131.892"/>
<text text-anchor="middle" x="204.214" y="-131.192" font-family="Times,serif" font-size="14.00">b</text>
</g>
<!-- s5 -->
<g id="node7" class="node"><title>s5</title>
<ellipse fill="none" stroke="black" cx="204.214" cy="-76.3918" rx="18" ry="18"/>
<text text-anchor="middle" x="204.214" y="-72.1918" font-family="Times,serif" font-size="14.00">s5</text>
</g>
<!-- s4&#45;&gt;s5 -->
<g id="edge6" class="edge"><title>s4&#45;&gt;s5</title>
<path fill="none" stroke="black" d="M114.245,-76.3918C130.836,-76.3918 156.331,-76.3918 175.783,-76.3918"/>
<polygon fill="black" stroke="black" points="175.873,-79.8919 185.873,-76.3918 175.873,-72.8919 175.873,-79.8919"/>
<text text-anchor="middle" x="150.214" y="-79.1918" font-family="Times,serif" font-size="14.00">a</text>
</g>
<!-- s8 -->
<g id="node9" class="node"><title>s8</title>
<ellipse fill="none" stroke="black" cx="204.214" cy="-22.3918" rx="18" ry="18"/>
<text text-anchor="middle" x="204.214" y="-18.1918" font-family="Times,serif" font-size="14.00">s8</text>
</g>
<!-- s7&#45;&gt;s8 -->
<g id="edge9" class="edge"><title>s7&#45;&gt;s8</title>
<path fill="none" stroke="black" d="M114.245,-22.3918C130.836,-22.3918 156.331,-22.3918 175.783,-22.3918"/>
<polygon fill="black" stroke="black" points="175.873,-25.8919 185.873,-22.3918 175.873,-18.8919 175.873,-25.8919"/>
<text text-anchor="middle" x="150.214" y="-25.1918" font-family="Times,serif" font-size="14.00">a</text>
</g>
<!-- s3&#45;&gt;s1 -->
<g id="edge5" class="edge"><title>s3&#45;&gt;s1</title>
<path fill="none" stroke="black" d="M276.225,-126.524C312.546,-122.334 400.219,-111.139 471.997,-93.3918 475.018,-92.645 478.14,-91.7756 481.243,-90.847"/>
<polygon fill="black" stroke="black" points="482.471,-94.1292 490.935,-87.7565 480.344,-87.46 482.471,-94.1292"/>
<text text-anchor="middle" x="366.214" y="-119.192" font-family="Times,serif" font-size="14.00">λ</text>
</g>
<!-- s6 -->
<g id="node8" class="node"><title>s6</title>
<ellipse fill="none" stroke="black" cx="366.214" cy="-79.3918" rx="18" ry="18"/>
<text text-anchor="middle" x="366.214" y="-75.1918" font-family="Times,serif" font-size="14.00">s6</text>
</g>
<!-- s5&#45;&gt;s6 -->
<g id="edge7" class="edge"><title>s5&#45;&gt;s6</title>
<path fill="none" stroke="black" d="M222.337,-76.7129C250.004,-77.2316 304.778,-78.2586 337.887,-78.8794"/>
<polygon fill="black" stroke="black" points="338.15,-82.3849 348.214,-79.0731 338.282,-75.3861 338.15,-82.3849"/>
<text text-anchor="middle" x="258.214" y="-80.1918" font-family="Times,serif" font-size="14.00">b</text>
</g>
<!-- s6&#45;&gt;s1 -->
<g id="edge8" class="edge"><title>s6&#45;&gt;s1</title>
<path fill="none" stroke="black" d="M384.272,-79.5104C407.726,-79.6736 450.347,-79.97 479.637,-80.1737"/>
<polygon fill="black" stroke="black" points="479.741,-83.6744 489.765,-80.2441 479.789,-76.6746 479.741,-83.6744"/>
<text text-anchor="middle" x="424.606" y="-82.1918" font-family="Times,serif" font-size="14.00">λ</text>
</g>
<!-- s9 -->
<g id="node10" class="node"><title>s9</title>
<ellipse fill="none" stroke="black" cx="312.214" cy="-22.3918" rx="18" ry="18"/>
<text text-anchor="middle" x="312.214" y="-18.1918" font-family="Times,serif" font-size="14.00">s9</text>
</g>
<!-- s8&#45;&gt;s9 -->
<g id="edge10" class="edge"><title>s8&#45;&gt;s9</title>
<path fill="none" stroke="black" d="M222.245,-22.3918C238.836,-22.3918 264.331,-22.3918 283.783,-22.3918"/>
<polygon fill="black" stroke="black" points="283.873,-25.8919 293.873,-22.3918 283.873,-18.8919 283.873,-25.8919"/>
<text text-anchor="middle" x="258.214" y="-25.1918" font-family="Times,serif" font-size="14.00">a</text>
</g>
<!-- s10 -->
<g id="node11" class="node"><title>s10</title>
<ellipse fill="none" stroke="black" cx="424.606" cy="-22.3918" rx="22.2841" ry="22.2841"/>
<text text-anchor="middle" x="424.606" y="-18.1918" font-family="Times,serif" font-size="14.00">s10</text>
</g>
<!-- s9&#45;&gt;s10 -->
<g id="edge11" class="edge"><title>s9&#45;&gt;s10</title>
<path fill="none" stroke="black" d="M330.463,-22.3918C346.808,-22.3918 371.76,-22.3918 391.725,-22.3918"/>
<polygon fill="black" stroke="black" points="391.928,-25.8919 401.928,-22.3918 391.927,-18.8919 391.928,-25.8919"/>
<text text-anchor="middle" x="366.214" y="-25.1918" font-family="Times,serif" font-size="14.00">b</text>
</g>
<!-- s10&#45;&gt;s1 -->
<g id="edge12" class="edge"><title>s10&#45;&gt;s1</title>
<path fill="none" stroke="black" d="M444.253,-34.1579C452.775,-39.61 462.963,-46.2328 471.997,-52.3918 476.362,-55.3673 480.956,-58.5855 485.398,-61.744"/>
<polygon fill="black" stroke="black" points="483.487,-64.6804 493.653,-67.6646 487.567,-58.9922 483.487,-64.6804"/>
<text text-anchor="middle" x="468.497" y="-55.1918" font-family="Times,serif" font-size="14.00">λ</text>
</g>
</g>
</svg>
