<?xml version="1.0" encoding="UTF-8" standalone="no"?>
<!DOCTYPE svg PUBLIC "-//W3C//DTD SVG 1.1//EN"
 "http://www.w3.org/Graphics/SVG/1.1/DTD/svg11.dtd">
<!-- Generated by graphviz version 12.2.1 (20241206.2353)
 -->
<!-- Title: finite_state_machine Pages: 1 -->
<svg width="296pt" height="113pt"
 viewBox="0.00 0.00 296.36 112.72" xmlns="http://www.w3.org/2000/svg" xmlns:xlink="http://www.w3.org/1999/xlink">
<g id="graph0" class="graph" transform="scale(1 1) rotate(0) translate(4 108.72)">
<title>finite_state_machine</title>
<polygon fill="white" stroke="none" points="-4,4 -4,-108.72 292.36,-108.72 292.36,4 -4,4"/>
<text text-anchor="middle" x="144.18" y="-7.2" font-family="Times,serif" font-size="14.00">Regular Expression: xyzzy401</text>
<!-- s3 -->
<g id="node1" class="node">
<title>s3</title>
<ellipse fill="none" stroke="black" cx="265.25" cy="-47.61" rx="19.11" ry="19.11"/>
<ellipse fill="none" stroke="black" cx="265.25" cy="-47.61" rx="23.11" ry="23.11"/>
<text text-anchor="middle" x="265.25" y="-42.56" font-family="Times,serif" font-size="14.00">s3</text>
</g>
<!-- s0 -->
<g id="node2" class="node">
<title>s0</title>
<ellipse fill="none" stroke="black" cx="19.11" cy="-47.61" rx="19.11" ry="19.11"/>
<text text-anchor="middle" x="19.11" y="-42.56" font-family="Times,serif" font-size="14.00">s0</text>
</g>
<!-- s1 -->
<g id="node3" class="node">
<title>s1</title>
<ellipse fill="none" stroke="black" cx="100.07" cy="-85.61" rx="19.11" ry="19.11"/>
<text text-anchor="middle" x="100.07" y="-80.56" font-family="Times,serif" font-size="14.00">s1</text>
</g>
<!-- s0&#45;&gt;s1 -->
<g id="edge1" class="edge">
<title>s0&#45;&gt;s1</title>
<path fill="none" stroke="black" d="M36.85,-55.67C47.11,-60.6 60.48,-67.04 72.19,-72.67"/>
<polygon fill="black" stroke="black" points="70.46,-75.72 80.99,-76.9 73.49,-69.41 70.46,-75.72"/>
<text text-anchor="middle" x="59.59" y="-70.95" font-family="Times,serif" font-size="14.00">x</text>
</g>
<!-- s2 -->
<g id="node4" class="node">
<title>s2</title>
<ellipse fill="none" stroke="black" cx="181.04" cy="-47.61" rx="19.11" ry="19.11"/>
<text text-anchor="middle" x="181.04" y="-42.56" font-family="Times,serif" font-size="14.00">s2</text>
</g>
<!-- s0&#45;&gt;s2 -->
<g id="edge2" class="edge">
<title>s0&#45;&gt;s2</title>
<path fill="none" stroke="black" d="M38.44,-45.14C50.5,-43.64 66.64,-41.87 80.97,-41.11 97.93,-40.2 102.22,-40.2 119.18,-41.11 129.36,-41.65 140.47,-42.7 150.37,-43.8"/>
<polygon fill="black" stroke="black" points="149.86,-47.26 160.2,-44.96 150.68,-40.31 149.86,-47.26"/>
<text text-anchor="middle" x="100.07" y="-44.31" font-family="Times,serif" font-size="14.00">λ</text>
</g>
<!-- s1&#45;&gt;s2 -->
<g id="edge3" class="edge">
<title>s1&#45;&gt;s2</title>
<path fill="none" stroke="black" d="M117.82,-77.55C128.08,-72.61 141.45,-66.18 153.16,-60.54"/>
<polygon fill="black" stroke="black" points="154.46,-63.8 161.95,-56.31 151.42,-57.49 154.46,-63.8"/>
<text text-anchor="middle" x="140.56" y="-70.95" font-family="Times,serif" font-size="14.00">x</text>
</g>
<!-- s2&#45;&gt;s3 -->
<g id="edge4" class="edge">
<title>s2&#45;&gt;s3</title>
<path fill="none" stroke="black" d="M200.28,-47.61C209.15,-47.61 220.1,-47.61 230.42,-47.61"/>
<polygon fill="black" stroke="black" points="230.14,-51.11 240.14,-47.61 230.14,-44.11 230.14,-51.11"/>
<text text-anchor="middle" x="221.15" y="-50.81" font-family="Times,serif" font-size="14.00">τ</text>
</g>
</g>
</svg>
