<?xml version="1.0" encoding="UTF-8" standalone="no"?>
<!DOCTYPE svg PUBLIC "-//W3C//DTD SVG 1.1//EN"
 "http://www.w3.org/Graphics/SVG/1.1/DTD/svg11.dtd">
<!-- Generated by graphviz version 12.2.1 (20241206.2353)
 -->
<!-- Title: finite_state_machine Pages: 1 -->
<svg width="576pt" height="171pt"
 viewBox="0.00 0.00 576.00 171.24" xmlns="http://www.w3.org/2000/svg" xmlns:xlink="http://www.w3.org/1999/xlink">
<g id="graph0" class="graph" transform="scale(0.85956 0.85956) rotate(0) translate(4 195.22)">
<title>finite_state_machine</title>
<polygon fill="white" stroke="none" points="-4,4 -4,-195.22 666.11,-195.22 666.11,4 -4,4"/>
<text text-anchor="middle" x="331.06" y="-23.7" font-family="Times,serif" font-size="14.00">Regular Expression: </text>
<text text-anchor="middle" x="331.06" y="-7.2" font-family="Times,serif" font-size="14.00">xyzzy401</text>
<!-- s11 -->
<g id="node1" class="node">
<title>s11</title>
<ellipse fill="none" stroke="black" cx="634.4" cy="-116.11" rx="23.71" ry="23.71"/>
<ellipse fill="none" stroke="black" cx="634.4" cy="-116.11" rx="27.71" ry="27.71"/>
<text text-anchor="middle" x="634.4" y="-111.06" font-family="Times,serif" font-size="14.00">s11</text>
</g>
<!-- s0 -->
<g id="node2" class="node">
<title>s0</title>
<ellipse fill="none" stroke="black" cx="19.11" cy="-116.11" rx="19.11" ry="19.11"/>
<text text-anchor="middle" x="19.11" y="-111.06" font-family="Times,serif" font-size="14.00">s0</text>
</g>
<!-- s2 -->
<g id="node3" class="node">
<title>s2</title>
<ellipse fill="none" stroke="black" cx="100.07" cy="-172.11" rx="19.11" ry="19.11"/>
<text text-anchor="middle" x="100.07" y="-167.06" font-family="Times,serif" font-size="14.00">s2</text>
</g>
<!-- s0&#45;&gt;s2 -->
<g id="edge1" class="edge">
<title>s0&#45;&gt;s2</title>
<path fill="none" stroke="black" d="M35.33,-126.9C46.48,-134.81 61.83,-145.69 74.67,-154.8"/>
<polygon fill="black" stroke="black" points="72.48,-157.54 82.66,-160.47 76.53,-151.83 72.48,-157.54"/>
<text text-anchor="middle" x="59.59" y="-148.99" font-family="Times,serif" font-size="14.00">a</text>
</g>
<!-- s4 -->
<g id="node4" class="node">
<title>s4</title>
<ellipse fill="none" stroke="black" cx="100.07" cy="-116.11" rx="19.11" ry="19.11"/>
<text text-anchor="middle" x="100.07" y="-111.06" font-family="Times,serif" font-size="14.00">s4</text>
</g>
<!-- s0&#45;&gt;s4 -->
<g id="edge2" class="edge">
<title>s0&#45;&gt;s4</title>
<path fill="none" stroke="black" d="M38.42,-116.11C47.53,-116.11 58.76,-116.11 69.08,-116.11"/>
<polygon fill="black" stroke="black" points="69.07,-119.61 79.07,-116.11 69.07,-112.61 69.07,-119.61"/>
<text text-anchor="middle" x="59.59" y="-119.31" font-family="Times,serif" font-size="14.00">b</text>
</g>
<!-- s6 -->
<g id="node5" class="node">
<title>s6</title>
<ellipse fill="none" stroke="black" cx="100.07" cy="-60.11" rx="19.11" ry="19.11"/>
<text text-anchor="middle" x="100.07" y="-55.06" font-family="Times,serif" font-size="14.00">s6</text>
</g>
<!-- s0&#45;&gt;s6 -->
<g id="edge3" class="edge">
<title>s0&#45;&gt;s6</title>
<path fill="none" stroke="black" d="M35.33,-105.31C46.48,-97.41 61.83,-86.52 74.67,-77.41"/>
<polygon fill="black" stroke="black" points="76.53,-80.39 82.66,-71.75 72.48,-74.68 76.53,-80.39"/>
<text text-anchor="middle" x="59.59" y="-92.99" font-family="Times,serif" font-size="14.00">c</text>
</g>
<!-- s3 -->
<g id="node8" class="node">
<title>s3</title>
<ellipse fill="none" stroke="black" cx="237.25" cy="-170.11" rx="19.11" ry="19.11"/>
<text text-anchor="middle" x="237.25" y="-165.06" font-family="Times,serif" font-size="14.00">s3</text>
</g>
<!-- s2&#45;&gt;s3 -->
<g id="edge5" class="edge">
<title>s2&#45;&gt;s3</title>
<path fill="none" stroke="black" d="M119.59,-171.83C142.03,-171.5 180.15,-170.94 206.69,-170.54"/>
<polygon fill="black" stroke="black" points="206.5,-174.05 216.45,-170.4 206.4,-167.05 206.5,-174.05"/>
<text text-anchor="middle" x="140.56" y="-174.76" font-family="Times,serif" font-size="14.00">a</text>
</g>
<!-- s5 -->
<g id="node9" class="node">
<title>s5</title>
<ellipse fill="none" stroke="black" cx="237.25" cy="-116.11" rx="19.11" ry="19.11"/>
<text text-anchor="middle" x="237.25" y="-111.06" font-family="Times,serif" font-size="14.00">s5</text>
</g>
<!-- s4&#45;&gt;s5 -->
<g id="edge7" class="edge">
<title>s4&#45;&gt;s5</title>
<path fill="none" stroke="black" d="M119.59,-116.11C142.03,-116.11 180.15,-116.11 206.69,-116.11"/>
<polygon fill="black" stroke="black" points="206.45,-119.61 216.45,-116.11 206.45,-112.61 206.45,-119.61"/>
<text text-anchor="middle" x="140.56" y="-119.31" font-family="Times,serif" font-size="14.00">b</text>
</g>
<!-- s7 -->
<g id="node10" class="node">
<title>s7</title>
<ellipse fill="none" stroke="black" cx="181.04" cy="-60.11" rx="19.11" ry="19.11"/>
<text text-anchor="middle" x="181.04" y="-55.06" font-family="Times,serif" font-size="14.00">s7</text>
</g>
<!-- s6&#45;&gt;s7 -->
<g id="edge9" class="edge">
<title>s6&#45;&gt;s7</title>
<path fill="none" stroke="black" d="M119.39,-60.11C128.49,-60.11 139.73,-60.11 150.04,-60.11"/>
<polygon fill="black" stroke="black" points="150.04,-63.61 160.04,-60.11 150.04,-56.61 150.04,-63.61"/>
<text text-anchor="middle" x="140.56" y="-63.31" font-family="Times,serif" font-size="14.00">c</text>
</g>
<!-- s1 -->
<g id="node6" class="node">
<title>s1</title>
<ellipse fill="none" stroke="black" cx="374.43" cy="-116.11" rx="19.11" ry="19.11"/>
<text text-anchor="middle" x="374.43" y="-111.06" font-family="Times,serif" font-size="14.00">s1</text>
</g>
<!-- s9 -->
<g id="node7" class="node">
<title>s9</title>
<ellipse fill="none" stroke="black" cx="454.65" cy="-116.11" rx="19.11" ry="19.11"/>
<text text-anchor="middle" x="454.65" y="-111.06" font-family="Times,serif" font-size="14.00">s9</text>
</g>
<!-- s1&#45;&gt;s9 -->
<g id="edge4" class="edge">
<title>s1&#45;&gt;s9</title>
<path fill="none" stroke="black" d="M393.97,-116.11C402.93,-116.11 413.91,-116.11 423.99,-116.11"/>
<polygon fill="black" stroke="black" points="423.73,-119.61 433.73,-116.11 423.73,-112.61 423.73,-119.61"/>
<text text-anchor="middle" x="414.54" y="-119.31" font-family="Times,serif" font-size="14.00">a</text>
</g>
<!-- s10 -->
<g id="node12" class="node">
<title>s10</title>
<ellipse fill="none" stroke="black" cx="540.22" cy="-116.11" rx="23.71" ry="23.71"/>
<text text-anchor="middle" x="540.22" y="-111.06" font-family="Times,serif" font-size="14.00">s10</text>
</g>
<!-- s9&#45;&gt;s10 -->
<g id="edge12" class="edge">
<title>s9&#45;&gt;s10</title>
<path fill="none" stroke="black" d="M474.19,-116.11C483.21,-116.11 494.34,-116.11 504.83,-116.11"/>
<polygon fill="black" stroke="black" points="504.73,-119.61 514.73,-116.11 504.73,-112.61 504.73,-119.61"/>
<text text-anchor="middle" x="495.13" y="-119.31" font-family="Times,serif" font-size="14.00">b</text>
</g>
<!-- s3&#45;&gt;s1 -->
<g id="edge6" class="edge">
<title>s3&#45;&gt;s1</title>
<path fill="none" stroke="black" d="M255.37,-163.27C278.23,-154.14 318.97,-137.87 346.09,-127.03"/>
<polygon fill="black" stroke="black" points="347.06,-130.41 355.05,-123.45 344.46,-123.91 347.06,-130.41"/>
<text text-anchor="middle" x="293.47" y="-158.62" font-family="Times,serif" font-size="14.00">λ</text>
</g>
<!-- s5&#45;&gt;s1 -->
<g id="edge8" class="edge">
<title>s5&#45;&gt;s1</title>
<path fill="none" stroke="black" d="M256.77,-116.11C279.21,-116.11 317.33,-116.11 343.87,-116.11"/>
<polygon fill="black" stroke="black" points="343.63,-119.61 353.63,-116.11 343.63,-112.61 343.63,-119.61"/>
<text text-anchor="middle" x="293.47" y="-119.31" font-family="Times,serif" font-size="14.00">λ</text>
</g>
<!-- s8 -->
<g id="node11" class="node">
<title>s8</title>
<ellipse fill="none" stroke="black" cx="293.47" cy="-61.11" rx="19.11" ry="19.11"/>
<text text-anchor="middle" x="293.47" y="-56.06" font-family="Times,serif" font-size="14.00">s8</text>
</g>
<!-- s7&#45;&gt;s8 -->
<g id="edge10" class="edge">
<title>s7&#45;&gt;s8</title>
<path fill="none" stroke="black" d="M200.27,-60.27C217.3,-60.43 243,-60.66 262.95,-60.84"/>
<polygon fill="black" stroke="black" points="262.66,-64.34 272.69,-60.93 262.72,-57.34 262.66,-64.34"/>
<text text-anchor="middle" x="237.25" y="-63.96" font-family="Times,serif" font-size="14.00">c</text>
</g>
<!-- s8&#45;&gt;s1 -->
<g id="edge11" class="edge">
<title>s8&#45;&gt;s1</title>
<path fill="none" stroke="black" d="M310.77,-69.51C318.95,-73.96 328.9,-79.71 337.33,-85.61 341.96,-88.85 346.71,-92.55 351.18,-96.24"/>
<polygon fill="black" stroke="black" points="348.81,-98.81 358.69,-102.63 353.35,-93.48 348.81,-98.81"/>
<text text-anchor="middle" x="333.95" y="-88.81" font-family="Times,serif" font-size="14.00">λ</text>
</g>
<!-- s10&#45;&gt;s11 -->
<g id="edge13" class="edge">
<title>s10&#45;&gt;s11</title>
<path fill="none" stroke="black" d="M564,-116.11C573.3,-116.11 584.31,-116.11 594.8,-116.11"/>
<polygon fill="black" stroke="black" points="594.77,-119.61 604.77,-116.11 594.77,-112.61 594.77,-119.61"/>
<text text-anchor="middle" x="585.31" y="-119.31" font-family="Times,serif" font-size="14.00">b</text>
</g>
</g>
</svg>
