<?xml version="1.0" encoding="UTF-8" standalone="no"?>
<!DOCTYPE svg PUBLIC "-//W3C//DTD SVG 1.1//EN"
 "http://www.w3.org/Graphics/SVG/1.1/DTD/svg11.dtd">
<!-- Generated by graphviz version 12.2.1 (20241206.2353)
 -->
<!-- Title: finite_state_machine Pages: 1 -->
<svg width="384pt" height="360pt"
 viewBox="0.00 0.00 383.64 360.00" xmlns="http://www.w3.org/2000/svg" xmlns:xlink="http://www.w3.org/1999/xlink">
<g id="graph0" class="graph" transform="scale(0.945592 0.945592) rotate(0) translate(4 376.71)">
<title>finite_state_machine</title>
<polygon fill="white" stroke="none" points="-4,4 -4,-376.71 401.71,-376.71 401.71,4 -4,4"/>
<text text-anchor="middle" x="198.86" y="-7.2" font-family="Times,serif" font-size="14.00">Regular Expression: xyzzy401</text>
<!-- s12 -->
<g id="node1" class="node">
<title>s12</title>
<ellipse fill="none" stroke="black" cx="370" cy="-52.21" rx="23.71" ry="23.71"/>
<ellipse fill="none" stroke="black" cx="370" cy="-52.21" rx="27.71" ry="27.71"/>
<text text-anchor="middle" x="370" y="-47.16" font-family="Times,serif" font-size="14.00">s12</text>
</g>
<!-- s0 -->
<g id="node2" class="node">
<title>s0</title>
<ellipse fill="none" stroke="black" cx="100.07" cy="-207.21" rx="19.11" ry="19.11"/>
<text text-anchor="middle" x="100.07" y="-202.16" font-family="Times,serif" font-size="14.00">s0</text>
</g>
<!-- s2 -->
<g id="node3" class="node">
<title>s2</title>
<ellipse fill="none" stroke="black" cx="185.64" cy="-263.21" rx="19.11" ry="19.11"/>
<text text-anchor="middle" x="185.64" y="-258.16" font-family="Times,serif" font-size="14.00">s2</text>
</g>
<!-- s0&#45;&gt;s2 -->
<g id="edge1" class="edge">
<title>s0&#45;&gt;s2</title>
<path fill="none" stroke="black" d="M116.4,-217.49C128.58,-225.64 145.84,-237.21 159.96,-246.67"/>
<polygon fill="black" stroke="black" points="157.62,-249.32 167.87,-251.98 161.51,-243.5 157.62,-249.32"/>
<text text-anchor="middle" x="140.56" y="-238.41" font-family="Times,serif" font-size="14.00">a</text>
</g>
<!-- s4 -->
<g id="node4" class="node">
<title>s4</title>
<ellipse fill="none" stroke="black" cx="185.64" cy="-151.21" rx="19.11" ry="19.11"/>
<text text-anchor="middle" x="185.64" y="-146.16" font-family="Times,serif" font-size="14.00">s4</text>
</g>
<!-- s0&#45;&gt;s4 -->
<g id="edge2" class="edge">
<title>s0&#45;&gt;s4</title>
<path fill="none" stroke="black" d="M116.4,-196.94C128.58,-188.78 145.84,-177.21 159.96,-167.75"/>
<polygon fill="black" stroke="black" points="161.51,-170.93 167.87,-162.45 157.62,-165.11 161.51,-170.93"/>
<text text-anchor="middle" x="140.56" y="-185.77" font-family="Times,serif" font-size="14.00">b</text>
</g>
<!-- s6 -->
<g id="node5" class="node">
<title>s6</title>
<ellipse fill="none" stroke="black" cx="185.64" cy="-207.21" rx="19.11" ry="19.11"/>
<text text-anchor="middle" x="185.64" y="-202.16" font-family="Times,serif" font-size="14.00">s6</text>
</g>
<!-- s0&#45;&gt;s6 -->
<g id="edge3" class="edge">
<title>s0&#45;&gt;s6</title>
<path fill="none" stroke="black" d="M119.62,-207.21C130.01,-207.21 143.2,-207.21 154.99,-207.21"/>
<polygon fill="black" stroke="black" points="154.63,-210.71 164.63,-207.21 154.63,-203.71 154.63,-210.71"/>
<text text-anchor="middle" x="140.56" y="-210.41" font-family="Times,serif" font-size="14.00">c</text>
</g>
<!-- s1 -->
<g id="node6" class="node">
<title>s1</title>
<ellipse fill="none" stroke="black" cx="19.11" cy="-207.21" rx="19.11" ry="19.11"/>
<text text-anchor="middle" x="19.11" y="-202.16" font-family="Times,serif" font-size="14.00">s1</text>
</g>
<!-- s0&#45;&gt;s1 -->
<g id="edge4" class="edge">
<title>s0&#45;&gt;s1</title>
<path fill="none" stroke="black" d="M84.43,-195.65C76.34,-190.62 65.98,-186.36 56.22,-188.71 52.77,-189.55 49.28,-190.77 45.89,-192.19"/>
<polygon fill="black" stroke="black" points="44.45,-189 37.01,-196.54 47.53,-195.29 44.45,-189"/>
<text text-anchor="middle" x="59.59" y="-191.91" font-family="Times,serif" font-size="14.00">λ</text>
</g>
<!-- s3 -->
<g id="node8" class="node">
<title>s3</title>
<ellipse fill="none" stroke="black" cx="275.82" cy="-286.21" rx="19.11" ry="19.11"/>
<text text-anchor="middle" x="275.82" y="-281.16" font-family="Times,serif" font-size="14.00">s3</text>
</g>
<!-- s2&#45;&gt;s3 -->
<g id="edge7" class="edge">
<title>s2&#45;&gt;s3</title>
<path fill="none" stroke="black" d="M204.49,-267.87C216.44,-270.99 232.44,-275.16 246.16,-278.74"/>
<polygon fill="black" stroke="black" points="244.98,-282.05 255.54,-281.18 246.75,-275.27 244.98,-282.05"/>
<text text-anchor="middle" x="230.73" y="-278.6" font-family="Times,serif" font-size="14.00">a</text>
</g>
<!-- s5 -->
<g id="node9" class="node">
<title>s5</title>
<ellipse fill="none" stroke="black" cx="275.82" cy="-129.21" rx="19.11" ry="19.11"/>
<text text-anchor="middle" x="275.82" y="-124.16" font-family="Times,serif" font-size="14.00">s5</text>
</g>
<!-- s4&#45;&gt;s5 -->
<g id="edge9" class="edge">
<title>s4&#45;&gt;s5</title>
<path fill="none" stroke="black" d="M204.49,-146.76C216.44,-143.78 232.44,-139.79 246.16,-136.37"/>
<polygon fill="black" stroke="black" points="246.68,-139.84 255.54,-134.03 244.99,-133.05 246.68,-139.84"/>
<text text-anchor="middle" x="230.73" y="-144.07" font-family="Times,serif" font-size="14.00">b</text>
</g>
<!-- s7 -->
<g id="node10" class="node">
<title>s7</title>
<ellipse fill="none" stroke="black" cx="275.82" cy="-224.21" rx="19.11" ry="19.11"/>
<text text-anchor="middle" x="275.82" y="-219.16" font-family="Times,serif" font-size="14.00">s7</text>
</g>
<!-- s6&#45;&gt;s7 -->
<g id="edge11" class="edge">
<title>s6&#45;&gt;s7</title>
<path fill="none" stroke="black" d="M204.91,-210.74C216.62,-212.99 232.07,-215.97 245.47,-218.56"/>
<polygon fill="black" stroke="black" points="244.61,-221.95 255.09,-220.41 245.93,-215.08 244.61,-221.95"/>
<text text-anchor="middle" x="230.73" y="-219.42" font-family="Times,serif" font-size="14.00">c</text>
</g>
<!-- s1&#45;&gt;s0 -->
<g id="edge5" class="edge">
<title>s1&#45;&gt;s0</title>
<path fill="none" stroke="black" d="M38.42,-207.21C47.53,-207.21 58.76,-207.21 69.08,-207.21"/>
<polygon fill="black" stroke="black" points="69.07,-210.71 79.07,-207.21 69.07,-203.71 69.07,-210.71"/>
<text text-anchor="middle" x="59.59" y="-210.41" font-family="Times,serif" font-size="14.00">λ</text>
</g>
<!-- s9 -->
<g id="node7" class="node">
<title>s9</title>
<ellipse fill="none" stroke="black" cx="100.07" cy="-56.21" rx="19.11" ry="19.11"/>
<text text-anchor="middle" x="100.07" y="-51.16" font-family="Times,serif" font-size="14.00">s9</text>
</g>
<!-- s1&#45;&gt;s9 -->
<g id="edge6" class="edge">
<title>s1&#45;&gt;s9</title>
<path fill="none" stroke="black" d="M20.18,-187.94C21.31,-159.53 27.44,-106.28 56.22,-73.71 60.11,-69.31 65.27,-65.99 70.67,-63.5"/>
<polygon fill="black" stroke="black" points="71.46,-66.94 79.62,-60.19 69.03,-60.38 71.46,-66.94"/>
<text text-anchor="middle" x="59.59" y="-76.91" font-family="Times,serif" font-size="14.00">τ</text>
</g>
<!-- s10 -->
<g id="node12" class="node">
<title>s10</title>
<ellipse fill="none" stroke="black" cx="185.64" cy="-52.21" rx="23.71" ry="23.71"/>
<text text-anchor="middle" x="185.64" y="-47.16" font-family="Times,serif" font-size="14.00">s10</text>
</g>
<!-- s9&#45;&gt;s10 -->
<g id="edge14" class="edge">
<title>s9&#45;&gt;s10</title>
<path fill="none" stroke="black" d="M119.62,-55.33C128.63,-54.89 139.76,-54.36 150.25,-53.86"/>
<polygon fill="black" stroke="black" points="150.34,-57.36 160.16,-53.39 150.01,-50.37 150.34,-57.36"/>
<text text-anchor="middle" x="140.56" y="-57.65" font-family="Times,serif" font-size="14.00">a</text>
</g>
<!-- s3&#45;&gt;s1 -->
<g id="edge8" class="edge">
<title>s3&#45;&gt;s1</title>
<path fill="none" stroke="black" d="M257.16,-291.54C250.06,-293.41 241.77,-295.29 234.11,-296.21 202.18,-300.08 192.6,-300.89 161.93,-291.21 116.72,-276.96 70.63,-245.98 43.74,-225.89"/>
<polygon fill="black" stroke="black" points="46.01,-223.22 35.94,-219.95 41.77,-228.79 46.01,-223.22"/>
<text text-anchor="middle" x="140.56" y="-287.37" font-family="Times,serif" font-size="14.00">λ</text>
</g>
<!-- s5&#45;&gt;s1 -->
<g id="edge10" class="edge">
<title>s5&#45;&gt;s1</title>
<path fill="none" stroke="black" d="M256.87,-124.88C234.29,-120.19 194.54,-114.48 161.93,-123.21 115.89,-135.54 69.73,-167.38 43.09,-188.13"/>
<polygon fill="black" stroke="black" points="41.02,-185.3 35.38,-194.27 45.38,-190.78 41.02,-185.3"/>
<text text-anchor="middle" x="140.56" y="-134.64" font-family="Times,serif" font-size="14.00">λ</text>
</g>
<!-- s8 -->
<g id="node11" class="node">
<title>s8</title>
<ellipse fill="none" stroke="black" cx="370" cy="-327.21" rx="19.11" ry="19.11"/>
<text text-anchor="middle" x="370" y="-322.16" font-family="Times,serif" font-size="14.00">s8</text>
</g>
<!-- s7&#45;&gt;s8 -->
<g id="edge12" class="edge">
<title>s7&#45;&gt;s8</title>
<path fill="none" stroke="black" d="M289.25,-238.1C304.58,-255.23 330.82,-284.55 348.99,-304.86"/>
<polygon fill="black" stroke="black" points="346.18,-306.97 355.46,-312.09 351.4,-302.3 346.18,-306.97"/>
<text text-anchor="middle" x="320.91" y="-278.91" font-family="Times,serif" font-size="14.00">c</text>
</g>
<!-- s8&#45;&gt;s1 -->
<g id="edge13" class="edge">
<title>s8&#45;&gt;s1</title>
<path fill="none" stroke="black" d="M352.5,-335.76C334.43,-344.31 304.33,-356.21 276.82,-356.21 99.07,-356.21 99.07,-356.21 99.07,-356.21 45.95,-356.21 28.46,-281.37 22.78,-237.77"/>
<polygon fill="black" stroke="black" points="26.27,-237.43 21.65,-227.89 19.31,-238.23 26.27,-237.43"/>
<text text-anchor="middle" x="185.64" y="-359.41" font-family="Times,serif" font-size="14.00">λ</text>
</g>
<!-- s11 -->
<g id="node13" class="node">
<title>s11</title>
<ellipse fill="none" stroke="black" cx="275.82" cy="-52.21" rx="23.71" ry="23.71"/>
<text text-anchor="middle" x="275.82" y="-47.16" font-family="Times,serif" font-size="14.00">s11</text>
</g>
<!-- s10&#45;&gt;s11 -->
<g id="edge15" class="edge">
<title>s10&#45;&gt;s11</title>
<path fill="none" stroke="black" d="M209.81,-52.21C219.23,-52.21 230.3,-52.21 240.62,-52.21"/>
<polygon fill="black" stroke="black" points="240.29,-55.71 250.29,-52.21 240.29,-48.71 240.29,-55.71"/>
<text text-anchor="middle" x="230.73" y="-55.41" font-family="Times,serif" font-size="14.00">b</text>
</g>
<!-- s11&#45;&gt;s12 -->
<g id="edge16" class="edge">
<title>s11&#45;&gt;s12</title>
<path fill="none" stroke="black" d="M299.61,-52.21C308.9,-52.21 319.92,-52.21 330.4,-52.21"/>
<polygon fill="black" stroke="black" points="330.37,-55.71 340.37,-52.21 330.37,-48.71 330.37,-55.71"/>
<text text-anchor="middle" x="320.91" y="-55.41" font-family="Times,serif" font-size="14.00">b</text>
</g>
</g>
</svg>
