<?xml version="1.0" encoding="UTF-8" standalone="no"?>
<!DOCTYPE svg PUBLIC "-//W3C//DTD SVG 1.1//EN"
 "http://www.w3.org/Graphics/SVG/1.1/DTD/svg11.dtd">
<!-- Generated by graphviz version 2.38.0 (20140413.2041)
 -->
<!-- Title: finite_state_machine Pages: 1 -->
<svg width="131pt" height="127pt"
 viewBox="0.00 0.00 131.00 127.00" xmlns="http://www.w3.org/2000/svg" xmlns:xlink="http://www.w3.org/1999/xlink">
<g id="graph0" class="graph" transform="scale(1 1) rotate(0) translate(4 123)">
<title>finite_state_machine</title>
<polygon fill="white" stroke="none" points="-4,4 -4,-123 127,-123 127,4 -4,4"/>
<!-- s2 -->
<g id="node1" class="node"><title>s2</title>
<ellipse fill="none" stroke="black" cx="101" cy="-22" rx="18" ry="18"/>
<ellipse fill="none" stroke="black" cx="101" cy="-22" rx="22" ry="22"/>
<text text-anchor="middle" x="101" y="-17.8" font-family="Times,serif" font-size="14.00">s2</text>
</g>
<!-- s0 -->
<g id="node2" class="node"><title>s0</title>
<ellipse fill="none" stroke="black" cx="101" cy="-96" rx="18" ry="18"/>
<text text-anchor="middle" x="101" y="-91.8" font-family="Times,serif" font-size="14.00">s0</text>
</g>
<!-- s1 -->
<g id="node3" class="node"><title>s1</title>
<ellipse fill="none" stroke="black" cx="18" cy="-77" rx="18" ry="18"/>
<text text-anchor="middle" x="18" y="-72.8" font-family="Times,serif" font-size="14.00">s1</text>
</g>
<!-- s0&#45;&gt;s1 -->
<g id="edge1" class="edge"><title>s0&#45;&gt;s1</title>
<path fill="none" stroke="black" d="M83.2382,-92.0682C72.3823,-89.5218 58.0094,-86.1504 45.6119,-83.2423"/>
<polygon fill="black" stroke="black" points="46.3183,-79.8131 35.7833,-80.9368 44.7197,-86.6281 46.3183,-79.8131"/>
<text text-anchor="middle" x="57.5" y="-88.8" font-family="Times,serif" font-size="14.00">x</text>
</g>
<!-- s0&#45;&gt;s1 -->
<g id="edge2" class="edge"><title>s0&#45;&gt;s1</title>
<path fill="none" stroke="black" d="M87.5084,-83.4432C80.393,-77.1948 70.9325,-70.2881 61,-67 55.5743,-65.2038 49.6546,-65.3648 44.0166,-66.4764"/>
<polygon fill="black" stroke="black" points="42.9671,-63.1365 34.3399,-69.2865 44.9193,-69.8588 42.9671,-63.1365"/>
<text text-anchor="middle" x="57.5" y="-69.8" font-family="Times,serif" font-size="14.00">λ</text>
</g>
<!-- s1&#45;&gt;s2 -->
<g id="edge4" class="edge"><title>s1&#45;&gt;s2</title>
<path fill="none" stroke="black" d="M31.767,-64.9161C38.1793,-59.1498 46.2231,-52.3574 54,-47 59.5016,-43.2101 65.6359,-39.5356 71.5862,-36.2227"/>
<polygon fill="black" stroke="black" points="73.5109,-39.162 80.6676,-31.3497 70.2011,-32.9939 73.5109,-39.162"/>
<text text-anchor="middle" x="57.5" y="-49.8" font-family="Times,serif" font-size="14.00">τ</text>
</g>
<!-- s1&#45;&gt;s0 -->
<g id="edge3" class="edge"><title>s1&#45;&gt;s0</title>
<path fill="none" stroke="black" d="M31.0744,-89.5316C37.3228,-95.1133 45.4286,-101.078 54,-104 60.3441,-106.163 67.3891,-106.094 74.0202,-105.009"/>
<polygon fill="black" stroke="black" points="75.0246,-108.368 83.9398,-102.643 73.4006,-101.559 75.0246,-108.368"/>
<text text-anchor="middle" x="57.5" y="-107.8" font-family="Times,serif" font-size="14.00">λ</text>
</g>
</g>
</svg>
