<?xml version="1.0" encoding="UTF-8" standalone="no"?>
<!DOCTYPE svg PUBLIC "-//W3C//DTD SVG 1.1//EN"
 "http://www.w3.org/Graphics/SVG/1.1/DTD/svg11.dtd">
<!-- Generated by graphviz version 12.2.1 (20241206.2353)
 -->
<!-- Title: finite_state_machine Pages: 1 -->
<svg width="304pt" height="54pt"
 viewBox="0.00 0.00 303.86 54.22" xmlns="http://www.w3.org/2000/svg" xmlns:xlink="http://www.w3.org/1999/xlink">
<g id="graph0" class="graph" transform="scale(1 1) rotate(0) translate(4 50.22)">
<title>finite_state_machine</title>
<polygon fill="white" stroke="none" points="-4,4 -4,-50.22 299.86,-50.22 299.86,4 -4,4"/>
<!-- s3 -->
<g id="node1" class="node">
<title>s3</title>
<ellipse fill="none" stroke="black" cx="272.75" cy="-23.11" rx="19.11" ry="19.11"/>
<ellipse fill="none" stroke="black" cx="272.75" cy="-23.11" rx="23.11" ry="23.11"/>
<text text-anchor="middle" x="272.75" y="-18.06" font-family="Times,serif" font-size="14.00">s3</text>
</g>
<!-- s0 -->
<g id="node2" class="node">
<title>s0</title>
<ellipse fill="none" stroke="black" cx="19.11" cy="-23.11" rx="19.11" ry="19.11"/>
<text text-anchor="middle" x="19.11" y="-18.06" font-family="Times,serif" font-size="14.00">s0</text>
</g>
<!-- s1 -->
<g id="node3" class="node">
<title>s1</title>
<ellipse fill="none" stroke="black" cx="99.32" cy="-23.11" rx="19.11" ry="19.11"/>
<text text-anchor="middle" x="99.32" y="-18.06" font-family="Times,serif" font-size="14.00">s1</text>
</g>
<!-- s0&#45;&gt;s1 -->
<g id="edge1" class="edge">
<title>s0&#45;&gt;s1</title>
<path fill="none" stroke="black" d="M38.64,-23.11C47.6,-23.11 58.58,-23.11 68.67,-23.11"/>
<polygon fill="black" stroke="black" points="68.41,-26.61 78.41,-23.11 68.41,-19.61 68.41,-26.61"/>
<text text-anchor="middle" x="59.22" y="-26.31" font-family="Times,serif" font-size="14.00">a</text>
</g>
<!-- s2 -->
<g id="node4" class="node">
<title>s2</title>
<ellipse fill="none" stroke="black" cx="187.79" cy="-23.11" rx="19.11" ry="19.11"/>
<text text-anchor="middle" x="187.79" y="-18.06" font-family="Times,serif" font-size="14.00">s2</text>
</g>
<!-- s1&#45;&gt;s2 -->
<g id="edge2" class="edge">
<title>s1&#45;&gt;s2</title>
<path fill="none" stroke="black" d="M118.66,-23.11C129.89,-23.11 144.53,-23.11 157.36,-23.11"/>
<polygon fill="black" stroke="black" points="156.96,-26.61 166.96,-23.11 156.96,-19.61 156.96,-26.61"/>
<text text-anchor="middle" x="143.56" y="-25.56" font-family="Times,serif" font-size="14.00"></text>
</g>
<!-- s2&#45;&gt;s3 -->
<g id="edge3" class="edge">
<title>s2&#45;&gt;s3</title>
<path fill="none" stroke="black" d="M207.2,-23.11C216.22,-23.11 227.37,-23.11 237.85,-23.11"/>
<polygon fill="black" stroke="black" points="237.74,-26.61 247.74,-23.11 237.74,-19.61 237.74,-26.61"/>
<text text-anchor="middle" x="228.27" y="-26.31" font-family="Times,serif" font-size="14.00">d</text>
</g>
</g>
</svg>
