<?xml version="1.0" encoding="UTF-8" standalone="no"?>
<!DOCTYPE svg PUBLIC "-//W3C//DTD SVG 1.1//EN"
 "http://www.w3.org/Graphics/SVG/1.1/DTD/svg11.dtd">
<!-- Generated by graphviz version 12.2.1 (20241206.2353)
 -->
<!-- Title: finite_state_machine Pages: 1 -->
<svg width="576pt" height="171pt"
 viewBox="0.00 0.00 576.00 171.19" xmlns="http://www.w3.org/2000/svg" xmlns:xlink="http://www.w3.org/1999/xlink">
<g id="graph0" class="graph" transform="scale(0.942104 0.942104) rotate(0) translate(4 177.72)">
<title>finite_state_machine</title>
<polygon fill="white" stroke="none" points="-4,4 -4,-177.72 607.4,-177.72 607.4,4 -4,4"/>
<text text-anchor="middle" x="301.7" y="-7.2" font-family="Times,serif" font-size="14.00">Regular Expression: (a*|aab|aaab)</text>
<!-- s1 -->
<g id="node1" class="node">
<title>s1</title>
<ellipse fill="none" stroke="black" cx="580.29" cy="-95.61" rx="19.11" ry="19.11"/>
<ellipse fill="none" stroke="black" cx="580.29" cy="-95.61" rx="23.11" ry="23.11"/>
<text text-anchor="middle" x="580.29" y="-90.56" font-family="Times,serif" font-size="14.00">s1</text>
</g>
<!-- s0 -->
<g id="node2" class="node">
<title>s0</title>
<ellipse fill="none" stroke="black" cx="100.07" cy="-123.61" rx="19.11" ry="19.11"/>
<text text-anchor="middle" x="100.07" y="-118.56" font-family="Times,serif" font-size="14.00">s0</text>
</g>
<!-- s2 -->
<g id="node3" class="node">
<title>s2</title>
<ellipse fill="none" stroke="black" cx="19.11" cy="-103.61" rx="19.11" ry="19.11"/>
<text text-anchor="middle" x="19.11" y="-98.56" font-family="Times,serif" font-size="14.00">s2</text>
</g>
<!-- s0&#45;&gt;s2 -->
<g id="edge1" class="edge">
<title>s0&#45;&gt;s2</title>
<path fill="none" stroke="black" d="M81.23,-119.09C71.75,-116.69 59.86,-113.68 49.1,-110.95"/>
<polygon fill="black" stroke="black" points="50.05,-107.58 39.49,-108.52 48.33,-114.37 50.05,-107.58"/>
<text text-anchor="middle" x="59.59" y="-117.41" font-family="Times,serif" font-size="14.00">a</text>
</g>
<!-- s0&#45;&gt;s2 -->
<g id="edge2" class="edge">
<title>s0&#45;&gt;s2</title>
<path fill="none" stroke="black" d="M87.24,-109.35C80.83,-102.75 72.31,-95.61 62.97,-92.11 57.83,-90.18 52.23,-90.22 46.82,-91.27"/>
<polygon fill="black" stroke="black" points="46.17,-87.81 37.66,-94.12 48.25,-94.5 46.17,-87.81"/>
<text text-anchor="middle" x="59.59" y="-95.31" font-family="Times,serif" font-size="14.00">λ</text>
</g>
<!-- s4 -->
<g id="node4" class="node">
<title>s4</title>
<ellipse fill="none" stroke="black" cx="212.5" cy="-152.61" rx="19.11" ry="19.11"/>
<text text-anchor="middle" x="212.5" y="-147.56" font-family="Times,serif" font-size="14.00">s4</text>
</g>
<!-- s0&#45;&gt;s4 -->
<g id="edge3" class="edge">
<title>s0&#45;&gt;s4</title>
<path fill="none" stroke="black" d="M118.81,-128.27C136.04,-132.79 162.48,-139.73 182.72,-145.05"/>
<polygon fill="black" stroke="black" points="181.78,-148.42 192.34,-147.58 183.56,-141.65 181.78,-148.42"/>
<text text-anchor="middle" x="156.29" y="-145.6" font-family="Times,serif" font-size="14.00">a</text>
</g>
<!-- s7 -->
<g id="node5" class="node">
<title>s7</title>
<ellipse fill="none" stroke="black" cx="212.5" cy="-96.61" rx="19.11" ry="19.11"/>
<text text-anchor="middle" x="212.5" y="-91.56" font-family="Times,serif" font-size="14.00">s7</text>
</g>
<!-- s0&#45;&gt;s7 -->
<g id="edge4" class="edge">
<title>s0&#45;&gt;s7</title>
<path fill="none" stroke="black" d="M118.13,-116.52C124.08,-114.24 130.86,-111.85 137.18,-110.11 151.75,-106.09 168.26,-102.96 182.02,-100.72"/>
<polygon fill="black" stroke="black" points="182.43,-104.2 191.78,-99.22 181.37,-97.28 182.43,-104.2"/>
<text text-anchor="middle" x="156.29" y="-113.31" font-family="Times,serif" font-size="14.00">a</text>
</g>
<!-- s2&#45;&gt;s0 -->
<g id="edge5" class="edge">
<title>s2&#45;&gt;s0</title>
<path fill="none" stroke="black" d="M32.3,-117.97C38.69,-124.37 47.07,-131.22 56.22,-134.61 61.21,-136.46 66.65,-136.5 71.92,-135.57"/>
<polygon fill="black" stroke="black" points="72.89,-138.93 81.5,-132.76 70.92,-132.22 72.89,-138.93"/>
<text text-anchor="middle" x="59.59" y="-139.16" font-family="Times,serif" font-size="14.00">λ</text>
</g>
<!-- s3 -->
<g id="node6" class="node">
<title>s3</title>
<ellipse fill="none" stroke="black" cx="156.29" cy="-43.61" rx="19.11" ry="19.11"/>
<text text-anchor="middle" x="156.29" y="-38.56" font-family="Times,serif" font-size="14.00">s3</text>
</g>
<!-- s2&#45;&gt;s3 -->
<g id="edge6" class="edge">
<title>s2&#45;&gt;s3</title>
<path fill="none" stroke="black" d="M32.25,-89.49C38.74,-82.74 47.23,-75.07 56.22,-70.11 77.97,-58.09 105.46,-51.3 125.96,-47.61"/>
<polygon fill="black" stroke="black" points="126.33,-51.09 135.63,-46.02 125.2,-44.19 126.33,-51.09"/>
<text text-anchor="middle" x="59.59" y="-73.31" font-family="Times,serif" font-size="14.00">τ</text>
</g>
<!-- s5 -->
<g id="node7" class="node">
<title>s5</title>
<ellipse fill="none" stroke="black" cx="292.72" cy="-154.61" rx="19.11" ry="19.11"/>
<text text-anchor="middle" x="292.72" y="-149.56" font-family="Times,serif" font-size="14.00">s5</text>
</g>
<!-- s4&#45;&gt;s5 -->
<g id="edge8" class="edge">
<title>s4&#45;&gt;s5</title>
<path fill="none" stroke="black" d="M232.04,-153.08C241,-153.31 251.98,-153.59 262.06,-153.85"/>
<polygon fill="black" stroke="black" points="261.72,-157.34 271.8,-154.1 261.89,-150.34 261.72,-157.34"/>
<text text-anchor="middle" x="252.61" y="-156.87" font-family="Times,serif" font-size="14.00">a</text>
</g>
<!-- s8 -->
<g id="node9" class="node">
<title>s8</title>
<ellipse fill="none" stroke="black" cx="292.72" cy="-96.61" rx="19.11" ry="19.11"/>
<text text-anchor="middle" x="292.72" y="-91.56" font-family="Times,serif" font-size="14.00">s8</text>
</g>
<!-- s7&#45;&gt;s8 -->
<g id="edge11" class="edge">
<title>s7&#45;&gt;s8</title>
<path fill="none" stroke="black" d="M232.04,-96.61C241,-96.61 251.98,-96.61 262.06,-96.61"/>
<polygon fill="black" stroke="black" points="261.8,-100.11 271.8,-96.61 261.8,-93.11 261.8,-100.11"/>
<text text-anchor="middle" x="252.61" y="-99.81" font-family="Times,serif" font-size="14.00">a</text>
</g>
<!-- s3&#45;&gt;s1 -->
<g id="edge7" class="edge">
<title>s3&#45;&gt;s1</title>
<path fill="none" stroke="black" d="M175.72,-43.61C194.74,-43.61 225.25,-43.61 251.61,-43.61 251.61,-43.61 251.61,-43.61 491.72,-43.61 515.59,-43.61 538.64,-58.07 555.09,-71.74"/>
<polygon fill="black" stroke="black" points="552.56,-74.17 562.38,-78.15 557.19,-68.92 552.56,-74.17"/>
<text text-anchor="middle" x="333.2" y="-46.81" font-family="Times,serif" font-size="14.00">λ</text>
</g>
<!-- s6 -->
<g id="node8" class="node">
<title>s6</title>
<ellipse fill="none" stroke="black" cx="429.9" cy="-154.61" rx="19.11" ry="19.11"/>
<text text-anchor="middle" x="429.9" y="-149.56" font-family="Times,serif" font-size="14.00">s6</text>
</g>
<!-- s5&#45;&gt;s6 -->
<g id="edge9" class="edge">
<title>s5&#45;&gt;s6</title>
<path fill="none" stroke="black" d="M312.23,-154.61C334.68,-154.61 372.8,-154.61 399.33,-154.61"/>
<polygon fill="black" stroke="black" points="399.09,-158.11 409.09,-154.61 399.09,-151.11 399.09,-158.11"/>
<text text-anchor="middle" x="333.2" y="-157.81" font-family="Times,serif" font-size="14.00">b</text>
</g>
<!-- s6&#45;&gt;s1 -->
<g id="edge10" class="edge">
<title>s6&#45;&gt;s1</title>
<path fill="none" stroke="black" d="M448.76,-149.88C465.86,-145.17 492.26,-137.38 514.43,-128.61 525.8,-124.11 528.27,-122.11 539.18,-116.61 542.48,-114.94 545.92,-113.18 549.34,-111.42"/>
<polygon fill="black" stroke="black" points="550.77,-114.62 558.02,-106.9 547.53,-108.41 550.77,-114.62"/>
<text text-anchor="middle" x="490.72" y="-147.59" font-family="Times,serif" font-size="14.00">λ</text>
</g>
<!-- s9 -->
<g id="node10" class="node">
<title>s9</title>
<ellipse fill="none" stroke="black" cx="373.68" cy="-95.61" rx="19.11" ry="19.11"/>
<text text-anchor="middle" x="373.68" y="-90.56" font-family="Times,serif" font-size="14.00">s9</text>
</g>
<!-- s8&#45;&gt;s9 -->
<g id="edge12" class="edge">
<title>s8&#45;&gt;s9</title>
<path fill="none" stroke="black" d="M312.03,-96.38C321.14,-96.26 332.37,-96.12 342.69,-95.99"/>
<polygon fill="black" stroke="black" points="342.73,-99.49 352.68,-95.86 342.64,-92.49 342.73,-99.49"/>
<text text-anchor="middle" x="333.2" y="-99.34" font-family="Times,serif" font-size="14.00">a</text>
</g>
<!-- s10 -->
<g id="node11" class="node">
<title>s10</title>
<ellipse fill="none" stroke="black" cx="490.72" cy="-95.61" rx="23.71" ry="23.71"/>
<text text-anchor="middle" x="490.72" y="-90.56" font-family="Times,serif" font-size="14.00">s10</text>
</g>
<!-- s9&#45;&gt;s10 -->
<g id="edge13" class="edge">
<title>s9&#45;&gt;s10</title>
<path fill="none" stroke="black" d="M393.17,-95.61C409.84,-95.61 434.79,-95.61 455.15,-95.61"/>
<polygon fill="black" stroke="black" points="455,-99.11 465,-95.61 455,-92.11 455,-99.11"/>
<text text-anchor="middle" x="429.9" y="-98.81" font-family="Times,serif" font-size="14.00">b</text>
</g>
<!-- s10&#45;&gt;s1 -->
<g id="edge14" class="edge">
<title>s10&#45;&gt;s1</title>
<path fill="none" stroke="black" d="M514.73,-95.61C524.05,-95.61 535.01,-95.61 545.23,-95.61"/>
<polygon fill="black" stroke="black" points="545.22,-99.11 555.22,-95.61 545.22,-92.11 545.22,-99.11"/>
<text text-anchor="middle" x="535.81" y="-98.81" font-family="Times,serif" font-size="14.00">λ</text>
</g>
</g>
</svg>
