<?xml version="1.0" encoding="UTF-8" standalone="no"?>
<!DOCTYPE svg PUBLIC "-//W3C//DTD SVG 1.1//EN"
 "http://www.w3.org/Graphics/SVG/1.1/DTD/svg11.dtd">
<!-- Generated by graphviz version 2.38.0 (20140413.2041)
 -->
<!-- Title: finite_state_machine Pages: 1 -->
<svg width="131pt" height="60pt"
 viewBox="0.00 0.00 131.00 60.13" xmlns="http://www.w3.org/2000/svg" xmlns:xlink="http://www.w3.org/1999/xlink">
<g id="graph0" class="graph" transform="scale(1 1) rotate(0) translate(4 56.1289)">
<title>finite_state_machine</title>
<polygon fill="white" stroke="none" points="-4,4 -4,-56.1289 127,-56.1289 127,4 -4,4"/>
<!-- s1 -->
<g id="node1" class="node"><title>s1</title>
<ellipse fill="none" stroke="black" cx="101" cy="-23.1289" rx="18" ry="18"/>
<ellipse fill="none" stroke="black" cx="101" cy="-23.1289" rx="22" ry="22"/>
<text text-anchor="middle" x="101" y="-18.9289" font-family="Times,serif" font-size="14.00">s1</text>
</g>
<!-- s0 -->
<g id="node2" class="node"><title>s0</title>
<ellipse fill="none" stroke="black" cx="18" cy="-23.1289" rx="18" ry="18"/>
<text text-anchor="middle" x="18" y="-18.9289" font-family="Times,serif" font-size="14.00">s0</text>
</g>
<!-- s0&#45;&gt;s1 -->
<g id="edge1" class="edge"><title>s0&#45;&gt;s1</title>
<path fill="none" stroke="black" d="M34.2412,-31.2515C40.2259,-34.0117 47.2651,-36.7465 54,-38.1289 59.9039,-39.3407 66.1118,-38.6949 71.9896,-37.1377"/>
<polygon fill="black" stroke="black" points="73.1757,-40.4308 81.4578,-33.8234 70.863,-33.8238 73.1757,-40.4308"/>
<text text-anchor="middle" x="57.5" y="-40.9289" font-family="Times,serif" font-size="14.00">λ</text>
</g>
<!-- s0&#45;&gt;s1 -->
<g id="edge2" class="edge"><title>s0&#45;&gt;s1</title>
<path fill="none" stroke="black" d="M36.071,-21.3713C41.7664,-20.8635 48.1506,-20.3791 54,-20.1289 58.715,-19.9272 63.6986,-19.9776 68.5768,-20.1746"/>
<polygon fill="black" stroke="black" points="68.7502,-23.6913 78.9426,-20.7994 69.1713,-16.704 68.7502,-23.6913"/>
<text text-anchor="middle" x="57.5" y="-22.9289" font-family="Times,serif" font-size="14.00">λ</text>
</g>
<!-- s0&#45;&gt;s1 -->
<g id="edge3" class="edge"><title>s0&#45;&gt;s1</title>
<path fill="none" stroke="black" d="M32.4324,-12.19C38.6113,-7.84398 46.276,-3.3548 54,-1.12886 61.1346,0.927228 68.5321,-0.725591 75.2542,-3.87768"/>
<polygon fill="black" stroke="black" points="73.5072,-6.91052 83.914,-8.89777 77.0179,-0.854493 73.5072,-6.91052"/>
<text text-anchor="middle" x="57.5" y="-3.92886" font-family="Times,serif" font-size="14.00">λ</text>
</g>
</g>
</svg>
