<?xml version="1.0" encoding="UTF-8" standalone="no"?>
<!DOCTYPE svg PUBLIC "-//W3C//DTD SVG 1.1//EN"
 "http://www.w3.org/Graphics/SVG/1.1/DTD/svg11.dtd">
<!-- Generated by graphviz version 12.2.1 (20241206.2353)
 -->
<!-- Title: finite_state_machine Pages: 1 -->
<svg width="191pt" height="92pt"
 viewBox="0.00 0.00 190.50 92.41" xmlns="http://www.w3.org/2000/svg" xmlns:xlink="http://www.w3.org/1999/xlink">
<g id="graph0" class="graph" transform="scale(1 1) rotate(0) translate(4 88.41)">
<title>finite_state_machine</title>
<polygon fill="white" stroke="none" points="-4,4 -4,-88.41 186.5,-88.41 186.5,4 -4,4"/>
<text text-anchor="middle" x="91.25" y="-7.2" font-family="Times,serif" font-size="14.00">Regular Expression: xyzzy401</text>
<!-- s1 -->
<g id="node1" class="node">
<title>s1</title>
<ellipse fill="none" stroke="black" cx="131.73" cy="-49.17" rx="19.11" ry="19.11"/>
<ellipse fill="none" stroke="black" cx="131.73" cy="-49.17" rx="23.11" ry="23.11"/>
<text text-anchor="middle" x="131.73" y="-44.12" font-family="Times,serif" font-size="14.00">s1</text>
</g>
<!-- s0 -->
<g id="node2" class="node">
<title>s0</title>
<ellipse fill="none" stroke="black" cx="46.77" cy="-49.17" rx="19.11" ry="19.11"/>
<text text-anchor="middle" x="46.77" y="-44.12" font-family="Times,serif" font-size="14.00">s0</text>
</g>
<!-- s0&#45;&gt;s1 -->
<g id="edge1" class="edge">
<title>s0&#45;&gt;s1</title>
<path fill="none" stroke="black" d="M63.34,-58.91C69.5,-62.22 76.78,-65.5 83.88,-67.17 89.66,-68.53 95.7,-67.89 101.43,-66.21"/>
<polygon fill="black" stroke="black" points="102.58,-69.52 110.55,-62.54 99.96,-63.03 102.58,-69.52"/>
<text text-anchor="middle" x="87.25" y="-71.11" font-family="Times,serif" font-size="14.00">λ</text>
</g>
<!-- s0&#45;&gt;s1 -->
<g id="edge2" class="edge">
<title>s0&#45;&gt;s1</title>
<path fill="none" stroke="black" d="M66.12,-47.65C71.81,-47.25 78.1,-46.87 83.88,-46.67 88.11,-46.52 92.57,-46.54 96.97,-46.66"/>
<polygon fill="black" stroke="black" points="96.68,-50.15 106.82,-47.1 96.99,-43.16 96.68,-50.15"/>
<text text-anchor="middle" x="87.25" y="-49.87" font-family="Times,serif" font-size="14.00">λ</text>
</g>
<!-- s0&#45;&gt;s1 -->
<g id="edge3" class="edge">
<title>s0&#45;&gt;s1</title>
<path fill="none" stroke="black" d="M61.91,-37.24C68.21,-32.68 75.99,-28.01 83.88,-25.67 90.75,-23.63 97.82,-25.07 104.33,-28.04"/>
<polygon fill="black" stroke="black" points="102.27,-30.89 112.67,-32.92 105.81,-24.85 102.27,-30.89"/>
<text text-anchor="middle" x="87.25" y="-28.87" font-family="Times,serif" font-size="14.00">λ</text>
</g>
</g>
</svg>
