<?xml version="1.0" encoding="UTF-8" standalone="no"?>
<!DOCTYPE svg PUBLIC "-//W3C//DTD SVG 1.1//EN"
 "http://www.w3.org/Graphics/SVG/1.1/DTD/svg11.dtd">
<!-- Generated by graphviz version 2.38.0 (20140413.2041)
 -->
<!-- Title: finite_state_machine Pages: 1 -->
<svg width="576pt" height="163pt"
 viewBox="0.00 0.00 576.00 162.76" xmlns="http://www.w3.org/2000/svg" xmlns:xlink="http://www.w3.org/1999/xlink">
<g id="graph0" class="graph" transform="scale(0.530541 0.530541) rotate(0) translate(4 302.784)">
<title>finite_state_machine</title>
<polygon fill="white" stroke="none" points="-4,4 -4,-302.784 1081.68,-302.784 1081.68,4 -4,4"/>
<!-- s1 -->
<g id="node1" class="node"><title>s1</title>
<ellipse fill="none" stroke="black" cx="1055.68" cy="-160.784" rx="18" ry="18"/>
<ellipse fill="none" stroke="black" cx="1055.68" cy="-160.784" rx="22" ry="22"/>
<text text-anchor="middle" x="1055.68" y="-156.584" font-family="Times,serif" font-size="14.00">s1</text>
</g>
<!-- s0 -->
<g id="node2" class="node"><title>s0</title>
<ellipse fill="none" stroke="black" cx="108.662" cy="-177.784" rx="18" ry="18"/>
<text text-anchor="middle" x="108.662" y="-173.584" font-family="Times,serif" font-size="14.00">s0</text>
</g>
<!-- s2 -->
<g id="node3" class="node"><title>s2</title>
<ellipse fill="none" stroke="black" cx="18" cy="-139.784" rx="18" ry="18"/>
<text text-anchor="middle" x="18" y="-135.584" font-family="Times,serif" font-size="14.00">s2</text>
</g>
<!-- s0&#45;&gt;s2 -->
<g id="edge1" class="edge"><title>s0&#45;&gt;s2</title>
<path fill="none" stroke="black" d="M92.5188,-169.5C86.427,-166.299 79.2876,-162.71 72.6621,-159.784 63.6752,-155.815 53.6311,-151.93 44.6848,-148.656"/>
<polygon fill="black" stroke="black" points="45.7601,-145.323 35.1655,-145.247 43.3999,-151.913 45.7601,-145.323"/>
<text text-anchor="middle" x="63.3311" y="-162.584" font-family="Times,serif" font-size="14.00">0&#45;9</text>
</g>
<!-- s0&#45;&gt;s2 -->
<g id="edge2" class="edge"><title>s0&#45;&gt;s2</title>
<path fill="none" stroke="black" d="M99.6822,-161.645C93.7494,-151.608 84.6188,-139.551 72.6621,-133.784 64.1962,-129.7 54.1301,-129.736 45.0159,-131.291"/>
<polygon fill="black" stroke="black" points="44.2166,-127.883 35.2663,-133.552 45.7986,-134.702 44.2166,-127.883"/>
<text text-anchor="middle" x="63.3311" y="-136.584" font-family="Times,serif" font-size="14.00">λ</text>
</g>
<!-- s15 -->
<g id="node4" class="node"><title>s15</title>
<ellipse fill="none" stroke="black" cx="208.378" cy="-214.784" rx="22.2841" ry="22.2841"/>
<text text-anchor="middle" x="208.378" y="-210.584" font-family="Times,serif" font-size="14.00">s15</text>
</g>
<!-- s0&#45;&gt;s15 -->
<g id="edge3" class="edge"><title>s0&#45;&gt;s15</title>
<path fill="none" stroke="black" d="M125.599,-184.883C131.545,-187.46 138.378,-190.338 144.662,-192.784 155.256,-196.906 166.983,-201.114 177.404,-204.731"/>
<polygon fill="black" stroke="black" points="176.32,-208.059 186.914,-207.995 178.592,-201.438 176.32,-208.059"/>
<text text-anchor="middle" x="156.324" y="-203.584" font-family="Times,serif" font-size="14.00">a&#45;z</text>
</g>
<!-- s0&#45;&gt;s15 -->
<g id="edge4" class="edge"><title>s0&#45;&gt;s15</title>
<path fill="none" stroke="black" d="M126.158,-173.221C138.213,-170.754 154.706,-169.223 167.986,-174.784 175.572,-177.96 182.436,-183.388 188.231,-189.238"/>
<polygon fill="black" stroke="black" points="185.684,-191.64 194.972,-196.736 190.889,-186.959 185.684,-191.64"/>
<text text-anchor="middle" x="156.324" y="-177.584" font-family="Times,serif" font-size="14.00">A&#45;Z</text>
</g>
<!-- s2&#45;&gt;s0 -->
<g id="edge5" class="edge"><title>s2&#45;&gt;s0</title>
<path fill="none" stroke="black" d="M29.3791,-153.795C35.6345,-161.101 44.2653,-169.406 54,-173.784 62.1167,-177.434 71.6237,-178.922 80.3622,-179.351"/>
<polygon fill="black" stroke="black" points="80.4703,-182.852 90.495,-179.423 80.5202,-175.852 80.4703,-182.852"/>
<text text-anchor="middle" x="63.3311" y="-180.584" font-family="Times,serif" font-size="14.00">λ</text>
</g>
<!-- s3 -->
<g id="node5" class="node"><title>s3</title>
<ellipse fill="none" stroke="black" cx="108.662" cy="-24.7838" rx="18" ry="18"/>
<text text-anchor="middle" x="108.662" y="-20.5838" font-family="Times,serif" font-size="14.00">s3</text>
</g>
<!-- s2&#45;&gt;s3 -->
<g id="edge6" class="edge"><title>s2&#45;&gt;s3</title>
<path fill="none" stroke="black" d="M29.8717,-125.683C45.1095,-105.918 72.9567,-69.7988 90.87,-46.5642"/>
<polygon fill="black" stroke="black" points="93.6444,-48.6979 96.9784,-38.6412 88.1007,-44.4238 93.6444,-48.6979"/>
<text text-anchor="middle" x="63.3311" y="-94.5838" font-family="Times,serif" font-size="14.00">τ</text>
</g>
<!-- s16 -->
<g id="node17" class="node"><title>s16</title>
<ellipse fill="none" stroke="black" cx="312.486" cy="-210.784" rx="22.2841" ry="22.2841"/>
<text text-anchor="middle" x="312.486" y="-206.584" font-family="Times,serif" font-size="14.00">s16</text>
</g>
<!-- s15&#45;&gt;s16 -->
<g id="edge26" class="edge"><title>s15&#45;&gt;s16</title>
<path fill="none" stroke="black" d="M227.451,-202.764C233.902,-199.134 241.402,-195.625 248.77,-193.784 258.827,-191.271 261.942,-191.687 272.094,-193.784 275.737,-194.536 279.457,-195.642 283.087,-196.935"/>
<polygon fill="black" stroke="black" points="281.781,-200.182 292.365,-200.678 284.401,-193.691 281.781,-200.182"/>
<text text-anchor="middle" x="260.432" y="-196.584" font-family="Times,serif" font-size="14.00">a&#45;z</text>
</g>
<!-- s15&#45;&gt;s16 -->
<g id="edge27" class="edge"><title>s15&#45;&gt;s16</title>
<path fill="none" stroke="black" d="M221.691,-196.295C228.536,-187.725 237.872,-178.426 248.77,-173.784 258.307,-169.721 262.456,-169.967 272.094,-173.784 278.893,-176.476 285.203,-180.959 290.692,-185.891"/>
<polygon fill="black" stroke="black" points="288.555,-188.703 298.108,-193.285 293.497,-183.746 288.555,-188.703"/>
<text text-anchor="middle" x="260.432" y="-176.584" font-family="Times,serif" font-size="14.00">A&#45;Z</text>
</g>
<!-- s15&#45;&gt;s16 -->
<g id="edge28" class="edge"><title>s15&#45;&gt;s16</title>
<path fill="none" stroke="black" d="M215.595,-236.17C221.405,-251.864 231.787,-272.068 248.77,-281.784 257.768,-286.931 263.161,-287.043 272.094,-281.784 286.842,-273.101 296.461,-256.685 302.499,-241.824"/>
<polygon fill="black" stroke="black" points="305.806,-242.973 305.968,-232.379 299.235,-240.56 305.806,-242.973"/>
<text text-anchor="middle" x="260.432" y="-287.584" font-family="Times,serif" font-size="14.00">0&#45;9</text>
</g>
<!-- s15&#45;&gt;s16 -->
<g id="edge29" class="edge"><title>s15&#45;&gt;s16</title>
<path fill="none" stroke="black" d="M224.832,-230.295C231.588,-236.012 239.973,-241.816 248.77,-244.784 258.592,-248.098 262.378,-248.397 272.094,-244.784 278.318,-242.469 284.215,-238.681 289.46,-234.457"/>
<polygon fill="black" stroke="black" points="291.998,-236.882 297.118,-227.607 287.331,-231.665 291.998,-236.882"/>
<text text-anchor="middle" x="260.432" y="-249.584" font-family="Times,serif" font-size="14.00">λ</text>
</g>
<!-- s4 -->
<g id="node6" class="node"><title>s4</title>
<ellipse fill="none" stroke="black" cx="208.378" cy="-51.7838" rx="18" ry="18"/>
<text text-anchor="middle" x="208.378" y="-47.5838" font-family="Times,serif" font-size="14.00">s4</text>
</g>
<!-- s3&#45;&gt;s4 -->
<g id="edge7" class="edge"><title>s3&#45;&gt;s4</title>
<path fill="none" stroke="black" d="M125.487,-18.0579C137.497,-13.9606 154.232,-10.4457 167.986,-15.7838 176.002,-18.895 183.384,-24.4822 189.537,-30.3411"/>
<polygon fill="black" stroke="black" points="187.183,-32.9437 196.63,-37.7417 192.237,-28.1002 187.183,-32.9437"/>
<text text-anchor="middle" x="156.324" y="-18.5838" font-family="Times,serif" font-size="14.00">.</text>
</g>
<!-- s5 -->
<g id="node7" class="node"><title>s5</title>
<ellipse fill="none" stroke="black" cx="108.662" cy="-88.7838" rx="18" ry="18"/>
<text text-anchor="middle" x="108.662" y="-84.5838" font-family="Times,serif" font-size="14.00">s5</text>
</g>
<!-- s4&#45;&gt;s5 -->
<g id="edge8" class="edge"><title>s4&#45;&gt;s5</title>
<path fill="none" stroke="black" d="M191.283,-57.9256C184.148,-60.645 175.65,-63.8792 167.986,-66.7838 157.361,-70.8109 145.64,-75.2356 135.509,-79.0542"/>
<polygon fill="black" stroke="black" points="134.132,-75.8326 126.009,-82.6336 136.6,-82.3832 134.132,-75.8326"/>
<text text-anchor="middle" x="156.324" y="-77.5838" font-family="Times,serif" font-size="14.00">0&#45;9</text>
</g>
<!-- s5&#45;&gt;s4 -->
<g id="edge9" class="edge"><title>s5&#45;&gt;s4</title>
<path fill="none" stroke="black" d="M118.535,-73.2636C124.611,-64.2945 133.57,-53.817 144.662,-48.7838 155.834,-43.7144 169.305,-43.6822 180.893,-45.238"/>
<polygon fill="black" stroke="black" points="180.429,-48.7102 190.887,-47.0142 181.654,-41.8182 180.429,-48.7102"/>
<text text-anchor="middle" x="156.324" y="-51.5838" font-family="Times,serif" font-size="14.00">λ</text>
</g>
<!-- s6 -->
<g id="node8" class="node"><title>s6</title>
<ellipse fill="none" stroke="black" cx="208.378" cy="-115.784" rx="18" ry="18"/>
<text text-anchor="middle" x="208.378" y="-111.584" font-family="Times,serif" font-size="14.00">s6</text>
</g>
<!-- s5&#45;&gt;s6 -->
<g id="edge10" class="edge"><title>s5&#45;&gt;s6</title>
<path fill="none" stroke="black" d="M125.073,-96.2407C131.079,-98.9191 138.088,-101.772 144.662,-103.784 156.15,-107.299 169.15,-109.989 180.323,-111.922"/>
<polygon fill="black" stroke="black" points="179.937,-115.405 190.368,-113.545 181.054,-108.494 179.937,-115.405"/>
<text text-anchor="middle" x="156.324" y="-111.584" font-family="Times,serif" font-size="14.00">τ</text>
</g>
<!-- s7 -->
<g id="node9" class="node"><title>s7</title>
<ellipse fill="none" stroke="black" cx="312.486" cy="-66.7838" rx="18" ry="18"/>
<text text-anchor="middle" x="312.486" y="-62.5838" font-family="Times,serif" font-size="14.00">s7</text>
</g>
<!-- s6&#45;&gt;s7 -->
<g id="edge11" class="edge"><title>s6&#45;&gt;s7</title>
<path fill="none" stroke="black" d="M224.59,-107.355C231.849,-103.415 240.694,-98.7333 248.77,-94.7838 260.949,-88.8279 274.68,-82.6395 286.183,-77.5998"/>
<polygon fill="black" stroke="black" points="287.844,-80.6945 295.623,-73.5015 285.056,-74.2735 287.844,-80.6945"/>
<text text-anchor="middle" x="260.432" y="-97.5838" font-family="Times,serif" font-size="14.00">e</text>
</g>
<!-- s6&#45;&gt;s7 -->
<g id="edge12" class="edge"><title>s6&#45;&gt;s7</title>
<path fill="none" stroke="black" d="M216.907,-99.9238C223.483,-88.0996 234.254,-72.8272 248.77,-65.7838 259.796,-60.4336 273.249,-59.9809 284.864,-61.1537"/>
<polygon fill="black" stroke="black" points="284.495,-64.6366 294.891,-62.5937 285.491,-57.7076 284.495,-64.6366"/>
<text text-anchor="middle" x="260.432" y="-68.5838" font-family="Times,serif" font-size="14.00">E</text>
</g>
<!-- s13 -->
<g id="node10" class="node"><title>s13</title>
<ellipse fill="none" stroke="black" cx="881.294" cy="-122.784" rx="22.2841" ry="22.2841"/>
<text text-anchor="middle" x="881.294" y="-118.584" font-family="Times,serif" font-size="14.00">s13</text>
</g>
<!-- s6&#45;&gt;s13 -->
<g id="edge13" class="edge"><title>s6&#45;&gt;s13</title>
<path fill="none" stroke="black" d="M226.337,-117.66C246.576,-119.733 281.457,-122.784 311.486,-122.784 311.486,-122.784 311.486,-122.784 795.297,-122.784 812.802,-122.784 832.335,-122.784 848.257,-122.784"/>
<polygon fill="black" stroke="black" points="848.635,-126.284 858.635,-122.784 848.635,-119.284 848.635,-126.284"/>
<text text-anchor="middle" x="563.824" y="-125.584" font-family="Times,serif" font-size="14.00">λ</text>
</g>
<!-- s8 -->
<g id="node11" class="node"><title>s8</title>
<ellipse fill="none" stroke="black" cx="407.54" cy="-44.7838" rx="18" ry="18"/>
<text text-anchor="middle" x="407.54" y="-40.5838" font-family="Times,serif" font-size="14.00">s8</text>
</g>
<!-- s7&#45;&gt;s8 -->
<g id="edge14" class="edge"><title>s7&#45;&gt;s8</title>
<path fill="none" stroke="black" d="M324.721,-53.1572C331.884,-45.5811 341.87,-36.8774 352.878,-32.7838 362.077,-29.3628 372.543,-30.6251 381.774,-33.3608"/>
<polygon fill="black" stroke="black" points="380.593,-36.6555 391.187,-36.7557 382.967,-30.0706 380.593,-36.6555"/>
<text text-anchor="middle" x="362.209" y="-35.5838" font-family="Times,serif" font-size="14.00">0&#45;9</text>
</g>
<!-- s14 -->
<g id="node16" class="node"><title>s14</title>
<ellipse fill="none" stroke="black" cx="968.292" cy="-129.784" rx="22.2841" ry="22.2841"/>
<text text-anchor="middle" x="968.292" y="-125.584" font-family="Times,serif" font-size="14.00">s14</text>
</g>
<!-- s13&#45;&gt;s14 -->
<g id="edge24" class="edge"><title>s13&#45;&gt;s14</title>
<path fill="none" stroke="black" d="M903.743,-124.55C913.407,-125.346 925.013,-126.302 935.648,-127.178"/>
<polygon fill="black" stroke="black" points="935.597,-130.685 945.85,-128.018 936.171,-123.709 935.597,-130.685"/>
<text text-anchor="middle" x="924.793" y="-128.584" font-family="Times,serif" font-size="14.00">τ</text>
</g>
<!-- s8&#45;&gt;s7 -->
<g id="edge15" class="edge"><title>s8&#45;&gt;s7</title>
<path fill="none" stroke="black" d="M389.734,-48.7571C375.876,-52.0335 355.967,-56.7403 339.968,-60.5228"/>
<polygon fill="black" stroke="black" points="339.049,-57.1437 330.122,-62.8507 340.659,-63.9559 339.049,-57.1437"/>
<text text-anchor="middle" x="362.209" y="-59.5838" font-family="Times,serif" font-size="14.00">λ</text>
</g>
<!-- s9 -->
<g id="node12" class="node"><title>s9</title>
<ellipse fill="none" stroke="black" cx="524.324" cy="-44.7838" rx="18" ry="18"/>
<text text-anchor="middle" x="524.324" y="-40.5838" font-family="Times,serif" font-size="14.00">s9</text>
</g>
<!-- s8&#45;&gt;s9 -->
<g id="edge16" class="edge"><title>s8&#45;&gt;s9</title>
<path fill="none" stroke="black" d="M425.973,-44.7838C444.536,-44.7838 474.172,-44.7838 495.874,-44.7838"/>
<polygon fill="black" stroke="black" points="496.102,-48.2839 506.102,-44.7838 496.102,-41.2839 496.102,-48.2839"/>
<text text-anchor="middle" x="465.932" y="-47.5838" font-family="Times,serif" font-size="14.00">τ</text>
</g>
<!-- s10 -->
<g id="node13" class="node"><title>s10</title>
<ellipse fill="none" stroke="black" cx="607.715" cy="-53.7838" rx="22.2841" ry="22.2841"/>
<text text-anchor="middle" x="607.715" y="-49.5838" font-family="Times,serif" font-size="14.00">s10</text>
</g>
<!-- s9&#45;&gt;s10 -->
<g id="edge17" class="edge"><title>s9&#45;&gt;s10</title>
<path fill="none" stroke="black" d="M542.585,-46.6925C552.062,-47.7405 564.111,-49.0728 575.201,-50.2991"/>
<polygon fill="black" stroke="black" points="575.099,-53.8091 585.424,-51.4295 575.869,-46.8515 575.099,-53.8091"/>
<text text-anchor="middle" x="563.824" y="-51.5838" font-family="Times,serif" font-size="14.00">.</text>
</g>
<!-- s12 -->
<g id="node14" class="node"><title>s12</title>
<ellipse fill="none" stroke="black" cx="794.297" cy="-56.7838" rx="22.2841" ry="22.2841"/>
<text text-anchor="middle" x="794.297" y="-52.5838" font-family="Times,serif" font-size="14.00">s12</text>
</g>
<!-- s9&#45;&gt;s12 -->
<g id="edge18" class="edge"><title>s9&#45;&gt;s12</title>
<path fill="none" stroke="black" d="M539.921,-35.4221C565.287,-20.2764 619.334,7.05876 666.769,-1.78385 702.89,-8.51731 741.155,-26.9301 766.024,-40.6072"/>
<polygon fill="black" stroke="black" points="764.435,-43.7294 774.867,-45.583 767.868,-37.6289 764.435,-43.7294"/>
<text text-anchor="middle" x="657.438" y="-4.58385" font-family="Times,serif" font-size="14.00">λ</text>
</g>
<!-- s11 -->
<g id="node15" class="node"><title>s11</title>
<ellipse fill="none" stroke="black" cx="706.837" cy="-56.7838" rx="22.1361" ry="22.1361"/>
<text text-anchor="middle" x="706.837" y="-52.5838" font-family="Times,serif" font-size="14.00">s11</text>
</g>
<!-- s10&#45;&gt;s11 -->
<g id="edge19" class="edge"><title>s10&#45;&gt;s11</title>
<path fill="none" stroke="black" d="M622.927,-37.3312C634.337,-26.2264 651.002,-14.6271 666.769,-20.7838 673.465,-23.3985 679.705,-27.7578 685.146,-32.5571"/>
<polygon fill="black" stroke="black" points="682.908,-35.2642 692.506,-39.7516 687.802,-30.2585 682.908,-35.2642"/>
<text text-anchor="middle" x="657.438" y="-23.5838" font-family="Times,serif" font-size="14.00">0&#45;9</text>
</g>
<!-- s10&#45;&gt;s11 -->
<g id="edge20" class="edge"><title>s10&#45;&gt;s11</title>
<path fill="none" stroke="black" d="M627.777,-64.4796C634.055,-67.4546 641.201,-70.2807 648.107,-71.7838 657.619,-73.854 667.929,-72.3815 677.168,-69.6888"/>
<polygon fill="black" stroke="black" points="678.379,-72.9737 686.686,-66.3981 676.091,-66.358 678.379,-72.9737"/>
<text text-anchor="middle" x="657.438" y="-74.5838" font-family="Times,serif" font-size="14.00">λ</text>
</g>
<!-- s12&#45;&gt;s13 -->
<g id="edge23" class="edge"><title>s12&#45;&gt;s13</title>
<path fill="none" stroke="black" d="M812.497,-70.1399C824.71,-79.6225 841.303,-92.5076 855.018,-103.157"/>
<polygon fill="black" stroke="black" points="853.074,-106.079 863.12,-109.448 857.368,-100.55 853.074,-106.079"/>
<text text-anchor="middle" x="837.796" y="-93.5838" font-family="Times,serif" font-size="14.00">τ</text>
</g>
<!-- s11&#45;&gt;s10 -->
<g id="edge21" class="edge"><title>s11&#45;&gt;s10</title>
<path fill="none" stroke="black" d="M684.768,-54.8686C678.942,-54.4201 672.615,-54.008 666.769,-53.7838 658.177,-53.4544 648.864,-53.3446 640.266,-53.3445"/>
<polygon fill="black" stroke="black" points="640.211,-49.8446 630.227,-53.3915 640.244,-56.8446 640.211,-49.8446"/>
<text text-anchor="middle" x="657.438" y="-56.5838" font-family="Times,serif" font-size="14.00">λ</text>
</g>
<!-- s11&#45;&gt;s12 -->
<g id="edge22" class="edge"><title>s11&#45;&gt;s12</title>
<path fill="none" stroke="black" d="M728.962,-56.7838C738.851,-56.7838 750.834,-56.7838 761.766,-56.7838"/>
<polygon fill="black" stroke="black" points="761.822,-60.2839 771.821,-56.7838 761.821,-53.2839 761.822,-60.2839"/>
<text text-anchor="middle" x="750.405" y="-59.5838" font-family="Times,serif" font-size="14.00">τ</text>
</g>
<!-- s14&#45;&gt;s1 -->
<g id="edge25" class="edge"><title>s14&#45;&gt;s1</title>
<path fill="none" stroke="black" d="M989.529,-137.13C1000.24,-141.019 1013.59,-145.865 1025.41,-150.156"/>
<polygon fill="black" stroke="black" points="1024.29,-153.474 1034.89,-153.597 1026.68,-146.895 1024.29,-153.474"/>
<text text-anchor="middle" x="1012.18" y="-148.584" font-family="Times,serif" font-size="14.00">λ</text>
</g>
<!-- s16&#45;&gt;s15 -->
<g id="edge30" class="edge"><title>s16&#45;&gt;s15</title>
<path fill="none" stroke="black" d="M289.863,-211.631C275.79,-212.182 257.188,-212.911 241.412,-213.529"/>
<polygon fill="black" stroke="black" points="240.888,-210.047 231.033,-213.936 241.162,-217.041 240.888,-210.047"/>
<text text-anchor="middle" x="260.432" y="-215.584" font-family="Times,serif" font-size="14.00">λ</text>
</g>
<!-- s17 -->
<g id="node18" class="node"><title>s17</title>
<ellipse fill="none" stroke="black" cx="465.932" cy="-189.784" rx="22.2841" ry="22.2841"/>
<text text-anchor="middle" x="465.932" y="-185.584" font-family="Times,serif" font-size="14.00">s17</text>
</g>
<!-- s16&#45;&gt;s17 -->
<g id="edge31" class="edge"><title>s16&#45;&gt;s17</title>
<path fill="none" stroke="black" d="M334.863,-207.82C360.57,-204.255 403.938,-198.242 433.468,-194.147"/>
<polygon fill="black" stroke="black" points="434.239,-197.573 443.663,-192.733 433.277,-190.64 434.239,-197.573"/>
<text text-anchor="middle" x="362.209" y="-207.584" font-family="Times,serif" font-size="14.00">τ</text>
</g>
<!-- s17&#45;&gt;s1 -->
<g id="edge32" class="edge"><title>s17&#45;&gt;s1</title>
<path fill="none" stroke="black" d="M488.206,-186.636C507.603,-184.041 537.073,-180.784 562.824,-180.784 562.824,-180.784 562.824,-180.784 969.292,-180.784 988.027,-180.784 1008.48,-176.163 1024.67,-171.364"/>
<polygon fill="black" stroke="black" points="1026.14,-174.57 1034.63,-168.231 1024.04,-167.892 1026.14,-174.57"/>
<text text-anchor="middle" x="750.405" y="-183.584" font-family="Times,serif" font-size="14.00">λ</text>
</g>
</g>
</svg>
