<?xml version="1.0" encoding="UTF-8" standalone="no"?>
<!DOCTYPE svg PUBLIC "-//W3C//DTD SVG 1.1//EN"
 "http://www.w3.org/Graphics/SVG/1.1/DTD/svg11.dtd">
<!-- Generated by graphviz version 12.2.1 (20241206.2353)
 -->
<!-- Title: finite_state_machine Pages: 1 -->
<svg width="576pt" height="173pt"
 viewBox="0.00 0.00 576.00 172.53" xmlns="http://www.w3.org/2000/svg" xmlns:xlink="http://www.w3.org/1999/xlink">
<g id="graph0" class="graph" transform="scale(0.517174 0.517174) rotate(0) translate(4 329.6)">
<title>finite_state_machine</title>
<polygon fill="white" stroke="none" points="-4,4 -4,-329.6 1109.75,-329.6 1109.75,4 -4,4"/>
<!-- s1 -->
<g id="node1" class="node">
<title>s1</title>
<ellipse fill="none" stroke="black" cx="1082.64" cy="-185.49" rx="19.11" ry="19.11"/>
<ellipse fill="none" stroke="black" cx="1082.64" cy="-185.49" rx="23.11" ry="23.11"/>
<text text-anchor="middle" x="1082.64" y="-180.44" font-family="Times,serif" font-size="14.00">s1</text>
</g>
<!-- s0 -->
<g id="node2" class="node">
<title>s0</title>
<ellipse fill="none" stroke="black" cx="111.32" cy="-179.49" rx="19.11" ry="19.11"/>
<text text-anchor="middle" x="111.32" y="-174.44" font-family="Times,serif" font-size="14.00">s0</text>
</g>
<!-- s2 -->
<g id="node3" class="node">
<title>s2</title>
<ellipse fill="none" stroke="black" cx="19.11" cy="-139.49" rx="19.11" ry="19.11"/>
<text text-anchor="middle" x="19.11" y="-134.44" font-family="Times,serif" font-size="14.00">s2</text>
</g>
<!-- s0&#45;&gt;s2 -->
<g id="edge1" class="edge">
<title>s0&#45;&gt;s2</title>
<path fill="none" stroke="black" d="M93.95,-170.68C87.82,-167.49 80.76,-163.95 74.22,-160.99 65.77,-157.15 56.42,-153.31 47.91,-149.95"/>
<polygon fill="black" stroke="black" points="49.34,-146.75 38.75,-146.4 46.81,-153.28 49.34,-146.75"/>
<text text-anchor="middle" x="65.22" y="-164.19" font-family="Times,serif" font-size="14.00">0&#45;9</text>
</g>
<!-- s0&#45;&gt;s2 -->
<g id="edge2" class="edge">
<title>s0&#45;&gt;s2</title>
<path fill="none" stroke="black" d="M102.19,-162.44C96.11,-151.84 86.7,-139.1 74.22,-132.99 66.27,-129.1 56.91,-128.92 48.23,-130.25"/>
<polygon fill="black" stroke="black" points="47.46,-126.84 38.49,-132.47 49.01,-133.66 47.46,-126.84"/>
<text text-anchor="middle" x="65.22" y="-136.19" font-family="Times,serif" font-size="14.00">λ</text>
</g>
<!-- s15 -->
<g id="node4" class="node">
<title>s15</title>
<ellipse fill="none" stroke="black" cx="212.64" cy="-219.49" rx="23.71" ry="23.71"/>
<text text-anchor="middle" x="212.64" y="-214.44" font-family="Times,serif" font-size="14.00">s15</text>
</g>
<!-- s0&#45;&gt;s15 -->
<g id="edge3" class="edge">
<title>s0&#45;&gt;s15</title>
<path fill="none" stroke="black" d="M128.65,-188.18C134.78,-191.29 141.85,-194.71 148.43,-197.49 158.23,-201.62 169.11,-205.61 179.04,-209.03"/>
<polygon fill="black" stroke="black" points="177.71,-212.27 188.3,-212.14 179.94,-205.64 177.71,-212.27"/>
<text text-anchor="middle" x="159.68" y="-209.31" font-family="Times,serif" font-size="14.00">a&#45;z</text>
</g>
<!-- s0&#45;&gt;s15 -->
<g id="edge4" class="edge">
<title>s0&#45;&gt;s15</title>
<path fill="none" stroke="black" d="M130.22,-174.82C142.22,-172.61 158.1,-171.51 170.93,-176.99 178.55,-180.24 185.43,-185.7 191.28,-191.64"/>
<polygon fill="black" stroke="black" points="188.32,-193.58 197.57,-198.74 193.56,-188.94 188.32,-193.58"/>
<text text-anchor="middle" x="159.68" y="-180.19" font-family="Times,serif" font-size="14.00">A&#45;Z</text>
</g>
<!-- s2&#45;&gt;s0 -->
<g id="edge5" class="edge">
<title>s2&#45;&gt;s0</title>
<path fill="none" stroke="black" d="M30.5,-155.28C36.85,-163.49 45.76,-172.77 56.22,-177.49 63.7,-180.86 72.37,-182.17 80.56,-182.42"/>
<polygon fill="black" stroke="black" points="80.57,-185.92 90.48,-182.2 80.41,-178.93 80.57,-185.92"/>
<text text-anchor="middle" x="65.22" y="-185.09" font-family="Times,serif" font-size="14.00">λ</text>
</g>
<!-- s3 -->
<g id="node5" class="node">
<title>s3</title>
<ellipse fill="none" stroke="black" cx="111.32" cy="-27.49" rx="19.11" ry="19.11"/>
<text text-anchor="middle" x="111.32" y="-22.44" font-family="Times,serif" font-size="14.00">s3</text>
</g>
<!-- s2&#45;&gt;s3 -->
<g id="edge6" class="edge">
<title>s2&#45;&gt;s3</title>
<path fill="none" stroke="black" d="M31.9,-124.84C47.03,-106.06 73.45,-73.26 91.41,-50.97"/>
<polygon fill="black" stroke="black" points="94.03,-53.29 97.58,-43.31 88.58,-48.9 94.03,-53.29"/>
<text text-anchor="middle" x="65.22" y="-96.72" font-family="Times,serif" font-size="14.00">τ</text>
</g>
<!-- s16 -->
<g id="node17" class="node">
<title>s16</title>
<ellipse fill="none" stroke="black" cx="318.57" cy="-227.49" rx="23.71" ry="23.71"/>
<text text-anchor="middle" x="318.57" y="-222.44" font-family="Times,serif" font-size="14.00">s16</text>
</g>
<!-- s15&#45;&gt;s16 -->
<g id="edge26" class="edge">
<title>s15&#45;&gt;s16</title>
<path fill="none" stroke="black" d="M235.39,-211.82C247.63,-208.52 263.16,-206.02 276.86,-208.99 280.24,-209.72 283.68,-210.76 287.05,-211.97"/>
<polygon fill="black" stroke="black" points="285.47,-215.11 296.05,-215.72 288.16,-208.64 285.47,-215.11"/>
<text text-anchor="middle" x="265.61" y="-212.19" font-family="Times,serif" font-size="14.00">a&#45;z</text>
</g>
<!-- s15&#45;&gt;s16 -->
<g id="edge27" class="edge">
<title>s15&#45;&gt;s16</title>
<path fill="none" stroke="black" d="M229.49,-202.7C236.45,-196.5 245.14,-190.21 254.36,-186.99 263.8,-183.68 267.61,-183.17 276.86,-186.99 284.04,-189.95 290.62,-194.86 296.31,-200.26"/>
<polygon fill="black" stroke="black" points="293.5,-202.39 302.91,-207.26 298.59,-197.58 293.5,-202.39"/>
<text text-anchor="middle" x="265.61" y="-190.19" font-family="Times,serif" font-size="14.00">A&#45;Z</text>
</g>
<!-- s15&#45;&gt;s16 -->
<g id="edge28" class="edge">
<title>s15&#45;&gt;s16</title>
<path fill="none" stroke="black" d="M217.65,-243.08C222.5,-263.52 232.86,-291.88 254.36,-305.49 277.37,-320.05 295.84,-287.78 306.74,-260.42"/>
<polygon fill="black" stroke="black" points="309.92,-261.91 310.14,-251.32 303.36,-259.46 309.92,-261.91"/>
<text text-anchor="middle" x="265.61" y="-312.3" font-family="Times,serif" font-size="14.00">0&#45;9</text>
</g>
<!-- s15&#45;&gt;s16 -->
<g id="edge29" class="edge">
<title>s15&#45;&gt;s16</title>
<path fill="none" stroke="black" d="M225.68,-239.71C232.69,-249.45 242.49,-260.14 254.36,-265.49 263.48,-269.59 267.55,-269.15 276.86,-265.49 283.59,-262.83 289.86,-258.49 295.37,-253.66"/>
<polygon fill="black" stroke="black" points="297.56,-256.41 302.27,-246.92 292.67,-251.4 297.56,-256.41"/>
<text text-anchor="middle" x="265.61" y="-271.6" font-family="Times,serif" font-size="14.00">λ</text>
</g>
<!-- s4 -->
<g id="node6" class="node">
<title>s4</title>
<ellipse fill="none" stroke="black" cx="212.64" cy="-55.49" rx="19.11" ry="19.11"/>
<text text-anchor="middle" x="212.64" y="-50.44" font-family="Times,serif" font-size="14.00">s4</text>
</g>
<!-- s3&#45;&gt;s4 -->
<g id="edge7" class="edge">
<title>s3&#45;&gt;s4</title>
<path fill="none" stroke="black" d="M129.24,-19.68C141.22,-15.28 157.48,-11.64 170.93,-16.99 179.13,-20.25 186.64,-26.04 192.91,-32.15"/>
<polygon fill="black" stroke="black" points="190.24,-34.42 199.61,-39.37 195.37,-29.66 190.24,-34.42"/>
<text text-anchor="middle" x="159.68" y="-20.19" font-family="Times,serif" font-size="14.00">.</text>
</g>
<!-- s5 -->
<g id="node7" class="node">
<title>s5</title>
<ellipse fill="none" stroke="black" cx="111.32" cy="-95.49" rx="19.11" ry="19.11"/>
<text text-anchor="middle" x="111.32" y="-90.44" font-family="Times,serif" font-size="14.00">s5</text>
</g>
<!-- s4&#45;&gt;s5 -->
<g id="edge8" class="edge">
<title>s4&#45;&gt;s5</title>
<path fill="none" stroke="black" d="M194.7,-63.24C187.42,-66.5 178.8,-70.27 170.93,-73.49 161.09,-77.5 150.23,-81.66 140.55,-85.26"/>
<polygon fill="black" stroke="black" points="139.46,-81.94 131.28,-88.68 141.88,-88.5 139.46,-81.94"/>
<text text-anchor="middle" x="159.68" y="-85.48" font-family="Times,serif" font-size="14.00">0&#45;9</text>
</g>
<!-- s5&#45;&gt;s4 -->
<g id="edge9" class="edge">
<title>s5&#45;&gt;s4</title>
<path fill="none" stroke="black" d="M121.37,-79.01C127.59,-69.48 136.83,-58.35 148.43,-52.99 158.9,-48.14 171.42,-47.7 182.54,-48.85"/>
<polygon fill="black" stroke="black" points="181.99,-52.31 192.4,-50.37 183.05,-45.39 181.99,-52.31"/>
<text text-anchor="middle" x="159.68" y="-56.19" font-family="Times,serif" font-size="14.00">λ</text>
</g>
<!-- s6 -->
<g id="node8" class="node">
<title>s6</title>
<ellipse fill="none" stroke="black" cx="212.64" cy="-123.49" rx="19.11" ry="19.11"/>
<text text-anchor="middle" x="212.64" y="-118.44" font-family="Times,serif" font-size="14.00">s6</text>
</g>
<!-- s5&#45;&gt;s6 -->
<g id="edge10" class="edge">
<title>s5&#45;&gt;s6</title>
<path fill="none" stroke="black" d="M128.41,-104.83C134.51,-108.01 141.63,-111.31 148.43,-113.49 159.12,-116.91 171.21,-119.18 181.94,-120.69"/>
<polygon fill="black" stroke="black" points="181.47,-124.16 191.82,-121.9 182.31,-117.21 181.47,-124.16"/>
<text text-anchor="middle" x="159.68" y="-122.07" font-family="Times,serif" font-size="14.00">τ</text>
</g>
<!-- s7 -->
<g id="node9" class="node">
<title>s7</title>
<ellipse fill="none" stroke="black" cx="318.57" cy="-67.49" rx="19.11" ry="19.11"/>
<text text-anchor="middle" x="318.57" y="-62.44" font-family="Times,serif" font-size="14.00">s7</text>
</g>
<!-- s6&#45;&gt;s7 -->
<g id="edge11" class="edge">
<title>s6&#45;&gt;s7</title>
<path fill="none" stroke="black" d="M229.88,-114.74C246.26,-105.91 271.81,-92.14 291.12,-81.74"/>
<polygon fill="black" stroke="black" points="292.63,-84.9 299.77,-77.08 289.31,-78.74 292.63,-84.9"/>
<text text-anchor="middle" x="265.61" y="-103.7" font-family="Times,serif" font-size="14.00">e</text>
</g>
<!-- s6&#45;&gt;s7 -->
<g id="edge12" class="edge">
<title>s6&#45;&gt;s7</title>
<path fill="none" stroke="black" d="M221.64,-106.18C228.43,-93.7 239.45,-77.75 254.36,-69.99 264.52,-64.7 276.89,-63.3 287.98,-63.51"/>
<polygon fill="black" stroke="black" points="287.64,-66.99 297.85,-64.15 288.1,-60.01 287.64,-66.99"/>
<text text-anchor="middle" x="265.61" y="-73.19" font-family="Times,serif" font-size="14.00">E</text>
</g>
<!-- s13 -->
<g id="node10" class="node">
<title>s13</title>
<ellipse fill="none" stroke="black" cx="903.64" cy="-134.49" rx="23.71" ry="23.71"/>
<text text-anchor="middle" x="903.64" y="-129.44" font-family="Times,serif" font-size="14.00">s13</text>
</g>
<!-- s6&#45;&gt;s13 -->
<g id="edge13" class="edge">
<title>s6&#45;&gt;s13</title>
<path fill="none" stroke="black" d="M231.98,-126.61C252.7,-129.86 287.45,-134.49 317.57,-134.49 317.57,-134.49 317.57,-134.49 815.21,-134.49 832.8,-134.49 852.38,-134.49 868.54,-134.49"/>
<polygon fill="black" stroke="black" points="868.12,-137.99 878.12,-134.49 868.12,-130.99 868.12,-137.99"/>
<text text-anchor="middle" x="577.52" y="-137.69" font-family="Times,serif" font-size="14.00">λ</text>
</g>
<!-- s8 -->
<g id="node11" class="node">
<title>s8</title>
<ellipse fill="none" stroke="black" cx="415.39" cy="-49.49" rx="19.11" ry="19.11"/>
<text text-anchor="middle" x="415.39" y="-44.44" font-family="Times,serif" font-size="14.00">s8</text>
</g>
<!-- s7&#45;&gt;s8 -->
<g id="edge14" class="edge">
<title>s7&#45;&gt;s8</title>
<path fill="none" stroke="black" d="M331.07,-52.87C338.44,-44.74 348.76,-35.4 360.29,-30.99 369.75,-27.37 380.27,-29.57 389.49,-33.54"/>
<polygon fill="black" stroke="black" points="387.76,-36.58 398.25,-38.06 390.97,-30.36 387.76,-36.58"/>
<text text-anchor="middle" x="369.29" y="-34.19" font-family="Times,serif" font-size="14.00">0&#45;9</text>
</g>
<!-- s14 -->
<g id="node16" class="node">
<title>s14</title>
<ellipse fill="none" stroke="black" cx="993.07" cy="-149.49" rx="23.71" ry="23.71"/>
<text text-anchor="middle" x="993.07" y="-144.44" font-family="Times,serif" font-size="14.00">s14</text>
</g>
<!-- s13&#45;&gt;s14 -->
<g id="edge24" class="edge">
<title>s13&#45;&gt;s14</title>
<path fill="none" stroke="black" d="M927.15,-138.35C936.56,-139.96 947.7,-141.88 958.08,-143.65"/>
<polygon fill="black" stroke="black" points="957.38,-147.09 967.83,-145.33 958.57,-140.19 957.38,-147.09"/>
<text text-anchor="middle" x="948.35" y="-145.64" font-family="Times,serif" font-size="14.00">τ</text>
</g>
<!-- s8&#45;&gt;s7 -->
<g id="edge15" class="edge">
<title>s8&#45;&gt;s7</title>
<path fill="none" stroke="black" d="M396.17,-52.95C382.8,-55.48 364.37,-58.98 348.94,-61.91"/>
<polygon fill="black" stroke="black" points="348.51,-58.43 339.34,-63.73 349.82,-65.31 348.51,-58.43"/>
<text text-anchor="middle" x="369.29" y="-62.76" font-family="Times,serif" font-size="14.00">λ</text>
</g>
<!-- s9 -->
<g id="node12" class="node">
<title>s9</title>
<ellipse fill="none" stroke="black" cx="537.04" cy="-49.49" rx="19.11" ry="19.11"/>
<text text-anchor="middle" x="537.04" y="-44.44" font-family="Times,serif" font-size="14.00">s9</text>
</g>
<!-- s8&#45;&gt;s9 -->
<g id="edge16" class="edge">
<title>s8&#45;&gt;s9</title>
<path fill="none" stroke="black" d="M434.82,-49.49C453.94,-49.49 484.11,-49.49 506.54,-49.49"/>
<polygon fill="black" stroke="black" points="506.27,-52.99 516.27,-49.49 506.27,-45.99 506.27,-52.99"/>
<text text-anchor="middle" x="476.21" y="-52.69" font-family="Times,serif" font-size="14.00">τ</text>
</g>
<!-- s10 -->
<g id="node13" class="node">
<title>s10</title>
<ellipse fill="none" stroke="black" cx="622.61" cy="-61.49" rx="23.71" ry="23.71"/>
<text text-anchor="middle" x="622.61" y="-56.44" font-family="Times,serif" font-size="14.00">s10</text>
</g>
<!-- s9&#45;&gt;s10 -->
<g id="edge17" class="edge">
<title>s9&#45;&gt;s10</title>
<path fill="none" stroke="black" d="M556.17,-52.09C565.34,-53.41 576.77,-55.05 587.5,-56.59"/>
<polygon fill="black" stroke="black" points="586.83,-60.03 597.23,-57.99 587.83,-53.1 586.83,-60.03"/>
<text text-anchor="middle" x="577.52" y="-58.69" font-family="Times,serif" font-size="14.00">.</text>
</g>
<!-- s12 -->
<g id="node14" class="node">
<title>s12</title>
<ellipse fill="none" stroke="black" cx="814.21" cy="-62.49" rx="23.71" ry="23.71"/>
<text text-anchor="middle" x="814.21" y="-57.44" font-family="Times,serif" font-size="14.00">s12</text>
</g>
<!-- s9&#45;&gt;s12 -->
<g id="edge18" class="edge">
<title>s9&#45;&gt;s12</title>
<path fill="none" stroke="black" d="M553.29,-38.87C579.27,-22.08 633.98,7.76 682.32,-1.99 719.42,-9.47 758.35,-29.21 784,-44.12"/>
<polygon fill="black" stroke="black" points="782.13,-47.08 792.52,-49.19 785.72,-41.07 782.13,-47.08"/>
<text text-anchor="middle" x="673.32" y="-5.19" font-family="Times,serif" font-size="14.00">λ</text>
</g>
<!-- s11 -->
<g id="node15" class="node">
<title>s11</title>
<ellipse fill="none" stroke="black" cx="724.03" cy="-62.49" rx="23.71" ry="23.71"/>
<text text-anchor="middle" x="724.03" y="-57.44" font-family="Times,serif" font-size="14.00">s11</text>
</g>
<!-- s10&#45;&gt;s11 -->
<g id="edge19" class="edge">
<title>s10&#45;&gt;s11</title>
<path fill="none" stroke="black" d="M637.96,-42.79C649.35,-30.39 666.03,-17.5 682.32,-23.99 689.08,-26.68 695.37,-31.08 700.88,-35.97"/>
<polygon fill="black" stroke="black" points="698.22,-38.26 707.79,-42.81 703.14,-33.29 698.22,-38.26"/>
<text text-anchor="middle" x="673.32" y="-27.19" font-family="Times,serif" font-size="14.00">0&#45;9</text>
</g>
<!-- s10&#45;&gt;s11 -->
<g id="edge20" class="edge">
<title>s10&#45;&gt;s11</title>
<path fill="none" stroke="black" d="M643.7,-72.97C650.09,-76.04 657.31,-78.93 664.32,-80.49 673.47,-82.52 683.26,-81.03 692.16,-78.2"/>
<polygon fill="black" stroke="black" points="693.39,-81.48 701.45,-74.62 690.86,-74.95 693.39,-81.48"/>
<text text-anchor="middle" x="673.32" y="-84.62" font-family="Times,serif" font-size="14.00">λ</text>
</g>
<!-- s12&#45;&gt;s13 -->
<g id="edge23" class="edge">
<title>s12&#45;&gt;s13</title>
<path fill="none" stroke="black" d="M832.9,-77.06C845.26,-87.24 861.99,-101.01 875.96,-112.52"/>
<polygon fill="black" stroke="black" points="873.56,-115.07 883.5,-118.73 878.01,-109.67 873.56,-115.07"/>
<text text-anchor="middle" x="858.93" y="-103.85" font-family="Times,serif" font-size="14.00">τ</text>
</g>
<!-- s11&#45;&gt;s10 -->
<g id="edge21" class="edge">
<title>s11&#45;&gt;s10</title>
<path fill="none" stroke="black" d="M700.22,-60.84C694.39,-60.48 688.12,-60.16 682.32,-59.99 674.45,-59.74 665.98,-59.79 657.99,-59.96"/>
<polygon fill="black" stroke="black" points="658.16,-56.45 648.27,-60.25 658.37,-63.45 658.16,-56.45"/>
<text text-anchor="middle" x="673.32" y="-63.19" font-family="Times,serif" font-size="14.00">λ</text>
</g>
<!-- s11&#45;&gt;s12 -->
<g id="edge22" class="edge">
<title>s11&#45;&gt;s12</title>
<path fill="none" stroke="black" d="M748.2,-62.49C757.62,-62.49 768.69,-62.49 779.01,-62.49"/>
<polygon fill="black" stroke="black" points="778.69,-65.99 788.69,-62.49 778.69,-58.99 778.69,-65.99"/>
<text text-anchor="middle" x="769.12" y="-65.69" font-family="Times,serif" font-size="14.00">τ</text>
</g>
<!-- s14&#45;&gt;s1 -->
<g id="edge25" class="edge">
<title>s14&#45;&gt;s1</title>
<path fill="none" stroke="black" d="M1015.27,-158.2C1025.78,-162.52 1038.68,-167.83 1050.3,-172.6"/>
<polygon fill="black" stroke="black" points="1048.96,-175.84 1059.54,-176.4 1051.62,-169.36 1048.96,-175.84"/>
<text text-anchor="middle" x="1038.16" y="-171.77" font-family="Times,serif" font-size="14.00">λ</text>
</g>
<!-- s16&#45;&gt;s15 -->
<g id="edge30" class="edge">
<title>s16&#45;&gt;s15</title>
<path fill="none" stroke="black" d="M294.41,-227.39C282.44,-227.18 267.59,-226.67 254.36,-225.49 252.17,-225.29 249.92,-225.06 247.65,-224.79"/>
<polygon fill="black" stroke="black" points="248.29,-221.35 237.91,-223.51 247.37,-228.29 248.29,-221.35"/>
<text text-anchor="middle" x="265.61" y="-230.02" font-family="Times,serif" font-size="14.00">λ</text>
</g>
<!-- s17 -->
<g id="node18" class="node">
<title>s17</title>
<ellipse fill="none" stroke="black" cx="476.21" cy="-210.49" rx="23.71" ry="23.71"/>
<text text-anchor="middle" x="476.21" y="-205.44" font-family="Times,serif" font-size="14.00">s17</text>
</g>
<!-- s16&#45;&gt;s17 -->
<g id="edge31" class="edge">
<title>s16&#45;&gt;s17</title>
<path fill="none" stroke="black" d="M342.54,-224.98C368.52,-222.14 411.09,-217.49 440.99,-214.22"/>
<polygon fill="black" stroke="black" points="441.09,-217.73 450.65,-213.17 440.33,-210.78 441.09,-217.73"/>
<text text-anchor="middle" x="369.29" y="-226.06" font-family="Times,serif" font-size="14.00">τ</text>
</g>
<!-- s17&#45;&gt;s1 -->
<g id="edge32" class="edge">
<title>s17&#45;&gt;s1</title>
<path fill="none" stroke="black" d="M500.07,-208.32C520.18,-206.6 550.26,-204.49 576.52,-204.49 576.52,-204.49 576.52,-204.49 994.07,-204.49 1012.77,-204.49 1033.23,-200.29 1049.66,-195.85"/>
<polygon fill="black" stroke="black" points="1050.23,-199.33 1058.87,-193.2 1048.29,-192.6 1050.23,-199.33"/>
<text text-anchor="middle" x="769.12" y="-207.69" font-family="Times,serif" font-size="14.00">λ</text>
</g>
</g>
</svg>
