<?xml version="1.0" encoding="UTF-8" standalone="no"?>
<!DOCTYPE svg PUBLIC "-//W3C//DTD SVG 1.1//EN"
 "http://www.w3.org/Graphics/SVG/1.1/DTD/svg11.dtd">
<!-- Generated by graphviz version 12.2.1 (20241206.2353)
 -->
<!-- Title: finite_state_machine Pages: 1 -->
<svg width="576pt" height="148pt"
 viewBox="0.00 0.00 576.00 148.11" xmlns="http://www.w3.org/2000/svg" xmlns:xlink="http://www.w3.org/1999/xlink">
<g id="graph0" class="graph" transform="scale(0.942104 0.942104) rotate(0) translate(4 153.22)">
<title>finite_state_machine</title>
<polygon fill="white" stroke="none" points="-4,4 -4,-153.22 607.4,-153.22 607.4,4 -4,4"/>
<!-- s1 -->
<g id="node1" class="node">
<title>s1</title>
<ellipse fill="none" stroke="black" cx="580.29" cy="-71.11" rx="19.11" ry="19.11"/>
<ellipse fill="none" stroke="black" cx="580.29" cy="-71.11" rx="23.11" ry="23.11"/>
<text text-anchor="middle" x="580.29" y="-66.06" font-family="Times,serif" font-size="14.00">s1</text>
</g>
<!-- s0 -->
<g id="node2" class="node">
<title>s0</title>
<ellipse fill="none" stroke="black" cx="100.07" cy="-99.11" rx="19.11" ry="19.11"/>
<text text-anchor="middle" x="100.07" y="-94.06" font-family="Times,serif" font-size="14.00">s0</text>
</g>
<!-- s2 -->
<g id="node3" class="node">
<title>s2</title>
<ellipse fill="none" stroke="black" cx="19.11" cy="-79.11" rx="19.11" ry="19.11"/>
<text text-anchor="middle" x="19.11" y="-74.06" font-family="Times,serif" font-size="14.00">s2</text>
</g>
<!-- s0&#45;&gt;s2 -->
<g id="edge1" class="edge">
<title>s0&#45;&gt;s2</title>
<path fill="none" stroke="black" d="M81.23,-94.59C71.75,-92.19 59.86,-89.18 49.1,-86.45"/>
<polygon fill="black" stroke="black" points="50.05,-83.08 39.49,-84.02 48.33,-89.87 50.05,-83.08"/>
<text text-anchor="middle" x="59.59" y="-92.91" font-family="Times,serif" font-size="14.00">a</text>
</g>
<!-- s0&#45;&gt;s2 -->
<g id="edge2" class="edge">
<title>s0&#45;&gt;s2</title>
<path fill="none" stroke="black" d="M87.24,-84.85C80.83,-78.25 72.31,-71.11 62.97,-67.61 57.83,-65.68 52.23,-65.72 46.82,-66.77"/>
<polygon fill="black" stroke="black" points="46.17,-63.31 37.66,-69.62 48.25,-70 46.17,-63.31"/>
<text text-anchor="middle" x="59.59" y="-70.81" font-family="Times,serif" font-size="14.00">λ</text>
</g>
<!-- s4 -->
<g id="node4" class="node">
<title>s4</title>
<ellipse fill="none" stroke="black" cx="212.5" cy="-128.11" rx="19.11" ry="19.11"/>
<text text-anchor="middle" x="212.5" y="-123.06" font-family="Times,serif" font-size="14.00">s4</text>
</g>
<!-- s0&#45;&gt;s4 -->
<g id="edge3" class="edge">
<title>s0&#45;&gt;s4</title>
<path fill="none" stroke="black" d="M118.81,-103.77C136.04,-108.29 162.48,-115.23 182.72,-120.55"/>
<polygon fill="black" stroke="black" points="181.78,-123.92 192.34,-123.08 183.56,-117.15 181.78,-123.92"/>
<text text-anchor="middle" x="156.29" y="-121.1" font-family="Times,serif" font-size="14.00">a</text>
</g>
<!-- s7 -->
<g id="node5" class="node">
<title>s7</title>
<ellipse fill="none" stroke="black" cx="212.5" cy="-72.11" rx="19.11" ry="19.11"/>
<text text-anchor="middle" x="212.5" y="-67.06" font-family="Times,serif" font-size="14.00">s7</text>
</g>
<!-- s0&#45;&gt;s7 -->
<g id="edge4" class="edge">
<title>s0&#45;&gt;s7</title>
<path fill="none" stroke="black" d="M118.13,-92.02C124.08,-89.74 130.86,-87.35 137.18,-85.61 151.75,-81.59 168.26,-78.46 182.02,-76.22"/>
<polygon fill="black" stroke="black" points="182.43,-79.7 191.78,-74.72 181.37,-72.78 182.43,-79.7"/>
<text text-anchor="middle" x="156.29" y="-88.81" font-family="Times,serif" font-size="14.00">a</text>
</g>
<!-- s2&#45;&gt;s0 -->
<g id="edge5" class="edge">
<title>s2&#45;&gt;s0</title>
<path fill="none" stroke="black" d="M32.3,-93.47C38.69,-99.87 47.07,-106.72 56.22,-110.11 61.21,-111.96 66.65,-112 71.92,-111.07"/>
<polygon fill="black" stroke="black" points="72.89,-114.43 81.5,-108.26 70.92,-107.72 72.89,-114.43"/>
<text text-anchor="middle" x="59.59" y="-114.66" font-family="Times,serif" font-size="14.00">λ</text>
</g>
<!-- s3 -->
<g id="node6" class="node">
<title>s3</title>
<ellipse fill="none" stroke="black" cx="156.29" cy="-19.11" rx="19.11" ry="19.11"/>
<text text-anchor="middle" x="156.29" y="-14.06" font-family="Times,serif" font-size="14.00">s3</text>
</g>
<!-- s2&#45;&gt;s3 -->
<g id="edge6" class="edge">
<title>s2&#45;&gt;s3</title>
<path fill="none" stroke="black" d="M32.25,-64.99C38.74,-58.24 47.23,-50.57 56.22,-45.61 77.97,-33.59 105.46,-26.8 125.96,-23.11"/>
<polygon fill="black" stroke="black" points="126.33,-26.59 135.63,-21.52 125.2,-19.69 126.33,-26.59"/>
<text text-anchor="middle" x="59.59" y="-48.81" font-family="Times,serif" font-size="14.00">τ</text>
</g>
<!-- s5 -->
<g id="node7" class="node">
<title>s5</title>
<ellipse fill="none" stroke="black" cx="292.72" cy="-130.11" rx="19.11" ry="19.11"/>
<text text-anchor="middle" x="292.72" y="-125.06" font-family="Times,serif" font-size="14.00">s5</text>
</g>
<!-- s4&#45;&gt;s5 -->
<g id="edge8" class="edge">
<title>s4&#45;&gt;s5</title>
<path fill="none" stroke="black" d="M232.04,-128.58C241,-128.81 251.98,-129.09 262.06,-129.35"/>
<polygon fill="black" stroke="black" points="261.72,-132.84 271.8,-129.6 261.89,-125.84 261.72,-132.84"/>
<text text-anchor="middle" x="252.61" y="-132.37" font-family="Times,serif" font-size="14.00">a</text>
</g>
<!-- s8 -->
<g id="node9" class="node">
<title>s8</title>
<ellipse fill="none" stroke="black" cx="292.72" cy="-72.11" rx="19.11" ry="19.11"/>
<text text-anchor="middle" x="292.72" y="-67.06" font-family="Times,serif" font-size="14.00">s8</text>
</g>
<!-- s7&#45;&gt;s8 -->
<g id="edge11" class="edge">
<title>s7&#45;&gt;s8</title>
<path fill="none" stroke="black" d="M232.04,-72.11C241,-72.11 251.98,-72.11 262.06,-72.11"/>
<polygon fill="black" stroke="black" points="261.8,-75.61 271.8,-72.11 261.8,-68.61 261.8,-75.61"/>
<text text-anchor="middle" x="252.61" y="-75.31" font-family="Times,serif" font-size="14.00">a</text>
</g>
<!-- s3&#45;&gt;s1 -->
<g id="edge7" class="edge">
<title>s3&#45;&gt;s1</title>
<path fill="none" stroke="black" d="M175.72,-19.11C194.74,-19.11 225.25,-19.11 251.61,-19.11 251.61,-19.11 251.61,-19.11 491.72,-19.11 515.59,-19.11 538.64,-33.57 555.09,-47.24"/>
<polygon fill="black" stroke="black" points="552.56,-49.67 562.38,-53.65 557.19,-44.42 552.56,-49.67"/>
<text text-anchor="middle" x="333.2" y="-22.31" font-family="Times,serif" font-size="14.00">λ</text>
</g>
<!-- s6 -->
<g id="node8" class="node">
<title>s6</title>
<ellipse fill="none" stroke="black" cx="429.9" cy="-130.11" rx="19.11" ry="19.11"/>
<text text-anchor="middle" x="429.9" y="-125.06" font-family="Times,serif" font-size="14.00">s6</text>
</g>
<!-- s5&#45;&gt;s6 -->
<g id="edge9" class="edge">
<title>s5&#45;&gt;s6</title>
<path fill="none" stroke="black" d="M312.23,-130.11C334.68,-130.11 372.8,-130.11 399.33,-130.11"/>
<polygon fill="black" stroke="black" points="399.09,-133.61 409.09,-130.11 399.09,-126.61 399.09,-133.61"/>
<text text-anchor="middle" x="333.2" y="-133.31" font-family="Times,serif" font-size="14.00">b</text>
</g>
<!-- s6&#45;&gt;s1 -->
<g id="edge10" class="edge">
<title>s6&#45;&gt;s1</title>
<path fill="none" stroke="black" d="M448.76,-125.38C465.86,-120.67 492.26,-112.88 514.43,-104.11 525.8,-99.61 528.27,-97.61 539.18,-92.11 542.48,-90.44 545.92,-88.68 549.34,-86.92"/>
<polygon fill="black" stroke="black" points="550.77,-90.12 558.02,-82.4 547.53,-83.91 550.77,-90.12"/>
<text text-anchor="middle" x="490.72" y="-123.09" font-family="Times,serif" font-size="14.00">λ</text>
</g>
<!-- s9 -->
<g id="node10" class="node">
<title>s9</title>
<ellipse fill="none" stroke="black" cx="373.68" cy="-71.11" rx="19.11" ry="19.11"/>
<text text-anchor="middle" x="373.68" y="-66.06" font-family="Times,serif" font-size="14.00">s9</text>
</g>
<!-- s8&#45;&gt;s9 -->
<g id="edge12" class="edge">
<title>s8&#45;&gt;s9</title>
<path fill="none" stroke="black" d="M312.03,-71.88C321.14,-71.76 332.37,-71.62 342.69,-71.49"/>
<polygon fill="black" stroke="black" points="342.73,-74.99 352.68,-71.36 342.64,-67.99 342.73,-74.99"/>
<text text-anchor="middle" x="333.2" y="-74.84" font-family="Times,serif" font-size="14.00">a</text>
</g>
<!-- s10 -->
<g id="node11" class="node">
<title>s10</title>
<ellipse fill="none" stroke="black" cx="490.72" cy="-71.11" rx="23.71" ry="23.71"/>
<text text-anchor="middle" x="490.72" y="-66.06" font-family="Times,serif" font-size="14.00">s10</text>
</g>
<!-- s9&#45;&gt;s10 -->
<g id="edge13" class="edge">
<title>s9&#45;&gt;s10</title>
<path fill="none" stroke="black" d="M393.17,-71.11C409.84,-71.11 434.79,-71.11 455.15,-71.11"/>
<polygon fill="black" stroke="black" points="455,-74.61 465,-71.11 455,-67.61 455,-74.61"/>
<text text-anchor="middle" x="429.9" y="-74.31" font-family="Times,serif" font-size="14.00">b</text>
</g>
<!-- s10&#45;&gt;s1 -->
<g id="edge14" class="edge">
<title>s10&#45;&gt;s1</title>
<path fill="none" stroke="black" d="M514.73,-71.11C524.05,-71.11 535.01,-71.11 545.23,-71.11"/>
<polygon fill="black" stroke="black" points="545.22,-74.61 555.22,-71.11 545.22,-67.61 545.22,-74.61"/>
<text text-anchor="middle" x="535.81" y="-74.31" font-family="Times,serif" font-size="14.00">λ</text>
</g>
</g>
</svg>
