<?xml version="1.0" encoding="UTF-8" standalone="no"?>
<!DOCTYPE svg PUBLIC "-//W3C//DTD SVG 1.1//EN"
 "http://www.w3.org/Graphics/SVG/1.1/DTD/svg11.dtd">
<!-- Generated by graphviz version 12.2.1 (20241206.2353)
 -->
<!-- Title: finite_state_machine Pages: 1 -->
<svg width="440pt" height="189pt"
 viewBox="0.00 0.00 440.26 189.22" xmlns="http://www.w3.org/2000/svg" xmlns:xlink="http://www.w3.org/1999/xlink">
<g id="graph0" class="graph" transform="scale(1 1) rotate(0) translate(4 185.22)">
<title>finite_state_machine</title>
<polygon fill="white" stroke="none" points="-4,4 -4,-185.22 436.26,-185.22 436.26,4 -4,4"/>
<text text-anchor="middle" x="216.13" y="-23.7" font-family="Times,serif" font-size="14.00">Regular Expression: </text>
<text text-anchor="middle" x="216.13" y="-7.2" font-family="Times,serif" font-size="14.00">xyzzy401</text>
<!-- s1 -->
<g id="node1" class="node">
<title>s1</title>
<ellipse fill="none" stroke="black" cx="409.15" cy="-116.11" rx="19.11" ry="19.11"/>
<ellipse fill="none" stroke="black" cx="409.15" cy="-116.11" rx="23.11" ry="23.11"/>
<text text-anchor="middle" x="409.15" y="-111.06" font-family="Times,serif" font-size="14.00">s1</text>
</g>
<!-- s0 -->
<g id="node2" class="node">
<title>s0</title>
<ellipse fill="none" stroke="black" cx="19.11" cy="-116.11" rx="19.11" ry="19.11"/>
<text text-anchor="middle" x="19.11" y="-111.06" font-family="Times,serif" font-size="14.00">s0</text>
</g>
<!-- s2 -->
<g id="node3" class="node">
<title>s2</title>
<ellipse fill="none" stroke="black" cx="155.54" cy="-162.11" rx="19.11" ry="19.11"/>
<text text-anchor="middle" x="155.54" y="-157.06" font-family="Times,serif" font-size="14.00">s2</text>
</g>
<!-- s0&#45;&gt;s2 -->
<g id="edge1" class="edge">
<title>s0&#45;&gt;s2</title>
<path fill="none" stroke="black" d="M35.49,-126.17C41.75,-129.96 49.15,-134.08 56.22,-137.11 78.44,-146.64 105.1,-153.14 125.05,-157.12"/>
<polygon fill="black" stroke="black" points="124.26,-160.53 134.74,-158.94 125.56,-153.65 124.26,-160.53"/>
<text text-anchor="middle" x="59.22" y="-142.54" font-family="Times,serif" font-size="14.00">a</text>
</g>
<!-- s3 -->
<g id="node4" class="node">
<title>s3</title>
<ellipse fill="none" stroke="black" cx="99.32" cy="-116.11" rx="19.11" ry="19.11"/>
<text text-anchor="middle" x="99.32" y="-111.06" font-family="Times,serif" font-size="14.00">s3</text>
</g>
<!-- s0&#45;&gt;s3 -->
<g id="edge2" class="edge">
<title>s0&#45;&gt;s3</title>
<path fill="none" stroke="black" d="M38.64,-116.11C47.6,-116.11 58.58,-116.11 68.67,-116.11"/>
<polygon fill="black" stroke="black" points="68.41,-119.61 78.41,-116.11 68.41,-112.61 68.41,-119.61"/>
<text text-anchor="middle" x="59.22" y="-119.31" font-family="Times,serif" font-size="14.00">a</text>
</g>
<!-- s5 -->
<g id="node5" class="node">
<title>s5</title>
<ellipse fill="none" stroke="black" cx="99.32" cy="-60.11" rx="19.11" ry="19.11"/>
<text text-anchor="middle" x="99.32" y="-55.06" font-family="Times,serif" font-size="14.00">s5</text>
</g>
<!-- s0&#45;&gt;s5 -->
<g id="edge3" class="edge">
<title>s0&#45;&gt;s5</title>
<path fill="none" stroke="black" d="M35.19,-105.31C46.22,-97.41 61.43,-86.52 74.15,-77.41"/>
<polygon fill="black" stroke="black" points="75.96,-80.42 82.06,-71.75 71.89,-74.73 75.96,-80.42"/>
<text text-anchor="middle" x="59.22" y="-92.99" font-family="Times,serif" font-size="14.00">a</text>
</g>
<!-- s2&#45;&gt;s1 -->
<g id="edge4" class="edge">
<title>s2&#45;&gt;s1</title>
<path fill="none" stroke="black" d="M174.97,-160.52C208.65,-157.42 282.27,-149.75 343.29,-137.11 354.27,-134.83 366,-131.37 376.43,-127.9"/>
<polygon fill="black" stroke="black" points="377.4,-131.27 385.71,-124.69 375.11,-124.65 377.4,-131.27"/>
<text text-anchor="middle" x="267.97" y="-155.33" font-family="Times,serif" font-size="14.00">λ</text>
</g>
<!-- s4 -->
<g id="node6" class="node">
<title>s4</title>
<ellipse fill="none" stroke="black" cx="267.97" cy="-116.11" rx="19.11" ry="19.11"/>
<text text-anchor="middle" x="267.97" y="-111.06" font-family="Times,serif" font-size="14.00">s4</text>
</g>
<!-- s3&#45;&gt;s4 -->
<g id="edge5" class="edge">
<title>s3&#45;&gt;s4</title>
<path fill="none" stroke="black" d="M118.79,-116.11C147.45,-116.11 202.88,-116.11 237.22,-116.11"/>
<polygon fill="black" stroke="black" points="236.9,-119.61 246.9,-116.11 236.9,-112.61 236.9,-119.61"/>
<text text-anchor="middle" x="155.54" y="-119.31" font-family="Times,serif" font-size="14.00">a</text>
</g>
<!-- s6 -->
<g id="node7" class="node">
<title>s6</title>
<ellipse fill="none" stroke="black" cx="211.75" cy="-60.11" rx="19.11" ry="19.11"/>
<text text-anchor="middle" x="211.75" y="-55.06" font-family="Times,serif" font-size="14.00">s6</text>
</g>
<!-- s5&#45;&gt;s6 -->
<g id="edge7" class="edge">
<title>s5&#45;&gt;s6</title>
<path fill="none" stroke="black" d="M118.56,-60.11C135.58,-60.11 161.29,-60.11 181.23,-60.11"/>
<polygon fill="black" stroke="black" points="180.98,-63.61 190.98,-60.11 180.98,-56.61 180.98,-63.61"/>
<text text-anchor="middle" x="155.54" y="-63.31" font-family="Times,serif" font-size="14.00">a</text>
</g>
<!-- s4&#45;&gt;s1 -->
<g id="edge6" class="edge">
<title>s4&#45;&gt;s1</title>
<path fill="none" stroke="black" d="M287.45,-116.11C309.61,-116.11 347.17,-116.11 374.52,-116.11"/>
<polygon fill="black" stroke="black" points="374.39,-119.61 384.39,-116.11 374.39,-112.61 374.39,-119.61"/>
<text text-anchor="middle" x="324.18" y="-119.31" font-family="Times,serif" font-size="14.00">λ</text>
</g>
<!-- s7 -->
<g id="node8" class="node">
<title>s7</title>
<ellipse fill="none" stroke="black" cx="324.18" cy="-61.11" rx="19.11" ry="19.11"/>
<text text-anchor="middle" x="324.18" y="-56.06" font-family="Times,serif" font-size="14.00">s7</text>
</g>
<!-- s6&#45;&gt;s7 -->
<g id="edge8" class="edge">
<title>s6&#45;&gt;s7</title>
<path fill="none" stroke="black" d="M230.99,-60.27C248.01,-60.43 273.72,-60.66 293.66,-60.84"/>
<polygon fill="black" stroke="black" points="293.38,-64.34 303.41,-60.93 293.44,-57.34 293.38,-64.34"/>
<text text-anchor="middle" x="267.97" y="-63.96" font-family="Times,serif" font-size="14.00">a</text>
</g>
<!-- s7&#45;&gt;s1 -->
<g id="edge9" class="edge">
<title>s7&#45;&gt;s1</title>
<path fill="none" stroke="black" d="M341.36,-69.7C349.51,-74.19 359.46,-79.93 368.04,-85.61 372.54,-88.59 377.21,-91.91 381.7,-95.23"/>
<polygon fill="black" stroke="black" points="379.25,-97.77 389.34,-101.02 383.48,-92.19 379.25,-97.77"/>
<text text-anchor="middle" x="364.67" y="-88.81" font-family="Times,serif" font-size="14.00">λ</text>
</g>
</g>
</svg>
