<?xml version="1.0" encoding="UTF-8" standalone="no"?>
<!DOCTYPE svg PUBLIC "-//W3C//DTD SVG 1.1//EN"
 "http://www.w3.org/Graphics/SVG/1.1/DTD/svg11.dtd">
<!-- Generated by graphviz version 12.2.1 (20241206.2353)
 -->
<!-- Title: finite_state_machine Pages: 1 -->
<svg width="576pt" height="157pt"
 viewBox="0.00 0.00 576.00 157.47" xmlns="http://www.w3.org/2000/svg" xmlns:xlink="http://www.w3.org/1999/xlink">
<g id="graph0" class="graph" transform="scale(0.628356 0.628356) rotate(0) translate(4 246.61)">
<title>finite_state_machine</title>
<polygon fill="white" stroke="none" points="-4,4 -4,-246.61 912.68,-246.61 912.68,4 -4,4"/>
<!-- s14 -->
<g id="node1" class="node">
<title>s14</title>
<ellipse fill="none" stroke="black" cx="880.96" cy="-200.11" rx="23.71" ry="23.71"/>
<ellipse fill="none" stroke="black" cx="880.96" cy="-200.11" rx="27.71" ry="27.71"/>
<text text-anchor="middle" x="880.96" y="-195.06" font-family="Times,serif" font-size="14.00">s14</text>
</g>
<!-- s0 -->
<g id="node2" class="node">
<title>s0</title>
<ellipse fill="none" stroke="black" cx="19.11" cy="-19.11" rx="19.11" ry="19.11"/>
<text text-anchor="middle" x="19.11" y="-14.06" font-family="Times,serif" font-size="14.00">s0</text>
</g>
<!-- s1 -->
<g id="node3" class="node">
<title>s1</title>
<ellipse fill="none" stroke="black" cx="100.07" cy="-72.11" rx="19.11" ry="19.11"/>
<text text-anchor="middle" x="100.07" y="-67.06" font-family="Times,serif" font-size="14.00">s1</text>
</g>
<!-- s0&#45;&gt;s1 -->
<g id="edge1" class="edge">
<title>s0&#45;&gt;s1</title>
<path fill="none" stroke="black" d="M37.51,-25C45.59,-28.13 55.13,-32.42 62.97,-37.61 68.39,-41.2 73.73,-45.65 78.58,-50.14"/>
<polygon fill="black" stroke="black" points="76.01,-52.53 85.59,-57.05 80.92,-47.54 76.01,-52.53"/>
<text text-anchor="middle" x="59.59" y="-40.81" font-family="Times,serif" font-size="14.00">a</text>
</g>
<!-- s2 -->
<g id="node4" class="node">
<title>s2</title>
<ellipse fill="none" stroke="black" cx="181.04" cy="-84.11" rx="19.11" ry="19.11"/>
<text text-anchor="middle" x="181.04" y="-79.06" font-family="Times,serif" font-size="14.00">s2</text>
</g>
<!-- s1&#45;&gt;s2 -->
<g id="edge2" class="edge">
<title>s1&#45;&gt;s2</title>
<path fill="none" stroke="black" d="M119.39,-74.89C128.66,-76.3 140.13,-78.04 150.6,-79.63"/>
<polygon fill="black" stroke="black" points="149.91,-83.07 160.33,-81.11 150.97,-76.15 149.91,-83.07"/>
<text text-anchor="middle" x="140.56" y="-81.67" font-family="Times,serif" font-size="14.00">d</text>
</g>
<!-- s4 -->
<g id="node5" class="node">
<title>s4</title>
<ellipse fill="none" stroke="black" cx="19.11" cy="-115.11" rx="19.11" ry="19.11"/>
<text text-anchor="middle" x="19.11" y="-110.06" font-family="Times,serif" font-size="14.00">s4</text>
</g>
<!-- s1&#45;&gt;s4 -->
<g id="edge3" class="edge">
<title>s1&#45;&gt;s4</title>
<path fill="none" stroke="black" d="M83.35,-62.48C74.95,-58.64 64.63,-56.09 56.22,-60.61 45.49,-66.37 37.41,-76.87 31.65,-87.12"/>
<polygon fill="black" stroke="black" points="28.67,-85.25 27.32,-95.76 34.93,-88.39 28.67,-85.25"/>
<text text-anchor="middle" x="59.59" y="-63.81" font-family="Times,serif" font-size="14.00">λ</text>
</g>
<!-- s3 -->
<g id="node6" class="node">
<title>s3</title>
<ellipse fill="none" stroke="black" cx="261.25" cy="-110.11" rx="19.11" ry="19.11"/>
<text text-anchor="middle" x="261.25" y="-105.06" font-family="Times,serif" font-size="14.00">s3</text>
</g>
<!-- s2&#45;&gt;s3 -->
<g id="edge4" class="edge">
<title>s2&#45;&gt;s3</title>
<path fill="none" stroke="black" d="M199.4,-89.88C208.95,-93.05 221.04,-97.07 231.92,-100.69"/>
<polygon fill="black" stroke="black" points="230.64,-103.95 241.24,-103.79 232.85,-97.31 230.64,-103.95"/>
<text text-anchor="middle" x="221.15" y="-101.09" font-family="Times,serif" font-size="14.00">e</text>
</g>
<!-- s4&#45;&gt;s1 -->
<g id="edge6" class="edge">
<title>s4&#45;&gt;s1</title>
<path fill="none" stroke="black" d="M36.47,-106.2C46.95,-100.49 60.79,-92.95 72.79,-86.42"/>
<polygon fill="black" stroke="black" points="74.29,-89.59 81.4,-81.73 70.95,-83.44 74.29,-89.59"/>
<text text-anchor="middle" x="59.59" y="-98.1" font-family="Times,serif" font-size="14.00">λ</text>
</g>
<!-- s5 -->
<g id="node7" class="node">
<title>s5</title>
<ellipse fill="none" stroke="black" cx="100.07" cy="-178.11" rx="19.11" ry="19.11"/>
<text text-anchor="middle" x="100.07" y="-173.06" font-family="Times,serif" font-size="14.00">s5</text>
</g>
<!-- s4&#45;&gt;s5 -->
<g id="edge7" class="edge">
<title>s4&#45;&gt;s5</title>
<path fill="none" stroke="black" d="M34.41,-127.2C41.01,-132.72 48.96,-139.3 56.22,-145.11 62.42,-150.07 69.21,-155.36 75.52,-160.22"/>
<polygon fill="black" stroke="black" points="73.02,-162.72 83.09,-166.02 77.28,-157.16 73.02,-162.72"/>
<text text-anchor="middle" x="59.59" y="-152.88" font-family="Times,serif" font-size="14.00">τ</text>
</g>
<!-- s3&#45;&gt;s4 -->
<g id="edge5" class="edge">
<title>s3&#45;&gt;s4</title>
<path fill="none" stroke="black" d="M242.35,-114.28C236.58,-115.44 230.12,-116.53 224.15,-117.11 221.49,-117.36 220.81,-117.12 218.15,-117.11 158.58,-116.81 88.93,-116 50.13,-115.51"/>
<polygon fill="black" stroke="black" points="50.23,-112.01 40.19,-115.38 50.14,-119.01 50.23,-112.01"/>
<text text-anchor="middle" x="140.56" y="-119.74" font-family="Times,serif" font-size="14.00">f</text>
</g>
<!-- s6 -->
<g id="node8" class="node">
<title>s6</title>
<ellipse fill="none" stroke="black" cx="181.04" cy="-178.11" rx="19.11" ry="19.11"/>
<text text-anchor="middle" x="181.04" y="-173.06" font-family="Times,serif" font-size="14.00">s6</text>
</g>
<!-- s5&#45;&gt;s6 -->
<g id="edge8" class="edge">
<title>s5&#45;&gt;s6</title>
<path fill="none" stroke="black" d="M119.39,-178.11C128.49,-178.11 139.73,-178.11 150.04,-178.11"/>
<polygon fill="black" stroke="black" points="150.04,-181.61 160.04,-178.11 150.04,-174.61 150.04,-181.61"/>
<text text-anchor="middle" x="140.56" y="-181.31" font-family="Times,serif" font-size="14.00">k</text>
</g>
<!-- s12 -->
<g id="node9" class="node">
<title>s12</title>
<ellipse fill="none" stroke="black" cx="697.36" cy="-200.11" rx="23.71" ry="23.71"/>
<text text-anchor="middle" x="697.36" y="-195.06" font-family="Times,serif" font-size="14.00">s12</text>
</g>
<!-- s5&#45;&gt;s12 -->
<g id="edge9" class="edge">
<title>s5&#45;&gt;s12</title>
<path fill="none" stroke="black" d="M113.88,-191.99C128.41,-206.17 153.57,-226.11 180.04,-226.11 180.04,-226.11 180.04,-226.11 608.93,-226.11 627.97,-226.11 648.42,-220.37 664.74,-214.29"/>
<polygon fill="black" stroke="black" points="665.91,-217.59 673.91,-210.64 663.33,-211.08 665.91,-217.59"/>
<text text-anchor="middle" x="389.45" y="-229.31" font-family="Times,serif" font-size="14.00">λ</text>
</g>
<!-- s7 -->
<g id="node10" class="node">
<title>s7</title>
<ellipse fill="none" stroke="black" cx="261.25" cy="-175.11" rx="19.11" ry="19.11"/>
<text text-anchor="middle" x="261.25" y="-170.06" font-family="Times,serif" font-size="14.00">s7</text>
</g>
<!-- s6&#45;&gt;s7 -->
<g id="edge10" class="edge">
<title>s6&#45;&gt;s7</title>
<path fill="none" stroke="black" d="M200.57,-177.4C209.53,-177.05 220.51,-176.63 230.6,-176.25"/>
<polygon fill="black" stroke="black" points="230.48,-179.75 240.34,-175.87 230.21,-172.76 230.48,-179.75"/>
<text text-anchor="middle" x="221.15" y="-179.9" font-family="Times,serif" font-size="14.00">l</text>
</g>
<!-- s13 -->
<g id="node15" class="node">
<title>s13</title>
<ellipse fill="none" stroke="black" cx="786.79" cy="-200.11" rx="23.71" ry="23.71"/>
<text text-anchor="middle" x="786.79" y="-195.06" font-family="Times,serif" font-size="14.00">s13</text>
</g>
<!-- s12&#45;&gt;s13 -->
<g id="edge17" class="edge">
<title>s12&#45;&gt;s13</title>
<path fill="none" stroke="black" d="M721.33,-200.11C730.49,-200.11 741.24,-200.11 751.3,-200.11"/>
<polygon fill="black" stroke="black" points="751.15,-203.61 761.15,-200.11 751.15,-196.61 751.15,-203.61"/>
<text text-anchor="middle" x="742.07" y="-203.31" font-family="Times,serif" font-size="14.00">τ</text>
</g>
<!-- s8 -->
<g id="node11" class="node">
<title>s8</title>
<ellipse fill="none" stroke="black" cx="346.72" cy="-174.11" rx="19.11" ry="19.11"/>
<text text-anchor="middle" x="346.72" y="-169.06" font-family="Times,serif" font-size="14.00">s8</text>
</g>
<!-- s7&#45;&gt;s8 -->
<g id="edge11" class="edge">
<title>s7&#45;&gt;s8</title>
<path fill="none" stroke="black" d="M280.78,-174.89C291.15,-174.76 304.33,-174.6 316.1,-174.46"/>
<polygon fill="black" stroke="black" points="315.77,-177.97 325.73,-174.35 315.69,-170.97 315.77,-177.97"/>
<text text-anchor="middle" x="303.99" y="-177.87" font-family="Times,serif" font-size="14.00">m</text>
</g>
<!-- s9 -->
<g id="node12" class="node">
<title>s9</title>
<ellipse fill="none" stroke="black" cx="432.18" cy="-174.11" rx="19.11" ry="19.11"/>
<text text-anchor="middle" x="432.18" y="-169.06" font-family="Times,serif" font-size="14.00">s9</text>
</g>
<!-- s8&#45;&gt;s9 -->
<g id="edge12" class="edge">
<title>s8&#45;&gt;s9</title>
<path fill="none" stroke="black" d="M366.24,-174.11C376.61,-174.11 389.79,-174.11 401.56,-174.11"/>
<polygon fill="black" stroke="black" points="401.2,-177.61 411.2,-174.11 401.2,-170.61 401.2,-177.61"/>
<text text-anchor="middle" x="389.45" y="-177.31" font-family="Times,serif" font-size="14.00">m</text>
</g>
<!-- s10 -->
<g id="node13" class="node">
<title>s10</title>
<ellipse fill="none" stroke="black" cx="517.75" cy="-174.11" rx="23.71" ry="23.71"/>
<text text-anchor="middle" x="517.75" y="-169.06" font-family="Times,serif" font-size="14.00">s10</text>
</g>
<!-- s9&#45;&gt;s10 -->
<g id="edge13" class="edge">
<title>s9&#45;&gt;s10</title>
<path fill="none" stroke="black" d="M451.73,-174.11C460.74,-174.11 471.87,-174.11 482.36,-174.11"/>
<polygon fill="black" stroke="black" points="482.27,-177.61 492.27,-174.11 482.27,-170.61 482.27,-177.61"/>
<text text-anchor="middle" x="472.67" y="-177.31" font-family="Times,serif" font-size="14.00">n</text>
</g>
<!-- s11 -->
<g id="node14" class="node">
<title>s11</title>
<ellipse fill="none" stroke="black" cx="607.93" cy="-174.11" rx="23.71" ry="23.71"/>
<text text-anchor="middle" x="607.93" y="-169.06" font-family="Times,serif" font-size="14.00">s11</text>
</g>
<!-- s10&#45;&gt;s11 -->
<g id="edge14" class="edge">
<title>s10&#45;&gt;s11</title>
<path fill="none" stroke="black" d="M541.92,-174.11C551.34,-174.11 562.41,-174.11 572.73,-174.11"/>
<polygon fill="black" stroke="black" points="572.4,-177.61 582.4,-174.11 572.4,-170.61 572.4,-177.61"/>
<text text-anchor="middle" x="562.84" y="-177.31" font-family="Times,serif" font-size="14.00">o</text>
</g>
<!-- s11&#45;&gt;s12 -->
<g id="edge16" class="edge">
<title>s11&#45;&gt;s12</title>
<path fill="none" stroke="black" d="M630.99,-180.67C640.83,-183.59 652.62,-187.1 663.47,-190.33"/>
<polygon fill="black" stroke="black" points="662.27,-193.62 672.85,-193.12 664.27,-186.91 662.27,-193.62"/>
<text text-anchor="middle" x="652.65" y="-191.09" font-family="Times,serif" font-size="14.00">τ</text>
</g>
<!-- s11&#45;&gt;s8 -->
<g id="edge15" class="edge">
<title>s11&#45;&gt;s8</title>
<path fill="none" stroke="black" d="M587.52,-161.29C574.96,-153.78 557.94,-145.02 541.47,-141.11 485.91,-127.9 468.64,-132.91 413.08,-146.11 399.88,-149.24 385.97,-154.84 374.39,-160.22"/>
<polygon fill="black" stroke="black" points="372.93,-157.04 365.46,-164.55 375.99,-163.33 372.93,-157.04"/>
<text text-anchor="middle" x="472.67" y="-137.61" font-family="Times,serif" font-size="14.00">λ</text>
</g>
<!-- s13&#45;&gt;s14 -->
<g id="edge18" class="edge">
<title>s13&#45;&gt;s14</title>
<path fill="none" stroke="black" d="M810.57,-200.11C819.87,-200.11 830.88,-200.11 841.36,-200.11"/>
<polygon fill="black" stroke="black" points="841.34,-203.61 851.34,-200.11 841.34,-196.61 841.34,-203.61"/>
<text text-anchor="middle" x="831.88" y="-203.31" font-family="Times,serif" font-size="14.00">b</text>
</g>
</g>
</svg>
