<?xml version="1.0" encoding="UTF-8" standalone="no"?>
<!DOCTYPE svg PUBLIC "-//W3C//DTD SVG 1.1//EN"
 "http://www.w3.org/Graphics/SVG/1.1/DTD/svg11.dtd">
<!-- Generated by graphviz version 12.2.1 (20241206.2353)
 -->
<!-- Title: finite_state_machine Pages: 1 -->
<svg width="191pt" height="165pt"
 viewBox="0.00 0.00 190.50 164.60" xmlns="http://www.w3.org/2000/svg" xmlns:xlink="http://www.w3.org/1999/xlink">
<g id="graph0" class="graph" transform="scale(1 1) rotate(0) translate(4 160.6)">
<title>finite_state_machine</title>
<polygon fill="white" stroke="none" points="-4,4 -4,-160.6 186.5,-160.6 186.5,4 -4,4"/>
<text text-anchor="middle" x="91.25" y="-7.2" font-family="Times,serif" font-size="14.00">Regular Expression: xyzzy401</text>
<!-- s2 -->
<g id="node1" class="node">
<title>s2</title>
<ellipse fill="none" stroke="black" cx="131.73" cy="-47.61" rx="19.11" ry="19.11"/>
<ellipse fill="none" stroke="black" cx="131.73" cy="-47.61" rx="23.11" ry="23.11"/>
<text text-anchor="middle" x="131.73" y="-42.56" font-family="Times,serif" font-size="14.00">s2</text>
</g>
<!-- s0 -->
<g id="node2" class="node">
<title>s0</title>
<ellipse fill="none" stroke="black" cx="131.73" cy="-127.61" rx="19.11" ry="19.11"/>
<text text-anchor="middle" x="131.73" y="-122.56" font-family="Times,serif" font-size="14.00">s0</text>
</g>
<!-- s1 -->
<g id="node3" class="node">
<title>s1</title>
<ellipse fill="none" stroke="black" cx="46.77" cy="-107.61" rx="19.11" ry="19.11"/>
<text text-anchor="middle" x="46.77" y="-102.56" font-family="Times,serif" font-size="14.00">s1</text>
</g>
<!-- s0&#45;&gt;s1 -->
<g id="edge1" class="edge">
<title>s0&#45;&gt;s1</title>
<path fill="none" stroke="black" d="M112.77,-123.28C102.23,-120.74 88.66,-117.47 76.66,-114.57"/>
<polygon fill="black" stroke="black" points="77.78,-111.24 67.24,-112.3 76.14,-118.05 77.78,-111.24"/>
<text text-anchor="middle" x="87.25" y="-120.81" font-family="Times,serif" font-size="14.00">x</text>
</g>
<!-- s0&#45;&gt;s1 -->
<g id="edge2" class="edge">
<title>s0&#45;&gt;s1</title>
<path fill="none" stroke="black" d="M118.02,-113.98C110.74,-107.2 101,-99.7 90.62,-96.11 85.44,-94.31 79.82,-94.41 74.41,-95.48"/>
<polygon fill="black" stroke="black" points="73.77,-92.02 65.25,-98.31 75.84,-98.7 73.77,-92.02"/>
<text text-anchor="middle" x="87.25" y="-99.31" font-family="Times,serif" font-size="14.00">λ</text>
</g>
<!-- s1&#45;&gt;s2 -->
<g id="edge4" class="edge">
<title>s1&#45;&gt;s2</title>
<path fill="none" stroke="black" d="M60.83,-94.09C67.42,-87.65 75.73,-80.06 83.88,-74.11 89.06,-70.32 94.84,-66.65 100.52,-63.31"/>
<polygon fill="black" stroke="black" points="102.17,-66.4 109.17,-58.45 98.74,-60.3 102.17,-66.4"/>
<text text-anchor="middle" x="87.25" y="-77.31" font-family="Times,serif" font-size="14.00">τ</text>
</g>
<!-- s1&#45;&gt;s0 -->
<g id="edge3" class="edge">
<title>s1&#45;&gt;s0</title>
<path fill="none" stroke="black" d="M59.96,-121.97C66.35,-128.37 74.73,-135.22 83.88,-138.61 90.2,-140.95 97.19,-140.72 103.81,-139.31"/>
<polygon fill="black" stroke="black" points="104.41,-142.79 112.95,-136.51 102.36,-136.09 104.41,-142.79"/>
<text text-anchor="middle" x="87.25" y="-143.3" font-family="Times,serif" font-size="14.00">λ</text>
</g>
</g>
</svg>
