<?xml version="1.0" encoding="UTF-8" standalone="no"?>
<!DOCTYPE svg PUBLIC "-//W3C//DTD SVG 1.1//EN"
 "http://www.w3.org/Graphics/SVG/1.1/DTD/svg11.dtd">
<!-- Generated by graphviz version 12.2.1 (20241206.2353)
 -->
<!-- Title: finite_state_machine Pages: 1 -->
<svg width="143pt" height="360pt"
 viewBox="0.00 0.00 143.28 360.00" xmlns="http://www.w3.org/2000/svg" xmlns:xlink="http://www.w3.org/1999/xlink">
<g id="graph0" class="graph" transform="scale(0.752116 0.752116) rotate(0) translate(4 474.65)">
<title>finite_state_machine</title>
<polygon fill="white" stroke="none" points="-4,4 -4,-474.65 186.5,-474.65 186.5,4 -4,4"/>
<text text-anchor="middle" x="91.25" y="-7.2" font-family="Times,serif" font-size="14.00">Regular Expression: xyzzy401</text>
<!-- s1 -->
<g id="node1" class="node">
<title>s1</title>
<ellipse fill="none" stroke="black" cx="131.73" cy="-193.13" rx="19.11" ry="19.11"/>
<ellipse fill="none" stroke="black" cx="131.73" cy="-193.13" rx="23.11" ry="23.11"/>
<text text-anchor="middle" x="131.73" y="-188.08" font-family="Times,serif" font-size="14.00">s1</text>
</g>
<!-- s0 -->
<g id="node2" class="node">
<title>s0</title>
<ellipse fill="none" stroke="black" cx="46.77" cy="-193.13" rx="19.11" ry="19.11"/>
<text text-anchor="middle" x="46.77" y="-188.08" font-family="Times,serif" font-size="14.00">s0</text>
</g>
<!-- s0&#45;&gt;s1 -->
<g id="edge1" class="edge">
<title>s0&#45;&gt;s1</title>
<path fill="none" stroke="black" d="M47.37,-212.49C46.71,-267.04 48.13,-420.03 83.88,-451.13 118.35,-481.12 127.57,-305.4 129.95,-228.17"/>
<polygon fill="black" stroke="black" points="133.44,-228.27 130.23,-218.18 126.45,-228.08 133.44,-228.27"/>
<text text-anchor="middle" x="87.25" y="-457.35" font-family="Times,serif" font-size="14.00">λ</text>
</g>
<!-- s0&#45;&gt;s1 -->
<g id="edge2" class="edge">
<title>s0&#45;&gt;s1</title>
<path fill="none" stroke="black" d="M47.92,-212.61C48.77,-261.2 53.88,-385.69 83.88,-411.13 112.77,-435.63 124.87,-295.2 128.97,-227.74"/>
<polygon fill="black" stroke="black" points="132.45,-228.13 129.54,-217.94 125.46,-227.72 132.45,-228.13"/>
<text text-anchor="middle" x="87.25" y="-417.16" font-family="Times,serif" font-size="14.00">λ</text>
</g>
<!-- s0&#45;&gt;s1 -->
<g id="edge3" class="edge">
<title>s0&#45;&gt;s1</title>
<path fill="none" stroke="black" d="M48.71,-212.4C51.2,-254.24 59.52,-351.22 83.88,-371.13 107.2,-390.2 121.59,-284.57 127.55,-227.62"/>
<polygon fill="black" stroke="black" points="131.02,-228.08 128.54,-217.78 124.06,-227.38 131.02,-228.08"/>
<text text-anchor="middle" x="87.25" y="-376.6" font-family="Times,serif" font-size="14.00">λ</text>
</g>
<!-- s0&#45;&gt;s1 -->
<g id="edge4" class="edge">
<title>s0&#45;&gt;s1</title>
<path fill="none" stroke="black" d="M49.91,-212.23C54.21,-246.6 65.11,-316.64 83.88,-331.13 120.4,-359.32 128.67,-277.3 130.4,-227.8"/>
<polygon fill="black" stroke="black" points="133.89,-228.19 130.66,-218.1 126.89,-228.01 133.89,-228.19"/>
<text text-anchor="middle" x="87.25" y="-338.06" font-family="Times,serif" font-size="14.00">λ</text>
</g>
<!-- s0&#45;&gt;s1 -->
<g id="edge5" class="edge">
<title>s0&#45;&gt;s1</title>
<path fill="none" stroke="black" d="M48.65,-212.5C50.88,-235.62 58.44,-273.39 83.88,-291.13 109.52,-309.01 121.6,-262.64 126.93,-227.74"/>
<polygon fill="black" stroke="black" points="130.38,-228.33 128.28,-217.95 123.45,-227.37 130.38,-228.33"/>
<text text-anchor="middle" x="87.25" y="-296.92" font-family="Times,serif" font-size="14.00">λ</text>
</g>
<!-- s0&#45;&gt;s1 -->
<g id="edge6" class="edge">
<title>s0&#45;&gt;s1</title>
<path fill="none" stroke="black" d="M53.65,-211.39C59.12,-225.03 68.74,-242.72 83.88,-251.13 99.2,-259.64 111.42,-242.91 119.54,-225.27"/>
<polygon fill="black" stroke="black" points="122.64,-226.94 123.25,-216.36 116.18,-224.24 122.64,-226.94"/>
<text text-anchor="middle" x="87.25" y="-256.54" font-family="Times,serif" font-size="14.00">λ</text>
</g>
<!-- s0&#45;&gt;s1 -->
<g id="edge7" class="edge">
<title>s0&#45;&gt;s1</title>
<path fill="none" stroke="black" d="M63.34,-202.86C69.5,-206.17 76.78,-209.46 83.88,-211.13 89.66,-212.49 95.7,-211.85 101.43,-210.17"/>
<polygon fill="black" stroke="black" points="102.58,-213.48 110.55,-206.49 99.96,-206.99 102.58,-213.48"/>
<text text-anchor="middle" x="87.25" y="-215.06" font-family="Times,serif" font-size="14.00">λ</text>
</g>
<!-- s0&#45;&gt;s1 -->
<g id="edge8" class="edge">
<title>s0&#45;&gt;s1</title>
<path fill="none" stroke="black" d="M66.12,-191.61C71.81,-191.2 78.1,-190.83 83.88,-190.63 88.11,-190.48 92.57,-190.5 96.97,-190.61"/>
<polygon fill="black" stroke="black" points="96.68,-194.1 106.82,-191.06 96.99,-187.11 96.68,-194.1"/>
<text text-anchor="middle" x="87.25" y="-193.83" font-family="Times,serif" font-size="14.00">λ</text>
</g>
<!-- s0&#45;&gt;s1 -->
<g id="edge9" class="edge">
<title>s0&#45;&gt;s1</title>
<path fill="none" stroke="black" d="M61.91,-181.2C68.21,-176.63 75.99,-171.97 83.88,-169.63 90.75,-167.59 97.82,-169.03 104.33,-172"/>
<polygon fill="black" stroke="black" points="102.27,-174.85 112.67,-176.88 105.81,-168.81 102.27,-174.85"/>
<text text-anchor="middle" x="87.25" y="-172.83" font-family="Times,serif" font-size="14.00">λ</text>
</g>
<!-- s0&#45;&gt;s1 -->
<g id="edge10" class="edge">
<title>s0&#45;&gt;s1</title>
<path fill="none" stroke="black" d="M54.99,-175.53C62.45,-160.3 75.14,-141.74 90.62,-148.63 98.6,-152.17 105.65,-158.17 111.53,-164.64"/>
<polygon fill="black" stroke="black" points="108.81,-166.84 117.84,-172.38 114.24,-162.42 108.81,-166.84"/>
<text text-anchor="middle" x="87.25" y="-151.83" font-family="Times,serif" font-size="14.00">λ</text>
</g>
<!-- s0&#45;&gt;s1 -->
<g id="edge11" class="edge">
<title>s0&#45;&gt;s1</title>
<path fill="none" stroke="black" d="M52.21,-174.48C57.08,-158.65 66.6,-136.9 83.88,-126.63 101.32,-116.25 113.95,-138.48 121.66,-159.98"/>
<polygon fill="black" stroke="black" points="118.25,-160.8 124.69,-169.22 124.9,-158.62 118.25,-160.8"/>
<text text-anchor="middle" x="87.25" y="-129.83" font-family="Times,serif" font-size="14.00">λ</text>
</g>
<!-- s0&#45;&gt;s1 -->
<g id="edge12" class="edge">
<title>s0&#45;&gt;s1</title>
<path fill="none" stroke="black" d="M49.42,-173.87C52.38,-152.6 60.68,-119.28 83.88,-103.63 107.31,-87.81 119.81,-127.4 125.86,-158.89"/>
<polygon fill="black" stroke="black" points="122.37,-159.27 127.54,-168.52 129.26,-158.06 122.37,-159.27"/>
<text text-anchor="middle" x="87.25" y="-106.83" font-family="Times,serif" font-size="14.00">λ</text>
</g>
<!-- s0&#45;&gt;s1 -->
<g id="edge13" class="edge">
<title>s0&#45;&gt;s1</title>
<path fill="none" stroke="black" d="M47.52,-173.54C48.38,-147.22 54.33,-101.23 83.88,-79.63 113.71,-57.81 124.63,-117.61 128.56,-158.48"/>
<polygon fill="black" stroke="black" points="125.07,-158.75 129.41,-168.42 132.05,-158.16 125.07,-158.75"/>
<text text-anchor="middle" x="87.25" y="-82.83" font-family="Times,serif" font-size="14.00">λ</text>
</g>
<!-- s0&#45;&gt;s1 -->
<g id="edge14" class="edge">
<title>s0&#45;&gt;s1</title>
<path fill="none" stroke="black" d="M49.96,-173.82C54.3,-139.48 65.21,-70.02 83.88,-55.63 120.22,-27.59 128.57,-108.91 130.36,-158.27"/>
<polygon fill="black" stroke="black" points="126.86,-158.34 130.64,-168.23 133.86,-158.14 126.86,-158.34"/>
<text text-anchor="middle" x="87.25" y="-58.83" font-family="Times,serif" font-size="14.00">λ</text>
</g>
<!-- s0&#45;&gt;s1 -->
<g id="edge15" class="edge">
<title>s0&#45;&gt;s1</title>
<path fill="none" stroke="black" d="M49.14,-173.87C52.36,-134.98 61.84,-49.27 83.88,-31.63 126.84,2.8 131.93,-101.14 131.63,-158.26"/>
<polygon fill="black" stroke="black" points="128.14,-158.12 131.52,-168.16 135.14,-158.21 128.14,-158.12"/>
<text text-anchor="middle" x="87.25" y="-34.83" font-family="Times,serif" font-size="14.00">λ</text>
</g>
</g>
</svg>
