<?xml version="1.0" encoding="UTF-8" standalone="no"?>
<!DOCTYPE svg PUBLIC "-//W3C//DTD SVG 1.1//EN"
 "http://www.w3.org/Graphics/SVG/1.1/DTD/svg11.dtd">
<!-- Generated by graphviz version 12.2.1 (20241206.2353)
 -->
<!-- Title: finite_state_machine Pages: 1 -->
<svg width="138pt" height="109pt"
 viewBox="0.00 0.00 138.00 108.91" xmlns="http://www.w3.org/2000/svg" xmlns:xlink="http://www.w3.org/1999/xlink">
<g id="graph0" class="graph" transform="scale(1 1) rotate(0) translate(4 104.91)">
<title>finite_state_machine</title>
<polygon fill="white" stroke="none" points="-4,4 -4,-104.91 134,-104.91 134,4 -4,4"/>
<text text-anchor="middle" x="65" y="-23.7" font-family="Times,serif" font-size="14.00">Regular Expression: </text>
<text text-anchor="middle" x="65" y="-7.2" font-family="Times,serif" font-size="14.00">xyzzy401</text>
<!-- s1 -->
<g id="node1" class="node">
<title>s1</title>
<ellipse fill="none" stroke="black" cx="105.48" cy="-65.67" rx="19.11" ry="19.11"/>
<ellipse fill="none" stroke="black" cx="105.48" cy="-65.67" rx="23.11" ry="23.11"/>
<text text-anchor="middle" x="105.48" y="-60.62" font-family="Times,serif" font-size="14.00">s1</text>
</g>
<!-- s0 -->
<g id="node2" class="node">
<title>s0</title>
<ellipse fill="none" stroke="black" cx="20.52" cy="-65.67" rx="19.11" ry="19.11"/>
<text text-anchor="middle" x="20.52" y="-60.62" font-family="Times,serif" font-size="14.00">s0</text>
</g>
<!-- s0&#45;&gt;s1 -->
<g id="edge1" class="edge">
<title>s0&#45;&gt;s1</title>
<path fill="none" stroke="black" d="M37.09,-75.41C43.25,-78.72 50.53,-82 57.62,-83.67 63.41,-85.03 69.45,-84.39 75.18,-82.71"/>
<polygon fill="black" stroke="black" points="76.33,-86.02 84.3,-79.04 73.71,-79.53 76.33,-86.02"/>
<text text-anchor="middle" x="61" y="-87.61" font-family="Times,serif" font-size="14.00">λ</text>
</g>
<!-- s0&#45;&gt;s1 -->
<g id="edge2" class="edge">
<title>s0&#45;&gt;s1</title>
<path fill="none" stroke="black" d="M39.87,-64.15C45.56,-63.75 51.85,-63.37 57.62,-63.17 61.86,-63.02 66.32,-63.04 70.72,-63.16"/>
<polygon fill="black" stroke="black" points="70.43,-66.65 80.57,-63.6 70.74,-59.66 70.43,-66.65"/>
<text text-anchor="middle" x="61" y="-66.37" font-family="Times,serif" font-size="14.00">λ</text>
</g>
<!-- s0&#45;&gt;s1 -->
<g id="edge3" class="edge">
<title>s0&#45;&gt;s1</title>
<path fill="none" stroke="black" d="M35.66,-53.74C41.96,-49.18 49.74,-44.51 57.62,-42.17 64.5,-40.13 71.57,-41.57 78.08,-44.54"/>
<polygon fill="black" stroke="black" points="76.02,-47.39 86.42,-49.42 79.56,-41.35 76.02,-47.39"/>
<text text-anchor="middle" x="61" y="-45.37" font-family="Times,serif" font-size="14.00">λ</text>
</g>
</g>
</svg>
