<?xml version="1.0" encoding="UTF-8" standalone="no"?>
<!DOCTYPE svg PUBLIC "-//W3C//DTD SVG 1.1//EN"
 "http://www.w3.org/Graphics/SVG/1.1/DTD/svg11.dtd">
<!-- Generated by graphviz version 2.38.0 (20140413.2041)
 -->
<!-- Title: finite_state_machine Pages: 1 -->
<svg width="305pt" height="354pt"
 viewBox="0.00 0.00 304.54 354.36" xmlns="http://www.w3.org/2000/svg" xmlns:xlink="http://www.w3.org/1999/xlink">
<g id="graph0" class="graph" transform="scale(1 1) rotate(0) translate(4 350.363)">
<title>finite_state_machine</title>
<polygon fill="white" stroke="none" points="-4,4 -4,-350.363 300.538,-350.363 300.538,4 -4,4"/>
<!-- s5 -->
<g id="node1" class="node"><title>s5</title>
<ellipse fill="none" stroke="black" cx="274.538" cy="-324.363" rx="18" ry="18"/>
<ellipse fill="none" stroke="black" cx="274.538" cy="-324.363" rx="22" ry="22"/>
<text text-anchor="middle" x="274.538" y="-320.163" font-family="Times,serif" font-size="14.00">s5</text>
</g>
<!-- s0 -->
<g id="node2" class="node"><title>s0</title>
<ellipse fill="none" stroke="black" cx="18" cy="-28.3625" rx="18" ry="18"/>
<text text-anchor="middle" x="18" y="-24.1625" font-family="Times,serif" font-size="14.00">s0</text>
</g>
<!-- s1 -->
<g id="node3" class="node"><title>s1</title>
<ellipse fill="none" stroke="black" cx="96.2139" cy="-28.3625" rx="18" ry="18"/>
<text text-anchor="middle" x="96.2139" y="-24.1625" font-family="Times,serif" font-size="14.00">s1</text>
</g>
<!-- s0&#45;&gt;s1 -->
<g id="edge1" class="edge"><title>s0&#45;&gt;s1</title>
<path fill="none" stroke="black" d="M36.2941,-28.3625C45.6488,-28.3625 57.4172,-28.3625 67.9721,-28.3625"/>
<polygon fill="black" stroke="black" points="67.9882,-31.8626 77.9882,-28.3625 67.9882,-24.8626 67.9882,-31.8626"/>
<text text-anchor="middle" x="57.1069" y="-31.1625" font-family="Times,serif" font-size="14.00">a</text>
</g>
<!-- s2 -->
<g id="node4" class="node"><title>s2</title>
<ellipse fill="none" stroke="black" cx="191.538" cy="-139.363" rx="18" ry="18"/>
<text text-anchor="middle" x="191.538" y="-135.163" font-family="Times,serif" font-size="14.00">s2</text>
</g>
<!-- s1&#45;&gt;s2 -->
<g id="edge2" class="edge"><title>s1&#45;&gt;s2</title>
<path fill="none" stroke="black" d="M113.696,-23.8672C126.376,-21.4496 143.678,-20.5332 155.538,-29.3625 180.716,-48.1062 188.186,-85.0896 190.192,-110.978"/>
<polygon fill="black" stroke="black" points="186.716,-111.513 190.753,-121.308 193.706,-111.133 186.716,-111.513"/>
<text text-anchor="middle" x="143.876" y="-32.1625" font-family="Times,serif" font-size="14.00">a&#45;z</text>
</g>
<!-- s1&#45;&gt;s2 -->
<g id="edge3" class="edge"><title>s1&#45;&gt;s2</title>
<path fill="none" stroke="black" d="M109.823,-16.2457C122.364,-5.69646 141.683,6.35889 155.538,-4.3625 172.284,-17.3208 182.486,-75.5902 187.268,-111.206"/>
<polygon fill="black" stroke="black" points="183.839,-111.982 188.58,-121.457 190.782,-111.093 183.839,-111.982"/>
<text text-anchor="middle" x="143.876" y="-7.1625" font-family="Times,serif" font-size="14.00">A&#45;Z</text>
</g>
<!-- s1&#45;&gt;s2 -->
<g id="edge4" class="edge"><title>s1&#45;&gt;s2</title>
<path fill="none" stroke="black" d="M108.641,-41.8249C120.42,-55.7149 139.303,-78.019 155.538,-97.3625 161.116,-104.008 167.172,-111.262 172.655,-117.844"/>
<polygon fill="black" stroke="black" points="170.126,-120.276 179.213,-125.723 175.506,-115.798 170.126,-120.276"/>
<text text-anchor="middle" x="143.876" y="-100.163" font-family="Times,serif" font-size="14.00">_</text>
</g>
<!-- s3 -->
<g id="node5" class="node"><title>s3</title>
<ellipse fill="none" stroke="black" cx="96.2139" cy="-213.363" rx="18" ry="18"/>
<text text-anchor="middle" x="96.2139" y="-209.163" font-family="Times,serif" font-size="14.00">s3</text>
</g>
<!-- s2&#45;&gt;s3 -->
<g id="edge5" class="edge"><title>s2&#45;&gt;s3</title>
<path fill="none" stroke="black" d="M175.53,-147.878C163.361,-155.073 146.026,-165.998 132.214,-177.363 126.606,-181.977 120.941,-187.4 115.85,-192.618"/>
<polygon fill="black" stroke="black" points="113.202,-190.325 108.876,-199.997 118.289,-195.133 113.202,-190.325"/>
<text text-anchor="middle" x="143.876" y="-180.163" font-family="Times,serif" font-size="14.00">a&#45;z</text>
</g>
<!-- s2&#45;&gt;s3 -->
<g id="edge6" class="edge"><title>s2&#45;&gt;s3</title>
<path fill="none" stroke="black" d="M173.538,-136.308C161.075,-135.009 144.292,-135.314 132.214,-143.363 117.699,-153.035 108.94,-170.609 103.814,-185.728"/>
<polygon fill="black" stroke="black" points="100.351,-185.091 100.82,-195.676 107.054,-187.109 100.351,-185.091"/>
<text text-anchor="middle" x="143.876" y="-146.163" font-family="Times,serif" font-size="14.00">A&#45;Z</text>
</g>
<!-- s2&#45;&gt;s3 -->
<g id="edge7" class="edge"><title>s2&#45;&gt;s3</title>
<path fill="none" stroke="black" d="M177.096,-127.857C164.631,-118.658 145.985,-108.76 132.214,-118.363 110.779,-133.309 102.436,-162.936 99.2083,-185.151"/>
<polygon fill="black" stroke="black" points="95.6992,-185.022 97.9998,-195.364 102.651,-185.845 95.6992,-185.022"/>
<text text-anchor="middle" x="143.876" y="-121.163" font-family="Times,serif" font-size="14.00">_</text>
</g>
<!-- s2&#45;&gt;s3 -->
<g id="edge8" class="edge"><title>s2&#45;&gt;s3</title>
<path fill="none" stroke="black" d="M188.253,-157.069C183.787,-188.561 172.799,-252.242 155.538,-265.363 147.285,-271.635 141.364,-270.234 132.214,-265.363 121.55,-259.686 113.553,-249.153 107.915,-239.044"/>
<polygon fill="black" stroke="black" points="111.006,-237.399 103.392,-230.031 104.749,-240.539 111.006,-237.399"/>
<text text-anchor="middle" x="143.876" y="-272.163" font-family="Times,serif" font-size="14.00">0&#45;9</text>
</g>
<!-- s2&#45;&gt;s3 -->
<g id="edge9" class="edge"><title>s2&#45;&gt;s3</title>
<path fill="none" stroke="black" d="M189.24,-157.366C186.645,-178.438 178.865,-212.47 155.538,-228.363 145.38,-235.283 132.252,-232.684 121.023,-227.849"/>
<polygon fill="black" stroke="black" points="122.276,-224.562 111.768,-223.208 119.138,-230.819 122.276,-224.562"/>
<text text-anchor="middle" x="143.876" y="-235.163" font-family="Times,serif" font-size="14.00">λ</text>
</g>
<!-- s3&#45;&gt;s2 -->
<g id="edge10" class="edge"><title>s3&#45;&gt;s2</title>
<path fill="none" stroke="black" d="M113.92,-209.968C126.392,-206.786 143.319,-201.034 155.538,-191.363 164.72,-184.095 172.367,-173.749 178.147,-164.197"/>
<polygon fill="black" stroke="black" points="181.24,-165.838 183.106,-155.409 175.144,-162.398 181.24,-165.838"/>
<text text-anchor="middle" x="143.876" y="-206.163" font-family="Times,serif" font-size="14.00">λ</text>
</g>
<!-- s4 -->
<g id="node6" class="node"><title>s4</title>
<ellipse fill="none" stroke="black" cx="191.538" cy="-324.363" rx="18" ry="18"/>
<text text-anchor="middle" x="191.538" y="-320.163" font-family="Times,serif" font-size="14.00">s4</text>
</g>
<!-- s3&#45;&gt;s4 -->
<g id="edge11" class="edge"><title>s3&#45;&gt;s4</title>
<path fill="none" stroke="black" d="M102.24,-230.501C107.624,-246.597 117.441,-270.641 132.214,-287.363 141.456,-297.823 154.353,-306.421 165.669,-312.687"/>
<polygon fill="black" stroke="black" points="164.203,-315.87 174.688,-317.392 167.441,-309.664 164.203,-315.87"/>
<text text-anchor="middle" x="143.876" y="-309.163" font-family="Times,serif" font-size="14.00">τ</text>
</g>
<!-- s4&#45;&gt;s5 -->
<g id="edge12" class="edge"><title>s4&#45;&gt;s5</title>
<path fill="none" stroke="black" d="M209.716,-324.363C219.148,-324.363 231.139,-324.363 242.175,-324.363"/>
<polygon fill="black" stroke="black" points="242.349,-327.863 252.349,-324.363 242.349,-320.863 242.349,-327.863"/>
<text text-anchor="middle" x="231.038" y="-327.163" font-family="Times,serif" font-size="14.00">d</text>
</g>
</g>
</svg>
