<?xml version="1.0" encoding="UTF-8" standalone="no"?>
<!DOCTYPE svg PUBLIC "-//W3C//DTD SVG 1.1//EN"
 "http://www.w3.org/Graphics/SVG/1.1/DTD/svg11.dtd">
<!-- Generated by graphviz version 12.2.1 (20241206.2353)
 -->
<!-- Title: finite_state_machine Pages: 1 -->
<svg width="144pt" height="92pt"
 viewBox="0.00 0.00 144.00 92.41" xmlns="http://www.w3.org/2000/svg" xmlns:xlink="http://www.w3.org/1999/xlink">
<g id="graph0" class="graph" transform="scale(1 1) rotate(0) translate(4 88.41)">
<title>finite_state_machine</title>
<polygon fill="white" stroke="none" points="-4,4 -4,-88.41 140,-88.41 140,4 -4,4"/>
<text text-anchor="middle" x="68" y="-7.2" font-family="Times,serif" font-size="14.00">Regular Expression: ||</text>
<!-- s1 -->
<g id="node1" class="node">
<title>s1</title>
<ellipse fill="none" stroke="black" cx="108.48" cy="-49.17" rx="19.11" ry="19.11"/>
<ellipse fill="none" stroke="black" cx="108.48" cy="-49.17" rx="23.11" ry="23.11"/>
<text text-anchor="middle" x="108.48" y="-44.12" font-family="Times,serif" font-size="14.00">s1</text>
</g>
<!-- s0 -->
<g id="node2" class="node">
<title>s0</title>
<ellipse fill="none" stroke="black" cx="23.52" cy="-49.17" rx="19.11" ry="19.11"/>
<text text-anchor="middle" x="23.52" y="-44.12" font-family="Times,serif" font-size="14.00">s0</text>
</g>
<!-- s0&#45;&gt;s1 -->
<g id="edge1" class="edge">
<title>s0&#45;&gt;s1</title>
<path fill="none" stroke="black" d="M40.09,-58.91C46.25,-62.22 53.53,-65.5 60.62,-67.17 66.41,-68.53 72.45,-67.89 78.18,-66.21"/>
<polygon fill="black" stroke="black" points="79.33,-69.52 87.3,-62.54 76.71,-63.03 79.33,-69.52"/>
<text text-anchor="middle" x="64" y="-71.11" font-family="Times,serif" font-size="14.00">λ</text>
</g>
<!-- s0&#45;&gt;s1 -->
<g id="edge2" class="edge">
<title>s0&#45;&gt;s1</title>
<path fill="none" stroke="black" d="M42.87,-47.65C48.56,-47.25 54.85,-46.87 60.62,-46.67 64.86,-46.52 69.32,-46.54 73.72,-46.66"/>
<polygon fill="black" stroke="black" points="73.43,-50.15 83.57,-47.1 73.74,-43.16 73.43,-50.15"/>
<text text-anchor="middle" x="64" y="-49.87" font-family="Times,serif" font-size="14.00">λ</text>
</g>
<!-- s0&#45;&gt;s1 -->
<g id="edge3" class="edge">
<title>s0&#45;&gt;s1</title>
<path fill="none" stroke="black" d="M38.66,-37.24C44.96,-32.68 52.74,-28.01 60.62,-25.67 67.5,-23.63 74.57,-25.07 81.08,-28.04"/>
<polygon fill="black" stroke="black" points="79.02,-30.89 89.42,-32.92 82.56,-24.85 79.02,-30.89"/>
<text text-anchor="middle" x="64" y="-28.87" font-family="Times,serif" font-size="14.00">λ</text>
</g>
</g>
</svg>
