<?xml version="1.0" encoding="UTF-8" standalone="no"?>
<!DOCTYPE svg PUBLIC "-//W3C//DTD SVG 1.1//EN"
 "http://www.w3.org/Graphics/SVG/1.1/DTD/svg11.dtd">
<!-- Generated by graphviz version 12.2.1 (20241206.2353)
 -->
<!-- Title: finite_state_machine Pages: 1 -->
<svg width="296pt" height="129pt"
 viewBox="0.00 0.00 296.36 129.22" xmlns="http://www.w3.org/2000/svg" xmlns:xlink="http://www.w3.org/1999/xlink">
<g id="graph0" class="graph" transform="scale(1 1) rotate(0) translate(4 125.22)">
<title>finite_state_machine</title>
<polygon fill="white" stroke="none" points="-4,4 -4,-125.22 292.36,-125.22 292.36,4 -4,4"/>
<text text-anchor="middle" x="144.18" y="-23.7" font-family="Times,serif" font-size="14.00">Regular Expression: </text>
<text text-anchor="middle" x="144.18" y="-7.2" font-family="Times,serif" font-size="14.00">xyzzy401</text>
<!-- s3 -->
<g id="node1" class="node">
<title>s3</title>
<ellipse fill="none" stroke="black" cx="265.25" cy="-64.11" rx="19.11" ry="19.11"/>
<ellipse fill="none" stroke="black" cx="265.25" cy="-64.11" rx="23.11" ry="23.11"/>
<text text-anchor="middle" x="265.25" y="-59.06" font-family="Times,serif" font-size="14.00">s3</text>
</g>
<!-- s0 -->
<g id="node2" class="node">
<title>s0</title>
<ellipse fill="none" stroke="black" cx="19.11" cy="-64.11" rx="19.11" ry="19.11"/>
<text text-anchor="middle" x="19.11" y="-59.06" font-family="Times,serif" font-size="14.00">s0</text>
</g>
<!-- s1 -->
<g id="node3" class="node">
<title>s1</title>
<ellipse fill="none" stroke="black" cx="100.07" cy="-102.11" rx="19.11" ry="19.11"/>
<text text-anchor="middle" x="100.07" y="-97.06" font-family="Times,serif" font-size="14.00">s1</text>
</g>
<!-- s0&#45;&gt;s1 -->
<g id="edge1" class="edge">
<title>s0&#45;&gt;s1</title>
<path fill="none" stroke="black" d="M36.85,-72.17C47.11,-77.1 60.48,-83.54 72.19,-89.17"/>
<polygon fill="black" stroke="black" points="70.46,-92.22 80.99,-93.4 73.49,-85.91 70.46,-92.22"/>
<text text-anchor="middle" x="59.59" y="-87.45" font-family="Times,serif" font-size="14.00">x</text>
</g>
<!-- s2 -->
<g id="node4" class="node">
<title>s2</title>
<ellipse fill="none" stroke="black" cx="181.04" cy="-64.11" rx="19.11" ry="19.11"/>
<text text-anchor="middle" x="181.04" y="-59.06" font-family="Times,serif" font-size="14.00">s2</text>
</g>
<!-- s0&#45;&gt;s2 -->
<g id="edge2" class="edge">
<title>s0&#45;&gt;s2</title>
<path fill="none" stroke="black" d="M38.44,-61.64C50.5,-60.14 66.64,-58.37 80.97,-57.61 97.93,-56.7 102.22,-56.7 119.18,-57.61 129.36,-58.15 140.47,-59.2 150.37,-60.3"/>
<polygon fill="black" stroke="black" points="149.86,-63.76 160.2,-61.46 150.68,-56.81 149.86,-63.76"/>
<text text-anchor="middle" x="100.07" y="-60.81" font-family="Times,serif" font-size="14.00">λ</text>
</g>
<!-- s1&#45;&gt;s2 -->
<g id="edge3" class="edge">
<title>s1&#45;&gt;s2</title>
<path fill="none" stroke="black" d="M117.82,-94.05C128.08,-89.11 141.45,-82.68 153.16,-77.04"/>
<polygon fill="black" stroke="black" points="154.46,-80.3 161.95,-72.81 151.42,-73.99 154.46,-80.3"/>
<text text-anchor="middle" x="140.56" y="-87.45" font-family="Times,serif" font-size="14.00">x</text>
</g>
<!-- s2&#45;&gt;s3 -->
<g id="edge4" class="edge">
<title>s2&#45;&gt;s3</title>
<path fill="none" stroke="black" d="M200.28,-64.11C209.15,-64.11 220.1,-64.11 230.42,-64.11"/>
<polygon fill="black" stroke="black" points="230.14,-67.61 240.14,-64.11 230.14,-60.61 230.14,-67.61"/>
<text text-anchor="middle" x="221.15" y="-67.31" font-family="Times,serif" font-size="14.00">τ</text>
</g>
</g>
</svg>
