<?xml version="1.0" encoding="UTF-8" standalone="no"?>
<!DOCTYPE svg PUBLIC "-//W3C//DTD SVG 1.1//EN"
 "http://www.w3.org/Graphics/SVG/1.1/DTD/svg11.dtd">
<!-- Generated by graphviz version 12.2.1 (20241206.2353)
 -->
<!-- Title: finite_state_machine Pages: 1 -->
<svg width="297pt" height="127pt"
 viewBox="0.00 0.00 297.11 126.72" xmlns="http://www.w3.org/2000/svg" xmlns:xlink="http://www.w3.org/1999/xlink">
<g id="graph0" class="graph" transform="scale(1 1) rotate(0) translate(4 122.72)">
<title>finite_state_machine</title>
<polygon fill="white" stroke="none" points="-4,4 -4,-122.72 293.11,-122.72 293.11,4 -4,4"/>
<text text-anchor="middle" x="144.56" y="-7.2" font-family="Times,serif" font-size="14.00">Regular Expression: (aa|bb)</text>
<!-- s1 -->
<g id="node1" class="node">
<title>s1</title>
<ellipse fill="none" stroke="black" cx="266" cy="-73.61" rx="19.11" ry="19.11"/>
<ellipse fill="none" stroke="black" cx="266" cy="-73.61" rx="23.11" ry="23.11"/>
<text text-anchor="middle" x="266" y="-68.56" font-family="Times,serif" font-size="14.00">s1</text>
</g>
<!-- s0 -->
<g id="node2" class="node">
<title>s0</title>
<ellipse fill="none" stroke="black" cx="19.11" cy="-71.61" rx="19.11" ry="19.11"/>
<text text-anchor="middle" x="19.11" y="-66.56" font-family="Times,serif" font-size="14.00">s0</text>
</g>
<!-- s2 -->
<g id="node3" class="node">
<title>s2</title>
<ellipse fill="none" stroke="black" cx="100.07" cy="-99.61" rx="19.11" ry="19.11"/>
<text text-anchor="middle" x="100.07" y="-94.56" font-family="Times,serif" font-size="14.00">s2</text>
</g>
<!-- s0&#45;&gt;s2 -->
<g id="edge1" class="edge">
<title>s0&#45;&gt;s2</title>
<path fill="none" stroke="black" d="M37.63,-77.82C47.45,-81.3 59.92,-85.72 71.05,-89.67"/>
<polygon fill="black" stroke="black" points="69.58,-92.86 80.17,-92.9 71.91,-86.26 69.58,-92.86"/>
<text text-anchor="middle" x="59.59" y="-89.65" font-family="Times,serif" font-size="14.00">a</text>
</g>
<!-- s4 -->
<g id="node4" class="node">
<title>s4</title>
<ellipse fill="none" stroke="black" cx="100.07" cy="-43.61" rx="19.11" ry="19.11"/>
<text text-anchor="middle" x="100.07" y="-38.56" font-family="Times,serif" font-size="14.00">s4</text>
</g>
<!-- s0&#45;&gt;s4 -->
<g id="edge2" class="edge">
<title>s0&#45;&gt;s4</title>
<path fill="none" stroke="black" d="M37.63,-65.39C47.45,-61.91 59.92,-57.49 71.05,-53.54"/>
<polygon fill="black" stroke="black" points="71.91,-56.95 80.17,-50.31 69.58,-50.35 71.91,-56.95"/>
<text text-anchor="middle" x="59.59" y="-61.65" font-family="Times,serif" font-size="14.00">b</text>
</g>
<!-- s3 -->
<g id="node5" class="node">
<title>s3</title>
<ellipse fill="none" stroke="black" cx="181.04" cy="-99.61" rx="19.11" ry="19.11"/>
<text text-anchor="middle" x="181.04" y="-94.56" font-family="Times,serif" font-size="14.00">s3</text>
</g>
<!-- s2&#45;&gt;s3 -->
<g id="edge3" class="edge">
<title>s2&#45;&gt;s3</title>
<path fill="none" stroke="black" d="M119.39,-99.61C128.49,-99.61 139.73,-99.61 150.04,-99.61"/>
<polygon fill="black" stroke="black" points="150.04,-103.11 160.04,-99.61 150.04,-96.11 150.04,-103.11"/>
<text text-anchor="middle" x="140.56" y="-102.81" font-family="Times,serif" font-size="14.00">a</text>
</g>
<!-- s5 -->
<g id="node6" class="node">
<title>s5</title>
<ellipse fill="none" stroke="black" cx="181.04" cy="-43.61" rx="19.11" ry="19.11"/>
<text text-anchor="middle" x="181.04" y="-38.56" font-family="Times,serif" font-size="14.00">s5</text>
</g>
<!-- s4&#45;&gt;s5 -->
<g id="edge5" class="edge">
<title>s4&#45;&gt;s5</title>
<path fill="none" stroke="black" d="M119.39,-43.61C128.49,-43.61 139.73,-43.61 150.04,-43.61"/>
<polygon fill="black" stroke="black" points="150.04,-47.11 160.04,-43.61 150.04,-40.11 150.04,-47.11"/>
<text text-anchor="middle" x="140.56" y="-46.81" font-family="Times,serif" font-size="14.00">b</text>
</g>
<!-- s3&#45;&gt;s1 -->
<g id="edge4" class="edge">
<title>s3&#45;&gt;s1</title>
<path fill="none" stroke="black" d="M199.63,-94.09C209.26,-91.08 221.5,-87.24 232.78,-83.71"/>
<polygon fill="black" stroke="black" points="233.66,-87.1 242.16,-80.77 231.57,-80.42 233.66,-87.1"/>
<text text-anchor="middle" x="221.52" y="-91.36" font-family="Times,serif" font-size="14.00">λ</text>
</g>
<!-- s5&#45;&gt;s1 -->
<g id="edge6" class="edge">
<title>s5&#45;&gt;s1</title>
<path fill="none" stroke="black" d="M199.23,-49.82C209.01,-53.36 221.58,-57.91 233.1,-62.07"/>
<polygon fill="black" stroke="black" points="231.69,-65.28 242.28,-65.39 234.07,-58.7 231.69,-65.28"/>
<text text-anchor="middle" x="221.52" y="-61.81" font-family="Times,serif" font-size="14.00">λ</text>
</g>
</g>
</svg>
