<?xml version="1.0" encoding="UTF-8" standalone="no"?>
<!DOCTYPE svg PUBLIC "-//W3C//DTD SVG 1.1//EN"
 "http://www.w3.org/Graphics/SVG/1.1/DTD/svg11.dtd">
<!-- Generated by graphviz version 2.38.0 (20140413.2041)
 -->
<!-- Title: finite_state_machine Pages: 1 -->
<svg width="576pt" height="44pt"
 viewBox="0.00 0.00 576.00 44.04" xmlns="http://www.w3.org/2000/svg" xmlns:xlink="http://www.w3.org/1999/xlink">
<g id="graph0" class="graph" transform="scale(0.846972 0.846972) rotate(0) translate(4 48)">
<title>finite_state_machine</title>
<polygon fill="white" stroke="none" points="-4,4 -4,-48 676.069,-48 676.069,4 -4,4"/>
<!-- s8 -->
<g id="node1" class="node"><title>s8</title>
<ellipse fill="none" stroke="black" cx="650.069" cy="-22" rx="18" ry="18"/>
<ellipse fill="none" stroke="black" cx="650.069" cy="-22" rx="22" ry="22"/>
<text text-anchor="middle" x="650.069" y="-17.8" font-family="Times,serif" font-size="14.00">s8</text>
</g>
<!-- s0 -->
<g id="node2" class="node"><title>s0</title>
<ellipse fill="none" stroke="black" cx="18" cy="-22" rx="18" ry="18"/>
<text text-anchor="middle" x="18" y="-17.8" font-family="Times,serif" font-size="14.00">s0</text>
</g>
<!-- s1 -->
<g id="node3" class="node"><title>s1</title>
<ellipse fill="none" stroke="black" cx="96.2139" cy="-22" rx="18" ry="18"/>
<text text-anchor="middle" x="96.2139" y="-17.8" font-family="Times,serif" font-size="14.00">s1</text>
</g>
<!-- s0&#45;&gt;s1 -->
<g id="edge1" class="edge"><title>s0&#45;&gt;s1</title>
<path fill="none" stroke="black" d="M36.2941,-22C45.6488,-22 57.4172,-22 67.9721,-22"/>
<polygon fill="black" stroke="black" points="67.9882,-25.5001 77.9882,-22 67.9882,-18.5001 67.9882,-25.5001"/>
<text text-anchor="middle" x="57.1069" y="-24.8" font-family="Times,serif" font-size="14.00">a</text>
</g>
<!-- s2 -->
<g id="node4" class="node"><title>s2</title>
<ellipse fill="none" stroke="black" cx="174.428" cy="-22" rx="18" ry="18"/>
<text text-anchor="middle" x="174.428" y="-17.8" font-family="Times,serif" font-size="14.00">s2</text>
</g>
<!-- s1&#45;&gt;s2 -->
<g id="edge2" class="edge"><title>s1&#45;&gt;s2</title>
<path fill="none" stroke="black" d="M114.508,-22C123.863,-22 135.631,-22 146.186,-22"/>
<polygon fill="black" stroke="black" points="146.202,-25.5001 156.202,-22 146.202,-18.5001 146.202,-25.5001"/>
<text text-anchor="middle" x="135.321" y="-24.8" font-family="Times,serif" font-size="14.00">a</text>
</g>
<!-- s3 -->
<g id="node5" class="node"><title>s3</title>
<ellipse fill="none" stroke="black" cx="253.428" cy="-22" rx="18" ry="18"/>
<text text-anchor="middle" x="253.428" y="-17.8" font-family="Times,serif" font-size="14.00">s3</text>
</g>
<!-- s2&#45;&gt;s3 -->
<g id="edge3" class="edge"><title>s2&#45;&gt;s3</title>
<path fill="none" stroke="black" d="M192.517,-22C202.087,-22 214.245,-22 225.104,-22"/>
<polygon fill="black" stroke="black" points="225.387,-25.5001 235.387,-22 225.387,-18.5001 225.387,-25.5001"/>
<text text-anchor="middle" x="213.928" y="-24.8" font-family="Times,serif" font-size="14.00">b</text>
</g>
<!-- s4 -->
<g id="node6" class="node"><title>s4</title>
<ellipse fill="none" stroke="black" cx="332.428" cy="-22" rx="18" ry="18"/>
<text text-anchor="middle" x="332.428" y="-17.8" font-family="Times,serif" font-size="14.00">s4</text>
</g>
<!-- s3&#45;&gt;s4 -->
<g id="edge4" class="edge"><title>s3&#45;&gt;s4</title>
<path fill="none" stroke="black" d="M271.517,-22C281.087,-22 293.245,-22 304.104,-22"/>
<polygon fill="black" stroke="black" points="304.387,-25.5001 314.387,-22 304.387,-18.5001 304.387,-25.5001"/>
<text text-anchor="middle" x="292.928" y="-24.8" font-family="Times,serif" font-size="14.00">b</text>
</g>
<!-- s5 -->
<g id="node7" class="node"><title>s5</title>
<ellipse fill="none" stroke="black" cx="411.428" cy="-22" rx="18" ry="18"/>
<text text-anchor="middle" x="411.428" y="-17.8" font-family="Times,serif" font-size="14.00">s5</text>
</g>
<!-- s4&#45;&gt;s5 -->
<g id="edge5" class="edge"><title>s4&#45;&gt;s5</title>
<path fill="none" stroke="black" d="M350.517,-22C360.087,-22 372.245,-22 383.104,-22"/>
<polygon fill="black" stroke="black" points="383.387,-25.5001 393.387,-22 383.387,-18.5001 383.387,-25.5001"/>
<text text-anchor="middle" x="371.928" y="-24.8" font-family="Times,serif" font-size="14.00">b</text>
</g>
<!-- s4&#45;&gt;s5 -->
<g id="edge6" class="edge"><title>s4&#45;&gt;s5</title>
<path fill="none" stroke="black" d="M347.026,-11.2082C355.058,-6.11089 365.558,-1.61089 375.428,-4 379.167,-4.9053 382.956,-6.28328 386.59,-7.8822"/>
<polygon fill="black" stroke="black" points="385.203,-11.1023 395.711,-12.4577 388.342,-4.84541 385.203,-11.1023"/>
<text text-anchor="middle" x="371.928" y="-6.8" font-family="Times,serif" font-size="14.00">λ</text>
</g>
<!-- s6 -->
<g id="node8" class="node"><title>s6</title>
<ellipse fill="none" stroke="black" cx="489.642" cy="-22" rx="18" ry="18"/>
<text text-anchor="middle" x="489.642" y="-17.8" font-family="Times,serif" font-size="14.00">s6</text>
</g>
<!-- s5&#45;&gt;s6 -->
<g id="edge7" class="edge"><title>s5&#45;&gt;s6</title>
<path fill="none" stroke="black" d="M429.722,-22C439.076,-22 450.845,-22 461.4,-22"/>
<polygon fill="black" stroke="black" points="461.416,-25.5001 471.416,-22 461.416,-18.5001 461.416,-25.5001"/>
<text text-anchor="middle" x="450.535" y="-24.8" font-family="Times,serif" font-size="14.00">τ</text>
</g>
<!-- s7 -->
<g id="node9" class="node"><title>s7</title>
<ellipse fill="none" stroke="black" cx="567.855" cy="-22" rx="18" ry="18"/>
<text text-anchor="middle" x="567.855" y="-17.8" font-family="Times,serif" font-size="14.00">s7</text>
</g>
<!-- s6&#45;&gt;s7 -->
<g id="edge8" class="edge"><title>s6&#45;&gt;s7</title>
<path fill="none" stroke="black" d="M507.936,-22C517.29,-22 529.059,-22 539.614,-22"/>
<polygon fill="black" stroke="black" points="539.63,-25.5001 549.63,-22 539.63,-18.5001 539.63,-25.5001"/>
<text text-anchor="middle" x="528.749" y="-24.8" font-family="Times,serif" font-size="14.00">c</text>
</g>
<!-- s7&#45;&gt;s8 -->
<g id="edge9" class="edge"><title>s7&#45;&gt;s8</title>
<path fill="none" stroke="black" d="M585.867,-22C595.137,-22 606.904,-22 617.766,-22"/>
<polygon fill="black" stroke="black" points="617.791,-25.5001 627.791,-22 617.791,-18.5001 617.791,-25.5001"/>
<text text-anchor="middle" x="606.962" y="-24.8" font-family="Times,serif" font-size="14.00">c</text>
</g>
</g>
</svg>
