<?xml version="1.0" encoding="UTF-8" standalone="no"?>
<!DOCTYPE svg PUBLIC "-//W3C//DTD SVG 1.1//EN"
 "http://www.w3.org/Graphics/SVG/1.1/DTD/svg11.dtd">
<!-- Generated by graphviz version 12.2.1 (20241206.2353)
 -->
<!-- Title: finite_state_machine Pages: 1 -->
<svg width="215pt" height="68pt"
 viewBox="0.00 0.00 215.40 67.64" xmlns="http://www.w3.org/2000/svg" xmlns:xlink="http://www.w3.org/1999/xlink">
<g id="graph0" class="graph" transform="scale(1 1) rotate(0) translate(4 63.64)">
<title>finite_state_machine</title>
<polygon fill="white" stroke="none" points="-4,4 -4,-63.64 211.4,-63.64 211.4,4 -4,4"/>
<!-- s2 -->
<g id="node1" class="node">
<title>s2</title>
<ellipse fill="none" stroke="black" cx="184.29" cy="-24.5" rx="19.11" ry="19.11"/>
<ellipse fill="none" stroke="black" cx="184.29" cy="-24.5" rx="23.11" ry="23.11"/>
<text text-anchor="middle" x="184.29" y="-19.45" font-family="Times,serif" font-size="14.00">s2</text>
</g>
<!-- s0 -->
<g id="node2" class="node">
<title>s0</title>
<ellipse fill="none" stroke="black" cx="19.11" cy="-24.5" rx="19.11" ry="19.11"/>
<text text-anchor="middle" x="19.11" y="-19.45" font-family="Times,serif" font-size="14.00">s0</text>
</g>
<!-- s1 -->
<g id="node3" class="node">
<title>s1</title>
<ellipse fill="none" stroke="black" cx="100.07" cy="-24.5" rx="19.11" ry="19.11"/>
<text text-anchor="middle" x="100.07" y="-19.45" font-family="Times,serif" font-size="14.00">s1</text>
</g>
<!-- s0&#45;&gt;s1 -->
<g id="edge1" class="edge">
<title>s0&#45;&gt;s1</title>
<path fill="none" stroke="black" d="M35.68,-34.23C41.84,-37.54 49.12,-40.83 56.22,-42.5 62.3,-43.93 68.63,-42.85 74.5,-40.64"/>
<polygon fill="black" stroke="black" points="75.63,-43.98 83.05,-36.42 72.54,-37.7 75.63,-43.98"/>
<text text-anchor="middle" x="59.59" y="-46.34" font-family="Times,serif" font-size="14.00">0</text>
</g>
<!-- s0&#45;&gt;s1 -->
<g id="edge2" class="edge">
<title>s0&#45;&gt;s1</title>
<path fill="none" stroke="black" d="M38.45,-22.68C46.04,-22.12 54.92,-21.72 62.97,-22 65.04,-22.07 67.18,-22.16 69.34,-22.28"/>
<polygon fill="black" stroke="black" points="69.01,-25.76 79.21,-22.89 69.44,-18.77 69.01,-25.76"/>
<text text-anchor="middle" x="59.59" y="-25.2" font-family="Times,serif" font-size="14.00">1</text>
</g>
<!-- s0&#45;&gt;s1 -->
<g id="edge3" class="edge">
<title>s0&#45;&gt;s1</title>
<path fill="none" stroke="black" d="M32.97,-11.06C41.17,-4.16 52.23,2.19 62.97,-1 67.28,-2.28 71.56,-4.25 75.58,-6.53"/>
<polygon fill="black" stroke="black" points="73.36,-9.26 83.66,-11.75 77.16,-3.38 73.36,-9.26"/>
<text text-anchor="middle" x="59.59" y="-4.2" font-family="Times,serif" font-size="14.00">λ</text>
</g>
<!-- s1&#45;&gt;s2 -->
<g id="edge4" class="edge">
<title>s1&#45;&gt;s2</title>
<path fill="none" stroke="black" d="M119.32,-24.5C128.19,-24.5 139.14,-24.5 149.45,-24.5"/>
<polygon fill="black" stroke="black" points="149.18,-28 159.18,-24.5 149.18,-21 149.18,-28"/>
<text text-anchor="middle" x="140.18" y="-27.7" font-family="Times,serif" font-size="14.00">τ</text>
</g>
</g>
</svg>
