<?xml version="1.0" encoding="UTF-8" standalone="no"?>
<!DOCTYPE svg PUBLIC "-//W3C//DTD SVG 1.1//EN"
 "http://www.w3.org/Graphics/SVG/1.1/DTD/svg11.dtd">
<!-- Generated by graphviz version 12.2.1 (20241206.2353)
 -->
<!-- Title: finite_state_machine Pages: 1 -->
<svg width="576pt" height="174pt"
 viewBox="0.00 0.00 576.00 174.07" xmlns="http://www.w3.org/2000/svg" xmlns:xlink="http://www.w3.org/1999/xlink">
<g id="graph0" class="graph" transform="scale(0.929242 0.929242) rotate(0) translate(4 183.32)">
<title>finite_state_machine</title>
<polygon fill="white" stroke="none" points="-4,4 -4,-183.32 615.86,-183.32 615.86,4 -4,4"/>
<text text-anchor="middle" x="305.93" y="-7.2" font-family="Times,serif" font-size="14.00">Regular Expression: xyzzy401</text>
<!-- s11 -->
<g id="node1" class="node">
<title>s11</title>
<ellipse fill="none" stroke="black" cx="584.15" cy="-108.21" rx="23.71" ry="23.71"/>
<ellipse fill="none" stroke="black" cx="584.15" cy="-108.21" rx="27.71" ry="27.71"/>
<text text-anchor="middle" x="584.15" y="-103.16" font-family="Times,serif" font-size="14.00">s11</text>
</g>
<!-- s0 -->
<g id="node2" class="node">
<title>s0</title>
<ellipse fill="none" stroke="black" cx="19.11" cy="-104.21" rx="19.11" ry="19.11"/>
<text text-anchor="middle" x="19.11" y="-99.16" font-family="Times,serif" font-size="14.00">s0</text>
</g>
<!-- s2 -->
<g id="node3" class="node">
<title>s2</title>
<ellipse fill="none" stroke="black" cx="99.32" cy="-160.21" rx="19.11" ry="19.11"/>
<text text-anchor="middle" x="99.32" y="-155.16" font-family="Times,serif" font-size="14.00">s2</text>
</g>
<!-- s0&#45;&gt;s2 -->
<g id="edge1" class="edge">
<title>s0&#45;&gt;s2</title>
<path fill="none" stroke="black" d="M35.19,-115.01C46.22,-122.91 61.43,-133.8 74.15,-142.91"/>
<polygon fill="black" stroke="black" points="71.89,-145.59 82.06,-148.57 75.96,-139.9 71.89,-145.59"/>
<text text-anchor="middle" x="59.22" y="-137.09" font-family="Times,serif" font-size="14.00">a</text>
</g>
<!-- s4 -->
<g id="node4" class="node">
<title>s4</title>
<ellipse fill="none" stroke="black" cx="99.32" cy="-104.21" rx="19.11" ry="19.11"/>
<text text-anchor="middle" x="99.32" y="-99.16" font-family="Times,serif" font-size="14.00">s4</text>
</g>
<!-- s0&#45;&gt;s4 -->
<g id="edge2" class="edge">
<title>s0&#45;&gt;s4</title>
<path fill="none" stroke="black" d="M38.64,-104.21C47.6,-104.21 58.58,-104.21 68.67,-104.21"/>
<polygon fill="black" stroke="black" points="68.41,-107.71 78.41,-104.21 68.41,-100.71 68.41,-107.71"/>
<text text-anchor="middle" x="59.22" y="-107.41" font-family="Times,serif" font-size="14.00">a</text>
</g>
<!-- s7 -->
<g id="node5" class="node">
<title>s7</title>
<ellipse fill="none" stroke="black" cx="99.32" cy="-48.21" rx="19.11" ry="19.11"/>
<text text-anchor="middle" x="99.32" y="-43.16" font-family="Times,serif" font-size="14.00">s7</text>
</g>
<!-- s0&#45;&gt;s7 -->
<g id="edge3" class="edge">
<title>s0&#45;&gt;s7</title>
<path fill="none" stroke="black" d="M35.19,-93.42C46.22,-85.51 61.43,-74.63 74.15,-65.52"/>
<polygon fill="black" stroke="black" points="75.96,-68.53 82.06,-59.86 71.89,-62.83 75.96,-68.53"/>
<text text-anchor="middle" x="59.22" y="-81.09" font-family="Times,serif" font-size="14.00">a</text>
</g>
<!-- s3 -->
<g id="node7" class="node">
<title>s3</title>
<ellipse fill="none" stroke="black" cx="236.5" cy="-155.21" rx="19.11" ry="19.11"/>
<text text-anchor="middle" x="236.5" y="-150.16" font-family="Times,serif" font-size="14.00">s3</text>
</g>
<!-- s2&#45;&gt;s3 -->
<g id="edge5" class="edge">
<title>s2&#45;&gt;s3</title>
<path fill="none" stroke="black" d="M118.84,-159.53C141.28,-158.7 179.4,-157.29 205.94,-156.31"/>
<polygon fill="black" stroke="black" points="205.84,-159.81 215.7,-155.95 205.58,-152.82 205.84,-159.81"/>
<text text-anchor="middle" x="139.81" y="-162.05" font-family="Times,serif" font-size="14.00">b</text>
</g>
<!-- s5 -->
<g id="node8" class="node">
<title>s5</title>
<ellipse fill="none" stroke="black" cx="180.29" cy="-106.21" rx="19.11" ry="19.11"/>
<text text-anchor="middle" x="180.29" y="-101.16" font-family="Times,serif" font-size="14.00">s5</text>
</g>
<!-- s4&#45;&gt;s5 -->
<g id="edge7" class="edge">
<title>s4&#45;&gt;s5</title>
<path fill="none" stroke="black" d="M118.64,-104.68C127.74,-104.91 138.98,-105.19 149.29,-105.45"/>
<polygon fill="black" stroke="black" points="149.2,-108.95 159.29,-105.71 149.38,-101.96 149.2,-108.95"/>
<text text-anchor="middle" x="139.81" y="-108.47" font-family="Times,serif" font-size="14.00">a</text>
</g>
<!-- s8 -->
<g id="node10" class="node">
<title>s8</title>
<ellipse fill="none" stroke="black" cx="180.29" cy="-48.21" rx="19.11" ry="19.11"/>
<text text-anchor="middle" x="180.29" y="-43.16" font-family="Times,serif" font-size="14.00">s8</text>
</g>
<!-- s7&#45;&gt;s8 -->
<g id="edge10" class="edge">
<title>s7&#45;&gt;s8</title>
<path fill="none" stroke="black" d="M118.64,-48.21C127.74,-48.21 138.98,-48.21 149.29,-48.21"/>
<polygon fill="black" stroke="black" points="149.29,-51.71 159.29,-48.21 149.29,-44.71 149.29,-51.71"/>
<text text-anchor="middle" x="139.81" y="-51.41" font-family="Times,serif" font-size="14.00">a</text>
</g>
<!-- s1 -->
<g id="node6" class="node">
<title>s1</title>
<ellipse fill="none" stroke="black" cx="495.33" cy="-108.21" rx="19.11" ry="19.11"/>
<text text-anchor="middle" x="495.33" y="-103.16" font-family="Times,serif" font-size="14.00">s1</text>
</g>
<!-- s1&#45;&gt;s11 -->
<g id="edge4" class="edge">
<title>s1&#45;&gt;s11</title>
<path fill="none" stroke="black" d="M514.74,-108.21C523.49,-108.21 534.3,-108.21 544.72,-108.21"/>
<polygon fill="black" stroke="black" points="544.68,-111.71 554.68,-108.21 544.68,-104.71 544.68,-111.71"/>
<text text-anchor="middle" x="535.43" y="-111.41" font-family="Times,serif" font-size="14.00">c</text>
</g>
<!-- s3&#45;&gt;s1 -->
<g id="edge6" class="edge">
<title>s3&#45;&gt;s1</title>
<path fill="none" stroke="black" d="M255.97,-153.3C290.84,-149.54 368.68,-140.5 433.47,-128.21 444.59,-126.11 447.42,-125.6 458.22,-122.21 460.97,-121.35 463.81,-120.38 466.64,-119.37"/>
<polygon fill="black" stroke="black" points="467.69,-122.72 475.81,-115.91 465.22,-116.17 467.69,-122.72"/>
<text text-anchor="middle" x="348.93" y="-147.39" font-family="Times,serif" font-size="14.00">λ</text>
</g>
<!-- s6 -->
<g id="node9" class="node">
<title>s6</title>
<ellipse fill="none" stroke="black" cx="348.93" cy="-107.21" rx="19.11" ry="19.11"/>
<text text-anchor="middle" x="348.93" y="-102.16" font-family="Times,serif" font-size="14.00">s6</text>
</g>
<!-- s5&#45;&gt;s6 -->
<g id="edge8" class="edge">
<title>s5&#45;&gt;s6</title>
<path fill="none" stroke="black" d="M199.76,-106.32C228.41,-106.5 283.85,-106.83 318.19,-107.04"/>
<polygon fill="black" stroke="black" points="317.84,-110.53 327.87,-107.09 317.89,-103.53 317.84,-110.53"/>
<text text-anchor="middle" x="236.5" y="-109.85" font-family="Times,serif" font-size="14.00">b</text>
</g>
<!-- s6&#45;&gt;s1 -->
<g id="edge9" class="edge">
<title>s6&#45;&gt;s1</title>
<path fill="none" stroke="black" d="M368.51,-107.34C392.77,-107.51 435.54,-107.81 464.39,-108.01"/>
<polygon fill="black" stroke="black" points="464.28,-111.51 474.3,-108.08 464.33,-104.51 464.28,-111.51"/>
<text text-anchor="middle" x="409.75" y="-110.98" font-family="Times,serif" font-size="14.00">λ</text>
</g>
<!-- s9 -->
<g id="node11" class="node">
<title>s9</title>
<ellipse fill="none" stroke="black" cx="292.72" cy="-48.21" rx="19.11" ry="19.11"/>
<text text-anchor="middle" x="292.72" y="-43.16" font-family="Times,serif" font-size="14.00">s9</text>
</g>
<!-- s8&#45;&gt;s9 -->
<g id="edge11" class="edge">
<title>s8&#45;&gt;s9</title>
<path fill="none" stroke="black" d="M199.52,-48.21C216.55,-48.21 242.25,-48.21 262.2,-48.21"/>
<polygon fill="black" stroke="black" points="261.94,-51.71 271.94,-48.21 261.94,-44.71 261.94,-51.71"/>
<text text-anchor="middle" x="236.5" y="-51.41" font-family="Times,serif" font-size="14.00">a</text>
</g>
<!-- s10 -->
<g id="node12" class="node">
<title>s10</title>
<ellipse fill="none" stroke="black" cx="409.75" cy="-48.21" rx="23.71" ry="23.71"/>
<text text-anchor="middle" x="409.75" y="-43.16" font-family="Times,serif" font-size="14.00">s10</text>
</g>
<!-- s9&#45;&gt;s10 -->
<g id="edge12" class="edge">
<title>s9&#45;&gt;s10</title>
<path fill="none" stroke="black" d="M312.2,-48.21C328.87,-48.21 353.83,-48.21 374.19,-48.21"/>
<polygon fill="black" stroke="black" points="374.04,-51.71 384.04,-48.21 374.04,-44.71 374.04,-51.71"/>
<text text-anchor="middle" x="348.93" y="-51.41" font-family="Times,serif" font-size="14.00">b</text>
</g>
<!-- s10&#45;&gt;s1 -->
<g id="edge13" class="edge">
<title>s10&#45;&gt;s1</title>
<path fill="none" stroke="black" d="M430.57,-59.65C439.25,-64.88 449.43,-71.32 458.22,-77.71 462.79,-81.04 467.51,-84.78 471.98,-88.48"/>
<polygon fill="black" stroke="black" points="469.61,-91.06 479.49,-94.87 474.14,-85.72 469.61,-91.06"/>
<text text-anchor="middle" x="454.84" y="-80.91" font-family="Times,serif" font-size="14.00">λ</text>
</g>
</g>
</svg>
