<?xml version="1.0" encoding="UTF-8" standalone="no"?>
<!DOCTYPE svg PUBLIC "-//W3C//DTD SVG 1.1//EN"
 "http://www.w3.org/Graphics/SVG/1.1/DTD/svg11.dtd">
<!-- Generated by graphviz version 2.38.0 (20140413.2041)
 -->
<!-- Title: finite_state_machine Pages: 1 -->
<svg width="105pt" height="360pt"
 viewBox="0.00 0.00 104.90 360.00" xmlns="http://www.w3.org/2000/svg" xmlns:xlink="http://www.w3.org/1999/xlink">
<g id="graph0" class="graph" transform="scale(0.501393 0.501393) rotate(0) translate(4 714)">
<title>finite_state_machine</title>
<polygon fill="white" stroke="none" points="-4,4 -4,-714 205.214,-714 205.214,4 -4,4"/>
<!-- s1 -->
<g id="node1" class="node"><title>s1</title>
<ellipse fill="none" stroke="black" cx="179.214" cy="-372" rx="18" ry="18"/>
<ellipse fill="none" stroke="black" cx="179.214" cy="-372" rx="22" ry="22"/>
<text text-anchor="middle" x="179.214" y="-367.8" font-family="Times,serif" font-size="14.00">s1</text>
</g>
<!-- s0 -->
<g id="node2" class="node"><title>s0</title>
<ellipse fill="none" stroke="black" cx="18" cy="-372" rx="18" ry="18"/>
<text text-anchor="middle" x="18" y="-367.8" font-family="Times,serif" font-size="14.00">s0</text>
</g>
<!-- s0&#45;&gt;s1 -->
<g id="edge1" class="edge"><title>s0&#45;&gt;s1</title>
<path fill="none" stroke="black" d="M19.7635,-390.139C22.6119,-453.807 33.5204,-664.412 54,-686 61.5069,-693.913 67.3428,-689.108 78.2139,-690 105.292,-692.222 120.342,-705.546 139.214,-686 177.412,-646.437 179.716,-476.684 178.906,-404.59"/>
<polygon fill="black" stroke="black" points="182.402,-404.239 178.762,-394.29 175.403,-404.338 182.402,-404.239"/>
<text text-anchor="middle" x="96.2139" y="-698.8" font-family="Times,serif" font-size="14.00">λ</text>
</g>
<!-- s0&#45;&gt;s1 -->
<g id="edge2" class="edge"><title>s0&#45;&gt;s1</title>
<path fill="none" stroke="black" d="M18.7184,-390.356C18.2926,-444.338 20.0639,-600.963 54,-636 61.5888,-643.835 67.3428,-639.108 78.2139,-640 105.292,-642.222 120.118,-655.326 139.214,-636 170.997,-603.833 176.986,-467.22 178.038,-404.151"/>
<polygon fill="black" stroke="black" points="181.539,-404.024 178.175,-393.977 174.54,-403.929 181.539,-404.024"/>
<text text-anchor="middle" x="96.2139" y="-648.8" font-family="Times,serif" font-size="14.00">λ</text>
</g>
<!-- s0&#45;&gt;s1 -->
<g id="edge3" class="edge"><title>s0&#45;&gt;s1</title>
<path fill="none" stroke="black" d="M19.3486,-390.161C20.6349,-436.711 26.6033,-558.559 54,-586 61.7066,-593.719 67.3428,-589.108 78.2139,-590 105.292,-592.222 119.796,-605.003 139.214,-586 164.528,-561.227 173.684,-457.865 176.77,-404.381"/>
<polygon fill="black" stroke="black" points="180.282,-404.253 177.325,-394.08 173.292,-403.877 180.282,-404.253"/>
<text text-anchor="middle" x="96.2139" y="-598.8" font-family="Times,serif" font-size="14.00">λ</text>
</g>
<!-- s0&#45;&gt;s1 -->
<g id="edge4" class="edge"><title>s0&#45;&gt;s1</title>
<path fill="none" stroke="black" d="M20.3405,-390.085C23.5674,-428.436 33.0982,-516.049 54,-536 61.8902,-543.531 67.3428,-539.108 78.2139,-540 105.292,-542.222 119.297,-554.48 139.214,-536 158.2,-518.383 169.576,-446.728 174.788,-404.181"/>
<polygon fill="black" stroke="black" points="178.289,-404.383 175.982,-394.042 171.337,-403.564 178.289,-404.383"/>
<text text-anchor="middle" x="96.2139" y="-547.8" font-family="Times,serif" font-size="14.00">λ</text>
</g>
<!-- s0&#45;&gt;s1 -->
<g id="edge5" class="edge"><title>s0&#45;&gt;s1</title>
<path fill="none" stroke="black" d="M19.0215,-390.117C20.1032,-415.593 26.0976,-461.611 54,-486 62.2125,-493.178 67.3428,-489.108 78.2139,-490 105.292,-492.222 118.432,-503.501 139.214,-486 163.12,-465.868 172.406,-430.402 175.994,-404.36"/>
<polygon fill="black" stroke="black" points="179.497,-404.534 177.176,-394.197 172.544,-403.726 179.497,-404.534"/>
<text text-anchor="middle" x="96.2139" y="-497.8" font-family="Times,serif" font-size="14.00">λ</text>
</g>
<!-- s0&#45;&gt;s1 -->
<g id="edge6" class="edge"><title>s0&#45;&gt;s1</title>
<path fill="none" stroke="black" d="M23.7636,-389.299C28.7817,-404.118 38.1969,-424.789 54,-436 75.8749,-451.519 87.4775,-442.125 114.214,-440 125.431,-439.108 129.871,-442.271 139.214,-436 151.439,-427.795 160.477,-414.34 166.756,-401.878"/>
<polygon fill="black" stroke="black" points="170.005,-403.191 171.027,-392.646 163.652,-400.252 170.005,-403.191"/>
<text text-anchor="middle" x="96.2139" y="-446.8" font-family="Times,serif" font-size="14.00">λ</text>
</g>
<!-- s0&#45;&gt;s1 -->
<g id="edge7" class="edge"><title>s0&#45;&gt;s1</title>
<path fill="none" stroke="black" d="M34.7784,-379.156C40.7079,-381.619 47.5703,-384.206 54,-386 64.5062,-388.932 67.3428,-389.108 78.2139,-390 105.292,-392.222 112.9,-392.765 139.214,-386 142.419,-385.176 145.731,-384.196 149.009,-383.143"/>
<polygon fill="black" stroke="black" points="150.278,-386.408 158.596,-379.846 148.001,-379.788 150.278,-386.408"/>
<text text-anchor="middle" x="96.2139" y="-393.8" font-family="Times,serif" font-size="14.00">λ</text>
</g>
<!-- s0&#45;&gt;s1 -->
<g id="edge8" class="edge"><title>s0&#45;&gt;s1</title>
<path fill="none" stroke="black" d="M36.0387,-372C62.4597,-372 113.721,-372 146.931,-372"/>
<polygon fill="black" stroke="black" points="147.025,-375.5 157.025,-372 147.025,-368.5 147.025,-375.5"/>
<text text-anchor="middle" x="96.2139" y="-374.8" font-family="Times,serif" font-size="14.00">λ</text>
</g>
<!-- s0&#45;&gt;s1 -->
<g id="edge10" class="edge"><title>s0&#45;&gt;s1</title>
<path fill="none" stroke="black" d="M35.2906,-365.624C47.0205,-361.388 63.3348,-356.212 78.2139,-354 94.04,-351.648 98.364,-351.814 114.214,-354 125.651,-355.578 137.922,-358.671 148.629,-361.854"/>
<polygon fill="black" stroke="black" points="147.748,-365.246 158.337,-364.887 149.835,-358.564 147.748,-365.246"/>
<text text-anchor="middle" x="96.2139" y="-356.8" font-family="Times,serif" font-size="14.00">λ</text>
</g>
<!-- s0&#45;&gt;s1 -->
<g id="edge11" class="edge"><title>s0&#45;&gt;s1</title>
<path fill="none" stroke="black" d="M32.0059,-360.502C43.3243,-351.316 60.6319,-339.156 78.2139,-334 93.5672,-329.497 98.7846,-329.765 114.214,-334 127.98,-337.779 141.782,-345.372 153.027,-352.784"/>
<polygon fill="black" stroke="black" points="151.232,-355.799 161.447,-358.614 155.217,-350.044 151.232,-355.799"/>
<text text-anchor="middle" x="96.2139" y="-336.8" font-family="Times,serif" font-size="14.00">λ</text>
</g>
<!-- s0&#45;&gt;s1 -->
<g id="edge12" class="edge"><title>s0&#45;&gt;s1</title>
<path fill="none" stroke="black" d="M28.4299,-357.099C38.6588,-342.477 56.4746,-321.089 78.2139,-312 92.9757,-305.828 99.335,-306.116 114.214,-312 132.042,-319.05 147.811,-333.673 159.236,-346.718"/>
<polygon fill="black" stroke="black" points="156.676,-349.113 165.767,-354.554 162.053,-344.631 156.676,-349.113"/>
<text text-anchor="middle" x="96.2139" y="-314.8" font-family="Times,serif" font-size="14.00">λ</text>
</g>
<!-- s0&#45;&gt;s1 -->
<g id="edge13" class="edge"><title>s0&#45;&gt;s1</title>
<path fill="none" stroke="black" d="M25.0697,-355.296C33.4571,-335.084 50.7447,-302.129 78.2139,-289 92.6497,-282.1 99.6682,-282.335 114.214,-289 137.386,-299.618 154.361,-323.467 164.984,-342.888"/>
<polygon fill="black" stroke="black" points="161.987,-344.712 169.687,-351.989 168.205,-341.498 161.987,-344.712"/>
<text text-anchor="middle" x="96.2139" y="-291.8" font-family="Times,serif" font-size="14.00">λ</text>
</g>
<!-- s0&#45;&gt;s1 -->
<g id="edge14" class="edge"><title>s0&#45;&gt;s1</title>
<path fill="none" stroke="black" d="M22.4094,-354.236C28.4523,-328.515 43.8058,-282.112 78.2139,-265 92.5399,-257.875 99.7795,-258.097 114.214,-265 144.038,-279.262 161.055,-314.59 169.932,-340.773"/>
<polygon fill="black" stroke="black" points="166.7,-342.162 173.047,-350.645 173.376,-340.055 166.7,-342.162"/>
<text text-anchor="middle" x="96.2139" y="-267.8" font-family="Times,serif" font-size="14.00">λ</text>
</g>
<!-- s0&#45;&gt;s1 -->
<g id="edge15" class="edge"><title>s0&#45;&gt;s1</title>
<path fill="none" stroke="black" d="M20.3977,-354.158C23.9123,-323.561 36.1334,-262.317 78.2139,-241 92.487,-233.77 99.8332,-233.986 114.214,-241 151.473,-259.173 167.253,-307.709 173.787,-340.321"/>
<polygon fill="black" stroke="black" points="170.367,-341.078 175.599,-350.291 177.254,-339.826 170.367,-341.078"/>
<text text-anchor="middle" x="96.2139" y="-243.8" font-family="Times,serif" font-size="14.00">λ</text>
</g>
<!-- s2 -->
<g id="node3" class="node"><title>s2</title>
<ellipse fill="none" stroke="black" cx="96.2139" cy="-18" rx="18" ry="18"/>
<text text-anchor="middle" x="96.2139" y="-13.8" font-family="Times,serif" font-size="14.00">s2</text>
</g>
<!-- s0&#45;&gt;s2 -->
<g id="edge9" class="edge"><title>s0&#45;&gt;s2</title>
<path fill="none" stroke="black" d="M18.9009,-353.902C18.8744,-292.999 21.3717,-96.3739 54,-44 57.8471,-37.8247 63.7606,-32.8642 69.918,-28.9993"/>
<polygon fill="black" stroke="black" points="71.7934,-31.9633 78.9014,-24.1067 68.4453,-25.8159 71.7934,-31.9633"/>
<text text-anchor="middle" x="57.1069" y="-46.8" font-family="Times,serif" font-size="14.00">a</text>
</g>
<!-- s2&#45;&gt;s1 -->
<g id="edge16" class="edge"><title>s2&#45;&gt;s1</title>
<path fill="none" stroke="black" d="M113.367,-23.8629C122.485,-28.0408 133.222,-34.5986 139.214,-44 170.142,-92.5276 176.546,-266.56 177.87,-339.487"/>
<polygon fill="black" stroke="black" points="174.377,-339.945 178.036,-349.888 181.376,-339.833 174.377,-339.945"/>
<text text-anchor="middle" x="135.714" y="-46.8" font-family="Times,serif" font-size="14.00">λ</text>
</g>
</g>
</svg>
