<?xml version="1.0" encoding="UTF-8" standalone="no"?>
<!DOCTYPE svg PUBLIC "-//W3C//DTD SVG 1.1//EN"
 "http://www.w3.org/Graphics/SVG/1.1/DTD/svg11.dtd">
<!-- Generated by graphviz version 12.2.1 (20241206.2353)
 -->
<!-- Title: finite_state_machine Pages: 1 -->
<svg width="252pt" height="360pt"
 viewBox="0.00 0.00 251.50 360.00" xmlns="http://www.w3.org/2000/svg" xmlns:xlink="http://www.w3.org/1999/xlink">
<g id="graph0" class="graph" transform="scale(0.74639 0.74639) rotate(0) translate(4 478.32)">
<title>finite_state_machine</title>
<polygon fill="white" stroke="none" points="-4,4 -4,-478.32 332.96,-478.32 332.96,4 -4,4"/>
<text text-anchor="middle" x="164.48" y="-7.2" font-family="Times,serif" font-size="14.00">Regular Expression: xyzzy401</text>
<!-- s14 -->
<g id="node1" class="node">
<title>s14</title>
<ellipse fill="none" stroke="black" cx="211.07" cy="-446.61" rx="23.71" ry="23.71"/>
<ellipse fill="none" stroke="black" cx="211.07" cy="-446.61" rx="27.71" ry="27.71"/>
<text text-anchor="middle" x="211.07" y="-441.56" font-family="Times,serif" font-size="14.00">s14</text>
</g>
<!-- s0 -->
<g id="node2" class="node">
<title>s0</title>
<ellipse fill="none" stroke="black" cx="23.71" cy="-43.61" rx="19.11" ry="19.11"/>
<text text-anchor="middle" x="23.71" y="-38.56" font-family="Times,serif" font-size="14.00">s0</text>
</g>
<!-- s1 -->
<g id="node3" class="node">
<title>s1</title>
<ellipse fill="none" stroke="black" cx="113.89" cy="-96.61" rx="19.11" ry="19.11"/>
<text text-anchor="middle" x="113.89" y="-91.56" font-family="Times,serif" font-size="14.00">s1</text>
</g>
<!-- s0&#45;&gt;s1 -->
<g id="edge1" class="edge">
<title>s0&#45;&gt;s1</title>
<path fill="none" stroke="black" d="M40.48,-53.08C53.44,-60.87 72.06,-72.07 87.18,-81.15"/>
<polygon fill="black" stroke="black" points="85.29,-84.1 95.67,-86.26 88.9,-78.1 85.29,-84.1"/>
<text text-anchor="middle" x="68.8" y="-74.9" font-family="Times,serif" font-size="14.00">a</text>
</g>
<!-- s2 -->
<g id="node4" class="node">
<title>s2</title>
<ellipse fill="none" stroke="black" cx="211.07" cy="-108.61" rx="19.11" ry="19.11"/>
<text text-anchor="middle" x="211.07" y="-103.56" font-family="Times,serif" font-size="14.00">s2</text>
</g>
<!-- s1&#45;&gt;s2 -->
<g id="edge2" class="edge">
<title>s1&#45;&gt;s2</title>
<path fill="none" stroke="black" d="M133.24,-98.92C146.67,-100.61 165.18,-102.95 180.66,-104.9"/>
<polygon fill="black" stroke="black" points="179.91,-108.33 190.27,-106.11 180.79,-101.39 179.91,-108.33"/>
<text text-anchor="middle" x="160.48" y="-106.17" font-family="Times,serif" font-size="14.00">b</text>
</g>
<!-- s4 -->
<g id="node5" class="node">
<title>s4</title>
<ellipse fill="none" stroke="black" cx="23.71" cy="-139.61" rx="19.11" ry="19.11"/>
<text text-anchor="middle" x="23.71" y="-134.56" font-family="Times,serif" font-size="14.00">s4</text>
</g>
<!-- s1&#45;&gt;s4 -->
<g id="edge3" class="edge">
<title>s1&#45;&gt;s4</title>
<path fill="none" stroke="black" d="M96.08,-104.81C83.42,-110.98 65.8,-119.57 51.25,-126.67"/>
<polygon fill="black" stroke="black" points="50.11,-123.33 42.66,-130.86 53.18,-129.62 50.11,-123.33"/>
<text text-anchor="middle" x="68.8" y="-122.6" font-family="Times,serif" font-size="14.00">λ</text>
</g>
<!-- s3 -->
<g id="node6" class="node">
<title>s3</title>
<ellipse fill="none" stroke="black" cx="305.25" cy="-136.61" rx="19.11" ry="19.11"/>
<text text-anchor="middle" x="305.25" y="-131.56" font-family="Times,serif" font-size="14.00">s3</text>
</g>
<!-- s2&#45;&gt;s3 -->
<g id="edge4" class="edge">
<title>s2&#45;&gt;s3</title>
<path fill="none" stroke="black" d="M229.84,-114.01C242.85,-117.96 260.77,-123.4 275.76,-127.96"/>
<polygon fill="black" stroke="black" points="274.49,-131.23 285.08,-130.79 276.53,-124.53 274.49,-131.23"/>
<text text-anchor="middle" x="260.16" y="-126.65" font-family="Times,serif" font-size="14.00">c</text>
</g>
<!-- s4&#45;&gt;s1 -->
<g id="edge6" class="edge">
<title>s4&#45;&gt;s1</title>
<path fill="none" stroke="black" d="M34.66,-123.58C41.84,-113.63 52.52,-101.71 65.43,-96.11 70.96,-93.71 77.2,-92.72 83.3,-92.54"/>
<polygon fill="black" stroke="black" points="82.97,-96.03 93.11,-92.94 83.26,-89.03 82.97,-96.03"/>
<text text-anchor="middle" x="68.8" y="-99.31" font-family="Times,serif" font-size="14.00">λ</text>
</g>
<!-- s5 -->
<g id="node7" class="node">
<title>s5</title>
<ellipse fill="none" stroke="black" cx="113.89" cy="-213.61" rx="19.11" ry="19.11"/>
<text text-anchor="middle" x="113.89" y="-208.56" font-family="Times,serif" font-size="14.00">s5</text>
</g>
<!-- s4&#45;&gt;s5 -->
<g id="edge7" class="edge">
<title>s4&#45;&gt;s5</title>
<path fill="none" stroke="black" d="M38.88,-151.5C52.76,-163.15 74.14,-181.09 90.36,-194.7"/>
<polygon fill="black" stroke="black" points="87.69,-197.03 97.6,-200.77 92.19,-191.67 87.69,-197.03"/>
<text text-anchor="middle" x="68.8" y="-182.03" font-family="Times,serif" font-size="14.00">τ</text>
</g>
<!-- s3&#45;&gt;s4 -->
<g id="edge5" class="edge">
<title>s3&#45;&gt;s4</title>
<path fill="none" stroke="black" d="M286.05,-139.32C279.03,-140.25 270.93,-141.16 263.53,-141.61 260.54,-141.79 259.78,-141.62 256.78,-141.61 184.05,-141.29 98.49,-140.43 54.37,-139.94"/>
<polygon fill="black" stroke="black" points="54.62,-136.45 44.58,-139.84 54.54,-143.45 54.62,-136.45"/>
<text text-anchor="middle" x="160.48" y="-144.2" font-family="Times,serif" font-size="14.00">d</text>
</g>
<!-- s6 -->
<g id="node8" class="node">
<title>s6</title>
<ellipse fill="none" stroke="black" cx="211.07" cy="-213.61" rx="19.11" ry="19.11"/>
<text text-anchor="middle" x="211.07" y="-208.56" font-family="Times,serif" font-size="14.00">s6</text>
</g>
<!-- s5&#45;&gt;s6 -->
<g id="edge8" class="edge">
<title>s5&#45;&gt;s6</title>
<path fill="none" stroke="black" d="M133.24,-213.61C146.67,-213.61 165.18,-213.61 180.66,-213.61"/>
<polygon fill="black" stroke="black" points="180.26,-217.11 190.26,-213.61 180.26,-210.11 180.26,-217.11"/>
<text text-anchor="middle" x="160.48" y="-216.81" font-family="Times,serif" font-size="14.00">g</text>
</g>
<!-- s7 -->
<g id="node9" class="node">
<title>s7</title>
<ellipse fill="none" stroke="black" cx="305.25" cy="-240.61" rx="19.11" ry="19.11"/>
<text text-anchor="middle" x="305.25" y="-235.56" font-family="Times,serif" font-size="14.00">s7</text>
</g>
<!-- s6&#45;&gt;s7 -->
<g id="edge9" class="edge">
<title>s6&#45;&gt;s7</title>
<path fill="none" stroke="black" d="M229.84,-218.81C242.85,-222.62 260.77,-227.87 275.76,-232.26"/>
<polygon fill="black" stroke="black" points="274.5,-235.54 285.08,-234.99 276.46,-228.82 274.5,-235.54"/>
<text text-anchor="middle" x="260.16" y="-231.12" font-family="Times,serif" font-size="14.00">h</text>
</g>
<!-- s8 -->
<g id="node10" class="node">
<title>s8</title>
<ellipse fill="none" stroke="black" cx="23.71" cy="-260.61" rx="19.11" ry="19.11"/>
<text text-anchor="middle" x="23.71" y="-255.56" font-family="Times,serif" font-size="14.00">s8</text>
</g>
<!-- s7&#45;&gt;s8 -->
<g id="edge10" class="edge">
<title>s7&#45;&gt;s8</title>
<path fill="none" stroke="black" d="M286.05,-243.64C279.03,-244.71 270.92,-245.85 263.53,-246.61 188.41,-254.33 99.52,-258.15 54.32,-259.71"/>
<polygon fill="black" stroke="black" points="54.43,-256.2 44.55,-260.03 54.66,-263.2 54.43,-256.2"/>
<text text-anchor="middle" x="160.48" y="-258.08" font-family="Times,serif" font-size="14.00">i</text>
</g>
<!-- s8&#45;&gt;s5 -->
<g id="edge11" class="edge">
<title>s8&#45;&gt;s5</title>
<path fill="none" stroke="black" d="M38.68,-248.44C46.22,-242.33 55.91,-235.17 65.43,-230.11 71.45,-226.91 78.22,-224.12 84.71,-221.8"/>
<polygon fill="black" stroke="black" points="85.38,-225.26 93.78,-218.8 83.19,-218.62 85.38,-225.26"/>
<text text-anchor="middle" x="68.8" y="-233.31" font-family="Times,serif" font-size="14.00">λ</text>
</g>
<!-- s9 -->
<g id="node11" class="node">
<title>s9</title>
<ellipse fill="none" stroke="black" cx="113.89" cy="-374.61" rx="19.11" ry="19.11"/>
<text text-anchor="middle" x="113.89" y="-369.56" font-family="Times,serif" font-size="14.00">s9</text>
</g>
<!-- s8&#45;&gt;s9 -->
<g id="edge12" class="edge">
<title>s8&#45;&gt;s9</title>
<path fill="none" stroke="black" d="M36.24,-275.51C51.03,-294.63 76.86,-328.02 94.4,-350.71"/>
<polygon fill="black" stroke="black" points="91.55,-352.73 100.43,-358.5 97.09,-348.45 91.55,-352.73"/>
<text text-anchor="middle" x="68.8" y="-324.23" font-family="Times,serif" font-size="14.00">τ</text>
</g>
<!-- s10 -->
<g id="node12" class="node">
<title>s10</title>
<ellipse fill="none" stroke="black" cx="211.07" cy="-377.61" rx="23.71" ry="23.71"/>
<text text-anchor="middle" x="211.07" y="-372.56" font-family="Times,serif" font-size="14.00">s10</text>
</g>
<!-- s9&#45;&gt;s10 -->
<g id="edge13" class="edge">
<title>s9&#45;&gt;s10</title>
<path fill="none" stroke="black" d="M133.24,-375.19C145.23,-375.56 161.25,-376.07 175.57,-376.52"/>
<polygon fill="black" stroke="black" points="175.44,-380.02 185.55,-376.83 175.66,-373.02 175.44,-380.02"/>
<text text-anchor="middle" x="160.48" y="-379.4" font-family="Times,serif" font-size="14.00">j</text>
</g>
<!-- s12 -->
<g id="node13" class="node">
<title>s12</title>
<ellipse fill="none" stroke="black" cx="23.71" cy="-382.61" rx="23.71" ry="23.71"/>
<text text-anchor="middle" x="23.71" y="-377.56" font-family="Times,serif" font-size="14.00">s12</text>
</g>
<!-- s9&#45;&gt;s12 -->
<g id="edge14" class="edge">
<title>s9&#45;&gt;s12</title>
<path fill="none" stroke="black" d="M95.76,-367.2C86.74,-364.21 75.49,-361.93 65.43,-364.11 62.05,-364.84 58.61,-365.88 55.24,-367.09"/>
<polygon fill="black" stroke="black" points="54.12,-363.76 46.23,-370.84 56.81,-370.23 54.12,-363.76"/>
<text text-anchor="middle" x="68.8" y="-367.31" font-family="Times,serif" font-size="14.00">λ</text>
</g>
<!-- s11 -->
<g id="node14" class="node">
<title>s11</title>
<ellipse fill="none" stroke="black" cx="305.25" cy="-346.61" rx="23.71" ry="23.71"/>
<text text-anchor="middle" x="305.25" y="-341.56" font-family="Times,serif" font-size="14.00">s11</text>
</g>
<!-- s10&#45;&gt;s11 -->
<g id="edge15" class="edge">
<title>s10&#45;&gt;s11</title>
<path fill="none" stroke="black" d="M233.91,-370.26C245.08,-366.5 258.91,-361.86 271.33,-357.68"/>
<polygon fill="black" stroke="black" points="272.44,-361 280.8,-354.49 270.21,-354.36 272.44,-361"/>
<text text-anchor="middle" x="260.16" y="-365.31" font-family="Times,serif" font-size="14.00">k</text>
</g>
<!-- s12&#45;&gt;s9 -->
<g id="edge17" class="edge">
<title>s12&#45;&gt;s9</title>
<path fill="none" stroke="black" d="M47.92,-382.11C55.65,-381.82 64.3,-381.35 72.18,-380.61 75.88,-380.26 79.75,-379.8 83.58,-379.3"/>
<polygon fill="black" stroke="black" points="83.8,-382.8 93.2,-377.92 82.81,-375.88 83.8,-382.8"/>
<text text-anchor="middle" x="68.8" y="-384.35" font-family="Times,serif" font-size="14.00">λ</text>
</g>
<!-- s13 -->
<g id="node15" class="node">
<title>s13</title>
<ellipse fill="none" stroke="black" cx="113.89" cy="-444.61" rx="23.71" ry="23.71"/>
<text text-anchor="middle" x="113.89" y="-439.56" font-family="Times,serif" font-size="14.00">s13</text>
</g>
<!-- s12&#45;&gt;s13 -->
<g id="edge18" class="edge">
<title>s12&#45;&gt;s13</title>
<path fill="none" stroke="black" d="M43.41,-395.76C55.37,-404.17 71.12,-415.23 84.59,-424.71"/>
<polygon fill="black" stroke="black" points="82.48,-427.5 92.68,-430.39 86.51,-421.78 82.48,-427.5"/>
<text text-anchor="middle" x="68.8" y="-418.67" font-family="Times,serif" font-size="14.00">τ</text>
</g>
<!-- s11&#45;&gt;s12 -->
<g id="edge16" class="edge">
<title>s11&#45;&gt;s12</title>
<path fill="none" stroke="black" d="M281.59,-342.96C242.01,-337.38 158.01,-329.1 90.18,-346.61 77.2,-349.96 64.03,-356.47 52.94,-363.05"/>
<polygon fill="black" stroke="black" points="51.3,-359.94 44.68,-368.21 55.02,-365.87 51.3,-359.94"/>
<text text-anchor="middle" x="160.48" y="-340.07" font-family="Times,serif" font-size="14.00">l</text>
</g>
<!-- s13&#45;&gt;s14 -->
<g id="edge19" class="edge">
<title>s13&#45;&gt;s14</title>
<path fill="none" stroke="black" d="M137.93,-445.09C148.16,-445.31 160.48,-445.57 172.02,-445.81"/>
<polygon fill="black" stroke="black" points="171.61,-449.3 181.68,-446.01 171.75,-442.3 171.61,-449.3"/>
<text text-anchor="middle" x="160.48" y="-448.87" font-family="Times,serif" font-size="14.00">X</text>
</g>
</g>
</svg>
