<?xml version="1.0" encoding="UTF-8" standalone="no"?>
<!DOCTYPE svg PUBLIC "-//W3C//DTD SVG 1.1//EN"
 "http://www.w3.org/Graphics/SVG/1.1/DTD/svg11.dtd">
<!-- Generated by graphviz version 2.38.0 (20140413.2041)
 -->
<!-- Title: finite_state_machine Pages: 1 -->
<svg width="425pt" height="143pt"
 viewBox="0.00 0.00 425.21 143.00" xmlns="http://www.w3.org/2000/svg" xmlns:xlink="http://www.w3.org/1999/xlink">
<g id="graph0" class="graph" transform="scale(1 1) rotate(0) translate(4 139)">
<title>finite_state_machine</title>
<polygon fill="white" stroke="none" points="-4,4 -4,-139 421.214,-139 421.214,4 -4,4"/>
<!-- s1 -->
<g id="node1" class="node"><title>s1</title>
<ellipse fill="none" stroke="black" cx="395.214" cy="-72" rx="18" ry="18"/>
<ellipse fill="none" stroke="black" cx="395.214" cy="-72" rx="22" ry="22"/>
<text text-anchor="middle" x="395.214" y="-67.8" font-family="Times,serif" font-size="14.00">s1</text>
</g>
<!-- s0 -->
<g id="node2" class="node"><title>s0</title>
<ellipse fill="none" stroke="black" cx="18" cy="-72" rx="18" ry="18"/>
<text text-anchor="middle" x="18" y="-67.8" font-family="Times,serif" font-size="14.00">s0</text>
</g>
<!-- s2 -->
<g id="node3" class="node"><title>s2</title>
<ellipse fill="none" stroke="black" cx="150.214" cy="-117" rx="18" ry="18"/>
<text text-anchor="middle" x="150.214" y="-112.8" font-family="Times,serif" font-size="14.00">s2</text>
</g>
<!-- s0&#45;&gt;s2 -->
<g id="edge1" class="edge"><title>s0&#45;&gt;s2</title>
<path fill="none" stroke="black" d="M34.1419,-80.2867C40.2336,-83.4884 47.3732,-87.0769 54,-90 76.1511,-99.7711 102.763,-106.966 122.215,-111.46"/>
<polygon fill="black" stroke="black" points="121.69,-114.928 132.211,-113.678 123.206,-108.095 121.69,-114.928"/>
<text text-anchor="middle" x="57.1069" y="-94.8" font-family="Times,serif" font-size="14.00">a</text>
</g>
<!-- s3 -->
<g id="node4" class="node"><title>s3</title>
<ellipse fill="none" stroke="black" cx="96.2139" cy="-72" rx="18" ry="18"/>
<text text-anchor="middle" x="96.2139" y="-67.8" font-family="Times,serif" font-size="14.00">s3</text>
</g>
<!-- s0&#45;&gt;s3 -->
<g id="edge2" class="edge"><title>s0&#45;&gt;s3</title>
<path fill="none" stroke="black" d="M36.2941,-72C45.6488,-72 57.4172,-72 67.9721,-72"/>
<polygon fill="black" stroke="black" points="67.9882,-75.5001 77.9882,-72 67.9882,-68.5001 67.9882,-75.5001"/>
<text text-anchor="middle" x="57.1069" y="-74.8" font-family="Times,serif" font-size="14.00">a</text>
</g>
<!-- s5 -->
<g id="node5" class="node"><title>s5</title>
<ellipse fill="none" stroke="black" cx="96.2139" cy="-18" rx="18" ry="18"/>
<text text-anchor="middle" x="96.2139" y="-13.8" font-family="Times,serif" font-size="14.00">s5</text>
</g>
<!-- s0&#45;&gt;s5 -->
<g id="edge3" class="edge"><title>s0&#45;&gt;s5</title>
<path fill="none" stroke="black" d="M33.3352,-61.843C44.4062,-53.9989 59.9342,-42.9968 72.6652,-33.9765"/>
<polygon fill="black" stroke="black" points="74.8069,-36.7486 80.9429,-28.1114 70.76,-31.0369 74.8069,-36.7486"/>
<text text-anchor="middle" x="57.1069" y="-48.8" font-family="Times,serif" font-size="14.00">a</text>
</g>
<!-- s2&#45;&gt;s1 -->
<g id="edge4" class="edge"><title>s2&#45;&gt;s1</title>
<path fill="none" stroke="black" d="M168.373,-115.571C203.757,-112.367 287.212,-103.483 355.214,-86 358.419,-85.176 361.731,-84.1961 365.009,-83.1429"/>
<polygon fill="black" stroke="black" points="366.278,-86.4079 374.596,-79.8462 364.001,-79.7883 366.278,-86.4079"/>
<text text-anchor="middle" x="258.214" y="-109.8" font-family="Times,serif" font-size="14.00">λ</text>
</g>
<!-- s4 -->
<g id="node6" class="node"><title>s4</title>
<ellipse fill="none" stroke="black" cx="258.214" cy="-72" rx="18" ry="18"/>
<text text-anchor="middle" x="258.214" y="-67.8" font-family="Times,serif" font-size="14.00">s4</text>
</g>
<!-- s3&#45;&gt;s4 -->
<g id="edge5" class="edge"><title>s3&#45;&gt;s4</title>
<path fill="none" stroke="black" d="M114.337,-72C141.86,-72 196.206,-72 229.365,-72"/>
<polygon fill="black" stroke="black" points="229.729,-75.5001 239.729,-72 229.729,-68.5001 229.729,-75.5001"/>
<text text-anchor="middle" x="150.214" y="-74.8" font-family="Times,serif" font-size="14.00">a</text>
</g>
<!-- s6 -->
<g id="node7" class="node"><title>s6</title>
<ellipse fill="none" stroke="black" cx="204.214" cy="-18" rx="18" ry="18"/>
<text text-anchor="middle" x="204.214" y="-13.8" font-family="Times,serif" font-size="14.00">s6</text>
</g>
<!-- s5&#45;&gt;s6 -->
<g id="edge7" class="edge"><title>s5&#45;&gt;s6</title>
<path fill="none" stroke="black" d="M114.245,-18C130.836,-18 156.331,-18 175.783,-18"/>
<polygon fill="black" stroke="black" points="175.873,-21.5001 185.873,-18 175.873,-14.5001 175.873,-21.5001"/>
<text text-anchor="middle" x="150.214" y="-20.8" font-family="Times,serif" font-size="14.00">a</text>
</g>
<!-- s4&#45;&gt;s1 -->
<g id="edge6" class="edge"><title>s4&#45;&gt;s1</title>
<path fill="none" stroke="black" d="M276.312,-72C297.984,-72 335.761,-72 362.713,-72"/>
<polygon fill="black" stroke="black" points="362.811,-75.5001 372.811,-72 362.811,-68.5001 362.811,-75.5001"/>
<text text-anchor="middle" x="312.214" y="-74.8" font-family="Times,serif" font-size="14.00">λ</text>
</g>
<!-- s7 -->
<g id="node8" class="node"><title>s7</title>
<ellipse fill="none" stroke="black" cx="312.214" cy="-18" rx="18" ry="18"/>
<text text-anchor="middle" x="312.214" y="-13.8" font-family="Times,serif" font-size="14.00">s7</text>
</g>
<!-- s6&#45;&gt;s7 -->
<g id="edge8" class="edge"><title>s6&#45;&gt;s7</title>
<path fill="none" stroke="black" d="M222.245,-18C238.836,-18 264.331,-18 283.783,-18"/>
<polygon fill="black" stroke="black" points="283.873,-21.5001 293.873,-18 283.873,-14.5001 283.873,-21.5001"/>
<text text-anchor="middle" x="258.214" y="-20.8" font-family="Times,serif" font-size="14.00">a</text>
</g>
<!-- s7&#45;&gt;s1 -->
<g id="edge9" class="edge"><title>s7&#45;&gt;s1</title>
<path fill="none" stroke="black" d="M328.143,-26.9009C336.238,-31.8125 346.369,-38.097 355.214,-44 359.608,-46.9323 364.216,-50.1287 368.664,-53.2788"/>
<polygon fill="black" stroke="black" points="366.753,-56.2156 376.92,-59.1978 370.832,-50.5266 366.753,-56.2156"/>
<text text-anchor="middle" x="351.714" y="-46.8" font-family="Times,serif" font-size="14.00">λ</text>
</g>
</g>
</svg>
