<?xml version="1.0" encoding="UTF-8" standalone="no"?>
<!DOCTYPE svg PUBLIC "-//W3C//DTD SVG 1.1//EN"
 "http://www.w3.org/Graphics/SVG/1.1/DTD/svg11.dtd">
<!-- Generated by graphviz version 12.2.1 (20241206.2353)
 -->
<!-- Title: finite_state_machine Pages: 1 -->
<svg width="135pt" height="169pt"
 viewBox="0.00 0.00 135.18 169.28" xmlns="http://www.w3.org/2000/svg" xmlns:xlink="http://www.w3.org/1999/xlink">
<g id="graph0" class="graph" transform="scale(1 1) rotate(0) translate(4 165.28)">
<title>finite_state_machine</title>
<polygon fill="white" stroke="none" points="-4,4 -4,-165.28 131.18,-165.28 131.18,4 -4,4"/>
<!-- s2 -->
<g id="node1" class="node">
<title>s2</title>
<ellipse fill="none" stroke="black" cx="104.07" cy="-23.11" rx="19.11" ry="19.11"/>
<ellipse fill="none" stroke="black" cx="104.07" cy="-23.11" rx="23.11" ry="23.11"/>
<text text-anchor="middle" x="104.07" y="-18.06" font-family="Times,serif" font-size="14.00">s2</text>
</g>
<!-- s0 -->
<g id="node2" class="node">
<title>s0</title>
<ellipse fill="none" stroke="black" cx="104.07" cy="-123.11" rx="19.11" ry="19.11"/>
<text text-anchor="middle" x="104.07" y="-118.06" font-family="Times,serif" font-size="14.00">s0</text>
</g>
<!-- s1 -->
<g id="node3" class="node">
<title>s1</title>
<ellipse fill="none" stroke="black" cx="19.11" cy="-103.11" rx="19.11" ry="19.11"/>
<text text-anchor="middle" x="19.11" y="-98.06" font-family="Times,serif" font-size="14.00">s1</text>
</g>
<!-- s0&#45;&gt;s1 -->
<g id="edge1" class="edge">
<title>s0&#45;&gt;s1</title>
<path fill="none" stroke="black" d="M84.56,-124.08C75.84,-124.1 65.36,-123.47 56.22,-121.11 52.97,-120.27 49.68,-119.12 46.47,-117.8"/>
<polygon fill="black" stroke="black" points="47.98,-114.64 37.44,-113.52 44.98,-120.97 47.98,-114.64"/>
<text text-anchor="middle" x="59.59" y="-125.63" font-family="Times,serif" font-size="14.00">0</text>
</g>
<!-- s0&#45;&gt;s1 -->
<g id="edge2" class="edge">
<title>s0&#45;&gt;s1</title>
<path fill="none" stroke="black" d="M87.87,-112.14C80.69,-107.62 71.77,-102.91 62.97,-100.61 58.75,-99.51 54.23,-99.04 49.76,-98.97"/>
<polygon fill="black" stroke="black" points="49.6,-95.47 39.8,-99.49 49.97,-102.46 49.6,-95.47"/>
<text text-anchor="middle" x="59.59" y="-103.81" font-family="Times,serif" font-size="14.00">1</text>
</g>
<!-- s0&#45;&gt;s1 -->
<g id="edge3" class="edge">
<title>s0&#45;&gt;s1</title>
<path fill="none" stroke="black" d="M93.42,-106.73C86.4,-96.56 75.89,-84.36 62.97,-78.61 55.64,-75.35 47.95,-77.74 41.14,-82.09"/>
<polygon fill="black" stroke="black" points="39.39,-79.01 33.7,-87.94 43.72,-84.51 39.39,-79.01"/>
<text text-anchor="middle" x="59.59" y="-81.81" font-family="Times,serif" font-size="14.00">λ</text>
</g>
<!-- s1&#45;&gt;s2 -->
<g id="edge5" class="edge">
<title>s1&#45;&gt;s2</title>
<path fill="none" stroke="black" d="M30.47,-87.53C37.19,-78.03 46.49,-65.96 56.22,-56.61 61.83,-51.21 68.37,-45.99 74.76,-41.34"/>
<polygon fill="black" stroke="black" points="76.42,-44.45 82.62,-35.86 72.42,-38.71 76.42,-44.45"/>
<text text-anchor="middle" x="59.59" y="-59.81" font-family="Times,serif" font-size="14.00">τ</text>
</g>
<!-- s1&#45;&gt;s0 -->
<g id="edge4" class="edge">
<title>s1&#45;&gt;s0</title>
<path fill="none" stroke="black" d="M29.66,-119.05C35.96,-127.93 45.1,-138.17 56.22,-143.11 63.69,-146.43 71.87,-144.74 79.28,-141.23"/>
<polygon fill="black" stroke="black" points="80.99,-144.29 87.78,-136.17 77.4,-138.28 80.99,-144.29"/>
<text text-anchor="middle" x="59.59" y="-147.98" font-family="Times,serif" font-size="14.00">λ</text>
</g>
</g>
</svg>
