<?xml version="1.0" encoding="UTF-8" standalone="no"?>
<!DOCTYPE svg PUBLIC "-//W3C//DTD SVG 1.1//EN"
 "http://www.w3.org/Graphics/SVG/1.1/DTD/svg11.dtd">
<!-- Generated by graphviz version 12.2.1 (20241206.2353)
 -->
<!-- Title: finite_state_machine Pages: 1 -->
<svg width="276pt" height="360pt"
 viewBox="0.00 0.00 276.47 360.00" xmlns="http://www.w3.org/2000/svg" xmlns:xlink="http://www.w3.org/1999/xlink">
<g id="graph0" class="graph" transform="scale(0.885795 0.885795) rotate(0) translate(4 402.41)">
<title>finite_state_machine</title>
<polygon fill="white" stroke="none" points="-4,4 -4,-402.41 308.11,-402.41 308.11,4 -4,4"/>
<text text-anchor="middle" x="152.06" y="-7.2" font-family="Times,serif" font-size="14.00">Regular Expression: a[a&#45;zA&#45;Z_][a&#45;zA&#45;Z_0&#45;9]*d</text>
<!-- s5 -->
<g id="node1" class="node">
<title>s5</title>
<ellipse fill="none" stroke="black" cx="281" cy="-375.31" rx="19.11" ry="19.11"/>
<ellipse fill="none" stroke="black" cx="281" cy="-375.31" rx="23.11" ry="23.11"/>
<text text-anchor="middle" x="281" y="-370.26" font-family="Times,serif" font-size="14.00">s5</text>
</g>
<!-- s0 -->
<g id="node2" class="node">
<title>s0</title>
<ellipse fill="none" stroke="black" cx="19.11" cy="-55.31" rx="19.11" ry="19.11"/>
<text text-anchor="middle" x="19.11" y="-50.26" font-family="Times,serif" font-size="14.00">s0</text>
</g>
<!-- s1 -->
<g id="node3" class="node">
<title>s1</title>
<ellipse fill="none" stroke="black" cx="99.32" cy="-55.31" rx="19.11" ry="19.11"/>
<text text-anchor="middle" x="99.32" y="-50.26" font-family="Times,serif" font-size="14.00">s1</text>
</g>
<!-- s0&#45;&gt;s1 -->
<g id="edge1" class="edge">
<title>s0&#45;&gt;s1</title>
<path fill="none" stroke="black" d="M38.64,-55.31C47.6,-55.31 58.58,-55.31 68.67,-55.31"/>
<polygon fill="black" stroke="black" points="68.41,-58.81 78.41,-55.31 68.41,-51.81 68.41,-58.81"/>
<text text-anchor="middle" x="59.22" y="-58.51" font-family="Times,serif" font-size="14.00">a</text>
</g>
<!-- s2 -->
<g id="node4" class="node">
<title>s2</title>
<ellipse fill="none" stroke="black" cx="196.04" cy="-175.31" rx="19.11" ry="19.11"/>
<text text-anchor="middle" x="196.04" y="-170.26" font-family="Times,serif" font-size="14.00">s2</text>
</g>
<!-- s1&#45;&gt;s2 -->
<g id="edge2" class="edge">
<title>s1&#45;&gt;s2</title>
<path fill="none" stroke="black" d="M118.26,-50.68C130.89,-48.55 147.51,-48.12 158.93,-56.81 185.62,-77.11 193.19,-116.64 195.03,-144.45"/>
<polygon fill="black" stroke="black" points="191.54,-144.56 195.45,-154.41 198.53,-144.27 191.54,-144.56"/>
<text text-anchor="middle" x="147.68" y="-60.01" font-family="Times,serif" font-size="14.00">a&#45;z</text>
</g>
<!-- s1&#45;&gt;s2 -->
<g id="edge3" class="edge">
<title>s1&#45;&gt;s2</title>
<path fill="none" stroke="black" d="M113.41,-41.85C125.97,-30.57 145.04,-17.93 158.93,-28.81 176.97,-42.94 187.22,-106.2 191.9,-144.82"/>
<polygon fill="black" stroke="black" points="188.41,-145.13 193.03,-154.67 195.36,-144.33 188.41,-145.13"/>
<text text-anchor="middle" x="147.68" y="-32.01" font-family="Times,serif" font-size="14.00">A&#45;Z</text>
</g>
<!-- s1&#45;&gt;s2 -->
<g id="edge4" class="edge">
<title>s1&#45;&gt;s2</title>
<path fill="none" stroke="black" d="M112.42,-69.66C124.41,-83.99 143.22,-106.7 158.93,-126.81 165.09,-134.69 171.66,-143.42 177.49,-151.28"/>
<polygon fill="black" stroke="black" points="174.5,-153.12 183.26,-159.09 180.14,-148.97 174.5,-153.12"/>
<text text-anchor="middle" x="147.68" y="-130.01" font-family="Times,serif" font-size="14.00">_</text>
</g>
<!-- s3 -->
<g id="node5" class="node">
<title>s3</title>
<ellipse fill="none" stroke="black" cx="99.32" cy="-255.31" rx="19.11" ry="19.11"/>
<text text-anchor="middle" x="99.32" y="-250.26" font-family="Times,serif" font-size="14.00">s3</text>
</g>
<!-- s2&#45;&gt;s3 -->
<g id="edge5" class="edge">
<title>s2&#45;&gt;s3</title>
<path fill="none" stroke="black" d="M179.48,-185.09C167.29,-193.03 150.15,-204.85 136.43,-216.81 130.81,-221.71 125.11,-227.38 119.96,-232.84"/>
<polygon fill="black" stroke="black" points="117.58,-230.25 113.41,-239.99 122.75,-234.98 117.58,-230.25"/>
<text text-anchor="middle" x="147.68" y="-220.01" font-family="Times,serif" font-size="14.00">a&#45;z</text>
</g>
<!-- s2&#45;&gt;s3 -->
<g id="edge6" class="edge">
<title>s2&#45;&gt;s3</title>
<path fill="none" stroke="black" d="M176.86,-171.86C164.44,-170.52 148.17,-170.87 136.43,-178.81 120.71,-189.44 111.67,-208.82 106.56,-225.41"/>
<polygon fill="black" stroke="black" points="103.24,-224.29 104.01,-234.85 109.99,-226.11 103.24,-224.29"/>
<text text-anchor="middle" x="147.68" y="-182.01" font-family="Times,serif" font-size="14.00">A&#45;Z</text>
</g>
<!-- s2&#45;&gt;s3 -->
<g id="edge7" class="edge">
<title>s2&#45;&gt;s3</title>
<path fill="none" stroke="black" d="M181.61,-162.44C169.14,-152.11 150.44,-140.82 136.43,-150.81 113.05,-167.46 104.67,-200.31 101.73,-224.76"/>
<polygon fill="black" stroke="black" points="98.27,-224.19 100.83,-234.47 105.24,-224.84 98.27,-224.19"/>
<text text-anchor="middle" x="147.68" y="-154.01" font-family="Times,serif" font-size="14.00">_</text>
</g>
<!-- s2&#45;&gt;s3 -->
<g id="edge8" class="edge">
<title>s2&#45;&gt;s3</title>
<path fill="none" stroke="black" d="M192.89,-194.41C188.59,-228.78 177.7,-298.82 158.93,-313.31 151.01,-319.42 145.17,-318.16 136.43,-313.31 124.96,-306.94 116.66,-295.24 110.93,-284.01"/>
<polygon fill="black" stroke="black" points="114.14,-282.62 106.83,-274.95 107.77,-285.51 114.14,-282.62"/>
<text text-anchor="middle" x="147.68" y="-320.63" font-family="Times,serif" font-size="14.00">0&#45;9</text>
</g>
<!-- s2&#45;&gt;s3 -->
<g id="edge9" class="edge">
<title>s2&#45;&gt;s3</title>
<path fill="none" stroke="black" d="M194.15,-194.68C191.93,-217.8 184.36,-255.57 158.93,-273.31 148.94,-280.27 136.17,-277.42 125.1,-272.12"/>
<polygon fill="black" stroke="black" points="126.91,-269.13 116.48,-267.29 123.49,-275.23 126.91,-269.13"/>
<text text-anchor="middle" x="147.68" y="-280.63" font-family="Times,serif" font-size="14.00">λ</text>
</g>
<!-- s3&#45;&gt;s2 -->
<g id="edge10" class="edge">
<title>s3&#45;&gt;s2</title>
<path fill="none" stroke="black" d="M118.54,-251.72C130.97,-248.55 147.25,-242.88 158.93,-233.31 168.77,-225.24 176.7,-213.76 182.6,-203.13"/>
<polygon fill="black" stroke="black" points="185.68,-204.79 187.12,-194.3 179.45,-201.6 185.68,-204.79"/>
<text text-anchor="middle" x="147.68" y="-249.04" font-family="Times,serif" font-size="14.00">λ</text>
</g>
<!-- s4 -->
<g id="node6" class="node">
<title>s4</title>
<ellipse fill="none" stroke="black" cx="196.04" cy="-375.31" rx="19.11" ry="19.11"/>
<text text-anchor="middle" x="196.04" y="-370.26" font-family="Times,serif" font-size="14.00">s4</text>
</g>
<!-- s3&#45;&gt;s4 -->
<g id="edge11" class="edge">
<title>s3&#45;&gt;s4</title>
<path fill="none" stroke="black" d="M104.94,-273.86C110.17,-291.92 120.16,-319.34 136.43,-338.31 145.04,-348.34 157.05,-356.58 167.97,-362.71"/>
<polygon fill="black" stroke="black" points="166.12,-365.7 176.6,-367.24 169.37,-359.5 166.12,-365.7"/>
<text text-anchor="middle" x="147.68" y="-359.81" font-family="Times,serif" font-size="14.00">τ</text>
</g>
<!-- s4&#45;&gt;s5 -->
<g id="edge12" class="edge">
<title>s4&#45;&gt;s5</title>
<path fill="none" stroke="black" d="M215.45,-375.31C224.47,-375.31 235.62,-375.31 246.1,-375.31"/>
<polygon fill="black" stroke="black" points="245.99,-378.81 255.99,-375.31 245.99,-371.81 245.99,-378.81"/>
<text text-anchor="middle" x="236.52" y="-378.51" font-family="Times,serif" font-size="14.00">d</text>
</g>
</g>
</svg>
