<?xml version="1.0" encoding="UTF-8" standalone="no"?>
<!DOCTYPE svg PUBLIC "-//W3C//DTD SVG 1.1//EN"
 "http://www.w3.org/Graphics/SVG/1.1/DTD/svg11.dtd">
<!-- Generated by graphviz version 12.2.1 (20241206.2353)
 -->
<!-- Title: finite_state_machine Pages: 1 -->
<svg width="265pt" height="360pt"
 viewBox="0.00 0.00 264.96 360.00" xmlns="http://www.w3.org/2000/svg" xmlns:xlink="http://www.w3.org/1999/xlink">
<g id="graph0" class="graph" transform="scale(0.786333 0.786333) rotate(0) translate(4 453.82)">
<title>finite_state_machine</title>
<polygon fill="white" stroke="none" points="-4,4 -4,-453.82 332.96,-453.82 332.96,4 -4,4"/>
<!-- s14 -->
<g id="node1" class="node">
<title>s14</title>
<ellipse fill="none" stroke="black" cx="211.07" cy="-422.11" rx="23.71" ry="23.71"/>
<ellipse fill="none" stroke="black" cx="211.07" cy="-422.11" rx="27.71" ry="27.71"/>
<text text-anchor="middle" x="211.07" y="-417.06" font-family="Times,serif" font-size="14.00">s14</text>
</g>
<!-- s0 -->
<g id="node2" class="node">
<title>s0</title>
<ellipse fill="none" stroke="black" cx="23.71" cy="-19.11" rx="19.11" ry="19.11"/>
<text text-anchor="middle" x="23.71" y="-14.06" font-family="Times,serif" font-size="14.00">s0</text>
</g>
<!-- s1 -->
<g id="node3" class="node">
<title>s1</title>
<ellipse fill="none" stroke="black" cx="113.89" cy="-72.11" rx="19.11" ry="19.11"/>
<text text-anchor="middle" x="113.89" y="-67.06" font-family="Times,serif" font-size="14.00">s1</text>
</g>
<!-- s0&#45;&gt;s1 -->
<g id="edge1" class="edge">
<title>s0&#45;&gt;s1</title>
<path fill="none" stroke="black" d="M40.48,-28.58C53.44,-36.37 72.06,-47.57 87.18,-56.65"/>
<polygon fill="black" stroke="black" points="85.29,-59.6 95.67,-61.76 88.9,-53.6 85.29,-59.6"/>
<text text-anchor="middle" x="68.8" y="-50.4" font-family="Times,serif" font-size="14.00">a</text>
</g>
<!-- s2 -->
<g id="node4" class="node">
<title>s2</title>
<ellipse fill="none" stroke="black" cx="211.07" cy="-84.11" rx="19.11" ry="19.11"/>
<text text-anchor="middle" x="211.07" y="-79.06" font-family="Times,serif" font-size="14.00">s2</text>
</g>
<!-- s1&#45;&gt;s2 -->
<g id="edge2" class="edge">
<title>s1&#45;&gt;s2</title>
<path fill="none" stroke="black" d="M133.24,-74.42C146.67,-76.11 165.18,-78.45 180.66,-80.4"/>
<polygon fill="black" stroke="black" points="179.91,-83.83 190.27,-81.61 180.79,-76.89 179.91,-83.83"/>
<text text-anchor="middle" x="160.48" y="-81.67" font-family="Times,serif" font-size="14.00">b</text>
</g>
<!-- s4 -->
<g id="node5" class="node">
<title>s4</title>
<ellipse fill="none" stroke="black" cx="23.71" cy="-115.11" rx="19.11" ry="19.11"/>
<text text-anchor="middle" x="23.71" y="-110.06" font-family="Times,serif" font-size="14.00">s4</text>
</g>
<!-- s1&#45;&gt;s4 -->
<g id="edge3" class="edge">
<title>s1&#45;&gt;s4</title>
<path fill="none" stroke="black" d="M96.08,-80.31C83.42,-86.48 65.8,-95.07 51.25,-102.17"/>
<polygon fill="black" stroke="black" points="50.11,-98.83 42.66,-106.36 53.18,-105.12 50.11,-98.83"/>
<text text-anchor="middle" x="68.8" y="-98.1" font-family="Times,serif" font-size="14.00">λ</text>
</g>
<!-- s3 -->
<g id="node6" class="node">
<title>s3</title>
<ellipse fill="none" stroke="black" cx="305.25" cy="-112.11" rx="19.11" ry="19.11"/>
<text text-anchor="middle" x="305.25" y="-107.06" font-family="Times,serif" font-size="14.00">s3</text>
</g>
<!-- s2&#45;&gt;s3 -->
<g id="edge4" class="edge">
<title>s2&#45;&gt;s3</title>
<path fill="none" stroke="black" d="M229.84,-89.51C242.85,-93.46 260.77,-98.9 275.76,-103.46"/>
<polygon fill="black" stroke="black" points="274.49,-106.73 285.08,-106.29 276.53,-100.03 274.49,-106.73"/>
<text text-anchor="middle" x="260.16" y="-102.15" font-family="Times,serif" font-size="14.00">c</text>
</g>
<!-- s4&#45;&gt;s1 -->
<g id="edge6" class="edge">
<title>s4&#45;&gt;s1</title>
<path fill="none" stroke="black" d="M34.66,-99.08C41.84,-89.13 52.52,-77.21 65.43,-71.61 70.96,-69.21 77.2,-68.22 83.3,-68.04"/>
<polygon fill="black" stroke="black" points="82.97,-71.53 93.11,-68.44 83.26,-64.53 82.97,-71.53"/>
<text text-anchor="middle" x="68.8" y="-74.81" font-family="Times,serif" font-size="14.00">λ</text>
</g>
<!-- s5 -->
<g id="node7" class="node">
<title>s5</title>
<ellipse fill="none" stroke="black" cx="113.89" cy="-189.11" rx="19.11" ry="19.11"/>
<text text-anchor="middle" x="113.89" y="-184.06" font-family="Times,serif" font-size="14.00">s5</text>
</g>
<!-- s4&#45;&gt;s5 -->
<g id="edge7" class="edge">
<title>s4&#45;&gt;s5</title>
<path fill="none" stroke="black" d="M38.88,-127C52.76,-138.65 74.14,-156.59 90.36,-170.2"/>
<polygon fill="black" stroke="black" points="87.69,-172.53 97.6,-176.27 92.19,-167.17 87.69,-172.53"/>
<text text-anchor="middle" x="68.8" y="-157.53" font-family="Times,serif" font-size="14.00">τ</text>
</g>
<!-- s3&#45;&gt;s4 -->
<g id="edge5" class="edge">
<title>s3&#45;&gt;s4</title>
<path fill="none" stroke="black" d="M286.05,-114.82C279.03,-115.75 270.93,-116.66 263.53,-117.11 260.54,-117.29 259.78,-117.12 256.78,-117.11 184.05,-116.79 98.49,-115.93 54.37,-115.44"/>
<polygon fill="black" stroke="black" points="54.62,-111.95 44.58,-115.34 54.54,-118.95 54.62,-111.95"/>
<text text-anchor="middle" x="160.48" y="-119.7" font-family="Times,serif" font-size="14.00">d</text>
</g>
<!-- s6 -->
<g id="node8" class="node">
<title>s6</title>
<ellipse fill="none" stroke="black" cx="211.07" cy="-189.11" rx="19.11" ry="19.11"/>
<text text-anchor="middle" x="211.07" y="-184.06" font-family="Times,serif" font-size="14.00">s6</text>
</g>
<!-- s5&#45;&gt;s6 -->
<g id="edge8" class="edge">
<title>s5&#45;&gt;s6</title>
<path fill="none" stroke="black" d="M133.24,-189.11C146.67,-189.11 165.18,-189.11 180.66,-189.11"/>
<polygon fill="black" stroke="black" points="180.26,-192.61 190.26,-189.11 180.26,-185.61 180.26,-192.61"/>
<text text-anchor="middle" x="160.48" y="-192.31" font-family="Times,serif" font-size="14.00">g</text>
</g>
<!-- s7 -->
<g id="node9" class="node">
<title>s7</title>
<ellipse fill="none" stroke="black" cx="305.25" cy="-216.11" rx="19.11" ry="19.11"/>
<text text-anchor="middle" x="305.25" y="-211.06" font-family="Times,serif" font-size="14.00">s7</text>
</g>
<!-- s6&#45;&gt;s7 -->
<g id="edge9" class="edge">
<title>s6&#45;&gt;s7</title>
<path fill="none" stroke="black" d="M229.84,-194.31C242.85,-198.12 260.77,-203.37 275.76,-207.76"/>
<polygon fill="black" stroke="black" points="274.5,-211.04 285.08,-210.49 276.46,-204.32 274.5,-211.04"/>
<text text-anchor="middle" x="260.16" y="-206.62" font-family="Times,serif" font-size="14.00">h</text>
</g>
<!-- s8 -->
<g id="node10" class="node">
<title>s8</title>
<ellipse fill="none" stroke="black" cx="23.71" cy="-236.11" rx="19.11" ry="19.11"/>
<text text-anchor="middle" x="23.71" y="-231.06" font-family="Times,serif" font-size="14.00">s8</text>
</g>
<!-- s7&#45;&gt;s8 -->
<g id="edge10" class="edge">
<title>s7&#45;&gt;s8</title>
<path fill="none" stroke="black" d="M286.05,-219.14C279.03,-220.21 270.92,-221.35 263.53,-222.11 188.41,-229.83 99.52,-233.65 54.32,-235.21"/>
<polygon fill="black" stroke="black" points="54.43,-231.7 44.55,-235.53 54.66,-238.7 54.43,-231.7"/>
<text text-anchor="middle" x="160.48" y="-233.58" font-family="Times,serif" font-size="14.00">i</text>
</g>
<!-- s8&#45;&gt;s5 -->
<g id="edge11" class="edge">
<title>s8&#45;&gt;s5</title>
<path fill="none" stroke="black" d="M38.68,-223.94C46.22,-217.83 55.91,-210.67 65.43,-205.61 71.45,-202.41 78.22,-199.62 84.71,-197.3"/>
<polygon fill="black" stroke="black" points="85.38,-200.76 93.78,-194.3 83.19,-194.12 85.38,-200.76"/>
<text text-anchor="middle" x="68.8" y="-208.81" font-family="Times,serif" font-size="14.00">λ</text>
</g>
<!-- s9 -->
<g id="node11" class="node">
<title>s9</title>
<ellipse fill="none" stroke="black" cx="113.89" cy="-350.11" rx="19.11" ry="19.11"/>
<text text-anchor="middle" x="113.89" y="-345.06" font-family="Times,serif" font-size="14.00">s9</text>
</g>
<!-- s8&#45;&gt;s9 -->
<g id="edge12" class="edge">
<title>s8&#45;&gt;s9</title>
<path fill="none" stroke="black" d="M36.24,-251.01C51.03,-270.13 76.86,-303.52 94.4,-326.21"/>
<polygon fill="black" stroke="black" points="91.55,-328.23 100.43,-334 97.09,-323.95 91.55,-328.23"/>
<text text-anchor="middle" x="68.8" y="-299.73" font-family="Times,serif" font-size="14.00">τ</text>
</g>
<!-- s10 -->
<g id="node12" class="node">
<title>s10</title>
<ellipse fill="none" stroke="black" cx="211.07" cy="-353.11" rx="23.71" ry="23.71"/>
<text text-anchor="middle" x="211.07" y="-348.06" font-family="Times,serif" font-size="14.00">s10</text>
</g>
<!-- s9&#45;&gt;s10 -->
<g id="edge13" class="edge">
<title>s9&#45;&gt;s10</title>
<path fill="none" stroke="black" d="M133.24,-350.69C145.23,-351.06 161.25,-351.57 175.57,-352.02"/>
<polygon fill="black" stroke="black" points="175.44,-355.52 185.55,-352.33 175.66,-348.52 175.44,-355.52"/>
<text text-anchor="middle" x="160.48" y="-354.9" font-family="Times,serif" font-size="14.00">j</text>
</g>
<!-- s12 -->
<g id="node13" class="node">
<title>s12</title>
<ellipse fill="none" stroke="black" cx="23.71" cy="-358.11" rx="23.71" ry="23.71"/>
<text text-anchor="middle" x="23.71" y="-353.06" font-family="Times,serif" font-size="14.00">s12</text>
</g>
<!-- s9&#45;&gt;s12 -->
<g id="edge14" class="edge">
<title>s9&#45;&gt;s12</title>
<path fill="none" stroke="black" d="M95.76,-342.7C86.74,-339.71 75.49,-337.43 65.43,-339.61 62.05,-340.34 58.61,-341.38 55.24,-342.59"/>
<polygon fill="black" stroke="black" points="54.12,-339.26 46.23,-346.34 56.81,-345.73 54.12,-339.26"/>
<text text-anchor="middle" x="68.8" y="-342.81" font-family="Times,serif" font-size="14.00">λ</text>
</g>
<!-- s11 -->
<g id="node14" class="node">
<title>s11</title>
<ellipse fill="none" stroke="black" cx="305.25" cy="-322.11" rx="23.71" ry="23.71"/>
<text text-anchor="middle" x="305.25" y="-317.06" font-family="Times,serif" font-size="14.00">s11</text>
</g>
<!-- s10&#45;&gt;s11 -->
<g id="edge15" class="edge">
<title>s10&#45;&gt;s11</title>
<path fill="none" stroke="black" d="M233.91,-345.76C245.08,-342 258.91,-337.36 271.33,-333.18"/>
<polygon fill="black" stroke="black" points="272.44,-336.5 280.8,-329.99 270.21,-329.86 272.44,-336.5"/>
<text text-anchor="middle" x="260.16" y="-340.81" font-family="Times,serif" font-size="14.00">k</text>
</g>
<!-- s12&#45;&gt;s9 -->
<g id="edge17" class="edge">
<title>s12&#45;&gt;s9</title>
<path fill="none" stroke="black" d="M47.92,-357.61C55.65,-357.32 64.3,-356.85 72.18,-356.11 75.88,-355.76 79.75,-355.3 83.58,-354.8"/>
<polygon fill="black" stroke="black" points="83.8,-358.3 93.2,-353.42 82.81,-351.38 83.8,-358.3"/>
<text text-anchor="middle" x="68.8" y="-359.85" font-family="Times,serif" font-size="14.00">λ</text>
</g>
<!-- s13 -->
<g id="node15" class="node">
<title>s13</title>
<ellipse fill="none" stroke="black" cx="113.89" cy="-420.11" rx="23.71" ry="23.71"/>
<text text-anchor="middle" x="113.89" y="-415.06" font-family="Times,serif" font-size="14.00">s13</text>
</g>
<!-- s12&#45;&gt;s13 -->
<g id="edge18" class="edge">
<title>s12&#45;&gt;s13</title>
<path fill="none" stroke="black" d="M43.41,-371.26C55.37,-379.67 71.12,-390.73 84.59,-400.21"/>
<polygon fill="black" stroke="black" points="82.48,-403 92.68,-405.89 86.51,-397.28 82.48,-403"/>
<text text-anchor="middle" x="68.8" y="-394.17" font-family="Times,serif" font-size="14.00">τ</text>
</g>
<!-- s11&#45;&gt;s12 -->
<g id="edge16" class="edge">
<title>s11&#45;&gt;s12</title>
<path fill="none" stroke="black" d="M281.59,-318.46C242.01,-312.88 158.01,-304.6 90.18,-322.11 77.2,-325.46 64.03,-331.97 52.94,-338.55"/>
<polygon fill="black" stroke="black" points="51.3,-335.44 44.68,-343.71 55.02,-341.37 51.3,-335.44"/>
<text text-anchor="middle" x="160.48" y="-315.57" font-family="Times,serif" font-size="14.00">l</text>
</g>
<!-- s13&#45;&gt;s14 -->
<g id="edge19" class="edge">
<title>s13&#45;&gt;s14</title>
<path fill="none" stroke="black" d="M137.93,-420.59C148.16,-420.81 160.48,-421.07 172.02,-421.31"/>
<polygon fill="black" stroke="black" points="171.61,-424.8 181.68,-421.51 171.75,-417.8 171.61,-424.8"/>
<text text-anchor="middle" x="160.48" y="-424.37" font-family="Times,serif" font-size="14.00">X</text>
</g>
</g>
</svg>
