<?xml version="1.0" encoding="UTF-8" standalone="no"?>
<!DOCTYPE svg PUBLIC "-//W3C//DTD SVG 1.1//EN"
 "http://www.w3.org/Graphics/SVG/1.1/DTD/svg11.dtd">
<!-- Generated by graphviz version 12.2.1 (20241206.2353)
 -->
<!-- Title: finite_state_machine Pages: 1 -->
<svg width="576pt" height="45pt"
 viewBox="0.00 0.00 576.00 44.73" xmlns="http://www.w3.org/2000/svg" xmlns:xlink="http://www.w3.org/1999/xlink">
<g id="graph0" class="graph" transform="scale(0.824996 0.824996) rotate(0) translate(4 50.22)">
<title>finite_state_machine</title>
<polygon fill="white" stroke="none" points="-4,4 -4,-50.22 694.19,-50.22 694.19,4 -4,4"/>
<!-- s8 -->
<g id="node1" class="node">
<title>s8</title>
<ellipse fill="none" stroke="black" cx="667.08" cy="-23.11" rx="19.11" ry="19.11"/>
<ellipse fill="none" stroke="black" cx="667.08" cy="-23.11" rx="23.11" ry="23.11"/>
<text text-anchor="middle" x="667.08" y="-18.06" font-family="Times,serif" font-size="14.00">s8</text>
</g>
<!-- s0 -->
<g id="node2" class="node">
<title>s0</title>
<ellipse fill="none" stroke="black" cx="19.11" cy="-23.11" rx="19.11" ry="19.11"/>
<text text-anchor="middle" x="19.11" y="-18.06" font-family="Times,serif" font-size="14.00">s0</text>
</g>
<!-- s1 -->
<g id="node3" class="node">
<title>s1</title>
<ellipse fill="none" stroke="black" cx="99.32" cy="-23.11" rx="19.11" ry="19.11"/>
<text text-anchor="middle" x="99.32" y="-18.06" font-family="Times,serif" font-size="14.00">s1</text>
</g>
<!-- s0&#45;&gt;s1 -->
<g id="edge1" class="edge">
<title>s0&#45;&gt;s1</title>
<path fill="none" stroke="black" d="M38.64,-23.11C47.6,-23.11 58.58,-23.11 68.67,-23.11"/>
<polygon fill="black" stroke="black" points="68.41,-26.61 78.41,-23.11 68.41,-19.61 68.41,-26.61"/>
<text text-anchor="middle" x="59.22" y="-26.31" font-family="Times,serif" font-size="14.00">a</text>
</g>
<!-- s2 -->
<g id="node4" class="node">
<title>s2</title>
<ellipse fill="none" stroke="black" cx="179.54" cy="-23.11" rx="19.11" ry="19.11"/>
<text text-anchor="middle" x="179.54" y="-18.06" font-family="Times,serif" font-size="14.00">s2</text>
</g>
<!-- s1&#45;&gt;s2 -->
<g id="edge2" class="edge">
<title>s1&#45;&gt;s2</title>
<path fill="none" stroke="black" d="M118.86,-23.11C127.82,-23.11 138.8,-23.11 148.88,-23.11"/>
<polygon fill="black" stroke="black" points="148.62,-26.61 158.62,-23.11 148.62,-19.61 148.62,-26.61"/>
<text text-anchor="middle" x="139.43" y="-26.31" font-family="Times,serif" font-size="14.00">a</text>
</g>
<!-- s3 -->
<g id="node5" class="node">
<title>s3</title>
<ellipse fill="none" stroke="black" cx="260.5" cy="-23.11" rx="19.11" ry="19.11"/>
<text text-anchor="middle" x="260.5" y="-18.06" font-family="Times,serif" font-size="14.00">s3</text>
</g>
<!-- s2&#45;&gt;s3 -->
<g id="edge3" class="edge">
<title>s2&#45;&gt;s3</title>
<path fill="none" stroke="black" d="M198.85,-23.11C207.96,-23.11 219.19,-23.11 229.51,-23.11"/>
<polygon fill="black" stroke="black" points="229.5,-26.61 239.5,-23.11 229.5,-19.61 229.5,-26.61"/>
<text text-anchor="middle" x="220.02" y="-26.31" font-family="Times,serif" font-size="14.00">b</text>
</g>
<!-- s4 -->
<g id="node6" class="node">
<title>s4</title>
<ellipse fill="none" stroke="black" cx="341.47" cy="-23.11" rx="19.11" ry="19.11"/>
<text text-anchor="middle" x="341.47" y="-18.06" font-family="Times,serif" font-size="14.00">s4</text>
</g>
<!-- s3&#45;&gt;s4 -->
<g id="edge4" class="edge">
<title>s3&#45;&gt;s4</title>
<path fill="none" stroke="black" d="M279.82,-23.11C288.92,-23.11 300.16,-23.11 310.47,-23.11"/>
<polygon fill="black" stroke="black" points="310.47,-26.61 320.47,-23.11 310.47,-19.61 310.47,-26.61"/>
<text text-anchor="middle" x="300.99" y="-26.31" font-family="Times,serif" font-size="14.00">b</text>
</g>
<!-- s5 -->
<g id="node7" class="node">
<title>s5</title>
<ellipse fill="none" stroke="black" cx="422.43" cy="-23.11" rx="19.11" ry="19.11"/>
<text text-anchor="middle" x="422.43" y="-18.06" font-family="Times,serif" font-size="14.00">s5</text>
</g>
<!-- s4&#45;&gt;s5 -->
<g id="edge5" class="edge">
<title>s4&#45;&gt;s5</title>
<path fill="none" stroke="black" d="M360.78,-23.11C369.89,-23.11 381.12,-23.11 391.44,-23.11"/>
<polygon fill="black" stroke="black" points="391.43,-26.61 401.43,-23.11 391.43,-19.61 391.43,-26.61"/>
<text text-anchor="middle" x="381.95" y="-26.31" font-family="Times,serif" font-size="14.00">b</text>
</g>
<!-- s4&#45;&gt;s5 -->
<g id="edge6" class="edge">
<title>s4&#45;&gt;s5</title>
<path fill="none" stroke="black" d="M357.52,-12.25C363.73,-8.41 371.19,-4.56 378.58,-2.61 385.11,-0.88 391.86,-2.36 398.01,-5.18"/>
<polygon fill="black" stroke="black" points="395.96,-8.03 406.35,-10.07 399.5,-1.99 395.96,-8.03"/>
<text text-anchor="middle" x="381.95" y="-5.81" font-family="Times,serif" font-size="14.00">λ</text>
</g>
<!-- s6 -->
<g id="node8" class="node">
<title>s6</title>
<ellipse fill="none" stroke="black" cx="502.65" cy="-23.11" rx="19.11" ry="19.11"/>
<text text-anchor="middle" x="502.65" y="-18.06" font-family="Times,serif" font-size="14.00">s6</text>
</g>
<!-- s5&#45;&gt;s6 -->
<g id="edge7" class="edge">
<title>s5&#45;&gt;s6</title>
<path fill="none" stroke="black" d="M441.97,-23.11C450.93,-23.11 461.91,-23.11 471.99,-23.11"/>
<polygon fill="black" stroke="black" points="471.73,-26.61 481.73,-23.11 471.73,-19.61 471.73,-26.61"/>
<text text-anchor="middle" x="462.54" y="-26.31" font-family="Times,serif" font-size="14.00">τ</text>
</g>
<!-- s7 -->
<g id="node9" class="node">
<title>s7</title>
<ellipse fill="none" stroke="black" cx="582.86" cy="-23.11" rx="19.11" ry="19.11"/>
<text text-anchor="middle" x="582.86" y="-18.06" font-family="Times,serif" font-size="14.00">s7</text>
</g>
<!-- s6&#45;&gt;s7 -->
<g id="edge8" class="edge">
<title>s6&#45;&gt;s7</title>
<path fill="none" stroke="black" d="M522.18,-23.11C531.14,-23.11 542.12,-23.11 552.21,-23.11"/>
<polygon fill="black" stroke="black" points="551.95,-26.61 561.95,-23.11 551.95,-19.61 551.95,-26.61"/>
<text text-anchor="middle" x="542.76" y="-26.31" font-family="Times,serif" font-size="14.00">c</text>
</g>
<!-- s7&#45;&gt;s8 -->
<g id="edge9" class="edge">
<title>s7&#45;&gt;s8</title>
<path fill="none" stroke="black" d="M602.11,-23.11C610.98,-23.11 621.93,-23.11 632.24,-23.11"/>
<polygon fill="black" stroke="black" points="631.97,-26.61 641.97,-23.11 631.97,-19.61 631.97,-26.61"/>
<text text-anchor="middle" x="622.97" y="-26.31" font-family="Times,serif" font-size="14.00">c</text>
</g>
</g>
</svg>
