<?xml version="1.0" encoding="UTF-8" standalone="no"?>
<!DOCTYPE svg PUBLIC "-//W3C//DTD SVG 1.1//EN"
 "http://www.w3.org/Graphics/SVG/1.1/DTD/svg11.dtd">
<!-- Generated by graphviz version 2.38.0 (20140413.2041)
 -->
<!-- Title: finite_state_machine Pages: 1 -->
<svg width="405pt" height="172pt"
 viewBox="0.00 0.00 404.90 171.57" xmlns="http://www.w3.org/2000/svg" xmlns:xlink="http://www.w3.org/1999/xlink">
<g id="graph0" class="graph" transform="scale(1 1) rotate(0) translate(4 167.57)">
<title>finite_state_machine</title>
<polygon fill="white" stroke="none" points="-4,4 -4,-167.57 400.896,-167.57 400.896,4 -4,4"/>
<!-- s1 -->
<g id="node1" class="node"><title>s1</title>
<ellipse fill="none" stroke="black" cx="374.896" cy="-91.5695" rx="18" ry="18"/>
<ellipse fill="none" stroke="black" cx="374.896" cy="-91.5695" rx="22" ry="22"/>
<text text-anchor="middle" x="374.896" y="-87.3695" font-family="Times,serif" font-size="14.00">s1</text>
</g>
<!-- s0 -->
<g id="node2" class="node"><title>s0</title>
<ellipse fill="none" stroke="black" cx="18" cy="-64.5695" rx="18" ry="18"/>
<text text-anchor="middle" x="18" y="-60.3695" font-family="Times,serif" font-size="14.00">s0</text>
</g>
<!-- s2 -->
<g id="node3" class="node"><title>s2</title>
<ellipse fill="none" stroke="black" cx="104" cy="-145.57" rx="18" ry="18"/>
<text text-anchor="middle" x="104" y="-141.37" font-family="Times,serif" font-size="14.00">s2</text>
</g>
<!-- s0&#45;&gt;s2 -->
<g id="edge1" class="edge"><title>s0&#45;&gt;s2</title>
<path fill="none" stroke="black" d="M29.2822,-78.8133C35.889,-87.5367 44.9104,-98.6916 54,-107.57 62.0864,-115.468 71.7826,-123.279 80.4077,-129.747"/>
<polygon fill="black" stroke="black" points="78.4384,-132.643 88.5765,-135.72 82.5701,-126.992 78.4384,-132.643"/>
<text text-anchor="middle" x="61" y="-122.37" font-family="Times,serif" font-size="14.00">&#45;</text>
</g>
<!-- s5 -->
<g id="node4" class="node"><title>s5</title>
<ellipse fill="none" stroke="black" cx="104" cy="-91.5695" rx="18" ry="18"/>
<text text-anchor="middle" x="104" y="-87.3695" font-family="Times,serif" font-size="14.00">s5</text>
</g>
<!-- s0&#45;&gt;s5 -->
<g id="edge2" class="edge"><title>s0&#45;&gt;s5</title>
<path fill="none" stroke="black" d="M32.8828,-75.3679C39.023,-79.5775 46.5348,-84.0006 54,-86.5695 60.8451,-88.9251 68.5214,-90.2695 75.7306,-91.0139"/>
<polygon fill="black" stroke="black" points="75.5864,-94.5123 85.8075,-91.7232 76.078,-87.5296 75.5864,-94.5123"/>
<text text-anchor="middle" x="61" y="-92.3695" font-family="Times,serif" font-size="14.00">&#45;</text>
</g>
<!-- s8 -->
<g id="node5" class="node"><title>s8</title>
<ellipse fill="none" stroke="black" cx="104" cy="-28.5695" rx="18" ry="18"/>
<text text-anchor="middle" x="104" y="-24.3695" font-family="Times,serif" font-size="14.00">s8</text>
</g>
<!-- s0&#45;&gt;s8 -->
<g id="edge3" class="edge"><title>s0&#45;&gt;s8</title>
<path fill="none" stroke="black" d="M34.7998,-57.7982C46.8844,-52.619 63.7875,-45.3749 77.7421,-39.3943"/>
<polygon fill="black" stroke="black" points="79.4584,-42.4667 87.2711,-35.3105 76.7009,-36.0327 79.4584,-42.4667"/>
<text text-anchor="middle" x="61" y="-58.3696" font-family="Times,serif" font-size="14.00">◉</text>
</g>
<!-- s0&#45;&gt;s8 -->
<g id="edge4" class="edge"><title>s0&#45;&gt;s8</title>
<path fill="none" stroke="black" d="M27.8729,-49.0493C33.9493,-40.0801 42.9081,-29.6027 54,-24.5695 60.8677,-21.4532 68.832,-20.9646 76.3178,-21.6611"/>
<polygon fill="black" stroke="black" points="75.9886,-25.153 86.4174,-23.2843 77.0995,-18.2417 75.9886,-25.153"/>
<text text-anchor="middle" x="61" y="-27.3695" font-family="Times,serif" font-size="14.00">λ</text>
</g>
<!-- s3 -->
<g id="node6" class="node"><title>s3</title>
<ellipse fill="none" stroke="black" cx="183.896" cy="-145.57" rx="18" ry="18"/>
<text text-anchor="middle" x="183.896" y="-141.37" font-family="Times,serif" font-size="14.00">s3</text>
</g>
<!-- s2&#45;&gt;s3 -->
<g id="edge5" class="edge"><title>s2&#45;&gt;s3</title>
<path fill="none" stroke="black" d="M122.288,-145.57C132.07,-145.57 144.525,-145.57 155.597,-145.57"/>
<polygon fill="black" stroke="black" points="155.656,-149.07 165.656,-145.57 155.656,-142.07 155.656,-149.07"/>
<text text-anchor="middle" x="143.948" y="-148.37" font-family="Times,serif" font-size="14.00">=</text>
</g>
<!-- s6 -->
<g id="node8" class="node"><title>s6</title>
<ellipse fill="none" stroke="black" cx="183.896" cy="-91.5695" rx="18" ry="18"/>
<text text-anchor="middle" x="183.896" y="-87.3695" font-family="Times,serif" font-size="14.00">s6</text>
</g>
<!-- s5&#45;&gt;s6 -->
<g id="edge8" class="edge"><title>s5&#45;&gt;s6</title>
<path fill="none" stroke="black" d="M122.288,-91.5695C132.07,-91.5695 144.525,-91.5695 155.597,-91.5695"/>
<polygon fill="black" stroke="black" points="155.656,-95.0696 165.656,-91.5695 155.656,-88.0696 155.656,-95.0696"/>
<text text-anchor="middle" x="143.948" y="-94.3695" font-family="Times,serif" font-size="14.00">=</text>
</g>
<!-- s8&#45;&gt;s0 -->
<g id="edge11" class="edge"><title>s8&#45;&gt;s0</title>
<path fill="none" stroke="black" d="M91.5689,-15.5288C81.5456,-5.73903 66.6414,4.81079 54,-2.56952 40.9854,-10.1677 32.4287,-24.5914 27.0356,-37.6158"/>
<polygon fill="black" stroke="black" points="23.6895,-36.5734 23.5067,-47.1667 30.2557,-38.9995 23.6895,-36.5734"/>
<text text-anchor="middle" x="61" y="-5.36952" font-family="Times,serif" font-size="14.00">λ</text>
</g>
<!-- s9 -->
<g id="node10" class="node"><title>s9</title>
<ellipse fill="none" stroke="black" cx="237.896" cy="-36.5695" rx="18" ry="18"/>
<text text-anchor="middle" x="237.896" y="-32.3695" font-family="Times,serif" font-size="14.00">s9</text>
</g>
<!-- s8&#45;&gt;s9 -->
<g id="edge12" class="edge"><title>s8&#45;&gt;s9</title>
<path fill="none" stroke="black" d="M121.973,-29.599C144.11,-30.9417 183.112,-33.3073 209.471,-34.9061"/>
<polygon fill="black" stroke="black" points="209.375,-38.4066 219.569,-35.5186 209.799,-31.4195 209.375,-38.4066"/>
<text text-anchor="middle" x="143.948" y="-33.3695" font-family="Times,serif" font-size="14.00">τ</text>
</g>
<!-- s4 -->
<g id="node7" class="node"><title>s4</title>
<ellipse fill="none" stroke="black" cx="291.896" cy="-145.57" rx="18" ry="18"/>
<text text-anchor="middle" x="291.896" y="-141.37" font-family="Times,serif" font-size="14.00">s4</text>
</g>
<!-- s3&#45;&gt;s4 -->
<g id="edge6" class="edge"><title>s3&#45;&gt;s4</title>
<path fill="none" stroke="black" d="M201.926,-145.57C218.517,-145.57 244.013,-145.57 263.465,-145.57"/>
<polygon fill="black" stroke="black" points="263.555,-149.07 273.555,-145.57 263.555,-142.07 263.555,-149.07"/>
<text text-anchor="middle" x="237.896" y="-148.37" font-family="Times,serif" font-size="14.00">&#45;</text>
</g>
<!-- s4&#45;&gt;s1 -->
<g id="edge7" class="edge"><title>s4&#45;&gt;s1</title>
<path fill="none" stroke="black" d="M307.377,-135.915C318.575,-128.45 334.376,-117.916 347.768,-108.988"/>
<polygon fill="black" stroke="black" points="349.769,-111.861 356.148,-103.401 345.886,-106.036 349.769,-111.861"/>
<text text-anchor="middle" x="331.396" y="-124.37" font-family="Times,serif" font-size="14.00">λ</text>
</g>
<!-- s7 -->
<g id="node9" class="node"><title>s7</title>
<ellipse fill="none" stroke="black" cx="291.896" cy="-91.5695" rx="18" ry="18"/>
<text text-anchor="middle" x="291.896" y="-87.3695" font-family="Times,serif" font-size="14.00">s7</text>
</g>
<!-- s6&#45;&gt;s7 -->
<g id="edge9" class="edge"><title>s6&#45;&gt;s7</title>
<path fill="none" stroke="black" d="M201.926,-91.5695C218.517,-91.5695 244.013,-91.5695 263.465,-91.5695"/>
<polygon fill="black" stroke="black" points="263.555,-95.0696 273.555,-91.5695 263.555,-88.0696 263.555,-95.0696"/>
<text text-anchor="middle" x="237.896" y="-94.3695" font-family="Times,serif" font-size="14.00">#</text>
</g>
<!-- s7&#45;&gt;s1 -->
<g id="edge10" class="edge"><title>s7&#45;&gt;s1</title>
<path fill="none" stroke="black" d="M310.074,-91.5695C319.505,-91.5695 331.496,-91.5695 342.532,-91.5695"/>
<polygon fill="black" stroke="black" points="342.706,-95.0696 352.706,-91.5695 342.706,-88.0696 342.706,-95.0696"/>
<text text-anchor="middle" x="331.396" y="-94.3695" font-family="Times,serif" font-size="14.00">λ</text>
</g>
<!-- s9&#45;&gt;s1 -->
<g id="edge13" class="edge"><title>s9&#45;&gt;s1</title>
<path fill="none" stroke="black" d="M256.047,-38.132C270.754,-39.8942 292.293,-43.4936 309.896,-50.5695 323.652,-56.0995 337.662,-64.6734 349.052,-72.5538"/>
<polygon fill="black" stroke="black" points="347.034,-75.4137 357.205,-78.383 351.106,-69.7195 347.034,-75.4137"/>
<text text-anchor="middle" x="291.896" y="-53.3695" font-family="Times,serif" font-size="14.00">λ</text>
</g>
</g>
</svg>
