<?xml version="1.0" encoding="UTF-8" standalone="no"?>
<!DOCTYPE svg PUBLIC "-//W3C//DTD SVG 1.1//EN"
 "http://www.w3.org/Graphics/SVG/1.1/DTD/svg11.dtd">
<!-- Generated by graphviz version 12.2.1 (20241206.2353)
 -->
<!-- Title: finite_state_machine Pages: 1 -->
<svg width="243pt" height="360pt"
 viewBox="0.00 0.00 243.18 360.00" xmlns="http://www.w3.org/2000/svg" xmlns:xlink="http://www.w3.org/1999/xlink">
<g id="graph0" class="graph" transform="scale(0.721701 0.721701) rotate(0) translate(4 494.82)">
<title>finite_state_machine</title>
<polygon fill="white" stroke="none" points="-4,4 -4,-494.82 332.96,-494.82 332.96,4 -4,4"/>
<text text-anchor="middle" x="164.48" y="-23.7" font-family="Times,serif" font-size="14.00">Regular Expression: </text>
<text text-anchor="middle" x="164.48" y="-7.2" font-family="Times,serif" font-size="14.00">xyzzy401</text>
<!-- s14 -->
<g id="node1" class="node">
<title>s14</title>
<ellipse fill="none" stroke="black" cx="211.07" cy="-463.11" rx="23.71" ry="23.71"/>
<ellipse fill="none" stroke="black" cx="211.07" cy="-463.11" rx="27.71" ry="27.71"/>
<text text-anchor="middle" x="211.07" y="-458.06" font-family="Times,serif" font-size="14.00">s14</text>
</g>
<!-- s0 -->
<g id="node2" class="node">
<title>s0</title>
<ellipse fill="none" stroke="black" cx="23.71" cy="-60.11" rx="19.11" ry="19.11"/>
<text text-anchor="middle" x="23.71" y="-55.06" font-family="Times,serif" font-size="14.00">s0</text>
</g>
<!-- s1 -->
<g id="node3" class="node">
<title>s1</title>
<ellipse fill="none" stroke="black" cx="113.89" cy="-113.11" rx="19.11" ry="19.11"/>
<text text-anchor="middle" x="113.89" y="-108.06" font-family="Times,serif" font-size="14.00">s1</text>
</g>
<!-- s0&#45;&gt;s1 -->
<g id="edge1" class="edge">
<title>s0&#45;&gt;s1</title>
<path fill="none" stroke="black" d="M40.48,-69.58C53.44,-77.37 72.06,-88.57 87.18,-97.65"/>
<polygon fill="black" stroke="black" points="85.29,-100.6 95.67,-102.76 88.9,-94.6 85.29,-100.6"/>
<text text-anchor="middle" x="68.8" y="-91.4" font-family="Times,serif" font-size="14.00">a</text>
</g>
<!-- s2 -->
<g id="node4" class="node">
<title>s2</title>
<ellipse fill="none" stroke="black" cx="211.07" cy="-125.11" rx="19.11" ry="19.11"/>
<text text-anchor="middle" x="211.07" y="-120.06" font-family="Times,serif" font-size="14.00">s2</text>
</g>
<!-- s1&#45;&gt;s2 -->
<g id="edge2" class="edge">
<title>s1&#45;&gt;s2</title>
<path fill="none" stroke="black" d="M133.24,-115.42C146.67,-117.11 165.18,-119.45 180.66,-121.4"/>
<polygon fill="black" stroke="black" points="179.91,-124.83 190.27,-122.61 180.79,-117.89 179.91,-124.83"/>
<text text-anchor="middle" x="160.48" y="-122.67" font-family="Times,serif" font-size="14.00">b</text>
</g>
<!-- s4 -->
<g id="node5" class="node">
<title>s4</title>
<ellipse fill="none" stroke="black" cx="23.71" cy="-156.11" rx="19.11" ry="19.11"/>
<text text-anchor="middle" x="23.71" y="-151.06" font-family="Times,serif" font-size="14.00">s4</text>
</g>
<!-- s1&#45;&gt;s4 -->
<g id="edge3" class="edge">
<title>s1&#45;&gt;s4</title>
<path fill="none" stroke="black" d="M96.08,-121.31C83.42,-127.48 65.8,-136.07 51.25,-143.17"/>
<polygon fill="black" stroke="black" points="50.11,-139.83 42.66,-147.36 53.18,-146.12 50.11,-139.83"/>
<text text-anchor="middle" x="68.8" y="-139.1" font-family="Times,serif" font-size="14.00">λ</text>
</g>
<!-- s3 -->
<g id="node6" class="node">
<title>s3</title>
<ellipse fill="none" stroke="black" cx="305.25" cy="-153.11" rx="19.11" ry="19.11"/>
<text text-anchor="middle" x="305.25" y="-148.06" font-family="Times,serif" font-size="14.00">s3</text>
</g>
<!-- s2&#45;&gt;s3 -->
<g id="edge4" class="edge">
<title>s2&#45;&gt;s3</title>
<path fill="none" stroke="black" d="M229.84,-130.51C242.85,-134.46 260.77,-139.9 275.76,-144.46"/>
<polygon fill="black" stroke="black" points="274.49,-147.73 285.08,-147.29 276.53,-141.03 274.49,-147.73"/>
<text text-anchor="middle" x="260.16" y="-143.15" font-family="Times,serif" font-size="14.00">c</text>
</g>
<!-- s4&#45;&gt;s1 -->
<g id="edge6" class="edge">
<title>s4&#45;&gt;s1</title>
<path fill="none" stroke="black" d="M34.66,-140.08C41.84,-130.13 52.52,-118.21 65.43,-112.61 70.96,-110.21 77.2,-109.22 83.3,-109.04"/>
<polygon fill="black" stroke="black" points="82.97,-112.53 93.11,-109.44 83.26,-105.53 82.97,-112.53"/>
<text text-anchor="middle" x="68.8" y="-115.81" font-family="Times,serif" font-size="14.00">λ</text>
</g>
<!-- s5 -->
<g id="node7" class="node">
<title>s5</title>
<ellipse fill="none" stroke="black" cx="113.89" cy="-230.11" rx="19.11" ry="19.11"/>
<text text-anchor="middle" x="113.89" y="-225.06" font-family="Times,serif" font-size="14.00">s5</text>
</g>
<!-- s4&#45;&gt;s5 -->
<g id="edge7" class="edge">
<title>s4&#45;&gt;s5</title>
<path fill="none" stroke="black" d="M38.88,-168C52.76,-179.65 74.14,-197.59 90.36,-211.2"/>
<polygon fill="black" stroke="black" points="87.69,-213.53 97.6,-217.27 92.19,-208.17 87.69,-213.53"/>
<text text-anchor="middle" x="68.8" y="-198.53" font-family="Times,serif" font-size="14.00">τ</text>
</g>
<!-- s3&#45;&gt;s4 -->
<g id="edge5" class="edge">
<title>s3&#45;&gt;s4</title>
<path fill="none" stroke="black" d="M286.05,-155.82C279.03,-156.75 270.93,-157.66 263.53,-158.11 260.54,-158.29 259.78,-158.12 256.78,-158.11 184.05,-157.79 98.49,-156.93 54.37,-156.44"/>
<polygon fill="black" stroke="black" points="54.62,-152.95 44.58,-156.34 54.54,-159.95 54.62,-152.95"/>
<text text-anchor="middle" x="160.48" y="-160.7" font-family="Times,serif" font-size="14.00">d</text>
</g>
<!-- s6 -->
<g id="node8" class="node">
<title>s6</title>
<ellipse fill="none" stroke="black" cx="211.07" cy="-230.11" rx="19.11" ry="19.11"/>
<text text-anchor="middle" x="211.07" y="-225.06" font-family="Times,serif" font-size="14.00">s6</text>
</g>
<!-- s5&#45;&gt;s6 -->
<g id="edge8" class="edge">
<title>s5&#45;&gt;s6</title>
<path fill="none" stroke="black" d="M133.24,-230.11C146.67,-230.11 165.18,-230.11 180.66,-230.11"/>
<polygon fill="black" stroke="black" points="180.26,-233.61 190.26,-230.11 180.26,-226.61 180.26,-233.61"/>
<text text-anchor="middle" x="160.48" y="-233.31" font-family="Times,serif" font-size="14.00">g</text>
</g>
<!-- s7 -->
<g id="node9" class="node">
<title>s7</title>
<ellipse fill="none" stroke="black" cx="305.25" cy="-257.11" rx="19.11" ry="19.11"/>
<text text-anchor="middle" x="305.25" y="-252.06" font-family="Times,serif" font-size="14.00">s7</text>
</g>
<!-- s6&#45;&gt;s7 -->
<g id="edge9" class="edge">
<title>s6&#45;&gt;s7</title>
<path fill="none" stroke="black" d="M229.84,-235.31C242.85,-239.12 260.77,-244.37 275.76,-248.76"/>
<polygon fill="black" stroke="black" points="274.5,-252.04 285.08,-251.49 276.46,-245.32 274.5,-252.04"/>
<text text-anchor="middle" x="260.16" y="-247.62" font-family="Times,serif" font-size="14.00">h</text>
</g>
<!-- s8 -->
<g id="node10" class="node">
<title>s8</title>
<ellipse fill="none" stroke="black" cx="23.71" cy="-277.11" rx="19.11" ry="19.11"/>
<text text-anchor="middle" x="23.71" y="-272.06" font-family="Times,serif" font-size="14.00">s8</text>
</g>
<!-- s7&#45;&gt;s8 -->
<g id="edge10" class="edge">
<title>s7&#45;&gt;s8</title>
<path fill="none" stroke="black" d="M286.05,-260.14C279.03,-261.21 270.92,-262.35 263.53,-263.11 188.41,-270.83 99.52,-274.65 54.32,-276.21"/>
<polygon fill="black" stroke="black" points="54.43,-272.7 44.55,-276.53 54.66,-279.7 54.43,-272.7"/>
<text text-anchor="middle" x="160.48" y="-274.58" font-family="Times,serif" font-size="14.00">i</text>
</g>
<!-- s8&#45;&gt;s5 -->
<g id="edge11" class="edge">
<title>s8&#45;&gt;s5</title>
<path fill="none" stroke="black" d="M38.68,-264.94C46.22,-258.83 55.91,-251.67 65.43,-246.61 71.45,-243.41 78.22,-240.62 84.71,-238.3"/>
<polygon fill="black" stroke="black" points="85.38,-241.76 93.78,-235.3 83.19,-235.12 85.38,-241.76"/>
<text text-anchor="middle" x="68.8" y="-249.81" font-family="Times,serif" font-size="14.00">λ</text>
</g>
<!-- s9 -->
<g id="node11" class="node">
<title>s9</title>
<ellipse fill="none" stroke="black" cx="113.89" cy="-391.11" rx="19.11" ry="19.11"/>
<text text-anchor="middle" x="113.89" y="-386.06" font-family="Times,serif" font-size="14.00">s9</text>
</g>
<!-- s8&#45;&gt;s9 -->
<g id="edge12" class="edge">
<title>s8&#45;&gt;s9</title>
<path fill="none" stroke="black" d="M36.24,-292.01C51.03,-311.13 76.86,-344.52 94.4,-367.21"/>
<polygon fill="black" stroke="black" points="91.55,-369.23 100.43,-375 97.09,-364.95 91.55,-369.23"/>
<text text-anchor="middle" x="68.8" y="-340.73" font-family="Times,serif" font-size="14.00">τ</text>
</g>
<!-- s10 -->
<g id="node12" class="node">
<title>s10</title>
<ellipse fill="none" stroke="black" cx="211.07" cy="-394.11" rx="23.71" ry="23.71"/>
<text text-anchor="middle" x="211.07" y="-389.06" font-family="Times,serif" font-size="14.00">s10</text>
</g>
<!-- s9&#45;&gt;s10 -->
<g id="edge13" class="edge">
<title>s9&#45;&gt;s10</title>
<path fill="none" stroke="black" d="M133.24,-391.69C145.23,-392.06 161.25,-392.57 175.57,-393.02"/>
<polygon fill="black" stroke="black" points="175.44,-396.52 185.55,-393.33 175.66,-389.52 175.44,-396.52"/>
<text text-anchor="middle" x="160.48" y="-395.9" font-family="Times,serif" font-size="14.00">j</text>
</g>
<!-- s12 -->
<g id="node13" class="node">
<title>s12</title>
<ellipse fill="none" stroke="black" cx="23.71" cy="-399.11" rx="23.71" ry="23.71"/>
<text text-anchor="middle" x="23.71" y="-394.06" font-family="Times,serif" font-size="14.00">s12</text>
</g>
<!-- s9&#45;&gt;s12 -->
<g id="edge14" class="edge">
<title>s9&#45;&gt;s12</title>
<path fill="none" stroke="black" d="M95.76,-383.7C86.74,-380.71 75.49,-378.43 65.43,-380.61 62.05,-381.34 58.61,-382.38 55.24,-383.59"/>
<polygon fill="black" stroke="black" points="54.12,-380.26 46.23,-387.34 56.81,-386.73 54.12,-380.26"/>
<text text-anchor="middle" x="68.8" y="-383.81" font-family="Times,serif" font-size="14.00">λ</text>
</g>
<!-- s11 -->
<g id="node14" class="node">
<title>s11</title>
<ellipse fill="none" stroke="black" cx="305.25" cy="-363.11" rx="23.71" ry="23.71"/>
<text text-anchor="middle" x="305.25" y="-358.06" font-family="Times,serif" font-size="14.00">s11</text>
</g>
<!-- s10&#45;&gt;s11 -->
<g id="edge15" class="edge">
<title>s10&#45;&gt;s11</title>
<path fill="none" stroke="black" d="M233.91,-386.76C245.08,-383 258.91,-378.36 271.33,-374.18"/>
<polygon fill="black" stroke="black" points="272.44,-377.5 280.8,-370.99 270.21,-370.86 272.44,-377.5"/>
<text text-anchor="middle" x="260.16" y="-381.81" font-family="Times,serif" font-size="14.00">k</text>
</g>
<!-- s12&#45;&gt;s9 -->
<g id="edge17" class="edge">
<title>s12&#45;&gt;s9</title>
<path fill="none" stroke="black" d="M47.92,-398.61C55.65,-398.32 64.3,-397.85 72.18,-397.11 75.88,-396.76 79.75,-396.3 83.58,-395.8"/>
<polygon fill="black" stroke="black" points="83.8,-399.3 93.2,-394.42 82.81,-392.38 83.8,-399.3"/>
<text text-anchor="middle" x="68.8" y="-400.85" font-family="Times,serif" font-size="14.00">λ</text>
</g>
<!-- s13 -->
<g id="node15" class="node">
<title>s13</title>
<ellipse fill="none" stroke="black" cx="113.89" cy="-461.11" rx="23.71" ry="23.71"/>
<text text-anchor="middle" x="113.89" y="-456.06" font-family="Times,serif" font-size="14.00">s13</text>
</g>
<!-- s12&#45;&gt;s13 -->
<g id="edge18" class="edge">
<title>s12&#45;&gt;s13</title>
<path fill="none" stroke="black" d="M43.41,-412.26C55.37,-420.67 71.12,-431.73 84.59,-441.21"/>
<polygon fill="black" stroke="black" points="82.48,-444 92.68,-446.89 86.51,-438.28 82.48,-444"/>
<text text-anchor="middle" x="68.8" y="-435.17" font-family="Times,serif" font-size="14.00">τ</text>
</g>
<!-- s11&#45;&gt;s12 -->
<g id="edge16" class="edge">
<title>s11&#45;&gt;s12</title>
<path fill="none" stroke="black" d="M281.59,-359.46C242.01,-353.88 158.01,-345.6 90.18,-363.11 77.2,-366.46 64.03,-372.97 52.94,-379.55"/>
<polygon fill="black" stroke="black" points="51.3,-376.44 44.68,-384.71 55.02,-382.37 51.3,-376.44"/>
<text text-anchor="middle" x="160.48" y="-356.57" font-family="Times,serif" font-size="14.00">l</text>
</g>
<!-- s13&#45;&gt;s14 -->
<g id="edge19" class="edge">
<title>s13&#45;&gt;s14</title>
<path fill="none" stroke="black" d="M137.93,-461.59C148.16,-461.81 160.48,-462.07 172.02,-462.31"/>
<polygon fill="black" stroke="black" points="171.61,-465.8 181.68,-462.51 171.75,-458.8 171.61,-465.8"/>
<text text-anchor="middle" x="160.48" y="-465.37" font-family="Times,serif" font-size="14.00">X</text>
</g>
</g>
</svg>
