<?xml version="1.0" encoding="UTF-8" standalone="no"?>
<!DOCTYPE svg PUBLIC "-//W3C//DTD SVG 1.1//EN"
 "http://www.w3.org/Graphics/SVG/1.1/DTD/svg11.dtd">
<!-- Generated by graphviz version 12.2.1 (20241206.2353)
 -->
<!-- Title: finite_state_machine Pages: 1 -->
<svg width="216pt" height="188pt"
 viewBox="0.00 0.00 216.15 187.72" xmlns="http://www.w3.org/2000/svg" xmlns:xlink="http://www.w3.org/1999/xlink">
<g id="graph0" class="graph" transform="scale(1 1) rotate(0) translate(4 183.72)">
<title>finite_state_machine</title>
<polygon fill="white" stroke="none" points="-4,4 -4,-183.72 212.15,-183.72 212.15,4 -4,4"/>
<text text-anchor="middle" x="104.07" y="-7.2" font-family="Times,serif" font-size="14.00">Regular Expression: (xx)*</text>
<!-- s3 -->
<g id="node1" class="node">
<title>s3</title>
<ellipse fill="none" stroke="black" cx="104.07" cy="-47.61" rx="19.11" ry="19.11"/>
<ellipse fill="none" stroke="black" cx="104.07" cy="-47.61" rx="23.11" ry="23.11"/>
<text text-anchor="middle" x="104.07" y="-42.56" font-family="Times,serif" font-size="14.00">s3</text>
</g>
<!-- s0 -->
<g id="node2" class="node">
<title>s0</title>
<ellipse fill="none" stroke="black" cx="104.07" cy="-160.61" rx="19.11" ry="19.11"/>
<text text-anchor="middle" x="104.07" y="-155.56" font-family="Times,serif" font-size="14.00">s0</text>
</g>
<!-- s1 -->
<g id="node3" class="node">
<title>s1</title>
<ellipse fill="none" stroke="black" cx="189.04" cy="-122.61" rx="19.11" ry="19.11"/>
<text text-anchor="middle" x="189.04" y="-117.56" font-family="Times,serif" font-size="14.00">s1</text>
</g>
<!-- s0&#45;&gt;s1 -->
<g id="edge1" class="edge">
<title>s0&#45;&gt;s1</title>
<path fill="none" stroke="black" d="M121.86,-152.92C133.11,-147.77 148.16,-140.87 161.07,-134.96"/>
<polygon fill="black" stroke="black" points="162.26,-138.26 169.9,-130.92 159.35,-131.9 162.26,-138.26"/>
<text text-anchor="middle" x="148.56" y="-144.81" font-family="Times,serif" font-size="14.00">x</text>
</g>
<!-- s2 -->
<g id="node4" class="node">
<title>s2</title>
<ellipse fill="none" stroke="black" cx="19.11" cy="-122.61" rx="19.11" ry="19.11"/>
<text text-anchor="middle" x="19.11" y="-117.56" font-family="Times,serif" font-size="14.00">s2</text>
</g>
<!-- s0&#45;&gt;s2 -->
<g id="edge2" class="edge">
<title>s0&#45;&gt;s2</title>
<path fill="none" stroke="black" d="M86.37,-152.28C79.2,-148.76 70.71,-144.66 62.97,-141.11 57.98,-138.82 52.63,-136.45 47.47,-134.2"/>
<polygon fill="black" stroke="black" points="49.25,-131.15 38.68,-130.41 46.48,-137.58 49.25,-131.15"/>
<text text-anchor="middle" x="59.59" y="-144.31" font-family="Times,serif" font-size="14.00">λ</text>
</g>
<!-- s1&#45;&gt;s2 -->
<g id="edge3" class="edge">
<title>s1&#45;&gt;s2</title>
<path fill="none" stroke="black" d="M169.7,-120.14C157.64,-118.64 141.5,-116.87 127.18,-116.11 106.67,-115.02 101.48,-115.02 80.97,-116.11 70.78,-116.65 59.68,-117.7 49.78,-118.8"/>
<polygon fill="black" stroke="black" points="49.47,-115.31 39.95,-119.96 50.29,-122.26 49.47,-115.31"/>
<text text-anchor="middle" x="104.07" y="-119.31" font-family="Times,serif" font-size="14.00">x</text>
</g>
<!-- s2&#45;&gt;s3 -->
<g id="edge5" class="edge">
<title>s2&#45;&gt;s3</title>
<path fill="none" stroke="black" d="M30.23,-106.77C36.86,-97.17 46.15,-85.09 56.22,-76.11 61.31,-71.56 67.23,-67.32 73.12,-63.58"/>
<polygon fill="black" stroke="black" points="74.74,-66.69 81.53,-58.55 71.15,-60.68 74.74,-66.69"/>
<text text-anchor="middle" x="59.59" y="-79.31" font-family="Times,serif" font-size="14.00">τ</text>
</g>
<!-- s2&#45;&gt;s0 -->
<g id="edge4" class="edge">
<title>s2&#45;&gt;s0</title>
<path fill="none" stroke="black" d="M31.42,-137.79C37.82,-145.14 46.48,-153.29 56.22,-157.61 61.44,-159.92 67.31,-161.19 73.09,-161.82"/>
<polygon fill="black" stroke="black" points="72.91,-165.31 83.06,-162.26 73.22,-158.32 72.91,-165.31"/>
<text text-anchor="middle" x="59.59" y="-162.94" font-family="Times,serif" font-size="14.00">λ</text>
</g>
</g>
</svg>
