<?xml version="1.0" encoding="UTF-8" standalone="no"?>
<!DOCTYPE svg PUBLIC "-//W3C//DTD SVG 1.1//EN"
 "http://www.w3.org/Graphics/SVG/1.1/DTD/svg11.dtd">
<!-- Generated by graphviz version 12.2.1 (20241206.2353)
 -->
<!-- Title: finite_state_machine Pages: 1 -->
<svg width="296pt" height="88pt"
 viewBox="0.00 0.00 296.36 88.22" xmlns="http://www.w3.org/2000/svg" xmlns:xlink="http://www.w3.org/1999/xlink">
<g id="graph0" class="graph" transform="scale(1 1) rotate(0) translate(4 84.22)">
<title>finite_state_machine</title>
<polygon fill="white" stroke="none" points="-4,4 -4,-84.22 292.36,-84.22 292.36,4 -4,4"/>
<!-- s3 -->
<g id="node1" class="node">
<title>s3</title>
<ellipse fill="none" stroke="black" cx="265.25" cy="-23.11" rx="19.11" ry="19.11"/>
<ellipse fill="none" stroke="black" cx="265.25" cy="-23.11" rx="23.11" ry="23.11"/>
<text text-anchor="middle" x="265.25" y="-18.06" font-family="Times,serif" font-size="14.00">s3</text>
</g>
<!-- s0 -->
<g id="node2" class="node">
<title>s0</title>
<ellipse fill="none" stroke="black" cx="19.11" cy="-23.11" rx="19.11" ry="19.11"/>
<text text-anchor="middle" x="19.11" y="-18.06" font-family="Times,serif" font-size="14.00">s0</text>
</g>
<!-- s1 -->
<g id="node3" class="node">
<title>s1</title>
<ellipse fill="none" stroke="black" cx="100.07" cy="-61.11" rx="19.11" ry="19.11"/>
<text text-anchor="middle" x="100.07" y="-56.06" font-family="Times,serif" font-size="14.00">s1</text>
</g>
<!-- s0&#45;&gt;s1 -->
<g id="edge1" class="edge">
<title>s0&#45;&gt;s1</title>
<path fill="none" stroke="black" d="M36.85,-31.17C47.11,-36.1 60.48,-42.54 72.19,-48.17"/>
<polygon fill="black" stroke="black" points="70.46,-51.22 80.99,-52.4 73.49,-44.91 70.46,-51.22"/>
<text text-anchor="middle" x="59.59" y="-46.45" font-family="Times,serif" font-size="14.00">x</text>
</g>
<!-- s2 -->
<g id="node4" class="node">
<title>s2</title>
<ellipse fill="none" stroke="black" cx="181.04" cy="-23.11" rx="19.11" ry="19.11"/>
<text text-anchor="middle" x="181.04" y="-18.06" font-family="Times,serif" font-size="14.00">s2</text>
</g>
<!-- s0&#45;&gt;s2 -->
<g id="edge2" class="edge">
<title>s0&#45;&gt;s2</title>
<path fill="none" stroke="black" d="M38.44,-20.64C50.5,-19.14 66.64,-17.37 80.97,-16.61 97.93,-15.7 102.22,-15.7 119.18,-16.61 129.36,-17.15 140.47,-18.2 150.37,-19.3"/>
<polygon fill="black" stroke="black" points="149.86,-22.76 160.2,-20.46 150.68,-15.81 149.86,-22.76"/>
<text text-anchor="middle" x="100.07" y="-19.81" font-family="Times,serif" font-size="14.00">λ</text>
</g>
<!-- s1&#45;&gt;s2 -->
<g id="edge3" class="edge">
<title>s1&#45;&gt;s2</title>
<path fill="none" stroke="black" d="M117.82,-53.05C128.08,-48.11 141.45,-41.68 153.16,-36.04"/>
<polygon fill="black" stroke="black" points="154.46,-39.3 161.95,-31.81 151.42,-32.99 154.46,-39.3"/>
<text text-anchor="middle" x="140.56" y="-46.45" font-family="Times,serif" font-size="14.00">x</text>
</g>
<!-- s2&#45;&gt;s3 -->
<g id="edge4" class="edge">
<title>s2&#45;&gt;s3</title>
<path fill="none" stroke="black" d="M200.28,-23.11C209.15,-23.11 220.1,-23.11 230.42,-23.11"/>
<polygon fill="black" stroke="black" points="230.14,-26.61 240.14,-23.11 230.14,-19.61 230.14,-26.61"/>
<text text-anchor="middle" x="221.15" y="-26.31" font-family="Times,serif" font-size="14.00">τ</text>
</g>
</g>
</svg>
