<?xml version="1.0" encoding="UTF-8" standalone="no"?>
<!DOCTYPE svg PUBLIC "-//W3C//DTD SVG 1.1//EN"
 "http://www.w3.org/Graphics/SVG/1.1/DTD/svg11.dtd">
<!-- Generated by graphviz version 12.2.1 (20241206.2353)
 -->
<!-- Title: finite_state_machine Pages: 1 -->
<svg width="419pt" height="214pt"
 viewBox="0.00 0.00 418.54 214.27" xmlns="http://www.w3.org/2000/svg" xmlns:xlink="http://www.w3.org/1999/xlink">
<g id="graph0" class="graph" transform="scale(1 1) rotate(0) translate(4 210.27)">
<title>finite_state_machine</title>
<polygon fill="white" stroke="none" points="-4,4 -4,-210.27 414.54,-210.27 414.54,4 -4,4"/>
<text text-anchor="middle" x="205.27" y="-23.7" font-family="Times,serif" font-size="14.00">Regular Expression: </text>
<text text-anchor="middle" x="205.27" y="-7.2" font-family="Times,serif" font-size="14.00">xyzzy401</text>
<!-- s1 -->
<g id="node1" class="node">
<title>s1</title>
<ellipse fill="none" stroke="black" cx="387.43" cy="-131.16" rx="19.11" ry="19.11"/>
<ellipse fill="none" stroke="black" cx="387.43" cy="-131.16" rx="23.11" ry="23.11"/>
<text text-anchor="middle" x="387.43" y="-126.11" font-family="Times,serif" font-size="14.00">s1</text>
</g>
<!-- s0 -->
<g id="node2" class="node">
<title>s0</title>
<ellipse fill="none" stroke="black" cx="19.11" cy="-109.16" rx="19.11" ry="19.11"/>
<text text-anchor="middle" x="19.11" y="-104.11" font-family="Times,serif" font-size="14.00">s0</text>
</g>
<!-- s2 -->
<g id="node3" class="node">
<title>s2</title>
<ellipse fill="none" stroke="black" cx="107.57" cy="-187.16" rx="19.11" ry="19.11"/>
<text text-anchor="middle" x="107.57" y="-182.11" font-family="Times,serif" font-size="14.00">s2</text>
</g>
<!-- s0&#45;&gt;s2 -->
<g id="edge1" class="edge">
<title>s0&#45;&gt;s2</title>
<path fill="none" stroke="black" d="M32.28,-123.41C39.04,-131.04 47.78,-140.43 56.22,-148.16 64.39,-155.65 73.89,-163.25 82.42,-169.73"/>
<polygon fill="black" stroke="black" points="80.19,-172.44 90.3,-175.6 84.37,-166.82 80.19,-172.44"/>
<text text-anchor="middle" x="63.34" y="-162.76" font-family="Times,serif" font-size="14.00">&#45;</text>
</g>
<!-- s5 -->
<g id="node4" class="node">
<title>s5</title>
<ellipse fill="none" stroke="black" cx="107.57" cy="-131.16" rx="19.11" ry="19.11"/>
<text text-anchor="middle" x="107.57" y="-126.11" font-family="Times,serif" font-size="14.00">s5</text>
</g>
<!-- s0&#45;&gt;s5 -->
<g id="edge2" class="edge">
<title>s0&#45;&gt;s5</title>
<path fill="none" stroke="black" d="M36.62,-117.72C42.65,-120.51 49.6,-123.34 56.22,-125.16 62.77,-126.96 69.95,-128.22 76.78,-129.1"/>
<polygon fill="black" stroke="black" points="76.32,-132.57 86.63,-130.13 77.05,-125.61 76.32,-132.57"/>
<text text-anchor="middle" x="63.34" y="-131.27" font-family="Times,serif" font-size="14.00">&#45;</text>
</g>
<!-- s8 -->
<g id="node5" class="node">
<title>s8</title>
<ellipse fill="none" stroke="black" cx="107.57" cy="-72.16" rx="19.11" ry="19.11"/>
<text text-anchor="middle" x="107.57" y="-67.11" font-family="Times,serif" font-size="14.00">s8</text>
</g>
<!-- s0&#45;&gt;s8 -->
<g id="edge3" class="edge">
<title>s0&#45;&gt;s8</title>
<path fill="none" stroke="black" d="M37.19,-101.85C49.15,-96.73 65.39,-89.78 79.15,-83.89"/>
<polygon fill="black" stroke="black" points="80.32,-87.2 88.13,-80.05 77.56,-80.77 80.32,-87.2"/>
<text text-anchor="middle" x="63.34" y="-94.57" font-family="Times,serif" font-size="14.00">◉</text>
</g>
<!-- s0&#45;&gt;s8 -->
<g id="edge4" class="edge">
<title>s0&#45;&gt;s8</title>
<path fill="none" stroke="black" d="M29.53,-92.63C35.78,-83.43 44.92,-72.8 56.22,-67.66 62.85,-64.64 70.47,-64.05 77.75,-64.63"/>
<polygon fill="black" stroke="black" points="77.14,-68.08 87.57,-66.18 78.23,-61.17 77.14,-68.08"/>
<text text-anchor="middle" x="63.34" y="-70.86" font-family="Times,serif" font-size="14.00">λ</text>
</g>
<!-- s3 -->
<g id="node6" class="node">
<title>s3</title>
<ellipse fill="none" stroke="black" cx="190.04" cy="-187.16" rx="19.11" ry="19.11"/>
<text text-anchor="middle" x="190.04" y="-182.11" font-family="Times,serif" font-size="14.00">s3</text>
</g>
<!-- s2&#45;&gt;s3 -->
<g id="edge5" class="edge">
<title>s2&#45;&gt;s3</title>
<path fill="none" stroke="black" d="M126.83,-187.16C136.43,-187.16 148.45,-187.16 159.35,-187.16"/>
<polygon fill="black" stroke="black" points="159.06,-190.66 169.06,-187.16 159.06,-183.66 159.06,-190.66"/>
<text text-anchor="middle" x="148.81" y="-190.36" font-family="Times,serif" font-size="14.00">=</text>
</g>
<!-- s6 -->
<g id="node8" class="node">
<title>s6</title>
<ellipse fill="none" stroke="black" cx="190.04" cy="-131.16" rx="19.11" ry="19.11"/>
<text text-anchor="middle" x="190.04" y="-126.11" font-family="Times,serif" font-size="14.00">s6</text>
</g>
<!-- s5&#45;&gt;s6 -->
<g id="edge8" class="edge">
<title>s5&#45;&gt;s6</title>
<path fill="none" stroke="black" d="M126.83,-131.16C136.43,-131.16 148.45,-131.16 159.35,-131.16"/>
<polygon fill="black" stroke="black" points="159.06,-134.66 169.06,-131.16 159.06,-127.66 159.06,-134.66"/>
<text text-anchor="middle" x="148.81" y="-134.36" font-family="Times,serif" font-size="14.00">=</text>
</g>
<!-- s8&#45;&gt;s0 -->
<g id="edge11" class="edge">
<title>s8&#45;&gt;s0</title>
<path fill="none" stroke="black" d="M94.49,-57.6C84.25,-47.1 69.19,-36 56.22,-43.66 42.81,-51.58 34.04,-66.45 28.5,-80.03"/>
<polygon fill="black" stroke="black" points="25.35,-78.46 25.24,-89.06 31.93,-80.84 25.35,-78.46"/>
<text text-anchor="middle" x="63.34" y="-46.86" font-family="Times,serif" font-size="14.00">λ</text>
</g>
<!-- s9 -->
<g id="node10" class="node">
<title>s9</title>
<ellipse fill="none" stroke="black" cx="246.25" cy="-77.16" rx="19.11" ry="19.11"/>
<text text-anchor="middle" x="246.25" y="-72.11" font-family="Times,serif" font-size="14.00">s9</text>
</g>
<!-- s8&#45;&gt;s9 -->
<g id="edge12" class="edge">
<title>s8&#45;&gt;s9</title>
<path fill="none" stroke="black" d="M127.01,-72.83C149.63,-73.66 188.29,-75.07 215.22,-76.06"/>
<polygon fill="black" stroke="black" points="215.04,-79.56 225.16,-76.42 215.3,-72.56 215.04,-79.56"/>
<text text-anchor="middle" x="148.81" y="-76.92" font-family="Times,serif" font-size="14.00">τ</text>
</g>
<!-- s4 -->
<g id="node7" class="node">
<title>s4</title>
<ellipse fill="none" stroke="black" cx="302.47" cy="-187.16" rx="19.11" ry="19.11"/>
<text text-anchor="middle" x="302.47" y="-182.11" font-family="Times,serif" font-size="14.00">s4</text>
</g>
<!-- s3&#45;&gt;s4 -->
<g id="edge6" class="edge">
<title>s3&#45;&gt;s4</title>
<path fill="none" stroke="black" d="M209.27,-187.16C226.3,-187.16 252,-187.16 271.95,-187.16"/>
<polygon fill="black" stroke="black" points="271.69,-190.66 281.69,-187.16 271.69,-183.66 271.69,-190.66"/>
<text text-anchor="middle" x="246.25" y="-190.36" font-family="Times,serif" font-size="14.00">&#45;</text>
</g>
<!-- s4&#45;&gt;s1 -->
<g id="edge7" class="edge">
<title>s4&#45;&gt;s1</title>
<path fill="none" stroke="black" d="M318.68,-176.89C329.83,-169.37 345.26,-158.95 358.59,-149.95"/>
<polygon fill="black" stroke="black" points="360.24,-153.06 366.57,-144.56 356.33,-147.26 360.24,-153.06"/>
<text text-anchor="middle" x="342.95" y="-165.71" font-family="Times,serif" font-size="14.00">λ</text>
</g>
<!-- s7 -->
<g id="node9" class="node">
<title>s7</title>
<ellipse fill="none" stroke="black" cx="302.47" cy="-131.16" rx="19.11" ry="19.11"/>
<text text-anchor="middle" x="302.47" y="-126.11" font-family="Times,serif" font-size="14.00">s7</text>
</g>
<!-- s6&#45;&gt;s7 -->
<g id="edge9" class="edge">
<title>s6&#45;&gt;s7</title>
<path fill="none" stroke="black" d="M209.27,-131.16C226.3,-131.16 252,-131.16 271.95,-131.16"/>
<polygon fill="black" stroke="black" points="271.69,-134.66 281.69,-131.16 271.69,-127.66 271.69,-134.66"/>
<text text-anchor="middle" x="246.25" y="-134.36" font-family="Times,serif" font-size="14.00">#</text>
</g>
<!-- s7&#45;&gt;s1 -->
<g id="edge10" class="edge">
<title>s7&#45;&gt;s1</title>
<path fill="none" stroke="black" d="M321.88,-131.16C330.9,-131.16 342.05,-131.16 352.53,-131.16"/>
<polygon fill="black" stroke="black" points="352.42,-134.66 362.42,-131.16 352.42,-127.66 352.42,-134.66"/>
<text text-anchor="middle" x="342.95" y="-134.36" font-family="Times,serif" font-size="14.00">λ</text>
</g>
<!-- s9&#45;&gt;s1 -->
<g id="edge13" class="edge">
<title>s9&#45;&gt;s1</title>
<path fill="none" stroke="black" d="M265.86,-77.13C281.26,-77.67 303.46,-79.75 321.58,-86.66 335.53,-91.98 349.4,-100.88 360.71,-109.32"/>
<polygon fill="black" stroke="black" points="358.32,-111.9 368.36,-115.29 362.63,-106.38 358.32,-111.9"/>
<text text-anchor="middle" x="302.47" y="-89.86" font-family="Times,serif" font-size="14.00">λ</text>
</g>
</g>
</svg>
