<?xml version="1.0" encoding="UTF-8" standalone="no"?>
<!DOCTYPE svg PUBLIC "-//W3C//DTD SVG 1.1//EN"
 "http://www.w3.org/Graphics/SVG/1.1/DTD/svg11.dtd">
<!-- Generated by graphviz version 12.2.1 (20241206.2353)
 -->
<!-- Title: finite_state_machine Pages: 1 -->
<svg width="216pt" height="163pt"
 viewBox="0.00 0.00 216.15 163.22" xmlns="http://www.w3.org/2000/svg" xmlns:xlink="http://www.w3.org/1999/xlink">
<g id="graph0" class="graph" transform="scale(1 1) rotate(0) translate(4 159.22)">
<title>finite_state_machine</title>
<polygon fill="white" stroke="none" points="-4,4 -4,-159.22 212.15,-159.22 212.15,4 -4,4"/>
<!-- s3 -->
<g id="node1" class="node">
<title>s3</title>
<ellipse fill="none" stroke="black" cx="104.07" cy="-23.11" rx="19.11" ry="19.11"/>
<ellipse fill="none" stroke="black" cx="104.07" cy="-23.11" rx="23.11" ry="23.11"/>
<text text-anchor="middle" x="104.07" y="-18.06" font-family="Times,serif" font-size="14.00">s3</text>
</g>
<!-- s0 -->
<g id="node2" class="node">
<title>s0</title>
<ellipse fill="none" stroke="black" cx="104.07" cy="-136.11" rx="19.11" ry="19.11"/>
<text text-anchor="middle" x="104.07" y="-131.06" font-family="Times,serif" font-size="14.00">s0</text>
</g>
<!-- s1 -->
<g id="node3" class="node">
<title>s1</title>
<ellipse fill="none" stroke="black" cx="189.04" cy="-98.11" rx="19.11" ry="19.11"/>
<text text-anchor="middle" x="189.04" y="-93.06" font-family="Times,serif" font-size="14.00">s1</text>
</g>
<!-- s0&#45;&gt;s1 -->
<g id="edge1" class="edge">
<title>s0&#45;&gt;s1</title>
<path fill="none" stroke="black" d="M121.86,-128.42C133.11,-123.27 148.16,-116.37 161.07,-110.46"/>
<polygon fill="black" stroke="black" points="162.26,-113.76 169.9,-106.42 159.35,-107.4 162.26,-113.76"/>
<text text-anchor="middle" x="148.56" y="-120.31" font-family="Times,serif" font-size="14.00">x</text>
</g>
<!-- s2 -->
<g id="node4" class="node">
<title>s2</title>
<ellipse fill="none" stroke="black" cx="19.11" cy="-98.11" rx="19.11" ry="19.11"/>
<text text-anchor="middle" x="19.11" y="-93.06" font-family="Times,serif" font-size="14.00">s2</text>
</g>
<!-- s0&#45;&gt;s2 -->
<g id="edge2" class="edge">
<title>s0&#45;&gt;s2</title>
<path fill="none" stroke="black" d="M86.37,-127.78C79.2,-124.26 70.71,-120.16 62.97,-116.61 57.98,-114.32 52.63,-111.95 47.47,-109.7"/>
<polygon fill="black" stroke="black" points="49.25,-106.65 38.68,-105.91 46.48,-113.08 49.25,-106.65"/>
<text text-anchor="middle" x="59.59" y="-119.81" font-family="Times,serif" font-size="14.00">λ</text>
</g>
<!-- s1&#45;&gt;s2 -->
<g id="edge3" class="edge">
<title>s1&#45;&gt;s2</title>
<path fill="none" stroke="black" d="M169.7,-95.64C157.64,-94.14 141.5,-92.37 127.18,-91.61 106.67,-90.52 101.48,-90.52 80.97,-91.61 70.78,-92.15 59.68,-93.2 49.78,-94.3"/>
<polygon fill="black" stroke="black" points="49.47,-90.81 39.95,-95.46 50.29,-97.76 49.47,-90.81"/>
<text text-anchor="middle" x="104.07" y="-94.81" font-family="Times,serif" font-size="14.00">x</text>
</g>
<!-- s2&#45;&gt;s3 -->
<g id="edge5" class="edge">
<title>s2&#45;&gt;s3</title>
<path fill="none" stroke="black" d="M30.23,-82.27C36.86,-72.67 46.15,-60.59 56.22,-51.61 61.31,-47.06 67.23,-42.82 73.12,-39.08"/>
<polygon fill="black" stroke="black" points="74.74,-42.19 81.53,-34.05 71.15,-36.18 74.74,-42.19"/>
<text text-anchor="middle" x="59.59" y="-54.81" font-family="Times,serif" font-size="14.00">τ</text>
</g>
<!-- s2&#45;&gt;s0 -->
<g id="edge4" class="edge">
<title>s2&#45;&gt;s0</title>
<path fill="none" stroke="black" d="M31.42,-113.29C37.82,-120.64 46.48,-128.79 56.22,-133.11 61.44,-135.42 67.31,-136.69 73.09,-137.32"/>
<polygon fill="black" stroke="black" points="72.91,-140.81 83.06,-137.76 73.22,-133.82 72.91,-140.81"/>
<text text-anchor="middle" x="59.59" y="-138.44" font-family="Times,serif" font-size="14.00">λ</text>
</g>
</g>
</svg>
