<?xml version="1.0" encoding="UTF-8" standalone="no"?>
<!DOCTYPE svg PUBLIC "-//W3C//DTD SVG 1.1//EN"
 "http://www.w3.org/Graphics/SVG/1.1/DTD/svg11.dtd">
<!-- Generated by graphviz version 12.2.1 (20241206.2353)
 -->
<!-- Title: finite_state_machine Pages: 1 -->
<svg width="135pt" height="68pt"
 viewBox="0.00 0.00 135.18 67.91" xmlns="http://www.w3.org/2000/svg" xmlns:xlink="http://www.w3.org/1999/xlink">
<g id="graph0" class="graph" transform="scale(1 1) rotate(0) translate(4 63.91)">
<title>finite_state_machine</title>
<polygon fill="white" stroke="none" points="-4,4 -4,-63.91 131.18,-63.91 131.18,4 -4,4"/>
<!-- s1 -->
<g id="node1" class="node">
<title>s1</title>
<ellipse fill="none" stroke="black" cx="104.07" cy="-24.67" rx="19.11" ry="19.11"/>
<ellipse fill="none" stroke="black" cx="104.07" cy="-24.67" rx="23.11" ry="23.11"/>
<text text-anchor="middle" x="104.07" y="-19.62" font-family="Times,serif" font-size="14.00">s1</text>
</g>
<!-- s0 -->
<g id="node2" class="node">
<title>s0</title>
<ellipse fill="none" stroke="black" cx="19.11" cy="-24.67" rx="19.11" ry="19.11"/>
<text text-anchor="middle" x="19.11" y="-19.62" font-family="Times,serif" font-size="14.00">s0</text>
</g>
<!-- s0&#45;&gt;s1 -->
<g id="edge1" class="edge">
<title>s0&#45;&gt;s1</title>
<path fill="none" stroke="black" d="M35.68,-34.41C41.84,-37.72 49.12,-41 56.22,-42.67 62,-44.03 68.04,-43.39 73.77,-41.71"/>
<polygon fill="black" stroke="black" points="74.92,-45.02 82.89,-38.04 72.3,-38.53 74.92,-45.02"/>
<text text-anchor="middle" x="59.59" y="-46.61" font-family="Times,serif" font-size="14.00">λ</text>
</g>
<!-- s0&#45;&gt;s1 -->
<g id="edge2" class="edge">
<title>s0&#45;&gt;s1</title>
<path fill="none" stroke="black" d="M38.46,-23.15C44.15,-22.75 50.44,-22.37 56.22,-22.17 60.45,-22.02 64.91,-22.04 69.31,-22.16"/>
<polygon fill="black" stroke="black" points="69.02,-25.65 79.16,-22.6 69.33,-18.66 69.02,-25.65"/>
<text text-anchor="middle" x="59.59" y="-25.37" font-family="Times,serif" font-size="14.00">λ</text>
</g>
<!-- s0&#45;&gt;s1 -->
<g id="edge3" class="edge">
<title>s0&#45;&gt;s1</title>
<path fill="none" stroke="black" d="M34.25,-12.74C40.55,-8.18 48.33,-3.51 56.22,-1.17 63.09,0.87 70.16,-0.57 76.67,-3.54"/>
<polygon fill="black" stroke="black" points="74.61,-6.39 85.01,-8.42 78.15,-0.35 74.61,-6.39"/>
<text text-anchor="middle" x="59.59" y="-4.37" font-family="Times,serif" font-size="14.00">λ</text>
</g>
</g>
</svg>
