<?xml version="1.0" encoding="UTF-8" standalone="no"?>
<!DOCTYPE svg PUBLIC "-//W3C//DTD SVG 1.1//EN"
 "http://www.w3.org/Graphics/SVG/1.1/DTD/svg11.dtd">
<!-- Generated by graphviz version 12.2.1 (20241206.2353)
 -->
<!-- Title: finite_state_machine Pages: 1 -->
<svg width="152pt" height="165pt"
 viewBox="0.00 0.00 151.50 164.60" xmlns="http://www.w3.org/2000/svg" xmlns:xlink="http://www.w3.org/1999/xlink">
<g id="graph0" class="graph" transform="scale(1 1) rotate(0) translate(4 160.6)">
<title>finite_state_machine</title>
<polygon fill="white" stroke="none" points="-4,4 -4,-160.6 147.5,-160.6 147.5,4 -4,4"/>
<text text-anchor="middle" x="71.75" y="-7.2" font-family="Times,serif" font-size="14.00">Regular Expression: x*</text>
<!-- s2 -->
<g id="node1" class="node">
<title>s2</title>
<ellipse fill="none" stroke="black" cx="112.23" cy="-47.61" rx="19.11" ry="19.11"/>
<ellipse fill="none" stroke="black" cx="112.23" cy="-47.61" rx="23.11" ry="23.11"/>
<text text-anchor="middle" x="112.23" y="-42.56" font-family="Times,serif" font-size="14.00">s2</text>
</g>
<!-- s0 -->
<g id="node2" class="node">
<title>s0</title>
<ellipse fill="none" stroke="black" cx="112.23" cy="-127.61" rx="19.11" ry="19.11"/>
<text text-anchor="middle" x="112.23" y="-122.56" font-family="Times,serif" font-size="14.00">s0</text>
</g>
<!-- s1 -->
<g id="node3" class="node">
<title>s1</title>
<ellipse fill="none" stroke="black" cx="27.27" cy="-107.61" rx="19.11" ry="19.11"/>
<text text-anchor="middle" x="27.27" y="-102.56" font-family="Times,serif" font-size="14.00">s1</text>
</g>
<!-- s0&#45;&gt;s1 -->
<g id="edge1" class="edge">
<title>s0&#45;&gt;s1</title>
<path fill="none" stroke="black" d="M93.27,-123.28C82.73,-120.74 69.16,-117.47 57.16,-114.57"/>
<polygon fill="black" stroke="black" points="58.28,-111.24 47.74,-112.3 56.64,-118.05 58.28,-111.24"/>
<text text-anchor="middle" x="67.75" y="-120.81" font-family="Times,serif" font-size="14.00">x</text>
</g>
<!-- s0&#45;&gt;s1 -->
<g id="edge2" class="edge">
<title>s0&#45;&gt;s1</title>
<path fill="none" stroke="black" d="M98.52,-113.98C91.24,-107.2 81.5,-99.7 71.12,-96.11 65.94,-94.31 60.32,-94.41 54.91,-95.48"/>
<polygon fill="black" stroke="black" points="54.27,-92.02 45.75,-98.31 56.34,-98.7 54.27,-92.02"/>
<text text-anchor="middle" x="67.75" y="-99.31" font-family="Times,serif" font-size="14.00">λ</text>
</g>
<!-- s1&#45;&gt;s2 -->
<g id="edge4" class="edge">
<title>s1&#45;&gt;s2</title>
<path fill="none" stroke="black" d="M41.33,-94.09C47.92,-87.65 56.23,-80.06 64.38,-74.11 69.56,-70.32 75.34,-66.65 81.02,-63.31"/>
<polygon fill="black" stroke="black" points="82.67,-66.4 89.67,-58.45 79.24,-60.3 82.67,-66.4"/>
<text text-anchor="middle" x="67.75" y="-77.31" font-family="Times,serif" font-size="14.00">τ</text>
</g>
<!-- s1&#45;&gt;s0 -->
<g id="edge3" class="edge">
<title>s1&#45;&gt;s0</title>
<path fill="none" stroke="black" d="M40.46,-121.97C46.85,-128.37 55.23,-135.22 64.38,-138.61 70.7,-140.95 77.69,-140.72 84.31,-139.31"/>
<polygon fill="black" stroke="black" points="84.91,-142.79 93.45,-136.51 82.86,-136.09 84.91,-142.79"/>
<text text-anchor="middle" x="67.75" y="-143.3" font-family="Times,serif" font-size="14.00">λ</text>
</g>
</g>
</svg>
