<?xml version="1.0" encoding="UTF-8" standalone="no"?>
<!DOCTYPE svg PUBLIC "-//W3C//DTD SVG 1.1//EN"
 "http://www.w3.org/Graphics/SVG/1.1/DTD/svg11.dtd">
<!-- Generated by graphviz version 12.2.1 (20241206.2353)
 -->
<!-- Title: finite_state_machine Pages: 1 -->
<svg width="187pt" height="360pt"
 viewBox="0.00 0.00 187.45 360.00" xmlns="http://www.w3.org/2000/svg" xmlns:xlink="http://www.w3.org/1999/xlink">
<g id="graph0" class="graph" transform="scale(0.5718 0.5718) rotate(0) translate(4 625.59)">
<title>finite_state_machine</title>
<polygon fill="white" stroke="none" points="-4,4 -4,-625.59 323.83,-625.59 323.83,4 -4,4"/>
<text text-anchor="middle" x="159.91" y="-7.2" font-family="Times,serif" font-size="14.00">Regular Expression: (||||||||a|aa|||||)</text>
<!-- s1 -->
<g id="node1" class="node">
<title>s1</title>
<ellipse fill="none" stroke="black" cx="296.72" cy="-341.61" rx="19.11" ry="19.11"/>
<ellipse fill="none" stroke="black" cx="296.72" cy="-341.61" rx="23.11" ry="23.11"/>
<text text-anchor="middle" x="296.72" y="-336.56" font-family="Times,serif" font-size="14.00">s1</text>
</g>
<!-- s0 -->
<g id="node2" class="node">
<title>s0</title>
<ellipse fill="none" stroke="black" cx="19.11" cy="-341.61" rx="19.11" ry="19.11"/>
<text text-anchor="middle" x="19.11" y="-336.56" font-family="Times,serif" font-size="14.00">s0</text>
</g>
<!-- s0&#45;&gt;s1 -->
<g id="edge1" class="edge">
<title>s0&#45;&gt;s1</title>
<path fill="none" stroke="black" d="M19.84,-360.98C19.52,-414.79 21.83,-564.23 56.22,-595.61 82.58,-619.67 100.75,-598.72 136.43,-599.61 189.41,-600.93 216.18,-631.02 255.61,-595.61 287.44,-567.02 294.09,-438.88 295.42,-376.27"/>
<polygon fill="black" stroke="black" points="298.92,-376.6 295.59,-366.54 291.92,-376.47 298.92,-376.6"/>
<text text-anchor="middle" x="155.54" y="-608.29" font-family="Times,serif" font-size="14.00">λ</text>
</g>
<!-- s0&#45;&gt;s1 -->
<g id="edge2" class="edge">
<title>s0&#45;&gt;s1</title>
<path fill="none" stroke="black" d="M20.41,-361C21.59,-408.75 27.42,-530.01 56.22,-555.61 82.89,-579.32 100.75,-558.72 136.43,-559.61 189.41,-560.93 215.68,-590.45 255.61,-555.61 282.01,-532.57 291.21,-430.66 294.27,-376.2"/>
<polygon fill="black" stroke="black" points="297.75,-376.71 294.77,-366.54 290.76,-376.35 297.75,-376.71"/>
<text text-anchor="middle" x="155.54" y="-568.2" font-family="Times,serif" font-size="14.00">λ</text>
</g>
<!-- s0&#45;&gt;s1 -->
<g id="edge3" class="edge">
<title>s0&#45;&gt;s1</title>
<path fill="none" stroke="black" d="M21.23,-360.98C24.06,-402.05 32.95,-495.69 56.22,-515.61 83.33,-538.82 100.75,-518.72 136.43,-519.61 189.41,-520.93 214.97,-549.62 255.61,-515.61 276.62,-498.03 287.73,-421.81 292.6,-376.29"/>
<polygon fill="black" stroke="black" points="296.08,-376.69 293.61,-366.38 289.12,-375.98 296.08,-376.69"/>
<text text-anchor="middle" x="155.54" y="-528.07" font-family="Times,serif" font-size="14.00">λ</text>
</g>
<!-- s0&#45;&gt;s1 -->
<g id="edge4" class="edge">
<title>s0&#45;&gt;s1</title>
<path fill="none" stroke="black" d="M22.52,-360.87C27.14,-394.39 38.4,-461.24 56.22,-475.61 84,-498.02 100.75,-478.72 136.43,-479.61 189.41,-480.93 213.89,-508.3 255.61,-475.61 285.44,-452.23 293.81,-407.56 295.79,-376.24"/>
<polygon fill="black" stroke="black" points="299.28,-376.62 296.21,-366.48 292.28,-376.32 299.28,-376.62"/>
<text text-anchor="middle" x="155.54" y="-487.86" font-family="Times,serif" font-size="14.00">λ</text>
</g>
<!-- s0&#45;&gt;s1 -->
<g id="edge5" class="edge">
<title>s0&#45;&gt;s1</title>
<path fill="none" stroke="black" d="M21.49,-360.79C24.22,-382.86 32.29,-418.27 56.22,-435.61 98.87,-466.5 122,-440.91 174.65,-439.61 210.66,-438.72 226.05,-456.2 255.61,-435.61 275.26,-421.92 285.34,-396.52 290.48,-375.58"/>
<polygon fill="black" stroke="black" points="293.86,-376.5 292.54,-365.98 287.02,-375.03 293.86,-376.5"/>
<text text-anchor="middle" x="155.54" y="-447.76" font-family="Times,serif" font-size="14.00">λ</text>
</g>
<!-- s0&#45;&gt;s1 -->
<g id="edge6" class="edge">
<title>s0&#45;&gt;s1</title>
<path fill="none" stroke="black" d="M26.92,-359.5C32.7,-371.96 42.28,-387.71 56.22,-395.61 102.03,-421.58 122,-400.91 174.65,-399.61 210.66,-398.72 223.83,-412.58 255.61,-395.61 265.62,-390.26 273.82,-381.18 280.13,-371.98"/>
<polygon fill="black" stroke="black" points="282.91,-374.13 285.22,-363.79 276.97,-370.43 282.91,-374.13"/>
<text text-anchor="middle" x="155.54" y="-406.94" font-family="Times,serif" font-size="14.00">λ</text>
</g>
<!-- s0&#45;&gt;s1 -->
<g id="edge7" class="edge">
<title>s0&#45;&gt;s1</title>
<path fill="none" stroke="black" d="M37.03,-349.45C42.97,-351.86 49.77,-354.23 56.22,-355.61 142.89,-374.07 168.63,-372.57 255.61,-355.61 258.4,-355.06 261.25,-354.37 264.09,-353.58"/>
<polygon fill="black" stroke="black" points="264.89,-357 273.36,-350.63 262.77,-350.33 264.89,-357"/>
<text text-anchor="middle" x="155.54" y="-372.1" font-family="Times,serif" font-size="14.00">λ</text>
</g>
<!-- s0&#45;&gt;s1 -->
<g id="edge8" class="edge">
<title>s0&#45;&gt;s1</title>
<path fill="none" stroke="black" d="M38.62,-341.61C84.35,-341.61 203.2,-341.61 261.9,-341.61"/>
<polygon fill="black" stroke="black" points="261.62,-345.11 271.62,-341.61 261.62,-338.11 261.62,-345.11"/>
<text text-anchor="middle" x="155.54" y="-344.81" font-family="Times,serif" font-size="14.00">λ</text>
</g>
<!-- s0&#45;&gt;s1 -->
<g id="edge11" class="edge">
<title>s0&#45;&gt;s1</title>
<path fill="none" stroke="black" d="M38.11,-337.43C60.86,-332.38 101.29,-324.18 136.43,-321.11 180.34,-317.27 230.76,-325.99 262.91,-333.22"/>
<polygon fill="black" stroke="black" points="261.87,-336.57 272.4,-335.45 263.47,-329.76 261.87,-336.57"/>
<text text-anchor="middle" x="155.54" y="-324.31" font-family="Times,serif" font-size="14.00">λ</text>
</g>
<!-- s0&#45;&gt;s1 -->
<g id="edge12" class="edge">
<title>s0&#45;&gt;s1</title>
<path fill="none" stroke="black" d="M36.55,-333.56C58.63,-323.26 99.38,-306.05 136.43,-300.11 182.12,-292.78 233.73,-311.32 265.5,-325.94"/>
<polygon fill="black" stroke="black" points="263.97,-329.09 274.5,-330.25 266.99,-322.78 263.97,-329.09"/>
<text text-anchor="middle" x="155.54" y="-303.31" font-family="Times,serif" font-size="14.00">λ</text>
</g>
<!-- s0&#45;&gt;s1 -->
<g id="edge13" class="edge">
<title>s0&#45;&gt;s1</title>
<path fill="none" stroke="black" d="M34.36,-329.86C55.2,-313.65 95.93,-285.59 136.43,-278.11 185.3,-269.08 238.17,-298.83 269.04,-320.62"/>
<polygon fill="black" stroke="black" points="266.89,-323.39 277.03,-326.46 271.02,-317.74 266.89,-323.39"/>
<text text-anchor="middle" x="155.54" y="-281.31" font-family="Times,serif" font-size="14.00">λ</text>
</g>
<!-- s0&#45;&gt;s1 -->
<g id="edge14" class="edge">
<title>s0&#45;&gt;s1</title>
<path fill="none" stroke="black" d="M31.3,-326.6C42.4,-312.59 60.56,-291.91 80.22,-278.61 115.95,-254.43 132.28,-247.94 174.65,-256.11 201.07,-261.2 208.29,-263.95 230.86,-278.61 246.69,-288.89 261.96,-303.41 273.7,-315.92"/>
<polygon fill="black" stroke="black" points="270.89,-318.03 280.21,-323.07 276.07,-313.32 270.89,-318.03"/>
<text text-anchor="middle" x="155.54" y="-259.31" font-family="Times,serif" font-size="14.00">λ</text>
</g>
<!-- s0&#45;&gt;s1 -->
<g id="edge15" class="edge">
<title>s0&#45;&gt;s1</title>
<path fill="none" stroke="black" d="M27.88,-324.39C37.56,-304.75 55.82,-272.87 80.22,-253.61 114,-226.93 132.44,-223.64 174.65,-232.11 201.2,-237.43 209.47,-239 230.86,-255.61 250.55,-270.9 267.32,-293.59 278.87,-311.82"/>
<polygon fill="black" stroke="black" points="275.75,-313.42 283.95,-320.12 281.72,-309.77 275.75,-313.42"/>
<text text-anchor="middle" x="155.54" y="-235.31" font-family="Times,serif" font-size="14.00">λ</text>
</g>
<!-- s2 -->
<g id="node3" class="node">
<title>s2</title>
<ellipse fill="none" stroke="black" cx="155.54" cy="-99.61" rx="19.11" ry="19.11"/>
<text text-anchor="middle" x="155.54" y="-94.56" font-family="Times,serif" font-size="14.00">s2</text>
</g>
<!-- s0&#45;&gt;s2 -->
<g id="edge9" class="edge">
<title>s0&#45;&gt;s2</title>
<path fill="none" stroke="black" d="M20.25,-322.34C21.06,-272.3 26.07,-140.1 56.22,-111.11 74.19,-93.82 103.38,-92.44 125.3,-94.48"/>
<polygon fill="black" stroke="black" points="124.75,-97.94 135.11,-95.7 125.62,-90.99 124.75,-97.94"/>
<text text-anchor="middle" x="59.22" y="-114.31" font-family="Times,serif" font-size="14.00">a</text>
</g>
<!-- s3 -->
<g id="node4" class="node">
<title>s3</title>
<ellipse fill="none" stroke="black" cx="99.32" cy="-52.61" rx="19.11" ry="19.11"/>
<text text-anchor="middle" x="99.32" y="-47.56" font-family="Times,serif" font-size="14.00">s3</text>
</g>
<!-- s0&#45;&gt;s3 -->
<g id="edge10" class="edge">
<title>s0&#45;&gt;s3</title>
<path fill="none" stroke="black" d="M19.89,-322.38C19.66,-265.81 22,-101.52 56.22,-63.11 59.63,-59.27 64.22,-56.73 69.11,-55.07"/>
<polygon fill="black" stroke="black" points="69.47,-58.58 78.48,-53.01 67.96,-51.74 69.47,-58.58"/>
<text text-anchor="middle" x="59.22" y="-66.31" font-family="Times,serif" font-size="14.00">a</text>
</g>
<!-- s2&#45;&gt;s1 -->
<g id="edge16" class="edge">
<title>s2&#45;&gt;s1</title>
<path fill="none" stroke="black" d="M174.8,-98.84C198.33,-98.99 238.25,-103.39 255.61,-129.61 274.56,-158.22 286.93,-254.48 292.43,-306.89"/>
<polygon fill="black" stroke="black" points="288.94,-307.19 293.44,-316.78 295.91,-306.48 288.94,-307.19"/>
<text text-anchor="middle" x="211.75" y="-112.34" font-family="Times,serif" font-size="14.00">λ</text>
</g>
<!-- s4 -->
<g id="node5" class="node">
<title>s4</title>
<ellipse fill="none" stroke="black" cx="211.75" cy="-43.61" rx="19.11" ry="19.11"/>
<text text-anchor="middle" x="211.75" y="-38.56" font-family="Times,serif" font-size="14.00">s4</text>
</g>
<!-- s3&#45;&gt;s4 -->
<g id="edge17" class="edge">
<title>s3&#45;&gt;s4</title>
<path fill="none" stroke="black" d="M118.56,-51.12C135.58,-49.73 161.29,-47.64 181.23,-46.01"/>
<polygon fill="black" stroke="black" points="181.3,-49.52 190.98,-45.22 180.73,-42.54 181.3,-49.52"/>
<text text-anchor="middle" x="155.54" y="-52.64" font-family="Times,serif" font-size="14.00">a</text>
</g>
<!-- s4&#45;&gt;s1 -->
<g id="edge18" class="edge">
<title>s4&#45;&gt;s1</title>
<path fill="none" stroke="black" d="M230.41,-49.43C239.38,-53.31 249.62,-59.33 255.61,-68.11 281.7,-106.37 291.25,-242.37 294.37,-307.01"/>
<polygon fill="black" stroke="black" points="290.86,-306.86 294.81,-316.69 297.85,-306.55 290.86,-306.86"/>
<text text-anchor="middle" x="252.24" y="-71.31" font-family="Times,serif" font-size="14.00">λ</text>
</g>
</g>
</svg>
