<?xml version="1.0" encoding="UTF-8" standalone="no"?>
<!DOCTYPE svg PUBLIC "-//W3C//DTD SVG 1.1//EN"
 "http://www.w3.org/Graphics/SVG/1.1/DTD/svg11.dtd">
<!-- Generated by graphviz version 12.2.1 (20241206.2353)
 -->
<!-- Title: finite_state_machine Pages: 1 -->
<svg width="216pt" height="180pt"
 viewBox="0.00 0.00 216.15 180.38" xmlns="http://www.w3.org/2000/svg" xmlns:xlink="http://www.w3.org/1999/xlink">
<g id="graph0" class="graph" transform="scale(1 1) rotate(0) translate(4 176.38)">
<title>finite_state_machine</title>
<polygon fill="white" stroke="none" points="-4,4 -4,-176.38 212.15,-176.38 212.15,4 -4,4"/>
<text text-anchor="middle" x="104.07" y="-23.7" font-family="Times,serif" font-size="14.00">Regular Expression: </text>
<text text-anchor="middle" x="104.07" y="-7.2" font-family="Times,serif" font-size="14.00">xyzzy401</text>
<!-- s3 -->
<g id="node1" class="node">
<title>s3</title>
<ellipse fill="none" stroke="black" cx="104.07" cy="-120.11" rx="19.11" ry="19.11"/>
<ellipse fill="none" stroke="black" cx="104.07" cy="-120.11" rx="23.11" ry="23.11"/>
<text text-anchor="middle" x="104.07" y="-115.06" font-family="Times,serif" font-size="14.00">s3</text>
</g>
<!-- s0 -->
<g id="node2" class="node">
<title>s0</title>
<ellipse fill="none" stroke="black" cx="104.07" cy="-60.11" rx="19.11" ry="19.11"/>
<text text-anchor="middle" x="104.07" y="-55.06" font-family="Times,serif" font-size="14.00">s0</text>
</g>
<!-- s1 -->
<g id="node3" class="node">
<title>s1</title>
<ellipse fill="none" stroke="black" cx="189.04" cy="-120.11" rx="19.11" ry="19.11"/>
<text text-anchor="middle" x="189.04" y="-115.06" font-family="Times,serif" font-size="14.00">s1</text>
</g>
<!-- s0&#45;&gt;s1 -->
<g id="edge1" class="edge">
<title>s0&#45;&gt;s1</title>
<path fill="none" stroke="black" d="M120.29,-71.11C132.45,-79.91 149.73,-92.41 163.8,-102.58"/>
<polygon fill="black" stroke="black" points="161.54,-105.26 171.69,-108.29 165.64,-99.59 161.54,-105.26"/>
<text text-anchor="middle" x="148.56" y="-96.9" font-family="Times,serif" font-size="14.00">x</text>
</g>
<!-- s2 -->
<g id="node4" class="node">
<title>s2</title>
<ellipse fill="none" stroke="black" cx="19.11" cy="-120.11" rx="19.11" ry="19.11"/>
<text text-anchor="middle" x="19.11" y="-115.06" font-family="Times,serif" font-size="14.00">s2</text>
</g>
<!-- s1&#45;&gt;s2 -->
<g id="edge2" class="edge">
<title>s1&#45;&gt;s2</title>
<path fill="none" stroke="black" d="M172.87,-130.76C161.04,-138.38 143.87,-147.99 127.18,-152.11 96.19,-159.76 84.63,-155.63 56.22,-141.11 52.86,-139.39 49.37,-137.51 45.95,-135.59"/>
<polygon fill="black" stroke="black" points="47.8,-132.61 37.39,-130.65 44.3,-138.68 47.8,-132.61"/>
<text text-anchor="middle" x="104.07" y="-159.08" font-family="Times,serif" font-size="14.00">x</text>
</g>
<!-- s2&#45;&gt;s3 -->
<g id="edge4" class="edge">
<title>s2&#45;&gt;s3</title>
<path fill="none" stroke="black" d="M38.52,-120.11C47.54,-120.11 58.69,-120.11 69.17,-120.11"/>
<polygon fill="black" stroke="black" points="69.06,-123.61 79.06,-120.11 69.06,-116.61 69.06,-123.61"/>
<text text-anchor="middle" x="59.59" y="-123.31" font-family="Times,serif" font-size="14.00">τ</text>
</g>
<!-- s2&#45;&gt;s0 -->
<g id="edge3" class="edge">
<title>s2&#45;&gt;s0</title>
<path fill="none" stroke="black" d="M35.32,-109.1C47.49,-100.31 64.77,-87.81 78.83,-77.64"/>
<polygon fill="black" stroke="black" points="80.67,-80.63 86.73,-71.93 76.57,-74.95 80.67,-80.63"/>
<text text-anchor="middle" x="59.59" y="-96.9" font-family="Times,serif" font-size="14.00">λ</text>
</g>
</g>
</svg>
