<?xml version="1.0" encoding="UTF-8" standalone="no"?>
<!DOCTYPE svg PUBLIC "-//W3C//DTD SVG 1.1//EN"
 "http://www.w3.org/Graphics/SVG/1.1/DTD/svg11.dtd">
<!-- Generated by graphviz version 12.2.1 (20241206.2353)
 -->
<!-- Title: finite_state_machine Pages: 1 -->
<svg width="406pt" height="356pt"
 viewBox="0.00 0.00 405.71 356.21" xmlns="http://www.w3.org/2000/svg" xmlns:xlink="http://www.w3.org/1999/xlink">
<g id="graph0" class="graph" transform="scale(1 1) rotate(0) translate(4 352.21)">
<title>finite_state_machine</title>
<polygon fill="white" stroke="none" points="-4,4 -4,-352.21 401.71,-352.21 401.71,4 -4,4"/>
<!-- s12 -->
<g id="node1" class="node">
<title>s12</title>
<ellipse fill="none" stroke="black" cx="370" cy="-27.71" rx="23.71" ry="23.71"/>
<ellipse fill="none" stroke="black" cx="370" cy="-27.71" rx="27.71" ry="27.71"/>
<text text-anchor="middle" x="370" y="-22.66" font-family="Times,serif" font-size="14.00">s12</text>
</g>
<!-- s0 -->
<g id="node2" class="node">
<title>s0</title>
<ellipse fill="none" stroke="black" cx="100.07" cy="-182.71" rx="19.11" ry="19.11"/>
<text text-anchor="middle" x="100.07" y="-177.66" font-family="Times,serif" font-size="14.00">s0</text>
</g>
<!-- s2 -->
<g id="node3" class="node">
<title>s2</title>
<ellipse fill="none" stroke="black" cx="185.64" cy="-238.71" rx="19.11" ry="19.11"/>
<text text-anchor="middle" x="185.64" y="-233.66" font-family="Times,serif" font-size="14.00">s2</text>
</g>
<!-- s0&#45;&gt;s2 -->
<g id="edge1" class="edge">
<title>s0&#45;&gt;s2</title>
<path fill="none" stroke="black" d="M116.4,-192.99C128.58,-201.14 145.84,-212.71 159.96,-222.17"/>
<polygon fill="black" stroke="black" points="157.62,-224.82 167.87,-227.48 161.51,-219 157.62,-224.82"/>
<text text-anchor="middle" x="140.56" y="-213.91" font-family="Times,serif" font-size="14.00">a</text>
</g>
<!-- s4 -->
<g id="node4" class="node">
<title>s4</title>
<ellipse fill="none" stroke="black" cx="185.64" cy="-126.71" rx="19.11" ry="19.11"/>
<text text-anchor="middle" x="185.64" y="-121.66" font-family="Times,serif" font-size="14.00">s4</text>
</g>
<!-- s0&#45;&gt;s4 -->
<g id="edge2" class="edge">
<title>s0&#45;&gt;s4</title>
<path fill="none" stroke="black" d="M116.4,-172.44C128.58,-164.28 145.84,-152.71 159.96,-143.25"/>
<polygon fill="black" stroke="black" points="161.51,-146.43 167.87,-137.95 157.62,-140.61 161.51,-146.43"/>
<text text-anchor="middle" x="140.56" y="-161.27" font-family="Times,serif" font-size="14.00">b</text>
</g>
<!-- s6 -->
<g id="node5" class="node">
<title>s6</title>
<ellipse fill="none" stroke="black" cx="185.64" cy="-182.71" rx="19.11" ry="19.11"/>
<text text-anchor="middle" x="185.64" y="-177.66" font-family="Times,serif" font-size="14.00">s6</text>
</g>
<!-- s0&#45;&gt;s6 -->
<g id="edge3" class="edge">
<title>s0&#45;&gt;s6</title>
<path fill="none" stroke="black" d="M119.62,-182.71C130.01,-182.71 143.2,-182.71 154.99,-182.71"/>
<polygon fill="black" stroke="black" points="154.63,-186.21 164.63,-182.71 154.63,-179.21 154.63,-186.21"/>
<text text-anchor="middle" x="140.56" y="-185.91" font-family="Times,serif" font-size="14.00">c</text>
</g>
<!-- s1 -->
<g id="node6" class="node">
<title>s1</title>
<ellipse fill="none" stroke="black" cx="19.11" cy="-182.71" rx="19.11" ry="19.11"/>
<text text-anchor="middle" x="19.11" y="-177.66" font-family="Times,serif" font-size="14.00">s1</text>
</g>
<!-- s0&#45;&gt;s1 -->
<g id="edge4" class="edge">
<title>s0&#45;&gt;s1</title>
<path fill="none" stroke="black" d="M84.43,-171.15C76.34,-166.12 65.98,-161.86 56.22,-164.21 52.77,-165.05 49.28,-166.27 45.89,-167.69"/>
<polygon fill="black" stroke="black" points="44.45,-164.5 37.01,-172.04 47.53,-170.79 44.45,-164.5"/>
<text text-anchor="middle" x="59.59" y="-167.41" font-family="Times,serif" font-size="14.00">λ</text>
</g>
<!-- s3 -->
<g id="node8" class="node">
<title>s3</title>
<ellipse fill="none" stroke="black" cx="275.82" cy="-261.71" rx="19.11" ry="19.11"/>
<text text-anchor="middle" x="275.82" y="-256.66" font-family="Times,serif" font-size="14.00">s3</text>
</g>
<!-- s2&#45;&gt;s3 -->
<g id="edge7" class="edge">
<title>s2&#45;&gt;s3</title>
<path fill="none" stroke="black" d="M204.49,-243.37C216.44,-246.49 232.44,-250.66 246.16,-254.24"/>
<polygon fill="black" stroke="black" points="244.98,-257.55 255.54,-256.68 246.75,-250.77 244.98,-257.55"/>
<text text-anchor="middle" x="230.73" y="-254.1" font-family="Times,serif" font-size="14.00">a</text>
</g>
<!-- s5 -->
<g id="node9" class="node">
<title>s5</title>
<ellipse fill="none" stroke="black" cx="275.82" cy="-104.71" rx="19.11" ry="19.11"/>
<text text-anchor="middle" x="275.82" y="-99.66" font-family="Times,serif" font-size="14.00">s5</text>
</g>
<!-- s4&#45;&gt;s5 -->
<g id="edge9" class="edge">
<title>s4&#45;&gt;s5</title>
<path fill="none" stroke="black" d="M204.49,-122.26C216.44,-119.28 232.44,-115.29 246.16,-111.87"/>
<polygon fill="black" stroke="black" points="246.68,-115.34 255.54,-109.53 244.99,-108.55 246.68,-115.34"/>
<text text-anchor="middle" x="230.73" y="-119.57" font-family="Times,serif" font-size="14.00">b</text>
</g>
<!-- s7 -->
<g id="node10" class="node">
<title>s7</title>
<ellipse fill="none" stroke="black" cx="275.82" cy="-199.71" rx="19.11" ry="19.11"/>
<text text-anchor="middle" x="275.82" y="-194.66" font-family="Times,serif" font-size="14.00">s7</text>
</g>
<!-- s6&#45;&gt;s7 -->
<g id="edge11" class="edge">
<title>s6&#45;&gt;s7</title>
<path fill="none" stroke="black" d="M204.91,-186.24C216.62,-188.49 232.07,-191.47 245.47,-194.06"/>
<polygon fill="black" stroke="black" points="244.61,-197.45 255.09,-195.91 245.93,-190.58 244.61,-197.45"/>
<text text-anchor="middle" x="230.73" y="-194.92" font-family="Times,serif" font-size="14.00">c</text>
</g>
<!-- s1&#45;&gt;s0 -->
<g id="edge5" class="edge">
<title>s1&#45;&gt;s0</title>
<path fill="none" stroke="black" d="M38.42,-182.71C47.53,-182.71 58.76,-182.71 69.08,-182.71"/>
<polygon fill="black" stroke="black" points="69.07,-186.21 79.07,-182.71 69.07,-179.21 69.07,-186.21"/>
<text text-anchor="middle" x="59.59" y="-185.91" font-family="Times,serif" font-size="14.00">λ</text>
</g>
<!-- s9 -->
<g id="node7" class="node">
<title>s9</title>
<ellipse fill="none" stroke="black" cx="100.07" cy="-31.71" rx="19.11" ry="19.11"/>
<text text-anchor="middle" x="100.07" y="-26.66" font-family="Times,serif" font-size="14.00">s9</text>
</g>
<!-- s1&#45;&gt;s9 -->
<g id="edge6" class="edge">
<title>s1&#45;&gt;s9</title>
<path fill="none" stroke="black" d="M20.18,-163.44C21.31,-135.03 27.44,-81.78 56.22,-49.21 60.11,-44.81 65.27,-41.49 70.67,-39"/>
<polygon fill="black" stroke="black" points="71.46,-42.44 79.62,-35.69 69.03,-35.88 71.46,-42.44"/>
<text text-anchor="middle" x="59.59" y="-52.41" font-family="Times,serif" font-size="14.00">τ</text>
</g>
<!-- s10 -->
<g id="node12" class="node">
<title>s10</title>
<ellipse fill="none" stroke="black" cx="185.64" cy="-27.71" rx="23.71" ry="23.71"/>
<text text-anchor="middle" x="185.64" y="-22.66" font-family="Times,serif" font-size="14.00">s10</text>
</g>
<!-- s9&#45;&gt;s10 -->
<g id="edge14" class="edge">
<title>s9&#45;&gt;s10</title>
<path fill="none" stroke="black" d="M119.62,-30.83C128.63,-30.39 139.76,-29.86 150.25,-29.36"/>
<polygon fill="black" stroke="black" points="150.34,-32.86 160.16,-28.89 150.01,-25.87 150.34,-32.86"/>
<text text-anchor="middle" x="140.56" y="-33.15" font-family="Times,serif" font-size="14.00">a</text>
</g>
<!-- s3&#45;&gt;s1 -->
<g id="edge8" class="edge">
<title>s3&#45;&gt;s1</title>
<path fill="none" stroke="black" d="M257.16,-267.04C250.06,-268.91 241.77,-270.79 234.11,-271.71 202.18,-275.58 192.6,-276.39 161.93,-266.71 116.72,-252.46 70.63,-221.48 43.74,-201.39"/>
<polygon fill="black" stroke="black" points="46.01,-198.72 35.94,-195.45 41.77,-204.29 46.01,-198.72"/>
<text text-anchor="middle" x="140.56" y="-262.87" font-family="Times,serif" font-size="14.00">λ</text>
</g>
<!-- s5&#45;&gt;s1 -->
<g id="edge10" class="edge">
<title>s5&#45;&gt;s1</title>
<path fill="none" stroke="black" d="M256.87,-100.38C234.29,-95.69 194.54,-89.98 161.93,-98.71 115.89,-111.04 69.73,-142.88 43.09,-163.63"/>
<polygon fill="black" stroke="black" points="41.02,-160.8 35.38,-169.77 45.38,-166.28 41.02,-160.8"/>
<text text-anchor="middle" x="140.56" y="-110.14" font-family="Times,serif" font-size="14.00">λ</text>
</g>
<!-- s8 -->
<g id="node11" class="node">
<title>s8</title>
<ellipse fill="none" stroke="black" cx="370" cy="-302.71" rx="19.11" ry="19.11"/>
<text text-anchor="middle" x="370" y="-297.66" font-family="Times,serif" font-size="14.00">s8</text>
</g>
<!-- s7&#45;&gt;s8 -->
<g id="edge12" class="edge">
<title>s7&#45;&gt;s8</title>
<path fill="none" stroke="black" d="M289.25,-213.6C304.58,-230.73 330.82,-260.05 348.99,-280.36"/>
<polygon fill="black" stroke="black" points="346.18,-282.47 355.46,-287.59 351.4,-277.8 346.18,-282.47"/>
<text text-anchor="middle" x="320.91" y="-254.41" font-family="Times,serif" font-size="14.00">c</text>
</g>
<!-- s8&#45;&gt;s1 -->
<g id="edge13" class="edge">
<title>s8&#45;&gt;s1</title>
<path fill="none" stroke="black" d="M352.5,-311.26C334.43,-319.81 304.33,-331.71 276.82,-331.71 99.07,-331.71 99.07,-331.71 99.07,-331.71 45.95,-331.71 28.46,-256.87 22.78,-213.27"/>
<polygon fill="black" stroke="black" points="26.27,-212.93 21.65,-203.39 19.31,-213.73 26.27,-212.93"/>
<text text-anchor="middle" x="185.64" y="-334.91" font-family="Times,serif" font-size="14.00">λ</text>
</g>
<!-- s11 -->
<g id="node13" class="node">
<title>s11</title>
<ellipse fill="none" stroke="black" cx="275.82" cy="-27.71" rx="23.71" ry="23.71"/>
<text text-anchor="middle" x="275.82" y="-22.66" font-family="Times,serif" font-size="14.00">s11</text>
</g>
<!-- s10&#45;&gt;s11 -->
<g id="edge15" class="edge">
<title>s10&#45;&gt;s11</title>
<path fill="none" stroke="black" d="M209.81,-27.71C219.23,-27.71 230.3,-27.71 240.62,-27.71"/>
<polygon fill="black" stroke="black" points="240.29,-31.21 250.29,-27.71 240.29,-24.21 240.29,-31.21"/>
<text text-anchor="middle" x="230.73" y="-30.91" font-family="Times,serif" font-size="14.00">b</text>
</g>
<!-- s11&#45;&gt;s12 -->
<g id="edge16" class="edge">
<title>s11&#45;&gt;s12</title>
<path fill="none" stroke="black" d="M299.61,-27.71C308.9,-27.71 319.92,-27.71 330.4,-27.71"/>
<polygon fill="black" stroke="black" points="330.37,-31.21 340.37,-27.71 330.37,-24.21 330.37,-31.21"/>
<text text-anchor="middle" x="320.91" y="-30.91" font-family="Times,serif" font-size="14.00">b</text>
</g>
</g>
</svg>
