<?xml version="1.0" encoding="UTF-8" standalone="no"?>
<!DOCTYPE svg PUBLIC "-//W3C//DTD SVG 1.1//EN"
 "http://www.w3.org/Graphics/SVG/1.1/DTD/svg11.dtd">
<!-- Generated by graphviz version 2.38.0 (20140413.2041)
 -->
<!-- Title: finite_state_machine Pages: 1 -->
<svg width="388pt" height="52pt"
 viewBox="0.00 0.00 388.21 52.00" xmlns="http://www.w3.org/2000/svg" xmlns:xlink="http://www.w3.org/1999/xlink">
<g id="graph0" class="graph" transform="scale(1 1) rotate(0) translate(4 48)">
<title>finite_state_machine</title>
<polygon fill="white" stroke="none" points="-4,4 -4,-48 384.214,-48 384.214,4 -4,4"/>
<!-- s4 -->
<g id="node1" class="node"><title>s4</title>
<ellipse fill="none" stroke="black" cx="358.214" cy="-22" rx="18" ry="18"/>
<ellipse fill="none" stroke="black" cx="358.214" cy="-22" rx="22" ry="22"/>
<text text-anchor="middle" x="358.214" y="-17.8" font-family="Times,serif" font-size="14.00">s4</text>
</g>
<!-- s0 -->
<g id="node2" class="node"><title>s0</title>
<ellipse fill="none" stroke="black" cx="18" cy="-22" rx="18" ry="18"/>
<text text-anchor="middle" x="18" y="-17.8" font-family="Times,serif" font-size="14.00">s0</text>
</g>
<!-- s1 -->
<g id="node3" class="node"><title>s1</title>
<ellipse fill="none" stroke="black" cx="118" cy="-22" rx="18" ry="18"/>
<text text-anchor="middle" x="118" y="-17.8" font-family="Times,serif" font-size="14.00">s1</text>
</g>
<!-- s0&#45;&gt;s1 -->
<g id="edge1" class="edge"><title>s0&#45;&gt;s1</title>
<path fill="none" stroke="black" d="M36.0703,-22C50.8752,-22 72.568,-22 89.7688,-22"/>
<polygon fill="black" stroke="black" points="89.7965,-25.5001 99.7965,-22 89.7965,-18.5001 89.7965,-25.5001"/>
<text text-anchor="middle" x="68" y="-24.8" font-family="Times,serif" font-size="14.00">BOL</text>
</g>
<!-- s2 -->
<g id="node4" class="node"><title>s2</title>
<ellipse fill="none" stroke="black" cx="196.214" cy="-22" rx="18" ry="18"/>
<text text-anchor="middle" x="196.214" y="-17.8" font-family="Times,serif" font-size="14.00">s2</text>
</g>
<!-- s1&#45;&gt;s2 -->
<g id="edge2" class="edge"><title>s1&#45;&gt;s2</title>
<path fill="none" stroke="black" d="M136.294,-22C145.649,-22 157.417,-22 167.972,-22"/>
<polygon fill="black" stroke="black" points="167.988,-25.5001 177.988,-22 167.988,-18.5001 167.988,-25.5001"/>
<text text-anchor="middle" x="157.107" y="-24.8" font-family="Times,serif" font-size="14.00">a</text>
</g>
<!-- s3 -->
<g id="node5" class="node"><title>s3</title>
<ellipse fill="none" stroke="black" cx="275.214" cy="-22" rx="18" ry="18"/>
<text text-anchor="middle" x="275.214" y="-17.8" font-family="Times,serif" font-size="14.00">s3</text>
</g>
<!-- s2&#45;&gt;s3 -->
<g id="edge3" class="edge"><title>s2&#45;&gt;s3</title>
<path fill="none" stroke="black" d="M214.303,-22C223.873,-22 236.031,-22 246.89,-22"/>
<polygon fill="black" stroke="black" points="247.173,-25.5001 257.173,-22 247.173,-18.5001 247.173,-25.5001"/>
<text text-anchor="middle" x="235.714" y="-24.8" font-family="Times,serif" font-size="14.00">b</text>
</g>
<!-- s3&#45;&gt;s4 -->
<g id="edge4" class="edge"><title>s3&#45;&gt;s4</title>
<path fill="none" stroke="black" d="M293.392,-22C302.823,-22 314.815,-22 325.851,-22"/>
<polygon fill="black" stroke="black" points="326.025,-25.5001 336.025,-22 326.025,-18.5001 326.025,-25.5001"/>
<text text-anchor="middle" x="314.714" y="-24.8" font-family="Times,serif" font-size="14.00">b</text>
</g>
</g>
</svg>
