<?xml version="1.0" encoding="UTF-8" standalone="no"?>
<!DOCTYPE svg PUBLIC "-//W3C//DTD SVG 1.1//EN"
 "http://www.w3.org/Graphics/SVG/1.1/DTD/svg11.dtd">
<!-- Generated by graphviz version 12.2.1 (20241206.2353)
 -->
<!-- Title: finite_state_machine Pages: 1 -->
<svg width="378pt" height="197pt"
 viewBox="0.00 0.00 378.08 196.78" xmlns="http://www.w3.org/2000/svg" xmlns:xlink="http://www.w3.org/1999/xlink">
<g id="graph0" class="graph" transform="scale(1 1) rotate(0) translate(4 192.78)">
<title>finite_state_machine</title>
<polygon fill="white" stroke="none" points="-4,4 -4,-192.78 374.08,-192.78 374.08,4 -4,4"/>
<!-- s7 -->
<g id="node1" class="node">
<title>s7</title>
<ellipse fill="none" stroke="black" cx="346.97" cy="-23.11" rx="19.11" ry="19.11"/>
<ellipse fill="none" stroke="black" cx="346.97" cy="-23.11" rx="23.11" ry="23.11"/>
<text text-anchor="middle" x="346.97" y="-18.06" font-family="Times,serif" font-size="14.00">s7</text>
</g>
<!-- s0 -->
<g id="node2" class="node">
<title>s0</title>
<ellipse fill="none" stroke="black" cx="100.07" cy="-132.11" rx="19.11" ry="19.11"/>
<text text-anchor="middle" x="100.07" y="-127.06" font-family="Times,serif" font-size="14.00">s0</text>
</g>
<!-- s2 -->
<g id="node3" class="node">
<title>s2</title>
<ellipse fill="none" stroke="black" cx="181.04" cy="-100.11" rx="19.11" ry="19.11"/>
<text text-anchor="middle" x="181.04" y="-95.06" font-family="Times,serif" font-size="14.00">s2</text>
</g>
<!-- s0&#45;&gt;s2 -->
<g id="edge1" class="edge">
<title>s0&#45;&gt;s2</title>
<path fill="none" stroke="black" d="M117.85,-124.1C123.89,-121.3 130.8,-118.21 137.18,-115.61 141.92,-113.67 147.01,-111.72 151.96,-109.89"/>
<polygon fill="black" stroke="black" points="152.76,-113.32 160.98,-106.64 150.38,-106.74 152.76,-113.32"/>
<text text-anchor="middle" x="140.56" y="-118.81" font-family="Times,serif" font-size="14.00">x</text>
</g>
<!-- s3 -->
<g id="node4" class="node">
<title>s3</title>
<ellipse fill="none" stroke="black" cx="181.04" cy="-166.11" rx="19.11" ry="19.11"/>
<text text-anchor="middle" x="181.04" y="-161.06" font-family="Times,serif" font-size="14.00">s3</text>
</g>
<!-- s0&#45;&gt;s3 -->
<g id="edge2" class="edge">
<title>s0&#45;&gt;s3</title>
<path fill="none" stroke="black" d="M118.21,-139.48C128.24,-143.81 141.15,-149.37 152.58,-154.29"/>
<polygon fill="black" stroke="black" points="150.98,-157.41 161.55,-158.15 153.75,-150.98 150.98,-157.41"/>
<text text-anchor="middle" x="140.56" y="-153.33" font-family="Times,serif" font-size="14.00">y</text>
</g>
<!-- s1 -->
<g id="node5" class="node">
<title>s1</title>
<ellipse fill="none" stroke="black" cx="19.11" cy="-111.11" rx="19.11" ry="19.11"/>
<text text-anchor="middle" x="19.11" y="-106.06" font-family="Times,serif" font-size="14.00">s1</text>
</g>
<!-- s0&#45;&gt;s1 -->
<g id="edge3" class="edge">
<title>s0&#45;&gt;s1</title>
<path fill="none" stroke="black" d="M83.56,-121.7C77.42,-118.13 70.12,-114.55 62.97,-112.61 58.77,-111.47 54.25,-110.77 49.78,-110.37"/>
<polygon fill="black" stroke="black" points="49.96,-106.88 39.83,-109.98 49.68,-113.87 49.96,-106.88"/>
<text text-anchor="middle" x="59.59" y="-115.81" font-family="Times,serif" font-size="14.00">λ</text>
</g>
<!-- s2&#45;&gt;s1 -->
<g id="edge6" class="edge">
<title>s2&#45;&gt;s1</title>
<path fill="none" stroke="black" d="M162.4,-94.6C142.51,-89.16 109.26,-82.33 80.97,-87.61 69.52,-89.74 57.45,-93.95 47.11,-98.23"/>
<polygon fill="black" stroke="black" points="45.81,-94.97 38.05,-102.19 48.62,-101.38 45.81,-94.97"/>
<text text-anchor="middle" x="100.07" y="-90.81" font-family="Times,serif" font-size="14.00">λ</text>
</g>
<!-- s3&#45;&gt;s1 -->
<g id="edge7" class="edge">
<title>s3&#45;&gt;s1</title>
<path fill="none" stroke="black" d="M161.72,-169.14C156.04,-169.95 149.74,-170.71 143.93,-171.11 104.04,-173.86 89.38,-173.44 56.22,-151.11 49.65,-146.68 43.47,-140.81 38.15,-134.93"/>
<polygon fill="black" stroke="black" points="41.12,-133.02 32,-127.64 35.77,-137.54 41.12,-133.02"/>
<text text-anchor="middle" x="100.07" y="-175.48" font-family="Times,serif" font-size="14.00">λ</text>
</g>
<!-- s1&#45;&gt;s0 -->
<g id="edge4" class="edge">
<title>s1&#45;&gt;s0</title>
<path fill="none" stroke="black" d="M36.1,-120.77C42.19,-123.99 49.32,-127.23 56.22,-129.11 60.42,-130.25 64.94,-131.03 69.41,-131.55"/>
<polygon fill="black" stroke="black" points="69.14,-135.04 79.37,-132.29 69.65,-128.06 69.14,-135.04"/>
<text text-anchor="middle" x="59.59" y="-133.61" font-family="Times,serif" font-size="14.00">λ</text>
</g>
<!-- s4 -->
<g id="node6" class="node">
<title>s4</title>
<ellipse fill="none" stroke="black" cx="100.07" cy="-23.11" rx="19.11" ry="19.11"/>
<text text-anchor="middle" x="100.07" y="-18.06" font-family="Times,serif" font-size="14.00">s4</text>
</g>
<!-- s1&#45;&gt;s4 -->
<g id="edge5" class="edge">
<title>s1&#45;&gt;s4</title>
<path fill="none" stroke="black" d="M27.13,-93.27C33.23,-79.53 43.14,-60.72 56.22,-47.61 60.83,-42.98 66.5,-38.94 72.18,-35.54"/>
<polygon fill="black" stroke="black" points="73.74,-38.68 80.88,-30.85 70.41,-32.52 73.74,-38.68"/>
<text text-anchor="middle" x="59.59" y="-50.81" font-family="Times,serif" font-size="14.00">τ</text>
</g>
<!-- s5 -->
<g id="node7" class="node">
<title>s5</title>
<ellipse fill="none" stroke="black" cx="181.04" cy="-23.11" rx="19.11" ry="19.11"/>
<text text-anchor="middle" x="181.04" y="-18.06" font-family="Times,serif" font-size="14.00">s5</text>
</g>
<!-- s4&#45;&gt;s5 -->
<g id="edge8" class="edge">
<title>s4&#45;&gt;s5</title>
<path fill="none" stroke="black" d="M119.39,-23.11C128.49,-23.11 139.73,-23.11 150.04,-23.11"/>
<polygon fill="black" stroke="black" points="150.04,-26.61 160.04,-23.11 150.04,-19.61 150.04,-26.61"/>
<text text-anchor="middle" x="140.56" y="-26.31" font-family="Times,serif" font-size="14.00">a</text>
</g>
<!-- s6 -->
<g id="node8" class="node">
<title>s6</title>
<ellipse fill="none" stroke="black" cx="262" cy="-23.11" rx="19.11" ry="19.11"/>
<text text-anchor="middle" x="262" y="-18.06" font-family="Times,serif" font-size="14.00">s6</text>
</g>
<!-- s5&#45;&gt;s6 -->
<g id="edge9" class="edge">
<title>s5&#45;&gt;s6</title>
<path fill="none" stroke="black" d="M200.35,-23.11C209.46,-23.11 220.69,-23.11 231.01,-23.11"/>
<polygon fill="black" stroke="black" points="231,-26.61 241,-23.11 231,-19.61 231,-26.61"/>
<text text-anchor="middle" x="221.52" y="-26.31" font-family="Times,serif" font-size="14.00">b</text>
</g>
<!-- s6&#45;&gt;s7 -->
<g id="edge10" class="edge">
<title>s6&#45;&gt;s7</title>
<path fill="none" stroke="black" d="M281.42,-23.11C290.43,-23.11 301.58,-23.11 312.07,-23.11"/>
<polygon fill="black" stroke="black" points="311.95,-26.61 321.95,-23.11 311.95,-19.61 311.95,-26.61"/>
<text text-anchor="middle" x="302.49" y="-26.31" font-family="Times,serif" font-size="14.00">b</text>
</g>
</g>
</svg>
