<?xml version="1.0" encoding="UTF-8" standalone="no"?>
<!DOCTYPE svg PUBLIC "-//W3C//DTD SVG 1.1//EN"
 "http://www.w3.org/Graphics/SVG/1.1/DTD/svg11.dtd">
<!-- Generated by graphviz version 12.2.1 (20241206.2353)
 -->
<!-- Title: finite_state_machine Pages: 1 -->
<svg width="398pt" height="79pt"
 viewBox="0.00 0.00 397.58 78.72" xmlns="http://www.w3.org/2000/svg" xmlns:xlink="http://www.w3.org/1999/xlink">
<g id="graph0" class="graph" transform="scale(1 1) rotate(0) translate(4 74.72)">
<title>finite_state_machine</title>
<polygon fill="white" stroke="none" points="-4,4 -4,-74.72 393.58,-74.72 393.58,4 -4,4"/>
<text text-anchor="middle" x="194.79" y="-7.2" font-family="Times,serif" font-size="14.00">Regular Expression: ^abb</text>
<!-- s4 -->
<g id="node1" class="node">
<title>s4</title>
<ellipse fill="none" stroke="black" cx="366.47" cy="-47.61" rx="19.11" ry="19.11"/>
<ellipse fill="none" stroke="black" cx="366.47" cy="-47.61" rx="23.11" ry="23.11"/>
<text text-anchor="middle" x="366.47" y="-42.56" font-family="Times,serif" font-size="14.00">s4</text>
</g>
<!-- s0 -->
<g id="node2" class="node">
<title>s0</title>
<ellipse fill="none" stroke="black" cx="19.11" cy="-47.61" rx="19.11" ry="19.11"/>
<text text-anchor="middle" x="19.11" y="-42.56" font-family="Times,serif" font-size="14.00">s0</text>
</g>
<!-- s1 -->
<g id="node3" class="node">
<title>s1</title>
<ellipse fill="none" stroke="black" cx="120.32" cy="-47.61" rx="19.11" ry="19.11"/>
<text text-anchor="middle" x="120.32" y="-42.56" font-family="Times,serif" font-size="14.00">s1</text>
</g>
<!-- s0&#45;&gt;s1 -->
<g id="edge1" class="edge">
<title>s0&#45;&gt;s1</title>
<path fill="none" stroke="black" d="M38.31,-47.61C52.62,-47.61 72.86,-47.61 89.53,-47.61"/>
<polygon fill="black" stroke="black" points="89.39,-51.11 99.39,-47.61 89.39,-44.11 89.39,-51.11"/>
<text text-anchor="middle" x="69.72" y="-50.81" font-family="Times,serif" font-size="14.00">BOL</text>
</g>
<!-- s2 -->
<g id="node4" class="node">
<title>s2</title>
<ellipse fill="none" stroke="black" cx="200.54" cy="-47.61" rx="19.11" ry="19.11"/>
<text text-anchor="middle" x="200.54" y="-42.56" font-family="Times,serif" font-size="14.00">s2</text>
</g>
<!-- s1&#45;&gt;s2 -->
<g id="edge2" class="edge">
<title>s1&#45;&gt;s2</title>
<path fill="none" stroke="black" d="M139.86,-47.61C148.82,-47.61 159.8,-47.61 169.88,-47.61"/>
<polygon fill="black" stroke="black" points="169.62,-51.11 179.62,-47.61 169.62,-44.11 169.62,-51.11"/>
<text text-anchor="middle" x="160.43" y="-50.81" font-family="Times,serif" font-size="14.00">a</text>
</g>
<!-- s3 -->
<g id="node5" class="node">
<title>s3</title>
<ellipse fill="none" stroke="black" cx="281.5" cy="-47.61" rx="19.11" ry="19.11"/>
<text text-anchor="middle" x="281.5" y="-42.56" font-family="Times,serif" font-size="14.00">s3</text>
</g>
<!-- s2&#45;&gt;s3 -->
<g id="edge3" class="edge">
<title>s2&#45;&gt;s3</title>
<path fill="none" stroke="black" d="M219.85,-47.61C228.96,-47.61 240.19,-47.61 250.51,-47.61"/>
<polygon fill="black" stroke="black" points="250.5,-51.11 260.5,-47.61 250.5,-44.11 250.5,-51.11"/>
<text text-anchor="middle" x="241.02" y="-50.81" font-family="Times,serif" font-size="14.00">b</text>
</g>
<!-- s3&#45;&gt;s4 -->
<g id="edge4" class="edge">
<title>s3&#45;&gt;s4</title>
<path fill="none" stroke="black" d="M300.92,-47.61C309.93,-47.61 321.08,-47.61 331.57,-47.61"/>
<polygon fill="black" stroke="black" points="331.45,-51.11 341.45,-47.61 331.45,-44.11 331.45,-51.11"/>
<text text-anchor="middle" x="321.99" y="-50.81" font-family="Times,serif" font-size="14.00">b</text>
</g>
</g>
</svg>
