<?xml version="1.0" encoding="UTF-8" standalone="no"?>
<!DOCTYPE svg PUBLIC "-//W3C//DTD SVG 1.1//EN"
 "http://www.w3.org/Graphics/SVG/1.1/DTD/svg11.dtd">
<!-- Generated by graphviz version 2.38.0 (20140413.2041)
 -->
<!-- Title: finite_state_machine Pages: 1 -->
<svg width="210pt" height="98pt"
 viewBox="0.00 0.00 210.00 98.00" xmlns="http://www.w3.org/2000/svg" xmlns:xlink="http://www.w3.org/1999/xlink">
<g id="graph0" class="graph" transform="scale(1 1) rotate(0) translate(4 94)">
<title>finite_state_machine</title>
<polygon fill="white" stroke="none" points="-4,4 -4,-94 206,-94 206,4 -4,4"/>
<!-- s1 -->
<g id="node1" class="node"><title>s1</title>
<ellipse fill="none" stroke="black" cx="180" cy="-44" rx="18" ry="18"/>
<ellipse fill="none" stroke="black" cx="180" cy="-44" rx="22" ry="22"/>
<text text-anchor="middle" x="180" y="-39.8" font-family="Times,serif" font-size="14.00">s1</text>
</g>
<!-- s0 -->
<g id="node2" class="node"><title>s0</title>
<ellipse fill="none" stroke="black" cx="18" cy="-46" rx="18" ry="18"/>
<text text-anchor="middle" x="18" y="-41.8" font-family="Times,serif" font-size="14.00">s0</text>
</g>
<!-- s2 -->
<g id="node3" class="node"><title>s2</title>
<ellipse fill="none" stroke="black" cx="97" cy="-72" rx="18" ry="18"/>
<text text-anchor="middle" x="97" y="-67.8" font-family="Times,serif" font-size="14.00">s2</text>
</g>
<!-- s0&#45;&gt;s2 -->
<g id="edge1" class="edge"><title>s0&#45;&gt;s2</title>
<path fill="none" stroke="black" d="M35.3297,-51.5139C45.4364,-54.9266 58.635,-59.3832 70.1398,-63.268"/>
<polygon fill="black" stroke="black" points="69.0996,-66.6108 79.6938,-66.494 71.3391,-59.9787 69.0996,-66.6108"/>
<text text-anchor="middle" x="57.5" y="-61.8" font-family="Times,serif" font-size="14.00">a</text>
</g>
<!-- s3 -->
<g id="node4" class="node"><title>s3</title>
<ellipse fill="none" stroke="black" cx="97" cy="-18" rx="18" ry="18"/>
<text text-anchor="middle" x="97" y="-13.8" font-family="Times,serif" font-size="14.00">s3</text>
</g>
<!-- s0&#45;&gt;s3 -->
<g id="edge2" class="edge"><title>s0&#45;&gt;s3</title>
<path fill="none" stroke="black" d="M35.3297,-40.0619C45.5046,-36.3619 58.8135,-31.5224 70.3728,-27.319"/>
<polygon fill="black" stroke="black" points="71.756,-30.5403 79.9579,-23.8335 69.3638,-23.9617 71.756,-30.5403"/>
<text text-anchor="middle" x="57.5" y="-34.8" font-family="Times,serif" font-size="14.00">b</text>
</g>
<!-- s2&#45;&gt;s1 -->
<g id="edge3" class="edge"><title>s2&#45;&gt;s1</title>
<path fill="none" stroke="black" d="M114.392,-66.3338C124.432,-62.8632 137.579,-58.3182 149.392,-54.2349"/>
<polygon fill="black" stroke="black" points="150.595,-57.5223 158.903,-50.9472 148.308,-50.9064 150.595,-57.5223"/>
<text text-anchor="middle" x="136.5" y="-61.8" font-family="Times,serif" font-size="14.00">λ</text>
</g>
<!-- s3&#45;&gt;s1 -->
<g id="edge4" class="edge"><title>s3&#45;&gt;s1</title>
<path fill="none" stroke="black" d="M114.381,-22.9807C122.157,-25.3677 131.57,-28.2908 140,-31 142.962,-31.952 146.046,-32.9567 149.125,-33.9686"/>
<polygon fill="black" stroke="black" points="148.192,-37.3465 158.785,-37.1697 150.394,-30.7018 148.192,-37.3465"/>
<text text-anchor="middle" x="136.5" y="-33.8" font-family="Times,serif" font-size="14.00">λ</text>
</g>
</g>
</svg>
