<?xml version="1.0" encoding="UTF-8" standalone="no"?>
<!DOCTYPE svg PUBLIC "-//W3C//DTD SVG 1.1//EN"
 "http://www.w3.org/Graphics/SVG/1.1/DTD/svg11.dtd">
<!-- Generated by graphviz version 2.38.0 (20140413.2041)
 -->
<!-- Title: finite_state_machine Pages: 1 -->
<svg width="576pt" height="134pt"
 viewBox="0.00 0.00 576.00 133.67" xmlns="http://www.w3.org/2000/svg" xmlns:xlink="http://www.w3.org/1999/xlink">
<g id="graph0" class="graph" transform="scale(0.526265 0.526265) rotate(0) translate(4 250)">
<title>finite_state_machine</title>
<polygon fill="white" stroke="none" points="-4,4 -4,-250 1090.51,-250 1090.51,4 -4,4"/>
<!-- s15 -->
<g id="node1" class="node"><title>s15</title>
<ellipse fill="none" stroke="black" cx="1060.11" cy="-146" rx="22.3004" ry="22.3004"/>
<ellipse fill="none" stroke="black" cx="1060.11" cy="-146" rx="26.2841" ry="26.2841"/>
<text text-anchor="middle" x="1060.11" y="-141.8" font-family="Times,serif" font-size="14.00">s15</text>
</g>
<!-- s0 -->
<g id="node2" class="node"><title>s0</title>
<ellipse fill="none" stroke="black" cx="108.662" cy="-82" rx="18" ry="18"/>
<text text-anchor="middle" x="108.662" y="-77.8" font-family="Times,serif" font-size="14.00">s0</text>
</g>
<!-- s1 -->
<g id="node3" class="node"><title>s1</title>
<ellipse fill="none" stroke="black" cx="18" cy="-68" rx="18" ry="18"/>
<text text-anchor="middle" x="18" y="-63.8" font-family="Times,serif" font-size="14.00">s1</text>
</g>
<!-- s0&#45;&gt;s1 -->
<g id="edge1" class="edge"><title>s0&#45;&gt;s1</title>
<path fill="none" stroke="black" d="M90.6196,-79.3089C77.9994,-77.3162 60.55,-74.5609 46.0348,-72.2689"/>
<polygon fill="black" stroke="black" points="46.5185,-68.802 36.0949,-70.6993 45.4266,-75.7163 46.5185,-68.802"/>
<text text-anchor="middle" x="63.3311" y="-78.8" font-family="Times,serif" font-size="14.00">0&#45;9</text>
</g>
<!-- s0&#45;&gt;s1 -->
<g id="edge2" class="edge"><title>s0&#45;&gt;s1</title>
<path fill="none" stroke="black" d="M95.5877,-69.4684C89.3393,-63.8867 81.2335,-57.9219 72.6621,-55 63.3338,-51.8201 52.843,-53.2911 43.6279,-56.1903"/>
<polygon fill="black" stroke="black" points="42.3567,-52.929 34.2447,-59.7442 44.8362,-59.4752 42.3567,-52.929"/>
<text text-anchor="middle" x="63.3311" y="-57.8" font-family="Times,serif" font-size="14.00">λ</text>
</g>
<!-- s1&#45;&gt;s0 -->
<g id="edge3" class="edge"><title>s1&#45;&gt;s0</title>
<path fill="none" stroke="black" d="M31.4742,-80.3486C37.6958,-85.6455 45.6636,-91.2424 54,-94 63.2192,-97.0496 73.5842,-95.7812 82.7289,-93.1448"/>
<polygon fill="black" stroke="black" points="84.1344,-96.3608 92.409,-89.7441 81.8142,-89.7565 84.1344,-96.3608"/>
<text text-anchor="middle" x="63.3311" y="-97.8" font-family="Times,serif" font-size="14.00">λ</text>
</g>
<!-- s2 -->
<g id="node4" class="node"><title>s2</title>
<ellipse fill="none" stroke="black" cx="108.662" cy="-18" rx="18" ry="18"/>
<text text-anchor="middle" x="108.662" y="-13.8" font-family="Times,serif" font-size="14.00">s2</text>
</g>
<!-- s1&#45;&gt;s2 -->
<g id="edge4" class="edge"><title>s1&#45;&gt;s2</title>
<path fill="none" stroke="black" d="M30.615,-55.0649C36.9897,-48.6029 45.3444,-41.0965 54,-36 62.3671,-31.0734 72.2699,-27.2683 81.2763,-24.4529"/>
<polygon fill="black" stroke="black" points="82.284,-27.8051 90.9343,-21.6877 80.3572,-21.0754 82.284,-27.8051"/>
<text text-anchor="middle" x="63.3311" y="-38.8" font-family="Times,serif" font-size="14.00">τ</text>
</g>
<!-- s3 -->
<g id="node5" class="node"><title>s3</title>
<ellipse fill="none" stroke="black" cx="199.324" cy="-80" rx="18" ry="18"/>
<text text-anchor="middle" x="199.324" y="-75.8" font-family="Times,serif" font-size="14.00">s3</text>
</g>
<!-- s2&#45;&gt;s3 -->
<g id="edge5" class="edge"><title>s2&#45;&gt;s3</title>
<path fill="none" stroke="black" d="M123.907,-27.9614C137.867,-37.7235 159.364,-52.7558 175.67,-64.1585"/>
<polygon fill="black" stroke="black" points="173.914,-67.2009 184.114,-70.0633 177.925,-61.4643 173.914,-67.2009"/>
<text text-anchor="middle" x="153.993" y="-57.8" font-family="Times,serif" font-size="14.00">.</text>
</g>
<!-- s4 -->
<g id="node6" class="node"><title>s4</title>
<ellipse fill="none" stroke="black" cx="108.662" cy="-136" rx="18" ry="18"/>
<text text-anchor="middle" x="108.662" y="-131.8" font-family="Times,serif" font-size="14.00">s4</text>
</g>
<!-- s3&#45;&gt;s4 -->
<g id="edge6" class="edge"><title>s3&#45;&gt;s4</title>
<path fill="none" stroke="black" d="M181.29,-76.3654C170.168,-74.904 155.714,-74.7987 144.662,-81 144.233,-81.2408 133.933,-97.4639 124.618,-112.227"/>
<polygon fill="black" stroke="black" points="121.413,-110.748 119.042,-121.074 127.335,-114.48 121.413,-110.748"/>
<text text-anchor="middle" x="153.993" y="-83.8" font-family="Times,serif" font-size="14.00">0&#45;9</text>
</g>
<!-- s4&#45;&gt;s3 -->
<g id="edge7" class="edge"><title>s4&#45;&gt;s3</title>
<path fill="none" stroke="black" d="M124.303,-126.753C138.035,-118.079 158.803,-104.962 174.849,-94.8275"/>
<polygon fill="black" stroke="black" points="177.076,-97.5603 183.662,-89.261 173.338,-91.642 177.076,-97.5603"/>
<text text-anchor="middle" x="153.993" y="-115.8" font-family="Times,serif" font-size="14.00">λ</text>
</g>
<!-- s5 -->
<g id="node7" class="node"><title>s5</title>
<ellipse fill="none" stroke="black" cx="199.324" cy="-154" rx="18" ry="18"/>
<text text-anchor="middle" x="199.324" y="-149.8" font-family="Times,serif" font-size="14.00">s5</text>
</g>
<!-- s4&#45;&gt;s5 -->
<g id="edge8" class="edge"><title>s4&#45;&gt;s5</title>
<path fill="none" stroke="black" d="M126.757,-139.471C139.472,-142.052 157.067,-145.624 171.628,-148.58"/>
<polygon fill="black" stroke="black" points="171.086,-152.041 181.582,-150.601 172.479,-145.181 171.086,-152.041"/>
<text text-anchor="middle" x="153.993" y="-148.8" font-family="Times,serif" font-size="14.00">τ</text>
</g>
<!-- s6 -->
<g id="node8" class="node"><title>s6</title>
<ellipse fill="none" stroke="black" cx="279.876" cy="-191" rx="18" ry="18"/>
<text text-anchor="middle" x="279.876" y="-186.8" font-family="Times,serif" font-size="14.00">s6</text>
</g>
<!-- s5&#45;&gt;s6 -->
<g id="edge9" class="edge"><title>s5&#45;&gt;s6</title>
<path fill="none" stroke="black" d="M215.844,-161.31C226.817,-166.479 241.755,-173.515 254.334,-179.44"/>
<polygon fill="black" stroke="black" points="252.851,-182.61 263.389,-183.705 255.834,-176.278 252.851,-182.61"/>
<text text-anchor="middle" x="239.6" y="-176.8" font-family="Times,serif" font-size="14.00">e</text>
</g>
<!-- s5&#45;&gt;s6 -->
<g id="edge10" class="edge"><title>s5&#45;&gt;s6</title>
<path fill="none" stroke="black" d="M217.102,-150.367C225.475,-149.347 235.564,-149.355 243.876,-153 251.217,-156.219 257.699,-161.822 263.026,-167.752"/>
<polygon fill="black" stroke="black" points="260.548,-170.256 269.547,-175.848 266,-165.865 260.548,-170.256"/>
<text text-anchor="middle" x="239.6" y="-155.8" font-family="Times,serif" font-size="14.00">E</text>
</g>
<!-- s14 -->
<g id="node9" class="node"><title>s14</title>
<ellipse fill="none" stroke="black" cx="969.116" cy="-146" rx="22.2841" ry="22.2841"/>
<text text-anchor="middle" x="969.116" y="-141.8" font-family="Times,serif" font-size="14.00">s14</text>
</g>
<!-- s5&#45;&gt;s14 -->
<g id="edge11" class="edge"><title>s5&#45;&gt;s14</title>
<path fill="none" stroke="black" d="M214.627,-143.92C229.822,-134.215 254.913,-121 278.876,-121 278.876,-121 278.876,-121 883.118,-121 902.353,-121 923.076,-126.965 939.246,-133.067"/>
<polygon fill="black" stroke="black" points="938.086,-136.373 948.67,-136.833 940.683,-129.873 938.086,-136.373"/>
<text text-anchor="middle" x="568.147" y="-123.8" font-family="Times,serif" font-size="14.00">λ</text>
</g>
<!-- s7 -->
<g id="node10" class="node"><title>s7</title>
<ellipse fill="none" stroke="black" cx="359.771" cy="-191" rx="18" ry="18"/>
<text text-anchor="middle" x="359.771" y="-186.8" font-family="Times,serif" font-size="14.00">s7</text>
</g>
<!-- s6&#45;&gt;s7 -->
<g id="edge12" class="edge"><title>s6&#45;&gt;s7</title>
<path fill="none" stroke="black" d="M298.164,-191C307.946,-191 320.401,-191 331.473,-191"/>
<polygon fill="black" stroke="black" points="331.532,-194.5 341.532,-191 331.532,-187.5 331.532,-194.5"/>
<text text-anchor="middle" x="319.824" y="-193.8" font-family="Times,serif" font-size="14.00">&#45;</text>
</g>
<!-- s6&#45;&gt;s7 -->
<g id="edge13" class="edge"><title>s6&#45;&gt;s7</title>
<path fill="none" stroke="black" d="M295.593,-181.458C301.626,-178.083 308.836,-174.704 315.876,-173 322.47,-171.404 329.355,-172.793 335.63,-175.381"/>
<polygon fill="black" stroke="black" points="334.372,-178.671 344.859,-180.176 337.599,-172.46 334.372,-178.671"/>
<text text-anchor="middle" x="319.824" y="-175.8" font-family="Times,serif" font-size="14.00">+</text>
</g>
<!-- s6&#45;&gt;s7 -->
<g id="edge14" class="edge"><title>s6&#45;&gt;s7</title>
<path fill="none" stroke="black" d="M295.685,-200.42C303.825,-204.509 314.189,-207.967 323.771,-206 327.244,-205.287 330.798,-204.215 334.246,-202.965"/>
<polygon fill="black" stroke="black" points="335.629,-206.181 343.53,-199.123 332.952,-199.713 335.629,-206.181"/>
<text text-anchor="middle" x="319.824" y="-208.8" font-family="Times,serif" font-size="14.00">λ</text>
</g>
<!-- s14&#45;&gt;s15 -->
<g id="edge26" class="edge"><title>s14&#45;&gt;s15</title>
<path fill="none" stroke="black" d="M991.66,-146C1001.25,-146 1012.8,-146 1023.61,-146"/>
<polygon fill="black" stroke="black" points="1023.66,-149.5 1033.66,-146 1023.66,-142.5 1023.66,-149.5"/>
<text text-anchor="middle" x="1012.61" y="-148.8" font-family="Times,serif" font-size="14.00">τ</text>
</g>
<!-- s8 -->
<g id="node11" class="node"><title>s8</title>
<ellipse fill="none" stroke="black" cx="437.985" cy="-191" rx="18" ry="18"/>
<text text-anchor="middle" x="437.985" y="-186.8" font-family="Times,serif" font-size="14.00">s8</text>
</g>
<!-- s7&#45;&gt;s8 -->
<g id="edge15" class="edge"><title>s7&#45;&gt;s8</title>
<path fill="none" stroke="black" d="M378.066,-191C387.42,-191 399.189,-191 409.744,-191"/>
<polygon fill="black" stroke="black" points="409.76,-194.5 419.76,-191 409.76,-187.5 409.76,-194.5"/>
<text text-anchor="middle" x="398.878" y="-193.8" font-family="Times,serif" font-size="14.00">τ</text>
</g>
<!-- s9 -->
<g id="node12" class="node"><title>s9</title>
<ellipse fill="none" stroke="black" cx="528.647" cy="-207" rx="18" ry="18"/>
<text text-anchor="middle" x="528.647" y="-202.8" font-family="Times,serif" font-size="14.00">s9</text>
</g>
<!-- s8&#45;&gt;s9 -->
<g id="edge16" class="edge"><title>s8&#45;&gt;s9</title>
<path fill="none" stroke="black" d="M456.141,-188.009C466.793,-186.727 480.687,-186.105 492.647,-189 496.387,-189.905 500.175,-191.283 503.809,-192.882"/>
<polygon fill="black" stroke="black" points="502.423,-196.102 512.931,-197.458 505.562,-189.845 502.423,-196.102"/>
<text text-anchor="middle" x="483.316" y="-191.8" font-family="Times,serif" font-size="14.00">0&#45;9</text>
</g>
<!-- s9&#45;&gt;s8 -->
<g id="edge17" class="edge"><title>s9&#45;&gt;s8</title>
<path fill="none" stroke="black" d="M510.576,-206.838C499.955,-206.464 486.065,-205.478 473.985,-203 470.937,-202.375 467.79,-201.556 464.689,-200.641"/>
<polygon fill="black" stroke="black" points="465.719,-197.295 455.126,-197.499 463.534,-203.945 465.719,-197.295"/>
<text text-anchor="middle" x="483.316" y="-207.8" font-family="Times,serif" font-size="14.00">λ</text>
</g>
<!-- s10 -->
<g id="node13" class="node"><title>s10</title>
<ellipse fill="none" stroke="black" cx="612.039" cy="-207" rx="22.2841" ry="22.2841"/>
<text text-anchor="middle" x="612.039" y="-202.8" font-family="Times,serif" font-size="14.00">s10</text>
</g>
<!-- s9&#45;&gt;s10 -->
<g id="edge18" class="edge"><title>s9&#45;&gt;s10</title>
<path fill="none" stroke="black" d="M546.909,-207C556.315,-207 568.255,-207 579.276,-207"/>
<polygon fill="black" stroke="black" points="579.448,-210.5 589.448,-207 579.448,-203.5 579.448,-210.5"/>
<text text-anchor="middle" x="568.147" y="-209.8" font-family="Times,serif" font-size="14.00">τ</text>
</g>
<!-- s11 -->
<g id="node14" class="node"><title>s11</title>
<ellipse fill="none" stroke="black" cx="695.999" cy="-193" rx="22.1361" ry="22.1361"/>
<text text-anchor="middle" x="695.999" y="-188.8" font-family="Times,serif" font-size="14.00">s11</text>
</g>
<!-- s10&#45;&gt;s11 -->
<g id="edge19" class="edge"><title>s10&#45;&gt;s11</title>
<path fill="none" stroke="black" d="M634.146,-203.395C643.228,-201.843 654.028,-199.998 663.991,-198.297"/>
<polygon fill="black" stroke="black" points="664.696,-201.727 673.964,-196.593 663.517,-194.827 664.696,-201.727"/>
<text text-anchor="middle" x="654.181" y="-202.8" font-family="Times,serif" font-size="14.00">.</text>
</g>
<!-- s13 -->
<g id="node15" class="node"><title>s13</title>
<ellipse fill="none" stroke="black" cx="882.118" cy="-191" rx="22.2841" ry="22.2841"/>
<text text-anchor="middle" x="882.118" y="-186.8" font-family="Times,serif" font-size="14.00">s13</text>
</g>
<!-- s10&#45;&gt;s13 -->
<g id="edge20" class="edge"><title>s10&#45;&gt;s13</title>
<path fill="none" stroke="black" d="M633.322,-214.159C645.027,-217.91 660.121,-222.109 673.931,-224 737.161,-232.657 755.562,-237.336 817.513,-222 829.963,-218.918 842.839,-213.193 853.721,-207.494"/>
<polygon fill="black" stroke="black" points="855.629,-210.439 862.711,-202.559 852.26,-204.303 855.629,-210.439"/>
<text text-anchor="middle" x="745.398" y="-234.8" font-family="Times,serif" font-size="14.00">λ</text>
</g>
<!-- s12 -->
<g id="node16" class="node"><title>s12</title>
<ellipse fill="none" stroke="black" cx="795.121" cy="-191" rx="22.2841" ry="22.2841"/>
<text text-anchor="middle" x="795.121" y="-186.8" font-family="Times,serif" font-size="14.00">s12</text>
</g>
<!-- s11&#45;&gt;s12 -->
<g id="edge21" class="edge"><title>s11&#45;&gt;s12</title>
<path fill="none" stroke="black" d="M718.085,-192.428C723.91,-192.279 730.233,-192.125 736.067,-192 744.665,-191.816 753.979,-191.643 762.578,-191.495"/>
<polygon fill="black" stroke="black" points="762.676,-194.994 772.616,-191.328 762.558,-187.995 762.676,-194.994"/>
<text text-anchor="middle" x="745.398" y="-194.8" font-family="Times,serif" font-size="14.00">0&#45;9</text>
</g>
<!-- s11&#45;&gt;s12 -->
<g id="edge22" class="edge"><title>s11&#45;&gt;s12</title>
<path fill="none" stroke="black" d="M714.979,-181.549C721.381,-178.091 728.808,-174.75 736.067,-173 745.965,-170.614 756.648,-172.583 766.119,-175.964"/>
<polygon fill="black" stroke="black" points="764.89,-179.244 775.466,-179.874 767.592,-172.786 764.89,-179.244"/>
<text text-anchor="middle" x="745.398" y="-175.8" font-family="Times,serif" font-size="14.00">λ</text>
</g>
<!-- s13&#45;&gt;s14 -->
<g id="edge25" class="edge"><title>s13&#45;&gt;s14</title>
<path fill="none" stroke="black" d="M902.406,-180.789C913.49,-174.92 927.614,-167.443 939.925,-160.925"/>
<polygon fill="black" stroke="black" points="941.705,-163.943 948.905,-156.171 938.429,-157.757 941.705,-163.943"/>
<text text-anchor="middle" x="925.617" y="-171.8" font-family="Times,serif" font-size="14.00">τ</text>
</g>
<!-- s12&#45;&gt;s11 -->
<g id="edge23" class="edge"><title>s12&#45;&gt;s11</title>
<path fill="none" stroke="black" d="M774.487,-200.081C768.3,-202.502 761.35,-204.782 754.729,-206 745.406,-207.715 735.303,-206.505 726.195,-204.255"/>
<polygon fill="black" stroke="black" points="727.009,-200.846 716.427,-201.374 725.029,-207.56 727.009,-200.846"/>
<text text-anchor="middle" x="745.398" y="-208.8" font-family="Times,serif" font-size="14.00">λ</text>
</g>
<!-- s12&#45;&gt;s13 -->
<g id="edge24" class="edge"><title>s12&#45;&gt;s13</title>
<path fill="none" stroke="black" d="M817.569,-191C827.233,-191 838.84,-191 849.474,-191"/>
<polygon fill="black" stroke="black" points="849.677,-194.5 859.677,-191 849.677,-187.5 849.677,-194.5"/>
<text text-anchor="middle" x="838.62" y="-193.8" font-family="Times,serif" font-size="14.00">τ</text>
</g>
</g>
</svg>
