<?xml version="1.0" encoding="UTF-8" standalone="no"?>
<!DOCTYPE svg PUBLIC "-//W3C//DTD SVG 1.1//EN"
 "http://www.w3.org/Graphics/SVG/1.1/DTD/svg11.dtd">
<!-- Generated by graphviz version 2.38.0 (20140413.2041)
 -->
<!-- Title: finite_state_machine Pages: 1 -->
<svg width="285pt" height="52pt"
 viewBox="0.00 0.00 284.71 52.00" xmlns="http://www.w3.org/2000/svg" xmlns:xlink="http://www.w3.org/1999/xlink">
<g id="graph0" class="graph" transform="scale(1 1) rotate(0) translate(4 48)">
<title>finite_state_machine</title>
<polygon fill="white" stroke="none" points="-4,4 -4,-48 280.714,-48 280.714,4 -4,4"/>
<!-- s3 -->
<g id="node1" class="node"><title>s3</title>
<ellipse fill="none" stroke="black" cx="254.714" cy="-22" rx="18" ry="18"/>
<ellipse fill="none" stroke="black" cx="254.714" cy="-22" rx="22" ry="22"/>
<text text-anchor="middle" x="254.714" y="-17.8" font-family="Times,serif" font-size="14.00">s3</text>
</g>
<!-- s0 -->
<g id="node2" class="node"><title>s0</title>
<ellipse fill="none" stroke="black" cx="18" cy="-22" rx="18" ry="18"/>
<text text-anchor="middle" x="18" y="-17.8" font-family="Times,serif" font-size="14.00">s0</text>
</g>
<!-- s1 -->
<g id="node3" class="node"><title>s1</title>
<ellipse fill="none" stroke="black" cx="96.2139" cy="-22" rx="18" ry="18"/>
<text text-anchor="middle" x="96.2139" y="-17.8" font-family="Times,serif" font-size="14.00">s1</text>
</g>
<!-- s0&#45;&gt;s1 -->
<g id="edge1" class="edge"><title>s0&#45;&gt;s1</title>
<path fill="none" stroke="black" d="M36.2941,-22C45.6488,-22 57.4172,-22 67.9721,-22"/>
<polygon fill="black" stroke="black" points="67.9882,-25.5001 77.9882,-22 67.9882,-18.5001 67.9882,-25.5001"/>
<text text-anchor="middle" x="57.1069" y="-24.8" font-family="Times,serif" font-size="14.00">a</text>
</g>
<!-- s2 -->
<g id="node4" class="node"><title>s2</title>
<ellipse fill="none" stroke="black" cx="171.714" cy="-22" rx="18" ry="18"/>
<text text-anchor="middle" x="171.714" y="-17.8" font-family="Times,serif" font-size="14.00">s2</text>
</g>
<!-- s1&#45;&gt;s2 -->
<g id="edge2" class="edge"><title>s1&#45;&gt;s2</title>
<path fill="none" stroke="black" d="M114.261,-22C122.919,-22 133.648,-22 143.42,-22"/>
<polygon fill="black" stroke="black" points="143.505,-25.5001 153.505,-22 143.505,-18.5001 143.505,-25.5001"/>
<text text-anchor="middle" x="133.964" y="-24.8" font-family="Times,serif" font-size="14.00">.</text>
</g>
<!-- s2&#45;&gt;s3 -->
<g id="edge3" class="edge"><title>s2&#45;&gt;s3</title>
<path fill="none" stroke="black" d="M189.892,-22C199.323,-22 211.315,-22 222.351,-22"/>
<polygon fill="black" stroke="black" points="222.525,-25.5001 232.525,-22 222.525,-18.5001 222.525,-25.5001"/>
<text text-anchor="middle" x="211.214" y="-24.8" font-family="Times,serif" font-size="14.00">d</text>
</g>
</g>
</svg>
