<?xml version="1.0" encoding="UTF-8" standalone="no"?>
<!DOCTYPE svg PUBLIC "-//W3C//DTD SVG 1.1//EN"
 "http://www.w3.org/Graphics/SVG/1.1/DTD/svg11.dtd">
<!-- Generated by graphviz version 2.38.0 (20140413.2041)
 -->
<!-- Title: finite_state_machine Pages: 1 -->
<svg width="394pt" height="344pt"
 viewBox="0.00 0.00 393.70 344.39" xmlns="http://www.w3.org/2000/svg" xmlns:xlink="http://www.w3.org/1999/xlink">
<g id="graph0" class="graph" transform="scale(1 1) rotate(0) translate(4 340.392)">
<title>finite_state_machine</title>
<polygon fill="white" stroke="none" points="-4,4 -4,-340.392 389.703,-340.392 389.703,4 -4,4"/>
<!-- s12 -->
<g id="node1" class="node"><title>s12</title>
<ellipse fill="none" stroke="black" cx="359.311" cy="-26.3918" rx="22.3004" ry="22.3004"/>
<ellipse fill="none" stroke="black" cx="359.311" cy="-26.3918" rx="26.2841" ry="26.2841"/>
<text text-anchor="middle" x="359.311" y="-22.1918" font-family="Times,serif" font-size="14.00">s12</text>
</g>
<!-- s0 -->
<g id="node2" class="node"><title>s0</title>
<ellipse fill="none" stroke="black" cx="97" cy="-176.392" rx="18" ry="18"/>
<text text-anchor="middle" x="97" y="-172.192" font-family="Times,serif" font-size="14.00">s0</text>
</g>
<!-- s2 -->
<g id="node3" class="node"><title>s2</title>
<ellipse fill="none" stroke="black" cx="180.392" cy="-230.392" rx="18" ry="18"/>
<text text-anchor="middle" x="180.392" y="-226.192" font-family="Times,serif" font-size="14.00">s2</text>
</g>
<!-- s0&#45;&gt;s2 -->
<g id="edge1" class="edge"><title>s0&#45;&gt;s2</title>
<path fill="none" stroke="black" d="M112.551,-186.046C124.704,-194.109 142.251,-205.751 156.317,-215.083"/>
<polygon fill="black" stroke="black" points="154.699,-218.209 164.967,-220.821 158.569,-212.376 154.699,-218.209"/>
<text text-anchor="middle" x="136.5" y="-206.192" font-family="Times,serif" font-size="14.00">a</text>
</g>
<!-- s4 -->
<g id="node4" class="node"><title>s4</title>
<ellipse fill="none" stroke="black" cx="180.392" cy="-122.392" rx="18" ry="18"/>
<text text-anchor="middle" x="180.392" y="-118.192" font-family="Times,serif" font-size="14.00">s4</text>
</g>
<!-- s0&#45;&gt;s4 -->
<g id="edge2" class="edge"><title>s0&#45;&gt;s4</title>
<path fill="none" stroke="black" d="M112.551,-166.738C124.704,-158.675 142.251,-147.033 156.317,-137.701"/>
<polygon fill="black" stroke="black" points="158.569,-140.407 164.967,-131.962 154.699,-134.574 158.569,-140.407"/>
<text text-anchor="middle" x="136.5" y="-155.192" font-family="Times,serif" font-size="14.00">b</text>
</g>
<!-- s6 -->
<g id="node5" class="node"><title>s6</title>
<ellipse fill="none" stroke="black" cx="180.392" cy="-176.392" rx="18" ry="18"/>
<text text-anchor="middle" x="180.392" y="-172.192" font-family="Times,serif" font-size="14.00">s6</text>
</g>
<!-- s0&#45;&gt;s6 -->
<g id="edge3" class="edge"><title>s0&#45;&gt;s6</title>
<path fill="none" stroke="black" d="M115.261,-176.392C125.944,-176.392 139.896,-176.392 152.057,-176.392"/>
<polygon fill="black" stroke="black" points="152.156,-179.892 162.156,-176.392 152.156,-172.892 152.156,-179.892"/>
<text text-anchor="middle" x="136.5" y="-179.192" font-family="Times,serif" font-size="14.00">c</text>
</g>
<!-- s1 -->
<g id="node6" class="node"><title>s1</title>
<ellipse fill="none" stroke="black" cx="18" cy="-175.392" rx="18" ry="18"/>
<text text-anchor="middle" x="18" y="-171.192" font-family="Times,serif" font-size="14.00">s1</text>
</g>
<!-- s0&#45;&gt;s1 -->
<g id="edge4" class="edge"><title>s0&#45;&gt;s1</title>
<path fill="none" stroke="black" d="M81.2832,-166.85C75.2501,-163.475 68.0395,-160.096 61,-158.392 54.8286,-156.898 48.3734,-158.036 42.427,-160.295"/>
<polygon fill="black" stroke="black" points="40.4837,-157.35 33.0396,-164.889 43.5603,-163.637 40.4837,-157.35"/>
<text text-anchor="middle" x="57.5" y="-161.192" font-family="Times,serif" font-size="14.00">λ</text>
</g>
<!-- s3 -->
<g id="node8" class="node"><title>s3</title>
<ellipse fill="none" stroke="black" cx="267.852" cy="-268.392" rx="18" ry="18"/>
<text text-anchor="middle" x="267.852" y="-264.192" font-family="Times,serif" font-size="14.00">s3</text>
</g>
<!-- s2&#45;&gt;s3 -->
<g id="edge7" class="edge"><title>s2&#45;&gt;s3</title>
<path fill="none" stroke="black" d="M197.448,-236.156C206.458,-239.507 217.852,-243.937 227.784,-248.392 232.613,-250.558 237.699,-253.021 242.545,-255.461"/>
<polygon fill="black" stroke="black" points="240.948,-258.575 251.441,-260.039 244.151,-252.351 240.948,-258.575"/>
<text text-anchor="middle" x="224.284" y="-251.192" font-family="Times,serif" font-size="14.00">a</text>
</g>
<!-- s5 -->
<g id="node9" class="node"><title>s5</title>
<ellipse fill="none" stroke="black" cx="267.852" cy="-99.3918" rx="18" ry="18"/>
<text text-anchor="middle" x="267.852" y="-95.1918" font-family="Times,serif" font-size="14.00">s5</text>
</g>
<!-- s4&#45;&gt;s5 -->
<g id="edge9" class="edge"><title>s4&#45;&gt;s5</title>
<path fill="none" stroke="black" d="M197.869,-117.957C209.851,-114.732 226.329,-110.298 240.176,-106.571"/>
<polygon fill="black" stroke="black" points="241.386,-109.87 250.133,-103.891 239.567,-103.11 241.386,-109.87"/>
<text text-anchor="middle" x="224.284" y="-114.192" font-family="Times,serif" font-size="14.00">b</text>
</g>
<!-- s7 -->
<g id="node10" class="node"><title>s7</title>
<ellipse fill="none" stroke="black" cx="267.852" cy="-197.392" rx="18" ry="18"/>
<text text-anchor="middle" x="267.852" y="-193.192" font-family="Times,serif" font-size="14.00">s7</text>
</g>
<!-- s6&#45;&gt;s7 -->
<g id="edge11" class="edge"><title>s6&#45;&gt;s7</title>
<path fill="none" stroke="black" d="M198.276,-180.541C210.292,-183.494 226.677,-187.52 240.418,-190.896"/>
<polygon fill="black" stroke="black" points="239.747,-194.335 250.293,-193.323 241.417,-187.538 239.747,-194.335"/>
<text text-anchor="middle" x="224.284" y="-190.192" font-family="Times,serif" font-size="14.00">c</text>
</g>
<!-- s1&#45;&gt;s0 -->
<g id="edge5" class="edge"><title>s1&#45;&gt;s0</title>
<path fill="none" stroke="black" d="M36.0888,-175.614C45.659,-175.738 57.8172,-175.896 68.6766,-176.037"/>
<polygon fill="black" stroke="black" points="68.9143,-179.54 78.959,-176.17 69.0053,-172.541 68.9143,-179.54"/>
<text text-anchor="middle" x="57.5" y="-178.192" font-family="Times,serif" font-size="14.00">λ</text>
</g>
<!-- s9 -->
<g id="node7" class="node"><title>s9</title>
<ellipse fill="none" stroke="black" cx="97" cy="-28.3918" rx="18" ry="18"/>
<text text-anchor="middle" x="97" y="-24.1918" font-family="Times,serif" font-size="14.00">s9</text>
</g>
<!-- s1&#45;&gt;s9 -->
<g id="edge6" class="edge"><title>s1&#45;&gt;s9</title>
<path fill="none" stroke="black" d="M19.4045,-157.246C20.9217,-130.466 27.4067,-80.1157 54,-48.3918 58.1214,-43.4752 63.7292,-39.6842 69.504,-36.7935"/>
<polygon fill="black" stroke="black" points="71.2855,-39.8413 79.1473,-32.739 68.5724,-33.3884 71.2855,-39.8413"/>
<text text-anchor="middle" x="57.5" y="-51.1918" font-family="Times,serif" font-size="14.00">τ</text>
</g>
<!-- s10 -->
<g id="node12" class="node"><title>s10</title>
<ellipse fill="none" stroke="black" cx="180.392" cy="-26.3918" rx="22.2841" ry="22.2841"/>
<text text-anchor="middle" x="180.392" y="-22.1918" font-family="Times,serif" font-size="14.00">s10</text>
</g>
<!-- s9&#45;&gt;s10 -->
<g id="edge14" class="edge"><title>s9&#45;&gt;s10</title>
<path fill="none" stroke="black" d="M115.261,-27.9677C124.667,-27.7365 136.608,-27.4431 147.629,-27.1723"/>
<polygon fill="black" stroke="black" points="147.89,-30.667 157.801,-26.9224 147.718,-23.6692 147.89,-30.667"/>
<text text-anchor="middle" x="136.5" y="-31.1918" font-family="Times,serif" font-size="14.00">a</text>
</g>
<!-- s3&#45;&gt;s1 -->
<g id="edge8" class="edge"><title>s3&#45;&gt;s1</title>
<path fill="none" stroke="black" d="M249.791,-268.901C227.957,-269.054 189.224,-267.63 158,-257.392 113.031,-242.647 66.8925,-211.663 40.7036,-192.287"/>
<polygon fill="black" stroke="black" points="42.7121,-189.418 32.6174,-186.201 38.5028,-195.011 42.7121,-189.418"/>
<text text-anchor="middle" x="136.5" y="-253.192" font-family="Times,serif" font-size="14.00">λ</text>
</g>
<!-- s5&#45;&gt;s1 -->
<g id="edge10" class="edge"><title>s5&#45;&gt;s1</title>
<path fill="none" stroke="black" d="M249.929,-95.807C228.242,-91.8805 189.663,-87.1596 158,-95.3918 112.484,-107.226 66.5202,-138.27 40.5136,-158.023"/>
<polygon fill="black" stroke="black" points="38.2469,-155.352 32.4885,-164.245 42.536,-160.884 38.2469,-155.352"/>
<text text-anchor="middle" x="136.5" y="-105.192" font-family="Times,serif" font-size="14.00">λ</text>
</g>
<!-- s8 -->
<g id="node11" class="node"><title>s8</title>
<ellipse fill="none" stroke="black" cx="359.311" cy="-290.392" rx="18" ry="18"/>
<text text-anchor="middle" x="359.311" y="-286.192" font-family="Times,serif" font-size="14.00">s8</text>
</g>
<!-- s7&#45;&gt;s8 -->
<g id="edge12" class="edge"><title>s7&#45;&gt;s8</title>
<path fill="none" stroke="black" d="M280.917,-209.934C295.856,-225.465 321.486,-252.109 339.132,-270.454"/>
<polygon fill="black" stroke="black" points="336.697,-272.971 346.152,-277.751 341.742,-268.118 336.697,-272.971"/>
<text text-anchor="middle" x="311.42" y="-246.192" font-family="Times,serif" font-size="14.00">c</text>
</g>
<!-- s8&#45;&gt;s1 -->
<g id="edge13" class="edge"><title>s8&#45;&gt;s1</title>
<path fill="none" stroke="black" d="M343.38,-299.306C326.075,-308.774 296.398,-322.392 268.852,-322.392 96,-322.392 96,-322.392 96,-322.392 42.8815,-322.392 26.3358,-246.142 21.2355,-203.474"/>
<polygon fill="black" stroke="black" points="24.7041,-202.993 20.1701,-193.417 17.7431,-203.73 24.7041,-202.993"/>
<text text-anchor="middle" x="180.392" y="-325.192" font-family="Times,serif" font-size="14.00">λ</text>
</g>
<!-- s11 -->
<g id="node13" class="node"><title>s11</title>
<ellipse fill="none" stroke="black" cx="267.852" cy="-26.3918" rx="22.1361" ry="22.1361"/>
<text text-anchor="middle" x="267.852" y="-22.1918" font-family="Times,serif" font-size="14.00">s11</text>
</g>
<!-- s10&#45;&gt;s11 -->
<g id="edge15" class="edge"><title>s10&#45;&gt;s11</title>
<path fill="none" stroke="black" d="M202.957,-26.3918C212.747,-26.3918 224.521,-26.3918 235.28,-26.3918"/>
<polygon fill="black" stroke="black" points="235.589,-29.8919 245.589,-26.3918 235.589,-22.8919 235.589,-29.8919"/>
<text text-anchor="middle" x="224.284" y="-29.1918" font-family="Times,serif" font-size="14.00">b</text>
</g>
<!-- s11&#45;&gt;s12 -->
<g id="edge16" class="edge"><title>s11&#45;&gt;s12</title>
<path fill="none" stroke="black" d="M290.052,-26.3918C299.763,-26.3918 311.542,-26.3918 322.562,-26.3918"/>
<polygon fill="black" stroke="black" points="322.803,-29.8919 332.803,-26.3918 322.803,-22.8919 322.803,-29.8919"/>
<text text-anchor="middle" x="311.42" y="-29.1918" font-family="Times,serif" font-size="14.00">b</text>
</g>
</g>
</svg>
