<?xml version="1.0" encoding="UTF-8" standalone="no"?>
<!DOCTYPE svg PUBLIC "-//W3C//DTD SVG 1.1//EN"
 "http://www.w3.org/Graphics/SVG/1.1/DTD/svg11.dtd">
<!-- Generated by graphviz version 12.2.1 (20241206.2353)
 -->
<!-- Title: finite_state_machine Pages: 1 -->
<svg width="378pt" height="221pt"
 viewBox="0.00 0.00 378.08 221.28" xmlns="http://www.w3.org/2000/svg" xmlns:xlink="http://www.w3.org/1999/xlink">
<g id="graph0" class="graph" transform="scale(1 1) rotate(0) translate(4 217.28)">
<title>finite_state_machine</title>
<polygon fill="white" stroke="none" points="-4,4 -4,-217.28 374.08,-217.28 374.08,4 -4,4"/>
<text text-anchor="middle" x="185.04" y="-7.2" font-family="Times,serif" font-size="14.00">Regular Expression: (a|b)*abb</text>
<!-- s7 -->
<g id="node1" class="node">
<title>s7</title>
<ellipse fill="none" stroke="black" cx="346.97" cy="-47.61" rx="19.11" ry="19.11"/>
<ellipse fill="none" stroke="black" cx="346.97" cy="-47.61" rx="23.11" ry="23.11"/>
<text text-anchor="middle" x="346.97" y="-42.56" font-family="Times,serif" font-size="14.00">s7</text>
</g>
<!-- s0 -->
<g id="node2" class="node">
<title>s0</title>
<ellipse fill="none" stroke="black" cx="100.07" cy="-156.61" rx="19.11" ry="19.11"/>
<text text-anchor="middle" x="100.07" y="-151.56" font-family="Times,serif" font-size="14.00">s0</text>
</g>
<!-- s2 -->
<g id="node3" class="node">
<title>s2</title>
<ellipse fill="none" stroke="black" cx="181.04" cy="-124.61" rx="19.11" ry="19.11"/>
<text text-anchor="middle" x="181.04" y="-119.56" font-family="Times,serif" font-size="14.00">s2</text>
</g>
<!-- s0&#45;&gt;s2 -->
<g id="edge1" class="edge">
<title>s0&#45;&gt;s2</title>
<path fill="none" stroke="black" d="M117.85,-148.6C123.89,-145.8 130.8,-142.71 137.18,-140.11 141.92,-138.17 147.01,-136.22 151.96,-134.39"/>
<polygon fill="black" stroke="black" points="152.76,-137.82 160.98,-131.14 150.38,-131.24 152.76,-137.82"/>
<text text-anchor="middle" x="140.56" y="-143.31" font-family="Times,serif" font-size="14.00">a</text>
</g>
<!-- s3 -->
<g id="node4" class="node">
<title>s3</title>
<ellipse fill="none" stroke="black" cx="181.04" cy="-190.61" rx="19.11" ry="19.11"/>
<text text-anchor="middle" x="181.04" y="-185.56" font-family="Times,serif" font-size="14.00">s3</text>
</g>
<!-- s0&#45;&gt;s3 -->
<g id="edge2" class="edge">
<title>s0&#45;&gt;s3</title>
<path fill="none" stroke="black" d="M118.21,-163.98C128.24,-168.31 141.15,-173.87 152.58,-178.79"/>
<polygon fill="black" stroke="black" points="150.98,-181.91 161.55,-182.65 153.75,-175.48 150.98,-181.91"/>
<text text-anchor="middle" x="140.56" y="-177.83" font-family="Times,serif" font-size="14.00">b</text>
</g>
<!-- s1 -->
<g id="node5" class="node">
<title>s1</title>
<ellipse fill="none" stroke="black" cx="19.11" cy="-135.61" rx="19.11" ry="19.11"/>
<text text-anchor="middle" x="19.11" y="-130.56" font-family="Times,serif" font-size="14.00">s1</text>
</g>
<!-- s0&#45;&gt;s1 -->
<g id="edge3" class="edge">
<title>s0&#45;&gt;s1</title>
<path fill="none" stroke="black" d="M83.56,-146.2C77.42,-142.63 70.12,-139.05 62.97,-137.11 58.77,-135.97 54.25,-135.27 49.78,-134.87"/>
<polygon fill="black" stroke="black" points="49.96,-131.38 39.83,-134.48 49.68,-138.37 49.96,-131.38"/>
<text text-anchor="middle" x="59.59" y="-140.31" font-family="Times,serif" font-size="14.00">λ</text>
</g>
<!-- s2&#45;&gt;s1 -->
<g id="edge6" class="edge">
<title>s2&#45;&gt;s1</title>
<path fill="none" stroke="black" d="M162.4,-119.1C142.51,-113.66 109.26,-106.83 80.97,-112.11 69.52,-114.24 57.45,-118.45 47.11,-122.73"/>
<polygon fill="black" stroke="black" points="45.81,-119.47 38.05,-126.69 48.62,-125.88 45.81,-119.47"/>
<text text-anchor="middle" x="100.07" y="-115.31" font-family="Times,serif" font-size="14.00">λ</text>
</g>
<!-- s3&#45;&gt;s1 -->
<g id="edge7" class="edge">
<title>s3&#45;&gt;s1</title>
<path fill="none" stroke="black" d="M161.72,-193.64C156.04,-194.45 149.74,-195.21 143.93,-195.61 104.04,-198.36 89.38,-197.94 56.22,-175.61 49.65,-171.18 43.47,-165.31 38.15,-159.43"/>
<polygon fill="black" stroke="black" points="41.12,-157.52 32,-152.14 35.77,-162.04 41.12,-157.52"/>
<text text-anchor="middle" x="100.07" y="-199.98" font-family="Times,serif" font-size="14.00">λ</text>
</g>
<!-- s1&#45;&gt;s0 -->
<g id="edge4" class="edge">
<title>s1&#45;&gt;s0</title>
<path fill="none" stroke="black" d="M36.1,-145.27C42.19,-148.49 49.32,-151.73 56.22,-153.61 60.42,-154.75 64.94,-155.53 69.41,-156.05"/>
<polygon fill="black" stroke="black" points="69.14,-159.54 79.37,-156.79 69.65,-152.56 69.14,-159.54"/>
<text text-anchor="middle" x="59.59" y="-158.11" font-family="Times,serif" font-size="14.00">λ</text>
</g>
<!-- s4 -->
<g id="node6" class="node">
<title>s4</title>
<ellipse fill="none" stroke="black" cx="100.07" cy="-47.61" rx="19.11" ry="19.11"/>
<text text-anchor="middle" x="100.07" y="-42.56" font-family="Times,serif" font-size="14.00">s4</text>
</g>
<!-- s1&#45;&gt;s4 -->
<g id="edge5" class="edge">
<title>s1&#45;&gt;s4</title>
<path fill="none" stroke="black" d="M27.13,-117.77C33.23,-104.03 43.14,-85.22 56.22,-72.11 60.83,-67.48 66.5,-63.44 72.18,-60.04"/>
<polygon fill="black" stroke="black" points="73.74,-63.18 80.88,-55.35 70.41,-57.02 73.74,-63.18"/>
<text text-anchor="middle" x="59.59" y="-75.31" font-family="Times,serif" font-size="14.00">τ</text>
</g>
<!-- s5 -->
<g id="node7" class="node">
<title>s5</title>
<ellipse fill="none" stroke="black" cx="181.04" cy="-47.61" rx="19.11" ry="19.11"/>
<text text-anchor="middle" x="181.04" y="-42.56" font-family="Times,serif" font-size="14.00">s5</text>
</g>
<!-- s4&#45;&gt;s5 -->
<g id="edge8" class="edge">
<title>s4&#45;&gt;s5</title>
<path fill="none" stroke="black" d="M119.39,-47.61C128.49,-47.61 139.73,-47.61 150.04,-47.61"/>
<polygon fill="black" stroke="black" points="150.04,-51.11 160.04,-47.61 150.04,-44.11 150.04,-51.11"/>
<text text-anchor="middle" x="140.56" y="-50.81" font-family="Times,serif" font-size="14.00">a</text>
</g>
<!-- s6 -->
<g id="node8" class="node">
<title>s6</title>
<ellipse fill="none" stroke="black" cx="262" cy="-47.61" rx="19.11" ry="19.11"/>
<text text-anchor="middle" x="262" y="-42.56" font-family="Times,serif" font-size="14.00">s6</text>
</g>
<!-- s5&#45;&gt;s6 -->
<g id="edge9" class="edge">
<title>s5&#45;&gt;s6</title>
<path fill="none" stroke="black" d="M200.35,-47.61C209.46,-47.61 220.69,-47.61 231.01,-47.61"/>
<polygon fill="black" stroke="black" points="231,-51.11 241,-47.61 231,-44.11 231,-51.11"/>
<text text-anchor="middle" x="221.52" y="-50.81" font-family="Times,serif" font-size="14.00">b</text>
</g>
<!-- s6&#45;&gt;s7 -->
<g id="edge10" class="edge">
<title>s6&#45;&gt;s7</title>
<path fill="none" stroke="black" d="M281.42,-47.61C290.43,-47.61 301.58,-47.61 312.07,-47.61"/>
<polygon fill="black" stroke="black" points="311.95,-51.11 321.95,-47.61 311.95,-44.11 311.95,-51.11"/>
<text text-anchor="middle" x="302.49" y="-50.81" font-family="Times,serif" font-size="14.00">b</text>
</g>
</g>
</svg>
