<?xml version="1.0" encoding="UTF-8" standalone="no"?>
<!DOCTYPE svg PUBLIC "-//W3C//DTD SVG 1.1//EN"
 "http://www.w3.org/Graphics/SVG/1.1/DTD/svg11.dtd">
<!-- Generated by graphviz version 12.2.1 (20241206.2353)
 -->
<!-- Title: finite_state_machine Pages: 1 -->
<svg width="419pt" height="198pt"
 viewBox="0.00 0.00 418.54 197.77" xmlns="http://www.w3.org/2000/svg" xmlns:xlink="http://www.w3.org/1999/xlink">
<g id="graph0" class="graph" transform="scale(1 1) rotate(0) translate(4 193.77)">
<title>finite_state_machine</title>
<polygon fill="white" stroke="none" points="-4,4 -4,-193.77 414.54,-193.77 414.54,4 -4,4"/>
<text text-anchor="middle" x="205.27" y="-7.2" font-family="Times,serif" font-size="14.00">Regular Expression: (&#45;=&#45;|&#45;=#|.*)</text>
<!-- s1 -->
<g id="node1" class="node">
<title>s1</title>
<ellipse fill="none" stroke="black" cx="387.43" cy="-114.66" rx="19.11" ry="19.11"/>
<ellipse fill="none" stroke="black" cx="387.43" cy="-114.66" rx="23.11" ry="23.11"/>
<text text-anchor="middle" x="387.43" y="-109.61" font-family="Times,serif" font-size="14.00">s1</text>
</g>
<!-- s0 -->
<g id="node2" class="node">
<title>s0</title>
<ellipse fill="none" stroke="black" cx="19.11" cy="-92.66" rx="19.11" ry="19.11"/>
<text text-anchor="middle" x="19.11" y="-87.61" font-family="Times,serif" font-size="14.00">s0</text>
</g>
<!-- s2 -->
<g id="node3" class="node">
<title>s2</title>
<ellipse fill="none" stroke="black" cx="107.57" cy="-170.66" rx="19.11" ry="19.11"/>
<text text-anchor="middle" x="107.57" y="-165.61" font-family="Times,serif" font-size="14.00">s2</text>
</g>
<!-- s0&#45;&gt;s2 -->
<g id="edge1" class="edge">
<title>s0&#45;&gt;s2</title>
<path fill="none" stroke="black" d="M32.28,-106.91C39.04,-114.54 47.78,-123.93 56.22,-131.66 64.39,-139.15 73.89,-146.75 82.42,-153.23"/>
<polygon fill="black" stroke="black" points="80.19,-155.94 90.3,-159.1 84.37,-150.32 80.19,-155.94"/>
<text text-anchor="middle" x="63.34" y="-146.26" font-family="Times,serif" font-size="14.00">&#45;</text>
</g>
<!-- s5 -->
<g id="node4" class="node">
<title>s5</title>
<ellipse fill="none" stroke="black" cx="107.57" cy="-114.66" rx="19.11" ry="19.11"/>
<text text-anchor="middle" x="107.57" y="-109.61" font-family="Times,serif" font-size="14.00">s5</text>
</g>
<!-- s0&#45;&gt;s5 -->
<g id="edge2" class="edge">
<title>s0&#45;&gt;s5</title>
<path fill="none" stroke="black" d="M36.62,-101.22C42.65,-104.01 49.6,-106.84 56.22,-108.66 62.77,-110.46 69.95,-111.72 76.78,-112.6"/>
<polygon fill="black" stroke="black" points="76.32,-116.07 86.63,-113.63 77.05,-109.11 76.32,-116.07"/>
<text text-anchor="middle" x="63.34" y="-114.77" font-family="Times,serif" font-size="14.00">&#45;</text>
</g>
<!-- s8 -->
<g id="node5" class="node">
<title>s8</title>
<ellipse fill="none" stroke="black" cx="107.57" cy="-55.66" rx="19.11" ry="19.11"/>
<text text-anchor="middle" x="107.57" y="-50.61" font-family="Times,serif" font-size="14.00">s8</text>
</g>
<!-- s0&#45;&gt;s8 -->
<g id="edge3" class="edge">
<title>s0&#45;&gt;s8</title>
<path fill="none" stroke="black" d="M37.19,-85.35C49.15,-80.23 65.39,-73.28 79.15,-67.39"/>
<polygon fill="black" stroke="black" points="80.32,-70.7 88.13,-63.55 77.56,-64.27 80.32,-70.7"/>
<text text-anchor="middle" x="63.34" y="-78.07" font-family="Times,serif" font-size="14.00">◉</text>
</g>
<!-- s0&#45;&gt;s8 -->
<g id="edge4" class="edge">
<title>s0&#45;&gt;s8</title>
<path fill="none" stroke="black" d="M29.53,-76.13C35.78,-66.93 44.92,-56.3 56.22,-51.16 62.85,-48.14 70.47,-47.55 77.75,-48.13"/>
<polygon fill="black" stroke="black" points="77.14,-51.58 87.57,-49.68 78.23,-44.67 77.14,-51.58"/>
<text text-anchor="middle" x="63.34" y="-54.36" font-family="Times,serif" font-size="14.00">λ</text>
</g>
<!-- s3 -->
<g id="node6" class="node">
<title>s3</title>
<ellipse fill="none" stroke="black" cx="190.04" cy="-170.66" rx="19.11" ry="19.11"/>
<text text-anchor="middle" x="190.04" y="-165.61" font-family="Times,serif" font-size="14.00">s3</text>
</g>
<!-- s2&#45;&gt;s3 -->
<g id="edge5" class="edge">
<title>s2&#45;&gt;s3</title>
<path fill="none" stroke="black" d="M126.83,-170.66C136.43,-170.66 148.45,-170.66 159.35,-170.66"/>
<polygon fill="black" stroke="black" points="159.06,-174.16 169.06,-170.66 159.06,-167.16 159.06,-174.16"/>
<text text-anchor="middle" x="148.81" y="-173.86" font-family="Times,serif" font-size="14.00">=</text>
</g>
<!-- s6 -->
<g id="node8" class="node">
<title>s6</title>
<ellipse fill="none" stroke="black" cx="190.04" cy="-114.66" rx="19.11" ry="19.11"/>
<text text-anchor="middle" x="190.04" y="-109.61" font-family="Times,serif" font-size="14.00">s6</text>
</g>
<!-- s5&#45;&gt;s6 -->
<g id="edge8" class="edge">
<title>s5&#45;&gt;s6</title>
<path fill="none" stroke="black" d="M126.83,-114.66C136.43,-114.66 148.45,-114.66 159.35,-114.66"/>
<polygon fill="black" stroke="black" points="159.06,-118.16 169.06,-114.66 159.06,-111.16 159.06,-118.16"/>
<text text-anchor="middle" x="148.81" y="-117.86" font-family="Times,serif" font-size="14.00">=</text>
</g>
<!-- s8&#45;&gt;s0 -->
<g id="edge11" class="edge">
<title>s8&#45;&gt;s0</title>
<path fill="none" stroke="black" d="M94.49,-41.1C84.25,-30.6 69.19,-19.5 56.22,-27.16 42.81,-35.08 34.04,-49.95 28.5,-63.53"/>
<polygon fill="black" stroke="black" points="25.35,-61.96 25.24,-72.56 31.93,-64.34 25.35,-61.96"/>
<text text-anchor="middle" x="63.34" y="-30.36" font-family="Times,serif" font-size="14.00">λ</text>
</g>
<!-- s9 -->
<g id="node10" class="node">
<title>s9</title>
<ellipse fill="none" stroke="black" cx="246.25" cy="-60.66" rx="19.11" ry="19.11"/>
<text text-anchor="middle" x="246.25" y="-55.61" font-family="Times,serif" font-size="14.00">s9</text>
</g>
<!-- s8&#45;&gt;s9 -->
<g id="edge12" class="edge">
<title>s8&#45;&gt;s9</title>
<path fill="none" stroke="black" d="M127.01,-56.33C149.63,-57.16 188.29,-58.57 215.22,-59.56"/>
<polygon fill="black" stroke="black" points="215.04,-63.06 225.16,-59.92 215.3,-56.06 215.04,-63.06"/>
<text text-anchor="middle" x="148.81" y="-60.42" font-family="Times,serif" font-size="14.00">τ</text>
</g>
<!-- s4 -->
<g id="node7" class="node">
<title>s4</title>
<ellipse fill="none" stroke="black" cx="302.47" cy="-170.66" rx="19.11" ry="19.11"/>
<text text-anchor="middle" x="302.47" y="-165.61" font-family="Times,serif" font-size="14.00">s4</text>
</g>
<!-- s3&#45;&gt;s4 -->
<g id="edge6" class="edge">
<title>s3&#45;&gt;s4</title>
<path fill="none" stroke="black" d="M209.27,-170.66C226.3,-170.66 252,-170.66 271.95,-170.66"/>
<polygon fill="black" stroke="black" points="271.69,-174.16 281.69,-170.66 271.69,-167.16 271.69,-174.16"/>
<text text-anchor="middle" x="246.25" y="-173.86" font-family="Times,serif" font-size="14.00">&#45;</text>
</g>
<!-- s4&#45;&gt;s1 -->
<g id="edge7" class="edge">
<title>s4&#45;&gt;s1</title>
<path fill="none" stroke="black" d="M318.68,-160.39C329.83,-152.87 345.26,-142.45 358.59,-133.45"/>
<polygon fill="black" stroke="black" points="360.24,-136.56 366.57,-128.06 356.33,-130.76 360.24,-136.56"/>
<text text-anchor="middle" x="342.95" y="-149.21" font-family="Times,serif" font-size="14.00">λ</text>
</g>
<!-- s7 -->
<g id="node9" class="node">
<title>s7</title>
<ellipse fill="none" stroke="black" cx="302.47" cy="-114.66" rx="19.11" ry="19.11"/>
<text text-anchor="middle" x="302.47" y="-109.61" font-family="Times,serif" font-size="14.00">s7</text>
</g>
<!-- s6&#45;&gt;s7 -->
<g id="edge9" class="edge">
<title>s6&#45;&gt;s7</title>
<path fill="none" stroke="black" d="M209.27,-114.66C226.3,-114.66 252,-114.66 271.95,-114.66"/>
<polygon fill="black" stroke="black" points="271.69,-118.16 281.69,-114.66 271.69,-111.16 271.69,-118.16"/>
<text text-anchor="middle" x="246.25" y="-117.86" font-family="Times,serif" font-size="14.00">#</text>
</g>
<!-- s7&#45;&gt;s1 -->
<g id="edge10" class="edge">
<title>s7&#45;&gt;s1</title>
<path fill="none" stroke="black" d="M321.88,-114.66C330.9,-114.66 342.05,-114.66 352.53,-114.66"/>
<polygon fill="black" stroke="black" points="352.42,-118.16 362.42,-114.66 352.42,-111.16 352.42,-118.16"/>
<text text-anchor="middle" x="342.95" y="-117.86" font-family="Times,serif" font-size="14.00">λ</text>
</g>
<!-- s9&#45;&gt;s1 -->
<g id="edge13" class="edge">
<title>s9&#45;&gt;s1</title>
<path fill="none" stroke="black" d="M265.86,-60.63C281.26,-61.17 303.46,-63.25 321.58,-70.16 335.53,-75.48 349.4,-84.38 360.71,-92.82"/>
<polygon fill="black" stroke="black" points="358.32,-95.4 368.36,-98.79 362.63,-89.88 358.32,-95.4"/>
<text text-anchor="middle" x="302.47" y="-73.36" font-family="Times,serif" font-size="14.00">λ</text>
</g>
</g>
</svg>
