<?xml version="1.0" encoding="UTF-8" standalone="no"?>
<!DOCTYPE svg PUBLIC "-//W3C//DTD SVG 1.1//EN"
 "http://www.w3.org/Graphics/SVG/1.1/DTD/svg11.dtd">
<!-- Generated by graphviz version 12.2.1 (20241206.2353)
 -->
<!-- Title: finite_state_machine Pages: 1 -->
<svg width="576pt" height="183pt"
 viewBox="0.00 0.00 576.00 183.23" xmlns="http://www.w3.org/2000/svg" xmlns:xlink="http://www.w3.org/1999/xlink">
<g id="graph0" class="graph" transform="scale(0.628356 0.628356) rotate(0) translate(4 287.61)">
<title>finite_state_machine</title>
<polygon fill="white" stroke="none" points="-4,4 -4,-287.61 912.68,-287.61 912.68,4 -4,4"/>
<text text-anchor="middle" x="454.34" y="-23.7" font-family="Times,serif" font-size="14.00">Regular Expression: </text>
<text text-anchor="middle" x="454.34" y="-7.2" font-family="Times,serif" font-size="14.00">xyzzy401</text>
<!-- s14 -->
<g id="node1" class="node">
<title>s14</title>
<ellipse fill="none" stroke="black" cx="880.96" cy="-241.11" rx="23.71" ry="23.71"/>
<ellipse fill="none" stroke="black" cx="880.96" cy="-241.11" rx="27.71" ry="27.71"/>
<text text-anchor="middle" x="880.96" y="-236.06" font-family="Times,serif" font-size="14.00">s14</text>
</g>
<!-- s0 -->
<g id="node2" class="node">
<title>s0</title>
<ellipse fill="none" stroke="black" cx="19.11" cy="-60.11" rx="19.11" ry="19.11"/>
<text text-anchor="middle" x="19.11" y="-55.06" font-family="Times,serif" font-size="14.00">s0</text>
</g>
<!-- s1 -->
<g id="node3" class="node">
<title>s1</title>
<ellipse fill="none" stroke="black" cx="100.07" cy="-113.11" rx="19.11" ry="19.11"/>
<text text-anchor="middle" x="100.07" y="-108.06" font-family="Times,serif" font-size="14.00">s1</text>
</g>
<!-- s0&#45;&gt;s1 -->
<g id="edge1" class="edge">
<title>s0&#45;&gt;s1</title>
<path fill="none" stroke="black" d="M37.51,-66C45.59,-69.13 55.13,-73.42 62.97,-78.61 68.39,-82.2 73.73,-86.65 78.58,-91.14"/>
<polygon fill="black" stroke="black" points="76.01,-93.53 85.59,-98.05 80.92,-88.54 76.01,-93.53"/>
<text text-anchor="middle" x="59.59" y="-81.81" font-family="Times,serif" font-size="14.00">a</text>
</g>
<!-- s2 -->
<g id="node4" class="node">
<title>s2</title>
<ellipse fill="none" stroke="black" cx="181.04" cy="-125.11" rx="19.11" ry="19.11"/>
<text text-anchor="middle" x="181.04" y="-120.06" font-family="Times,serif" font-size="14.00">s2</text>
</g>
<!-- s1&#45;&gt;s2 -->
<g id="edge2" class="edge">
<title>s1&#45;&gt;s2</title>
<path fill="none" stroke="black" d="M119.39,-115.89C128.66,-117.3 140.13,-119.04 150.6,-120.63"/>
<polygon fill="black" stroke="black" points="149.91,-124.07 160.33,-122.11 150.97,-117.15 149.91,-124.07"/>
<text text-anchor="middle" x="140.56" y="-122.67" font-family="Times,serif" font-size="14.00">d</text>
</g>
<!-- s4 -->
<g id="node5" class="node">
<title>s4</title>
<ellipse fill="none" stroke="black" cx="19.11" cy="-156.11" rx="19.11" ry="19.11"/>
<text text-anchor="middle" x="19.11" y="-151.06" font-family="Times,serif" font-size="14.00">s4</text>
</g>
<!-- s1&#45;&gt;s4 -->
<g id="edge3" class="edge">
<title>s1&#45;&gt;s4</title>
<path fill="none" stroke="black" d="M83.35,-103.48C74.95,-99.64 64.63,-97.09 56.22,-101.61 45.49,-107.37 37.41,-117.87 31.65,-128.12"/>
<polygon fill="black" stroke="black" points="28.67,-126.25 27.32,-136.76 34.93,-129.39 28.67,-126.25"/>
<text text-anchor="middle" x="59.59" y="-104.81" font-family="Times,serif" font-size="14.00">λ</text>
</g>
<!-- s3 -->
<g id="node6" class="node">
<title>s3</title>
<ellipse fill="none" stroke="black" cx="261.25" cy="-151.11" rx="19.11" ry="19.11"/>
<text text-anchor="middle" x="261.25" y="-146.06" font-family="Times,serif" font-size="14.00">s3</text>
</g>
<!-- s2&#45;&gt;s3 -->
<g id="edge4" class="edge">
<title>s2&#45;&gt;s3</title>
<path fill="none" stroke="black" d="M199.4,-130.88C208.95,-134.05 221.04,-138.07 231.92,-141.69"/>
<polygon fill="black" stroke="black" points="230.64,-144.95 241.24,-144.79 232.85,-138.31 230.64,-144.95"/>
<text text-anchor="middle" x="221.15" y="-142.09" font-family="Times,serif" font-size="14.00">e</text>
</g>
<!-- s4&#45;&gt;s1 -->
<g id="edge6" class="edge">
<title>s4&#45;&gt;s1</title>
<path fill="none" stroke="black" d="M36.47,-147.2C46.95,-141.49 60.79,-133.95 72.79,-127.42"/>
<polygon fill="black" stroke="black" points="74.29,-130.59 81.4,-122.73 70.95,-124.44 74.29,-130.59"/>
<text text-anchor="middle" x="59.59" y="-139.1" font-family="Times,serif" font-size="14.00">λ</text>
</g>
<!-- s5 -->
<g id="node7" class="node">
<title>s5</title>
<ellipse fill="none" stroke="black" cx="100.07" cy="-219.11" rx="19.11" ry="19.11"/>
<text text-anchor="middle" x="100.07" y="-214.06" font-family="Times,serif" font-size="14.00">s5</text>
</g>
<!-- s4&#45;&gt;s5 -->
<g id="edge7" class="edge">
<title>s4&#45;&gt;s5</title>
<path fill="none" stroke="black" d="M34.41,-168.2C41.01,-173.72 48.96,-180.3 56.22,-186.11 62.42,-191.07 69.21,-196.36 75.52,-201.22"/>
<polygon fill="black" stroke="black" points="73.02,-203.72 83.09,-207.02 77.28,-198.16 73.02,-203.72"/>
<text text-anchor="middle" x="59.59" y="-193.88" font-family="Times,serif" font-size="14.00">τ</text>
</g>
<!-- s3&#45;&gt;s4 -->
<g id="edge5" class="edge">
<title>s3&#45;&gt;s4</title>
<path fill="none" stroke="black" d="M242.35,-155.28C236.58,-156.44 230.12,-157.53 224.15,-158.11 221.49,-158.36 220.81,-158.12 218.15,-158.11 158.58,-157.81 88.93,-157 50.13,-156.51"/>
<polygon fill="black" stroke="black" points="50.23,-153.01 40.19,-156.38 50.14,-160.01 50.23,-153.01"/>
<text text-anchor="middle" x="140.56" y="-160.74" font-family="Times,serif" font-size="14.00">f</text>
</g>
<!-- s6 -->
<g id="node8" class="node">
<title>s6</title>
<ellipse fill="none" stroke="black" cx="181.04" cy="-219.11" rx="19.11" ry="19.11"/>
<text text-anchor="middle" x="181.04" y="-214.06" font-family="Times,serif" font-size="14.00">s6</text>
</g>
<!-- s5&#45;&gt;s6 -->
<g id="edge8" class="edge">
<title>s5&#45;&gt;s6</title>
<path fill="none" stroke="black" d="M119.39,-219.11C128.49,-219.11 139.73,-219.11 150.04,-219.11"/>
<polygon fill="black" stroke="black" points="150.04,-222.61 160.04,-219.11 150.04,-215.61 150.04,-222.61"/>
<text text-anchor="middle" x="140.56" y="-222.31" font-family="Times,serif" font-size="14.00">k</text>
</g>
<!-- s12 -->
<g id="node9" class="node">
<title>s12</title>
<ellipse fill="none" stroke="black" cx="697.36" cy="-241.11" rx="23.71" ry="23.71"/>
<text text-anchor="middle" x="697.36" y="-236.06" font-family="Times,serif" font-size="14.00">s12</text>
</g>
<!-- s5&#45;&gt;s12 -->
<g id="edge9" class="edge">
<title>s5&#45;&gt;s12</title>
<path fill="none" stroke="black" d="M113.88,-232.99C128.41,-247.17 153.57,-267.11 180.04,-267.11 180.04,-267.11 180.04,-267.11 608.93,-267.11 627.97,-267.11 648.42,-261.37 664.74,-255.29"/>
<polygon fill="black" stroke="black" points="665.91,-258.59 673.91,-251.64 663.33,-252.08 665.91,-258.59"/>
<text text-anchor="middle" x="389.45" y="-270.31" font-family="Times,serif" font-size="14.00">λ</text>
</g>
<!-- s7 -->
<g id="node10" class="node">
<title>s7</title>
<ellipse fill="none" stroke="black" cx="261.25" cy="-216.11" rx="19.11" ry="19.11"/>
<text text-anchor="middle" x="261.25" y="-211.06" font-family="Times,serif" font-size="14.00">s7</text>
</g>
<!-- s6&#45;&gt;s7 -->
<g id="edge10" class="edge">
<title>s6&#45;&gt;s7</title>
<path fill="none" stroke="black" d="M200.57,-218.4C209.53,-218.05 220.51,-217.63 230.6,-217.25"/>
<polygon fill="black" stroke="black" points="230.48,-220.75 240.34,-216.87 230.21,-213.76 230.48,-220.75"/>
<text text-anchor="middle" x="221.15" y="-220.9" font-family="Times,serif" font-size="14.00">l</text>
</g>
<!-- s13 -->
<g id="node15" class="node">
<title>s13</title>
<ellipse fill="none" stroke="black" cx="786.79" cy="-241.11" rx="23.71" ry="23.71"/>
<text text-anchor="middle" x="786.79" y="-236.06" font-family="Times,serif" font-size="14.00">s13</text>
</g>
<!-- s12&#45;&gt;s13 -->
<g id="edge17" class="edge">
<title>s12&#45;&gt;s13</title>
<path fill="none" stroke="black" d="M721.33,-241.11C730.49,-241.11 741.24,-241.11 751.3,-241.11"/>
<polygon fill="black" stroke="black" points="751.15,-244.61 761.15,-241.11 751.15,-237.61 751.15,-244.61"/>
<text text-anchor="middle" x="742.07" y="-244.31" font-family="Times,serif" font-size="14.00">τ</text>
</g>
<!-- s8 -->
<g id="node11" class="node">
<title>s8</title>
<ellipse fill="none" stroke="black" cx="346.72" cy="-215.11" rx="19.11" ry="19.11"/>
<text text-anchor="middle" x="346.72" y="-210.06" font-family="Times,serif" font-size="14.00">s8</text>
</g>
<!-- s7&#45;&gt;s8 -->
<g id="edge11" class="edge">
<title>s7&#45;&gt;s8</title>
<path fill="none" stroke="black" d="M280.78,-215.89C291.15,-215.76 304.33,-215.6 316.1,-215.46"/>
<polygon fill="black" stroke="black" points="315.77,-218.97 325.73,-215.35 315.69,-211.97 315.77,-218.97"/>
<text text-anchor="middle" x="303.99" y="-218.87" font-family="Times,serif" font-size="14.00">m</text>
</g>
<!-- s9 -->
<g id="node12" class="node">
<title>s9</title>
<ellipse fill="none" stroke="black" cx="432.18" cy="-215.11" rx="19.11" ry="19.11"/>
<text text-anchor="middle" x="432.18" y="-210.06" font-family="Times,serif" font-size="14.00">s9</text>
</g>
<!-- s8&#45;&gt;s9 -->
<g id="edge12" class="edge">
<title>s8&#45;&gt;s9</title>
<path fill="none" stroke="black" d="M366.24,-215.11C376.61,-215.11 389.79,-215.11 401.56,-215.11"/>
<polygon fill="black" stroke="black" points="401.2,-218.61 411.2,-215.11 401.2,-211.61 401.2,-218.61"/>
<text text-anchor="middle" x="389.45" y="-218.31" font-family="Times,serif" font-size="14.00">m</text>
</g>
<!-- s10 -->
<g id="node13" class="node">
<title>s10</title>
<ellipse fill="none" stroke="black" cx="517.75" cy="-215.11" rx="23.71" ry="23.71"/>
<text text-anchor="middle" x="517.75" y="-210.06" font-family="Times,serif" font-size="14.00">s10</text>
</g>
<!-- s9&#45;&gt;s10 -->
<g id="edge13" class="edge">
<title>s9&#45;&gt;s10</title>
<path fill="none" stroke="black" d="M451.73,-215.11C460.74,-215.11 471.87,-215.11 482.36,-215.11"/>
<polygon fill="black" stroke="black" points="482.27,-218.61 492.27,-215.11 482.27,-211.61 482.27,-218.61"/>
<text text-anchor="middle" x="472.67" y="-218.31" font-family="Times,serif" font-size="14.00">n</text>
</g>
<!-- s11 -->
<g id="node14" class="node">
<title>s11</title>
<ellipse fill="none" stroke="black" cx="607.93" cy="-215.11" rx="23.71" ry="23.71"/>
<text text-anchor="middle" x="607.93" y="-210.06" font-family="Times,serif" font-size="14.00">s11</text>
</g>
<!-- s10&#45;&gt;s11 -->
<g id="edge14" class="edge">
<title>s10&#45;&gt;s11</title>
<path fill="none" stroke="black" d="M541.92,-215.11C551.34,-215.11 562.41,-215.11 572.73,-215.11"/>
<polygon fill="black" stroke="black" points="572.4,-218.61 582.4,-215.11 572.4,-211.61 572.4,-218.61"/>
<text text-anchor="middle" x="562.84" y="-218.31" font-family="Times,serif" font-size="14.00">o</text>
</g>
<!-- s11&#45;&gt;s12 -->
<g id="edge16" class="edge">
<title>s11&#45;&gt;s12</title>
<path fill="none" stroke="black" d="M630.99,-221.67C640.83,-224.59 652.62,-228.1 663.47,-231.33"/>
<polygon fill="black" stroke="black" points="662.27,-234.62 672.85,-234.12 664.27,-227.91 662.27,-234.62"/>
<text text-anchor="middle" x="652.65" y="-232.09" font-family="Times,serif" font-size="14.00">τ</text>
</g>
<!-- s11&#45;&gt;s8 -->
<g id="edge15" class="edge">
<title>s11&#45;&gt;s8</title>
<path fill="none" stroke="black" d="M587.52,-202.29C574.96,-194.78 557.94,-186.02 541.47,-182.11 485.91,-168.9 468.64,-173.91 413.08,-187.11 399.88,-190.24 385.97,-195.84 374.39,-201.22"/>
<polygon fill="black" stroke="black" points="372.93,-198.04 365.46,-205.55 375.99,-204.33 372.93,-198.04"/>
<text text-anchor="middle" x="472.67" y="-178.61" font-family="Times,serif" font-size="14.00">λ</text>
</g>
<!-- s13&#45;&gt;s14 -->
<g id="edge18" class="edge">
<title>s13&#45;&gt;s14</title>
<path fill="none" stroke="black" d="M810.57,-241.11C819.87,-241.11 830.88,-241.11 841.36,-241.11"/>
<polygon fill="black" stroke="black" points="841.34,-244.61 851.34,-241.11 841.34,-237.61 841.34,-244.61"/>
<text text-anchor="middle" x="831.88" y="-244.31" font-family="Times,serif" font-size="14.00">b</text>
</g>
</g>
</svg>
