<?xml version="1.0" encoding="UTF-8" standalone="no"?>
<!DOCTYPE svg PUBLIC "-//W3C//DTD SVG 1.1//EN"
 "http://www.w3.org/Graphics/SVG/1.1/DTD/svg11.dtd">
<!-- Generated by graphviz version 2.38.0 (20140413.2041)
 -->
<!-- Title: finite_state_machine Pages: 1 -->
<svg width="444pt" height="159pt"
 viewBox="0.00 0.00 443.86 159.00" xmlns="http://www.w3.org/2000/svg" xmlns:xlink="http://www.w3.org/1999/xlink">
<g id="graph0" class="graph" transform="scale(1 1) rotate(0) translate(4 155)">
<title>finite_state_machine</title>
<polygon fill="white" stroke="none" points="-4,4 -4,-155 439.855,-155 439.855,4 -4,4"/>
<!-- s7 -->
<g id="node1" class="node"><title>s7</title>
<ellipse fill="none" stroke="black" cx="413.855" cy="-129" rx="18" ry="18"/>
<ellipse fill="none" stroke="black" cx="413.855" cy="-129" rx="22" ry="22"/>
<text text-anchor="middle" x="413.855" y="-124.8" font-family="Times,serif" font-size="14.00">s7</text>
</g>
<!-- s0 -->
<g id="node2" class="node"><title>s0</title>
<ellipse fill="none" stroke="black" cx="18" cy="-18" rx="18" ry="18"/>
<text text-anchor="middle" x="18" y="-13.8" font-family="Times,serif" font-size="14.00">s0</text>
</g>
<!-- s1 -->
<g id="node3" class="node"><title>s1</title>
<ellipse fill="none" stroke="black" cx="96.2139" cy="-18" rx="18" ry="18"/>
<text text-anchor="middle" x="96.2139" y="-13.8" font-family="Times,serif" font-size="14.00">s1</text>
</g>
<!-- s0&#45;&gt;s1 -->
<g id="edge1" class="edge"><title>s0&#45;&gt;s1</title>
<path fill="none" stroke="black" d="M36.2941,-18C45.6488,-18 57.4172,-18 67.9721,-18"/>
<polygon fill="black" stroke="black" points="67.9882,-21.5001 77.9882,-18 67.9882,-14.5001 67.9882,-21.5001"/>
<text text-anchor="middle" x="57.1069" y="-20.8" font-family="Times,serif" font-size="14.00">a</text>
</g>
<!-- s2 -->
<g id="node4" class="node"><title>s2</title>
<ellipse fill="none" stroke="black" cx="174.428" cy="-18" rx="18" ry="18"/>
<text text-anchor="middle" x="174.428" y="-13.8" font-family="Times,serif" font-size="14.00">s2</text>
</g>
<!-- s1&#45;&gt;s2 -->
<g id="edge2" class="edge"><title>s1&#45;&gt;s2</title>
<path fill="none" stroke="black" d="M114.508,-18C123.863,-18 135.631,-18 146.186,-18"/>
<polygon fill="black" stroke="black" points="146.202,-21.5001 156.202,-18 146.202,-14.5001 146.202,-21.5001"/>
<text text-anchor="middle" x="135.321" y="-20.8" font-family="Times,serif" font-size="14.00">a</text>
</g>
<!-- s3 -->
<g id="node5" class="node"><title>s3</title>
<ellipse fill="none" stroke="black" cx="253.428" cy="-55" rx="18" ry="18"/>
<text text-anchor="middle" x="253.428" y="-50.8" font-family="Times,serif" font-size="14.00">s3</text>
</g>
<!-- s2&#45;&gt;s3 -->
<g id="edge3" class="edge"><title>s2&#45;&gt;s3</title>
<path fill="none" stroke="black" d="M192.415,-15.5328C200.323,-15.092 209.674,-15.6147 217.428,-19 224.298,-21.9995 230.502,-27.0464 235.713,-32.4267"/>
<polygon fill="black" stroke="black" points="233.395,-35.0962 242.597,-40.3483 238.679,-30.5044 233.395,-35.0962"/>
<text text-anchor="middle" x="213.928" y="-21.8" font-family="Times,serif" font-size="14.00">b</text>
</g>
<!-- s4 -->
<g id="node6" class="node"><title>s4</title>
<ellipse fill="none" stroke="black" cx="174.428" cy="-92" rx="18" ry="18"/>
<text text-anchor="middle" x="174.428" y="-87.8" font-family="Times,serif" font-size="14.00">s4</text>
</g>
<!-- s3&#45;&gt;s4 -->
<g id="edge4" class="edge"><title>s3&#45;&gt;s4</title>
<path fill="none" stroke="black" d="M235.44,-52.5328C227.532,-52.092 218.182,-52.6147 210.428,-56 203.557,-58.9995 197.353,-64.0464 192.143,-69.4267"/>
<polygon fill="black" stroke="black" points="189.176,-67.5044 185.259,-77.3483 194.46,-72.0962 189.176,-67.5044"/>
<text text-anchor="middle" x="213.928" y="-58.8" font-family="Times,serif" font-size="14.00">b</text>
</g>
<!-- s4&#45;&gt;s3 -->
<g id="edge5" class="edge"><title>s4&#45;&gt;s3</title>
<path fill="none" stroke="black" d="M191.01,-84.5125C201.551,-79.4472 215.696,-72.6503 227.754,-66.856"/>
<polygon fill="black" stroke="black" points="229.371,-69.9622 236.869,-62.4764 226.339,-63.6528 229.371,-69.9622"/>
<text text-anchor="middle" x="213.928" y="-77.8" font-family="Times,serif" font-size="14.00">λ</text>
</g>
<!-- s5 -->
<g id="node7" class="node"><title>s5</title>
<ellipse fill="none" stroke="black" cx="253.428" cy="-129" rx="18" ry="18"/>
<text text-anchor="middle" x="253.428" y="-124.8" font-family="Times,serif" font-size="14.00">s5</text>
</g>
<!-- s4&#45;&gt;s5 -->
<g id="edge6" class="edge"><title>s4&#45;&gt;s5</title>
<path fill="none" stroke="black" d="M191.01,-99.4875C201.551,-104.553 215.696,-111.35 227.754,-117.144"/>
<polygon fill="black" stroke="black" points="226.339,-120.347 236.869,-121.524 229.371,-114.038 226.339,-120.347"/>
<text text-anchor="middle" x="213.928" y="-113.8" font-family="Times,serif" font-size="14.00">τ</text>
</g>
<!-- s6 -->
<g id="node8" class="node"><title>s6</title>
<ellipse fill="none" stroke="black" cx="331.642" cy="-129" rx="18" ry="18"/>
<text text-anchor="middle" x="331.642" y="-124.8" font-family="Times,serif" font-size="14.00">s6</text>
</g>
<!-- s5&#45;&gt;s6 -->
<g id="edge7" class="edge"><title>s5&#45;&gt;s6</title>
<path fill="none" stroke="black" d="M271.722,-129C281.076,-129 292.845,-129 303.4,-129"/>
<polygon fill="black" stroke="black" points="303.416,-132.5 313.416,-129 303.416,-125.5 303.416,-132.5"/>
<text text-anchor="middle" x="292.535" y="-131.8" font-family="Times,serif" font-size="14.00">c</text>
</g>
<!-- s6&#45;&gt;s7 -->
<g id="edge8" class="edge"><title>s6&#45;&gt;s7</title>
<path fill="none" stroke="black" d="M349.653,-129C358.923,-129 370.691,-129 381.552,-129"/>
<polygon fill="black" stroke="black" points="381.577,-132.5 391.577,-129 381.577,-125.5 381.577,-132.5"/>
<text text-anchor="middle" x="370.749" y="-131.8" font-family="Times,serif" font-size="14.00">c</text>
</g>
</g>
</svg>
