<?xml version="1.0" encoding="UTF-8" standalone="no"?>
<!DOCTYPE svg PUBLIC "-//W3C//DTD SVG 1.1//EN"
 "http://www.w3.org/Graphics/SVG/1.1/DTD/svg11.dtd">
<!-- Generated by graphviz version 12.2.1 (20241206.2353)
 -->
<!-- Title: finite_state_machine Pages: 1 -->
<svg width="294pt" height="360pt"
 viewBox="0.00 0.00 294.20 360.00" xmlns="http://www.w3.org/2000/svg" xmlns:xlink="http://www.w3.org/1999/xlink">
<g id="graph0" class="graph" transform="scale(0.942619 0.942619) rotate(0) translate(4 377.91)">
<title>finite_state_machine</title>
<polygon fill="white" stroke="none" points="-4,4 -4,-377.91 308.11,-377.91 308.11,4 -4,4"/>
<!-- s5 -->
<g id="node1" class="node">
<title>s5</title>
<ellipse fill="none" stroke="black" cx="281" cy="-350.81" rx="19.11" ry="19.11"/>
<ellipse fill="none" stroke="black" cx="281" cy="-350.81" rx="23.11" ry="23.11"/>
<text text-anchor="middle" x="281" y="-345.76" font-family="Times,serif" font-size="14.00">s5</text>
</g>
<!-- s0 -->
<g id="node2" class="node">
<title>s0</title>
<ellipse fill="none" stroke="black" cx="19.11" cy="-30.81" rx="19.11" ry="19.11"/>
<text text-anchor="middle" x="19.11" y="-25.76" font-family="Times,serif" font-size="14.00">s0</text>
</g>
<!-- s1 -->
<g id="node3" class="node">
<title>s1</title>
<ellipse fill="none" stroke="black" cx="99.32" cy="-30.81" rx="19.11" ry="19.11"/>
<text text-anchor="middle" x="99.32" y="-25.76" font-family="Times,serif" font-size="14.00">s1</text>
</g>
<!-- s0&#45;&gt;s1 -->
<g id="edge1" class="edge">
<title>s0&#45;&gt;s1</title>
<path fill="none" stroke="black" d="M38.64,-30.81C47.6,-30.81 58.58,-30.81 68.67,-30.81"/>
<polygon fill="black" stroke="black" points="68.41,-34.31 78.41,-30.81 68.41,-27.31 68.41,-34.31"/>
<text text-anchor="middle" x="59.22" y="-34.01" font-family="Times,serif" font-size="14.00">a</text>
</g>
<!-- s2 -->
<g id="node4" class="node">
<title>s2</title>
<ellipse fill="none" stroke="black" cx="196.04" cy="-150.81" rx="19.11" ry="19.11"/>
<text text-anchor="middle" x="196.04" y="-145.76" font-family="Times,serif" font-size="14.00">s2</text>
</g>
<!-- s1&#45;&gt;s2 -->
<g id="edge2" class="edge">
<title>s1&#45;&gt;s2</title>
<path fill="none" stroke="black" d="M118.26,-26.18C130.89,-24.05 147.51,-23.62 158.93,-32.31 185.62,-52.61 193.19,-92.14 195.03,-119.95"/>
<polygon fill="black" stroke="black" points="191.54,-120.06 195.45,-129.91 198.53,-119.77 191.54,-120.06"/>
<text text-anchor="middle" x="147.68" y="-35.51" font-family="Times,serif" font-size="14.00">a&#45;z</text>
</g>
<!-- s1&#45;&gt;s2 -->
<g id="edge3" class="edge">
<title>s1&#45;&gt;s2</title>
<path fill="none" stroke="black" d="M113.41,-17.35C125.97,-6.07 145.04,6.57 158.93,-4.31 176.97,-18.44 187.22,-81.7 191.9,-120.32"/>
<polygon fill="black" stroke="black" points="188.41,-120.63 193.03,-130.17 195.36,-119.83 188.41,-120.63"/>
<text text-anchor="middle" x="147.68" y="-7.51" font-family="Times,serif" font-size="14.00">A&#45;Z</text>
</g>
<!-- s1&#45;&gt;s2 -->
<g id="edge4" class="edge">
<title>s1&#45;&gt;s2</title>
<path fill="none" stroke="black" d="M112.42,-45.16C124.41,-59.49 143.22,-82.2 158.93,-102.31 165.09,-110.19 171.66,-118.92 177.49,-126.78"/>
<polygon fill="black" stroke="black" points="174.5,-128.62 183.26,-134.59 180.14,-124.47 174.5,-128.62"/>
<text text-anchor="middle" x="147.68" y="-105.51" font-family="Times,serif" font-size="14.00">_</text>
</g>
<!-- s3 -->
<g id="node5" class="node">
<title>s3</title>
<ellipse fill="none" stroke="black" cx="99.32" cy="-230.81" rx="19.11" ry="19.11"/>
<text text-anchor="middle" x="99.32" y="-225.76" font-family="Times,serif" font-size="14.00">s3</text>
</g>
<!-- s2&#45;&gt;s3 -->
<g id="edge5" class="edge">
<title>s2&#45;&gt;s3</title>
<path fill="none" stroke="black" d="M179.48,-160.59C167.29,-168.53 150.15,-180.35 136.43,-192.31 130.81,-197.21 125.11,-202.88 119.96,-208.34"/>
<polygon fill="black" stroke="black" points="117.58,-205.75 113.41,-215.49 122.75,-210.48 117.58,-205.75"/>
<text text-anchor="middle" x="147.68" y="-195.51" font-family="Times,serif" font-size="14.00">a&#45;z</text>
</g>
<!-- s2&#45;&gt;s3 -->
<g id="edge6" class="edge">
<title>s2&#45;&gt;s3</title>
<path fill="none" stroke="black" d="M176.86,-147.36C164.44,-146.02 148.17,-146.37 136.43,-154.31 120.71,-164.94 111.67,-184.32 106.56,-200.91"/>
<polygon fill="black" stroke="black" points="103.24,-199.79 104.01,-210.35 109.99,-201.61 103.24,-199.79"/>
<text text-anchor="middle" x="147.68" y="-157.51" font-family="Times,serif" font-size="14.00">A&#45;Z</text>
</g>
<!-- s2&#45;&gt;s3 -->
<g id="edge7" class="edge">
<title>s2&#45;&gt;s3</title>
<path fill="none" stroke="black" d="M181.61,-137.94C169.14,-127.61 150.44,-116.32 136.43,-126.31 113.05,-142.96 104.67,-175.81 101.73,-200.26"/>
<polygon fill="black" stroke="black" points="98.27,-199.69 100.83,-209.97 105.24,-200.34 98.27,-199.69"/>
<text text-anchor="middle" x="147.68" y="-129.51" font-family="Times,serif" font-size="14.00">_</text>
</g>
<!-- s2&#45;&gt;s3 -->
<g id="edge8" class="edge">
<title>s2&#45;&gt;s3</title>
<path fill="none" stroke="black" d="M192.89,-169.91C188.59,-204.28 177.7,-274.32 158.93,-288.81 151.01,-294.92 145.17,-293.66 136.43,-288.81 124.96,-282.44 116.66,-270.74 110.93,-259.51"/>
<polygon fill="black" stroke="black" points="114.14,-258.12 106.83,-250.45 107.77,-261.01 114.14,-258.12"/>
<text text-anchor="middle" x="147.68" y="-296.13" font-family="Times,serif" font-size="14.00">0&#45;9</text>
</g>
<!-- s2&#45;&gt;s3 -->
<g id="edge9" class="edge">
<title>s2&#45;&gt;s3</title>
<path fill="none" stroke="black" d="M194.15,-170.18C191.93,-193.3 184.36,-231.07 158.93,-248.81 148.94,-255.77 136.17,-252.92 125.1,-247.62"/>
<polygon fill="black" stroke="black" points="126.91,-244.63 116.48,-242.79 123.49,-250.73 126.91,-244.63"/>
<text text-anchor="middle" x="147.68" y="-256.13" font-family="Times,serif" font-size="14.00">λ</text>
</g>
<!-- s3&#45;&gt;s2 -->
<g id="edge10" class="edge">
<title>s3&#45;&gt;s2</title>
<path fill="none" stroke="black" d="M118.54,-227.22C130.97,-224.05 147.25,-218.38 158.93,-208.81 168.77,-200.74 176.7,-189.26 182.6,-178.63"/>
<polygon fill="black" stroke="black" points="185.68,-180.29 187.12,-169.8 179.45,-177.1 185.68,-180.29"/>
<text text-anchor="middle" x="147.68" y="-224.54" font-family="Times,serif" font-size="14.00">λ</text>
</g>
<!-- s4 -->
<g id="node6" class="node">
<title>s4</title>
<ellipse fill="none" stroke="black" cx="196.04" cy="-350.81" rx="19.11" ry="19.11"/>
<text text-anchor="middle" x="196.04" y="-345.76" font-family="Times,serif" font-size="14.00">s4</text>
</g>
<!-- s3&#45;&gt;s4 -->
<g id="edge11" class="edge">
<title>s3&#45;&gt;s4</title>
<path fill="none" stroke="black" d="M104.94,-249.36C110.17,-267.42 120.16,-294.84 136.43,-313.81 145.04,-323.84 157.05,-332.08 167.97,-338.21"/>
<polygon fill="black" stroke="black" points="166.12,-341.2 176.6,-342.74 169.37,-335 166.12,-341.2"/>
<text text-anchor="middle" x="147.68" y="-335.31" font-family="Times,serif" font-size="14.00">τ</text>
</g>
<!-- s4&#45;&gt;s5 -->
<g id="edge12" class="edge">
<title>s4&#45;&gt;s5</title>
<path fill="none" stroke="black" d="M215.45,-350.81C224.47,-350.81 235.62,-350.81 246.1,-350.81"/>
<polygon fill="black" stroke="black" points="245.99,-354.31 255.99,-350.81 245.99,-347.31 245.99,-354.31"/>
<text text-anchor="middle" x="236.52" y="-354.01" font-family="Times,serif" font-size="14.00">d</text>
</g>
</g>
</svg>
