<?xml version="1.0" encoding="UTF-8" standalone="no"?>
<!DOCTYPE svg PUBLIC "-//W3C//DTD SVG 1.1//EN"
 "http://www.w3.org/Graphics/SVG/1.1/DTD/svg11.dtd">
<!-- Generated by graphviz version 12.2.1 (20241206.2353)
 -->
<!-- Title: finite_state_machine Pages: 1 -->
<svg width="576pt" height="79pt"
 viewBox="0.00 0.00 576.00 78.55" xmlns="http://www.w3.org/2000/svg" xmlns:xlink="http://www.w3.org/1999/xlink">
<g id="graph0" class="graph" transform="scale(0.824996 0.824996) rotate(0) translate(4 91.22)">
<title>finite_state_machine</title>
<polygon fill="white" stroke="none" points="-4,4 -4,-91.22 694.19,-91.22 694.19,4 -4,4"/>
<text text-anchor="middle" x="345.09" y="-23.7" font-family="Times,serif" font-size="14.00">Regular Expression: </text>
<text text-anchor="middle" x="345.09" y="-7.2" font-family="Times,serif" font-size="14.00">xyzzy401</text>
<!-- s8 -->
<g id="node1" class="node">
<title>s8</title>
<ellipse fill="none" stroke="black" cx="667.08" cy="-64.11" rx="19.11" ry="19.11"/>
<ellipse fill="none" stroke="black" cx="667.08" cy="-64.11" rx="23.11" ry="23.11"/>
<text text-anchor="middle" x="667.08" y="-59.06" font-family="Times,serif" font-size="14.00">s8</text>
</g>
<!-- s0 -->
<g id="node2" class="node">
<title>s0</title>
<ellipse fill="none" stroke="black" cx="19.11" cy="-64.11" rx="19.11" ry="19.11"/>
<text text-anchor="middle" x="19.11" y="-59.06" font-family="Times,serif" font-size="14.00">s0</text>
</g>
<!-- s1 -->
<g id="node3" class="node">
<title>s1</title>
<ellipse fill="none" stroke="black" cx="99.32" cy="-64.11" rx="19.11" ry="19.11"/>
<text text-anchor="middle" x="99.32" y="-59.06" font-family="Times,serif" font-size="14.00">s1</text>
</g>
<!-- s0&#45;&gt;s1 -->
<g id="edge1" class="edge">
<title>s0&#45;&gt;s1</title>
<path fill="none" stroke="black" d="M38.64,-64.11C47.6,-64.11 58.58,-64.11 68.67,-64.11"/>
<polygon fill="black" stroke="black" points="68.41,-67.61 78.41,-64.11 68.41,-60.61 68.41,-67.61"/>
<text text-anchor="middle" x="59.22" y="-67.31" font-family="Times,serif" font-size="14.00">a</text>
</g>
<!-- s2 -->
<g id="node4" class="node">
<title>s2</title>
<ellipse fill="none" stroke="black" cx="179.54" cy="-64.11" rx="19.11" ry="19.11"/>
<text text-anchor="middle" x="179.54" y="-59.06" font-family="Times,serif" font-size="14.00">s2</text>
</g>
<!-- s1&#45;&gt;s2 -->
<g id="edge2" class="edge">
<title>s1&#45;&gt;s2</title>
<path fill="none" stroke="black" d="M118.86,-64.11C127.82,-64.11 138.8,-64.11 148.88,-64.11"/>
<polygon fill="black" stroke="black" points="148.62,-67.61 158.62,-64.11 148.62,-60.61 148.62,-67.61"/>
<text text-anchor="middle" x="139.43" y="-67.31" font-family="Times,serif" font-size="14.00">a</text>
</g>
<!-- s3 -->
<g id="node5" class="node">
<title>s3</title>
<ellipse fill="none" stroke="black" cx="260.5" cy="-64.11" rx="19.11" ry="19.11"/>
<text text-anchor="middle" x="260.5" y="-59.06" font-family="Times,serif" font-size="14.00">s3</text>
</g>
<!-- s2&#45;&gt;s3 -->
<g id="edge3" class="edge">
<title>s2&#45;&gt;s3</title>
<path fill="none" stroke="black" d="M198.85,-64.11C207.96,-64.11 219.19,-64.11 229.51,-64.11"/>
<polygon fill="black" stroke="black" points="229.5,-67.61 239.5,-64.11 229.5,-60.61 229.5,-67.61"/>
<text text-anchor="middle" x="220.02" y="-67.31" font-family="Times,serif" font-size="14.00">b</text>
</g>
<!-- s4 -->
<g id="node6" class="node">
<title>s4</title>
<ellipse fill="none" stroke="black" cx="341.47" cy="-64.11" rx="19.11" ry="19.11"/>
<text text-anchor="middle" x="341.47" y="-59.06" font-family="Times,serif" font-size="14.00">s4</text>
</g>
<!-- s3&#45;&gt;s4 -->
<g id="edge4" class="edge">
<title>s3&#45;&gt;s4</title>
<path fill="none" stroke="black" d="M279.82,-64.11C288.92,-64.11 300.16,-64.11 310.47,-64.11"/>
<polygon fill="black" stroke="black" points="310.47,-67.61 320.47,-64.11 310.47,-60.61 310.47,-67.61"/>
<text text-anchor="middle" x="300.99" y="-67.31" font-family="Times,serif" font-size="14.00">b</text>
</g>
<!-- s5 -->
<g id="node7" class="node">
<title>s5</title>
<ellipse fill="none" stroke="black" cx="422.43" cy="-64.11" rx="19.11" ry="19.11"/>
<text text-anchor="middle" x="422.43" y="-59.06" font-family="Times,serif" font-size="14.00">s5</text>
</g>
<!-- s4&#45;&gt;s5 -->
<g id="edge5" class="edge">
<title>s4&#45;&gt;s5</title>
<path fill="none" stroke="black" d="M360.78,-64.11C369.89,-64.11 381.12,-64.11 391.44,-64.11"/>
<polygon fill="black" stroke="black" points="391.43,-67.61 401.43,-64.11 391.43,-60.61 391.43,-67.61"/>
<text text-anchor="middle" x="381.95" y="-67.31" font-family="Times,serif" font-size="14.00">b</text>
</g>
<!-- s4&#45;&gt;s5 -->
<g id="edge6" class="edge">
<title>s4&#45;&gt;s5</title>
<path fill="none" stroke="black" d="M357.52,-53.25C363.73,-49.41 371.19,-45.56 378.58,-43.61 385.11,-41.88 391.86,-43.36 398.01,-46.18"/>
<polygon fill="black" stroke="black" points="395.96,-49.03 406.35,-51.07 399.5,-42.99 395.96,-49.03"/>
<text text-anchor="middle" x="381.95" y="-46.81" font-family="Times,serif" font-size="14.00">λ</text>
</g>
<!-- s6 -->
<g id="node8" class="node">
<title>s6</title>
<ellipse fill="none" stroke="black" cx="502.65" cy="-64.11" rx="19.11" ry="19.11"/>
<text text-anchor="middle" x="502.65" y="-59.06" font-family="Times,serif" font-size="14.00">s6</text>
</g>
<!-- s5&#45;&gt;s6 -->
<g id="edge7" class="edge">
<title>s5&#45;&gt;s6</title>
<path fill="none" stroke="black" d="M441.97,-64.11C450.93,-64.11 461.91,-64.11 471.99,-64.11"/>
<polygon fill="black" stroke="black" points="471.73,-67.61 481.73,-64.11 471.73,-60.61 471.73,-67.61"/>
<text text-anchor="middle" x="462.54" y="-67.31" font-family="Times,serif" font-size="14.00">τ</text>
</g>
<!-- s7 -->
<g id="node9" class="node">
<title>s7</title>
<ellipse fill="none" stroke="black" cx="582.86" cy="-64.11" rx="19.11" ry="19.11"/>
<text text-anchor="middle" x="582.86" y="-59.06" font-family="Times,serif" font-size="14.00">s7</text>
</g>
<!-- s6&#45;&gt;s7 -->
<g id="edge8" class="edge">
<title>s6&#45;&gt;s7</title>
<path fill="none" stroke="black" d="M522.18,-64.11C531.14,-64.11 542.12,-64.11 552.21,-64.11"/>
<polygon fill="black" stroke="black" points="551.95,-67.61 561.95,-64.11 551.95,-60.61 551.95,-67.61"/>
<text text-anchor="middle" x="542.76" y="-67.31" font-family="Times,serif" font-size="14.00">c</text>
</g>
<!-- s7&#45;&gt;s8 -->
<g id="edge9" class="edge">
<title>s7&#45;&gt;s8</title>
<path fill="none" stroke="black" d="M602.11,-64.11C610.98,-64.11 621.93,-64.11 632.24,-64.11"/>
<polygon fill="black" stroke="black" points="631.97,-67.61 641.97,-64.11 631.97,-60.61 631.97,-67.61"/>
<text text-anchor="middle" x="622.97" y="-67.31" font-family="Times,serif" font-size="14.00">c</text>
</g>
</g>
</svg>
