<?xml version="1.0" encoding="UTF-8" standalone="no"?>
<!DOCTYPE svg PUBLIC "-//W3C//DTD SVG 1.1//EN"
 "http://www.w3.org/Graphics/SVG/1.1/DTD/svg11.dtd">
<!-- Generated by graphviz version 12.2.1 (20241206.2353)
 -->
<!-- Title: finite_state_machine Pages: 1 -->
<svg width="455pt" height="79pt"
 viewBox="0.00 0.00 455.29 78.72" xmlns="http://www.w3.org/2000/svg" xmlns:xlink="http://www.w3.org/1999/xlink">
<g id="graph0" class="graph" transform="scale(1 1) rotate(0) translate(4 74.72)">
<title>finite_state_machine</title>
<polygon fill="white" stroke="none" points="-4,4 -4,-74.72 451.29,-74.72 451.29,4 -4,4"/>
<text text-anchor="middle" x="223.65" y="-7.2" font-family="Times,serif" font-size="14.00">Regular Expression: xyzzy401</text>
<!-- s5 -->
<g id="node1" class="node">
<title>s5</title>
<ellipse fill="none" stroke="black" cx="424.18" cy="-47.61" rx="19.11" ry="19.11"/>
<ellipse fill="none" stroke="black" cx="424.18" cy="-47.61" rx="23.11" ry="23.11"/>
<text text-anchor="middle" x="424.18" y="-42.56" font-family="Times,serif" font-size="14.00">s5</text>
</g>
<!-- s0 -->
<g id="node2" class="node">
<title>s0</title>
<ellipse fill="none" stroke="black" cx="19.11" cy="-47.61" rx="19.11" ry="19.11"/>
<text text-anchor="middle" x="19.11" y="-42.56" font-family="Times,serif" font-size="14.00">s0</text>
</g>
<!-- s1 -->
<g id="node3" class="node">
<title>s1</title>
<ellipse fill="none" stroke="black" cx="99.32" cy="-47.61" rx="19.11" ry="19.11"/>
<text text-anchor="middle" x="99.32" y="-42.56" font-family="Times,serif" font-size="14.00">s1</text>
</g>
<!-- s0&#45;&gt;s1 -->
<g id="edge1" class="edge">
<title>s0&#45;&gt;s1</title>
<path fill="none" stroke="black" d="M38.64,-47.61C47.6,-47.61 58.58,-47.61 68.67,-47.61"/>
<polygon fill="black" stroke="black" points="68.41,-51.11 78.41,-47.61 68.41,-44.11 68.41,-51.11"/>
<text text-anchor="middle" x="59.22" y="-50.81" font-family="Times,serif" font-size="14.00">a</text>
</g>
<!-- s2 -->
<g id="node4" class="node">
<title>s2</title>
<ellipse fill="none" stroke="black" cx="179.54" cy="-47.61" rx="19.11" ry="19.11"/>
<text text-anchor="middle" x="179.54" y="-42.56" font-family="Times,serif" font-size="14.00">s2</text>
</g>
<!-- s1&#45;&gt;s2 -->
<g id="edge2" class="edge">
<title>s1&#45;&gt;s2</title>
<path fill="none" stroke="black" d="M118.86,-47.61C127.82,-47.61 138.8,-47.61 148.88,-47.61"/>
<polygon fill="black" stroke="black" points="148.62,-51.11 158.62,-47.61 148.62,-44.11 148.62,-51.11"/>
<text text-anchor="middle" x="139.43" y="-50.81" font-family="Times,serif" font-size="14.00">a</text>
</g>
<!-- s3 -->
<g id="node5" class="node">
<title>s3</title>
<ellipse fill="none" stroke="black" cx="259.75" cy="-47.61" rx="19.11" ry="19.11"/>
<text text-anchor="middle" x="259.75" y="-42.56" font-family="Times,serif" font-size="14.00">s3</text>
</g>
<!-- s2&#45;&gt;s3 -->
<g id="edge3" class="edge">
<title>s2&#45;&gt;s3</title>
<path fill="none" stroke="black" d="M199.07,-47.61C208.03,-47.61 219.01,-47.61 229.1,-47.61"/>
<polygon fill="black" stroke="black" points="228.84,-51.11 238.84,-47.61 228.84,-44.11 228.84,-51.11"/>
<text text-anchor="middle" x="219.65" y="-50.81" font-family="Times,serif" font-size="14.00">τ</text>
</g>
<!-- s4 -->
<g id="node6" class="node">
<title>s4</title>
<ellipse fill="none" stroke="black" cx="339.97" cy="-47.61" rx="19.11" ry="19.11"/>
<text text-anchor="middle" x="339.97" y="-42.56" font-family="Times,serif" font-size="14.00">s4</text>
</g>
<!-- s3&#45;&gt;s4 -->
<g id="edge4" class="edge">
<title>s3&#45;&gt;s4</title>
<path fill="none" stroke="black" d="M279.29,-47.61C288.25,-47.61 299.23,-47.61 309.31,-47.61"/>
<polygon fill="black" stroke="black" points="309.05,-51.11 319.05,-47.61 309.05,-44.11 309.05,-51.11"/>
<text text-anchor="middle" x="299.86" y="-50.81" font-family="Times,serif" font-size="14.00">c</text>
</g>
<!-- s4&#45;&gt;s5 -->
<g id="edge5" class="edge">
<title>s4&#45;&gt;s5</title>
<path fill="none" stroke="black" d="M359.21,-47.61C368.08,-47.61 379.03,-47.61 389.35,-47.61"/>
<polygon fill="black" stroke="black" points="389.07,-51.11 399.07,-47.61 389.07,-44.11 389.07,-51.11"/>
<text text-anchor="middle" x="380.08" y="-50.81" font-family="Times,serif" font-size="14.00">c</text>
</g>
</g>
</svg>
