<?xml version="1.0" encoding="UTF-8" standalone="no"?>
<!DOCTYPE svg PUBLIC "-//W3C//DTD SVG 1.1//EN"
 "http://www.w3.org/Graphics/SVG/1.1/DTD/svg11.dtd">
<!-- Generated by graphviz version 12.2.1 (20241206.2353)
 -->
<!-- Title: finite_state_machine Pages: 1 -->
<svg width="456pt" height="195pt"
 viewBox="0.00 0.00 456.04 194.72" xmlns="http://www.w3.org/2000/svg" xmlns:xlink="http://www.w3.org/1999/xlink">
<g id="graph0" class="graph" transform="scale(1 1) rotate(0) translate(4 190.72)">
<title>finite_state_machine</title>
<polygon fill="white" stroke="none" points="-4,4 -4,-190.72 452.04,-190.72 452.04,4 -4,4"/>
<text text-anchor="middle" x="224.02" y="-7.2" font-family="Times,serif" font-size="14.00">Regular Expression: xyzzy401</text>
<!-- s7 -->
<g id="node1" class="node">
<title>s7</title>
<ellipse fill="none" stroke="black" cx="424.93" cy="-163.61" rx="19.11" ry="19.11"/>
<ellipse fill="none" stroke="black" cx="424.93" cy="-163.61" rx="23.11" ry="23.11"/>
<text text-anchor="middle" x="424.93" y="-158.56" font-family="Times,serif" font-size="14.00">s7</text>
</g>
<!-- s0 -->
<g id="node2" class="node">
<title>s0</title>
<ellipse fill="none" stroke="black" cx="19.11" cy="-43.61" rx="19.11" ry="19.11"/>
<text text-anchor="middle" x="19.11" y="-38.56" font-family="Times,serif" font-size="14.00">s0</text>
</g>
<!-- s1 -->
<g id="node3" class="node">
<title>s1</title>
<ellipse fill="none" stroke="black" cx="99.32" cy="-43.61" rx="19.11" ry="19.11"/>
<text text-anchor="middle" x="99.32" y="-38.56" font-family="Times,serif" font-size="14.00">s1</text>
</g>
<!-- s0&#45;&gt;s1 -->
<g id="edge1" class="edge">
<title>s0&#45;&gt;s1</title>
<path fill="none" stroke="black" d="M38.64,-43.61C47.6,-43.61 58.58,-43.61 68.67,-43.61"/>
<polygon fill="black" stroke="black" points="68.41,-47.11 78.41,-43.61 68.41,-40.11 68.41,-47.11"/>
<text text-anchor="middle" x="59.22" y="-46.81" font-family="Times,serif" font-size="14.00">a</text>
</g>
<!-- s2 -->
<g id="node4" class="node">
<title>s2</title>
<ellipse fill="none" stroke="black" cx="179.54" cy="-43.61" rx="19.11" ry="19.11"/>
<text text-anchor="middle" x="179.54" y="-38.56" font-family="Times,serif" font-size="14.00">s2</text>
</g>
<!-- s1&#45;&gt;s2 -->
<g id="edge2" class="edge">
<title>s1&#45;&gt;s2</title>
<path fill="none" stroke="black" d="M118.86,-43.61C127.82,-43.61 138.8,-43.61 148.88,-43.61"/>
<polygon fill="black" stroke="black" points="148.62,-47.11 158.62,-43.61 148.62,-40.11 148.62,-47.11"/>
<text text-anchor="middle" x="139.43" y="-46.81" font-family="Times,serif" font-size="14.00">a</text>
</g>
<!-- s3 -->
<g id="node5" class="node">
<title>s3</title>
<ellipse fill="none" stroke="black" cx="260.5" cy="-83.61" rx="19.11" ry="19.11"/>
<text text-anchor="middle" x="260.5" y="-78.56" font-family="Times,serif" font-size="14.00">s3</text>
</g>
<!-- s2&#45;&gt;s3 -->
<g id="edge3" class="edge">
<title>s2&#45;&gt;s3</title>
<path fill="none" stroke="black" d="M198.76,-41.23C206.65,-40.94 215.8,-41.66 223.4,-45.11 230.57,-48.37 237,-53.78 242.37,-59.53"/>
<polygon fill="black" stroke="black" points="239.38,-61.41 248.49,-66.83 244.75,-56.92 239.38,-61.41"/>
<text text-anchor="middle" x="220.02" y="-48.31" font-family="Times,serif" font-size="14.00">b</text>
</g>
<!-- s4 -->
<g id="node6" class="node">
<title>s4</title>
<ellipse fill="none" stroke="black" cx="179.54" cy="-123.61" rx="19.11" ry="19.11"/>
<text text-anchor="middle" x="179.54" y="-118.56" font-family="Times,serif" font-size="14.00">s4</text>
</g>
<!-- s3&#45;&gt;s4 -->
<g id="edge4" class="edge">
<title>s3&#45;&gt;s4</title>
<path fill="none" stroke="black" d="M241.28,-81.23C233.39,-80.94 224.24,-81.66 216.65,-85.11 209.47,-88.37 203.04,-93.78 197.67,-99.53"/>
<polygon fill="black" stroke="black" points="195.29,-96.92 191.55,-106.83 200.66,-101.41 195.29,-96.92"/>
<text text-anchor="middle" x="220.02" y="-88.31" font-family="Times,serif" font-size="14.00">b</text>
</g>
<!-- s4&#45;&gt;s3 -->
<g id="edge5" class="edge">
<title>s4&#45;&gt;s3</title>
<path fill="none" stroke="black" d="M196.9,-115.32C207.31,-110.05 221.04,-103.09 232.98,-97.04"/>
<polygon fill="black" stroke="black" points="234.2,-100.35 241.54,-92.71 231.04,-94.1 234.2,-100.35"/>
<text text-anchor="middle" x="220.02" y="-108.01" font-family="Times,serif" font-size="14.00">λ</text>
</g>
<!-- s5 -->
<g id="node7" class="node">
<title>s5</title>
<ellipse fill="none" stroke="black" cx="260.5" cy="-163.61" rx="19.11" ry="19.11"/>
<text text-anchor="middle" x="260.5" y="-158.56" font-family="Times,serif" font-size="14.00">s5</text>
</g>
<!-- s4&#45;&gt;s5 -->
<g id="edge6" class="edge">
<title>s4&#45;&gt;s5</title>
<path fill="none" stroke="black" d="M196.9,-131.9C207.31,-137.17 221.04,-144.12 232.98,-150.17"/>
<polygon fill="black" stroke="black" points="231.04,-153.11 241.54,-154.51 234.2,-146.87 231.04,-153.11"/>
<text text-anchor="middle" x="220.02" y="-148.01" font-family="Times,serif" font-size="14.00">τ</text>
</g>
<!-- s6 -->
<g id="node8" class="node">
<title>s6</title>
<ellipse fill="none" stroke="black" cx="340.72" cy="-163.61" rx="19.11" ry="19.11"/>
<text text-anchor="middle" x="340.72" y="-158.56" font-family="Times,serif" font-size="14.00">s6</text>
</g>
<!-- s5&#45;&gt;s6 -->
<g id="edge7" class="edge">
<title>s5&#45;&gt;s6</title>
<path fill="none" stroke="black" d="M280.04,-163.61C289,-163.61 299.98,-163.61 310.06,-163.61"/>
<polygon fill="black" stroke="black" points="309.8,-167.11 319.8,-163.61 309.8,-160.11 309.8,-167.11"/>
<text text-anchor="middle" x="300.61" y="-166.81" font-family="Times,serif" font-size="14.00">c</text>
</g>
<!-- s6&#45;&gt;s7 -->
<g id="edge8" class="edge">
<title>s6&#45;&gt;s7</title>
<path fill="none" stroke="black" d="M359.96,-163.61C368.83,-163.61 379.78,-163.61 390.1,-163.61"/>
<polygon fill="black" stroke="black" points="389.82,-167.11 399.82,-163.61 389.82,-160.11 389.82,-167.11"/>
<text text-anchor="middle" x="380.83" y="-166.81" font-family="Times,serif" font-size="14.00">c</text>
</g>
</g>
</svg>
