<?xml version="1.0" encoding="UTF-8" standalone="no"?>
<!DOCTYPE svg PUBLIC "-//W3C//DTD SVG 1.1//EN"
 "http://www.w3.org/Graphics/SVG/1.1/DTD/svg11.dtd">
<!-- Generated by graphviz version 12.2.1 (20241206.2353)
 -->
<!-- Title: finite_state_machine Pages: 1 -->
<svg width="576pt" height="162pt"
 viewBox="0.00 0.00 576.00 162.08" xmlns="http://www.w3.org/2000/svg" xmlns:xlink="http://www.w3.org/1999/xlink">
<g id="graph0" class="graph" transform="scale(0.51288 0.51288) rotate(0) translate(4 312.03)">
<title>finite_state_machine</title>
<polygon fill="white" stroke="none" points="-4,4 -4,-312.03 1119.07,-312.03 1119.07,4 -4,4"/>
<text text-anchor="middle" x="557.54" y="-23.7" font-family="Times,serif" font-size="14.00">Regular Expression: </text>
<text text-anchor="middle" x="557.54" y="-7.2" font-family="Times,serif" font-size="14.00">xyzzy401</text>
<!-- s15 -->
<g id="node1" class="node">
<title>s15</title>
<ellipse fill="none" stroke="black" cx="1087.36" cy="-190.11" rx="23.71" ry="23.71"/>
<ellipse fill="none" stroke="black" cx="1087.36" cy="-190.11" rx="27.71" ry="27.71"/>
<text text-anchor="middle" x="1087.36" y="-185.06" font-family="Times,serif" font-size="14.00">s15</text>
</g>
<!-- s0 -->
<g id="node2" class="node">
<title>s0</title>
<ellipse fill="none" stroke="black" cx="111.32" cy="-122.11" rx="19.11" ry="19.11"/>
<text text-anchor="middle" x="111.32" y="-117.06" font-family="Times,serif" font-size="14.00">s0</text>
</g>
<!-- s1 -->
<g id="node3" class="node">
<title>s1</title>
<ellipse fill="none" stroke="black" cx="19.11" cy="-108.11" rx="19.11" ry="19.11"/>
<text text-anchor="middle" x="19.11" y="-103.06" font-family="Times,serif" font-size="14.00">s1</text>
</g>
<!-- s0&#45;&gt;s1 -->
<g id="edge1" class="edge">
<title>s0&#45;&gt;s1</title>
<path fill="none" stroke="black" d="M92.09,-119.28C79.87,-117.38 63.51,-114.84 49.47,-112.66"/>
<polygon fill="black" stroke="black" points="50.28,-109.25 39.86,-111.17 49.2,-116.16 50.28,-109.25"/>
<text text-anchor="middle" x="65.22" y="-119.56" font-family="Times,serif" font-size="14.00">0&#45;9</text>
</g>
<!-- s0&#45;&gt;s1 -->
<g id="edge2" class="edge">
<title>s0&#45;&gt;s1</title>
<path fill="none" stroke="black" d="M97.59,-108.58C91.2,-102.78 82.97,-96.65 74.22,-93.61 65.3,-90.51 55.37,-91.85 46.48,-94.7"/>
<polygon fill="black" stroke="black" points="45.32,-91.39 37.32,-98.34 47.91,-97.89 45.32,-91.39"/>
<text text-anchor="middle" x="65.22" y="-96.81" font-family="Times,serif" font-size="14.00">λ</text>
</g>
<!-- s1&#45;&gt;s0 -->
<g id="edge3" class="edge">
<title>s1&#45;&gt;s0</title>
<path fill="none" stroke="black" d="M32.8,-121.86C39.18,-127.77 47.42,-134.01 56.22,-137.11 65.14,-140.25 75.07,-138.85 83.96,-135.91"/>
<polygon fill="black" stroke="black" points="85.2,-139.18 93.12,-132.15 82.54,-132.71 85.2,-139.18"/>
<text text-anchor="middle" x="65.22" y="-142.08" font-family="Times,serif" font-size="14.00">λ</text>
</g>
<!-- s2 -->
<g id="node4" class="node">
<title>s2</title>
<ellipse fill="none" stroke="black" cx="111.32" cy="-60.11" rx="19.11" ry="19.11"/>
<text text-anchor="middle" x="111.32" y="-55.06" font-family="Times,serif" font-size="14.00">s2</text>
</g>
<!-- s1&#45;&gt;s2 -->
<g id="edge4" class="edge">
<title>s1&#45;&gt;s2</title>
<path fill="none" stroke="black" d="M31.27,-93.23C37.74,-85.64 46.52,-76.91 56.22,-71.61 63.66,-67.54 72.41,-64.91 80.68,-63.21"/>
<polygon fill="black" stroke="black" points="81.07,-66.69 90.37,-61.62 79.94,-59.78 81.07,-66.69"/>
<text text-anchor="middle" x="65.22" y="-74.81" font-family="Times,serif" font-size="14.00">τ</text>
</g>
<!-- s3 -->
<g id="node5" class="node">
<title>s3</title>
<ellipse fill="none" stroke="black" cx="203.54" cy="-127.11" rx="19.11" ry="19.11"/>
<text text-anchor="middle" x="203.54" y="-122.06" font-family="Times,serif" font-size="14.00">s3</text>
</g>
<!-- s2&#45;&gt;s3 -->
<g id="edge5" class="edge">
<title>s2&#45;&gt;s3</title>
<path fill="none" stroke="black" d="M127.22,-71.17C141.19,-81.55 162.32,-97.24 178.65,-109.37"/>
<polygon fill="black" stroke="black" points="176.29,-111.97 186.4,-115.12 180.46,-106.35 176.29,-111.97"/>
<text text-anchor="middle" x="157.43" y="-102.81" font-family="Times,serif" font-size="14.00">.</text>
</g>
<!-- s4 -->
<g id="node6" class="node">
<title>s4</title>
<ellipse fill="none" stroke="black" cx="111.32" cy="-178.11" rx="19.11" ry="19.11"/>
<text text-anchor="middle" x="111.32" y="-173.06" font-family="Times,serif" font-size="14.00">s4</text>
</g>
<!-- s3&#45;&gt;s4 -->
<g id="edge6" class="edge">
<title>s3&#45;&gt;s4</title>
<path fill="none" stroke="black" d="M184.23,-123.73C173.24,-122.62 159.33,-122.88 148.43,-128.61 145.54,-130.13 137.13,-141.55 129.16,-153.04"/>
<polygon fill="black" stroke="black" points="126.3,-151.02 123.54,-161.25 132.08,-154.97 126.3,-151.02"/>
<text text-anchor="middle" x="157.43" y="-131.81" font-family="Times,serif" font-size="14.00">0&#45;9</text>
</g>
<!-- s4&#45;&gt;s3 -->
<g id="edge7" class="edge">
<title>s4&#45;&gt;s3</title>
<path fill="none" stroke="black" d="M128.45,-168.99C141.71,-161.49 160.76,-150.72 176.23,-141.98"/>
<polygon fill="black" stroke="black" points="177.94,-145.03 184.93,-137.06 174.5,-138.94 177.94,-145.03"/>
<text text-anchor="middle" x="157.43" y="-160.38" font-family="Times,serif" font-size="14.00">λ</text>
</g>
<!-- s5 -->
<g id="node7" class="node">
<title>s5</title>
<ellipse fill="none" stroke="black" cx="203.54" cy="-207.11" rx="19.11" ry="19.11"/>
<text text-anchor="middle" x="203.54" y="-202.06" font-family="Times,serif" font-size="14.00">s5</text>
</g>
<!-- s4&#45;&gt;s5 -->
<g id="edge8" class="edge">
<title>s4&#45;&gt;s5</title>
<path fill="none" stroke="black" d="M129.72,-183.7C142.24,-187.73 159.42,-193.25 173.95,-197.92"/>
<polygon fill="black" stroke="black" points="172.86,-201.24 183.45,-200.97 175,-194.58 172.86,-201.24"/>
<text text-anchor="middle" x="157.43" y="-198.4" font-family="Times,serif" font-size="14.00">τ</text>
</g>
<!-- s6 -->
<g id="node8" class="node">
<title>s6</title>
<ellipse fill="none" stroke="black" cx="286" cy="-247.11" rx="19.11" ry="19.11"/>
<text text-anchor="middle" x="286" y="-242.06" font-family="Times,serif" font-size="14.00">s6</text>
</g>
<!-- s5&#45;&gt;s6 -->
<g id="edge9" class="edge">
<title>s5&#45;&gt;s6</title>
<path fill="none" stroke="black" d="M221.07,-215.36C227.22,-218.42 234.25,-221.93 240.65,-225.11 246.42,-227.98 252.62,-231.05 258.49,-233.97"/>
<polygon fill="black" stroke="black" points="256.7,-236.99 267.21,-238.29 259.81,-230.72 256.7,-236.99"/>
<text text-anchor="middle" x="244.77" y="-231.91" font-family="Times,serif" font-size="14.00">e</text>
</g>
<!-- s5&#45;&gt;s6 -->
<g id="edge10" class="edge">
<title>s5&#45;&gt;s6</title>
<path fill="none" stroke="black" d="M222.54,-202.31C230.91,-201.01 240.77,-200.85 248.9,-204.61 256.87,-208.3 263.73,-214.71 269.26,-221.45"/>
<polygon fill="black" stroke="black" points="266.34,-223.4 275.07,-229.41 272,-219.27 266.34,-223.4"/>
<text text-anchor="middle" x="244.77" y="-207.81" font-family="Times,serif" font-size="14.00">E</text>
</g>
<!-- s14 -->
<g id="node9" class="node">
<title>s14</title>
<ellipse fill="none" stroke="black" cx="993.93" cy="-190.11" rx="23.71" ry="23.71"/>
<text text-anchor="middle" x="993.93" y="-185.06" font-family="Times,serif" font-size="14.00">s14</text>
</g>
<!-- s5&#45;&gt;s14 -->
<g id="edge11" class="edge">
<title>s5&#45;&gt;s14</title>
<path fill="none" stroke="black" d="M219.81,-196.67C235.45,-187 260.84,-174.11 285,-174.11 285,-174.11 285,-174.11 905.5,-174.11 923.63,-174.11 943.53,-177.48 959.76,-181.12"/>
<polygon fill="black" stroke="black" points="958.84,-184.5 969.38,-183.43 960.47,-177.7 958.84,-184.5"/>
<text text-anchor="middle" x="581.38" y="-177.31" font-family="Times,serif" font-size="14.00">λ</text>
</g>
<!-- s7 -->
<g id="node10" class="node">
<title>s7</title>
<ellipse fill="none" stroke="black" cx="368.47" cy="-247.11" rx="19.11" ry="19.11"/>
<text text-anchor="middle" x="368.47" y="-242.06" font-family="Times,serif" font-size="14.00">s7</text>
</g>
<!-- s6&#45;&gt;s7 -->
<g id="edge12" class="edge">
<title>s6&#45;&gt;s7</title>
<path fill="none" stroke="black" d="M305.26,-247.11C314.86,-247.11 326.88,-247.11 337.78,-247.11"/>
<polygon fill="black" stroke="black" points="337.49,-250.61 347.49,-247.11 337.49,-243.61 337.49,-250.61"/>
<text text-anchor="middle" x="327.24" y="-250.31" font-family="Times,serif" font-size="14.00">&#45;</text>
</g>
<!-- s6&#45;&gt;s7 -->
<g id="edge13" class="edge">
<title>s6&#45;&gt;s7</title>
<path fill="none" stroke="black" d="M300.91,-235.05C309.42,-229.12 320.7,-223.79 331.36,-226.61 335.05,-227.58 338.77,-229.03 342.33,-230.72"/>
<polygon fill="black" stroke="black" points="340.64,-233.78 351.09,-235.52 344,-227.65 340.64,-233.78"/>
<text text-anchor="middle" x="327.24" y="-229.81" font-family="Times,serif" font-size="14.00">+</text>
</g>
<!-- s6&#45;&gt;s7 -->
<g id="edge14" class="edge">
<title>s6&#45;&gt;s7</title>
<path fill="none" stroke="black" d="M302.58,-256.84C308.73,-260.15 316.02,-263.44 323.11,-265.11 329.64,-266.64 336.46,-265.42 342.74,-263.03"/>
<polygon fill="black" stroke="black" points="343.85,-266.38 351.3,-258.84 340.78,-260.1 343.85,-266.38"/>
<text text-anchor="middle" x="327.24" y="-268.99" font-family="Times,serif" font-size="14.00">λ</text>
</g>
<!-- s14&#45;&gt;s15 -->
<g id="edge26" class="edge">
<title>s14&#45;&gt;s15</title>
<path fill="none" stroke="black" d="M1018,-190.11C1027.15,-190.11 1037.91,-190.11 1048.16,-190.11"/>
<polygon fill="black" stroke="black" points="1047.88,-193.61 1057.88,-190.11 1047.88,-186.61 1047.88,-193.61"/>
<text text-anchor="middle" x="1038.64" y="-193.31" font-family="Times,serif" font-size="14.00">τ</text>
</g>
<!-- s8 -->
<g id="node11" class="node">
<title>s8</title>
<ellipse fill="none" stroke="black" cx="448.68" cy="-247.11" rx="19.11" ry="19.11"/>
<text text-anchor="middle" x="448.68" y="-242.06" font-family="Times,serif" font-size="14.00">s8</text>
</g>
<!-- s7&#45;&gt;s8 -->
<g id="edge15" class="edge">
<title>s7&#45;&gt;s8</title>
<path fill="none" stroke="black" d="M388,-247.11C396.96,-247.11 407.94,-247.11 418.03,-247.11"/>
<polygon fill="black" stroke="black" points="417.77,-250.61 427.77,-247.11 417.77,-243.61 417.77,-250.61"/>
<text text-anchor="middle" x="408.58" y="-250.31" font-family="Times,serif" font-size="14.00">τ</text>
</g>
<!-- s9 -->
<g id="node12" class="node">
<title>s9</title>
<ellipse fill="none" stroke="black" cx="540.9" cy="-264.11" rx="19.11" ry="19.11"/>
<text text-anchor="middle" x="540.9" y="-259.06" font-family="Times,serif" font-size="14.00">s9</text>
</g>
<!-- s8&#45;&gt;s9 -->
<g id="edge16" class="edge">
<title>s8&#45;&gt;s9</title>
<path fill="none" stroke="black" d="M467.97,-244.24C478.57,-243.16 492.1,-242.79 503.79,-245.61 507.24,-246.44 510.73,-247.66 514.11,-249.09"/>
<polygon fill="black" stroke="black" points="512.48,-252.18 523,-253.44 515.56,-245.9 512.48,-252.18"/>
<text text-anchor="middle" x="494.79" y="-248.81" font-family="Times,serif" font-size="14.00">0&#45;9</text>
</g>
<!-- s9&#45;&gt;s8 -->
<g id="edge17" class="edge">
<title>s9&#45;&gt;s8</title>
<path fill="none" stroke="black" d="M521.41,-265.04C510.86,-265.17 497.45,-264.66 485.79,-262.11 482.79,-261.45 479.71,-260.56 476.69,-259.53"/>
<polygon fill="black" stroke="black" points="478.18,-256.35 467.59,-255.97 475.62,-262.87 478.18,-256.35"/>
<text text-anchor="middle" x="494.79" y="-267.74" font-family="Times,serif" font-size="14.00">λ</text>
</g>
<!-- s10 -->
<g id="node13" class="node">
<title>s10</title>
<ellipse fill="none" stroke="black" cx="626.47" cy="-264.11" rx="23.71" ry="23.71"/>
<text text-anchor="middle" x="626.47" y="-259.06" font-family="Times,serif" font-size="14.00">s10</text>
</g>
<!-- s9&#45;&gt;s10 -->
<g id="edge18" class="edge">
<title>s9&#45;&gt;s10</title>
<path fill="none" stroke="black" d="M560.44,-264.11C569.46,-264.11 580.59,-264.11 591.08,-264.11"/>
<polygon fill="black" stroke="black" points="590.98,-267.61 600.98,-264.11 590.98,-260.61 590.98,-267.61"/>
<text text-anchor="middle" x="581.38" y="-267.31" font-family="Times,serif" font-size="14.00">τ</text>
</g>
<!-- s11 -->
<g id="node14" class="node">
<title>s11</title>
<ellipse fill="none" stroke="black" cx="713.65" cy="-249.11" rx="23.71" ry="23.71"/>
<text text-anchor="middle" x="713.65" y="-244.06" font-family="Times,serif" font-size="14.00">s11</text>
</g>
<!-- s10&#45;&gt;s11 -->
<g id="edge19" class="edge">
<title>s10&#45;&gt;s11</title>
<path fill="none" stroke="black" d="M650.29,-260.09C659.05,-258.55 669.24,-256.75 678.82,-255.06"/>
<polygon fill="black" stroke="black" points="679.32,-258.53 688.56,-253.35 678.11,-251.64 679.32,-258.53"/>
<text text-anchor="middle" x="670.06" y="-259.81" font-family="Times,serif" font-size="14.00">.</text>
</g>
<!-- s13 -->
<g id="node15" class="node">
<title>s13</title>
<ellipse fill="none" stroke="black" cx="904.5" cy="-247.11" rx="23.71" ry="23.71"/>
<text text-anchor="middle" x="904.5" y="-242.06" font-family="Times,serif" font-size="14.00">s13</text>
</g>
<!-- s10&#45;&gt;s13 -->
<g id="edge20" class="edge">
<title>s10&#45;&gt;s13</title>
<path fill="none" stroke="black" d="M649.12,-271.93C660.99,-275.82 676.08,-280.11 689.93,-282.11 755.42,-291.57 775.16,-298.24 838.79,-280.11 850.92,-276.65 863.45,-270.86 874.22,-265.08"/>
<polygon fill="black" stroke="black" points="875.61,-268.32 882.61,-260.37 872.18,-262.21 875.61,-268.32"/>
<text text-anchor="middle" x="764.36" y="-294.73" font-family="Times,serif" font-size="14.00">λ</text>
</g>
<!-- s12 -->
<g id="node16" class="node">
<title>s12</title>
<ellipse fill="none" stroke="black" cx="815.07" cy="-247.11" rx="23.71" ry="23.71"/>
<text text-anchor="middle" x="815.07" y="-242.06" font-family="Times,serif" font-size="14.00">s12</text>
</g>
<!-- s11&#45;&gt;s12 -->
<g id="edge21" class="edge">
<title>s11&#45;&gt;s12</title>
<path fill="none" stroke="black" d="M737.71,-248.64C750.26,-248.39 766.02,-248.07 779.97,-247.79"/>
<polygon fill="black" stroke="black" points="779.7,-251.3 789.63,-247.6 779.56,-244.3 779.7,-251.3"/>
<text text-anchor="middle" x="764.36" y="-251.49" font-family="Times,serif" font-size="14.00">0&#45;9</text>
</g>
<!-- s11&#45;&gt;s12 -->
<g id="edge22" class="edge">
<title>s11&#45;&gt;s12</title>
<path fill="none" stroke="black" d="M734.16,-236.35C740.64,-232.79 748.07,-229.41 755.36,-227.61 764.77,-225.27 774.85,-227.01 783.95,-230.24"/>
<polygon fill="black" stroke="black" points="782.5,-233.43 793.07,-234.15 785.25,-226.99 782.5,-233.43"/>
<text text-anchor="middle" x="764.36" y="-230.81" font-family="Times,serif" font-size="14.00">λ</text>
</g>
<!-- s13&#45;&gt;s14 -->
<g id="edge25" class="edge">
<title>s13&#45;&gt;s14</title>
<path fill="none" stroke="black" d="M924.9,-234.46C936.45,-226.93 951.31,-217.24 964.2,-208.84"/>
<polygon fill="black" stroke="black" points="965.85,-211.94 972.31,-203.55 962.02,-206.08 965.85,-211.94"/>
<text text-anchor="middle" x="949.22" y="-223.52" font-family="Times,serif" font-size="14.00">τ</text>
</g>
<!-- s12&#45;&gt;s11 -->
<g id="edge23" class="edge">
<title>s12&#45;&gt;s11</title>
<path fill="none" stroke="black" d="M793.92,-258C787.53,-260.9 780.32,-263.64 773.36,-265.11 764.35,-267.01 754.66,-265.76 745.81,-263.29"/>
<polygon fill="black" stroke="black" points="747.18,-260.06 736.59,-260.13 744.92,-266.68 747.18,-260.06"/>
<text text-anchor="middle" x="764.36" y="-269.23" font-family="Times,serif" font-size="14.00">λ</text>
</g>
<!-- s12&#45;&gt;s13 -->
<g id="edge24" class="edge">
<title>s12&#45;&gt;s13</title>
<path fill="none" stroke="black" d="M839.04,-247.11C848.21,-247.11 858.95,-247.11 869.02,-247.11"/>
<polygon fill="black" stroke="black" points="868.87,-250.61 878.87,-247.11 868.87,-243.61 868.87,-250.61"/>
<text text-anchor="middle" x="859.79" y="-250.31" font-family="Times,serif" font-size="14.00">τ</text>
</g>
</g>
</svg>
