<?xml version="1.0" encoding="UTF-8" standalone="no"?>
<!DOCTYPE svg PUBLIC "-//W3C//DTD SVG 1.1//EN"
 "http://www.w3.org/Graphics/SVG/1.1/DTD/svg11.dtd">
<!-- Generated by graphviz version 2.38.0 (20140413.2041)
 -->
<!-- Title: finite_state_machine Pages: 1 -->
<svg width="576pt" height="147pt"
 viewBox="0.00 0.00 576.00 146.92" xmlns="http://www.w3.org/2000/svg" xmlns:xlink="http://www.w3.org/1999/xlink">
<g id="graph0" class="graph" transform="scale(0.972977 0.972977) rotate(0) translate(4 147)">
<title>finite_state_machine</title>
<polygon fill="white" stroke="none" points="-4,4 -4,-147 587.997,-147 587.997,4 -4,4"/>
<!-- s1 -->
<g id="node1" class="node"><title>s1</title>
<ellipse fill="none" stroke="black" cx="561.997" cy="-68" rx="18" ry="18"/>
<ellipse fill="none" stroke="black" cx="561.997" cy="-68" rx="22" ry="22"/>
<text text-anchor="middle" x="561.997" y="-63.8" font-family="Times,serif" font-size="14.00">s1</text>
</g>
<!-- s0 -->
<g id="node2" class="node"><title>s0</title>
<ellipse fill="none" stroke="black" cx="97" cy="-92" rx="18" ry="18"/>
<text text-anchor="middle" x="97" y="-87.8" font-family="Times,serif" font-size="14.00">s0</text>
</g>
<!-- s2 -->
<g id="node3" class="node"><title>s2</title>
<ellipse fill="none" stroke="black" cx="18" cy="-73" rx="18" ry="18"/>
<text text-anchor="middle" x="18" y="-68.8" font-family="Times,serif" font-size="14.00">s2</text>
</g>
<!-- s0&#45;&gt;s2 -->
<g id="edge1" class="edge"><title>s0&#45;&gt;s2</title>
<path fill="none" stroke="black" d="M79.3248,-87.8853C69.4426,-85.4469 56.6959,-82.3016 45.4673,-79.5309"/>
<polygon fill="black" stroke="black" points="46.2552,-76.1204 35.7079,-77.1227 44.5781,-82.9165 46.2552,-76.1204"/>
<text text-anchor="middle" x="57.5" y="-85.8" font-family="Times,serif" font-size="14.00">a</text>
</g>
<!-- s0&#45;&gt;s2 -->
<g id="edge2" class="edge"><title>s0&#45;&gt;s2</title>
<path fill="none" stroke="black" d="M84.404,-78.8612C78.1556,-72.7839 69.9084,-66.2111 61,-63 55.6233,-61.0619 49.7235,-61.1655 44.0891,-62.2665"/>
<polygon fill="black" stroke="black" points="43.0193,-58.9327 34.4044,-65.0999 44.9849,-65.6511 43.0193,-58.9327"/>
<text text-anchor="middle" x="57.5" y="-65.8" font-family="Times,serif" font-size="14.00">λ</text>
</g>
<!-- s4 -->
<g id="node4" class="node"><title>s4</title>
<ellipse fill="none" stroke="black" cx="205" cy="-123" rx="18" ry="18"/>
<text text-anchor="middle" x="205" y="-118.8" font-family="Times,serif" font-size="14.00">s4</text>
</g>
<!-- s0&#45;&gt;s4 -->
<g id="edge3" class="edge"><title>s0&#45;&gt;s4</title>
<path fill="none" stroke="black" d="M114.562,-96.8438C131.52,-101.803 158.124,-109.583 177.914,-115.371"/>
<polygon fill="black" stroke="black" points="176.973,-118.743 187.554,-118.19 178.938,-112.024 176.973,-118.743"/>
<text text-anchor="middle" x="151" y="-114.8" font-family="Times,serif" font-size="14.00">a</text>
</g>
<!-- s7 -->
<g id="node5" class="node"><title>s7</title>
<ellipse fill="none" stroke="black" cx="205" cy="-69" rx="18" ry="18"/>
<text text-anchor="middle" x="205" y="-64.8" font-family="Times,serif" font-size="14.00">s7</text>
</g>
<!-- s0&#45;&gt;s7 -->
<g id="edge4" class="edge"><title>s0&#45;&gt;s7</title>
<path fill="none" stroke="black" d="M114.295,-86.9884C120.16,-85.2795 126.846,-83.4388 133,-82 147.442,-78.623 163.707,-75.5898 177.022,-73.3043"/>
<polygon fill="black" stroke="black" points="177.691,-76.7412 186.976,-71.6395 176.536,-69.8371 177.691,-76.7412"/>
<text text-anchor="middle" x="151" y="-84.8" font-family="Times,serif" font-size="14.00">a</text>
</g>
<!-- s2&#45;&gt;s0 -->
<g id="edge5" class="edge"><title>s2&#45;&gt;s0</title>
<path fill="none" stroke="black" d="M30.9931,-85.9877C37.2222,-91.7742 45.3354,-97.9606 54,-101 59.1457,-102.805 64.7786,-102.844 70.2005,-101.98"/>
<polygon fill="black" stroke="black" points="71.361,-105.296 80.1833,-99.4292 69.6281,-98.5137 71.361,-105.296"/>
<text text-anchor="middle" x="57.5" y="-104.8" font-family="Times,serif" font-size="14.00">λ</text>
</g>
<!-- s3 -->
<g id="node6" class="node"><title>s3</title>
<ellipse fill="none" stroke="black" cx="151" cy="-18" rx="18" ry="18"/>
<text text-anchor="middle" x="151" y="-13.8" font-family="Times,serif" font-size="14.00">s3</text>
</g>
<!-- s2&#45;&gt;s3 -->
<g id="edge6" class="edge"><title>s2&#45;&gt;s3</title>
<path fill="none" stroke="black" d="M30.9325,-60.3626C37.2667,-54.3191 45.4891,-47.4492 54,-43 75.7352,-31.6376 102.995,-25.1804 122.908,-21.6871"/>
<polygon fill="black" stroke="black" points="123.544,-25.1299 132.857,-20.0796 122.427,-18.2195 123.544,-25.1299"/>
<text text-anchor="middle" x="57.5" y="-45.8" font-family="Times,serif" font-size="14.00">τ</text>
</g>
<!-- s5 -->
<g id="node7" class="node"><title>s5</title>
<ellipse fill="none" stroke="black" cx="283.214" cy="-125" rx="18" ry="18"/>
<text text-anchor="middle" x="283.214" y="-120.8" font-family="Times,serif" font-size="14.00">s5</text>
</g>
<!-- s4&#45;&gt;s5 -->
<g id="edge8" class="edge"><title>s4&#45;&gt;s5</title>
<path fill="none" stroke="black" d="M223.294,-123.454C232.649,-123.699 244.417,-124.008 254.972,-124.285"/>
<polygon fill="black" stroke="black" points="254.9,-127.784 264.988,-124.548 255.083,-120.787 254.9,-127.784"/>
<text text-anchor="middle" x="244.107" y="-126.8" font-family="Times,serif" font-size="14.00">a</text>
</g>
<!-- s8 -->
<g id="node9" class="node"><title>s8</title>
<ellipse fill="none" stroke="black" cx="283.214" cy="-69" rx="18" ry="18"/>
<text text-anchor="middle" x="283.214" y="-64.8" font-family="Times,serif" font-size="14.00">s8</text>
</g>
<!-- s7&#45;&gt;s8 -->
<g id="edge11" class="edge"><title>s7&#45;&gt;s8</title>
<path fill="none" stroke="black" d="M223.294,-69C232.649,-69 244.417,-69 254.972,-69"/>
<polygon fill="black" stroke="black" points="254.988,-72.5001 264.988,-69 254.988,-65.5001 254.988,-72.5001"/>
<text text-anchor="middle" x="244.107" y="-71.8" font-family="Times,serif" font-size="14.00">a</text>
</g>
<!-- s3&#45;&gt;s1 -->
<g id="edge7" class="edge"><title>s3&#45;&gt;s1</title>
<path fill="none" stroke="black" d="M169.127,-18C187.439,-18 217.325,-18 243.107,-18 243.107,-18 243.107,-18 475.606,-18 499.159,-18 521.976,-32.3408 538.09,-45.662"/>
<polygon fill="black" stroke="black" points="536.038,-48.5164 545.874,-52.4538 540.64,-43.242 536.038,-48.5164"/>
<text text-anchor="middle" x="322.714" y="-20.8" font-family="Times,serif" font-size="14.00">λ</text>
</g>
<!-- s6 -->
<g id="node8" class="node"><title>s6</title>
<ellipse fill="none" stroke="black" cx="416.214" cy="-125" rx="18" ry="18"/>
<text text-anchor="middle" x="416.214" y="-120.8" font-family="Times,serif" font-size="14.00">s6</text>
</g>
<!-- s5&#45;&gt;s6 -->
<g id="edge9" class="edge"><title>s5&#45;&gt;s6</title>
<path fill="none" stroke="black" d="M301.34,-125C323.308,-125 361.678,-125 387.748,-125"/>
<polygon fill="black" stroke="black" points="388.084,-128.5 398.084,-125 388.084,-121.5 388.084,-128.5"/>
<text text-anchor="middle" x="322.714" y="-127.8" font-family="Times,serif" font-size="14.00">b</text>
</g>
<!-- s6&#45;&gt;s1 -->
<g id="edge10" class="edge"><title>s6&#45;&gt;s1</title>
<path fill="none" stroke="black" d="M433.643,-120.359C449.939,-115.59 475.513,-107.657 496.997,-99 509.043,-94.1463 521.995,-88.0476 533.074,-82.5464"/>
<polygon fill="black" stroke="black" points="534.908,-85.5415 542.259,-77.9121 531.755,-79.2919 534.908,-85.5415"/>
<text text-anchor="middle" x="474.606" y="-116.8" font-family="Times,serif" font-size="14.00">λ</text>
</g>
<!-- s9 -->
<g id="node10" class="node"><title>s9</title>
<ellipse fill="none" stroke="black" cx="362.214" cy="-68" rx="18" ry="18"/>
<text text-anchor="middle" x="362.214" y="-63.8" font-family="Times,serif" font-size="14.00">s9</text>
</g>
<!-- s8&#45;&gt;s9 -->
<g id="edge12" class="edge"><title>s8&#45;&gt;s9</title>
<path fill="none" stroke="black" d="M301.303,-68.7781C310.873,-68.6538 323.031,-68.4959 333.89,-68.3548"/>
<polygon fill="black" stroke="black" points="334.219,-71.851 344.173,-68.2213 334.128,-64.8516 334.219,-71.851"/>
<text text-anchor="middle" x="322.714" y="-70.8" font-family="Times,serif" font-size="14.00">a</text>
</g>
<!-- s10 -->
<g id="node11" class="node"><title>s10</title>
<ellipse fill="none" stroke="black" cx="474.606" cy="-68" rx="22.2841" ry="22.2841"/>
<text text-anchor="middle" x="474.606" y="-63.8" font-family="Times,serif" font-size="14.00">s10</text>
</g>
<!-- s9&#45;&gt;s10 -->
<g id="edge13" class="edge"><title>s9&#45;&gt;s10</title>
<path fill="none" stroke="black" d="M380.463,-68C396.808,-68 421.76,-68 441.725,-68"/>
<polygon fill="black" stroke="black" points="441.928,-71.5001 451.928,-68 441.927,-64.5001 441.928,-71.5001"/>
<text text-anchor="middle" x="416.214" y="-70.8" font-family="Times,serif" font-size="14.00">b</text>
</g>
<!-- s10&#45;&gt;s1 -->
<g id="edge14" class="edge"><title>s10&#45;&gt;s1</title>
<path fill="none" stroke="black" d="M497.154,-68C506.936,-68 518.701,-68 529.451,-68"/>
<polygon fill="black" stroke="black" points="529.752,-71.5001 539.752,-68 529.752,-64.5001 529.752,-71.5001"/>
<text text-anchor="middle" x="518.497" y="-70.8" font-family="Times,serif" font-size="14.00">λ</text>
</g>
</g>
</svg>
