<?xml version="1.0" encoding="UTF-8" standalone="no"?>
<!DOCTYPE svg PUBLIC "-//W3C//DTD SVG 1.1//EN"
 "http://www.w3.org/Graphics/SVG/1.1/DTD/svg11.dtd">
<!-- Generated by graphviz version 12.2.1 (20241206.2353)
 -->
<!-- Title: finite_state_machine Pages: 1 -->
<svg width="107pt" height="360pt"
 viewBox="0.00 0.00 107.16 360.00" xmlns="http://www.w3.org/2000/svg" xmlns:xlink="http://www.w3.org/1999/xlink">
<g id="graph0" class="graph" transform="scale(0.792691 0.792691) rotate(0) translate(4 450.15)">
<title>finite_state_machine</title>
<polygon fill="white" stroke="none" points="-4,4 -4,-450.15 131.18,-450.15 131.18,4 -4,4"/>
<!-- s1 -->
<g id="node1" class="node">
<title>s1</title>
<ellipse fill="none" stroke="black" cx="104.07" cy="-168.63" rx="19.11" ry="19.11"/>
<ellipse fill="none" stroke="black" cx="104.07" cy="-168.63" rx="23.11" ry="23.11"/>
<text text-anchor="middle" x="104.07" y="-163.58" font-family="Times,serif" font-size="14.00">s1</text>
</g>
<!-- s0 -->
<g id="node2" class="node">
<title>s0</title>
<ellipse fill="none" stroke="black" cx="19.11" cy="-168.63" rx="19.11" ry="19.11"/>
<text text-anchor="middle" x="19.11" y="-163.58" font-family="Times,serif" font-size="14.00">s0</text>
</g>
<!-- s0&#45;&gt;s1 -->
<g id="edge1" class="edge">
<title>s0&#45;&gt;s1</title>
<path fill="none" stroke="black" d="M19.71,-187.99C19.05,-242.54 20.47,-395.53 56.22,-426.63 90.69,-456.62 99.91,-280.9 102.29,-203.67"/>
<polygon fill="black" stroke="black" points="105.78,-203.77 102.57,-193.68 98.79,-203.58 105.78,-203.77"/>
<text text-anchor="middle" x="59.59" y="-432.85" font-family="Times,serif" font-size="14.00">λ</text>
</g>
<!-- s0&#45;&gt;s1 -->
<g id="edge2" class="edge">
<title>s0&#45;&gt;s1</title>
<path fill="none" stroke="black" d="M20.26,-188.11C21.11,-236.7 26.22,-361.19 56.22,-386.63 85.11,-411.13 97.21,-270.7 101.31,-203.24"/>
<polygon fill="black" stroke="black" points="104.79,-203.63 101.88,-193.44 97.8,-203.22 104.79,-203.63"/>
<text text-anchor="middle" x="59.59" y="-392.66" font-family="Times,serif" font-size="14.00">λ</text>
</g>
<!-- s0&#45;&gt;s1 -->
<g id="edge3" class="edge">
<title>s0&#45;&gt;s1</title>
<path fill="none" stroke="black" d="M21.05,-187.9C23.54,-229.74 31.86,-326.72 56.22,-346.63 79.54,-365.7 93.93,-260.07 99.89,-203.12"/>
<polygon fill="black" stroke="black" points="103.36,-203.58 100.88,-193.28 96.4,-202.88 103.36,-203.58"/>
<text text-anchor="middle" x="59.59" y="-352.1" font-family="Times,serif" font-size="14.00">λ</text>
</g>
<!-- s0&#45;&gt;s1 -->
<g id="edge4" class="edge">
<title>s0&#45;&gt;s1</title>
<path fill="none" stroke="black" d="M22.25,-187.73C26.55,-222.1 37.45,-292.14 56.22,-306.63 92.74,-334.82 101.01,-252.8 102.74,-203.3"/>
<polygon fill="black" stroke="black" points="106.23,-203.69 103,-193.6 99.23,-203.51 106.23,-203.69"/>
<text text-anchor="middle" x="59.59" y="-313.56" font-family="Times,serif" font-size="14.00">λ</text>
</g>
<!-- s0&#45;&gt;s1 -->
<g id="edge5" class="edge">
<title>s0&#45;&gt;s1</title>
<path fill="none" stroke="black" d="M20.99,-188C23.22,-211.12 30.78,-248.89 56.22,-266.63 81.86,-284.51 93.94,-238.14 99.27,-203.24"/>
<polygon fill="black" stroke="black" points="102.72,-203.83 100.62,-193.45 95.79,-202.87 102.72,-203.83"/>
<text text-anchor="middle" x="59.59" y="-272.42" font-family="Times,serif" font-size="14.00">λ</text>
</g>
<!-- s0&#45;&gt;s1 -->
<g id="edge6" class="edge">
<title>s0&#45;&gt;s1</title>
<path fill="none" stroke="black" d="M25.99,-186.89C31.46,-200.53 41.08,-218.22 56.22,-226.63 71.54,-235.14 83.76,-218.41 91.88,-200.77"/>
<polygon fill="black" stroke="black" points="94.98,-202.44 95.59,-191.86 88.52,-199.74 94.98,-202.44"/>
<text text-anchor="middle" x="59.59" y="-232.04" font-family="Times,serif" font-size="14.00">λ</text>
</g>
<!-- s0&#45;&gt;s1 -->
<g id="edge7" class="edge">
<title>s0&#45;&gt;s1</title>
<path fill="none" stroke="black" d="M35.68,-178.36C41.84,-181.67 49.12,-184.96 56.22,-186.63 62,-187.99 68.04,-187.35 73.77,-185.67"/>
<polygon fill="black" stroke="black" points="74.92,-188.98 82.89,-181.99 72.3,-182.49 74.92,-188.98"/>
<text text-anchor="middle" x="59.59" y="-190.56" font-family="Times,serif" font-size="14.00">λ</text>
</g>
<!-- s0&#45;&gt;s1 -->
<g id="edge8" class="edge">
<title>s0&#45;&gt;s1</title>
<path fill="none" stroke="black" d="M38.46,-167.11C44.15,-166.7 50.44,-166.33 56.22,-166.13 60.45,-165.98 64.91,-166 69.31,-166.11"/>
<polygon fill="black" stroke="black" points="69.02,-169.6 79.16,-166.56 69.33,-162.61 69.02,-169.6"/>
<text text-anchor="middle" x="59.59" y="-169.33" font-family="Times,serif" font-size="14.00">λ</text>
</g>
<!-- s0&#45;&gt;s1 -->
<g id="edge9" class="edge">
<title>s0&#45;&gt;s1</title>
<path fill="none" stroke="black" d="M34.25,-156.7C40.55,-152.13 48.33,-147.47 56.22,-145.13 63.09,-143.09 70.16,-144.53 76.67,-147.5"/>
<polygon fill="black" stroke="black" points="74.61,-150.35 85.01,-152.38 78.15,-144.31 74.61,-150.35"/>
<text text-anchor="middle" x="59.59" y="-148.33" font-family="Times,serif" font-size="14.00">λ</text>
</g>
<!-- s0&#45;&gt;s1 -->
<g id="edge10" class="edge">
<title>s0&#45;&gt;s1</title>
<path fill="none" stroke="black" d="M27.33,-151.03C34.79,-135.8 47.48,-117.24 62.97,-124.13 70.94,-127.67 77.99,-133.67 83.87,-140.14"/>
<polygon fill="black" stroke="black" points="81.15,-142.34 90.18,-147.88 86.58,-137.92 81.15,-142.34"/>
<text text-anchor="middle" x="59.59" y="-127.33" font-family="Times,serif" font-size="14.00">λ</text>
</g>
<!-- s0&#45;&gt;s1 -->
<g id="edge11" class="edge">
<title>s0&#45;&gt;s1</title>
<path fill="none" stroke="black" d="M24.55,-149.98C29.42,-134.15 38.94,-112.4 56.22,-102.13 73.66,-91.75 86.29,-113.98 94,-135.48"/>
<polygon fill="black" stroke="black" points="90.59,-136.3 97.03,-144.72 97.24,-134.12 90.59,-136.3"/>
<text text-anchor="middle" x="59.59" y="-105.33" font-family="Times,serif" font-size="14.00">λ</text>
</g>
<!-- s0&#45;&gt;s1 -->
<g id="edge12" class="edge">
<title>s0&#45;&gt;s1</title>
<path fill="none" stroke="black" d="M21.76,-149.37C24.72,-128.1 33.02,-94.78 56.22,-79.13 79.65,-63.31 92.15,-102.9 98.2,-134.39"/>
<polygon fill="black" stroke="black" points="94.71,-134.77 99.88,-144.02 101.6,-133.56 94.71,-134.77"/>
<text text-anchor="middle" x="59.59" y="-82.33" font-family="Times,serif" font-size="14.00">λ</text>
</g>
<!-- s0&#45;&gt;s1 -->
<g id="edge13" class="edge">
<title>s0&#45;&gt;s1</title>
<path fill="none" stroke="black" d="M19.86,-149.04C20.72,-122.72 26.67,-76.73 56.22,-55.13 86.05,-33.31 96.97,-93.11 100.9,-133.98"/>
<polygon fill="black" stroke="black" points="97.41,-134.25 101.75,-143.92 104.39,-133.66 97.41,-134.25"/>
<text text-anchor="middle" x="59.59" y="-58.33" font-family="Times,serif" font-size="14.00">λ</text>
</g>
<!-- s0&#45;&gt;s1 -->
<g id="edge14" class="edge">
<title>s0&#45;&gt;s1</title>
<path fill="none" stroke="black" d="M22.3,-149.32C26.64,-114.98 37.55,-45.52 56.22,-31.13 92.56,-3.09 100.91,-84.41 102.7,-133.77"/>
<polygon fill="black" stroke="black" points="99.2,-133.84 102.98,-143.73 106.2,-133.64 99.2,-133.84"/>
<text text-anchor="middle" x="59.59" y="-34.33" font-family="Times,serif" font-size="14.00">λ</text>
</g>
<!-- s0&#45;&gt;s1 -->
<g id="edge15" class="edge">
<title>s0&#45;&gt;s1</title>
<path fill="none" stroke="black" d="M21.48,-149.37C24.7,-110.48 34.18,-24.77 56.22,-7.13 99.18,27.3 104.27,-76.64 103.97,-133.76"/>
<polygon fill="black" stroke="black" points="100.48,-133.62 103.86,-143.66 107.48,-133.71 100.48,-133.62"/>
<text text-anchor="middle" x="59.59" y="-10.33" font-family="Times,serif" font-size="14.00">λ</text>
</g>
</g>
</svg>
