<?xml version="1.0" encoding="UTF-8" standalone="no"?>
<!DOCTYPE svg PUBLIC "-//W3C//DTD SVG 1.1//EN"
 "http://www.w3.org/Graphics/SVG/1.1/DTD/svg11.dtd">
<!-- Generated by graphviz version 12.2.1 (20241206.2353)
 -->
<!-- Title: finite_state_machine Pages: 1 -->
<svg width="99pt" height="360pt"
 viewBox="0.00 0.00 98.63 360.00" xmlns="http://www.w3.org/2000/svg" xmlns:xlink="http://www.w3.org/1999/xlink">
<g id="graph0" class="graph" transform="scale(0.457919 0.457919) rotate(0) translate(4 782.17)">
<title>finite_state_machine</title>
<polygon fill="white" stroke="none" points="-4,4 -4,-782.17 211.4,-782.17 211.4,4 -4,4"/>
<text text-anchor="middle" x="103.7" y="-7.2" font-family="Times,serif" font-size="14.00">Regular Expression: (||||||||a||||||)</text>
<!-- s1 -->
<g id="node1" class="node">
<title>s1</title>
<ellipse fill="none" stroke="black" cx="184.29" cy="-416.61" rx="19.11" ry="19.11"/>
<ellipse fill="none" stroke="black" cx="184.29" cy="-416.61" rx="23.11" ry="23.11"/>
<text text-anchor="middle" x="184.29" y="-411.56" font-family="Times,serif" font-size="14.00">s1</text>
</g>
<!-- s0 -->
<g id="node2" class="node">
<title>s0</title>
<ellipse fill="none" stroke="black" cx="19.11" cy="-416.61" rx="19.11" ry="19.11"/>
<text text-anchor="middle" x="19.11" y="-411.56" font-family="Times,serif" font-size="14.00">s0</text>
</g>
<!-- s0&#45;&gt;s1 -->
<g id="edge1" class="edge">
<title>s0&#45;&gt;s1</title>
<path fill="none" stroke="black" d="M20.96,-435.7C24.11,-502.71 36.01,-724.5 56.22,-748.61 63.35,-757.12 69.22,-754.04 80.22,-755.61 108.09,-759.59 124.88,-770 143.18,-748.61 180.89,-704.53 184.17,-527.01 183.79,-451.2"/>
<polygon fill="black" stroke="black" points="187.29,-451.43 183.71,-441.46 180.29,-451.48 187.29,-451.43"/>
<text text-anchor="middle" x="99.32" y="-764.87" font-family="Times,serif" font-size="14.00">λ</text>
</g>
<!-- s0&#45;&gt;s1 -->
<g id="edge2" class="edge">
<title>s0&#45;&gt;s1</title>
<path fill="none" stroke="black" d="M19.96,-435.81C19.91,-492.31 22.71,-656.46 56.22,-695.61 63.44,-704.05 69.22,-701.04 80.22,-702.61 108.09,-706.59 124.64,-716.8 143.18,-695.61 174.5,-659.83 181.38,-517.6 182.88,-451.15"/>
<polygon fill="black" stroke="black" points="186.37,-451.62 183.06,-441.55 179.37,-451.48 186.37,-451.62"/>
<text text-anchor="middle" x="99.32" y="-711.78" font-family="Times,serif" font-size="14.00">λ</text>
</g>
<!-- s0&#45;&gt;s1 -->
<g id="edge3" class="edge">
<title>s0&#45;&gt;s1</title>
<path fill="none" stroke="black" d="M20.62,-435.95C22.29,-484.9 29.21,-611.99 56.22,-642.61 63.56,-650.94 69.22,-648.04 80.22,-649.61 108.09,-653.59 124.29,-663.49 143.18,-642.61 168.14,-615.02 178.03,-507.45 181.55,-451.24"/>
<polygon fill="black" stroke="black" points="185.02,-451.78 182.12,-441.59 178.04,-451.36 185.02,-451.78"/>
<text text-anchor="middle" x="99.32" y="-658.66" font-family="Times,serif" font-size="14.00">λ</text>
</g>
<!-- s0&#45;&gt;s1 -->
<g id="edge4" class="edge">
<title>s0&#45;&gt;s1</title>
<path fill="none" stroke="black" d="M21.65,-435.79C25.27,-476.01 35.59,-567.31 56.22,-589.61 63.76,-597.76 69.22,-595.04 80.22,-596.61 108.09,-600.59 123.75,-609.99 143.18,-589.61 161.88,-569.99 173.81,-495.74 179.45,-451.14"/>
<polygon fill="black" stroke="black" points="182.89,-451.8 180.63,-441.45 175.95,-450.96 182.89,-451.8"/>
<text text-anchor="middle" x="99.32" y="-605.46" font-family="Times,serif" font-size="14.00">λ</text>
</g>
<!-- s0&#45;&gt;s1 -->
<g id="edge5" class="edge">
<title>s0&#45;&gt;s1</title>
<path fill="none" stroke="black" d="M20.49,-436.09C22.08,-462.51 28.87,-509.49 56.22,-536.61 64.11,-544.43 69.22,-542.04 80.22,-543.61 108.09,-547.59 122.81,-556.04 143.18,-536.61 166.58,-514.28 176.33,-477.95 180.39,-451.11"/>
<polygon fill="black" stroke="black" points="183.83,-451.75 181.65,-441.39 176.89,-450.85 183.83,-451.75"/>
<text text-anchor="middle" x="99.32" y="-552.1" font-family="Times,serif" font-size="14.00">λ</text>
</g>
<!-- s0&#45;&gt;s1 -->
<g id="edge6" class="edge">
<title>s0&#45;&gt;s1</title>
<path fill="none" stroke="black" d="M25.52,-434.84C30.93,-450 40.7,-471.06 56.22,-483.61 64.85,-490.6 69.22,-489.04 80.22,-490.61 108.09,-494.59 120.82,-500.73 143.18,-483.61 154.95,-474.59 163.99,-461.05 170.47,-448.5"/>
<polygon fill="black" stroke="black" points="173.54,-450.2 174.68,-439.67 167.22,-447.19 173.54,-450.2"/>
<text text-anchor="middle" x="99.32" y="-498.22" font-family="Times,serif" font-size="14.00">λ</text>
</g>
<!-- s0&#45;&gt;s1 -->
<g id="edge7" class="edge">
<title>s0&#45;&gt;s1</title>
<path fill="none" stroke="black" d="M37.02,-424.5C48.83,-429.52 65.11,-435.45 80.22,-437.61 108.09,-441.59 116.33,-439.08 143.18,-430.61 145.89,-429.75 148.69,-428.84 151.49,-427.9"/>
<polygon fill="black" stroke="black" points="152.38,-431.3 160.7,-424.75 150.11,-424.68 152.38,-431.3"/>
<text text-anchor="middle" x="99.32" y="-442.66" font-family="Times,serif" font-size="14.00">λ</text>
</g>
<!-- s0&#45;&gt;s1 -->
<g id="edge8" class="edge">
<title>s0&#45;&gt;s1</title>
<path fill="none" stroke="black" d="M38.51,-416.61C65.43,-416.61 115.98,-416.61 149.65,-416.61"/>
<polygon fill="black" stroke="black" points="149.28,-420.11 159.28,-416.61 149.28,-413.11 149.28,-420.11"/>
<text text-anchor="middle" x="99.32" y="-419.81" font-family="Times,serif" font-size="14.00">λ</text>
</g>
<!-- s0&#45;&gt;s1 -->
<g id="edge10" class="edge">
<title>s0&#45;&gt;s1</title>
<path fill="none" stroke="black" d="M37.08,-409.14C48.91,-404.36 65.2,-398.6 80.22,-396.11 96.97,-393.33 101.64,-393.52 118.43,-396.11 129.49,-397.81 141.24,-401.06 151.66,-404.48"/>
<polygon fill="black" stroke="black" points="150.33,-407.72 160.92,-407.7 152.63,-401.11 150.33,-407.72"/>
<text text-anchor="middle" x="99.32" y="-399.31" font-family="Times,serif" font-size="14.00">λ</text>
</g>
<!-- s0&#45;&gt;s1 -->
<g id="edge11" class="edge">
<title>s0&#45;&gt;s1</title>
<path fill="none" stroke="black" d="M33.03,-403.47C44.36,-392.97 61.83,-379.06 80.22,-373.11 96.37,-367.87 102.18,-368.16 118.43,-373.11 132.62,-377.42 146.52,-385.99 157.79,-394.39"/>
<polygon fill="black" stroke="black" points="155.38,-396.95 165.4,-400.38 159.7,-391.44 155.38,-396.95"/>
<text text-anchor="middle" x="99.32" y="-376.31" font-family="Times,serif" font-size="14.00">λ</text>
</g>
<!-- s0&#45;&gt;s1 -->
<g id="edge12" class="edge">
<title>s0&#45;&gt;s1</title>
<path fill="none" stroke="black" d="M29.27,-399.89C39.33,-383.48 57.16,-359.45 80.22,-349.11 95.71,-342.16 102.8,-342.45 118.43,-349.11 137.07,-357.05 152.94,-373.27 164.32,-387.82"/>
<polygon fill="black" stroke="black" points="161.47,-389.85 170.23,-395.81 167.1,-385.69 161.47,-389.85"/>
<text text-anchor="middle" x="99.32" y="-352.31" font-family="Times,serif" font-size="14.00">λ</text>
</g>
<!-- s0&#45;&gt;s1 -->
<g id="edge13" class="edge">
<title>s0&#45;&gt;s1</title>
<path fill="none" stroke="black" d="M25.6,-398.31C33.51,-375.7 50.52,-338.36 80.22,-323.11 95.32,-315.35 103.21,-315.57 118.43,-323.11 143.53,-335.54 160.72,-362.89 171.07,-384.81"/>
<polygon fill="black" stroke="black" points="167.74,-385.94 174.99,-393.66 174.14,-383.1 167.74,-385.94"/>
<text text-anchor="middle" x="99.32" y="-326.31" font-family="Times,serif" font-size="14.00">λ</text>
</g>
<!-- s0&#45;&gt;s1 -->
<g id="edge14" class="edge">
<title>s0&#45;&gt;s1</title>
<path fill="none" stroke="black" d="M22.91,-397.39C28.25,-368.97 42.89,-316.93 80.22,-297.11 95.22,-289.14 103.32,-289.35 118.43,-297.11 150.78,-313.71 167.68,-353.61 176.01,-382.75"/>
<polygon fill="black" stroke="black" points="172.58,-383.46 178.51,-392.24 179.35,-381.68 172.58,-383.46"/>
<text text-anchor="middle" x="99.32" y="-300.31" font-family="Times,serif" font-size="14.00">λ</text>
</g>
<!-- s0&#45;&gt;s1 -->
<g id="edge15" class="edge">
<title>s0&#45;&gt;s1</title>
<path fill="none" stroke="black" d="M20.94,-397.23C23.6,-363.61 34.63,-295.69 80.22,-271.11 95.16,-263.05 103.42,-263.15 118.43,-271.11 158.67,-292.44 173.98,-346.53 179.78,-382.41"/>
<polygon fill="black" stroke="black" points="176.25,-382.46 181.13,-391.86 183.18,-381.47 176.25,-382.46"/>
<text text-anchor="middle" x="99.32" y="-274.31" font-family="Times,serif" font-size="14.00">λ</text>
</g>
<!-- s2 -->
<g id="node3" class="node">
<title>s2</title>
<ellipse fill="none" stroke="black" cx="99.32" cy="-43.61" rx="19.11" ry="19.11"/>
<text text-anchor="middle" x="99.32" y="-38.56" font-family="Times,serif" font-size="14.00">s2</text>
</g>
<!-- s0&#45;&gt;s2 -->
<g id="edge9" class="edge">
<title>s0&#45;&gt;s2</title>
<path fill="none" stroke="black" d="M19.86,-397.33C19.38,-332.48 20.65,-123.16 56.22,-68.11 59.77,-62.6 65.03,-58.18 70.64,-54.7"/>
<polygon fill="black" stroke="black" points="72.22,-57.82 79.48,-50.1 68.99,-51.61 72.22,-57.82"/>
<text text-anchor="middle" x="59.22" y="-71.31" font-family="Times,serif" font-size="14.00">a</text>
</g>
<!-- s2&#45;&gt;s1 -->
<g id="edge16" class="edge">
<title>s2&#45;&gt;s1</title>
<path fill="none" stroke="black" d="M117.65,-49.17C126.76,-53.02 137.23,-59.09 143.18,-68.11 176.83,-119.13 182.37,-304.34 183.19,-381.99"/>
<polygon fill="black" stroke="black" points="179.69,-381.58 183.27,-391.55 186.69,-381.52 179.69,-381.58"/>
<text text-anchor="middle" x="139.81" y="-71.31" font-family="Times,serif" font-size="14.00">λ</text>
</g>
</g>
</svg>
