<?xml version="1.0" encoding="UTF-8" standalone="no"?>
<!DOCTYPE svg PUBLIC "-//W3C//DTD SVG 1.1//EN"
 "http://www.w3.org/Graphics/SVG/1.1/DTD/svg11.dtd">
<!-- Generated by graphviz version 2.38.0 (20140413.2041)
 -->
<!-- Title: finite_state_machine Pages: 1 -->
<svg width="368pt" height="183pt"
 viewBox="0.00 0.00 368.00 183.00" xmlns="http://www.w3.org/2000/svg" xmlns:xlink="http://www.w3.org/1999/xlink">
<g id="graph0" class="graph" transform="scale(1 1) rotate(0) translate(4 179)">
<title>finite_state_machine</title>
<polygon fill="white" stroke="none" points="-4,4 -4,-179 364,-179 364,4 -4,4"/>
<!-- s7 -->
<g id="node1" class="node"><title>s7</title>
<ellipse fill="none" stroke="black" cx="338" cy="-22" rx="18" ry="18"/>
<ellipse fill="none" stroke="black" cx="338" cy="-22" rx="22" ry="22"/>
<text text-anchor="middle" x="338" y="-17.8" font-family="Times,serif" font-size="14.00">s7</text>
</g>
<!-- s0 -->
<g id="node2" class="node"><title>s0</title>
<ellipse fill="none" stroke="black" cx="97" cy="-126" rx="18" ry="18"/>
<text text-anchor="middle" x="97" y="-121.8" font-family="Times,serif" font-size="14.00">s0</text>
</g>
<!-- s2 -->
<g id="node3" class="node"><title>s2</title>
<ellipse fill="none" stroke="black" cx="176" cy="-90" rx="18" ry="18"/>
<text text-anchor="middle" x="176" y="-85.8" font-family="Times,serif" font-size="14.00">s2</text>
</g>
<!-- s0&#45;&gt;s2 -->
<g id="edge1" class="edge"><title>s0&#45;&gt;s2</title>
<path fill="none" stroke="black" d="M113.582,-118.715C124.123,-113.787 138.268,-107.173 150.327,-101.536"/>
<polygon fill="black" stroke="black" points="151.865,-104.68 159.441,-97.2743 148.9,-98.3391 151.865,-104.68"/>
<text text-anchor="middle" x="136.5" y="-111.8" font-family="Times,serif" font-size="14.00">a</text>
</g>
<!-- s3 -->
<g id="node4" class="node"><title>s3</title>
<ellipse fill="none" stroke="black" cx="176" cy="-157" rx="18" ry="18"/>
<text text-anchor="middle" x="176" y="-152.8" font-family="Times,serif" font-size="14.00">s3</text>
</g>
<!-- s0&#45;&gt;s3 -->
<g id="edge2" class="edge"><title>s0&#45;&gt;s3</title>
<path fill="none" stroke="black" d="M113.954,-132.423C124.279,-136.58 137.943,-142.081 149.726,-146.825"/>
<polygon fill="black" stroke="black" points="148.482,-150.097 159.066,-150.585 151.097,-143.604 148.482,-150.097"/>
<text text-anchor="middle" x="136.5" y="-144.8" font-family="Times,serif" font-size="14.00">b</text>
</g>
<!-- s1 -->
<g id="node5" class="node"><title>s1</title>
<ellipse fill="none" stroke="black" cx="18" cy="-109" rx="18" ry="18"/>
<text text-anchor="middle" x="18" y="-104.8" font-family="Times,serif" font-size="14.00">s1</text>
</g>
<!-- s0&#45;&gt;s1 -->
<g id="edge3" class="edge"><title>s0&#45;&gt;s1</title>
<path fill="none" stroke="black" d="M80.7973,-117.425C74.8173,-114.492 67.7713,-111.559 61,-110 56.3977,-108.94 51.4367,-108.353 46.5927,-108.066"/>
<polygon fill="black" stroke="black" points="46.4312,-104.562 36.3605,-107.854 46.2856,-111.561 46.4312,-104.562"/>
<text text-anchor="middle" x="57.5" y="-112.8" font-family="Times,serif" font-size="14.00">λ</text>
</g>
<!-- s2&#45;&gt;s1 -->
<g id="edge6" class="edge"><title>s2&#45;&gt;s1</title>
<path fill="none" stroke="black" d="M158.182,-86.6961C138.882,-83.463 106.368,-79.7294 79,-85 66.8541,-87.3391 54.0415,-92.1148 43.3892,-96.7945"/>
<polygon fill="black" stroke="black" points="41.9073,-93.6236 34.2949,-100.993 44.8412,-99.9791 41.9073,-93.6236"/>
<text text-anchor="middle" x="97" y="-87.8" font-family="Times,serif" font-size="14.00">λ</text>
</g>
<!-- s3&#45;&gt;s1 -->
<g id="edge7" class="edge"><title>s3&#45;&gt;s1</title>
<path fill="none" stroke="black" d="M157.781,-159.51C132.778,-162.226 85.929,-163.723 54,-143 48.2176,-139.247 42.5748,-134.444 37.5672,-129.639"/>
<polygon fill="black" stroke="black" points="39.7974,-126.915 30.2921,-122.235 34.8045,-131.821 39.7974,-126.915"/>
<text text-anchor="middle" x="97" y="-162.8" font-family="Times,serif" font-size="14.00">λ</text>
</g>
<!-- s1&#45;&gt;s0 -->
<g id="edge4" class="edge"><title>s1&#45;&gt;s0</title>
<path fill="none" stroke="black" d="M34.278,-116.954C40.2672,-119.693 47.2999,-122.458 54,-124 58.6063,-125.06 63.5693,-125.712 68.4139,-126.094"/>
<polygon fill="black" stroke="black" points="68.4989,-129.602 78.646,-126.554 68.8133,-122.609 68.4989,-129.602"/>
<text text-anchor="middle" x="57.5" y="-127.8" font-family="Times,serif" font-size="14.00">λ</text>
</g>
<!-- s4 -->
<g id="node6" class="node"><title>s4</title>
<ellipse fill="none" stroke="black" cx="97" cy="-22" rx="18" ry="18"/>
<text text-anchor="middle" x="97" y="-17.8" font-family="Times,serif" font-size="14.00">s4</text>
</g>
<!-- s1&#45;&gt;s4 -->
<g id="edge5" class="edge"><title>s1&#45;&gt;s4</title>
<path fill="none" stroke="black" d="M25.7242,-92.5257C31.7024,-79.3476 41.4375,-60.9892 54,-48 59.0471,-42.7815 65.3491,-38.1711 71.524,-34.3374"/>
<polygon fill="black" stroke="black" points="73.3841,-37.3055 80.3193,-29.2959 69.9029,-31.2324 73.3841,-37.3055"/>
<text text-anchor="middle" x="57.5" y="-50.8" font-family="Times,serif" font-size="14.00">τ</text>
</g>
<!-- s5 -->
<g id="node7" class="node"><title>s5</title>
<ellipse fill="none" stroke="black" cx="176" cy="-22" rx="18" ry="18"/>
<text text-anchor="middle" x="176" y="-17.8" font-family="Times,serif" font-size="14.00">s5</text>
</g>
<!-- s4&#45;&gt;s5 -->
<g id="edge8" class="edge"><title>s4&#45;&gt;s5</title>
<path fill="none" stroke="black" d="M115.089,-22C124.659,-22 136.817,-22 147.677,-22"/>
<polygon fill="black" stroke="black" points="147.959,-25.5001 157.959,-22 147.959,-18.5001 147.959,-25.5001"/>
<text text-anchor="middle" x="136.5" y="-24.8" font-family="Times,serif" font-size="14.00">a</text>
</g>
<!-- s6 -->
<g id="node8" class="node"><title>s6</title>
<ellipse fill="none" stroke="black" cx="255" cy="-22" rx="18" ry="18"/>
<text text-anchor="middle" x="255" y="-17.8" font-family="Times,serif" font-size="14.00">s6</text>
</g>
<!-- s5&#45;&gt;s6 -->
<g id="edge9" class="edge"><title>s5&#45;&gt;s6</title>
<path fill="none" stroke="black" d="M194.089,-22C203.659,-22 215.817,-22 226.677,-22"/>
<polygon fill="black" stroke="black" points="226.959,-25.5001 236.959,-22 226.959,-18.5001 226.959,-25.5001"/>
<text text-anchor="middle" x="215.5" y="-24.8" font-family="Times,serif" font-size="14.00">b</text>
</g>
<!-- s6&#45;&gt;s7 -->
<g id="edge10" class="edge"><title>s6&#45;&gt;s7</title>
<path fill="none" stroke="black" d="M273.178,-22C282.61,-22 294.601,-22 305.637,-22"/>
<polygon fill="black" stroke="black" points="305.811,-25.5001 315.811,-22 305.811,-18.5001 305.811,-25.5001"/>
<text text-anchor="middle" x="294.5" y="-24.8" font-family="Times,serif" font-size="14.00">b</text>
</g>
</g>
</svg>
