<?xml version="1.0" encoding="UTF-8" standalone="no"?>
<!DOCTYPE svg PUBLIC "-//W3C//DTD SVG 1.1//EN"
 "http://www.w3.org/Graphics/SVG/1.1/DTD/svg11.dtd">
<!-- Generated by graphviz version 12.2.1 (20241206.2353)
 -->
<!-- Title: finite_state_machine Pages: 1 -->
<svg width="102pt" height="360pt"
 viewBox="0.00 0.00 101.81 360.00" xmlns="http://www.w3.org/2000/svg" xmlns:xlink="http://www.w3.org/1999/xlink">
<g id="graph0" class="graph" transform="scale(0.472648 0.472648) rotate(0) translate(4 757.67)">
<title>finite_state_machine</title>
<polygon fill="white" stroke="none" points="-4,4 -4,-757.67 211.4,-757.67 211.4,4 -4,4"/>
<!-- s1 -->
<g id="node1" class="node">
<title>s1</title>
<ellipse fill="none" stroke="black" cx="184.29" cy="-392.11" rx="19.11" ry="19.11"/>
<ellipse fill="none" stroke="black" cx="184.29" cy="-392.11" rx="23.11" ry="23.11"/>
<text text-anchor="middle" x="184.29" y="-387.06" font-family="Times,serif" font-size="14.00">s1</text>
</g>
<!-- s0 -->
<g id="node2" class="node">
<title>s0</title>
<ellipse fill="none" stroke="black" cx="19.11" cy="-392.11" rx="19.11" ry="19.11"/>
<text text-anchor="middle" x="19.11" y="-387.06" font-family="Times,serif" font-size="14.00">s0</text>
</g>
<!-- s0&#45;&gt;s1 -->
<g id="edge1" class="edge">
<title>s0&#45;&gt;s1</title>
<path fill="none" stroke="black" d="M20.96,-411.2C24.11,-478.21 36.01,-700 56.22,-724.11 63.35,-732.62 69.22,-729.54 80.22,-731.11 108.09,-735.09 124.88,-745.5 143.18,-724.11 180.89,-680.03 184.17,-502.51 183.79,-426.7"/>
<polygon fill="black" stroke="black" points="187.29,-426.93 183.71,-416.96 180.29,-426.98 187.29,-426.93"/>
<text text-anchor="middle" x="99.32" y="-740.37" font-family="Times,serif" font-size="14.00">λ</text>
</g>
<!-- s0&#45;&gt;s1 -->
<g id="edge2" class="edge">
<title>s0&#45;&gt;s1</title>
<path fill="none" stroke="black" d="M19.96,-411.31C19.91,-467.81 22.71,-631.96 56.22,-671.11 63.44,-679.55 69.22,-676.54 80.22,-678.11 108.09,-682.09 124.64,-692.3 143.18,-671.11 174.5,-635.33 181.38,-493.1 182.88,-426.65"/>
<polygon fill="black" stroke="black" points="186.37,-427.12 183.06,-417.05 179.37,-426.98 186.37,-427.12"/>
<text text-anchor="middle" x="99.32" y="-687.28" font-family="Times,serif" font-size="14.00">λ</text>
</g>
<!-- s0&#45;&gt;s1 -->
<g id="edge3" class="edge">
<title>s0&#45;&gt;s1</title>
<path fill="none" stroke="black" d="M20.62,-411.45C22.29,-460.4 29.21,-587.49 56.22,-618.11 63.56,-626.44 69.22,-623.54 80.22,-625.11 108.09,-629.09 124.29,-638.99 143.18,-618.11 168.14,-590.52 178.03,-482.95 181.55,-426.74"/>
<polygon fill="black" stroke="black" points="185.02,-427.28 182.12,-417.09 178.04,-426.86 185.02,-427.28"/>
<text text-anchor="middle" x="99.32" y="-634.16" font-family="Times,serif" font-size="14.00">λ</text>
</g>
<!-- s0&#45;&gt;s1 -->
<g id="edge4" class="edge">
<title>s0&#45;&gt;s1</title>
<path fill="none" stroke="black" d="M21.65,-411.29C25.27,-451.51 35.59,-542.81 56.22,-565.11 63.76,-573.26 69.22,-570.54 80.22,-572.11 108.09,-576.09 123.75,-585.49 143.18,-565.11 161.88,-545.49 173.81,-471.24 179.45,-426.64"/>
<polygon fill="black" stroke="black" points="182.89,-427.3 180.63,-416.95 175.95,-426.46 182.89,-427.3"/>
<text text-anchor="middle" x="99.32" y="-580.96" font-family="Times,serif" font-size="14.00">λ</text>
</g>
<!-- s0&#45;&gt;s1 -->
<g id="edge5" class="edge">
<title>s0&#45;&gt;s1</title>
<path fill="none" stroke="black" d="M20.49,-411.59C22.08,-438.01 28.87,-484.99 56.22,-512.11 64.11,-519.93 69.22,-517.54 80.22,-519.11 108.09,-523.09 122.81,-531.54 143.18,-512.11 166.58,-489.78 176.33,-453.45 180.39,-426.61"/>
<polygon fill="black" stroke="black" points="183.83,-427.25 181.65,-416.89 176.89,-426.35 183.83,-427.25"/>
<text text-anchor="middle" x="99.32" y="-527.6" font-family="Times,serif" font-size="14.00">λ</text>
</g>
<!-- s0&#45;&gt;s1 -->
<g id="edge6" class="edge">
<title>s0&#45;&gt;s1</title>
<path fill="none" stroke="black" d="M25.52,-410.34C30.93,-425.5 40.7,-446.56 56.22,-459.11 64.85,-466.1 69.22,-464.54 80.22,-466.11 108.09,-470.09 120.82,-476.23 143.18,-459.11 154.95,-450.09 163.99,-436.55 170.47,-424"/>
<polygon fill="black" stroke="black" points="173.54,-425.7 174.68,-415.17 167.22,-422.69 173.54,-425.7"/>
<text text-anchor="middle" x="99.32" y="-473.72" font-family="Times,serif" font-size="14.00">λ</text>
</g>
<!-- s0&#45;&gt;s1 -->
<g id="edge7" class="edge">
<title>s0&#45;&gt;s1</title>
<path fill="none" stroke="black" d="M37.02,-400C48.83,-405.02 65.11,-410.95 80.22,-413.11 108.09,-417.09 116.33,-414.58 143.18,-406.11 145.89,-405.25 148.69,-404.34 151.49,-403.4"/>
<polygon fill="black" stroke="black" points="152.38,-406.8 160.7,-400.25 150.11,-400.18 152.38,-406.8"/>
<text text-anchor="middle" x="99.32" y="-418.16" font-family="Times,serif" font-size="14.00">λ</text>
</g>
<!-- s0&#45;&gt;s1 -->
<g id="edge8" class="edge">
<title>s0&#45;&gt;s1</title>
<path fill="none" stroke="black" d="M38.51,-392.11C65.43,-392.11 115.98,-392.11 149.65,-392.11"/>
<polygon fill="black" stroke="black" points="149.28,-395.61 159.28,-392.11 149.28,-388.61 149.28,-395.61"/>
<text text-anchor="middle" x="99.32" y="-395.31" font-family="Times,serif" font-size="14.00">λ</text>
</g>
<!-- s0&#45;&gt;s1 -->
<g id="edge10" class="edge">
<title>s0&#45;&gt;s1</title>
<path fill="none" stroke="black" d="M37.08,-384.64C48.91,-379.86 65.2,-374.1 80.22,-371.61 96.97,-368.83 101.64,-369.02 118.43,-371.61 129.49,-373.31 141.24,-376.56 151.66,-379.98"/>
<polygon fill="black" stroke="black" points="150.33,-383.22 160.92,-383.2 152.63,-376.61 150.33,-383.22"/>
<text text-anchor="middle" x="99.32" y="-374.81" font-family="Times,serif" font-size="14.00">λ</text>
</g>
<!-- s0&#45;&gt;s1 -->
<g id="edge11" class="edge">
<title>s0&#45;&gt;s1</title>
<path fill="none" stroke="black" d="M33.03,-378.97C44.36,-368.47 61.83,-354.56 80.22,-348.61 96.37,-343.37 102.18,-343.66 118.43,-348.61 132.62,-352.92 146.52,-361.49 157.79,-369.89"/>
<polygon fill="black" stroke="black" points="155.38,-372.45 165.4,-375.88 159.7,-366.94 155.38,-372.45"/>
<text text-anchor="middle" x="99.32" y="-351.81" font-family="Times,serif" font-size="14.00">λ</text>
</g>
<!-- s0&#45;&gt;s1 -->
<g id="edge12" class="edge">
<title>s0&#45;&gt;s1</title>
<path fill="none" stroke="black" d="M29.27,-375.39C39.33,-358.98 57.16,-334.95 80.22,-324.61 95.71,-317.66 102.8,-317.95 118.43,-324.61 137.07,-332.55 152.94,-348.77 164.32,-363.32"/>
<polygon fill="black" stroke="black" points="161.47,-365.35 170.23,-371.31 167.1,-361.19 161.47,-365.35"/>
<text text-anchor="middle" x="99.32" y="-327.81" font-family="Times,serif" font-size="14.00">λ</text>
</g>
<!-- s0&#45;&gt;s1 -->
<g id="edge13" class="edge">
<title>s0&#45;&gt;s1</title>
<path fill="none" stroke="black" d="M25.6,-373.81C33.51,-351.2 50.52,-313.86 80.22,-298.61 95.32,-290.85 103.21,-291.07 118.43,-298.61 143.53,-311.04 160.72,-338.39 171.07,-360.31"/>
<polygon fill="black" stroke="black" points="167.74,-361.44 174.99,-369.16 174.14,-358.6 167.74,-361.44"/>
<text text-anchor="middle" x="99.32" y="-301.81" font-family="Times,serif" font-size="14.00">λ</text>
</g>
<!-- s0&#45;&gt;s1 -->
<g id="edge14" class="edge">
<title>s0&#45;&gt;s1</title>
<path fill="none" stroke="black" d="M22.91,-372.89C28.25,-344.47 42.89,-292.43 80.22,-272.61 95.22,-264.64 103.32,-264.85 118.43,-272.61 150.78,-289.21 167.68,-329.11 176.01,-358.25"/>
<polygon fill="black" stroke="black" points="172.58,-358.96 178.51,-367.74 179.35,-357.18 172.58,-358.96"/>
<text text-anchor="middle" x="99.32" y="-275.81" font-family="Times,serif" font-size="14.00">λ</text>
</g>
<!-- s0&#45;&gt;s1 -->
<g id="edge15" class="edge">
<title>s0&#45;&gt;s1</title>
<path fill="none" stroke="black" d="M20.94,-372.73C23.6,-339.11 34.63,-271.19 80.22,-246.61 95.16,-238.55 103.42,-238.65 118.43,-246.61 158.67,-267.94 173.98,-322.03 179.78,-357.91"/>
<polygon fill="black" stroke="black" points="176.25,-357.96 181.13,-367.36 183.18,-356.97 176.25,-357.96"/>
<text text-anchor="middle" x="99.32" y="-249.81" font-family="Times,serif" font-size="14.00">λ</text>
</g>
<!-- s2 -->
<g id="node3" class="node">
<title>s2</title>
<ellipse fill="none" stroke="black" cx="99.32" cy="-19.11" rx="19.11" ry="19.11"/>
<text text-anchor="middle" x="99.32" y="-14.06" font-family="Times,serif" font-size="14.00">s2</text>
</g>
<!-- s0&#45;&gt;s2 -->
<g id="edge9" class="edge">
<title>s0&#45;&gt;s2</title>
<path fill="none" stroke="black" d="M19.86,-372.83C19.38,-307.98 20.65,-98.66 56.22,-43.61 59.77,-38.1 65.03,-33.68 70.64,-30.2"/>
<polygon fill="black" stroke="black" points="72.22,-33.32 79.48,-25.6 68.99,-27.11 72.22,-33.32"/>
<text text-anchor="middle" x="59.22" y="-46.81" font-family="Times,serif" font-size="14.00">a</text>
</g>
<!-- s2&#45;&gt;s1 -->
<g id="edge16" class="edge">
<title>s2&#45;&gt;s1</title>
<path fill="none" stroke="black" d="M117.65,-24.67C126.76,-28.52 137.23,-34.59 143.18,-43.61 176.83,-94.63 182.37,-279.84 183.19,-357.49"/>
<polygon fill="black" stroke="black" points="179.69,-357.08 183.27,-367.05 186.69,-357.02 179.69,-357.08"/>
<text text-anchor="middle" x="139.81" y="-46.81" font-family="Times,serif" font-size="14.00">λ</text>
</g>
</g>
</svg>
