<?xml version="1.0" encoding="UTF-8" standalone="no"?>
<!DOCTYPE svg PUBLIC "-//W3C//DTD SVG 1.1//EN"
 "http://www.w3.org/Graphics/SVG/1.1/DTD/svg11.dtd">
<!-- Generated by graphviz version 12.2.1 (20241206.2353)
 -->
<!-- Title: finite_state_machine Pages: 1 -->
<svg width="576pt" height="154pt"
 viewBox="0.00 0.00 576.00 153.62" xmlns="http://www.w3.org/2000/svg" xmlns:xlink="http://www.w3.org/1999/xlink">
<g id="graph0" class="graph" transform="scale(0.51288 0.51288) rotate(0) translate(4 295.53)">
<title>finite_state_machine</title>
<polygon fill="white" stroke="none" points="-4,4 -4,-295.53 1119.07,-295.53 1119.07,4 -4,4"/>
<text text-anchor="middle" x="557.54" y="-7.2" font-family="Times,serif" font-size="14.00">Regular Expression: xyzzy401</text>
<!-- s15 -->
<g id="node1" class="node">
<title>s15</title>
<ellipse fill="none" stroke="black" cx="1087.36" cy="-173.61" rx="23.71" ry="23.71"/>
<ellipse fill="none" stroke="black" cx="1087.36" cy="-173.61" rx="27.71" ry="27.71"/>
<text text-anchor="middle" x="1087.36" y="-168.56" font-family="Times,serif" font-size="14.00">s15</text>
</g>
<!-- s0 -->
<g id="node2" class="node">
<title>s0</title>
<ellipse fill="none" stroke="black" cx="111.32" cy="-105.61" rx="19.11" ry="19.11"/>
<text text-anchor="middle" x="111.32" y="-100.56" font-family="Times,serif" font-size="14.00">s0</text>
</g>
<!-- s1 -->
<g id="node3" class="node">
<title>s1</title>
<ellipse fill="none" stroke="black" cx="19.11" cy="-91.61" rx="19.11" ry="19.11"/>
<text text-anchor="middle" x="19.11" y="-86.56" font-family="Times,serif" font-size="14.00">s1</text>
</g>
<!-- s0&#45;&gt;s1 -->
<g id="edge1" class="edge">
<title>s0&#45;&gt;s1</title>
<path fill="none" stroke="black" d="M92.09,-102.78C79.87,-100.88 63.51,-98.34 49.47,-96.16"/>
<polygon fill="black" stroke="black" points="50.28,-92.75 39.86,-94.67 49.2,-99.66 50.28,-92.75"/>
<text text-anchor="middle" x="65.22" y="-103.06" font-family="Times,serif" font-size="14.00">0&#45;9</text>
</g>
<!-- s0&#45;&gt;s1 -->
<g id="edge2" class="edge">
<title>s0&#45;&gt;s1</title>
<path fill="none" stroke="black" d="M97.59,-92.08C91.2,-86.28 82.97,-80.15 74.22,-77.11 65.3,-74.01 55.37,-75.35 46.48,-78.2"/>
<polygon fill="black" stroke="black" points="45.32,-74.89 37.32,-81.84 47.91,-81.39 45.32,-74.89"/>
<text text-anchor="middle" x="65.22" y="-80.31" font-family="Times,serif" font-size="14.00">λ</text>
</g>
<!-- s1&#45;&gt;s0 -->
<g id="edge3" class="edge">
<title>s1&#45;&gt;s0</title>
<path fill="none" stroke="black" d="M32.8,-105.36C39.18,-111.27 47.42,-117.51 56.22,-120.61 65.14,-123.75 75.07,-122.35 83.96,-119.41"/>
<polygon fill="black" stroke="black" points="85.2,-122.68 93.12,-115.65 82.54,-116.21 85.2,-122.68"/>
<text text-anchor="middle" x="65.22" y="-125.58" font-family="Times,serif" font-size="14.00">λ</text>
</g>
<!-- s2 -->
<g id="node4" class="node">
<title>s2</title>
<ellipse fill="none" stroke="black" cx="111.32" cy="-43.61" rx="19.11" ry="19.11"/>
<text text-anchor="middle" x="111.32" y="-38.56" font-family="Times,serif" font-size="14.00">s2</text>
</g>
<!-- s1&#45;&gt;s2 -->
<g id="edge4" class="edge">
<title>s1&#45;&gt;s2</title>
<path fill="none" stroke="black" d="M31.27,-76.73C37.74,-69.14 46.52,-60.41 56.22,-55.11 63.66,-51.04 72.41,-48.41 80.68,-46.71"/>
<polygon fill="black" stroke="black" points="81.07,-50.19 90.37,-45.12 79.94,-43.28 81.07,-50.19"/>
<text text-anchor="middle" x="65.22" y="-58.31" font-family="Times,serif" font-size="14.00">τ</text>
</g>
<!-- s3 -->
<g id="node5" class="node">
<title>s3</title>
<ellipse fill="none" stroke="black" cx="203.54" cy="-110.61" rx="19.11" ry="19.11"/>
<text text-anchor="middle" x="203.54" y="-105.56" font-family="Times,serif" font-size="14.00">s3</text>
</g>
<!-- s2&#45;&gt;s3 -->
<g id="edge5" class="edge">
<title>s2&#45;&gt;s3</title>
<path fill="none" stroke="black" d="M127.22,-54.67C141.19,-65.05 162.32,-80.74 178.65,-92.87"/>
<polygon fill="black" stroke="black" points="176.29,-95.47 186.4,-98.62 180.46,-89.85 176.29,-95.47"/>
<text text-anchor="middle" x="157.43" y="-86.31" font-family="Times,serif" font-size="14.00">.</text>
</g>
<!-- s4 -->
<g id="node6" class="node">
<title>s4</title>
<ellipse fill="none" stroke="black" cx="111.32" cy="-161.61" rx="19.11" ry="19.11"/>
<text text-anchor="middle" x="111.32" y="-156.56" font-family="Times,serif" font-size="14.00">s4</text>
</g>
<!-- s3&#45;&gt;s4 -->
<g id="edge6" class="edge">
<title>s3&#45;&gt;s4</title>
<path fill="none" stroke="black" d="M184.23,-107.23C173.24,-106.12 159.33,-106.38 148.43,-112.11 145.54,-113.63 137.13,-125.05 129.16,-136.54"/>
<polygon fill="black" stroke="black" points="126.3,-134.52 123.54,-144.75 132.08,-138.47 126.3,-134.52"/>
<text text-anchor="middle" x="157.43" y="-115.31" font-family="Times,serif" font-size="14.00">0&#45;9</text>
</g>
<!-- s4&#45;&gt;s3 -->
<g id="edge7" class="edge">
<title>s4&#45;&gt;s3</title>
<path fill="none" stroke="black" d="M128.45,-152.49C141.71,-144.99 160.76,-134.22 176.23,-125.48"/>
<polygon fill="black" stroke="black" points="177.94,-128.53 184.93,-120.56 174.5,-122.44 177.94,-128.53"/>
<text text-anchor="middle" x="157.43" y="-143.88" font-family="Times,serif" font-size="14.00">λ</text>
</g>
<!-- s5 -->
<g id="node7" class="node">
<title>s5</title>
<ellipse fill="none" stroke="black" cx="203.54" cy="-190.61" rx="19.11" ry="19.11"/>
<text text-anchor="middle" x="203.54" y="-185.56" font-family="Times,serif" font-size="14.00">s5</text>
</g>
<!-- s4&#45;&gt;s5 -->
<g id="edge8" class="edge">
<title>s4&#45;&gt;s5</title>
<path fill="none" stroke="black" d="M129.72,-167.2C142.24,-171.23 159.42,-176.75 173.95,-181.42"/>
<polygon fill="black" stroke="black" points="172.86,-184.74 183.45,-184.47 175,-178.08 172.86,-184.74"/>
<text text-anchor="middle" x="157.43" y="-181.9" font-family="Times,serif" font-size="14.00">τ</text>
</g>
<!-- s6 -->
<g id="node8" class="node">
<title>s6</title>
<ellipse fill="none" stroke="black" cx="286" cy="-230.61" rx="19.11" ry="19.11"/>
<text text-anchor="middle" x="286" y="-225.56" font-family="Times,serif" font-size="14.00">s6</text>
</g>
<!-- s5&#45;&gt;s6 -->
<g id="edge9" class="edge">
<title>s5&#45;&gt;s6</title>
<path fill="none" stroke="black" d="M221.07,-198.86C227.22,-201.92 234.25,-205.43 240.65,-208.61 246.42,-211.48 252.62,-214.55 258.49,-217.47"/>
<polygon fill="black" stroke="black" points="256.7,-220.49 267.21,-221.79 259.81,-214.22 256.7,-220.49"/>
<text text-anchor="middle" x="244.77" y="-215.41" font-family="Times,serif" font-size="14.00">e</text>
</g>
<!-- s5&#45;&gt;s6 -->
<g id="edge10" class="edge">
<title>s5&#45;&gt;s6</title>
<path fill="none" stroke="black" d="M222.54,-185.81C230.91,-184.51 240.77,-184.35 248.9,-188.11 256.87,-191.8 263.73,-198.21 269.26,-204.95"/>
<polygon fill="black" stroke="black" points="266.34,-206.9 275.07,-212.91 272,-202.77 266.34,-206.9"/>
<text text-anchor="middle" x="244.77" y="-191.31" font-family="Times,serif" font-size="14.00">E</text>
</g>
<!-- s14 -->
<g id="node9" class="node">
<title>s14</title>
<ellipse fill="none" stroke="black" cx="993.93" cy="-173.61" rx="23.71" ry="23.71"/>
<text text-anchor="middle" x="993.93" y="-168.56" font-family="Times,serif" font-size="14.00">s14</text>
</g>
<!-- s5&#45;&gt;s14 -->
<g id="edge11" class="edge">
<title>s5&#45;&gt;s14</title>
<path fill="none" stroke="black" d="M219.81,-180.17C235.45,-170.5 260.84,-157.61 285,-157.61 285,-157.61 285,-157.61 905.5,-157.61 923.63,-157.61 943.53,-160.98 959.76,-164.62"/>
<polygon fill="black" stroke="black" points="958.84,-168 969.38,-166.93 960.47,-161.2 958.84,-168"/>
<text text-anchor="middle" x="581.38" y="-160.81" font-family="Times,serif" font-size="14.00">λ</text>
</g>
<!-- s7 -->
<g id="node10" class="node">
<title>s7</title>
<ellipse fill="none" stroke="black" cx="368.47" cy="-230.61" rx="19.11" ry="19.11"/>
<text text-anchor="middle" x="368.47" y="-225.56" font-family="Times,serif" font-size="14.00">s7</text>
</g>
<!-- s6&#45;&gt;s7 -->
<g id="edge12" class="edge">
<title>s6&#45;&gt;s7</title>
<path fill="none" stroke="black" d="M305.26,-230.61C314.86,-230.61 326.88,-230.61 337.78,-230.61"/>
<polygon fill="black" stroke="black" points="337.49,-234.11 347.49,-230.61 337.49,-227.11 337.49,-234.11"/>
<text text-anchor="middle" x="327.24" y="-233.81" font-family="Times,serif" font-size="14.00">&#45;</text>
</g>
<!-- s6&#45;&gt;s7 -->
<g id="edge13" class="edge">
<title>s6&#45;&gt;s7</title>
<path fill="none" stroke="black" d="M300.91,-218.55C309.42,-212.62 320.7,-207.29 331.36,-210.11 335.05,-211.08 338.77,-212.53 342.33,-214.22"/>
<polygon fill="black" stroke="black" points="340.64,-217.28 351.09,-219.02 344,-211.15 340.64,-217.28"/>
<text text-anchor="middle" x="327.24" y="-213.31" font-family="Times,serif" font-size="14.00">+</text>
</g>
<!-- s6&#45;&gt;s7 -->
<g id="edge14" class="edge">
<title>s6&#45;&gt;s7</title>
<path fill="none" stroke="black" d="M302.58,-240.34C308.73,-243.65 316.02,-246.94 323.11,-248.61 329.64,-250.14 336.46,-248.92 342.74,-246.53"/>
<polygon fill="black" stroke="black" points="343.85,-249.88 351.3,-242.34 340.78,-243.6 343.85,-249.88"/>
<text text-anchor="middle" x="327.24" y="-252.49" font-family="Times,serif" font-size="14.00">λ</text>
</g>
<!-- s14&#45;&gt;s15 -->
<g id="edge26" class="edge">
<title>s14&#45;&gt;s15</title>
<path fill="none" stroke="black" d="M1018,-173.61C1027.15,-173.61 1037.91,-173.61 1048.16,-173.61"/>
<polygon fill="black" stroke="black" points="1047.88,-177.11 1057.88,-173.61 1047.88,-170.11 1047.88,-177.11"/>
<text text-anchor="middle" x="1038.64" y="-176.81" font-family="Times,serif" font-size="14.00">τ</text>
</g>
<!-- s8 -->
<g id="node11" class="node">
<title>s8</title>
<ellipse fill="none" stroke="black" cx="448.68" cy="-230.61" rx="19.11" ry="19.11"/>
<text text-anchor="middle" x="448.68" y="-225.56" font-family="Times,serif" font-size="14.00">s8</text>
</g>
<!-- s7&#45;&gt;s8 -->
<g id="edge15" class="edge">
<title>s7&#45;&gt;s8</title>
<path fill="none" stroke="black" d="M388,-230.61C396.96,-230.61 407.94,-230.61 418.03,-230.61"/>
<polygon fill="black" stroke="black" points="417.77,-234.11 427.77,-230.61 417.77,-227.11 417.77,-234.11"/>
<text text-anchor="middle" x="408.58" y="-233.81" font-family="Times,serif" font-size="14.00">τ</text>
</g>
<!-- s9 -->
<g id="node12" class="node">
<title>s9</title>
<ellipse fill="none" stroke="black" cx="540.9" cy="-247.61" rx="19.11" ry="19.11"/>
<text text-anchor="middle" x="540.9" y="-242.56" font-family="Times,serif" font-size="14.00">s9</text>
</g>
<!-- s8&#45;&gt;s9 -->
<g id="edge16" class="edge">
<title>s8&#45;&gt;s9</title>
<path fill="none" stroke="black" d="M467.97,-227.74C478.57,-226.66 492.1,-226.29 503.79,-229.11 507.24,-229.94 510.73,-231.16 514.11,-232.59"/>
<polygon fill="black" stroke="black" points="512.48,-235.68 523,-236.94 515.56,-229.4 512.48,-235.68"/>
<text text-anchor="middle" x="494.79" y="-232.31" font-family="Times,serif" font-size="14.00">0&#45;9</text>
</g>
<!-- s9&#45;&gt;s8 -->
<g id="edge17" class="edge">
<title>s9&#45;&gt;s8</title>
<path fill="none" stroke="black" d="M521.41,-248.54C510.86,-248.67 497.45,-248.16 485.79,-245.61 482.79,-244.95 479.71,-244.06 476.69,-243.03"/>
<polygon fill="black" stroke="black" points="478.18,-239.85 467.59,-239.47 475.62,-246.37 478.18,-239.85"/>
<text text-anchor="middle" x="494.79" y="-251.24" font-family="Times,serif" font-size="14.00">λ</text>
</g>
<!-- s10 -->
<g id="node13" class="node">
<title>s10</title>
<ellipse fill="none" stroke="black" cx="626.47" cy="-247.61" rx="23.71" ry="23.71"/>
<text text-anchor="middle" x="626.47" y="-242.56" font-family="Times,serif" font-size="14.00">s10</text>
</g>
<!-- s9&#45;&gt;s10 -->
<g id="edge18" class="edge">
<title>s9&#45;&gt;s10</title>
<path fill="none" stroke="black" d="M560.44,-247.61C569.46,-247.61 580.59,-247.61 591.08,-247.61"/>
<polygon fill="black" stroke="black" points="590.98,-251.11 600.98,-247.61 590.98,-244.11 590.98,-251.11"/>
<text text-anchor="middle" x="581.38" y="-250.81" font-family="Times,serif" font-size="14.00">τ</text>
</g>
<!-- s11 -->
<g id="node14" class="node">
<title>s11</title>
<ellipse fill="none" stroke="black" cx="713.65" cy="-232.61" rx="23.71" ry="23.71"/>
<text text-anchor="middle" x="713.65" y="-227.56" font-family="Times,serif" font-size="14.00">s11</text>
</g>
<!-- s10&#45;&gt;s11 -->
<g id="edge19" class="edge">
<title>s10&#45;&gt;s11</title>
<path fill="none" stroke="black" d="M650.29,-243.59C659.05,-242.05 669.24,-240.25 678.82,-238.56"/>
<polygon fill="black" stroke="black" points="679.32,-242.03 688.56,-236.85 678.11,-235.14 679.32,-242.03"/>
<text text-anchor="middle" x="670.06" y="-243.31" font-family="Times,serif" font-size="14.00">.</text>
</g>
<!-- s13 -->
<g id="node15" class="node">
<title>s13</title>
<ellipse fill="none" stroke="black" cx="904.5" cy="-230.61" rx="23.71" ry="23.71"/>
<text text-anchor="middle" x="904.5" y="-225.56" font-family="Times,serif" font-size="14.00">s13</text>
</g>
<!-- s10&#45;&gt;s13 -->
<g id="edge20" class="edge">
<title>s10&#45;&gt;s13</title>
<path fill="none" stroke="black" d="M649.12,-255.43C660.99,-259.32 676.08,-263.61 689.93,-265.61 755.42,-275.07 775.16,-281.74 838.79,-263.61 850.92,-260.15 863.45,-254.36 874.22,-248.58"/>
<polygon fill="black" stroke="black" points="875.61,-251.82 882.61,-243.87 872.18,-245.71 875.61,-251.82"/>
<text text-anchor="middle" x="764.36" y="-278.23" font-family="Times,serif" font-size="14.00">λ</text>
</g>
<!-- s12 -->
<g id="node16" class="node">
<title>s12</title>
<ellipse fill="none" stroke="black" cx="815.07" cy="-230.61" rx="23.71" ry="23.71"/>
<text text-anchor="middle" x="815.07" y="-225.56" font-family="Times,serif" font-size="14.00">s12</text>
</g>
<!-- s11&#45;&gt;s12 -->
<g id="edge21" class="edge">
<title>s11&#45;&gt;s12</title>
<path fill="none" stroke="black" d="M737.71,-232.14C750.26,-231.89 766.02,-231.57 779.97,-231.29"/>
<polygon fill="black" stroke="black" points="779.7,-234.8 789.63,-231.1 779.56,-227.8 779.7,-234.8"/>
<text text-anchor="middle" x="764.36" y="-234.99" font-family="Times,serif" font-size="14.00">0&#45;9</text>
</g>
<!-- s11&#45;&gt;s12 -->
<g id="edge22" class="edge">
<title>s11&#45;&gt;s12</title>
<path fill="none" stroke="black" d="M734.16,-219.85C740.64,-216.29 748.07,-212.91 755.36,-211.11 764.77,-208.77 774.85,-210.51 783.95,-213.74"/>
<polygon fill="black" stroke="black" points="782.5,-216.93 793.07,-217.65 785.25,-210.49 782.5,-216.93"/>
<text text-anchor="middle" x="764.36" y="-214.31" font-family="Times,serif" font-size="14.00">λ</text>
</g>
<!-- s13&#45;&gt;s14 -->
<g id="edge25" class="edge">
<title>s13&#45;&gt;s14</title>
<path fill="none" stroke="black" d="M924.9,-217.96C936.45,-210.43 951.31,-200.74 964.2,-192.34"/>
<polygon fill="black" stroke="black" points="965.85,-195.44 972.31,-187.05 962.02,-189.58 965.85,-195.44"/>
<text text-anchor="middle" x="949.22" y="-207.02" font-family="Times,serif" font-size="14.00">τ</text>
</g>
<!-- s12&#45;&gt;s11 -->
<g id="edge23" class="edge">
<title>s12&#45;&gt;s11</title>
<path fill="none" stroke="black" d="M793.92,-241.5C787.53,-244.4 780.32,-247.14 773.36,-248.61 764.35,-250.51 754.66,-249.26 745.81,-246.79"/>
<polygon fill="black" stroke="black" points="747.18,-243.56 736.59,-243.63 744.92,-250.18 747.18,-243.56"/>
<text text-anchor="middle" x="764.36" y="-252.73" font-family="Times,serif" font-size="14.00">λ</text>
</g>
<!-- s12&#45;&gt;s13 -->
<g id="edge24" class="edge">
<title>s12&#45;&gt;s13</title>
<path fill="none" stroke="black" d="M839.04,-230.61C848.21,-230.61 858.95,-230.61 869.02,-230.61"/>
<polygon fill="black" stroke="black" points="868.87,-234.11 878.87,-230.61 868.87,-227.11 868.87,-234.11"/>
<text text-anchor="middle" x="859.79" y="-233.81" font-family="Times,serif" font-size="14.00">τ</text>
</g>
</g>
</svg>
