<?xml version="1.0" encoding="UTF-8" standalone="no"?>
<!DOCTYPE svg PUBLIC "-//W3C//DTD SVG 1.1//EN"
 "http://www.w3.org/Graphics/SVG/1.1/DTD/svg11.dtd">
<!-- Generated by graphviz version 12.2.1 (20241206.2353)
 -->
<!-- Title: finite_state_machine Pages: 1 -->
<svg width="216pt" height="143pt"
 viewBox="0.00 0.00 216.15 143.22" xmlns="http://www.w3.org/2000/svg" xmlns:xlink="http://www.w3.org/1999/xlink">
<g id="graph0" class="graph" transform="scale(1 1) rotate(0) translate(4 139.22)">
<title>finite_state_machine</title>
<polygon fill="white" stroke="none" points="-4,4 -4,-139.22 212.15,-139.22 212.15,4 -4,4"/>
<text text-anchor="middle" x="104.07" y="-23.7" font-family="Times,serif" font-size="14.00">Regular Expression: </text>
<text text-anchor="middle" x="104.07" y="-7.2" font-family="Times,serif" font-size="14.00">xyzzy401</text>
<!-- s1 -->
<g id="node1" class="node">
<title>s1</title>
<ellipse fill="none" stroke="black" cx="185.04" cy="-90.11" rx="19.11" ry="19.11"/>
<ellipse fill="none" stroke="black" cx="185.04" cy="-90.11" rx="23.11" ry="23.11"/>
<text text-anchor="middle" x="185.04" y="-85.06" font-family="Times,serif" font-size="14.00">s1</text>
</g>
<!-- s0 -->
<g id="node2" class="node">
<title>s0</title>
<ellipse fill="none" stroke="black" cx="19.11" cy="-88.11" rx="19.11" ry="19.11"/>
<text text-anchor="middle" x="19.11" y="-83.06" font-family="Times,serif" font-size="14.00">s0</text>
</g>
<!-- s2 -->
<g id="node3" class="node">
<title>s2</title>
<ellipse fill="none" stroke="black" cx="100.07" cy="-116.11" rx="19.11" ry="19.11"/>
<text text-anchor="middle" x="100.07" y="-111.06" font-family="Times,serif" font-size="14.00">s2</text>
</g>
<!-- s0&#45;&gt;s2 -->
<g id="edge1" class="edge">
<title>s0&#45;&gt;s2</title>
<path fill="none" stroke="black" d="M37.63,-94.32C47.45,-97.8 59.92,-102.22 71.05,-106.17"/>
<polygon fill="black" stroke="black" points="69.58,-109.36 80.17,-109.4 71.91,-102.76 69.58,-109.36"/>
<text text-anchor="middle" x="59.59" y="-106.15" font-family="Times,serif" font-size="14.00">a</text>
</g>
<!-- s3 -->
<g id="node4" class="node">
<title>s3</title>
<ellipse fill="none" stroke="black" cx="100.07" cy="-60.11" rx="19.11" ry="19.11"/>
<text text-anchor="middle" x="100.07" y="-55.06" font-family="Times,serif" font-size="14.00">s3</text>
</g>
<!-- s0&#45;&gt;s3 -->
<g id="edge2" class="edge">
<title>s0&#45;&gt;s3</title>
<path fill="none" stroke="black" d="M37.63,-81.89C47.45,-78.41 59.92,-73.99 71.05,-70.04"/>
<polygon fill="black" stroke="black" points="71.91,-73.45 80.17,-66.81 69.58,-66.85 71.91,-73.45"/>
<text text-anchor="middle" x="59.59" y="-78.15" font-family="Times,serif" font-size="14.00">b</text>
</g>
<!-- s2&#45;&gt;s1 -->
<g id="edge3" class="edge">
<title>s2&#45;&gt;s1</title>
<path fill="none" stroke="black" d="M118.67,-110.59C128.3,-107.58 140.54,-103.74 151.81,-100.21"/>
<polygon fill="black" stroke="black" points="152.7,-103.6 161.19,-97.27 150.6,-96.92 152.7,-103.6"/>
<text text-anchor="middle" x="140.56" y="-107.86" font-family="Times,serif" font-size="14.00">λ</text>
</g>
<!-- s3&#45;&gt;s1 -->
<g id="edge4" class="edge">
<title>s3&#45;&gt;s1</title>
<path fill="none" stroke="black" d="M118.26,-66.32C128.05,-69.86 140.61,-74.41 152.14,-78.57"/>
<polygon fill="black" stroke="black" points="150.72,-81.78 161.32,-81.89 153.1,-75.2 150.72,-81.78"/>
<text text-anchor="middle" x="140.56" y="-78.31" font-family="Times,serif" font-size="14.00">λ</text>
</g>
</g>
</svg>
