<?xml version="1.0" encoding="UTF-8" standalone="no"?>
<!DOCTYPE svg PUBLIC "-//W3C//DTD SVG 1.1//EN"
 "http://www.w3.org/Graphics/SVG/1.1/DTD/svg11.dtd">
<!-- Generated by graphviz version 2.38.0 (20140413.2041)
 -->
<!-- Title: finite_state_machine Pages: 1 -->
<svg width="576pt" height="125pt"
 viewBox="0.00 0.00 576.00 124.68" xmlns="http://www.w3.org/2000/svg" xmlns:xlink="http://www.w3.org/1999/xlink">
<g id="graph0" class="graph" transform="scale(0.84814 0.84814) rotate(0) translate(4 143)">
<title>finite_state_machine</title>
<polygon fill="white" stroke="none" points="-4,4 -4,-143 675.133,-143 675.133,4 -4,4"/>
<!-- s11 -->
<g id="node1" class="node"><title>s11</title>
<ellipse fill="none" stroke="black" cx="645.065" cy="-72" rx="22.1256" ry="22.1256"/>
<ellipse fill="none" stroke="black" cx="645.065" cy="-72" rx="26.1361" ry="26.1361"/>
<text text-anchor="middle" x="645.065" y="-67.8" font-family="Times,serif" font-size="14.00">s11</text>
</g>
<!-- s0 -->
<g id="node2" class="node"><title>s0</title>
<ellipse fill="none" stroke="black" cx="18" cy="-72" rx="18" ry="18"/>
<text text-anchor="middle" x="18" y="-67.8" font-family="Times,serif" font-size="14.00">s0</text>
</g>
<!-- s2 -->
<g id="node3" class="node"><title>s2</title>
<ellipse fill="none" stroke="black" cx="151" cy="-118" rx="18" ry="18"/>
<text text-anchor="middle" x="151" y="-113.8" font-family="Times,serif" font-size="14.00">s2</text>
</g>
<!-- s0&#45;&gt;s2 -->
<g id="edge1" class="edge"><title>s0&#45;&gt;s2</title>
<path fill="none" stroke="black" d="M34.1265,-80.3219C40.216,-83.5285 47.3583,-87.1111 54,-90 76.6715,-99.8614 103.826,-107.416 123.461,-112.178"/>
<polygon fill="black" stroke="black" points="122.714,-115.598 133.249,-114.473 124.312,-108.783 122.714,-115.598"/>
<text text-anchor="middle" x="57.5" y="-94.8" font-family="Times,serif" font-size="14.00">a</text>
</g>
<!-- s4 -->
<g id="node4" class="node"><title>s4</title>
<ellipse fill="none" stroke="black" cx="97" cy="-72" rx="18" ry="18"/>
<text text-anchor="middle" x="97" y="-67.8" font-family="Times,serif" font-size="14.00">s4</text>
</g>
<!-- s0&#45;&gt;s4 -->
<g id="edge2" class="edge"><title>s0&#45;&gt;s4</title>
<path fill="none" stroke="black" d="M36.0888,-72C45.659,-72 57.8172,-72 68.6766,-72"/>
<polygon fill="black" stroke="black" points="68.959,-75.5001 78.959,-72 68.9589,-68.5001 68.959,-75.5001"/>
<text text-anchor="middle" x="57.5" y="-74.8" font-family="Times,serif" font-size="14.00">b</text>
</g>
<!-- s6 -->
<g id="node5" class="node"><title>s6</title>
<ellipse fill="none" stroke="black" cx="97" cy="-18" rx="18" ry="18"/>
<text text-anchor="middle" x="97" y="-13.8" font-family="Times,serif" font-size="14.00">s6</text>
</g>
<!-- s0&#45;&gt;s6 -->
<g id="edge3" class="edge"><title>s0&#45;&gt;s6</title>
<path fill="none" stroke="black" d="M33.123,-62.0956C44.3407,-54.2286 60.2489,-43.0722 73.2569,-33.9497"/>
<polygon fill="black" stroke="black" points="75.5281,-36.6319 81.7058,-28.0245 71.5088,-30.9007 75.5281,-36.6319"/>
<text text-anchor="middle" x="57.5" y="-48.8" font-family="Times,serif" font-size="14.00">c</text>
</g>
<!-- s3 -->
<g id="node8" class="node"><title>s3</title>
<ellipse fill="none" stroke="black" cx="259" cy="-121" rx="18" ry="18"/>
<text text-anchor="middle" x="259" y="-116.8" font-family="Times,serif" font-size="14.00">s3</text>
</g>
<!-- s2&#45;&gt;s3 -->
<g id="edge5" class="edge"><title>s2&#45;&gt;s3</title>
<path fill="none" stroke="black" d="M169.031,-118.482C185.622,-118.952 211.117,-119.673 230.569,-120.224"/>
<polygon fill="black" stroke="black" points="230.564,-123.725 240.659,-120.509 230.762,-116.728 230.564,-123.725"/>
<text text-anchor="middle" x="205" y="-121.8" font-family="Times,serif" font-size="14.00">a</text>
</g>
<!-- s5 -->
<g id="node9" class="node"><title>s5</title>
<ellipse fill="none" stroke="black" cx="259" cy="-72" rx="18" ry="18"/>
<text text-anchor="middle" x="259" y="-67.8" font-family="Times,serif" font-size="14.00">s5</text>
</g>
<!-- s4&#45;&gt;s5 -->
<g id="edge7" class="edge"><title>s4&#45;&gt;s5</title>
<path fill="none" stroke="black" d="M115.123,-72C142.646,-72 196.992,-72 230.151,-72"/>
<polygon fill="black" stroke="black" points="230.515,-75.5001 240.515,-72 230.515,-68.5001 230.515,-75.5001"/>
<text text-anchor="middle" x="151" y="-74.8" font-family="Times,serif" font-size="14.00">b</text>
</g>
<!-- s7 -->
<g id="node10" class="node"><title>s7</title>
<ellipse fill="none" stroke="black" cx="205" cy="-18" rx="18" ry="18"/>
<text text-anchor="middle" x="205" y="-13.8" font-family="Times,serif" font-size="14.00">s7</text>
</g>
<!-- s6&#45;&gt;s7 -->
<g id="edge9" class="edge"><title>s6&#45;&gt;s7</title>
<path fill="none" stroke="black" d="M115.031,-18C131.622,-18 157.117,-18 176.569,-18"/>
<polygon fill="black" stroke="black" points="176.659,-21.5001 186.659,-18 176.659,-14.5001 176.659,-21.5001"/>
<text text-anchor="middle" x="151" y="-20.8" font-family="Times,serif" font-size="14.00">c</text>
</g>
<!-- s1 -->
<g id="node6" class="node"><title>s1</title>
<ellipse fill="none" stroke="black" cx="392" cy="-72" rx="18" ry="18"/>
<text text-anchor="middle" x="392" y="-67.8" font-family="Times,serif" font-size="14.00">s1</text>
</g>
<!-- s9 -->
<g id="node7" class="node"><title>s9</title>
<ellipse fill="none" stroke="black" cx="470.214" cy="-72" rx="18" ry="18"/>
<text text-anchor="middle" x="470.214" y="-67.8" font-family="Times,serif" font-size="14.00">s9</text>
</g>
<!-- s1&#45;&gt;s9 -->
<g id="edge4" class="edge"><title>s1&#45;&gt;s9</title>
<path fill="none" stroke="black" d="M410.294,-72C419.649,-72 431.417,-72 441.972,-72"/>
<polygon fill="black" stroke="black" points="441.988,-75.5001 451.988,-72 441.988,-68.5001 441.988,-75.5001"/>
<text text-anchor="middle" x="431.107" y="-74.8" font-family="Times,serif" font-size="14.00">a</text>
</g>
<!-- s10 -->
<g id="node12" class="node"><title>s10</title>
<ellipse fill="none" stroke="black" cx="553.606" cy="-72" rx="22.2841" ry="22.2841"/>
<text text-anchor="middle" x="553.606" y="-67.8" font-family="Times,serif" font-size="14.00">s10</text>
</g>
<!-- s9&#45;&gt;s10 -->
<g id="edge12" class="edge"><title>s9&#45;&gt;s10</title>
<path fill="none" stroke="black" d="M488.475,-72C497.881,-72 509.822,-72 520.843,-72"/>
<polygon fill="black" stroke="black" points="521.015,-75.5001 531.015,-72 521.014,-68.5001 521.015,-75.5001"/>
<text text-anchor="middle" x="509.714" y="-74.8" font-family="Times,serif" font-size="14.00">b</text>
</g>
<!-- s3&#45;&gt;s1 -->
<g id="edge6" class="edge"><title>s3&#45;&gt;s1</title>
<path fill="none" stroke="black" d="M276.364,-115.208C295.517,-108.388 328.161,-96.6397 356,-86 359.118,-84.8084 362.382,-83.536 365.612,-82.2622"/>
<polygon fill="black" stroke="black" points="367.017,-85.4699 375.011,-78.5163 364.425,-78.9672 367.017,-85.4699"/>
<text text-anchor="middle" x="313" y="-110.8" font-family="Times,serif" font-size="14.00">λ</text>
</g>
<!-- s5&#45;&gt;s1 -->
<g id="edge8" class="edge"><title>s5&#45;&gt;s1</title>
<path fill="none" stroke="black" d="M277.126,-72C299.094,-72 337.464,-72 363.534,-72"/>
<polygon fill="black" stroke="black" points="363.87,-75.5001 373.87,-72 363.87,-68.5001 363.87,-75.5001"/>
<text text-anchor="middle" x="313" y="-74.8" font-family="Times,serif" font-size="14.00">λ</text>
</g>
<!-- s8 -->
<g id="node11" class="node"><title>s8</title>
<ellipse fill="none" stroke="black" cx="313" cy="-18" rx="18" ry="18"/>
<text text-anchor="middle" x="313" y="-13.8" font-family="Times,serif" font-size="14.00">s8</text>
</g>
<!-- s7&#45;&gt;s8 -->
<g id="edge10" class="edge"><title>s7&#45;&gt;s8</title>
<path fill="none" stroke="black" d="M223.031,-18C239.622,-18 265.117,-18 284.569,-18"/>
<polygon fill="black" stroke="black" points="284.659,-21.5001 294.659,-18 284.659,-14.5001 284.659,-21.5001"/>
<text text-anchor="middle" x="259" y="-20.8" font-family="Times,serif" font-size="14.00">c</text>
</g>
<!-- s8&#45;&gt;s1 -->
<g id="edge11" class="edge"><title>s8&#45;&gt;s1</title>
<path fill="none" stroke="black" d="M329.054,-26.7189C337.186,-31.5771 347.312,-37.8688 356,-44 360.494,-47.1715 365.175,-50.7264 369.597,-54.2111"/>
<polygon fill="black" stroke="black" points="367.679,-57.1608 377.663,-60.7066 372.07,-51.7087 367.679,-57.1608"/>
<text text-anchor="middle" x="352.5" y="-46.8" font-family="Times,serif" font-size="14.00">λ</text>
</g>
<!-- s10&#45;&gt;s11 -->
<g id="edge13" class="edge"><title>s10&#45;&gt;s11</title>
<path fill="none" stroke="black" d="M576.261,-72C585.98,-72 597.699,-72 608.641,-72"/>
<polygon fill="black" stroke="black" points="608.804,-75.5001 618.803,-72 608.803,-68.5001 608.804,-75.5001"/>
<text text-anchor="middle" x="597.497" y="-74.8" font-family="Times,serif" font-size="14.00">b</text>
</g>
</g>
</svg>
