<?xml version="1.0" encoding="UTF-8" standalone="no"?>
<!DOCTYPE svg PUBLIC "-//W3C//DTD SVG 1.1//EN"
 "http://www.w3.org/Graphics/SVG/1.1/DTD/svg11.dtd">
<!-- Generated by graphviz version 12.2.1 (20241206.2353)
 -->
<!-- Title: finite_state_machine Pages: 1 -->
<svg width="530pt" height="204pt"
 viewBox="0.00 0.00 530.43 203.82" xmlns="http://www.w3.org/2000/svg" xmlns:xlink="http://www.w3.org/1999/xlink">
<g id="graph0" class="graph" transform="scale(1 1) rotate(0) translate(4 199.82)">
<title>finite_state_machine</title>
<polygon fill="white" stroke="none" points="-4,4 -4,-199.82 526.43,-199.82 526.43,4 -4,4"/>
<text text-anchor="middle" x="261.22" y="-23.7" font-family="Times,serif" font-size="14.00">Regular Expression: </text>
<text text-anchor="middle" x="261.22" y="-7.2" font-family="Times,serif" font-size="14.00">xyzzy401</text>
<!-- s1 -->
<g id="node1" class="node">
<title>s1</title>
<ellipse fill="none" stroke="black" cx="499.33" cy="-124.71" rx="19.11" ry="19.11"/>
<ellipse fill="none" stroke="black" cx="499.33" cy="-124.71" rx="23.11" ry="23.11"/>
<text text-anchor="middle" x="499.33" y="-119.66" font-family="Times,serif" font-size="14.00">s1</text>
</g>
<!-- s0 -->
<g id="node2" class="node">
<title>s0</title>
<ellipse fill="none" stroke="black" cx="19.11" cy="-120.71" rx="19.11" ry="19.11"/>
<text text-anchor="middle" x="19.11" y="-115.66" font-family="Times,serif" font-size="14.00">s0</text>
</g>
<!-- s2 -->
<g id="node3" class="node">
<title>s2</title>
<ellipse fill="none" stroke="black" cx="99.32" cy="-176.71" rx="19.11" ry="19.11"/>
<text text-anchor="middle" x="99.32" y="-171.66" font-family="Times,serif" font-size="14.00">s2</text>
</g>
<!-- s0&#45;&gt;s2 -->
<g id="edge1" class="edge">
<title>s0&#45;&gt;s2</title>
<path fill="none" stroke="black" d="M35.19,-131.51C46.22,-139.41 61.43,-150.3 74.15,-159.41"/>
<polygon fill="black" stroke="black" points="71.89,-162.09 82.06,-165.07 75.96,-156.4 71.89,-162.09"/>
<text text-anchor="middle" x="59.22" y="-153.59" font-family="Times,serif" font-size="14.00">a</text>
</g>
<!-- s4 -->
<g id="node4" class="node">
<title>s4</title>
<ellipse fill="none" stroke="black" cx="99.32" cy="-120.71" rx="19.11" ry="19.11"/>
<text text-anchor="middle" x="99.32" y="-115.66" font-family="Times,serif" font-size="14.00">s4</text>
</g>
<!-- s0&#45;&gt;s4 -->
<g id="edge2" class="edge">
<title>s0&#45;&gt;s4</title>
<path fill="none" stroke="black" d="M38.64,-120.71C47.6,-120.71 58.58,-120.71 68.67,-120.71"/>
<polygon fill="black" stroke="black" points="68.41,-124.21 78.41,-120.71 68.41,-117.21 68.41,-124.21"/>
<text text-anchor="middle" x="59.22" y="-123.91" font-family="Times,serif" font-size="14.00">a</text>
</g>
<!-- s7 -->
<g id="node5" class="node">
<title>s7</title>
<ellipse fill="none" stroke="black" cx="99.32" cy="-64.71" rx="19.11" ry="19.11"/>
<text text-anchor="middle" x="99.32" y="-59.66" font-family="Times,serif" font-size="14.00">s7</text>
</g>
<!-- s0&#45;&gt;s7 -->
<g id="edge3" class="edge">
<title>s0&#45;&gt;s7</title>
<path fill="none" stroke="black" d="M35.19,-109.92C46.22,-102.01 61.43,-91.13 74.15,-82.02"/>
<polygon fill="black" stroke="black" points="75.96,-85.03 82.06,-76.36 71.89,-79.33 75.96,-85.03"/>
<text text-anchor="middle" x="59.22" y="-97.59" font-family="Times,serif" font-size="14.00">a</text>
</g>
<!-- s3 -->
<g id="node6" class="node">
<title>s3</title>
<ellipse fill="none" stroke="black" cx="236.5" cy="-171.71" rx="19.11" ry="19.11"/>
<text text-anchor="middle" x="236.5" y="-166.66" font-family="Times,serif" font-size="14.00">s3</text>
</g>
<!-- s2&#45;&gt;s3 -->
<g id="edge4" class="edge">
<title>s2&#45;&gt;s3</title>
<path fill="none" stroke="black" d="M118.84,-176.03C141.28,-175.2 179.4,-173.79 205.94,-172.81"/>
<polygon fill="black" stroke="black" points="205.84,-176.31 215.7,-172.45 205.58,-169.32 205.84,-176.31"/>
<text text-anchor="middle" x="139.81" y="-178.55" font-family="Times,serif" font-size="14.00">b</text>
</g>
<!-- s5 -->
<g id="node7" class="node">
<title>s5</title>
<ellipse fill="none" stroke="black" cx="180.29" cy="-122.71" rx="19.11" ry="19.11"/>
<text text-anchor="middle" x="180.29" y="-117.66" font-family="Times,serif" font-size="14.00">s5</text>
</g>
<!-- s4&#45;&gt;s5 -->
<g id="edge6" class="edge">
<title>s4&#45;&gt;s5</title>
<path fill="none" stroke="black" d="M118.64,-121.18C127.74,-121.41 138.98,-121.69 149.29,-121.95"/>
<polygon fill="black" stroke="black" points="149.2,-125.45 159.29,-122.21 149.38,-118.46 149.2,-125.45"/>
<text text-anchor="middle" x="139.81" y="-124.97" font-family="Times,serif" font-size="14.00">a</text>
</g>
<!-- s8 -->
<g id="node9" class="node">
<title>s8</title>
<ellipse fill="none" stroke="black" cx="180.29" cy="-64.71" rx="19.11" ry="19.11"/>
<text text-anchor="middle" x="180.29" y="-59.66" font-family="Times,serif" font-size="14.00">s8</text>
</g>
<!-- s7&#45;&gt;s8 -->
<g id="edge9" class="edge">
<title>s7&#45;&gt;s8</title>
<path fill="none" stroke="black" d="M118.64,-64.71C127.74,-64.71 138.98,-64.71 149.29,-64.71"/>
<polygon fill="black" stroke="black" points="149.29,-68.21 159.29,-64.71 149.29,-61.21 149.29,-68.21"/>
<text text-anchor="middle" x="139.81" y="-67.91" font-family="Times,serif" font-size="14.00">a</text>
</g>
<!-- s3&#45;&gt;s1 -->
<g id="edge5" class="edge">
<title>s3&#45;&gt;s1</title>
<path fill="none" stroke="black" d="M255.97,-169.8C290.84,-166.04 368.68,-157 433.47,-144.71 444.59,-142.61 447.36,-141.92 458.22,-138.71 460.94,-137.91 463.75,-137.03 466.56,-136.12"/>
<polygon fill="black" stroke="black" points="467.43,-139.52 475.79,-133 465.19,-132.89 467.43,-139.52"/>
<text text-anchor="middle" x="348.93" y="-163.89" font-family="Times,serif" font-size="14.00">λ</text>
</g>
<!-- s6 -->
<g id="node8" class="node">
<title>s6</title>
<ellipse fill="none" stroke="black" cx="348.93" cy="-123.71" rx="19.11" ry="19.11"/>
<text text-anchor="middle" x="348.93" y="-118.66" font-family="Times,serif" font-size="14.00">s6</text>
</g>
<!-- s5&#45;&gt;s6 -->
<g id="edge7" class="edge">
<title>s5&#45;&gt;s6</title>
<path fill="none" stroke="black" d="M199.76,-122.82C228.41,-123 283.85,-123.33 318.19,-123.54"/>
<polygon fill="black" stroke="black" points="317.84,-127.03 327.87,-123.59 317.89,-120.03 317.84,-127.03"/>
<text text-anchor="middle" x="236.5" y="-126.35" font-family="Times,serif" font-size="14.00">b</text>
</g>
<!-- s6&#45;&gt;s1 -->
<g id="edge8" class="edge">
<title>s6&#45;&gt;s1</title>
<path fill="none" stroke="black" d="M368.43,-123.84C392.5,-124 435.01,-124.29 464.83,-124.49"/>
<polygon fill="black" stroke="black" points="464.42,-127.99 474.45,-124.55 464.47,-120.99 464.42,-127.99"/>
<text text-anchor="middle" x="409.75" y="-127.46" font-family="Times,serif" font-size="14.00">λ</text>
</g>
<!-- s9 -->
<g id="node10" class="node">
<title>s9</title>
<ellipse fill="none" stroke="black" cx="292.72" cy="-64.71" rx="19.11" ry="19.11"/>
<text text-anchor="middle" x="292.72" y="-59.66" font-family="Times,serif" font-size="14.00">s9</text>
</g>
<!-- s8&#45;&gt;s9 -->
<g id="edge10" class="edge">
<title>s8&#45;&gt;s9</title>
<path fill="none" stroke="black" d="M199.52,-64.71C216.55,-64.71 242.25,-64.71 262.2,-64.71"/>
<polygon fill="black" stroke="black" points="261.94,-68.21 271.94,-64.71 261.94,-61.21 261.94,-68.21"/>
<text text-anchor="middle" x="236.5" y="-67.91" font-family="Times,serif" font-size="14.00">a</text>
</g>
<!-- s10 -->
<g id="node11" class="node">
<title>s10</title>
<ellipse fill="none" stroke="black" cx="409.75" cy="-64.71" rx="23.71" ry="23.71"/>
<text text-anchor="middle" x="409.75" y="-59.66" font-family="Times,serif" font-size="14.00">s10</text>
</g>
<!-- s9&#45;&gt;s10 -->
<g id="edge11" class="edge">
<title>s9&#45;&gt;s10</title>
<path fill="none" stroke="black" d="M312.2,-64.71C328.87,-64.71 353.83,-64.71 374.19,-64.71"/>
<polygon fill="black" stroke="black" points="374.04,-68.21 384.04,-64.71 374.04,-61.21 374.04,-68.21"/>
<text text-anchor="middle" x="348.93" y="-67.91" font-family="Times,serif" font-size="14.00">b</text>
</g>
<!-- s10&#45;&gt;s1 -->
<g id="edge12" class="edge">
<title>s10&#45;&gt;s1</title>
<path fill="none" stroke="black" d="M430.42,-76.36C439.06,-81.63 449.27,-88.05 458.22,-94.21 462.67,-97.28 467.3,-100.64 471.78,-103.97"/>
<polygon fill="black" stroke="black" points="469.33,-106.51 479.42,-109.77 473.56,-100.94 469.33,-106.51"/>
<text text-anchor="middle" x="454.84" y="-97.41" font-family="Times,serif" font-size="14.00">λ</text>
</g>
</g>
</svg>
