<?xml version="1.0" encoding="UTF-8" standalone="no"?>
<!DOCTYPE svg PUBLIC "-//W3C//DTD SVG 1.1//EN"
 "http://www.w3.org/Graphics/SVG/1.1/DTD/svg11.dtd">
<!-- Generated by graphviz version 12.2.1 (20241206.2353)
 -->
<!-- Title: finite_state_machine Pages: 1 -->
<svg width="138pt" height="181pt"
 viewBox="0.00 0.00 138.00 181.10" xmlns="http://www.w3.org/2000/svg" xmlns:xlink="http://www.w3.org/1999/xlink">
<g id="graph0" class="graph" transform="scale(1 1) rotate(0) translate(4 177.1)">
<title>finite_state_machine</title>
<polygon fill="white" stroke="none" points="-4,4 -4,-177.1 134,-177.1 134,4 -4,4"/>
<text text-anchor="middle" x="65" y="-23.7" font-family="Times,serif" font-size="14.00">Regular Expression: </text>
<text text-anchor="middle" x="65" y="-7.2" font-family="Times,serif" font-size="14.00">xyzzy401</text>
<!-- s2 -->
<g id="node1" class="node">
<title>s2</title>
<ellipse fill="none" stroke="black" cx="105.48" cy="-64.11" rx="19.11" ry="19.11"/>
<ellipse fill="none" stroke="black" cx="105.48" cy="-64.11" rx="23.11" ry="23.11"/>
<text text-anchor="middle" x="105.48" y="-59.06" font-family="Times,serif" font-size="14.00">s2</text>
</g>
<!-- s0 -->
<g id="node2" class="node">
<title>s0</title>
<ellipse fill="none" stroke="black" cx="105.48" cy="-144.11" rx="19.11" ry="19.11"/>
<text text-anchor="middle" x="105.48" y="-139.06" font-family="Times,serif" font-size="14.00">s0</text>
</g>
<!-- s1 -->
<g id="node3" class="node">
<title>s1</title>
<ellipse fill="none" stroke="black" cx="20.52" cy="-124.11" rx="19.11" ry="19.11"/>
<text text-anchor="middle" x="20.52" y="-119.06" font-family="Times,serif" font-size="14.00">s1</text>
</g>
<!-- s0&#45;&gt;s1 -->
<g id="edge1" class="edge">
<title>s0&#45;&gt;s1</title>
<path fill="none" stroke="black" d="M86.52,-139.78C75.98,-137.24 62.41,-133.97 50.41,-131.07"/>
<polygon fill="black" stroke="black" points="51.53,-127.74 40.99,-128.8 49.89,-134.55 51.53,-127.74"/>
<text text-anchor="middle" x="61" y="-137.31" font-family="Times,serif" font-size="14.00">0</text>
</g>
<!-- s0&#45;&gt;s1 -->
<g id="edge2" class="edge">
<title>s0&#45;&gt;s1</title>
<path fill="none" stroke="black" d="M91.77,-130.48C84.49,-123.7 74.75,-116.2 64.38,-112.61 59.19,-110.81 53.57,-110.91 48.16,-111.98"/>
<polygon fill="black" stroke="black" points="47.52,-108.52 39,-114.81 49.59,-115.2 47.52,-108.52"/>
<text text-anchor="middle" x="61" y="-115.81" font-family="Times,serif" font-size="14.00">1</text>
</g>
<!-- s1&#45;&gt;s2 -->
<g id="edge4" class="edge">
<title>s1&#45;&gt;s2</title>
<path fill="none" stroke="black" d="M34.58,-110.59C41.17,-104.15 49.48,-96.56 57.62,-90.61 62.81,-86.82 68.59,-83.15 74.27,-79.81"/>
<polygon fill="black" stroke="black" points="75.92,-82.9 82.92,-74.95 72.49,-76.8 75.92,-82.9"/>
<text text-anchor="middle" x="61" y="-93.81" font-family="Times,serif" font-size="14.00">τ</text>
</g>
<!-- s1&#45;&gt;s0 -->
<g id="edge3" class="edge">
<title>s1&#45;&gt;s0</title>
<path fill="none" stroke="black" d="M33.71,-138.47C40.1,-144.87 48.48,-151.72 57.62,-155.11 63.95,-157.45 70.94,-157.22 77.56,-155.81"/>
<polygon fill="black" stroke="black" points="78.16,-159.29 86.7,-153.01 76.11,-152.59 78.16,-159.29"/>
<text text-anchor="middle" x="61" y="-159.8" font-family="Times,serif" font-size="14.00">λ</text>
</g>
</g>
</svg>
