<?xml version="1.0" encoding="UTF-8" standalone="no"?>
<!DOCTYPE svg PUBLIC "-//W3C//DTD SVG 1.1//EN"
 "http://www.w3.org/Graphics/SVG/1.1/DTD/svg11.dtd">
<!-- Generated by graphviz version 12.2.1 (20241206.2353)
 -->
<!-- Title: finite_state_machine Pages: 1 -->
<svg width="516pt" height="164pt"
 viewBox="0.00 0.00 515.68 163.82" xmlns="http://www.w3.org/2000/svg" xmlns:xlink="http://www.w3.org/1999/xlink">
<g id="graph0" class="graph" transform="scale(1 1) rotate(0) translate(4 159.82)">
<title>finite_state_machine</title>
<polygon fill="white" stroke="none" points="-4,4 -4,-159.82 511.68,-159.82 511.68,4 -4,4"/>
<!-- s1 -->
<g id="node1" class="node">
<title>s1</title>
<ellipse fill="none" stroke="black" cx="484.57" cy="-83.71" rx="19.11" ry="19.11"/>
<ellipse fill="none" stroke="black" cx="484.57" cy="-83.71" rx="23.11" ry="23.11"/>
<text text-anchor="middle" x="484.57" y="-78.66" font-family="Times,serif" font-size="14.00">s1</text>
</g>
<!-- s0 -->
<g id="node2" class="node">
<title>s0</title>
<ellipse fill="none" stroke="black" cx="19.11" cy="-80.71" rx="19.11" ry="19.11"/>
<text text-anchor="middle" x="19.11" y="-75.66" font-family="Times,serif" font-size="14.00">s0</text>
</g>
<!-- s2 -->
<g id="node3" class="node">
<title>s2</title>
<ellipse fill="none" stroke="black" cx="99.32" cy="-136.71" rx="19.11" ry="19.11"/>
<text text-anchor="middle" x="99.32" y="-131.66" font-family="Times,serif" font-size="14.00">s2</text>
</g>
<!-- s0&#45;&gt;s2 -->
<g id="edge1" class="edge">
<title>s0&#45;&gt;s2</title>
<path fill="none" stroke="black" d="M35.19,-91.51C46.22,-99.41 61.43,-110.3 74.15,-119.41"/>
<polygon fill="black" stroke="black" points="71.89,-122.09 82.06,-125.07 75.96,-116.4 71.89,-122.09"/>
<text text-anchor="middle" x="59.22" y="-113.59" font-family="Times,serif" font-size="14.00">a</text>
</g>
<!-- s5 -->
<g id="node4" class="node">
<title>s5</title>
<ellipse fill="none" stroke="black" cx="99.32" cy="-80.71" rx="19.11" ry="19.11"/>
<text text-anchor="middle" x="99.32" y="-75.66" font-family="Times,serif" font-size="14.00">s5</text>
</g>
<!-- s0&#45;&gt;s5 -->
<g id="edge2" class="edge">
<title>s0&#45;&gt;s5</title>
<path fill="none" stroke="black" d="M38.64,-80.71C47.6,-80.71 58.58,-80.71 68.67,-80.71"/>
<polygon fill="black" stroke="black" points="68.41,-84.21 78.41,-80.71 68.41,-77.21 68.41,-84.21"/>
<text text-anchor="middle" x="59.22" y="-83.91" font-family="Times,serif" font-size="14.00">a</text>
</g>
<!-- s8 -->
<g id="node5" class="node">
<title>s8</title>
<ellipse fill="none" stroke="black" cx="99.32" cy="-24.71" rx="19.11" ry="19.11"/>
<text text-anchor="middle" x="99.32" y="-19.66" font-family="Times,serif" font-size="14.00">s8</text>
</g>
<!-- s0&#45;&gt;s8 -->
<g id="edge3" class="edge">
<title>s0&#45;&gt;s8</title>
<path fill="none" stroke="black" d="M35.19,-69.92C46.22,-62.01 61.43,-51.13 74.15,-42.02"/>
<polygon fill="black" stroke="black" points="75.96,-45.03 82.06,-36.36 71.89,-39.33 75.96,-45.03"/>
<text text-anchor="middle" x="59.22" y="-57.59" font-family="Times,serif" font-size="14.00">a</text>
</g>
<!-- s3 -->
<g id="node6" class="node">
<title>s3</title>
<ellipse fill="none" stroke="black" cx="187.79" cy="-136.71" rx="19.11" ry="19.11"/>
<text text-anchor="middle" x="187.79" y="-131.66" font-family="Times,serif" font-size="14.00">s3</text>
</g>
<!-- s2&#45;&gt;s3 -->
<g id="edge4" class="edge">
<title>s2&#45;&gt;s3</title>
<path fill="none" stroke="black" d="M118.66,-136.71C129.89,-136.71 144.53,-136.71 157.36,-136.71"/>
<polygon fill="black" stroke="black" points="156.96,-140.21 166.96,-136.71 156.96,-133.21 156.96,-140.21"/>
<text text-anchor="middle" x="143.56" y="-139.91" font-family="Times,serif" font-size="14.00">λ</text>
</g>
<!-- s6 -->
<g id="node8" class="node">
<title>s6</title>
<ellipse fill="none" stroke="black" cx="187.79" cy="-80.71" rx="19.11" ry="19.11"/>
<text text-anchor="middle" x="187.79" y="-75.66" font-family="Times,serif" font-size="14.00">s6</text>
</g>
<!-- s5&#45;&gt;s6 -->
<g id="edge7" class="edge">
<title>s5&#45;&gt;s6</title>
<path fill="none" stroke="black" d="M118.66,-80.71C129.89,-80.71 144.53,-80.71 157.36,-80.71"/>
<polygon fill="black" stroke="black" points="156.96,-84.21 166.96,-80.71 156.96,-77.21 156.96,-84.21"/>
<text text-anchor="middle" x="143.56" y="-83.91" font-family="Times,serif" font-size="14.00">Ш</text>
</g>
<!-- s9 -->
<g id="node10" class="node">
<title>s9</title>
<ellipse fill="none" stroke="black" cx="187.79" cy="-24.71" rx="19.11" ry="19.11"/>
<text text-anchor="middle" x="187.79" y="-19.66" font-family="Times,serif" font-size="14.00">s9</text>
</g>
<!-- s8&#45;&gt;s9 -->
<g id="edge10" class="edge">
<title>s8&#45;&gt;s9</title>
<path fill="none" stroke="black" d="M118.66,-24.71C129.89,-24.71 144.53,-24.71 157.36,-24.71"/>
<polygon fill="black" stroke="black" points="156.96,-28.21 166.96,-24.71 156.96,-21.21 156.96,-28.21"/>
<text text-anchor="middle" x="143.56" y="-27.91" font-family="Times,serif" font-size="14.00">a</text>
</g>
<!-- s4 -->
<g id="node7" class="node">
<title>s4</title>
<ellipse fill="none" stroke="black" cx="334.18" cy="-136.71" rx="19.11" ry="19.11"/>
<text text-anchor="middle" x="334.18" y="-131.66" font-family="Times,serif" font-size="14.00">s4</text>
</g>
<!-- s3&#45;&gt;s4 -->
<g id="edge5" class="edge">
<title>s3&#45;&gt;s4</title>
<path fill="none" stroke="black" d="M207.37,-136.71C231.63,-136.71 274.39,-136.71 303.25,-136.71"/>
<polygon fill="black" stroke="black" points="303.16,-140.21 313.16,-136.71 303.16,-133.21 303.16,-140.21"/>
<text text-anchor="middle" x="228.27" y="-139.91" font-family="Times,serif" font-size="14.00">b</text>
</g>
<!-- s4&#45;&gt;s1 -->
<g id="edge6" class="edge">
<title>s4&#45;&gt;s1</title>
<path fill="none" stroke="black" d="M352.49,-130.53C376.87,-121.82 421.72,-105.81 452.09,-94.96"/>
<polygon fill="black" stroke="black" points="452.89,-98.39 461.13,-91.73 450.54,-91.8 452.89,-98.39"/>
<text text-anchor="middle" x="395" y="-126.51" font-family="Times,serif" font-size="14.00">λ</text>
</g>
<!-- s7 -->
<g id="node9" class="node">
<title>s7</title>
<ellipse fill="none" stroke="black" cx="334.18" cy="-82.71" rx="19.11" ry="19.11"/>
<text text-anchor="middle" x="334.18" y="-77.66" font-family="Times,serif" font-size="14.00">s7</text>
</g>
<!-- s6&#45;&gt;s7 -->
<g id="edge8" class="edge">
<title>s6&#45;&gt;s7</title>
<path fill="none" stroke="black" d="M207.37,-80.97C231.63,-81.31 274.39,-81.9 303.25,-82.3"/>
<polygon fill="black" stroke="black" points="303.11,-85.8 313.16,-82.44 303.21,-78.8 303.11,-85.8"/>
<text text-anchor="middle" x="228.27" y="-84.5" font-family="Times,serif" font-size="14.00">b</text>
</g>
<!-- s7&#45;&gt;s1 -->
<g id="edge9" class="edge">
<title>s7&#45;&gt;s1</title>
<path fill="none" stroke="black" d="M353.67,-82.84C377.75,-83 420.26,-83.29 450.08,-83.49"/>
<polygon fill="black" stroke="black" points="449.67,-86.99 459.69,-83.55 449.72,-79.99 449.67,-86.99"/>
<text text-anchor="middle" x="395" y="-86.46" font-family="Times,serif" font-size="14.00">λ</text>
</g>
<!-- s10 -->
<g id="node11" class="node">
<title>s10</title>
<ellipse fill="none" stroke="black" cx="273.36" cy="-24.71" rx="23.71" ry="23.71"/>
<text text-anchor="middle" x="273.36" y="-19.66" font-family="Times,serif" font-size="14.00">s10</text>
</g>
<!-- s9&#45;&gt;s10 -->
<g id="edge11" class="edge">
<title>s9&#45;&gt;s10</title>
<path fill="none" stroke="black" d="M207.33,-24.71C216.35,-24.71 227.48,-24.71 237.97,-24.71"/>
<polygon fill="black" stroke="black" points="237.87,-28.21 247.87,-24.71 237.87,-21.21 237.87,-28.21"/>
<text text-anchor="middle" x="228.27" y="-27.91" font-family="Times,serif" font-size="14.00">a</text>
</g>
<!-- s11 -->
<g id="node12" class="node">
<title>s11</title>
<ellipse fill="none" stroke="black" cx="395" cy="-23.71" rx="23.71" ry="23.71"/>
<text text-anchor="middle" x="395" y="-18.66" font-family="Times,serif" font-size="14.00">s11</text>
</g>
<!-- s10&#45;&gt;s11 -->
<g id="edge12" class="edge">
<title>s10&#45;&gt;s11</title>
<path fill="none" stroke="black" d="M297.43,-24.52C315.05,-24.37 339.63,-24.17 359.58,-24"/>
<polygon fill="black" stroke="black" points="359.52,-27.5 369.49,-23.92 359.46,-20.5 359.52,-27.5"/>
<text text-anchor="middle" x="334.18" y="-27.56" font-family="Times,serif" font-size="14.00">b</text>
</g>
<!-- s11&#45;&gt;s1 -->
<g id="edge13" class="edge">
<title>s11&#45;&gt;s1</title>
<path fill="none" stroke="black" d="M415.67,-35.36C424.31,-40.63 434.52,-47.05 443.47,-53.21 447.91,-56.28 452.55,-59.64 457.02,-62.97"/>
<polygon fill="black" stroke="black" points="454.58,-65.51 464.66,-68.77 458.81,-59.94 454.58,-65.51"/>
<text text-anchor="middle" x="440.09" y="-56.41" font-family="Times,serif" font-size="14.00">λ</text>
</g>
</g>
</svg>
