<?xml version="1.0" encoding="UTF-8" standalone="no"?>
<!DOCTYPE svg PUBLIC "-//W3C//DTD SVG 1.1//EN"
 "http://www.w3.org/Graphics/SVG/1.1/DTD/svg11.dtd">
<!-- Generated by graphviz version 12.2.1 (20241206.2353)
 -->
<!-- Title: finite_state_machine Pages: 1 -->
<svg width="576pt" height="141pt"
 viewBox="0.00 0.00 576.00 141.06" xmlns="http://www.w3.org/2000/svg" xmlns:xlink="http://www.w3.org/1999/xlink">
<g id="graph0" class="graph" transform="scale(0.51288 0.51288) rotate(0) translate(4 271.03)">
<title>finite_state_machine</title>
<polygon fill="white" stroke="none" points="-4,4 -4,-271.03 1119.07,-271.03 1119.07,4 -4,4"/>
<!-- s15 -->
<g id="node1" class="node">
<title>s15</title>
<ellipse fill="none" stroke="black" cx="1087.36" cy="-149.11" rx="23.71" ry="23.71"/>
<ellipse fill="none" stroke="black" cx="1087.36" cy="-149.11" rx="27.71" ry="27.71"/>
<text text-anchor="middle" x="1087.36" y="-144.06" font-family="Times,serif" font-size="14.00">s15</text>
</g>
<!-- s0 -->
<g id="node2" class="node">
<title>s0</title>
<ellipse fill="none" stroke="black" cx="111.32" cy="-81.11" rx="19.11" ry="19.11"/>
<text text-anchor="middle" x="111.32" y="-76.06" font-family="Times,serif" font-size="14.00">s0</text>
</g>
<!-- s1 -->
<g id="node3" class="node">
<title>s1</title>
<ellipse fill="none" stroke="black" cx="19.11" cy="-67.11" rx="19.11" ry="19.11"/>
<text text-anchor="middle" x="19.11" y="-62.06" font-family="Times,serif" font-size="14.00">s1</text>
</g>
<!-- s0&#45;&gt;s1 -->
<g id="edge1" class="edge">
<title>s0&#45;&gt;s1</title>
<path fill="none" stroke="black" d="M92.09,-78.28C79.87,-76.38 63.51,-73.84 49.47,-71.66"/>
<polygon fill="black" stroke="black" points="50.28,-68.25 39.86,-70.17 49.2,-75.16 50.28,-68.25"/>
<text text-anchor="middle" x="65.22" y="-78.56" font-family="Times,serif" font-size="14.00">0&#45;9</text>
</g>
<!-- s0&#45;&gt;s1 -->
<g id="edge2" class="edge">
<title>s0&#45;&gt;s1</title>
<path fill="none" stroke="black" d="M97.59,-67.58C91.2,-61.78 82.97,-55.65 74.22,-52.61 65.3,-49.51 55.37,-50.85 46.48,-53.7"/>
<polygon fill="black" stroke="black" points="45.32,-50.39 37.32,-57.34 47.91,-56.89 45.32,-50.39"/>
<text text-anchor="middle" x="65.22" y="-55.81" font-family="Times,serif" font-size="14.00">λ</text>
</g>
<!-- s1&#45;&gt;s0 -->
<g id="edge3" class="edge">
<title>s1&#45;&gt;s0</title>
<path fill="none" stroke="black" d="M32.8,-80.86C39.18,-86.77 47.42,-93.01 56.22,-96.11 65.14,-99.25 75.07,-97.85 83.96,-94.91"/>
<polygon fill="black" stroke="black" points="85.2,-98.18 93.12,-91.15 82.54,-91.71 85.2,-98.18"/>
<text text-anchor="middle" x="65.22" y="-101.08" font-family="Times,serif" font-size="14.00">λ</text>
</g>
<!-- s2 -->
<g id="node4" class="node">
<title>s2</title>
<ellipse fill="none" stroke="black" cx="111.32" cy="-19.11" rx="19.11" ry="19.11"/>
<text text-anchor="middle" x="111.32" y="-14.06" font-family="Times,serif" font-size="14.00">s2</text>
</g>
<!-- s1&#45;&gt;s2 -->
<g id="edge4" class="edge">
<title>s1&#45;&gt;s2</title>
<path fill="none" stroke="black" d="M31.27,-52.23C37.74,-44.64 46.52,-35.91 56.22,-30.61 63.66,-26.54 72.41,-23.91 80.68,-22.21"/>
<polygon fill="black" stroke="black" points="81.07,-25.69 90.37,-20.62 79.94,-18.78 81.07,-25.69"/>
<text text-anchor="middle" x="65.22" y="-33.81" font-family="Times,serif" font-size="14.00">τ</text>
</g>
<!-- s3 -->
<g id="node5" class="node">
<title>s3</title>
<ellipse fill="none" stroke="black" cx="203.54" cy="-86.11" rx="19.11" ry="19.11"/>
<text text-anchor="middle" x="203.54" y="-81.06" font-family="Times,serif" font-size="14.00">s3</text>
</g>
<!-- s2&#45;&gt;s3 -->
<g id="edge5" class="edge">
<title>s2&#45;&gt;s3</title>
<path fill="none" stroke="black" d="M127.22,-30.17C141.19,-40.55 162.32,-56.24 178.65,-68.37"/>
<polygon fill="black" stroke="black" points="176.29,-70.97 186.4,-74.12 180.46,-65.35 176.29,-70.97"/>
<text text-anchor="middle" x="157.43" y="-61.81" font-family="Times,serif" font-size="14.00">.</text>
</g>
<!-- s4 -->
<g id="node6" class="node">
<title>s4</title>
<ellipse fill="none" stroke="black" cx="111.32" cy="-137.11" rx="19.11" ry="19.11"/>
<text text-anchor="middle" x="111.32" y="-132.06" font-family="Times,serif" font-size="14.00">s4</text>
</g>
<!-- s3&#45;&gt;s4 -->
<g id="edge6" class="edge">
<title>s3&#45;&gt;s4</title>
<path fill="none" stroke="black" d="M184.23,-82.73C173.24,-81.62 159.33,-81.88 148.43,-87.61 145.54,-89.13 137.13,-100.55 129.16,-112.04"/>
<polygon fill="black" stroke="black" points="126.3,-110.02 123.54,-120.25 132.08,-113.97 126.3,-110.02"/>
<text text-anchor="middle" x="157.43" y="-90.81" font-family="Times,serif" font-size="14.00">0&#45;9</text>
</g>
<!-- s4&#45;&gt;s3 -->
<g id="edge7" class="edge">
<title>s4&#45;&gt;s3</title>
<path fill="none" stroke="black" d="M128.45,-127.99C141.71,-120.49 160.76,-109.72 176.23,-100.98"/>
<polygon fill="black" stroke="black" points="177.94,-104.03 184.93,-96.06 174.5,-97.94 177.94,-104.03"/>
<text text-anchor="middle" x="157.43" y="-119.38" font-family="Times,serif" font-size="14.00">λ</text>
</g>
<!-- s5 -->
<g id="node7" class="node">
<title>s5</title>
<ellipse fill="none" stroke="black" cx="203.54" cy="-166.11" rx="19.11" ry="19.11"/>
<text text-anchor="middle" x="203.54" y="-161.06" font-family="Times,serif" font-size="14.00">s5</text>
</g>
<!-- s4&#45;&gt;s5 -->
<g id="edge8" class="edge">
<title>s4&#45;&gt;s5</title>
<path fill="none" stroke="black" d="M129.72,-142.7C142.24,-146.73 159.42,-152.25 173.95,-156.92"/>
<polygon fill="black" stroke="black" points="172.86,-160.24 183.45,-159.97 175,-153.58 172.86,-160.24"/>
<text text-anchor="middle" x="157.43" y="-157.4" font-family="Times,serif" font-size="14.00">τ</text>
</g>
<!-- s6 -->
<g id="node8" class="node">
<title>s6</title>
<ellipse fill="none" stroke="black" cx="286" cy="-206.11" rx="19.11" ry="19.11"/>
<text text-anchor="middle" x="286" y="-201.06" font-family="Times,serif" font-size="14.00">s6</text>
</g>
<!-- s5&#45;&gt;s6 -->
<g id="edge9" class="edge">
<title>s5&#45;&gt;s6</title>
<path fill="none" stroke="black" d="M221.07,-174.36C227.22,-177.42 234.25,-180.93 240.65,-184.11 246.42,-186.98 252.62,-190.05 258.49,-192.97"/>
<polygon fill="black" stroke="black" points="256.7,-195.99 267.21,-197.29 259.81,-189.72 256.7,-195.99"/>
<text text-anchor="middle" x="244.77" y="-190.91" font-family="Times,serif" font-size="14.00">e</text>
</g>
<!-- s5&#45;&gt;s6 -->
<g id="edge10" class="edge">
<title>s5&#45;&gt;s6</title>
<path fill="none" stroke="black" d="M222.54,-161.31C230.91,-160.01 240.77,-159.85 248.9,-163.61 256.87,-167.3 263.73,-173.71 269.26,-180.45"/>
<polygon fill="black" stroke="black" points="266.34,-182.4 275.07,-188.41 272,-178.27 266.34,-182.4"/>
<text text-anchor="middle" x="244.77" y="-166.81" font-family="Times,serif" font-size="14.00">E</text>
</g>
<!-- s14 -->
<g id="node9" class="node">
<title>s14</title>
<ellipse fill="none" stroke="black" cx="993.93" cy="-149.11" rx="23.71" ry="23.71"/>
<text text-anchor="middle" x="993.93" y="-144.06" font-family="Times,serif" font-size="14.00">s14</text>
</g>
<!-- s5&#45;&gt;s14 -->
<g id="edge11" class="edge">
<title>s5&#45;&gt;s14</title>
<path fill="none" stroke="black" d="M219.81,-155.67C235.45,-146 260.84,-133.11 285,-133.11 285,-133.11 285,-133.11 905.5,-133.11 923.63,-133.11 943.53,-136.48 959.76,-140.12"/>
<polygon fill="black" stroke="black" points="958.84,-143.5 969.38,-142.43 960.47,-136.7 958.84,-143.5"/>
<text text-anchor="middle" x="581.38" y="-136.31" font-family="Times,serif" font-size="14.00">λ</text>
</g>
<!-- s7 -->
<g id="node10" class="node">
<title>s7</title>
<ellipse fill="none" stroke="black" cx="368.47" cy="-206.11" rx="19.11" ry="19.11"/>
<text text-anchor="middle" x="368.47" y="-201.06" font-family="Times,serif" font-size="14.00">s7</text>
</g>
<!-- s6&#45;&gt;s7 -->
<g id="edge12" class="edge">
<title>s6&#45;&gt;s7</title>
<path fill="none" stroke="black" d="M305.26,-206.11C314.86,-206.11 326.88,-206.11 337.78,-206.11"/>
<polygon fill="black" stroke="black" points="337.49,-209.61 347.49,-206.11 337.49,-202.61 337.49,-209.61"/>
<text text-anchor="middle" x="327.24" y="-209.31" font-family="Times,serif" font-size="14.00">&#45;</text>
</g>
<!-- s6&#45;&gt;s7 -->
<g id="edge13" class="edge">
<title>s6&#45;&gt;s7</title>
<path fill="none" stroke="black" d="M300.91,-194.05C309.42,-188.12 320.7,-182.79 331.36,-185.61 335.05,-186.58 338.77,-188.03 342.33,-189.72"/>
<polygon fill="black" stroke="black" points="340.64,-192.78 351.09,-194.52 344,-186.65 340.64,-192.78"/>
<text text-anchor="middle" x="327.24" y="-188.81" font-family="Times,serif" font-size="14.00">+</text>
</g>
<!-- s6&#45;&gt;s7 -->
<g id="edge14" class="edge">
<title>s6&#45;&gt;s7</title>
<path fill="none" stroke="black" d="M302.58,-215.84C308.73,-219.15 316.02,-222.44 323.11,-224.11 329.64,-225.64 336.46,-224.42 342.74,-222.03"/>
<polygon fill="black" stroke="black" points="343.85,-225.38 351.3,-217.84 340.78,-219.1 343.85,-225.38"/>
<text text-anchor="middle" x="327.24" y="-227.99" font-family="Times,serif" font-size="14.00">λ</text>
</g>
<!-- s14&#45;&gt;s15 -->
<g id="edge26" class="edge">
<title>s14&#45;&gt;s15</title>
<path fill="none" stroke="black" d="M1018,-149.11C1027.15,-149.11 1037.91,-149.11 1048.16,-149.11"/>
<polygon fill="black" stroke="black" points="1047.88,-152.61 1057.88,-149.11 1047.88,-145.61 1047.88,-152.61"/>
<text text-anchor="middle" x="1038.64" y="-152.31" font-family="Times,serif" font-size="14.00">τ</text>
</g>
<!-- s8 -->
<g id="node11" class="node">
<title>s8</title>
<ellipse fill="none" stroke="black" cx="448.68" cy="-206.11" rx="19.11" ry="19.11"/>
<text text-anchor="middle" x="448.68" y="-201.06" font-family="Times,serif" font-size="14.00">s8</text>
</g>
<!-- s7&#45;&gt;s8 -->
<g id="edge15" class="edge">
<title>s7&#45;&gt;s8</title>
<path fill="none" stroke="black" d="M388,-206.11C396.96,-206.11 407.94,-206.11 418.03,-206.11"/>
<polygon fill="black" stroke="black" points="417.77,-209.61 427.77,-206.11 417.77,-202.61 417.77,-209.61"/>
<text text-anchor="middle" x="408.58" y="-209.31" font-family="Times,serif" font-size="14.00">τ</text>
</g>
<!-- s9 -->
<g id="node12" class="node">
<title>s9</title>
<ellipse fill="none" stroke="black" cx="540.9" cy="-223.11" rx="19.11" ry="19.11"/>
<text text-anchor="middle" x="540.9" y="-218.06" font-family="Times,serif" font-size="14.00">s9</text>
</g>
<!-- s8&#45;&gt;s9 -->
<g id="edge16" class="edge">
<title>s8&#45;&gt;s9</title>
<path fill="none" stroke="black" d="M467.97,-203.24C478.57,-202.16 492.1,-201.79 503.79,-204.61 507.24,-205.44 510.73,-206.66 514.11,-208.09"/>
<polygon fill="black" stroke="black" points="512.48,-211.18 523,-212.44 515.56,-204.9 512.48,-211.18"/>
<text text-anchor="middle" x="494.79" y="-207.81" font-family="Times,serif" font-size="14.00">0&#45;9</text>
</g>
<!-- s9&#45;&gt;s8 -->
<g id="edge17" class="edge">
<title>s9&#45;&gt;s8</title>
<path fill="none" stroke="black" d="M521.41,-224.04C510.86,-224.17 497.45,-223.66 485.79,-221.11 482.79,-220.45 479.71,-219.56 476.69,-218.53"/>
<polygon fill="black" stroke="black" points="478.18,-215.35 467.59,-214.97 475.62,-221.87 478.18,-215.35"/>
<text text-anchor="middle" x="494.79" y="-226.74" font-family="Times,serif" font-size="14.00">λ</text>
</g>
<!-- s10 -->
<g id="node13" class="node">
<title>s10</title>
<ellipse fill="none" stroke="black" cx="626.47" cy="-223.11" rx="23.71" ry="23.71"/>
<text text-anchor="middle" x="626.47" y="-218.06" font-family="Times,serif" font-size="14.00">s10</text>
</g>
<!-- s9&#45;&gt;s10 -->
<g id="edge18" class="edge">
<title>s9&#45;&gt;s10</title>
<path fill="none" stroke="black" d="M560.44,-223.11C569.46,-223.11 580.59,-223.11 591.08,-223.11"/>
<polygon fill="black" stroke="black" points="590.98,-226.61 600.98,-223.11 590.98,-219.61 590.98,-226.61"/>
<text text-anchor="middle" x="581.38" y="-226.31" font-family="Times,serif" font-size="14.00">τ</text>
</g>
<!-- s11 -->
<g id="node14" class="node">
<title>s11</title>
<ellipse fill="none" stroke="black" cx="713.65" cy="-208.11" rx="23.71" ry="23.71"/>
<text text-anchor="middle" x="713.65" y="-203.06" font-family="Times,serif" font-size="14.00">s11</text>
</g>
<!-- s10&#45;&gt;s11 -->
<g id="edge19" class="edge">
<title>s10&#45;&gt;s11</title>
<path fill="none" stroke="black" d="M650.29,-219.09C659.05,-217.55 669.24,-215.75 678.82,-214.06"/>
<polygon fill="black" stroke="black" points="679.32,-217.53 688.56,-212.35 678.11,-210.64 679.32,-217.53"/>
<text text-anchor="middle" x="670.06" y="-218.81" font-family="Times,serif" font-size="14.00">.</text>
</g>
<!-- s13 -->
<g id="node15" class="node">
<title>s13</title>
<ellipse fill="none" stroke="black" cx="904.5" cy="-206.11" rx="23.71" ry="23.71"/>
<text text-anchor="middle" x="904.5" y="-201.06" font-family="Times,serif" font-size="14.00">s13</text>
</g>
<!-- s10&#45;&gt;s13 -->
<g id="edge20" class="edge">
<title>s10&#45;&gt;s13</title>
<path fill="none" stroke="black" d="M649.12,-230.93C660.99,-234.82 676.08,-239.11 689.93,-241.11 755.42,-250.57 775.16,-257.24 838.79,-239.11 850.92,-235.65 863.45,-229.86 874.22,-224.08"/>
<polygon fill="black" stroke="black" points="875.61,-227.32 882.61,-219.37 872.18,-221.21 875.61,-227.32"/>
<text text-anchor="middle" x="764.36" y="-253.73" font-family="Times,serif" font-size="14.00">λ</text>
</g>
<!-- s12 -->
<g id="node16" class="node">
<title>s12</title>
<ellipse fill="none" stroke="black" cx="815.07" cy="-206.11" rx="23.71" ry="23.71"/>
<text text-anchor="middle" x="815.07" y="-201.06" font-family="Times,serif" font-size="14.00">s12</text>
</g>
<!-- s11&#45;&gt;s12 -->
<g id="edge21" class="edge">
<title>s11&#45;&gt;s12</title>
<path fill="none" stroke="black" d="M737.71,-207.64C750.26,-207.39 766.02,-207.07 779.97,-206.79"/>
<polygon fill="black" stroke="black" points="779.7,-210.3 789.63,-206.6 779.56,-203.3 779.7,-210.3"/>
<text text-anchor="middle" x="764.36" y="-210.49" font-family="Times,serif" font-size="14.00">0&#45;9</text>
</g>
<!-- s11&#45;&gt;s12 -->
<g id="edge22" class="edge">
<title>s11&#45;&gt;s12</title>
<path fill="none" stroke="black" d="M734.16,-195.35C740.64,-191.79 748.07,-188.41 755.36,-186.61 764.77,-184.27 774.85,-186.01 783.95,-189.24"/>
<polygon fill="black" stroke="black" points="782.5,-192.43 793.07,-193.15 785.25,-185.99 782.5,-192.43"/>
<text text-anchor="middle" x="764.36" y="-189.81" font-family="Times,serif" font-size="14.00">λ</text>
</g>
<!-- s13&#45;&gt;s14 -->
<g id="edge25" class="edge">
<title>s13&#45;&gt;s14</title>
<path fill="none" stroke="black" d="M924.9,-193.46C936.45,-185.93 951.31,-176.24 964.2,-167.84"/>
<polygon fill="black" stroke="black" points="965.85,-170.94 972.31,-162.55 962.02,-165.08 965.85,-170.94"/>
<text text-anchor="middle" x="949.22" y="-182.52" font-family="Times,serif" font-size="14.00">τ</text>
</g>
<!-- s12&#45;&gt;s11 -->
<g id="edge23" class="edge">
<title>s12&#45;&gt;s11</title>
<path fill="none" stroke="black" d="M793.92,-217C787.53,-219.9 780.32,-222.64 773.36,-224.11 764.35,-226.01 754.66,-224.76 745.81,-222.29"/>
<polygon fill="black" stroke="black" points="747.18,-219.06 736.59,-219.13 744.92,-225.68 747.18,-219.06"/>
<text text-anchor="middle" x="764.36" y="-228.23" font-family="Times,serif" font-size="14.00">λ</text>
</g>
<!-- s12&#45;&gt;s13 -->
<g id="edge24" class="edge">
<title>s12&#45;&gt;s13</title>
<path fill="none" stroke="black" d="M839.04,-206.11C848.21,-206.11 858.95,-206.11 869.02,-206.11"/>
<polygon fill="black" stroke="black" points="868.87,-209.61 878.87,-206.11 868.87,-202.61 868.87,-209.61"/>
<text text-anchor="middle" x="859.79" y="-209.31" font-family="Times,serif" font-size="14.00">τ</text>
</g>
</g>
</svg>
