<?xml version="1.0" encoding="UTF-8" standalone="no"?>
<!DOCTYPE svg PUBLIC "-//W3C//DTD SVG 1.1//EN"
 "http://www.w3.org/Graphics/SVG/1.1/DTD/svg11.dtd">
<!-- Generated by graphviz version 12.2.1 (20241206.2353)
 -->
<!-- Title: finite_state_machine Pages: 1 -->
<svg width="232pt" height="174pt"
 viewBox="0.00 0.00 231.65 174.22" xmlns="http://www.w3.org/2000/svg" xmlns:xlink="http://www.w3.org/1999/xlink">
<g id="graph0" class="graph" transform="scale(1 1) rotate(0) translate(4 170.22)">
<title>finite_state_machine</title>
<polygon fill="white" stroke="none" points="-4,4 -4,-170.22 227.65,-170.22 227.65,4 -4,4"/>
<!-- s1 -->
<g id="node1" class="node">
<title>s1</title>
<ellipse fill="none" stroke="black" cx="111.57" cy="-141.11" rx="19.11" ry="19.11"/>
<ellipse fill="none" stroke="black" cx="111.57" cy="-141.11" rx="23.11" ry="23.11"/>
<text text-anchor="middle" x="111.57" y="-136.06" font-family="Times,serif" font-size="14.00">s1</text>
</g>
<!-- s4 -->
<g id="node2" class="node">
<title>s4</title>
<ellipse fill="none" stroke="black" cx="200.54" cy="-143.11" rx="19.11" ry="19.11"/>
<ellipse fill="none" stroke="black" cx="200.54" cy="-143.11" rx="23.11" ry="23.11"/>
<text text-anchor="middle" x="200.54" y="-138.06" font-family="Times,serif" font-size="14.00">s4</text>
</g>
<!-- s1&#45;&gt;s4 -->
<g id="edge5" class="edge">
<title>s1&#45;&gt;s4</title>
<path fill="none" stroke="black" d="M134.97,-141.62C144.4,-141.84 155.58,-142.1 165.97,-142.34"/>
<polygon fill="black" stroke="black" points="165.63,-145.83 175.7,-142.56 165.79,-138.83 165.63,-145.83"/>
<text text-anchor="middle" x="156.06" y="-145.37" font-family="Times,serif" font-size="14.00">}</text>
</g>
<!-- s5 -->
<g id="node3" class="node">
<title>s5</title>
<ellipse fill="none" stroke="black" cx="200.54" cy="-79.11" rx="19.11" ry="19.11"/>
<ellipse fill="none" stroke="black" cx="200.54" cy="-79.11" rx="23.11" ry="23.11"/>
<text text-anchor="middle" x="200.54" y="-74.06" font-family="Times,serif" font-size="14.00">s5</text>
</g>
<!-- s0 -->
<g id="node4" class="node">
<title>s0</title>
<ellipse fill="none" stroke="black" cx="19.11" cy="-66.11" rx="19.11" ry="19.11"/>
<text text-anchor="middle" x="19.11" y="-61.06" font-family="Times,serif" font-size="14.00">s0</text>
</g>
<!-- s0&#45;&gt;s1 -->
<g id="edge1" class="edge">
<title>s0&#45;&gt;s1</title>
<path fill="none" stroke="black" d="M34.24,-77.83C47.66,-88.95 68.15,-105.94 84.53,-119.52"/>
<polygon fill="black" stroke="black" points="82.03,-121.99 91.96,-125.68 86.5,-116.6 82.03,-121.99"/>
<text text-anchor="middle" x="63.34" y="-109.06" font-family="Times,serif" font-size="14.00">%</text>
</g>
<!-- s2 -->
<g id="node5" class="node">
<title>s2</title>
<ellipse fill="none" stroke="black" cx="111.57" cy="-80.11" rx="19.11" ry="19.11"/>
<text text-anchor="middle" x="111.57" y="-75.06" font-family="Times,serif" font-size="14.00">s2</text>
</g>
<!-- s0&#45;&gt;s2 -->
<g id="edge2" class="edge">
<title>s0&#45;&gt;s2</title>
<path fill="none" stroke="black" d="M38.41,-68.94C50.68,-70.84 67.09,-73.38 81.16,-75.56"/>
<polygon fill="black" stroke="black" points="80.38,-78.98 90.8,-77.05 81.45,-72.06 80.38,-78.98"/>
<text text-anchor="middle" x="63.34" y="-76.73" font-family="Times,serif" font-size="14.00">b</text>
</g>
<!-- s3 -->
<g id="node6" class="node">
<title>s3</title>
<ellipse fill="none" stroke="black" cx="111.57" cy="-19.11" rx="19.11" ry="19.11"/>
<text text-anchor="middle" x="111.57" y="-14.06" font-family="Times,serif" font-size="14.00">s3</text>
</g>
<!-- s0&#45;&gt;s3 -->
<g id="edge3" class="edge">
<title>s0&#45;&gt;s3</title>
<path fill="none" stroke="black" d="M36.7,-57.49C49.96,-50.6 68.8,-40.81 84.14,-32.84"/>
<polygon fill="black" stroke="black" points="85.48,-36.09 92.74,-28.37 82.25,-29.88 85.48,-36.09"/>
<text text-anchor="middle" x="63.34" y="-50.02" font-family="Times,serif" font-size="14.00">}</text>
</g>
<!-- s0&#45;&gt;s3 -->
<g id="edge4" class="edge">
<title>s0&#45;&gt;s3</title>
<path fill="none" stroke="black" d="M29.13,-49.29C35.35,-39.52 44.58,-28.01 56.22,-22.11 63.72,-18.3 72.58,-16.78 80.95,-16.41"/>
<polygon fill="black" stroke="black" points="80.69,-19.91 90.73,-16.53 80.78,-12.91 80.69,-19.91"/>
<text text-anchor="middle" x="63.34" y="-23.81" font-family="Times,serif" font-size="14.00">◉</text>
</g>
<!-- s2&#45;&gt;s5 -->
<g id="edge6" class="edge">
<title>s2&#45;&gt;s5</title>
<path fill="none" stroke="black" d="M131.02,-79.9C141.11,-79.78 153.94,-79.63 165.76,-79.5"/>
<polygon fill="black" stroke="black" points="165.63,-83 175.59,-79.38 165.55,-76 165.63,-83"/>
<text text-anchor="middle" x="156.06" y="-82.84" font-family="Times,serif" font-size="14.00">b</text>
</g>
</g>
</svg>
